<?xml version="1.0" encoding="UTF-8" standalone="no"?>
<!DOCTYPE svg PUBLIC "-//W3C//DTD SVG 1.1//EN" "http://www.w3.org/Graphics/SVG/1.1/DTD/svg11.dtd">
<svg width="100%" height="100%" viewBox="0 0 3745 5504" version="1.1" xmlns="http://www.w3.org/2000/svg" xmlns:xlink="http://www.w3.org/1999/xlink" xml:space="preserve" xmlns:serif="http://www.serif.com/" style="fill-rule:evenodd;clip-rule:evenodd;">
    <g id="ページ1" transform="matrix(4.16667,0,0,4.16667,0,0)">
        <rect x="0" y="0" width="898.583" height="1320.94" style="fill:none;"/>
        <g id="マーク">
            <g transform="matrix(1,0,0,1,0,-1258.57)">
                <rect x="778.835" y="1278.42" width="0.72" height="22.677" style="fill:rgb(35,31,32);"/>
            </g>
            <g transform="matrix(1,0,0,1,0,-1258.57)">
                <rect x="772.357" y="1278.42" width="0.721" height="22.677" style="fill:rgb(35,31,32);"/>
            </g>
            <g transform="matrix(1,0,0,1,0,-1258.57)">
                <rect x="769.836" y="1278.42" width="0.72" height="22.677" style="fill:rgb(35,31,32);"/>
            </g>
            <g transform="matrix(-1,0,0,1,1554.43,-1258.57)">
                <rect x="776.314" y="1278.42" width="1.801" height="22.677" style="fill:rgb(35,31,32);"/>
            </g>
            <g transform="matrix(-1,0,0,1,1549.39,-1258.57)">
                <rect x="773.795" y="1278.42" width="1.801" height="22.677" style="fill:rgb(35,31,32);"/>
            </g>
            <g transform="matrix(1,0,0,1,0,-1258.57)">
                <rect x="810.153" y="1278.42" width="0.72" height="22.677" style="fill:rgb(35,31,32);"/>
            </g>
            <g transform="matrix(1,0,0,1,0,-1258.57)">
                <rect x="803.672" y="1278.42" width="0.722" height="22.677" style="fill:rgb(35,31,32);"/>
            </g>
            <g transform="matrix(1,0,0,1,0,-1258.57)">
                <rect x="801.153" y="1278.42" width="0.721" height="22.677" style="fill:rgb(35,31,32);"/>
            </g>
            <g transform="matrix(-1,0,0,1,1617.06,-1258.57)">
                <rect x="807.631" y="1278.42" width="1.802" height="22.677" style="fill:rgb(35,31,32);"/>
            </g>
            <g transform="matrix(-1,0,0,1,1612.03,-1258.57)">
                <rect x="805.112" y="1278.42" width="1.801" height="22.677" style="fill:rgb(35,31,32);"/>
            </g>
            <g transform="matrix(1,0,0,1,0,-1258.57)">
                <rect x="786.397" y="1278.42" width="0.722" height="22.677" style="fill:rgb(35,31,32);"/>
            </g>
            <g transform="matrix(1,0,0,1,0,-1258.57)">
                <rect x="787.835" y="1278.42" width="0.72" height="22.677" style="fill:rgb(35,31,32);"/>
            </g>
            <g transform="matrix(1,0,0,1,0,-1258.57)">
                <rect x="789.277" y="1278.42" width="0.718" height="22.677" style="fill:rgb(35,31,32);"/>
            </g>
            <g transform="matrix(-1,0,0,1,1562.35,-1258.57)">
                <rect x="780.274" y="1278.42" width="1.801" height="22.677" style="fill:rgb(35,31,32);"/>
            </g>
            <g transform="matrix(-1,0,0,1,1567.39,-1258.57)">
                <rect x="782.796" y="1278.42" width="1.801" height="22.677" style="fill:rgb(35,31,32);"/>
            </g>
            <g transform="matrix(1,0,0,1,0,-1258.57)">
                <rect x="790.713" y="1278.42" width="0.722" height="22.677" style="fill:rgb(35,31,32);"/>
            </g>
            <g transform="matrix(1,0,0,1,0,-1258.57)">
                <rect x="792.153" y="1278.42" width="0.721" height="22.677" style="fill:rgb(35,31,32);"/>
            </g>
            <g transform="matrix(1,0,0,1,0,-1258.57)">
                <rect x="799.713" y="1278.42" width="0.722" height="22.677" style="fill:rgb(35,31,32);"/>
            </g>
            <g transform="matrix(-1,0,0,1,1591.15,-1258.57)">
                <rect x="794.673" y="1278.42" width="1.801" height="22.677" style="fill:rgb(35,31,32);"/>
            </g>
            <g transform="matrix(-1,0,0,1,1596.19,-1258.57)">
                <rect x="797.193" y="1278.42" width="1.801" height="22.677" style="fill:rgb(35,31,32);"/>
            </g>
            <g transform="matrix(1,0,0,1,853.397,45.3566)">
                <path d="M0,-22.677L0,-19.843L19.842,-19.843L19.842,0L22.677,0L22.677,-22.677L0,-22.677Z" style="fill:rgb(35,31,32);fill-rule:nonzero;"/>
            </g>
            <g transform="matrix(1,0,0,1,0,-1173.55)">
                <rect x="320.315" y="1244.41" width="257.953" height="5.669" style="fill:rgb(35,31,32);"/>
            </g>
            <g transform="matrix(1,0,0,1,0,-1258.58)">
                <rect x="778.835" y="1278.42" width="0.72" height="22.676" style="fill:rgb(35,31,32);"/>
            </g>
            <g transform="matrix(1,0,0,1,0,-1258.58)">
                <rect x="772.356" y="1278.42" width="0.721" height="22.676" style="fill:rgb(35,31,32);"/>
            </g>
            <g transform="matrix(1,0,0,1,0,-1258.58)">
                <rect x="769.836" y="1278.42" width="0.72" height="22.676" style="fill:rgb(35,31,32);"/>
            </g>
            <g transform="matrix(-1,0,0,1,1554.43,-1258.58)">
                <rect x="776.314" y="1278.42" width="1.801" height="22.677" style="fill:rgb(35,31,32);"/>
            </g>
            <g transform="matrix(-1,0,0,1,1549.39,-1258.58)">
                <rect x="773.795" y="1278.42" width="1.801" height="22.677" style="fill:rgb(35,31,32);"/>
            </g>
            <g transform="matrix(1,0,0,1,0,-1258.58)">
                <rect x="810.153" y="1278.42" width="0.72" height="22.676" style="fill:rgb(35,31,32);"/>
            </g>
            <g transform="matrix(1,0,0,1,0,-1258.58)">
                <rect x="803.672" y="1278.42" width="0.722" height="22.676" style="fill:rgb(35,31,32);"/>
            </g>
            <g transform="matrix(1,0,0,1,0,-1258.58)">
                <rect x="801.153" y="1278.42" width="0.721" height="22.676" style="fill:rgb(35,31,32);"/>
            </g>
            <g transform="matrix(-1,0,0,1,1617.06,-1258.58)">
                <rect x="807.631" y="1278.42" width="1.802" height="22.677" style="fill:rgb(35,31,32);"/>
            </g>
            <g transform="matrix(-1,0,0,1,1612.03,-1258.58)">
                <rect x="805.112" y="1278.42" width="1.801" height="22.677" style="fill:rgb(35,31,32);"/>
            </g>
            <g transform="matrix(1,0,0,1,0,-1258.58)">
                <rect x="786.396" y="1278.42" width="0.721" height="22.676" style="fill:rgb(35,31,32);"/>
            </g>
            <g transform="matrix(1,0,0,1,0,-1258.58)">
                <rect x="787.835" y="1278.42" width="0.72" height="22.676" style="fill:rgb(35,31,32);"/>
            </g>
            <g transform="matrix(1,0,0,1,0,-1258.58)">
                <rect x="789.275" y="1278.42" width="0.72" height="22.676" style="fill:rgb(35,31,32);"/>
            </g>
            <g transform="matrix(-1,0,0,1,1562.35,-1258.58)">
                <rect x="780.274" y="1278.42" width="1.801" height="22.677" style="fill:rgb(35,31,32);"/>
            </g>
            <g transform="matrix(-1,0,0,1,1567.39,-1258.58)">
                <rect x="782.796" y="1278.42" width="1.801" height="22.677" style="fill:rgb(35,31,32);"/>
            </g>
            <g transform="matrix(1,0,0,1,0,-1258.58)">
                <rect x="790.713" y="1278.42" width="0.722" height="22.676" style="fill:rgb(35,31,32);"/>
            </g>
            <g transform="matrix(1,0,0,1,0,-1258.58)">
                <rect x="792.153" y="1278.42" width="0.721" height="22.676" style="fill:rgb(35,31,32);"/>
            </g>
            <g transform="matrix(1,0,0,1,0,-1258.58)">
                <rect x="799.713" y="1278.42" width="0.722" height="22.676" style="fill:rgb(35,31,32);"/>
            </g>
            <g transform="matrix(-1,0,0,1,1591.15,-1258.58)">
                <rect x="794.673" y="1278.42" width="1.801" height="22.677" style="fill:rgb(35,31,32);"/>
            </g>
            <g transform="matrix(-1,0,0,1,1596.19,-1258.58)">
                <rect x="797.193" y="1278.42" width="1.801" height="22.677" style="fill:rgb(35,31,32);"/>
            </g>
            <g transform="matrix(1,0,0,1,853.397,45.3527)">
                <path d="M0,-22.677L0,-19.843L19.842,-19.843L19.842,0L22.677,0L22.677,-22.677L0,-22.677Z" style="fill:rgb(35,31,32);fill-rule:nonzero;"/>
            </g>
        </g>
        <g id="_1.5mm枠" serif:id="1.5mm枠">
            <g transform="matrix(1,0,0,1,299.306,248.191)">
                <path d="M0,-164.908L-266.956,-164.908L-266.956,0L0,0L0,-164.908ZM-0.249,-0.249L-266.706,-0.249L-266.706,-164.658L-0.249,-164.658L-0.249,-0.249Z" style="fill:rgb(35,31,32);fill-rule:nonzero;"/>
            </g>
            <g transform="matrix(1,0,0,1,582.77,248.191)">
                <path d="M0,-164.908L-266.956,-164.908L-266.956,0L0,0L0,-164.908ZM-0.249,-0.249L-266.706,-0.249L-266.706,-164.658L-0.249,-164.658L-0.249,-0.249Z" style="fill:rgb(35,31,32);fill-rule:nonzero;"/>
            </g>
            <g transform="matrix(1,0,0,1,866.235,248.191)">
                <path d="M0,-164.908L-266.956,-164.908L-266.956,0L0,0L0,-164.908ZM-0.249,-0.249L-266.706,-0.249L-266.706,-164.658L-0.249,-164.658L-0.249,-0.249Z" style="fill:rgb(35,31,32);fill-rule:nonzero;"/>
            </g>
            <g transform="matrix(1,0,0,1,299.306,418.269)">
                <path d="M0,-164.908L-266.956,-164.908L-266.956,0L0,0L0,-164.908ZM-0.249,-0.249L-266.706,-0.249L-266.706,-164.658L-0.249,-164.658L-0.249,-0.249Z" style="fill:rgb(35,31,32);fill-rule:nonzero;"/>
            </g>
            <g transform="matrix(1,0,0,1,582.77,418.269)">
                <path d="M0,-164.908L-266.956,-164.908L-266.956,0L0,0L0,-164.908ZM-0.249,-0.249L-266.706,-0.249L-266.706,-164.658L-0.249,-164.658L-0.249,-0.249Z" style="fill:rgb(35,31,32);fill-rule:nonzero;"/>
            </g>
            <g transform="matrix(1,0,0,1,866.235,418.269)">
                <path d="M0,-164.908L-266.956,-164.908L-266.956,0L0,0L0,-164.908ZM-0.249,-0.249L-266.706,-0.249L-266.706,-164.658L-0.249,-164.658L-0.249,-0.249Z" style="fill:rgb(35,31,32);fill-rule:nonzero;"/>
            </g>
            <g transform="matrix(1,0,0,1,299.306,588.348)">
                <path d="M0,-164.908L-266.956,-164.908L-266.956,0L0,0L0,-164.908ZM-0.249,-0.249L-266.706,-0.249L-266.706,-164.658L-0.249,-164.658L-0.249,-0.249Z" style="fill:rgb(35,31,32);fill-rule:nonzero;"/>
            </g>
            <g transform="matrix(1,0,0,1,582.77,588.348)">
                <path d="M0,-164.908L-266.956,-164.908L-266.956,0L0,0L0,-164.908ZM-0.249,-0.249L-266.706,-0.249L-266.706,-164.658L-0.249,-164.658L-0.249,-0.249Z" style="fill:rgb(35,31,32);fill-rule:nonzero;"/>
            </g>
            <g transform="matrix(1,0,0,1,866.235,588.348)">
                <path d="M0,-164.908L-266.956,-164.908L-266.956,0L0,0L0,-164.908ZM-0.249,-0.249L-266.706,-0.249L-266.706,-164.658L-0.249,-164.658L-0.249,-0.249Z" style="fill:rgb(35,31,32);fill-rule:nonzero;"/>
            </g>
            <g transform="matrix(1,0,0,1,299.306,758.427)">
                <path d="M0,-164.908L-266.956,-164.908L-266.956,0L0,0L0,-164.908ZM-0.249,-0.249L-266.706,-0.249L-266.706,-164.658L-0.249,-164.658L-0.249,-0.249Z" style="fill:rgb(35,31,32);fill-rule:nonzero;"/>
            </g>
            <g transform="matrix(1,0,0,1,582.77,758.427)">
                <path d="M0,-164.908L-266.956,-164.908L-266.956,0L0,0L0,-164.908ZM-0.249,-0.249L-266.706,-0.249L-266.706,-164.658L-0.249,-164.658L-0.249,-0.249Z" style="fill:rgb(35,31,32);fill-rule:nonzero;"/>
            </g>
            <g transform="matrix(1,0,0,1,866.235,758.427)">
                <path d="M0,-164.908L-266.956,-164.908L-266.956,0L0,0L0,-164.908ZM-0.249,-0.249L-266.706,-0.249L-266.706,-164.658L-0.249,-164.658L-0.249,-0.249Z" style="fill:rgb(35,31,32);fill-rule:nonzero;"/>
            </g>
            <g transform="matrix(1,0,0,1,299.306,928.506)">
                <path d="M0,-164.908L-266.956,-164.908L-266.956,0L0,0L0,-164.908ZM-0.249,-0.249L-266.706,-0.249L-266.706,-164.658L-0.249,-164.658L-0.249,-0.249Z" style="fill:rgb(35,31,32);fill-rule:nonzero;"/>
            </g>
            <g transform="matrix(1,0,0,1,582.77,928.506)">
                <path d="M0,-164.908L-266.956,-164.908L-266.956,0L0,0L0,-164.908ZM-0.249,-0.249L-266.706,-0.249L-266.706,-164.658L-0.249,-164.658L-0.249,-0.249Z" style="fill:rgb(35,31,32);fill-rule:nonzero;"/>
            </g>
            <g transform="matrix(1,0,0,1,866.235,928.506)">
                <path d="M0,-164.908L-266.956,-164.908L-266.956,0L0,0L0,-164.908ZM-0.249,-0.249L-266.706,-0.249L-266.706,-164.658L-0.249,-164.658L-0.249,-0.249Z" style="fill:rgb(35,31,32);fill-rule:nonzero;"/>
            </g>
            <g transform="matrix(1,0,0,1,299.306,1098.58)">
                <path d="M0,-164.908L-266.956,-164.908L-266.956,0L0,0L0,-164.908ZM-0.249,-0.249L-266.706,-0.249L-266.706,-164.658L-0.249,-164.658L-0.249,-0.249Z" style="fill:rgb(35,31,32);fill-rule:nonzero;"/>
            </g>
            <g transform="matrix(1,0,0,1,582.77,1098.58)">
                <path d="M0,-164.908L-266.956,-164.908L-266.956,0L0,0L0,-164.908ZM-0.249,-0.249L-266.706,-0.249L-266.706,-164.658L-0.249,-164.658L-0.249,-0.249Z" style="fill:rgb(35,31,32);fill-rule:nonzero;"/>
            </g>
            <g transform="matrix(1,0,0,1,866.235,1098.58)">
                <path d="M0,-164.908L-266.956,-164.908L-266.956,0L0,0L0,-164.908ZM-0.249,-0.249L-266.706,-0.249L-266.706,-164.658L-0.249,-164.658L-0.249,-0.249Z" style="fill:rgb(35,31,32);fill-rule:nonzero;"/>
            </g>
            <g transform="matrix(1,0,0,1,299.306,1268.66)">
                <path d="M0,-164.908L-266.956,-164.908L-266.956,0L0,0L0,-164.908ZM-0.249,-0.249L-266.706,-0.249L-266.706,-164.658L-0.249,-164.658L-0.249,-0.249Z" style="fill:rgb(35,31,32);fill-rule:nonzero;"/>
            </g>
            <g transform="matrix(1,0,0,1,582.77,1268.66)">
                <path d="M0,-164.908L-266.956,-164.908L-266.956,0L0,0L0,-164.908ZM-0.249,-0.249L-266.706,-0.249L-266.706,-164.658L-0.249,-164.658L-0.249,-0.249Z" style="fill:rgb(35,31,32);fill-rule:nonzero;"/>
            </g>
            <g transform="matrix(1,0,0,1,866.235,1268.66)">
                <path d="M0,-164.908L-266.956,-164.908L-266.956,0L0,0L0,-164.908ZM-0.249,-0.249L-266.706,-0.249L-266.706,-164.658L-0.249,-164.658L-0.249,-0.249Z" style="fill:rgb(35,31,32);fill-rule:nonzero;"/>
            </g>
            <g transform="matrix(0,1,1,0,39.6602,77.8631)">
                <path d="M-2.834,-2.834L2.834,-2.834" style="fill:none;fill-rule:nonzero;stroke:rgb(35,31,32);stroke-width:0.3px;"/>
            </g>
            <g transform="matrix(0,1,1,0,297.612,77.8631)">
                <path d="M-2.834,-2.834L2.834,-2.834" style="fill:none;fill-rule:nonzero;stroke:rgb(35,31,32);stroke-width:0.3px;"/>
            </g>
            <g transform="matrix(-1,0,0,1,24.0698,243.69)">
                <path d="M-5.669,0L0,0" style="fill:none;fill-rule:nonzero;stroke:rgb(35,31,32);stroke-width:0.3px;"/>
            </g>
            <g transform="matrix(-1,0,0,1,24.0698,87.7844)">
                <path d="M-5.669,0L0,0" style="fill:none;fill-rule:nonzero;stroke:rgb(35,31,32);stroke-width:0.3px;"/>
            </g>
            <g transform="matrix(-1,0,0,1,24.0698,413.768)">
                <path d="M-5.669,0L0,0" style="fill:none;fill-rule:nonzero;stroke:rgb(35,31,32);stroke-width:0.3px;"/>
            </g>
            <g transform="matrix(-1,0,0,1,24.0698,257.863)">
                <path d="M-5.669,0L0,0" style="fill:none;fill-rule:nonzero;stroke:rgb(35,31,32);stroke-width:0.3px;"/>
            </g>
            <g transform="matrix(-1,0,0,1,24.0698,583.847)">
                <path d="M-5.669,0L0,0" style="fill:none;fill-rule:nonzero;stroke:rgb(35,31,32);stroke-width:0.3px;"/>
            </g>
            <g transform="matrix(-1,0,0,1,24.0698,427.942)">
                <path d="M-5.669,0L0,0" style="fill:none;fill-rule:nonzero;stroke:rgb(35,31,32);stroke-width:0.3px;"/>
            </g>
            <g transform="matrix(-1,0,0,1,24.0698,753.926)">
                <path d="M-5.669,0L0,0" style="fill:none;fill-rule:nonzero;stroke:rgb(35,31,32);stroke-width:0.3px;"/>
            </g>
            <g transform="matrix(-1,0,0,1,24.0698,598.021)">
                <path d="M-5.669,0L0,0" style="fill:none;fill-rule:nonzero;stroke:rgb(35,31,32);stroke-width:0.3px;"/>
            </g>
            <g transform="matrix(-1,0,0,1,24.0698,924.005)">
                <path d="M-5.669,0L0,0" style="fill:none;fill-rule:nonzero;stroke:rgb(35,31,32);stroke-width:0.3px;"/>
            </g>
            <g transform="matrix(-1,0,0,1,24.0698,768.099)">
                <path d="M-5.669,0L0,0" style="fill:none;fill-rule:nonzero;stroke:rgb(35,31,32);stroke-width:0.3px;"/>
            </g>
            <g transform="matrix(-1,0,0,1,24.0698,1108.26)">
                <path d="M-5.669,0L0,0" style="fill:none;fill-rule:nonzero;stroke:rgb(35,31,32);stroke-width:0.3px;"/>
            </g>
            <g transform="matrix(-1,0,0,1,24.0698,1094.08)">
                <path d="M-5.669,0L0,0" style="fill:none;fill-rule:nonzero;stroke:rgb(35,31,32);stroke-width:0.3px;"/>
            </g>
            <g transform="matrix(-1,0,0,1,24.0698,938.178)">
                <path d="M-5.669,0L0,0" style="fill:none;fill-rule:nonzero;stroke:rgb(35,31,32);stroke-width:0.3px;"/>
            </g>
            <g transform="matrix(0,1,1,0,39.6634,1274.08)">
                <path d="M-2.834,-2.834L2.834,-2.834" style="fill:none;fill-rule:nonzero;stroke:rgb(35,31,32);stroke-width:0.3px;"/>
            </g>
            <g transform="matrix(0,1,1,0,297.616,1274.08)">
                <path d="M-2.834,-2.834L2.834,-2.834" style="fill:none;fill-rule:nonzero;stroke:rgb(35,31,32);stroke-width:0.3px;"/>
            </g>
            <g transform="matrix(-1,0,0,1,24.0735,1264.16)">
                <path d="M-5.669,0L0,0" style="fill:none;fill-rule:nonzero;stroke:rgb(35,31,32);stroke-width:0.3px;"/>
            </g>
            <g transform="matrix(0,1,1,0,606.59,77.8631)">
                <path d="M-2.834,-2.834L2.834,-2.834" style="fill:none;fill-rule:nonzero;stroke:rgb(35,31,32);stroke-width:0.3px;"/>
            </g>
            <g transform="matrix(0,1,1,0,864.543,77.8631)">
                <path d="M-2.834,-2.834L2.834,-2.834" style="fill:none;fill-rule:nonzero;stroke:rgb(35,31,32);stroke-width:0.3px;"/>
            </g>
            <g transform="matrix(-1,0,0,1,868.794,243.69)">
                <path d="M-5.67,0L0,0" style="fill:none;fill-rule:nonzero;stroke:rgb(35,31,32);stroke-width:0.3px;"/>
            </g>
            <g transform="matrix(-1,0,0,1,868.794,87.7844)">
                <path d="M-5.67,0L0,0" style="fill:none;fill-rule:nonzero;stroke:rgb(35,31,32);stroke-width:0.3px;"/>
            </g>
            <g transform="matrix(-1,0,0,1,868.794,413.768)">
                <path d="M-5.67,0L0,0" style="fill:none;fill-rule:nonzero;stroke:rgb(35,31,32);stroke-width:0.3px;"/>
            </g>
            <g transform="matrix(-1,0,0,1,868.794,257.863)">
                <path d="M-5.67,0L0,0" style="fill:none;fill-rule:nonzero;stroke:rgb(35,31,32);stroke-width:0.3px;"/>
            </g>
            <g transform="matrix(-1,0,0,1,868.794,583.847)">
                <path d="M-5.67,0L0,0" style="fill:none;fill-rule:nonzero;stroke:rgb(35,31,32);stroke-width:0.3px;"/>
            </g>
            <g transform="matrix(-1,0,0,1,868.794,427.942)">
                <path d="M-5.67,0L0,0" style="fill:none;fill-rule:nonzero;stroke:rgb(35,31,32);stroke-width:0.3px;"/>
            </g>
            <g transform="matrix(-1,0,0,1,868.794,753.926)">
                <path d="M-5.67,0L0,0" style="fill:none;fill-rule:nonzero;stroke:rgb(35,31,32);stroke-width:0.3px;"/>
            </g>
            <g transform="matrix(-1,0,0,1,868.794,598.021)">
                <path d="M-5.67,0L0,0" style="fill:none;fill-rule:nonzero;stroke:rgb(35,31,32);stroke-width:0.3px;"/>
            </g>
            <g transform="matrix(-1,0,0,1,868.794,924.005)">
                <path d="M-5.67,0L0,0" style="fill:none;fill-rule:nonzero;stroke:rgb(35,31,32);stroke-width:0.3px;"/>
            </g>
            <g transform="matrix(-1,0,0,1,868.794,768.099)">
                <path d="M-5.67,0L0,0" style="fill:none;fill-rule:nonzero;stroke:rgb(35,31,32);stroke-width:0.3px;"/>
            </g>
            <g transform="matrix(-1,0,0,1,868.794,1094.08)">
                <path d="M-5.67,0L0,0" style="fill:none;fill-rule:nonzero;stroke:rgb(35,31,32);stroke-width:0.3px;"/>
            </g>
            <g transform="matrix(-1,0,0,1,868.794,938.178)">
                <path d="M-5.67,0L0,0" style="fill:none;fill-rule:nonzero;stroke:rgb(35,31,32);stroke-width:0.3px;"/>
            </g>
            <g transform="matrix(0,1,1,0,606.589,1274.08)">
                <path d="M-2.834,-2.834L2.834,-2.834" style="fill:none;fill-rule:nonzero;stroke:rgb(35,31,32);stroke-width:0.3px;"/>
            </g>
            <g transform="matrix(0,1,1,0,864.542,1274.08)">
                <path d="M-2.834,-2.834L2.834,-2.834" style="fill:none;fill-rule:nonzero;stroke:rgb(35,31,32);stroke-width:0.3px;"/>
            </g>
            <g transform="matrix(0,1,1,0,323.124,1274.08)">
                <path d="M-2.834,-2.834L2.834,-2.834" style="fill:none;fill-rule:nonzero;stroke:rgb(35,31,32);stroke-width:0.3px;"/>
            </g>
            <g transform="matrix(0,1,1,0,581.077,1274.08)">
                <path d="M-2.834,-2.834L2.834,-2.834" style="fill:none;fill-rule:nonzero;stroke:rgb(35,31,32);stroke-width:0.3px;"/>
            </g>
            <g transform="matrix(-1,0,0,1,868.794,1264.16)">
                <path d="M-5.67,0L0,0" style="fill:none;fill-rule:nonzero;stroke:rgb(35,31,32);stroke-width:0.3px;"/>
            </g>
            <g transform="matrix(-1,0,0,1,868.794,1108.26)">
                <path d="M-5.67,0L0,0" style="fill:none;fill-rule:nonzero;stroke:rgb(35,31,32);stroke-width:0.3px;"/>
            </g>
        </g>
    </g>
</svg>
