<?xml version="1.0" encoding="UTF-8" standalone="no"?>
<!-- Created with Inkscape (http://www.inkscape.org/) -->

<svg
   width="210mm"
   height="297mm"
   viewBox="0 0 210 297"
   version="1.1"
   id="svg1"
   inkscape:version="1.4.2 (f4327f4, 2025-05-13)"
   sodipodi:docname="font.svg"
   xmlns:inkscape="http://www.inkscape.org/namespaces/inkscape"
   xmlns:sodipodi="http://sodipodi.sourceforge.net/DTD/sodipodi-0.dtd"
   xmlns="http://www.w3.org/2000/svg"
   xmlns:svg="http://www.w3.org/2000/svg">
  <sodipodi:namedview
     id="namedview1"
     pagecolor="#ffffff"
     bordercolor="#000000"
     borderopacity="0.25"
     inkscape:showpageshadow="2"
     inkscape:pageopacity="0.0"
     inkscape:pagecheckerboard="0"
     inkscape:deskcolor="#d1d1d1"
     inkscape:document-units="mm"
     showguides="true"
     inkscape:zoom="0.55748644"
     inkscape:cx="38.565961"
     inkscape:cy="861.90437"
     inkscape:window-width="1920"
     inkscape:window-height="1129"
     inkscape:window-x="-8"
     inkscape:window-y="-8"
     inkscape:window-maximized="1"
     inkscape:current-layer="layer1">
    <sodipodi:guide
       position="130.96525,144.6"
       orientation="0,-1"
       id="guide30"
       inkscape:locked="false" />
    <sodipodi:guide
       position="90.318089,122.38222"
       orientation="0,-1"
       id="guide31"
       inkscape:locked="false" />
    <sodipodi:guide
       position="132.35975,133.49112"
       orientation="0,-1"
       id="guide33"
       inkscape:locked="false" />
    <sodipodi:guide
       position="66.229744,138.19988"
       orientation="0,-1"
       id="guide34"
       inkscape:locked="false" />
    <sodipodi:guide
       position="133.85215,137.74874"
       orientation="1,0"
       id="guide54"
       inkscape:locked="false" />
    <sodipodi:guide
       position="364.81561,137.20354"
       orientation="0,-1"
       id="guide76"
       inkscape:locked="false" />
    <sodipodi:guide
       position="341.13533,121.10794"
       orientation="1,0"
       id="guide77"
       inkscape:locked="false" />
    <sodipodi:guide
       position="341.85364,106.86127"
       orientation="1,0"
       id="guide87"
       inkscape:locked="false" />
    <sodipodi:guide
       position="332.26308,127.56566"
       orientation="0,-1"
       id="guide104"
       inkscape:locked="false" />
    <sodipodi:guide
       position="202.21,129.23294"
       orientation="0,-1"
       id="guide105"
       inkscape:locked="false" />
  </sodipodi:namedview>
  <defs
     id="defs1" />
  <g
     inkscape:label="Layer 1"
     inkscape:groupmode="layer"
     id="layer1">
    <path
       id="path83"
       style="fill:#000000;stroke:none;stroke-width:0.500609;stroke-linecap:round;paint-order:stroke markers fill"
       d="m 133.85215,152.39948 v 5.18522 c 0.92013,0 1.66605,0.74591 1.66605,1.66604 v 5.2e-4 h 5.1847 v -5.2e-4 c 1.4e-4,-3.7837 -3.06705,-6.85112 -6.85075,-6.85126 z" />
    <rect
       style="fill:#000000;stroke:none;stroke-width:0.284601;stroke-linecap:round;paint-order:stroke markers fill"
       id="rect30"
       width="5.18469"
       height="6.0813999"
       x="-92.077881"
       y="168.53638" />
    <path
       id="path30"
       style="fill:#000000;stroke:none;stroke-width:0.500609;stroke-linecap:round;paint-order:stroke markers fill"
       d="m -85.22714,161.68536 c -3.7835,1.4e-4 -6.8506,3.06724 -6.85074,6.85074 h 5.18469 c 0,-0.92013 0.74592,-1.66605 1.66605,-1.66605 0.92013,0 1.66605,0.74592 1.66605,1.66605 h 5.18521 c -1.4e-4,-3.7837 -3.06756,-6.85088 -6.85126,-6.85074 z"
       sodipodi:nodetypes="sccsccs" />
    <rect
       style="fill:#000000;stroke:none;stroke-width:0.284601;stroke-linecap:round;paint-order:stroke markers fill"
       id="rect31"
       width="5.18469"
       height="6.0813999"
       x="-83.560577"
       y="168.53638" />
    <rect
       style="fill:#000000;stroke:none;stroke-width:0.284601;stroke-linecap:round;paint-order:stroke markers fill"
       id="rect33"
       width="5.18469"
       height="6.0813999"
       x="78.375885"
       y="-158.4814"
       transform="scale(-1)" />
    <path
       id="path33"
       style="fill:#000000;stroke:none;stroke-width:0.500609;stroke-linecap:round;paint-order:stroke markers fill"
       d="m -85.22662,165.33243 c 3.7835,-1.4e-4 6.8506,-3.06724 6.85074,-6.85074 h -5.18469 c 0,0.92013 -0.74592,1.66605 -1.66605,1.66605 -0.92013,0 -1.66605,-0.74592 -1.66605,-1.66605 h -5.18521 c 1.4e-4,3.7837 3.06756,6.85088 6.85126,6.85074 z"
       sodipodi:nodetypes="sccsccs" />
    <rect
       style="fill:#000000;stroke:none;stroke-width:0.284601;stroke-linecap:round;paint-order:stroke markers fill"
       id="rect34"
       width="5.18469"
       height="6.0813999"
       x="86.893188"
       y="-158.4814"
       transform="scale(-1)" />
    <path
       id="path34"
       style="fill:#000000;stroke:none;stroke-width:0.500609;stroke-linecap:round;paint-order:stroke markers fill"
       d="m -68.19071,155.73161 c -3.7835,1.4e-4 -6.8506,3.06724 -6.85074,6.85074 h 5.18469 c 0,-0.92013 0.74592,-1.66605 1.66605,-1.66605 0.92013,0 1.66605,0.74592 1.66605,1.66605 h 5.18521 c -1.4e-4,-3.7837 -3.06756,-6.85088 -6.85126,-6.85074 z"
       sodipodi:nodetypes="sccsccs" />
    <path
       id="path35"
       style="fill:#000000;stroke:none;stroke-width:0.500609;stroke-linecap:round;paint-order:stroke markers fill"
       d="m -68.19071,174.61778 c -3.7835,-1.4e-4 -6.8506,-3.06724 -6.85074,-6.85074 h 5.18469 c 0,0.92013 0.74592,1.66605 1.66605,1.66605 0.92013,0 1.66605,-0.74592 1.66605,-1.66605 h 5.18521 c -1.4e-4,3.7837 -3.06756,6.85088 -6.85126,6.85074 z"
       sodipodi:nodetypes="sccsccs" />
    <rect
       style="fill:#000000;stroke:none;stroke-width:0.266005;stroke-linecap:round;paint-order:stroke markers fill"
       id="rect35"
       width="5.18469"
       height="5.312624"
       x="-75.041458"
       y="162.45442" />
    <rect
       style="fill:#000000;stroke:none;stroke-width:0.336792;stroke-linecap:round;paint-order:stroke markers fill"
       id="rect37"
       width="5.18469"
       height="8.5163031"
       x="-70.783051"
       y="152.39999" />
    <path
       style="fill:#000000;fill-opacity:1;stroke:none;stroke-width:1.88958;stroke-linecap:round;stroke-dasharray:none;stroke-opacity:1;paint-order:stroke markers fill"
       d="m -58.67273,152.40053 v 5.17503 h 12.28819 v -5.17503 z"
       id="path37" />
    <path
       id="path38"
       style="fill:#000000;stroke:none;stroke-width:0.500609;stroke-linecap:round;paint-order:stroke markers fill"
       d="m -52.52889,158.80012 c -3.7835,1.4e-4 -6.8506,3.06724 -6.85074,6.85074 h 5.18469 c 0,-0.92013 0.74592,-1.66605 1.66605,-1.66605 0.92013,0 1.66605,0.74592 1.66605,1.66605 h 5.18521 c -1.4e-4,-3.7837 -3.06756,-6.85088 -6.85126,-6.85074 z"
       sodipodi:nodetypes="sccsccs" />
    <path
       id="path39"
       style="fill:#000000;stroke:none;stroke-width:0.500609;stroke-linecap:round;paint-order:stroke markers fill"
       d="m -52.52889,174.61778 c -3.7835,-1.4e-4 -6.8506,-3.06724 -6.85074,-6.85074 h 5.18469 c 0,0.92013 0.74592,1.66605 1.66605,1.66605 0.92013,0 1.66605,-0.74592 1.66605,-1.66605 h 5.18521 c -1.4e-4,3.7837 -3.06756,6.85088 -6.85126,6.85074 z"
       sodipodi:nodetypes="sccsccs" />
    <rect
       style="fill:#000000;stroke:none;stroke-width:0.167885;stroke-linecap:round;paint-order:stroke markers fill"
       id="rect39"
       width="5.18469"
       height="2.1161783"
       x="-59.379639"
       y="165.65086" />
    <rect
       style="fill:#000000;stroke:none;stroke-width:0.167885;stroke-linecap:round;paint-order:stroke markers fill"
       id="rect40"
       width="5.18469"
       height="2.1161783"
       x="-50.862839"
       y="165.65086" />
    <rect
       style="fill:#000000;stroke:none;stroke-width:0.266005;stroke-linecap:round;paint-order:stroke markers fill"
       id="rect41"
       width="5.18469"
       height="5.312624"
       x="-66.525314"
       y="162.45442" />
    <rect
       style="fill:#000000;stroke:none;stroke-width:0.543983;stroke-linecap:round;paint-order:stroke markers fill"
       id="rect44"
       width="5.18469"
       height="22.217777"
       x="3.4781816"
       y="152.39999" />
    <rect
       style="fill:#000000;stroke:none;stroke-width:0.543983;stroke-linecap:round;paint-order:stroke markers fill"
       id="rect45"
       width="5.18469"
       height="22.217777"
       x="11.995485"
       y="152.39999" />
    <path
       style="fill:#000000;stroke:none;stroke-width:0.453001;stroke-linecap:round;paint-order:stroke markers fill"
       d="m 3.4783496,174.61776 h 5.18469 L 17.18035,152.39999 h -5.1847 z"
       id="path46" />
    <rect
       style="fill:#000000;stroke:none;stroke-width:0.452407;stroke-linecap:round;paint-order:stroke markers fill"
       id="rect46"
       width="5.18469"
       height="15.367029"
       x="-32.841858"
       y="-167.76704"
       transform="scale(-1)" />
    <path
       id="path47"
       style="fill:#000000;stroke:none;stroke-width:0.500609;stroke-linecap:round;paint-order:stroke markers fill"
       d="m 25.99142,174.61807 c 3.7835,-1.4e-4 6.8506,-3.06724 6.85074,-6.85074 h -5.18469 c 0,0.92013 -0.74592,1.66605 -1.66605,1.66605 -0.92013,0 -1.66605,-0.74592 -1.66605,-1.66605 h -5.18521 c 1.4e-4,3.7837 3.06756,6.85088 6.85126,6.85074 z"
       sodipodi:nodetypes="sccsccs" />
    <rect
       style="fill:#000000;stroke:none;stroke-width:0.452407;stroke-linecap:round;paint-order:stroke markers fill"
       id="rect47"
       width="5.18469"
       height="15.367029"
       x="-24.324587"
       y="-167.76704"
       transform="scale(-1)" />
    <rect
       style="fill:#000000;stroke:none;stroke-width:0.452407;stroke-linecap:round;paint-order:stroke markers fill"
       id="rect48"
       width="5.18469"
       height="15.367029"
       x="-41.359406"
       y="-167.76704"
       transform="scale(-1)" />
    <path
       id="path48"
       style="fill:#000000;stroke:none;stroke-width:0.500609;stroke-linecap:round;paint-order:stroke markers fill"
       d="m 34.50872,174.61807 c 3.7835,-1.4e-4 6.8506,-3.06724 6.85074,-6.85074 h -5.18469 c 0,0.92013 -0.74592,1.66605 -1.66605,1.66605 -0.92013,0 -1.66605,-0.74592 -1.66605,-1.66605 h -5.18521 c 1.4e-4,3.7837 3.06756,6.85088 6.85126,6.85074 z"
       sodipodi:nodetypes="sccsccs" />
    <path
       id="path49"
       style="fill:#000000;stroke:none;stroke-width:0.500609;stroke-linecap:round;paint-order:stroke markers fill"
       d="m 57.31558,152.4 c 3.7835,1.4e-4 6.8506,3.06724 6.85074,6.85074 h -5.18469 c 0,-0.92013 -0.74592,-1.66605 -1.66605,-1.66605 -0.92013,0 -1.66605,0.74592 -1.66605,1.66605 h -5.18521 c 1.4e-4,-3.7837 3.06756,-6.85088 6.85126,-6.85074 z"
       sodipodi:nodetypes="sccsccs" />
    <path
       id="path50"
       style="fill:#000000;stroke:none;stroke-width:0.500609;stroke-linecap:round;paint-order:stroke markers fill"
       d="m 57.31558,174.61778 c 3.7835,-1.4e-4 6.8506,-3.06724 6.85074,-6.85074 h -5.18469 c 0,0.92013 -0.74592,1.66605 -1.66605,1.66605 -0.92013,0 -1.66605,-0.74592 -1.66605,-1.66605 h -5.18521 c 1.4e-4,3.7837 3.06756,6.85088 6.85126,6.85074 z"
       sodipodi:nodetypes="sccsccs" />
    <rect
       style="fill:#000000;stroke:none;stroke-width:0.336791;stroke-linecap:round;paint-order:stroke markers fill"
       id="rect50"
       width="5.18469"
       height="8.5163059"
       x="-64.166321"
       y="159.25073"
       transform="scale(-1,1)" />
    <rect
       style="fill:#000000;stroke:none;stroke-width:0.336791;stroke-linecap:round;paint-order:stroke markers fill"
       id="rect51"
       width="5.18469"
       height="8.5163059"
       x="-55.650173"
       y="159.25073"
       transform="scale(-1,1)" />
    <rect
       style="fill:#000000;stroke:none;stroke-width:0.543983;stroke-linecap:round;paint-order:stroke markers fill"
       id="rect52"
       width="5.18469"
       height="22.217777"
       x="-48.896423"
       y="152.39999"
       transform="scale(-1,1)" />
    <path
       style="fill:#000000;fill-opacity:1;stroke:none;stroke-width:1.8625;stroke-linecap:round;stroke-dasharray:none;stroke-opacity:1;paint-order:stroke markers fill"
       d="m 55.65019,160.92137 v 5.17503 H 43.71173 v -5.17503 z"
       id="path52" />
    <rect
       style="fill:#000000;stroke:none;stroke-width:0.27801;stroke-linecap:round;paint-order:stroke markers fill"
       id="rect53"
       width="5.18469"
       height="5.8029661"
       x="-166.10173"
       y="-72.321533"
       transform="matrix(0,-1,-1,0,0,0)" />
    <path
       id="path53"
       style="fill:#000000;stroke:none;stroke-width:0.500609;stroke-linecap:round;paint-order:stroke markers fill"
       d="m 79.17255,159.251 c -1.4e-4,3.7835 -3.06724,6.8506 -6.85074,6.85074 v -5.18469 c 0.92013,0 1.66605,-0.74592 1.66605,-1.66605 0,-0.92013 -0.74592,-1.66605 -1.66605,-1.66605 v -5.18521 c 3.7837,1.4e-4 6.85088,3.06756 6.85074,6.85126 z"
       sodipodi:nodetypes="sccsccs" />
    <rect
       style="fill:#000000;stroke:none;stroke-width:0.27801;stroke-linecap:round;paint-order:stroke markers fill"
       id="rect54"
       width="5.18469"
       height="5.8029661"
       x="-157.58443"
       y="-72.321533"
       transform="matrix(0,-1,-1,0,0,0)" />
    <rect
       style="fill:#000000;stroke:none;stroke-width:0.27801;stroke-linecap:round;paint-order:stroke markers fill"
       id="rect55"
       width="5.18469"
       height="5.8029661"
       x="-174.61903"
       y="-72.321533"
       transform="matrix(0,-1,-1,0,0,0)" />
    <path
       id="path55"
       style="fill:#000000;stroke:none;stroke-width:0.500609;stroke-linecap:round;paint-order:stroke markers fill"
       d="m 79.17255,167.7683 c -1.4e-4,3.7835 -3.06724,6.8506 -6.85074,6.85074 v -5.18469 c 0.92013,0 1.66605,-0.74592 1.66605,-1.66605 0,-0.92013 -0.74592,-1.66605 -1.66605,-1.66605 v -5.18521 c 3.7837,1.4e-4 6.85088,3.06756 6.85074,6.85126 z"
       sodipodi:nodetypes="sccsccs" />
    <path
       id="path56"
       style="fill:#000000;stroke:none;stroke-width:0.500609;stroke-linecap:round;paint-order:stroke markers fill"
       d="m -37.77511,152.4 v 5.18469 c 0.92014,0 1.66605,0.74592 1.66605,1.66605 h 5.18521 c -1.4e-4,-3.7837 -3.06755,-6.85088 -6.85126,-6.85074 z" />
    <rect
       style="fill:#000000;stroke:none;stroke-width:0.543983;stroke-linecap:round;paint-order:stroke markers fill"
       id="rect56"
       width="5.18469"
       height="22.217777"
       x="-44.018127"
       y="152.39999" />
    <path
       id="path57"
       style="fill:#000000;stroke:none;stroke-width:0.500609;stroke-linecap:round;paint-order:stroke markers fill"
       d="m -37.77511,174.61778 v -5.18469 c 0.92014,0 1.66605,-0.74592 1.66605,-1.66605 h 5.18521 c -1.4e-4,3.7837 -3.06755,6.85088 -6.85126,6.85074 z" />
    <rect
       style="fill:#000000;stroke:none;stroke-width:0.336791;stroke-linecap:round;paint-order:stroke markers fill"
       id="rect57"
       width="5.18469"
       height="8.5163078"
       x="-36.10881"
       y="159.25073" />
    <path
       style="fill:#000000;fill-opacity:1;stroke:none;stroke-width:1.19133;stroke-linecap:round;stroke-dasharray:none;stroke-opacity:1;paint-order:stroke markers fill"
       d="m -42.65958,152.40053 v 5.17503 h 4.88447 v -5.17503 z"
       id="path58" />
    <path
       style="fill:#000000;fill-opacity:1;stroke:none;stroke-width:1.19133;stroke-linecap:round;stroke-dasharray:none;stroke-opacity:1;paint-order:stroke markers fill"
       d="m -42.65958,169.44275 v 5.17503 h 4.88447 v -5.17503 z"
       id="path59" />
    <path
       id="path60"
       style="fill:#000000;stroke:none;stroke-width:0.500609;stroke-linecap:round;paint-order:stroke markers fill"
       d="m -22.56417,152.4 v 5.18469 c 0.92014,0 1.66605,0.74592 1.66605,1.66605 h 5.18521 c -1.4e-4,-3.7837 -3.06755,-6.85088 -6.85126,-6.85074 z" />
    <rect
       style="fill:#000000;stroke:none;stroke-width:0.452408;stroke-linecap:round;paint-order:stroke markers fill"
       id="rect60"
       width="5.18469"
       height="15.367071"
       x="-28.807203"
       y="152.39999" />
    <path
       id="path61"
       style="fill:#000000;stroke:none;stroke-width:0.500609;stroke-linecap:round;paint-order:stroke markers fill"
       d="m -22.56417,174.61778 v -5.18469 c 0.92014,0 1.66605,-0.74592 1.66605,-1.66605 h 5.18521 c -1.4e-4,3.7837 -3.06755,6.85088 -6.85126,6.85074 z" />
    <rect
       style="fill:#000000;stroke:none;stroke-width:0.336791;stroke-linecap:round;paint-order:stroke markers fill"
       id="rect61"
       width="5.18469"
       height="8.5163078"
       x="-20.897886"
       y="159.25073" />
    <path
       style="fill:#000000;fill-opacity:1;stroke:none;stroke-width:1.19133;stroke-linecap:round;stroke-dasharray:none;stroke-opacity:1;paint-order:stroke markers fill"
       d="m -27.44864,152.40053 v 5.17503 h 4.88447 v -5.17503 z"
       id="path62" />
    <path
       style="fill:#000000;fill-opacity:1;stroke:none;stroke-width:1.3526;stroke-linecap:round;stroke-dasharray:none;stroke-opacity:1;paint-order:stroke markers fill"
       d="m -28.86058,169.44275 v 5.17503 h 6.29641 v -5.17503 z"
       id="path63" />
    <rect
       style="fill:#000000;stroke:none;stroke-width:0.452408;stroke-linecap:round;paint-order:stroke markers fill"
       id="rect63"
       width="5.18469"
       height="15.367046"
       x="-12.988569"
       y="152.39999" />
    <rect
       style="fill:#000000;stroke:none;stroke-width:0.452408;stroke-linecap:round;paint-order:stroke markers fill"
       id="rect64"
       width="5.18469"
       height="15.367046"
       x="-4.4712658"
       y="152.39999" />
    <path
       style="fill:#000000;stroke:none;stroke-width:0.376742;stroke-linecap:round;paint-order:stroke markers fill"
       d="m -12.98832,167.76703 h 5.1846896 L 0.71367965,152.39999 H -4.4710204 Z"
       id="path64" />
    <path
       style="fill:#000000;fill-opacity:1;stroke:none;stroke-width:1.99536;stroke-linecap:round;stroke-dasharray:none;stroke-opacity:1;paint-order:stroke markers fill"
       d="m -12.98857,169.44275 v 5.17503 H 0.71392965 v -5.17503 z"
       id="path65" />
    <rect
       style="fill:#000000;stroke:none;stroke-width:0.27801;stroke-linecap:round;paint-order:stroke markers fill"
       id="rect73"
       width="5.18469"
       height="5.8029661"
       x="-164.98116"
       y="-104.14737"
       transform="matrix(0,-1,-1,0,0,0)" />
    <rect
       style="fill:#000000;stroke:none;stroke-width:0.27801;stroke-linecap:round;paint-order:stroke markers fill"
       id="rect74"
       width="5.18469"
       height="5.8029661"
       x="-174.61903"
       y="-104.14737"
       transform="matrix(0,-1,-1,0,0,0)" />
    <rect
       style="fill:#000000;stroke:none;stroke-width:0.543983;stroke-linecap:round;paint-order:stroke markers fill"
       id="rect75"
       width="5.18469"
       height="22.217777"
       x="-101.88968"
       y="152.39999"
       transform="scale(-1,1)" />
    <rect
       style="fill:#000000;stroke:none;stroke-width:0.421524;stroke-linecap:round;paint-order:stroke markers fill"
       id="rect76"
       width="5.18469"
       height="13.340567"
       x="152.39973"
       y="-110.1181"
       transform="rotate(90)" />
    <path
       id="path76"
       style="fill:#000000;stroke:none;stroke-width:0.500609;stroke-linecap:round;paint-order:stroke markers fill"
       d="m 103.98517,174.61778 v -5.18469 c 0.92014,0 1.66605,-0.74592 1.66605,-1.66605 h 5.18521 c -1.4e-4,3.7837 -3.06755,6.85088 -6.85126,6.85074 z" />
    <path
       id="path77"
       style="fill:#000000;stroke:none;stroke-width:0.500609;stroke-linecap:round;paint-order:stroke markers fill"
       d="m 110.83617,166.64772 h -5.18469 c 0,-0.92014 -0.74592,-1.66605 -1.66605,-1.66605 v -5.18521 c 3.7837,1.4e-4 6.85088,3.06755 6.85074,6.85126 z" />
    <rect
       style="fill:#000000;stroke:none;stroke-width:0.122099;stroke-linecap:round;paint-order:stroke markers fill"
       id="rect77"
       width="5.18469"
       height="1.1193225"
       x="105.65121"
       y="-167.76704"
       transform="scale(1,-1)" />
    <rect
       style="fill:#000000;stroke:none;stroke-width:0.452405;stroke-linecap:round;paint-order:stroke markers fill"
       id="rect78"
       width="5.18469"
       height="15.366785"
       x="121.58747"
       y="-167.76678"
       transform="scale(1,-1)" />
    <rect
       style="fill:#000000;stroke:none;stroke-width:0.452405;stroke-linecap:round;paint-order:stroke markers fill"
       id="rect79"
       width="5.18469"
       height="15.366785"
       x="113.07016"
       y="-167.76678"
       transform="scale(1,-1)" />
    <path
       id="path79"
       style="fill:#000000;stroke:none;stroke-width:0.500609;stroke-linecap:round;paint-order:stroke markers fill"
       d="m 119.92089,174.61778 c -3.7835,-1.4e-4 -6.8506,-3.06724 -6.85074,-6.85074 h 5.18469 c 0,0.92013 0.74592,1.66605 1.66605,1.66605 0.92013,0 1.66605,-0.74592 1.66605,-1.66605 h 5.18521 c -1.4e-4,3.7837 -3.06756,6.85088 -6.85126,6.85074 z"
       sodipodi:nodetypes="sccsccs" />
    <rect
       style="fill:#000000;stroke:none;stroke-width:0.267773;stroke-linecap:round;paint-order:stroke markers fill"
       id="rect83"
       width="5.18469"
       height="5.3834748"
       x="-157.5847"
       y="-133.85214"
       transform="matrix(0,-1,-1,0,0,0)" />
    <rect
       style="fill:#000000;stroke:none;stroke-width:0.33677;stroke-linecap:round;paint-order:stroke markers fill"
       id="rect85"
       width="5.18469"
       height="8.5152292"
       x="135.51819"
       y="-167.76649"
       transform="scale(1,-1)" />
    <path
       id="path85"
       style="fill:#000000;stroke:none;stroke-width:0.500609;stroke-linecap:round;paint-order:stroke markers fill"
       d="m 133.85215,174.61831 v -5.18522 c 0.92013,0 1.66605,-0.74591 1.66605,-1.66604 v -5.2e-4 h 5.1847 v 5.2e-4 c 1.4e-4,3.7837 -3.06705,6.85112 -6.85075,6.85126 z" />
    <rect
       style="fill:#000000;stroke:none;stroke-width:0.267773;stroke-linecap:round;paint-order:stroke markers fill"
       id="rect86"
       width="5.18469"
       height="5.3834748"
       x="169.43309"
       y="-133.85214"
       transform="rotate(90)" />
    <rect
       style="fill:#000000;stroke:none;stroke-width:0.452405;stroke-linecap:round;paint-order:stroke markers fill"
       id="rect87"
       width="5.18469"
       height="15.366785"
       x="-147.55362"
       y="159.25099"
       transform="scale(-1,1)" />
    <rect
       style="fill:#000000;stroke:none;stroke-width:0.452405;stroke-linecap:round;paint-order:stroke markers fill"
       id="rect88"
       width="5.18469"
       height="15.366785"
       x="-156.07092"
       y="159.25099"
       transform="scale(-1,1)" />
    <path
       id="path88"
       style="fill:#000000;stroke:none;stroke-width:0.500609;stroke-linecap:round;paint-order:stroke markers fill"
       d="m 149.22019,152.4 c 3.7835,1.4e-4 6.8506,3.06724 6.85074,6.85074 h -5.18469 c 0,-0.92013 -0.74592,-1.66605 -1.66605,-1.66605 -0.92013,0 -1.66605,0.74592 -1.66605,1.66605 h -5.18521 c 1.4e-4,-3.7837 3.06756,-6.85088 6.85126,-6.85074 z"
       sodipodi:nodetypes="sccsccs" />
    <path
       id="path89"
       style="fill:#000000;stroke:none;stroke-width:0.500609;stroke-linecap:round;paint-order:stroke markers fill"
       d="m 163.12046,152.39948 v 5.18522 c 0.92013,0 1.66605,0.74591 1.66605,1.66604 v 5.2e-4 h 5.1847 v -5.2e-4 c 1.4e-4,-3.7837 -3.06705,-6.85112 -6.85075,-6.85126 z" />
    <rect
       style="fill:#000000;stroke:none;stroke-width:0.267773;stroke-linecap:round;paint-order:stroke markers fill"
       id="rect89"
       width="5.18469"
       height="5.3834748"
       x="-157.5847"
       y="-163.12045"
       transform="matrix(0,-1,-1,0,0,0)" />
    <rect
       style="fill:#000000;stroke:none;stroke-width:0.33677;stroke-linecap:round;paint-order:stroke markers fill"
       id="rect90"
       width="5.18469"
       height="8.5152292"
       x="164.7865"
       y="-167.76649"
       transform="scale(1,-1)" />
    <path
       id="path90"
       style="fill:#000000;stroke:none;stroke-width:0.500609;stroke-linecap:round;paint-order:stroke markers fill"
       d="m 163.12046,174.61831 v -5.18522 c 0.92013,0 1.66605,-0.74591 1.66605,-1.66604 v -5.2e-4 h 5.1847 v 5.2e-4 c 1.4e-4,3.7837 -3.06705,6.85112 -6.85075,6.85126 z" />
    <rect
       style="fill:#000000;stroke:none;stroke-width:0.267773;stroke-linecap:round;paint-order:stroke markers fill"
       id="rect91"
       width="5.18469"
       height="5.3834748"
       x="169.43309"
       y="-163.12045"
       transform="rotate(90)" />
    <rect
       style="fill:#000000;stroke:none;stroke-width:0.342527;stroke-linecap:round;paint-order:stroke markers fill"
       id="rect92"
       width="5.18469"
       height="8.8088551"
       x="-166.10123"
       y="-166.54584"
       transform="matrix(0,-1,-1,0,0,0)" />
    <path
       id="path92"
       style="fill:#000000;stroke:none;stroke-width:0.500609;stroke-linecap:round;paint-order:stroke markers fill"
       d="m 87.75875,152.39948 v 5.18522 c -0.92013,0 -1.66605,0.74591 -1.66605,1.66604 v 5.2e-4 H 80.908 v -5.2e-4 c -1.4e-4,-3.7837 3.06705,-6.85112 6.85075,-6.85126 z" />
    <rect
       style="fill:#000000;stroke:none;stroke-width:0.33677;stroke-linecap:round;paint-order:stroke markers fill"
       id="rect94"
       width="5.18469"
       height="8.5152292"
       x="-86.092712"
       y="-167.76649"
       transform="scale(-1)" />
    <path
       id="path94"
       style="fill:#000000;stroke:none;stroke-width:0.500609;stroke-linecap:round;paint-order:stroke markers fill"
       d="m 87.75875,174.61831 v -5.18522 c -0.92013,0 -1.66605,-0.74591 -1.66605,-1.66604 v -5.2e-4 H 80.908 v 5.2e-4 c -1.4e-4,3.7837 3.06705,6.85112 6.85075,6.85126 z" />
    <rect
       style="fill:#000000;stroke:none;stroke-width:0.302067;stroke-linecap:round;paint-order:stroke markers fill"
       id="rect95"
       width="5.18469"
       height="6.8507233"
       x="169.43309"
       y="87.758759"
       transform="matrix(0,1,1,0,0,0)" />
    <rect
       style="fill:#000000;stroke:none;stroke-width:0.369956;stroke-linecap:round;paint-order:stroke markers fill"
       id="rect96"
       width="5.18469"
       height="10.276121"
       x="-167.10609"
       y="84.333374"
       transform="rotate(-90)" />
    <path
       id="path96"
       style="fill:#000000;stroke:none;stroke-width:0.500609;stroke-linecap:round;paint-order:stroke markers fill"
       d="m 87.75875,152.39948 v 5.18522 c 0.92013,0 1.66605,0.74591 1.66605,1.66604 v 5.2e-4 h 5.1847 v -5.2e-4 c 1.4e-4,-3.7837 -3.06705,-6.85112 -6.85075,-6.85126 z" />
    <rect
       style="fill:#000000;stroke:none;stroke-width:0.30205;stroke-linecap:round;paint-order:stroke markers fill"
       id="rect97"
       width="5.18469"
       height="6.8499589"
       x="89.424805"
       y="159.25127" />
    <path
       id="path97"
       style="fill:#000000;stroke:none;stroke-width:0.500609;stroke-linecap:round;paint-order:stroke markers fill"
       d="m 178.4885,152.4 c 3.7835,1.4e-4 6.8506,3.06724 6.85074,6.85074 h -5.18469 c 0,-0.92013 -0.74592,-1.66605 -1.66605,-1.66605 -0.92013,0 -1.66605,0.74592 -1.66605,1.66605 h -5.18521 c 1.4e-4,-3.7837 3.06756,-6.85088 6.85126,-6.85074 z"
       sodipodi:nodetypes="sccsccs" />
    <path
       id="path98"
       style="fill:#000000;stroke:none;stroke-width:0.500609;stroke-linecap:round;paint-order:stroke markers fill"
       d="m 178.4885,174.61778 c 3.7835,-1.4e-4 6.8506,-3.06724 6.85074,-6.85074 h -5.18469 c 0,0.92013 -0.74592,1.66605 -1.66605,1.66605 -0.92013,0 -1.66605,-0.74592 -1.66605,-1.66605 h -5.18521 c 1.4e-4,3.7837 3.06756,6.85088 6.85126,6.85074 z"
       sodipodi:nodetypes="sccsccs" />
    <rect
       style="fill:#000000;stroke:none;stroke-width:0.336791;stroke-linecap:round;paint-order:stroke markers fill"
       id="rect98"
       width="5.18469"
       height="8.5163059"
       x="-185.33923"
       y="159.25073"
       transform="scale(-1,1)" />
    <rect
       style="fill:#000000;stroke:none;stroke-width:0.336791;stroke-linecap:round;paint-order:stroke markers fill"
       id="rect99"
       width="5.18469"
       height="8.5163059"
       x="-176.82309"
       y="159.25073"
       transform="scale(-1,1)" />
    <rect
       style="fill:#000000;stroke:none;stroke-width:0.543984;stroke-linecap:round;paint-order:stroke markers fill"
       id="rect101"
       width="5.18469"
       height="22.217787"
       x="194.60661"
       y="152.39999" />
    <rect
       style="fill:#000000;stroke:none;stroke-width:0.402561;stroke-linecap:round;paint-order:stroke markers fill"
       id="rect103"
       width="5.18469"
       height="12.167198"
       x="186.45068"
       y="-164.5672"
       transform="scale(1,-1)" />
    <path
       id="path103"
       style="fill:#000000;stroke:none;stroke-width:0.500609;stroke-linecap:round;paint-order:stroke markers fill"
       d="m 193.30143,171.419 v -5.18522 c -0.92013,0 -1.66605,-0.74591 -1.66605,-1.66604 v -5.2e-4 h -5.1847 v 5.2e-4 c -1.4e-4,3.7837 3.06705,6.85112 6.85075,6.85126 z" />
    <rect
       style="fill:#000000;stroke:none;stroke-width:0.210699;stroke-linecap:round;paint-order:stroke markers fill"
       id="rect104"
       width="5.18469"
       height="3.3331299"
       x="166.23375"
       y="193.30142"
       transform="matrix(0,1,1,0,0,0)" />
  </g>
</svg>
