<?xml version="1.0" encoding="UTF-8" standalone="no"?>
<!-- Created with Inkscape (http://www.inkscape.org/) -->

<svg
   width="210mm"
   height="297mm"
   viewBox="0 0 210 297"
   version="1.1"
   id="svg1"
   xml:space="preserve"
   inkscape:version="1.4.2 (f4327f4, 2025-05-13)"
   sodipodi:docname="melted.svg"
   xmlns:inkscape="http://www.inkscape.org/namespaces/inkscape"
   xmlns:sodipodi="http://sodipodi.sourceforge.net/DTD/sodipodi-0.dtd"
   xmlns="http://www.w3.org/2000/svg"
   xmlns:svg="http://www.w3.org/2000/svg"><sodipodi:namedview
     id="namedview1"
     pagecolor="#ffffff"
     bordercolor="#000000"
     borderopacity="0.25"
     inkscape:showpageshadow="2"
     inkscape:pageopacity="0.0"
     inkscape:pagecheckerboard="0"
     inkscape:deskcolor="#d1d1d1"
     inkscape:document-units="mm"
     inkscape:zoom="0.069685805"
     inkscape:cx="5345.4215"
     inkscape:cy="1413.4873"
     inkscape:window-width="1920"
     inkscape:window-height="1129"
     inkscape:window-x="-8"
     inkscape:window-y="-8"
     inkscape:window-maximized="1"
     inkscape:current-layer="layer1" /><defs
     id="defs1" /><g
     inkscape:label="Layer 1"
     inkscape:groupmode="layer"
     id="layer1"><path
       id="path1"
       style="fill:#000000;stroke-width:1"
       d="M 90.976876 2.3476603 C 83.363717 2.564251 77.272037 5.1573191 76.295601 8.1467896 C 35.658985 9.1450082 49.199311 79.01108 68.067163 111.34928 C 75.002658 157.83719 -3.9331024 168.00452 13.594002 220.75655 C 41.275506 270.39658 -5.4738316 271.70324 -35.514628 301.62138 C -67.972323 347.51581 -47.963271 394.00473 -20.191532 418.20031 C 3.4285075 434.05729 16.109089 441.8 49.321537 447.97989 C 60.796218 449.892 71.613782 442.32591 82.137622 442.22004 C 93.597957 423.69474 128.40928 418.53024 125.89464 394.95109 C 138.26678 402.00231 126.88988 350.69042 99.451811 332.94919 C 76.37956 315.89689 120.18006 306.54548 117.25176 308.80079 C 119.54172 307.87298 126.62687 307.42187 134.78816 306.33479 C 134.71364 305.60321 135.62023 304.0017 136.20151 305.84696 C 136.07663 305.97946 135.96186 306.09298 135.85579 306.18958 C 137.40551 305.97456 138.98732 305.73525 140.57695 305.46456 C 141.26433 306.21742 141.63993 305.79688 141.7035 305.26767 C 148.47095 304.05189 155.27085 302.23512 160.20728 299.24995 C 198.07308 278.54632 200.50663 279.46887 198.47729 287.51423 C 222.73287 283.47696 255.64837 232.68644 259.82342 278.53545 C 291.63077 309.24258 266.54951 330.83861 265.88093 358.27271 C 262.80963 397.04215 308.32052 434.78067 336.0167 425.70011 C 339.26418 425.59069 349.44628 427.42897 360.44156 424.64436 C 360.36698 424.94224 360.30546 425.28232 360.2607 425.66859 C 363.86439 426.54777 364.19422 424.89787 363.4729 423.75966 C 373.65499 420.37739 384.05095 412.59427 389.92762 395.32936 C 421.28267 352.64887 382.21449 308.65764 352.21468 278.90752 C 310.2247 250.78158 256.67616 242.71869 309.67877 195.86091 C 316.36316 187.53491 321.35759 178.57585 324.61119 169.41963 C 324.35062 170.4046 324.09198 171.65273 323.84638 173.2101 C 329.08574 173.79524 327.45752 162.742 325.30676 167.37738 C 334.57292 138.9648 327.13863 108.97652 301.49839 90.334021 C 263.86327 73.679677 252.37628 26.533594 211.93073 14.532963 C 171.66699 -17.164604 137.43638 65.020686 120.24951 17.505391 C 113.06851 5.7189662 100.76522 2.0691865 90.976876 2.3476603 z M 135.85579 306.18958 C 135.49814 306.2392 135.14207 306.28765 134.78816 306.33479 C 134.82641 306.71035 135.12344 306.85654 135.85579 306.18958 z M 319.38929 110.42788 C 319.73232 110.41269 320.7346 111.89683 322.81595 116.20686 C 322.87926 122.94295 318.40178 110.47162 319.38929 110.42788 z M 327.4012 151.10344 C 327.74381 151.08162 327.9835 151.88595 327.85182 154.2712 C 324.71802 157.53806 326.45401 151.16376 327.4012 151.10344 z M 323.81951 174.96348 C 323.4763 174.95855 322.70434 175.88861 321.28788 178.57825 C 322.24409 182.74045 324.80755 174.97768 323.81951 174.96348 z M 318.733 183.90867 C 318.42818 183.913 317.82151 184.55273 316.97238 186.45115 C 318.83121 186.05352 319.29522 183.90069 318.733 183.90867 z M 283.87363 224.17288 C 284.21765 224.18454 284.48872 224.36932 284.66014 224.77078 C 265.58079 248.01227 279.81415 224.03526 283.87363 224.17288 z M 188.8138 287.98501 C 188.80035 287.98452 188.78649 287.98457 188.77246 287.98552 C 188.54346 288.00112 188.23624 288.21293 187.85055 288.75447 C 189.33987 290.84579 189.66103 288.0156 188.8138 287.98501 z M 191.00178 290.96725 C 190.71185 290.97778 190.2886 291.1857 189.70832 291.7269 C 191.22623 293.92032 192.13917 290.92593 191.00178 290.96725 z M 181.97907 293.19967 C 181.81239 293.19618 181.54866 293.39779 181.16207 293.95622 C 181.87129 296.10015 182.60261 293.21273 181.97907 293.19967 z M 145.15083 299.09802 C 145.44643 299.0884 145.81779 299.29947 146.23448 299.90159 C 144.00263 301.98315 144.09513 299.13238 145.15083 299.09802 z M 88.081962 300.23697 C 89.036776 300.25449 89.364868 301.1138 88.311405 303.44711 C 73.273062 310.8477 84.671913 300.1744 88.081962 300.23697 z M 130.34657 309.65242 C 130.03539 309.6492 123.5199 312.91349 122.62404 313.88213 C 128.68194 310.71985 130.52411 309.65425 130.34657 309.65242 z M 104.69645 313.66302 C 104.4817 313.66678 104.20925 313.75647 103.8748 313.97773 C 105.33804 316.13141 105.85609 313.64274 104.69645 313.66302 z M 110.08217 313.89919 C 107.86217 313.9599 104.20462 315.24672 100.90237 318.83377 C 113.489 317.10193 113.78218 313.79799 110.08217 313.89919 z M 97.055575 319.15055 C 96.869231 319.1626 96.969134 319.48009 97.601794 320.31482 C 102.92492 323.75613 97.786613 319.10327 97.055575 319.15055 z M 340.76938 419.87411 C 341.50043 424.02567 337.08505 419.91701 340.76938 419.87411 z " /><path
       style="fill:#000000;stroke-width:1"
       d="m 1129.9763,548.61153 c -1.7412,-18.35567 -40.9939,-15.91883 -31.7206,-45.42869 -17.9446,-47.66277 30.8295,-63.36272 53.7846,-98.59461 28.2635,-58.44899 -68.1864,51.12641 -58.293,44.19509 -18.459,38.75473 -77.249,-20.97911 -83.9412,2.45773 -33.62046,-15.19796 -30.93457,-74.98103 2.5038,-96.59322 22.0276,-41.97201 -41.96519,-24.92139 -51.95649,-53.25987 -18.00935,-21.3543 -24.06713,-60.36072 -10.85988,-88.01097 25.35029,-41.63054 41.29675,-90.09903 29.18867,-139.351841 29.519,-24.447271 106.4722,63.672531 80.4164,45.160471 31.8248,40.28105 4.4651,-68.0863 45.7775,-73.285121 12.4827,-47.6054774 48.5827,-18.94709 68.111,0.629577 24.8639,36.027801 5.0345,87.124474 44.5452,119.909244 22.4526,44.63591 19.4865,75.90619 -19.9289,98.25174 26.388,4.83324 67.961,19.30229 78.7176,56.44455 27.5616,45.08912 4.7747,97.4579 -19.374,130.4814 -21.4599,31.04893 -34.5138,39.8583 -64.7363,72.41436 -24.5772,23.90539 -21.9703,16.24179 -62.2344,24.58016 z m 97.5382,-61.57798 c -4.341,-0.28797 -2.2203,5.15821 0,0 z m 58.183,-133.61695 c -2.5112,-4.32286 0.4121,4.99156 0,0 z m -57.7727,-139.98329 c 0.5664,-13.65296 -3.7233,10.38123 0,0 z m -75.6541,335.59296 c -8.5844,-4.24403 18.4393,0.30478 0,0 z m 70.0417,-55.16308 c 1.9049,-2.75253 2.8569,2.66437 0,0 z"
       id="path3" /><path
       style="fill:#000000;stroke-width:1"
       d="m 1469.7807,429.53353 c -34.1311,-6.66402 -43.753,-34.96147 -41.6443,-35.98365 -8.4923,-16.83992 -14.816,-58.7549 17.5202,-71.57162 63.5804,-5.68547 29.1458,-25.1017 26.3271,-68.45128 19.3906,-47.97281 114.2441,-49.63448 83.3839,-60.65143 -42.2894,-8.07933 -71.5176,-46.68912 -80.8184,-86.49396 49.0054,-20.601081 107.376,-37.833797 161.2083,-54.572235 53.0207,-20.402475 109.0293,10.220026 133.9575,57.474965 -2.2325,17.88604 7.9056,40.16728 -2.7126,61.65836 0.1591,31.92568 61.2643,53.94029 28.4628,98.06469 -13.2347,34.83076 69.8632,9.06361 71.5195,55.67262 4.4666,29.46867 17.658,56.95656 -24.1229,72.57443 -29.7786,20.18946 -48.6313,-9.46257 -77.7548,-5.54545 -83.8491,9.13142 -178.8941,8.69638 -263.371,35.28872 -10.4434,2.17009 -21.2533,4.08484 -31.9553,2.53584 z m 393.8684,-43.79835 c -0.087,-4.28945 -5.0561,4.52978 0,0 z m 2.0909,-18.74912 c -6.8517,-9.9329 -5.8021,5.34801 0,0 z m -66.0227,-113.79855 c 1.3963,-13.00004 -6.4778,13.78648 0,0 z m -1.3899,-31.53842 c -4.2781,2.62291 4.2494,3.99987 0,0 z m -6.0534,-8.25196 c -0.674,4.9627 3.427,10.33701 0,0 z m -28.4728,-103.14815 c -4.266,-4.97345 1.7677,10.78182 0,0 z m -19.4787,284.69246 c 3.1554,-6.3323 3.5598,3.75085 0,0 z m 23.0889,-0.66005 c 1.8986,-2.66595 1.8988,2.66588 0,0 z m 1.1261,-270.32007 c 2.2878,-6.70752 3.7557,2.14398 0,0 z m 1.7019,-5.4574 c -0.1822,-6.41955 5.7543,2.82025 0,0 z m 0.1009,-4.01957 c 0.4294,-5.27148 4.7562,4.02643 0,0 z"
       id="path4"
       sodipodi:nodetypes="ccccccccccccccccccccccccccccccccccccc" /><path
       style="fill:#000000;stroke-width:1"
       d="m 2028.9994,473.79822 c 4.6081,-3.30804 8.5856,3.73253 0,0 z m 8.3205,-4.9323 c -30.2497,-3.8306 -69.9659,-10.58789 -93.5567,-28.1811 -28.5377,-26.12312 -33.2325,-85.63109 12.4449,-96.85153 41.1849,-4.52202 68.9729,-27.6098 38.9809,-60.09515 -10.0753,-33.09534 3.2693,-62.90414 31.2094,-90.15956 44.7146,-33.48817 -42.0207,-82.06523 -11.6666,-121.46671 44.1756,22.417907 90.0972,-29.39565 138.7449,-18.066078 30.8858,2.143193 68.3671,18.646959 74.7785,45.866743 26.4147,14.287115 -5.2762,91.216705 9.1616,71.424435 -1.1041,-35.06435 -15.2153,26.35997 23.8681,31.00319 33.9124,48.03713 15.935,71.972 81.2432,68.65642 21.8605,14.34873 21.1719,69.77908 38.1184,61.88285 14.4876,25.72885 -22.1253,54.39882 -46.2134,63.87514 -39.0638,9.84063 -66.7769,-58.07084 -88.063,-10.8632 -24.779,37.11041 -37.8502,39.39589 -70.7894,61.0246 -8.7378,-8.60643 -10.7585,7.26221 -62.1216,4.59728 -25.4872,1.06643 -48.8073,19.04015 -76.1392,17.35267 z m 9.8866,-2.49917 c -2.8566,-2.66439 -1.9049,2.75252 0,0 z m 2.7713,-0.449 c -2.9425,-1.56169 -0.6945,1.67452 0,0 z m 8.376,-1.0373 c 12.8847,-5.0982 -15.5025,2.44343 0,0 z m 67.8607,-14.01299 c -5.8725,-5.00351 -23.6698,-1.77736 0,0 z m 3.1099,-0.84998 c -0.8988,-2.71712 -1.833,2.64728 0,0 z m 14.9706,-1.31211 c -12.8135,-2.61981 -9.2335,1.99137 0,0 z m 99.1026,-58.22745 c -2.5791,-1.28105 -1.2263,3.46951 0,0 z m 116.6742,-11.80264 c -0.8987,-2.71704 -1.8328,2.64728 0,0 z M 2226.3003,89.802671 c -9.6982,-9.107735 -1.6334,12.833089 0,0 z M 2089.8844,460.42156 c -1.2863,-4.63721 5.5158,3.36358 0,0 z"
       id="path5" /><path
       style="fill:#000000;stroke-width:1"
       d="m 2592.6771,528.10564 c 11.9759,-6.98156 3.202,1.77419 0,0 z m 0.6536,-3.49034 c -14.3826,-1.62393 -35.2644,-21.22456 -34.6522,-19.58214 -13.718,-3.53871 -9.3976,-18.04505 -33.8132,-15.44245 -72.9866,-0.89068 153.3991,-134.16639 36.7688,-52.02037 45.7455,-9.53625 17.9875,-58.59328 -6.1188,-55.80575 -29.4284,11.47556 -57.4507,-16.60716 -83.1756,-30.98917 -29.6704,-49.52355 3.2715,-89.334 25.5291,-134.1059 26.0884,-35.97594 -8.2594,-103.76269 52.62,-101.78442 54.338,-26.09041 62.2242,78.73106 105.7928,29.65249 40.1267,-20.58423 85.5208,-26.39791 125.6966,-4.5365 30.0961,3.2429 57.6107,62.79882 53.7191,67.73293 1.8848,39.75906 4.4903,100.56485 -18.4759,127.10807 -15.2374,57.92652 -40.7054,129.11226 -109.7246,135.23698 -7.7887,0.92149 -41.2741,-5.36471 -49.6216,18.51937 -25.3372,23.81594 -47.9329,33.90762 -64.5445,36.01686 z m 17.9252,-4.7419 c 5.4459,-3.11587 -1.8427,2.92688 0,0 z m 10.404,-0.4326 c 8.5316,-8.10372 13.9641,0.13038 0,0 z m 14.863,-11.45778 c 1.8328,-2.64728 0.8987,2.71708 0,0 z m 4.4589,-3.99632 c 0.039,-3.53337 3.8778,0.45032 0,0 z m 5.9452,-1.07364 c 4.9485,-6.45553 8.7448,-3.95872 0,0 z m 14.8743,-14.0661 c 2.9471,-7.77186 1.8635,3.05237 0,0 z m 4.4475,-5.14268 c 3.9472,-8.11934 7.3743,-1.93795 0,0 z m 48.1653,-7.44113 c 3.2574,-1.06446 0.3221,1.43062 0,0 z m -39.2475,-2.37721 c 1.2262,-3.46962 2.5793,1.28105 0,0 z m 43.4741,-0.83086 c 7.2258,-3.14022 3.9776,2.93523 0,0 z m 9.6684,-2.24157 c 2.296,-2.18891 0.5816,2.65282 0,0 z m 14.4839,-6.71918 c 6.3414,-7.94613 17.2056,-7.14521 0,0 z m 10.7451,-8.18109 c 1.0253,-3.64862 4.465,2.89154 0,0 z m 58.787,-94.54819 c 1.602,-3.31736 0.8093,1.87064 0,0 z m 2.9989,-13.34461 c 3.8986,-17.01131 2.9558,8.23825 0,0 z m 26.3599,-134.04723 c 1.0165,-5.99491 3.4783,-0.0449 0,0 z"
       id="path6" /><path
       style="fill:#000000;stroke-width:1"
       d="M 117.65617,1097.1136 C 93.015146,1089.6398 70.761422,1072.0914 64.401303,1040.8201 56.79308,998.96539 88.302581,983.70098 111.73185,960.6475 129.83848,926.53016 67.226823,964.5014 54.43953,930.66513 35.406305,915.00353 29.360065,899.37817 25.654688,871.38246 8.2897915,829.33101 61.797443,800.83943 75.270956,762.84651 116.808,725.88285 89.608036,706.57048 68.203727,675.35316 45.45922,614.46999 121.70018,650.93594 157.38148,626.54162 c 44.8712,-19.63504 104.33043,-9.67986 123.17784,31.92582 18.24893,39.93389 -1.55231,77.80944 60.98398,81.02444 68.16375,16.6145 65.51664,112.59066 61.64162,84.94628 -2.35943,58.00563 -48.8509,107.58244 -93.82879,136.86507 -14.27923,6.97144 -7.59435,-1.75118 -56.38937,20.27871 -33.25832,5.19661 -52.24137,7.88047 -69.1012,39.39416 -13.50529,28.9823 -24.51372,75.8091 -66.20939,76.1375 z m 15.94456,-7.6173 c -1.06876,-2.5997 -4.55526,3.1571 0,0 z M 329.01098,940.75025 c 1.46089,-6.50041 -8.33741,6.86846 0,0 z m -55.69844,36.15917 c -0.46797,-2.27695 3.74464,1.50596 0,0 z m 7.80305,-2.22944 c 1.83277,-2.64737 0.8988,2.71708 0,0 z m 50.90563,-27.49649 c 1.89876,-2.666 1.89866,2.66603 0,0 z m 69.11276,-85.41813 c 0.087,-3.21545 2.26644,0.67584 0,0 z M 390.0169,774.4543 c -30.1706,-30.38298 13.68294,7.30379 0,0 z"
       id="path7" /><path
       style="fill:#000000;stroke-width:1"
       d="m 699.87947,1120.105 c -2.57847,-22.2782 -24.01617,-2.2492 -34.82423,-21.0122 -31.51192,-28.1715 -39.65439,-72.4499 -15.11118,-110.32479 15.11196,-42.89137 -21.57889,-98.33667 -40.60579,-41.89816 -11.78698,24.64755 -34.98863,19.15895 -55.91116,12.07807 -41.71465,-5.5675 -69.18433,-44.45637 -68.78868,-91.97968 -3.09935,-44.95008 -35.46223,-89.0546 -25.36512,-132.63337 34.94115,-14.17755 72.09393,47.50043 96.74025,27.61909 56.51095,-22.3273 48.8805,-76.22614 67.93032,-121.69047 27.72566,-28.77837 78.94935,-14.29424 92.3972,26.01019 36.48469,35.67375 121.46284,28.32312 141.82851,90.87878 14.25267,42.85745 10.32007,63.72635 -8.50625,88.28333 -3.1039,8.59129 -32.27384,52.09616 -21.61329,28.91929 -17.91624,45.99833 -103.12918,46.87597 -85.82958,101.75123 5.14737,46.39589 20.31815,102.02799 -18.66664,133.52099 6.93041,-12.6431 -21.13661,7.1829 -23.67436,10.4777 z M 589.79464,962.8474 c 5.28907,-6.70558 -11.74876,5.6247 0,0 z m 45.43096,-44.64665 c -1.83281,-2.64727 -0.89878,2.71701 0,0 z m 85.47692,193.57205 c 3.49698,-3.4077 -1.39198,3.784 0,0 z M 858.93586,844.25753 c 0.60541,-4.15118 2.60422,-1.01033 0,0 z m 1.46353,-4.68903 c -0.0114,-2.98437 5.07241,0.63606 0,0 z m 12.38582,-57.11612 c -2.28886,-3.36556 3.26971,0.63574 0,0 z"
       id="path8" /><path
       style="fill:#000000;stroke-width:1"
       d="m 1303.6518,1147.0332 c -40.3163,-8.4167 -57.052,-51.379 -55.7726,-88.7686 -6.3059,-38.8926 -93.028,-91.76826 -31.9663,-95.02839 56.9209,1.91404 93.3753,51.42309 143.922,69.88049 12.2309,34.5576 20.4455,69.9183 -4.9743,95.7619 -10.3951,16.2759 -33.2168,20.7047 -51.2088,18.1546 z M 1042.6213,1068.17 c -25.1476,-9.9925 -52.3743,-51.8364 -53.89243,-50.1506 -2.86747,-13.3697 5.51763,-19.26591 -7.75372,-44.00332 -27.75494,-36.55287 51.02115,-3.79047 63.31775,-38.13415 21.2028,-35.96005 -68.094,-53.18978 -50.11729,-106.49011 -1.14426,-34.35856 -31.66948,-112.44988 21.23529,-96.23765 54.5066,47.01762 72.7863,-41.90137 93.1408,-76.54423 37.8865,-34.44366 70.9597,18.14872 108.2328,17.09244 46.1986,17.50847 94.653,56.04688 82.4354,111.79977 -5.3212,8.5107 -11.3793,40.89874 -31.2964,58.90793 27.1306,-43.74495 1.9613,-17.74426 -14.8586,9.54415 -26.5419,37.18599 -85.9456,42.11951 -94.5767,92.48345 -27.245,49.98194 -57.8991,105.25972 -115.8669,121.73232 z m 76.022,-65.5954 c -0.5677,-9.24452 -5.4175,10.3405 0,0 z m 6.5383,-9.33953 c -2.6945,-6.12774 -2.3278,7.73973 0,0 z m 159.5553,-181.30448 c -1.8328,-2.64726 -0.8989,2.71705 0,0 z m -257.1143,253.05981 c -1.3917,-3.7837 3.4971,3.4078 0,0 z m 19.8024,-138.36731 c -1.0001,-4.44766 4.4476,1.00014 0,0 z m 209.8154,-70.51565 c 9.1066,-13.25856 3.9344,-0.83003 0,0 z m 39.9335,-54.282 c 1.1894,-7.4868 1.7728,2.20003 0,0 z"
       id="path9" /><path
       style="fill:#000000;stroke-width:1"
       d="m 1629.5611,1140.4542 c -20.7112,-8.1351 -34.6788,-15.8106 -65.4203,-22.7055 -32.8205,-8.3704 45.1654,-54.8838 9.0359,-45.3408 -18.6497,-0.5562 -31.9803,-12.6848 -52.8642,-30.8407 -7.2844,-35.0308 -8.9237,-75.92454 -45.3475,-72.44608 3.6491,-14.72485 -23.359,-23.60938 -27.7475,-52.22047 5.226,-25.37286 -15.8983,-63.59305 26.2786,-75.48903 37.6177,-28.31621 -5.2777,-82.66247 2.4563,-119.98185 -2.0961,-32.18989 60.3121,-57.37715 29.8369,-95.04326 -23.6965,-69.74042 177.9071,54.61784 104.1747,20.10712 30.1059,19.97754 72.9424,24.03036 104.6333,36.27542 26.0029,19.90651 35.1428,45.42951 30.4738,79.83407 4.2488,25.14895 -28.2129,48.34001 3.6684,69.83531 -1.8163,29.28478 -10.0361,75.34899 -3.2358,57.52655 -13.5691,-9.71459 -28.3141,14.34126 5.33,21.89377 48.1933,8.73037 65.7515,53.23029 56.614,86.93994 -15.6465,19.49681 -27.5705,56.88111 -55.3377,70.30731 -39.4611,20.1423 -74.1275,71.1672 -122.5489,71.3482 z m 148.0402,-95.9183 c -3.0121,-5.7505 -3.2357,6.7062 0,0 z m -300.0176,-77.28742 c -0.8988,-2.71708 -1.8328,2.64738 0,0 z m 9.2894,-5.20203 c 0.5426,-2.45646 -4.7498,1.7481 0,0 z m 259.7719,-95.05016 c 6.2059,-13.36052 -14.7426,-0.33036 0,0 z m 59.0972,154.81161 c 1.073,-1.979 0.3303,3.2043 0,0 z m -350.0813,-77.04491 c -1.8726,-6.20726 17.0609,3.2007 0,0 z"
       id="path10" /><path
       style="fill:#000000;stroke-width:1"
       d="m 2116.5052,1206.5471 c -23.9563,-19.1414 -51.6905,-35.6261 -55.9219,-72.7408 -16.987,-32.4578 29.5973,-47.1728 25.6484,-79.5614 6.8715,-12.974 10.602,-86.97988 -43.6285,-61.08928 -38.8498,-14.61317 -94.1012,29.87688 -123.9133,3.0746 -11.1242,-16.83393 -23.0511,-27.25596 -26.4131,-54.83508 -10.2727,-36.27236 36.768,-60.45445 72.9241,-61.53034 37.2666,-6.58525 -21.4907,-94.10522 -11.2971,-75.64273 -33.1847,-52.2595 14.4566,-69.73362 55.5921,-42.09566 50.8116,8.70215 81.8999,-52.87031 70.3421,-99.56961 -6.6265,-68.86163 79.6759,-62.61897 94.346,-8.28836 -3.605,67.19403 76.8853,51.21258 97.8485,101.61852 5.308,50.63831 62.8894,53.09964 78.895,95.04908 26.5257,26.52545 -13.323,68.60911 -42.8765,74.69512 -43.0652,23.23495 -132.0216,-0.92145 -133.4665,67.54768 -0.8934,47.64296 -10.6262,96.72876 10.1501,141.02716 -4.8303,29.9411 -60.4281,79.122 -39.08,68.3575 -8.8872,-7.345 -18.7631,5.7544 -29.1494,3.9836 z m -25.6883,-154.7191 c -1.4307,0.3224 1.0648,3.2577 0,0 z m 0.7477,-34.6028 c -1.1951,1.1051 1.1563,5.756 0,0 z m 264.5579,-143.74287 c 6.3066,-9.36732 -18.5443,4.36196 0,0 z"
       id="path11" /><path
       style="fill:#000000;stroke-width:1"
       d="m 730.33161,409.87173 c -27.5165,-9.8426 -72.00604,-12.53773 -79.12698,-53.75601 -2.91837,-68.18753 -80.98605,-108.65328 -81.76161,-178.11151 25.59192,-18.4236 69.68817,3.8639 97.79409,17.78525 60.96787,29.55688 104.8658,91.90803 126.85376,154.5985 -18.80001,37.44955 -27.94268,0.39774 -27.71591,53.62818 -7.53802,-16.41943 -5.94151,2.8998 -36.04335,5.85559 z m 44.35645,-17.57366 c 5.4631,-12.02327 -0.24828,-1.28495 0,0 z"
       id="path2" /></g></svg>
