<?xml version="1.0" encoding="utf-8"?>
<!-- Generator: Adobe Illustrator 25.2.1, SVG Export Plug-In . SVG Version: 6.00 Build 0)  -->
<svg version="1.1" id="レイヤー_1" xmlns="http://www.w3.org/2000/svg" xmlns:xlink="http://www.w3.org/1999/xlink" x="0px"
	 y="0px" viewBox="0 0 651.97 651.97" style="enable-background:new 0 0 651.97 651.97;" xml:space="preserve">
<style type="text/css">
	.st0{fill:#FFFFFF;}
	.st1{fill:#6AB82D;}
	.st2{fill:#E7211A;}
</style>
<g>
	<rect x="178.98" y="208.44" width="294" height="235.09"/>
	<g>
		<path class="st0" d="M417.28,313.98c-2-0.6,1.29,2.66-0.73,3.11c-6.2,1.39-17.26-1.17-18.13,6.74
			c-1.35,12.17-18.91,9.46-28.56,9.16c-4.17-0.13-14.78,1.76-15.96-13.03c-14.62,2.07-26.38,3.02-39.58,4.89
			c-1.25,0.18-3.16-0.12-3.67,0.54c-11.22,14.62-47.41,7.41-47.97,6.38c-5.63-10.41-14.81-2.05-21.48-1.04
			c7.38,33.04,31.23,54.37,60.44,72.82c-8.18-1.75-55.89-22.23-69.89-51.25c-9.26-19.19-5.65-47.14,9.52-63.74
			c17.37-19.02,37.26-34.05,61.92-43.56c20.94-8.07,44.44-13.15,66.03-9.81c43.9,6.79,57.69,36.39,59.01,48.45
			c2.47,22.55-1.25,41.08-13.07,60.8c-11.18,18.66-25.75,32.81-42.99,45.6c-22.69,16.83-114.27,45.98-114.71,44.92
			c86.93-36.07,100.35-42.18,126.85-64.47c47.92-40.31,38.1-107.84,6.09-119.53c-26.54-9.69-54.27-12.02-80.99-1.28
			c-21.92,8.81-71.21,46.49-68.24,72.42c1.07,0.39,12.98-3.5,17.86-5.83c0.85-9.33,0.36-17.87,5.58-22.69
			c5.22-4.82,16.16-5.91,25.24-5.74c5.47,0.1,12.55,0.69,16.15,3.01c6.17,3.97,6.78,8.75,7.92,19.41
			c8.32-1.12,17.09-0.54,25.32,0.01c12.51,0.83,17.15-1.02,16.83-11.66c-0.35-11.54,25.68-6.77,36.5-5.66
			c3.36,0.35,8.62,4.21,9.02,6.96C402.98,309.4,410.48,309.44,417.28,313.98z M301.69,308.08c0.34-3.28-3.02-6.45-7.2-6.97
			c-5.28-0.66-9.31-0.54-15.88,0.05c-3.09,0.28-7.91,4.67-8.06,7.39c-0.22,4.01,1.81,11.86,5.01,13.53
			C286.5,327.8,300.35,320.93,301.69,308.08z M386.91,301.81c-19.51-2.84-22.68,0.74-21.24,13.3c0.32,2.8,2.3,5.17,5.01,5.9
			c16.25,4.4,21.14,0.12,21.5-12.88C392.26,304.99,389.99,302.25,386.91,301.81z"/>
		<path class="st0" d="M368.64,351.66c-3.96,21.73-33.44,33.45-60.26,17.61C344.2,375.13,353.95,364.24,368.64,351.66z"/>
	</g>
	<polygon class="st1" points="473.05,350.82 384.95,443.59 473.05,443.59 	"/>
	<polygon class="st2" points="178.98,301.31 267.07,208.54 178.98,208.54 	"/>
</g>
<g>
	<g>
		<path class="st0" d="M196.23,503.26h-18.65c3.68-14.23,6.37-31.3,8.07-51.2c0-0.37,0.44-0.9,1.34-1.58
			c0.89-0.69,1.64-1.03,2.24-1.03h18.73c-3.89,15.89-6.58,32.95-8.06,51.16c0,0.37-0.45,0.9-1.34,1.6
			C197.66,502.91,196.88,503.26,196.23,503.26z M229.77,483.77l-0.58,9.68c0,1.42,0.28,2.57,0.83,3.44s1.57,1.41,3.05,1.62
			c-0.28,1.66-0.73,3.02-1.36,4.07c-4.96,1.11-9.52,1.66-13.66,1.66c-6.47,0-9.71-2.21-9.71-6.64c0-1.69,0.31-4.17,0.93-7.45
			c0.61-3.28,0.93-5.54,0.93-6.78c0-3.3-1.22-5.07-3.66-5.34c1.07-3.51,5.33-12.16,12.8-25.97c0.25-0.48,0.75-1.03,1.53-1.66
			c0.77-0.64,1.47-0.95,2.1-0.95H238c-7.41,10.12-15.23,18.61-23.46,25.46c1.18-0.08,2.31-0.12,3.38-0.12c4.2,0,7.22,0.75,9.07,2.24
			C228.84,478.52,229.77,480.76,229.77,483.77z"/>
		<path class="st0" d="M265.65,475.9c6.53,0.69,11.3,1.46,14.32,2.33c0,1.45-0.32,2.52-0.95,3.2c-4.5,0.26-9.33,0.95-14.48,2.05
			c-0.74,5.54-1.36,11.26-1.85,17.16c0,0.34-0.44,0.86-1.32,1.56c-0.88,0.7-1.63,1.05-2.27,1.05h-19.18
			c3.68-12.78,6.39-29.86,8.15-51.24c0-0.34,0.45-0.85,1.36-1.54c0.91-0.69,1.67-1.03,2.31-1.03h19.09
			C268.75,458.15,267.02,466.96,265.65,475.9z M281.45,487.01c0.3-0.37,0.98-0.9,2.06-1.58c1.07-0.68,1.9-1.03,2.51-1.03
			c-0.93,7.83-1.81,13.16-2.64,16.01c-0.24,0.53-0.74,1.13-1.48,1.82c-0.74,0.69-1.34,1.03-1.81,1.03h-15.1
			C271.74,498.91,277.22,493.49,281.45,487.01z M283.34,473.41c-0.66-3.98-1.91-7.94-3.75-11.9c-1.84-3.95-3.69-6.92-5.55-8.89
			c0.14-1.26,0.54-2.32,1.2-3.16h14.93c-0.19,2.56-0.6,5.99-1.23,10.3c-0.63,4.31-1.3,7.98-2.02,11.01c-0.11,0.45-0.58,1-1.4,1.66
			C284.7,473.08,283.97,473.41,283.34,473.41z"/>
		<path class="st0" d="M314.33,503.26H295.2c3.79-15.74,6.46-32.82,8.02-51.24c0-0.34,0.45-0.85,1.34-1.54
			c0.89-0.69,1.65-1.03,2.28-1.03h19.14c-3.81,15.6-6.5,32.67-8.06,51.2c0,0.34-0.44,0.86-1.32,1.56
			C315.72,502.91,314.97,503.26,314.33,503.26z"/>
		<path class="st0" d="M330.34,489.38c0.08-0.4,0.56-0.93,1.41-1.6c0.87-0.67,1.59-1.01,2.16-1.01c1.18,3.14,2.56,5.8,4.14,7.99
			c1.58,2.19,3.6,4.07,6.07,5.66c-0.08,1.4-0.33,2.61-0.74,3.64c-4.91,0-9.82-1-14.73-3C328.74,497.62,329.3,493.73,330.34,489.38z
			 M347.05,504.05c0.66-4.61,1.06-9.93,1.2-15.95c0.14-6.02,0.32-12.15,0.56-18.38c0.23-6.23,0.8-12.12,1.71-17.65
			c0-0.37,0.45-0.9,1.34-1.58c0.89-0.69,1.64-1.03,2.24-1.03h19.18c-1.98,8.04-3.23,14.51-3.75,19.41
			c-0.52,4.9-0.93,8.78-1.23,11.62c-0.3,2.85-0.59,5.22-0.87,7.12c-0.28,1.9-0.7,3.75-1.28,5.56c-0.58,1.8-1.3,3.27-2.18,4.39
			s-2.07,2.15-3.58,3.1C357.75,502.34,353.31,503.47,347.05,504.05z"/>
		<path class="st0" d="M398.58,503.26h-19.14c3.79-15.74,6.46-32.82,8.02-51.24c0-0.34,0.45-0.85,1.34-1.54
			c0.89-0.69,1.65-1.03,2.28-1.03h19.14c-3.81,15.6-6.5,32.67-8.06,51.2c0,0.34-0.44,0.86-1.32,1.56
			C399.96,502.91,399.21,503.26,398.58,503.26z"/>
		<path class="st0" d="M425,475.15c0.71,5.53,1.69,10.17,2.92,13.9c1.24,3.73,2.95,7.6,5.14,11.6c0,0.34-0.44,0.86-1.32,1.56
			c-0.88,0.7-1.65,1.05-2.31,1.05h-13.09c1.84-7.67,3.52-16.17,5.02-25.5c0-0.34,0.44-0.86,1.34-1.56
			C423.6,475.5,424.36,475.15,425,475.15z M463.52,500.65c0,0.34-0.44,0.86-1.32,1.56c-0.88,0.7-1.63,1.05-2.27,1.05h-10.62
			c-3.1-5.4-7.24-11.56-12.41-18.46c-5.17-6.9-9.88-12.69-14.13-17.36c0.35-2.82,0.91-7.96,1.65-15.42
			c0.08-0.37,0.56-0.89,1.41-1.56c0.87-0.67,1.59-1.01,2.16-1.01h10.74c3.65,6.17,7.56,12.01,11.71,17.51
			c4.16,5.51,9.01,11.52,14.55,18.03C464.28,491.32,463.79,496.54,463.52,500.65z M462.82,478.07c-1.32-6.51-2.52-11.63-3.6-15.36
			c-1.08-3.73-2.55-7.29-4.38-10.69c0-0.34,0.45-0.85,1.34-1.54s1.67-1.03,2.32-1.03l13.09,0c-1.84,7.62-3.55,16.28-5.14,25.97
			c0,0.37-0.44,0.9-1.32,1.6C464.24,477.73,463.48,478.07,462.82,478.07z"/>
	</g>
</g>
</svg>
