<?xml version="1.0" encoding="UTF-8" standalone="no"?>
<!-- Created with Inkscape (http://www.inkscape.org/) -->

<svg
   width="1000"
   height="1000"
   viewBox="0 0 264.58333 264.58334"
   version="1.1"
   id="svg1"
   xml:space="preserve"
   inkscape:version="1.3.2 (091e20e, 2023-11-25, custom)"
   sodipodi:docname="連盟ロゴ.svg"
   xmlns:inkscape="http://www.inkscape.org/namespaces/inkscape"
   xmlns:sodipodi="http://sodipodi.sourceforge.net/DTD/sodipodi-0.dtd"
   xmlns="http://www.w3.org/2000/svg"
   xmlns:svg="http://www.w3.org/2000/svg"><sodipodi:namedview
     id="namedview1"
     pagecolor="#ffffff"
     bordercolor="#000000"
     borderopacity="0.25"
     inkscape:showpageshadow="2"
     inkscape:pageopacity="0.0"
     inkscape:pagecheckerboard="0"
     inkscape:deskcolor="#d1d1d1"
     inkscape:document-units="mm"
     inkscape:zoom="0.36213173"
     inkscape:cx="241.62478"
     inkscape:cy="824.28567"
     inkscape:window-width="1920"
     inkscape:window-height="1009"
     inkscape:window-x="-8"
     inkscape:window-y="-8"
     inkscape:window-maximized="1"
     inkscape:current-layer="layer1" /><defs
     id="defs1" /><g
     inkscape:label="Layer 1"
     inkscape:groupmode="layer"
     id="layer1"
     transform="translate(-0.38727864,-8.9521556)"><path
       d="m 177.2393,171.6744 1.20768,0.91209 c 0.66416,0.50162 1.862,1.30004 2.66237,1.77457 l 1.45521,0.86299 11.90625,-0.0372 c 6.54842,-0.0203 15.17294,-0.16658 19.16524,-0.32557 3.9923,-0.159 7.29564,-0.25272 7.34063,-0.20773 0.31543,0.31542 -4.00984,9.92929 -6.39909,14.22342 -4.4383,7.9768 -9.77141,14.96937 -16.63826,21.81469 -9.27164,9.24256 -18.55291,15.57462 -30.32993,20.69279 -7.53293,3.27373 -17.97595,6.2099 -25.19123,7.08329 l -1.51722,0.18397 0.51883,-1.50896 c 1.31833,-3.83179 1.37518,-4.52697 1.57768,-19.2567 0.10554,-7.67723 0.26378,-14.03037 0.3514,-14.118 0.0876,-0.0876 0.49371,0.0771 0.90227,0.36587 1.31037,0.9262 5.04338,2.69171 7.13497,3.37447 7.14563,2.33256 13.50878,0.44419 17.19068,-5.10202 2.79197,-4.20565 3.60836,-6.89823 7.136,-23.53344 z"
       style="fill:#ff1a00;fill-opacity:1"
       id="path9" /><path
       d="m 59.797894,166.68297 0.603064,1.86552 c 0.867792,2.68645 1.458342,6.41731 1.311548,8.28477 -0.08849,1.12573 -0.462588,2.35539 -1.244885,4.09277 -2.496738,5.5449 -2.452645,9.77018 0.157613,15.058 3.086646,6.25287 11.077519,11.69673 21.226611,14.46165 5.370984,1.46321 8.498394,0.37701 15.252299,-5.29632 2.356966,-1.97987 2.396771,-2.00031 3.905706,-2.00608 l 1.52445,-0.006 -0.14417,0.99219 c -0.50802,3.49093 -0.81576,8.87545 -0.61392,10.73784 0.41709,3.8485 2.16489,7.9409 5.20692,12.19151 1.87622,2.62161 6.27967,7.24739 9.35705,9.82937 2.26921,1.90391 2.31746,1.96721 1.47691,1.94148 -0.47789,-0.0146 -2.23842,-0.2447 -3.9119,-0.51159 -28.80346,-4.59369 -53.241756,-20.69895 -68.589099,-45.20138 -2.521821,-4.02615 -5.894005,-10.63387 -7.633643,-14.95774 -1.480227,-3.67912 -1.734723,-3.17334 2.007113,-3.99614 3.743991,-0.82327 11.200808,-3.52466 17.727083,-6.42235 z"
       style="fill:#ff1a00;fill-opacity:1"
       id="path8" /><path
       d="m 36.911436,106.31818 -0.40566,0.96997 c -0.629142,1.50575 -2.408762,7.32409 -3.137276,10.25674 -1.564473,6.2978 -2.496399,12.83361 -2.730066,19.14766 l -0.160197,4.33101 0.63717,-0.33693 c 0.350368,-0.18529 1.946343,-1.07387 3.547071,-1.97508 1.600727,-0.90121 4.458232,-2.447 6.35,-3.43493 5.779777,-3.01833 9.641923,-5.18534 9.853145,-5.52834 0.335953,-0.54556 2.011311,-1.70058 2.724382,-1.87844 0.369114,-0.0921 1.678803,-0.9382 2.910416,-1.87999 2.315014,-1.77026 9.320586,-8.06699 9.157064,-8.23051 -0.05086,-0.0509 -2.680192,0.21043 -5.843054,0.58033 l -5.75107,0.67231 -8.576221,-6.3469 z"
       style="fill:#ff1a00;fill-opacity:1"
       id="path7" /><path
       d="m 103.54148,136.67033 -2.26963,2.47582 c -1.24816,1.36164 -3.322789,3.48786 -4.610573,4.72478 l -2.341459,2.24896 1.437122,6.2177 c 0.79051,3.41974 1.887427,8.27154 2.43706,10.78178 l 0.998906,4.56354 1.336864,-0.002 c 0.73528,-0.001 1.98016,-0.0792 2.76624,-0.17363 l 1.42937,-0.17156 -0.16794,-10.34356 c -0.15264,-9.41141 -0.40686,-15.05244 -0.85215,-18.90427 z"
       style="fill:#ff1a00;fill-opacity:1"
       id="path6" /><path
       d="m 217.62082,100.47926 c 0.36089,0 0.77968,0.71029 1.67793,2.84427 3.84872,9.14341 6.4551,19.95649 7.3055,30.30926 0.37457,4.56006 0.36157,6.01466 -0.0527,5.96501 -0.1819,-0.0218 -0.68791,-0.0845 -1.12448,-0.13952 -5.14541,-0.64847 -13.47908,-2.84474 -20.10007,-5.29735 -13.36266,-4.94994 -33.0338,-15.11659 -49.69722,-25.68422 l -1.26711,-0.80306 1.00407,-0.15709 c 1.4753,-0.23074 61.68817,-7.0373 62.25409,-7.0373 z"
       style="fill:#ff1a00;fill-opacity:1"
       id="path5" /><path
       d="m 129.11872,43.004216 2.71663,1.862935 c 7.51983,5.157408 10.17888,8.247134 10.55181,12.26075 0.18302,1.96985 -0.41878,6.454867 -1.36839,10.198344 -0.3566,1.405757 -0.59983,2.6046 -0.54053,2.66392 0.18426,0.184261 9.57788,-1.773199 14.30662,-2.981213 6.08095,-1.553454 9.88344,-2.848813 12.52326,-4.266406 l 2.20555,-1.184424 2.95383,1.92288 c 1.62448,1.057834 11.1549,7.315002 21.17855,13.904577 10.02366,6.589576 18.2757,11.981181 18.3379,11.981181 0.33902,0 -3.80154,-5.942984 -6.63629,-9.525 C 202.1685,75.824534 194.21272,67.832093 190.23747,64.661808 173.86191,51.602167 153.51414,43.929014 133.21977,43.159762 Z"
       style="fill:#ff1a00;fill-opacity:1"
       id="path4" /><path
       d="m 82.632676,54.432458 -1.495516,0.84491 c -7.198369,4.066852 -12.500927,7.89312 -18.8743,13.619324 -2.768988,2.487818 -8.662535,8.707635 -8.912634,9.406144 -0.06592,0.18412 1.009373,0.215489 3.307292,0.09612 9.491938,-0.493082 22.131307,-1.271693 28.221016,-1.738395 3.753225,-0.287639 7.006771,-0.522965 7.230566,-0.522965 0.344364,0 0.378371,-0.274485 0.220659,-1.785938 -0.277654,-2.660923 -1.299303,-5.930053 -2.873727,-9.194271 -1.31424,-2.724786 -4.255279,-7.463011 -6.038391,-9.728088 z"
       style="fill:#ff1a00;fill-opacity:1"
       id="path3" /><path
       d="m 114.04161,42.082825 c -1.40562,-0.145073 -4.88283,0.105128 -13.89476,1.000456 -6.31828,0.627716 -17.525414,1.83041 -17.783408,1.90841 -0.10383,0.03139 0.891729,1.426581 2.212268,3.100069 6.867044,8.702448 10.632466,15.216433 12.29279,21.264852 0.743346,2.70793 1.097205,7.747117 0.717269,10.220565 l -0.223759,1.455208 -1.716175,0.185002 c -11.496173,1.239262 -44.513853,2.994817 -68.495043,3.642155 -5.2956,0.142947 -9.65551,0.293154 -9.688815,0.333313 -0.05277,0.06363 6.970189,5.265947 32.120003,23.794935 l 5.983098,4.40799 11.377083,-1.29966 c 6.257354,-0.71473 11.586658,-1.26916 11.843205,-1.23248 0.580428,0.083 -2.877109,4.05858 -8.653735,9.9503 -5.845387,5.96185 -12.949849,11.94449 -14.184148,11.94449 -0.273589,0 -0.888532,0.3905 -1.366324,0.86816 -1.000798,1.00052 -3.456593,2.42668 -11.044288,6.41356 -2.977262,1.56438 -7.025392,3.80017 -8.995833,4.96818 -1.97044,1.168 -4.297103,2.49474 -5.170227,2.94814 -2.384607,1.23828 -3.796545,2.2899 -5.594491,4.16718 -5.012358,5.23356 -6.008715,10.42102 -2.579687,13.43174 2.092773,1.83748 6.133959,3.16603 11.333675,3.72587 2.394326,0.25779 3.111929,0.23749 4.978508,-0.14004 4.467206,-0.90353 11.960295,-3.68163 20.744987,-7.69152 3.411419,-1.55719 4.448765,-1.92902 4.619873,-1.65726 0.48624,0.77225 2.709897,7.11864 3.321244,9.47849 0.816013,3.14987 1.109345,7.99293 0.609782,10.07535 -0.188901,0.78743 -0.794505,2.41201 -1.345654,3.61063 -1.815012,3.94727 -1.871192,6.91347 -0.196371,10.35958 1.576004,3.24279 5.386947,6.5696 10.430371,9.10487 2.121075,1.06624 6.394158,2.60395 8.607744,3.098 2.605394,0.5815 4.402408,-0.33103 10.157519,-5.15782 l 2.910417,-2.44068 5.510772,-0.16485 5.51078,-0.16485 -0.1571,1.64848 c -0.0863,0.90679 -0.39335,4.10789 -0.68213,7.11326 -0.63004,6.55696 -0.6435,7.58151 -0.12661,9.62732 0.56956,2.25424 2.47758,5.99316 4.3217,8.46874 4.05957,5.44961 12.4901,12.52007 18.16633,15.23524 v -5.2e-4 c 0.87312,0.41765 1.91482,0.75953 2.31459,0.75965 1.17705,3.3e-4 2.68505,-1.58608 3.5972,-3.78375 1.5381,-3.70579 1.67995,-5.0592 1.77715,-16.98553 0.0486,-5.96634 0.16735,-13.60263 0.26355,-16.9695 l 0.17467,-6.12159 0.96376,-0.15968 c 0.52994,-0.0877 1.59026,-0.16027 2.35645,-0.16227 1.30499,-0.003 1.51862,0.0967 3.37705,1.57355 5.2102,4.14035 11.42949,6.16016 15.1567,4.92218 1.8413,-0.61158 3.62613,-2.29196 5.13457,-4.83485 1.04165,-1.756 1.42249,-2.8028 2.2996,-6.31589 1.05171,-4.21247 3.74846,-16.61361 5.34593,-24.58403 0.46666,-2.32833 0.93704,-4.33502 1.0449,-4.45916 0.10786,-0.12413 1.7774,0.99333 3.71036,2.48305 1.93298,1.48972 4.27376,3.228 5.20175,3.86333 l 1.68724,1.15549 3.88607,-0.002 c 8.48306,-0.005 31.50226,-0.74017 41.58867,-1.32912 9.85313,-0.57533 17.42643,-1.43723 18.04231,-2.0531 0.33432,-0.33433 -0.73627,-4.04373 -2.34507,-8.12509 -2.71106,-6.87762 -5.90812,-12.27013 -7.80935,-13.17232 -0.76786,-0.36434 -1.48972,-0.40867 -4.46794,-0.2744 -18.10414,0.81625 -45.11039,-9.99675 -80.94286,-32.40888 -5.43894,-3.40188 -13.259,-8.5743 -13.14132,-8.69197 0.0576,-0.0576 16.33485,-1.94795 36.17143,-4.20078 19.83657,-2.252826 36.09973,-4.129578 36.14043,-4.170288 0.0407,-0.04071 -9.39457,-6.295784 -20.96719,-13.900444 l -21.04109,-13.827063 -2.6939,1.051616 c -4.66704,1.821746 -10.89809,3.52726 -18.96628,5.191414 -5.18722,1.06992 -15.13164,2.816622 -15.26677,2.68149 -0.0483,-0.04833 0.62758,-2.248505 1.50223,-4.889107 1.88079,-5.678117 2.91662,-10.480317 2.91662,-13.521139 v -2.16886 l -1.52135,-1.601452 c -4.62441,-4.867945 -16.9373,-12.113798 -21.36097,-12.570362 z m -6.99492,81.992415 c 0.26316,0.47292 1.20691,6.21849 1.68672,10.27069 0.86592,7.31302 1.04279,11.4569 1.05678,24.73854 l 0.014,13.49375 -3.04271,0.1664 c -1.67348,0.0916 -5.02935,0.23966 -7.457422,0.32866 -4.049724,0.14845 -4.4255,0.12339 -4.548559,-0.29921 -0.07378,-0.25337 -0.507626,-2.24638 -0.963766,-4.42918 -0.959048,-4.58943 -3.303799,-14.99971 -4.587834,-20.36775 l -0.8847,-3.699 1.349788,-1.16841 c 4.167908,-3.60771 10.933433,-11.06745 15.268323,-16.83463 1.30093,-1.73077 1.97769,-2.4366 2.10943,-2.19986 z m 32.26624,11.38483 c 0.1108,0.042 1.82264,1.32664 3.80391,2.85461 l 3.60236,2.77812 -0.14779,2.64584 c -0.2944,5.27086 -1.34336,16.67946 -2.05569,22.35729 l -0.31575,2.51354 -2.24895,0.4501 c -1.23693,0.24769 -2.53197,0.45602 -2.87838,0.46302 l -0.62994,0.0129 0.16537,-7.73906 c 0.091,-4.25648 0.24134,-11.94071 0.33434,-17.07596 0.093,-5.13525 0.25972,-9.30242 0.37052,-9.26042 z"
       id="path2" /></g></svg>
