<?xml version="1.0" encoding="UTF-8" standalone="no"?>
<!-- Created with Inkscape (http://www.inkscape.org/) -->

<svg
   width="750"
   height="500"
   viewBox="0 0 198.4375 132.29167"
   version="1.1"
   id="svg1"
   xml:space="preserve"
   inkscape:version="1.4.2 (f4327f4, 2025-05-13)"
   sodipodi:docname="BGBE2026.svg"
   inkscape:export-filename="BGBE2026.png"
   inkscape:export-xdpi="96"
   inkscape:export-ydpi="96"
   xmlns:inkscape="http://www.inkscape.org/namespaces/inkscape"
   xmlns:sodipodi="http://sodipodi.sourceforge.net/DTD/sodipodi-0.dtd"
   xmlns="http://www.w3.org/2000/svg"
   xmlns:svg="http://www.w3.org/2000/svg"><sodipodi:namedview
     id="namedview1"
     pagecolor="#ffffff"
     bordercolor="#000000"
     borderopacity="0.25"
     inkscape:showpageshadow="2"
     inkscape:pageopacity="0.0"
     inkscape:pagecheckerboard="0"
     inkscape:deskcolor="#d1d1d1"
     inkscape:document-units="mm"
     inkscape:zoom="0.55748644"
     inkscape:cx="142.60437"
     inkscape:cy="112.11035"
     inkscape:window-width="1920"
     inkscape:window-height="1129"
     inkscape:window-x="-8"
     inkscape:window-y="-8"
     inkscape:window-maximized="1"
     inkscape:current-layer="layer1"
     inkscape:export-bgcolor="#ffffffff" /><defs
     id="defs1"><inkscape:path-effect
       effect="spiro"
       id="path-effect79"
       is_visible="true"
       lpeversion="0" /><inkscape:path-effect
       effect="spiro"
       id="path-effect75"
       is_visible="true"
       lpeversion="0" /><inkscape:path-effect
       effect="spiro"
       id="path-effect73"
       is_visible="true"
       lpeversion="0" /><inkscape:path-effect
       effect="spiro"
       id="path-effect63"
       is_visible="true"
       lpeversion="0" /><inkscape:path-effect
       effect="spiro"
       id="path-effect27"
       is_visible="true"
       lpeversion="0" /><inkscape:path-effect
       effect="spiro"
       id="path-effect23"
       is_visible="true"
       lpeversion="0" /><inkscape:path-effect
       effect="spiro"
       id="path-effect21"
       is_visible="true"
       lpeversion="0" /><inkscape:path-effect
       effect="spiro"
       id="path-effect11"
       is_visible="true"
       lpeversion="0" /><inkscape:path-effect
       is_visible="true"
       id="path-effect53"
       effect="spiro"
       lpeversion="0" /><inkscape:path-effect
       is_visible="true"
       id="path-effect49"
       effect="spiro"
       lpeversion="0" /><inkscape:path-effect
       is_visible="true"
       id="path-effect47"
       effect="spiro"
       lpeversion="0" /><inkscape:path-effect
       is_visible="true"
       id="path-effect37"
       effect="spiro"
       lpeversion="0" /></defs><g
     inkscape:label="Layer 1"
     inkscape:groupmode="layer"
     id="layer1"><rect
       style="fill:#ff2b16;fill-opacity:1;stroke:none;stroke-width:0.270994;stroke-linecap:square;stroke-linejoin:round;paint-order:markers stroke fill"
       id="rect2"
       width="198.43758"
       height="60.058655"
       x="-1.7763568e-15"
       y="72.233009" /><text
       xml:space="preserve"
       style="font-style:normal;font-variant:normal;font-weight:900;font-stretch:normal;font-size:67.0082px;line-height:1.5;font-family:'M+ 1p';-inkscape-font-specification:'M+ 1p Heavy';text-align:end;letter-spacing:-0.753848px;word-spacing:-0.502563px;writing-mode:lr-tb;direction:ltr;text-anchor:end;fill:#ffffff;stroke:#000000;stroke-width:2.52626;stroke-linecap:square;stroke-linejoin:round;paint-order:markers stroke fill"
       x="196.16597"
       y="128.20982"
       id="text2"
       transform="scale(1.0162337,0.98402562)"><tspan
         sodipodi:role="line"
         id="tspan2"
         style="font-style:normal;font-variant:normal;font-weight:900;font-stretch:normal;font-size:67.0081px;font-family:'M+ 1p';-inkscape-font-specification:'M+ 1p Heavy';font-variant-ligatures:normal;font-variant-caps:normal;font-variant-numeric:normal;font-variant-east-asian:normal;fill:#ffffff;stroke:none;stroke-width:2.52628"
         x="195.41211"
         y="128.20982">直輸入</tspan></text><path
       style="clip-rule:evenodd;fill:#000000;fill-rule:nonzero;stroke-width:0.524003;stroke-miterlimit:10"
       d="m 16.549318,13.191703 v 0.004 l 0.611996,0.0081 z"
       id="path96" /><path
       style="clip-rule:evenodd;fill:#000000;fill-rule:nonzero;stroke-width:0.524003;stroke-miterlimit:10"
       d="m 16.950136,13.467357 c 0.422378,0.288611 0.736437,0.53662 0.974735,0.762449 -0.238298,-0.225829 -0.552357,-0.473838 -0.974735,-0.762449"
       id="path95" /><path
       style="clip-rule:evenodd;fill:#000000;fill-rule:nonzero;stroke-width:0.524003;stroke-miterlimit:10"
       d="m 22.538683,15.949156 -0.324979,0.1761 0.324979,-0.171668 0.444098,0.284299 c 0.238217,0.158167 1.651648,1.083074 3.14084,2.062684 v -0.0081 c -1.489192,-0.974767 -2.902623,-1.90457 -3.14084,-2.062697 z"
       id="path94" /><path
       style="clip-rule:evenodd;fill:#000000;fill-rule:nonzero;stroke-width:0.524003;stroke-miterlimit:10"
       d="m 6.254943,17.406976 c -0.4224588,0.42401 -0.9097751,0.965526 -0.9476751,1.033226 0.038076,-0.06751 0.5360564,-0.609216 0.9476751,-1.033226 0,0.004 -0.00398,0 -0.00398,0 z"
       id="path93" /><path
       style="clip-rule:evenodd;fill:#000000;fill-rule:nonzero;stroke-width:0.524003;stroke-miterlimit:10"
       d="m 20.296757,22.822244 0.189397,0.08986 c 2.155348,1.367354 4.662572,2.685463 6.5796,3.488549 -1.917028,-0.803086 -4.418914,-2.125508 -6.5796,-3.497192 z"
       id="path92" /><path
       style="clip-rule:evenodd;fill:#000000;fill-rule:nonzero;stroke-width:0.524003;stroke-miterlimit:10"
       d="m 6.5797997,24.825913 c -0.2977774,0.27076 -0.6497954,0.568597 -0.8176744,0.6991 -0.092078,0.07697 -0.1841593,0.140236 -0.2653789,0.194436 0.075754,-0.05439 0.1730778,-0.117468 0.2653789,-0.185167 0.1678391,-0.131168 0.519897,-0.437529 0.8176744,-0.70831"
       id="path91" /><path
       style="clip-rule:evenodd;fill:#000000;fill-rule:nonzero;stroke-width:0.524003;stroke-miterlimit:10"
       d="M 2.1880266,24.965562 C 2.0469856,25.673873 1.9497682,26.396284 1.9335081,27.10028 1.9607092,26.396284 2.052587,25.673873 2.1880266,24.965562"
       id="path90" /><path
       style="clip-rule:evenodd;fill:#000000;fill-rule:nonzero;stroke-width:0.524003;stroke-miterlimit:10"
       d="m 27.071235,26.415084 c 0.276218,0.11263 0.536157,0.216617 0.785295,0.307066 0.974674,0.365516 2.214826,0.699098 2.978402,0.789547 l 0.01013,0.04977 -0.004,-0.04977 c -0.769036,-0.09047 -2.009168,-0.424031 -2.989323,-0.789547 -0.243618,-0.08603 -0.508997,-0.1896 -0.779775,-0.302736 z"
       id="path89" /><path
       style="clip-rule:evenodd;fill:#000000;fill-rule:nonzero;stroke-width:0.524003;stroke-miterlimit:10"
       d="m 30.845711,27.556627 v 0.004 c 0.0544,0 0.130162,0.004 0.15172,0.0081 -0.02721,-0.004 -0.08663,-0.01209 -0.15172,-0.01209 z"
       id="path88" /><path
       style="clip-rule:evenodd;fill:#000000;fill-rule:nonzero;stroke-width:0.524003;stroke-miterlimit:10"
       d="m 31.01359,26.690193 c 0.03829,0.559952 0.04855,0.798735 0.01813,0.862122 0.03264,-0.05439 0.03264,-0.284317 -0.01813,-0.862122"
       id="path87" /><path
       style="clip-rule:evenodd;fill:#000000;fill-rule:nonzero;stroke-width:0.524003;stroke-miterlimit:10"
       d="m 3.4551994,26.911668 c -0.2815782,0.153331 -0.6985361,0.365537 -0.9368549,0.505249 -0.2382181,0.135398 -0.4819974,0.252906 -0.5306566,0.293506 l -0.1029597,0.04917 v 0.004 l 0.1029597,-0.04917 c 0.048759,-0.02696 0.281538,-0.148854 0.5198569,-0.289109 0.2382583,-0.135399 0.6606559,-0.360661 0.9367736,-0.514436 z"
       id="path86" /><path
       style="clip-rule:evenodd;fill:#000000;fill-rule:nonzero;stroke-width:0.524003;stroke-miterlimit:10"
       d="m 11.957126,31.022289 0.146482,0.659023 h 0.01209 z m -0.357398,-1.592636 c 0.124721,0.500918 0.281618,1.218454 0.357398,1.592636 -0.07575,-0.374182 -0.232818,-1.091718 -0.357398,-1.592636 M 13.2569,25.241602 c 0.05419,0.06326 0.189397,0.925471 0.265337,1.52981 0.129959,1.083054 0.15716,1.697146 0.15716,3.66884 v 1.999336 l -0.444038,0.01209 -0.04372,0.01209 c -0.24912,0.04069 -0.741936,0.04069 -1.104694,0.04977 -0.595677,0.01209 -0.660737,0 -0.671496,-0.04977 0,-0.03606 -0.04876,-0.334107 -0.13016,-0.654148 -0.146277,-0.6818 -0.498173,-2.233835 -0.682252,-3.02824 l -0.140639,-0.541507 0.211179,-0.1761 c 0.622654,-0.537225 1.624509,-1.642462 2.268964,-2.500252 0.2114,-0.261551 0.297939,-0.338458 0.314099,-0.324898 z M 14.334552,13.00712 c -0.205819,0 -0.714775,0.0081 -2.052468,0.157564 -0.936794,0.09974 -2.5938823,0.270779 -2.6425621,0.284317 -0.018134,0.004 0.1406383,0.225808 0.3248978,0.460279 1.0234723,1.291029 1.5920293,2.256556 1.8248873,3.154423 0.10276,0.397474 0.156958,1.146421 0.10276,1.511939 l -0.02721,0.212367 -0.265379,0.01209 C 9.8937096,18.984661 5.0037392,19.251189 1.440481,19.341616 0.65520537,19.382306 0.00536929,19.396016 9.675573e-6,19.396016 -0.00401858,19.404097 1.0342851,20.176379 4.7654427,22.924623 l 0.893494,0.654711 1.6841903,-0.171666 c 0.9314954,-0.117468 1.7112503,-0.185167 1.7599096,-0.180331 0.092078,0.01209 -0.427737,0.600007 -1.2779922,1.475671 -0.8718546,0.884329 -1.9277877,1.773491 -2.1119071,1.773491 -0.054196,0 -0.1299598,0.07637 -0.2057791,0.144063 -0.1464844,0.148896 -0.5144193,0.361202 -1.6353521,0.952547 -0.4441186,0.230139 -1.0506347,0.559408 -1.3376327,0.731055 -0.2924385,0.176101 -0.6335761,0.379078 -0.7689755,0.446778 -0.3519777,0.180332 -0.5685561,0.333562 -0.82851477,0.61355 -0.74731551,0.776007 -0.89347421,1.547682 -0.38989757,1.994441 0.31407803,0.270778 0.90971404,0.487356 1.68408934,0.550744 0.3519777,0.03606 0.4603172,0.03606 0.7419358,-0.0121 0.6552159,-0.139631 1.7761693,-0.541517 3.0759022,-1.137213 0.5036364,-0.225807 0.655175,-0.28863 0.6822748,-0.239327 0.064884,0.117467 0.4169379,1.051621 0.4981769,1.403598 0.097724,0.464652 0.1464812,1.187044 0.075754,1.493566 -0.027205,0.113236 -0.1353987,0.361207 -0.2111783,0.537205 -0.2599593,0.586448 -0.2599593,1.019665 -0.022367,1.534123 0.2329802,0.483045 0.8015356,0.974754 1.5488316,1.353833 0.314078,0.157964 0.9422945,0.392616 1.2725707,0.455965 0.3844574,0.08986 0.6552964,-0.04977 1.5054694,-0.767364 l 0.438619,-0.365498 0.812375,-0.0081 0.823096,-0.0121 -0.02721,0.235034 c -0.027,0.1354 -0.04875,0.609217 -0.10276,1.060306 -0.08663,0.974774 -0.08663,1.123673 -0.01209,1.425843 0.08664,0.338459 0.362838,0.893535 0.638996,1.259073 0.601075,0.807943 1.851969,1.859585 2.691384,2.260846 l 0.01209,-0.04069 c 0.130161,0.027 0.297857,0.09046 0.346556,0.09046 0.167639,0 0.395318,-0.23447 0.525318,-0.559389 0.238259,-0.555075 0.254518,-0.74947 0.265318,-2.52298 0.0272,-0.884307 0.03808,-2.025852 0.0542,-2.522437 l 0.02721,-0.907075 0.129959,-0.01209 c 0.07575,0 0.249139,-0.01209 0.352017,-0.01209 0.19484,0 0.216518,0.027 0.492779,0.239345 0.774355,0.640628 1.70043,0.90218 2.252766,0.726181 0.270799,-0.08986 0.525256,-0.333583 0.758136,-0.712661 0.156956,-0.262074 0.205798,-0.419677 0.341177,-0.93897 0.151718,-0.627108 0.552297,-2.468317 0.790616,-3.650463 0.08139,-0.343334 0.146077,-0.645505 0.162598,-0.659025 0.0121,-0.01209 0.25996,0.153332 0.541557,0.361166 0.292316,0.225302 0.644376,0.487397 0.779717,0.577301 l 0.265357,0.1761 h 0.574017 c 1.256453,0 4.673451,-0.143863 6.173483,-0.211723 1.462151,-0.08624 2.604744,-0.239347 2.680543,-0.302694 0.04875,-0.04937 -0.119079,-0.604361 -0.352018,-1.209245 -0.400717,-1.019708 -0.877174,-1.818463 -1.158853,-1.958719 -0.113639,-0.06266 -0.216537,-0.06266 -0.660595,-0.04937 -2.686084,0.11263 -6.693339,-1.480528 -12.011128,-4.806074 -0.806974,-0.505793 -1.960287,-1.277449 -1.949468,-1.290969 0.004,-0.004 2.425986,-0.284317 5.366488,-0.61792 2.945982,-0.334107 5.355767,-0.618403 5.361128,-0.622736 0.004,-0.004 -1.386291,-0.934134 -3.108382,-2.062683 l -3.124504,-2.048553 -0.395359,0.158167 c -0.693156,0.270759 -1.61919,0.532308 -2.815984,0.76682 -0.768974,0.162601 -2.258165,0.415345 -2.269025,0.401786 0,-0.004 0.102759,-0.334108 0.238337,-0.726744 0.27614,-0.843668 0.433259,-1.556892 0.433259,-2.007962 V 15.11573 l -0.23288,-0.239346 c -0.693215,-0.721848 -2.518183,-1.804922 -3.17336,-1.8726 z m 3.725597,13.91309 c 0.01013,0.004 0.265418,0.189398 0.557797,0.424554 l 0.536117,0.419697 -0.0121,0.387723 c -0.03808,0.785234 -0.205799,2.473154 -0.303299,3.316861 l -0.0544,0.370414 -0.330297,0.06751 v 0.004 c -0.1896,0.04917 -0.36832,0.06286 -0.422398,0.06286 h -0.102955 l 0.02236,-1.141545 c 0,-0.631944 0.04351,-1.777843 0.0542,-2.540854 0,-0.762468 0.03808,-1.376016 0.05419,-1.371664 z"
       id="path85" /><path
       style="clip-rule:evenodd;fill:#000000;fill-rule:nonzero;stroke-width:0.524003;stroke-miterlimit:10"
       d="M 6.260342,31.550284 5.9028841,31.708452 C 5.4209474,31.920618 4.90113,32.128129 4.4353528,32.294919 4.9064904,32.128089 5.4209474,31.929383 5.9028841,31.712784 L 6.260342,31.555222 Z"
       id="path84" /><path
       style="clip-rule:evenodd;fill:#000000;fill-rule:nonzero;stroke-width:0.524003;stroke-miterlimit:10"
       d="m 23.692055,32.290548 -0.238259,1.069515 c -0.12472,0.618424 -0.227398,1.100946 -0.319497,1.493544 0.09248,-0.392598 0.200479,-0.884307 0.330338,-1.497874 z"
       id="path83" /><path
       style="clip-rule:evenodd;fill:#000000;fill-rule:nonzero;stroke-width:0.524003;stroke-miterlimit:10"
       d="m 4.4353528,32.294821 c -0.4711374,0.16683 -0.8827152,0.293506 -1.1588328,0.365518 -0.1353986,0.02277 -0.2437186,0.04977 -0.3087586,0.07677 0.075961,-0.0121 0.1678391,-0.04069 0.3087586,-0.06326 0.2707584,-0.0675 0.6931968,-0.207452 1.1588328,-0.369871 z"
       id="path82" /><path
       style="clip-rule:evenodd;fill:#000000;fill-rule:nonzero;stroke-width:0.524003;stroke-miterlimit:10"
       d="m 2.9623816,32.732351 c -0.038082,0.0081 -0.065081,0.027 -0.086639,0.04069 0.022365,-0.01209 0.048759,-0.027 0.086639,-0.04069"
       id="path81" /><path
       style="clip-rule:evenodd;fill:#000000;fill-rule:nonzero;stroke-width:0.524003;stroke-miterlimit:10"
       d="m 23.881633,32.430118 c 0.10276,0.06326 0.270759,0.1761 0.395298,0.261572 l 0.211158,0.140236 -0.211158,-0.144668 c -0.113638,-0.09046 -0.292437,-0.193831 -0.395298,-0.257221"
       id="path80" /><path
       style="clip-rule:evenodd;fill:#000000;fill-rule:nonzero;stroke-width:0.524003;stroke-miterlimit:10"
       d="m 29.865458,32.74585 c -0.195041,0.004 -0.471058,0.02277 -0.763457,0.02277 0.438558,-0.0081 0.823056,-0.03605 0.990976,-0.02277 -0.04875,-0.004 -0.130162,-0.004 -0.227519,0"
       id="path79" /><path
       style="clip-rule:evenodd;fill:#000000;fill-rule:nonzero;stroke-width:0.524003;stroke-miterlimit:10"
       d="m 30.109196,32.74585 c 0.04372,0 0.07596,0.0081 0.07596,0.02277 0,0 0.004,-0.004 0,-0.004 0,-0.0081 -0.03185,-0.0081 -0.07596,-0.01209 z"
       id="path78" /><path
       style="clip-rule:evenodd;fill:#000000;fill-rule:nonzero;stroke-width:0.524003;stroke-miterlimit:10"
       d="m 22.636121,36.433103 c -0.05963,0.126132 -0.129959,0.238804 -0.205818,0.356312 0.07575,-0.112632 0.146481,-0.234453 0.205818,-0.356312"
       id="path77" /><path
       style="clip-rule:evenodd;fill:#000000;fill-rule:nonzero;stroke-width:0.524003;stroke-miterlimit:10"
       d="m 12.217025,36.9611 c -0.07575,0.0081 -0.130162,0.04069 -0.23832,0.130564 0.162398,-0.130564 0.21674,-0.130564 0.379099,-0.130564 -0.0542,0 -0.10276,-0.004 -0.140639,0"
       id="path76" /><path
       style="clip-rule:evenodd;fill:#000000;fill-rule:nonzero;stroke-width:0.524003;stroke-miterlimit:10"
       d="m 10.565354,38.048487 c -0.254458,0.08564 -0.492756,0.09894 -0.7634737,0.06347 0.2707177,0.03567 0.5143557,0.02236 0.7634737,-0.06347 m 1.207613,-0.789548 c -0.498218,0.419698 -0.860994,0.67204 -1.207613,0.789548 0.346619,-0.117468 0.709395,-0.36985 1.207613,-0.789548"
       id="path75" /><path
       style="clip-rule:evenodd;fill:#000000;fill-rule:nonzero;stroke-width:0.524003;stroke-miterlimit:10"
       d="m 18.374086,42.005974 -0.07575,0.239367 h 0.004 z m 0.140839,-0.595676 c -0.04351,0.216598 -0.07051,0.383932 -0.140839,0.595676 0.06489,-0.211762 0.102955,-0.379078 0.140839,-0.595676"
       id="path219" /><path
       id="path220"
       d="m 194.95007,38.939845 h -0.30316 v -6.64293 c 0.71477,-0.07677 1.04511,-0.216619 1.26718,-0.518768 l -2.63734,-1.84121 c 2.66437,-0.302734 3.02176,-1.150755 3.02176,-2.743932 v -9.237379 c 0.54698,-0.117468 0.93144,-0.329795 1.09391,-0.550725 l -2.77266,-2.057809 -1.20751,1.371684 h -4.25106 l -2.9622,-1.096593 v 5.871234 c 0,3.10024 -0.35737,6.258996 -3.23829,8.646599 l 0.27074,0.302172 c 3.46039,-1.566101 4.74923,-3.81776 5.24201,-6.065108 h 5.18782 v 2.603638 c 0,0.356874 -0.0757,0.523685 -0.49284,0.523685 -0.55232,0 -2.79963,-0.135399 -2.79963,-0.135399 v 0.383389 c 1.15349,0.1626 1.67331,0.438093 2.03071,0.713204 0.32488,0.275111 0.43867,0.794423 0.5199,1.398784 l -1.09393,1.399287 h -12.40644 l -2.74549,-1.096592 v 8.781392 h -3.70408 l 0.2491,0.794443 h 24.50404 c 0.38457,0 0.6337,-0.1356 0.71489,-0.437569 -0.82308,-0.879954 -2.22025,-2.166107 -2.22025,-2.166107 z m -1.2888,-18.795909 h -4.94412 v -2.635068 h 4.94412 z m -5.05243,3.430037 c 0.0813,-0.713184 0.11907,-1.4307 0.11907,-2.084869 V 20.91128 h 4.93874 v 2.662693 z m 3.49286,15.365872 h -2.7455 v -6.886609 h 2.7455 z m -5.16622,0 h -2.71307 v -6.886609 h 2.71307 z m -7.81966,-6.886609 h 2.6914 v 6.886609 h -2.6914 z m -1.86288,-5.433159 h 3.94774 v 1.646773 h 0.3845 c 0.76899,0 1.9766,-0.496021 2.00366,-0.658481 v -9.35978 c 0.57942,-0.112632 0.98564,-0.356331 1.15341,-0.577262 l -2.63177,-1.972257 -1.18049,1.313233 h -3.31959 l -2.77258,-1.069534 v 13.199764 h 0.41154 c 1.23465,0 2.00358,-0.577845 2.00358,-0.740285 z m 0,-4.445413 h 3.9532 v 3.650987 h -3.9532 z m 3.94774,-0.798755 h -3.95311 v -3.569203 h 3.95311 z m -29.82192,6.67001 c 0.76356,-0.117467 1.17511,-0.32925 1.37011,-0.550744 l -2.88638,-2.387059 -1.31587,1.787049 h -3.07046 l 0.1624,0.794425 h 3.29247 v 8.231253 c -1.3159,0.658481 -2.60478,1.263364 -3.50912,1.619694 l 1.53797,2.93343 c 0.24369,-0.1354 0.41149,-0.297798 0.35742,-0.627068 1.03967,-1.042454 2.68595,-2.883643 3.704,-4.228811 1.94407,3.542687 4.14273,4.282951 9.32514,4.282951 h 9.16804 c 0.11365,-1.209768 0.68229,-1.949468 1.75454,-2.166087 v -0.356874 c -3.40083,0.113236 -7.7384,0.113236 -10.94967,0.113236 -4.96584,0 -6.9965,-0.302735 -8.94065,-2.360521 z M 145.9689,16.055421 c 1.23471,1.231972 2.60477,3.316839 2.93507,5.076788 2.58308,1.918119 4.77629,-3.487961 -2.69135,-5.270681 z m 6.72038,3.046082 h 7.38101 v 2.468821 h -3.25994 l -2.66434,-1.096593 v 10.947542 h 0.35739 c 1.04517,0 2.13902,-0.577281 2.13902,-0.82096 v -0.744616 h 3.42787 v 3.046124 h -7.98211 l 0.21653,0.798735 h 7.76556 v 3.127342 h 0.47115 c 0.99099,0 2.05783,-0.577845 2.05783,-0.852936 v -2.274406 h 7.76549 c 0.38446,0 0.66064,-0.140235 0.74188,-0.442425 -1.09923,-0.929804 -2.83228,-2.247328 -2.83228,-2.247328 l -1.55946,1.891018 h -4.11563 v -3.046124 h 3.50908 v 1.128026 h 0.43863 c 0.85566,0 2.11735,-0.577845 2.14446,-0.771675 v -7.405419 c 0.54689,-0.117468 0.95845,-0.356331 1.15347,-0.577785 l -2.7185,-2.030748 -1.26172,1.372228 h -3.26542 v -2.468821 h 7.35387 c 0.37908,0 0.68238,-0.13963 0.73652,-0.441882 -1.03977,-0.961213 -2.79428,-2.247347 -2.79428,-2.247347 l -1.56499,1.890473 h -3.73112 v -2.166128 c 0.74183,-0.117064 0.93142,-0.383389 1.01804,-0.793859 l -3.54702,-0.356874 v 3.316861 h -7.59765 z m 7.38101,6.119265 h -3.42787 v -2.851669 h 3.42787 z m -3.42787,0.794423 h 3.42787 v 3.046082 h -3.42787 z m 5.95685,0 h 3.50908 v 3.046082 h -3.50908 z m 3.50908,-0.794423 h -3.50908 v -2.851669 h 3.50908 z m -22.69005,7.874905 -0.33031,-0.07677 c -0.38451,1.150773 -0.93138,2.52298 -1.32136,3.20858 -0.24368,0.496566 -0.4061,0.523666 -0.76355,0.07677 -0.96391,-1.015375 -1.70042,-2.274427 -2.27983,-3.732225 1.45679,-2.030711 2.58311,-4.16976 3.40074,-6.173427 0.68772,0.04977 0.93684,-0.135398 1.07769,-0.437529 l -3.21667,-1.155107 c -0.46568,1.700956 -1.17516,3.515084 -2.05776,5.270724 -0.49285,-1.895371 -0.76359,-3.980238 -0.93145,-6.173427 l 5.90266,-0.879994 c 0.35739,-0.04977 0.62817,-0.243699 0.62817,-0.577805 -1.09931,-0.73974 -2.90801,-1.728014 -2.90801,-1.728014 l -1.20763,2.003648 -2.46933,0.383411 c -0.11364,-2.220288 -0.13539,-4.526106 -0.0757,-6.832468 0.70939,-0.112632 0.93144,-0.437551 0.98562,-0.7939 l -3.59582,-0.383935 c 0,2.933452 0.0545,5.735875 0.24913,8.398587 l -2.52347,0.38339 0.32492,0.713204 2.2527,-0.329814 c 0.27622,3.208563 0.76356,6.173426 1.64629,8.781961 -1.61922,2.468296 -3.677,4.747599 -6.1194,6.475592 l 0.27627,0.329794 c 2.60481,-1.318088 4.77092,-3.073181 6.53085,-5.049749 0.65526,1.480003 1.47839,2.824607 2.49104,4.007295 0.96391,1.150754 2.85926,2.332898 3.9531,1.398804 0.41155,-0.302209 0.30322,-1.096613 -0.49273,-2.581492 z m -10.59229,1.647317 c 0.3845,0 0.65526,-0.140234 0.7365,-0.442425 -1.01264,-0.961234 -2.71307,-2.247329 -2.71307,-2.247329 l -1.45673,1.890999 h -2.68595 v -3.181483 h 2.5506 v 1.042473 h 0.37904 c 0.82856,0 1.97662,-0.577824 2.00377,-0.794422 v -8.041695 c 0.43857,-0.07676 0.80133,-0.30219 0.96383,-0.491729 l -2.44228,-1.86825 -1.15345,1.263387 h -6.91533 l -2.74557,-1.096615 v 11.493934 h 0.38454 c 1.24001,0 2.00362,-0.518768 2.00362,-0.713183 v -0.7939 h 2.46937 v 3.181483 h -6.20049 l 0.2219,0.798755 h 5.97851 v 5.622698 h 0.41697 c 1.28342,0 2.0578,-0.518789 2.08489,-0.686105 V 34.74299 Z m -6.11925,-8.095835 h 2.5506 v 3.321174 h -2.5506 z m 2.5506,-0.798775 h -2.5506 v -3.181462 h 2.5506 z m -5.04704,0 h -2.46934 v -3.181462 h 2.46934 z m -2.47479,0.798775 h 2.46937 v 3.321174 h -2.46937 z m -3.12464,-10.731467 c 0.73648,1.155087 1.59206,2.991944 1.6733,4.471947 2.03077,1.787029 4.28348,-2.359998 -1.36997,-4.634405 z m 4.39178,-0.659045 c 0.57406,1.23685 1.23472,3.073185 1.20765,4.612203 1.94407,1.918096 4.44585,-2.111967 -0.90979,-4.747581 z m 6.33592,-0.02217 c -0.65528,2.166108 -1.59215,4.607306 -2.32849,6.060229 l 0.37897,0.275634 c 1.42959,-1.123672 2.96756,-2.85223 4.1698,-4.607867 0.57935,0.04977 0.93686,-0.166833 1.04513,-0.441863 z m 8.39367,1.313217 c 0.99099,0.879954 2.00365,2.41845 2.19868,3.731663 2.19305,1.593179 4.16973,-2.797528 -1.92246,-3.921202 z m -22.27851,17.098743 h -0.33036 c -0.21652,1.317524 -0.60105,3.019002 -0.79057,3.402412 -0.14104,0.220931 -0.30323,0.243679 -0.44403,0.270759 h -1.31053 c -0.35732,0 -0.44407,-0.162601 -0.44407,-0.572928 V 18.415964 c 0.66073,-0.117468 0.95854,-0.275656 1.1806,-0.496585 l -2.65896,-2.220288 -1.37541,1.534163 h -3.45501 l -2.94046,-1.123675 v 10.754216 c 0,5.29776 -0.57404,9.878008 -4.57597,13.420694 l 0.324917,0.27509 c 6.173463,-3.321192 6.747483,-8.537734 6.747483,-13.722865 v -8.809057 h 4.22929 v 19.45876 c 0,1.588846 0.33038,2.247327 2.16615,2.247327 h 1.23466 c 2.46938,0 3.40617,-0.464609 3.40617,-1.452923 0,-0.496565 -0.19484,-0.771674 -0.85553,-1.096593 z M 97.399225,22.228844 h 3.920675 c 0.38453,0 0.66061,-0.135399 0.7419,-0.43755 -0.90438,-0.934134 -2.469348,-2.305816 -2.469348,-2.305816 l -1.370133,1.949507 H 97.393784 V 16.16376 c 0.720277,-0.112631 0.936875,-0.35635 0.991034,-0.766821 L 94.89736,15.040065 v 6.39492 h -4.305094 l 0.216539,0.793859 h 3.628157 c -0.720176,4.115637 -2.030667,8.371489 -4.034335,11.525912 l 0.379038,0.302151 c 1.678788,-1.64732 3.048821,-3.510733 4.115635,-5.600479 v 12.049011 h 0.525358 c 0.931373,0 1.971066,-0.49604 1.971066,-0.793878 V 25.081078 c 0.882756,1.155085 1.72751,2.748262 1.89537,4.034394 2.111966,1.841212 4.418826,-2.468277 -1.89537,-4.607325 z m -9.606682,0.117467 c 0.384478,0 0.687737,-0.13963 0.768935,-0.442424 -1.126352,-1.069515 -3.043401,-2.576578 -3.043401,-2.576578 l -1.70035,2.220267 h -6.671578 v -5.26637 c 0.823156,-0.117466 1.072172,-0.43757 1.126353,-0.852915 l -3.790717,-0.41045 v 6.529735 H 63.261373 l 0.221899,0.798756 h 9.243903 c -1.80873,4.82878 -5.263628,9.824391 -9.742061,13.032954 l 0.276199,0.35631 c 4.93869,-2.495358 8.756466,-6.038026 11.22039,-10.261961 v 8.398024 h -5.621085 l 0.222119,0.794424 h 5.404467 v 5.844192 h 0.519897 c 1.072214,0 2.144427,-0.523665 2.144427,-0.821502 v -5.02271 h 5.01997 c 0.379098,0 0.655276,-0.1354 0.736495,-0.43755 C 81.89532,33.18608 80.19491,31.759691 80.19491,31.759691 L 78.68406,33.87164 H 77.146169 V 22.346392 c 1.922368,5.898335 5.160708,10.428734 9.330423,13.118506 0.438717,-1.317524 1.321471,-2.143358 2.415326,-2.332877 l 0.07596,-0.302735 C 84.689885,31.015176 80.162611,27.093953 77.720428,22.346392 Z M 55.5229,16.335366 54.120329,17.84243 H 42.926997 l -2.913463,-1.204912 v 23.683178 h 0.471178 c 1.180511,0 2.220206,-0.659023 2.220206,-1.02023 v -1.561221 h 11.691568 v 2.387056 h 0.438718 c 1.017994,0 2.306826,-0.65848 2.361005,-0.879994 V 19.133439 c 0.552357,-0.1354 0.931496,-0.356874 1.120933,-0.577826 z M 54.396486,27.229272 H 42.710418 v -8.588107 h 11.686068 z m -11.691568,0.79388 h 11.686169 v 8.917356 H 42.704918 Z"
       style="clip-rule:evenodd;fill:#000000;fill-rule:nonzero;stroke-width:0.524003;stroke-miterlimit:10" /><path
       style="clip-rule:evenodd;fill:#ff2b16;fill-opacity:1;fill-rule:nonzero;stroke-width:0.524003;stroke-miterlimit:10"
       d="m 16.549117,13.195592 0.400818,0.270778 c 1.115554,0.771656 1.51627,1.231953 1.565011,1.827651 0.02679,0.292962 -0.07576,0.956318 -0.2114,1.511415 -0.04876,0.221455 -0.08663,0.388266 -0.07575,0.397474 0.02721,0.0407 1.424192,-0.266447 2.122686,-0.442445 0.904415,-0.230139 1.472971,-0.424011 1.868289,-0.636277 l 0.319539,-0.1761 0.444058,0.284278 c 0.243698,0.158168 1.651669,1.083055 3.14086,2.06214 l 0.004,-0.0121 c 1.483791,0.97963 2.707624,1.778385 2.718403,1.778385 l 0.004,-0.004 c -0.02712,-0.104016 -0.601034,-0.911973 -0.990992,-1.407995 -0.471076,-0.595697 -1.646229,-1.787049 -2.241947,-2.256574 -2.431404,-1.93593 -5.447806,-3.100243 -8.458607,-3.185795 z"
       id="path102" /><path
       style="clip-rule:evenodd;fill:#ff2b16;fill-opacity:1;fill-rule:nonzero;stroke-width:0.524003;stroke-miterlimit:10"
       d="m 9.6338201,14.883006 -0.2057986,0.140236 c -1.0614344,0.600029 -1.8575094,1.172958 -2.7997834,2.021541 -0.4115379,0.36987 -1.2725329,1.308861 -1.321232,1.394412 0.012089,0.01209 0.1571596,0.04069 0.4657167,0.01209 1.4079316,-0.09046 3.2870201,-0.19383 4.1913941,-0.266425 0.5577771,-0.04937 1.0451131,-0.06287 1.0721731,-0.06287 0.03808,0 0.04875,-0.03626 0.0272,-0.266406 C 11.01998,17.458638 10.874097,16.97128 10.641099,16.488235 10.446258,16.082083 10.0021,15.378106 9.7368017,15.039648 Z"
       id="path101" /><path
       style="clip-rule:evenodd;fill:#ff2b16;fill-opacity:1;fill-rule:nonzero;stroke-width:0.524003;stroke-miterlimit:10"
       d="m 29.691997,21.765282 c -0.09189,0 -9.027224,1.028915 -9.238424,1.042415 l -0.156957,0.01209 0.184159,0.08986 c 2.474805,1.566078 5.388167,3.073163 7.375674,3.809094 0.974674,0.360662 2.220247,0.694748 2.983842,0.785195 l 0.004,0.04937 c 0.06508,0 0.130162,0.0081 0.15716,0.01209 0.05963,0.0081 0.05963,-0.203158 0.01209,-0.879995 -0.130067,-1.534127 -0.514404,-3.14516 -1.082941,-4.49897 -0.13541,-0.334154 -0.17349,-0.424038 -0.23827,-0.424038 z"
       id="path100" /><path
       style="clip-rule:evenodd;fill:#ff2b16;fill-opacity:1;fill-rule:nonzero;stroke-width:0.524003;stroke-miterlimit:10"
       d="m 2.8485012,22.577558 -0.04876,0.157563 c -0.09208,0.225806 -0.3573776,1.083053 -0.4657172,1.521147 -0.2165381,0.934135 -0.3735569,1.904015 -0.4006569,2.843004 l -0.048759,0.663397 0.09752,-0.0542 c 0.054199,-0.03626 0.2924382,-0.153734 0.5306967,-0.289154 0.2437187,-0.139631 0.6553371,-0.351998 0.9422948,-0.509581 0.8555746,-0.446778 1.4350713,-0.767344 1.4675711,-0.821502 0.048764,-0.06326 0.2977776,-0.261551 0.4007581,-0.275091 0.048764,-0.01209 0.2490578,-0.140236 0.4385967,-0.28432 0.3411174,-0.262094 1.3808716,-1.200561 1.3537718,-1.218433 -0.012089,-0.01209 -0.395318,0.01209 -0.8718546,0.06751 l -0.8501948,0.08564 -1.2780128,-0.938465 z"
       id="path99" /><path
       style="clip-rule:evenodd;fill:#000000;fill-rule:nonzero;stroke-width:0.524003;stroke-miterlimit:10"
       d="m 12.7531,27.103685 -0.335738,0.365518 c -0.184159,0.202957 -0.498217,0.527996 -0.682335,0.699643 l -0.352059,0.32923 0.21138,0.929823 c 0.12996,0.500938 0.281538,1.218454 0.357379,1.592656 l 0.156957,0.668233 h 0.21138 c 0.102758,0 0.308659,-0.0081 0.411598,-0.0121 l 0.205799,-0.0121 -0.02721,-1.534684 c -0.02721,-1.394434 -0.05419,-2.238141 -0.1354,-2.806738 z"
       id="path98" /><path
       style="clip-rule:evenodd;fill:#ff2b16;fill-opacity:1;fill-rule:nonzero;stroke-width:0.524003;stroke-miterlimit:10"
       d="m 6.2602008,31.553407 -0.3574772,0.157564 c -0.9639154,0.433217 -2.0740082,0.812294 -2.6318656,0.952552 -0.557736,0.130361 -0.5035359,0.05439 -0.2977975,0.595676 0.2599589,0.640648 0.7581757,1.62459 1.1372331,2.220286 2.2743667,3.636903 5.9026034,6.028816 10.1807374,6.710064 l 0.004,0.01209 c 0.243678,0.01209 0.503577,0.06326 0.579397,0.06326 0.135399,0.004 0.12472,-0.0081 -0.211179,-0.28859 -0.454877,-0.383953 -1.110154,-1.074409 -1.386312,-1.462152 -0.454877,-0.631963 -0.725676,-1.236827 -0.774374,-1.805444 -0.027,-0.275091 0.004,-1.073866 0.07575,-1.592614 l 0.01014,-0.158167 h -0.227458 c -0.232819,0 -0.23826,0.004 -0.590238,0.297837 -1.001833,0.839375 -1.46753,0.997502 -2.2690242,0.785237 C 7.9962602,37.634853 6.8157482,36.822537 6.3609113,35.892755 5.9655933,35.107521 5.9655933,34.480433 6.333706,33.658949 6.4366661,33.401731 6.5015452,33.207861 6.5178652,33.049734 6.5446611,32.770292 6.469111,32.219564 6.333706,31.822635 Z"
       id="path97" /><path
       style="clip-rule:evenodd;fill:#ff2b16;fill-opacity:1;fill-rule:nonzero;stroke-width:0.524003;stroke-miterlimit:10"
       d="m 23.691874,32.288795 -0.22744,1.065204 c -0.525236,2.468296 -0.655176,2.865226 -1.066732,3.487963 -0.546916,0.81717 -1.483831,1.101469 -2.545185,0.753823 -0.308698,-0.09894 -0.877234,-0.347687 -1.066834,-0.487396 -0.04876,-0.04069 -0.108198,-0.06326 -0.129958,-0.04977 0,0.0081 -0.03808,0.956902 -0.04876,2.094094 -0.027,2.183999 -0.0542,2.287967 -0.232939,2.856564 l -0.07576,0.23451 0.232879,-0.0081 c 1.066814,-0.131168 2.620984,-0.559953 3.742018,-1.04733 1.743689,-0.758155 3.119201,-1.700934 4.500031,-3.073181 1.018135,-1.015354 1.80331,-2.052931 2.463985,-3.239953 0.352019,-0.636316 1.007215,-2.057807 0.947574,-2.107634 -0.0121,-0.03566 -0.492716,-0.004 -1.082992,0.0081 -0.595637,0.03626 -1.87905,0.04977 -2.848384,0.04977 l -1.770808,0.004 -0.205799,-0.140235 c -0.119079,-0.08543 -0.292458,-0.198264 -0.400779,-0.261552 z"
       id="path222" /><path
       id="rect3-5"
       style="fill:#ff7162;fill-opacity:1;stroke:none;stroke-width:0.0683799;stroke-linecap:square;stroke-linejoin:round;paint-order:markers stroke fill"
       d="m 105.87844,44.083456 0.12246,14.049151 14.04929,0.12245 -0.12247,-14.049137 z m 6.11105,1.014351 c 0,0 -1e-5,-6.4e-5 1.79862,1.111197 -0.0487,0.536592 -0.0891,1.053642 -0.12613,1.561215 0.88257,-0.253033 1.41678,-0.557264 1.41678,-0.557264 l 2.15727,1.520414 c 0,0 -0.27227,0.201074 -0.40974,0.526847 -0.014,0.03322 -0.0287,0.06989 -0.0432,0.105618 0.44195,-0.09962 0.76893,-0.175689 0.76893,-0.175689 l 1.37231,1.046639 c -0.78374,0.06081 -1.64276,0.131989 -2.54155,0.21974 -0.22736,0.655533 -0.47292,1.392464 -0.70554,2.022834 l 0.89175,0.594649 c -2.1307,0.165299 -2.21398,0.159684 -3.13508,0.33984 -0.0144,2.40485 0.0898,3.82335 0.0898,3.82335 -0.98428,-0.96538 -0.68603,-0.60777 -0.98437,-0.96544 0,0 0.09,-1.152373 0.15502,-2.71306 -0.29769,0.05825 -0.64132,0.1248 -1.09568,0.2099 l -0.48522,-0.498004 c 0.008,0.06077 0.0148,0.118094 0.0148,0.118094 l -0.80031,0.599299 c -0.0636,-0.911468 -0.21549,-1.772499 -0.40492,-2.548573 -0.52278,0.120401 -1.03602,0.251045 -1.5311,0.396455 l -1.40395,-1.583324 c 0.36507,0.341738 1.40381,0.396111 2.69381,0.302046 -0.51437,-1.706793 -1.13313,-2.821671 -1.13313,-2.821671 0.8364,0.83505 1.40773,1.836576 1.79562,2.763151 0.77094,-0.07921 1.59927,-0.198248 2.41156,-0.333659 -0.005,-0.483762 -0.0167,-0.963405 -0.0387,-1.425032 -0.38965,0.08325 -0.90884,0.191546 -1.72921,0.345186 l -1.07337,-1.101421 c 1.02367,0.182387 1.96555,0.141051 2.7573,0.0113 -0.10253,-1.346245 -0.30783,-2.448452 -0.68239,-2.894663 z m 3.07733,3.289206 c -0.73756,0.06259 -1.10981,0.106292 -1.46017,0.168066 -0.0327,0.510876 -0.058,0.997823 -0.0803,1.472878 0.77702,-0.139957 1.50353,-0.285005 2.12948,-0.416492 0.0484,-0.233125 0.0977,-0.466742 0.15171,-0.700725 z m 0.39069,2.166289 c -0.64511,0.07025 -1.30116,0.148965 -1.96484,0.241771 -0.0242,0.636376 -0.0403,1.236897 -0.0495,1.792625 0.93159,-0.259046 1.38707,-0.672954 1.38707,-0.672954 l 0.20938,0.139573 c 0.17709,-0.489577 0.30523,-0.991789 0.41785,-1.501015 z m -2.70022,0.349996 c -0.71142,0.109707 -1.42147,0.235379 -2.11851,0.379788 0.19202,0.576076 0.3117,1.082974 0.38504,1.457279 0.65253,0.07599 1.21835,0.06013 1.70042,-0.0058 0.0185,-0.5868 0.0305,-1.20316 0.0331,-1.831299 z"
       sodipodi:nodetypes="ccccccccccscccccccccccccccccccccccccccccccccccccccccccc" /><path
       id="path8-1"
       style="fill:#ff7162;fill-opacity:1;stroke:#ffffff;stroke-width:1.10891;stroke-linecap:butt;stroke-linejoin:miter;stroke-dasharray:none;paint-order:markers stroke fill"
       d="m 116.22767,54.577065 0.0847,9.723452 7.03666,1.47103 7.01262,-1.34869 -0.0848,-9.723346 z m 11.45094,0.821647 a 0.43681989,0.42927089 45 0 1 0.43673,0.436865 0.43681989,0.42927089 45 0 1 -0.42918,0.42918 0.43681989,0.42927089 45 0 1 -0.43687,-0.43674 0.43681989,0.42927089 45 0 1 0.42932,-0.429305 z m 1.42812,0.01245 a 0.43681989,0.42927089 45 0 1 0.43686,0.436855 0.43681989,0.42927089 45 0 1 -0.42931,0.42919 0.43681989,0.42927089 45 0 1 -0.43673,-0.43673 0.43681989,0.42927089 45 0 1 0.42918,-0.429315 z m -5.86931,0.07981 c 0.0529,-0.0109 0.16421,0.35959 0.71429,2.33383 l 0.61735,2.21568 -0.11865,0.0827 c -0.2428,0.16896 -0.42365,0.74014 -0.45105,1.42489 l -0.0109,0.27594 -0.6762,0.01 -0.6762,0.01 -0.002,-0.20871 c -0.007,-0.60374 -0.22995,-1.32704 -0.47517,-1.53789 l -0.12971,-0.1115 0.58856,-2.23067 c 0.32372,-1.2269 0.59823,-2.2423 0.60998,-2.25654 0.003,-0.004 0.006,-0.006 0.0101,-0.007 z m 5.88176,1.3483 a 0.43681989,0.42927089 45 0 1 0.43686,0.43687 0.43681989,0.42927089 45 0 1 -0.42931,0.42931 0.43681989,0.42927089 45 0 1 -0.43673,-0.43686 0.43681989,0.42927089 45 0 1 0.42918,-0.42932 z m -6.48019,5.3284 0.67648,0.0215 0.67646,0.0213 0.0202,0.4833 0.0202,0.48318 -0.69227,-0.006 -0.69228,-0.006 -0.004,-0.49845 z m -6.3201,2.8744 0.0181,2.07816 5.16779,-0.99389 z m 14.04927,0.12247 -5.16819,0.99401 5.18631,1.08428 z m -7.01248,1.34868 -7.01222,1.3487 0.007,0.76427 14.04927,0.12247 -0.007,-0.76415 z" /><path
       style="font-weight:900;font-size:36.6211px;line-height:1.5;font-family:'M+ 1p';-inkscape-font-specification:'M+ 1p Heavy';text-align:end;letter-spacing:-0.411988px;word-spacing:-0.274657px;text-anchor:end;fill:#ff2b16;fill-opacity:1;stroke-width:0.567764;stroke-linecap:square;stroke-linejoin:round;paint-order:markers stroke fill"
       d="m 89.806436,56.902865 q 3.8101,0.451783 7.605128,0.451783 v 2.409544 q -4.035987,0 -7.90632,-0.451783 z"
       id="path108" /><path
       style="font-weight:900;font-size:36.6211px;line-height:1.5;font-family:'M+ 1p';-inkscape-font-specification:'M+ 1p Heavy';text-align:end;letter-spacing:-0.411988px;word-spacing:-0.274657px;text-anchor:end;fill:#ff2b16;fill-opacity:1;stroke-width:0.567764;stroke-linecap:square;stroke-linejoin:round;paint-order:markers stroke fill"
       d="m 90.710012,62.550232 h 0.01509 q 2.138477,-1.280072 3.975746,-1.280072 2.379435,0 3.448674,0.918639 1.06923,0.903584 1.06923,2.846282 0,2.018002 -1.731856,3.192644 -1.716801,1.17466 -4.8944,1.17466 -1.912573,0 -3.840208,-0.225896 l 0.225887,-2.409544 q 1.987877,0.225888 3.614321,0.225888 1.581272,0 2.484848,-0.542143 0.903584,-0.557204 0.903584,-1.415609 0,-1.355368 -1.731856,-1.355368 -1.385493,0 -4.216712,1.581264 l -2.560144,-0.527088 q 0.421667,-2.454723 0.752984,-4.668496 l 2.786032,0.225896 q -0.09035,0.7831 -0.301192,2.258943 z"
       id="path107" /><path
       style="font-weight:900;font-size:36.6211px;line-height:1.5;font-family:'M+ 1p';-inkscape-font-specification:'M+ 1p Heavy';text-align:end;letter-spacing:-0.411988px;word-spacing:-0.274657px;text-anchor:end;fill:#ff2b16;fill-opacity:1;stroke-width:0.567772;stroke-linecap:square;stroke-linejoin:round;paint-order:markers stroke fill"
       d="m 90.852806,54.44353 -2.620429,0.632518 Q 87.283614,51.220718 85.9734,47.57623 l 2.620428,-0.662634 q 1.340331,3.810151 2.258978,7.529934 z"
       id="path106" /><path
       style="font-weight:900;font-size:36.6211px;line-height:1.5;font-family:'M+ 1p';-inkscape-font-specification:'M+ 1p Heavy';text-align:end;letter-spacing:-0.411988px;word-spacing:-0.274657px;text-anchor:end;fill:#ff2b16;fill-opacity:1;stroke-width:0.567772;stroke-linecap:square;stroke-linejoin:round;paint-order:markers stroke fill"
       d="m 82.419269,47.817189 q 0.843351,0 1.23491,0 0.391558,0 0.903592,0.105421 0.527098,0.09035 0.692761,0.150592 0.180709,0.06018 0.436738,0.391559 0.256013,0.331317 0.301192,0.572275 0.0451,0.240959 0.120475,0.918656 0.07527,0.662634 0.07527,1.18973 0,0.527088 0,1.641523 0,2.996925 -0.737939,4.292076 -0.722886,1.280081 -2.12345,1.280081 -0.632517,0 -1.641531,-0.180717 -1.008997,-0.180717 -1.67164,-0.421676 l 0.602401,-2.409577 q 1.596344,0.4518 2.108378,0.4518 0.602392,0 0.602392,-3.463779 0,-1.566227 -0.120467,-1.837311 -0.105421,-0.271075 -0.783126,-0.271075 h -1.174659 q -0.843351,3.900509 -2.439712,8.282935 l -2.334282,-0.752993 q 1.34034,-3.81015 2.16862,-7.529942 h -1.942715 v -2.409578 h 2.454757 q 0.210842,-1.054193 0.481926,-2.861378 l 2.484873,0.1506 q -0.105421,0.963826 -0.406621,2.710778 z"
       id="path105" /><path
       style="font-weight:900;font-size:36.6211px;line-height:1.5;font-family:'M+ 1p';-inkscape-font-specification:'M+ 1p Heavy';text-align:end;letter-spacing:-0.411988px;word-spacing:-0.274657px;text-anchor:end;fill:#ff2b16;fill-opacity:1;stroke-width:0.973582;stroke-linecap:square;stroke-linejoin:round;paint-order:markers stroke fill"
       d="m 65.269529,49.862324 h 3.615325 v -1.291193 h -3.615325 z m 0,18.463982 v -8.521834 h 1.910954 q -1.626895,-1.032959 -3.382907,-2.582378 h -1.704365 q -1.756018,1.549419 -3.382914,2.582378 h 2.040083 v 0.258234 q 0,3.821915 -1.70437,5.681231 -1.70437,1.859307 -6.171881,2.840611 L 51.06647,64.710986 q 3.253792,-0.90383 4.1318,-1.471953 0.903829,-0.56813 1.007119,-1.988436 -2.169193,1.110425 -4.493328,1.910953 l -1.549424,-4.131795 q 3.098852,-0.92965 5.113102,-1.807661 H 52.228538 V 44.955811 h 21.433707 v 12.266283 h -3.047201 q 2.014243,0.878011 5.113098,1.807661 l -1.549421,4.131795 q -2.246667,-0.774709 -4.002684,-1.652711 v 6.817467 z m 0,-15.623371 v 1.291194 h 3.615325 v -1.291194 z m -8.263595,0 v 1.291194 h 3.615318 v -1.291194 z m 0,-2.840611 h 3.615318 v -1.291193 h -3.615318 z"
       id="path104" /><path
       style="font-weight:900;font-size:36.6211px;line-height:1.5;font-family:'M+ 1p';-inkscape-font-specification:'M+ 1p Heavy';text-align:end;letter-spacing:-0.411988px;word-spacing:-0.274657px;text-anchor:end;fill:#ff2b16;fill-opacity:1;stroke-width:0.973582;stroke-linecap:square;stroke-linejoin:round;paint-order:markers stroke fill"
       d="m 39.34894,52.832056 v 4.519159 h 2.711494 v -4.519159 z m -4.519156,-4.002683 v -3.873562 h 4.519156 v 3.873562 h 2.711494 v -3.873562 h 4.648276 v 3.873562 h 3.098849 v 4.002683 H 46.70871 v 8.13448 H 34.829784 v -8.13448 H 32.634765 V 62.903317 H 48.774609 V 66.906 H 32.634765 v 1.549419 H 27.857371 V 52.832056 h -2.840612 v -4.002683 h 2.840612 v -3.873562 h 4.777394 v 3.873562 z"
       id="path103" /><path
       style="font-weight:900;font-size:36.6211px;line-height:1.5;font-family:'M+ 1p';-inkscape-font-specification:'M+ 1p Heavy';text-align:end;letter-spacing:-0.411988px;word-spacing:-0.274657px;text-anchor:end;fill:#ff2b16;fill-opacity:1;stroke-width:0.973582;stroke-linecap:square;stroke-linejoin:round;paint-order:markers stroke fill"
       d="m 14.203063,49.47497 h 3.615326 V 48.571131 H 14.203063 Z M 5.2422225,63.678034 H 1.0180786e-6 V 60.320948 H 4.648276 V 59.675351 H 0.90383211 V 56.576498 H 4.648276 V 55.93091 H 1.1620699 V 44.955811 H 22.595783 V 55.93091 h -3.486207 v 0.645588 h 3.744444 v 3.098853 h -3.744444 v 0.645597 h 4.648276 v 3.357086 h -4.674099 q 2.582374,0.903822 4.674099,1.936782 l -2.324139,3.357078 q -3.589501,-1.910954 -8.521837,-3.61532 l 0.903831,-1.67854 H 9.9679681 l 0.8780089,1.420298 q -3.2796171,2.272497 -8.9091946,3.74445 L 1.0180786e-6,65.356574 Q 2.6340231,64.65933 5.2422225,63.678034 Z M 14.203063,52.057347 v 0.903822 h 3.615326 v -0.903822 z m -8.2635998,0 v 0.903822 h 3.6153253 v -0.903822 z m 0,-2.582377 H 9.5547885 V 48.571131 H 5.9394632 Z m 3.4862069,7.101528 H 14.332182 V 55.93091 H 9.4256701 Z m 0,3.74445 H 14.332182 V 59.675351 H 9.4256701 Z"
       id="text1" /><text
       xml:space="preserve"
       style="font-style:normal;font-variant:normal;font-weight:bold;font-stretch:semi-condensed;font-size:15.6809px;line-height:1;font-family:xedixel;-inkscape-font-specification:'xedixel Bold Semi-Condensed';font-variant-ligatures:normal;font-variant-caps:normal;font-variant-numeric:normal;font-variant-east-asian:normal;text-align:start;letter-spacing:0px;word-spacing:-0.0735043px;writing-mode:lr-tb;direction:ltr;text-anchor:start;fill:#b3b3b3;fill-opacity:1;stroke:none;stroke-width:2.98092;stroke-linecap:round;stroke-linejoin:round;stroke-dasharray:none;paint-order:markers stroke fill"
       x="251.59773"
       y="389.00912"
       id="text114"><tspan
         sodipodi:role="line"
         id="tspan113"
         style="fill:#b3b3b3;stroke:none;stroke-width:2.98092"
         x="251.59773"
         y="389.00912" /><tspan
         sodipodi:role="line"
         style="fill:#b3b3b3;stroke:none;stroke-width:2.98092"
         x="251.59773"
         y="404.69003"
         id="tspan114" /></text><text
       xml:space="preserve"
       style="font-style:normal;font-variant:normal;font-weight:normal;font-stretch:normal;font-size:12.0249px;line-height:1.1;font-family:'Rounded M+ 1p';-inkscape-font-specification:'Rounded M+ 1p';text-align:start;writing-mode:lr-tb;direction:ltr;text-orientation:upright;text-anchor:start;fill:#000000;stroke-width:2.27241;paint-order:stroke markers fill"
       x="-1.4670347"
       y="10.052799"
       id="text4"><tspan
         sodipodi:role="line"
         id="tspan3"
         style="font-style:normal;font-variant:normal;font-weight:normal;font-stretch:normal;font-family:'Rounded M+ 1p';-inkscape-font-specification:'Rounded M+ 1p';text-align:start;writing-mode:lr-tb;text-anchor:start;fill:#000000;stroke-width:2.27241"
         x="-1.4670347"
         y="10.052799">アイル共和国のゲームを販売！</tspan></text><text
       xml:space="preserve"
       style="font-style:normal;font-variant:normal;font-weight:normal;font-stretch:normal;font-size:5.84151px;line-height:1.3;font-family:'Rounded M+ 1p';-inkscape-font-specification:'Rounded M+ 1p';text-align:start;writing-mode:lr-tb;direction:ltr;text-orientation:upright;text-anchor:start;fill:#ff7162;fill-opacity:1;stroke:none;stroke-width:8.5304;stroke-linecap:butt;stroke-linejoin:miter;stroke-dasharray:none;paint-order:stroke markers fill"
       x="134.84216"
       y="50.028519"
       id="text5"><tspan
         sodipodi:role="line"
         style="line-height:1.3;fill:#ff7162;fill-opacity:1;stroke:none;stroke-width:8.53042"
         x="134.84216"
         y="50.028519"
         id="tspan6">過去作ふくめいろいろ</tspan><tspan
         sodipodi:role="line"
         style="line-height:1.3;fill:#ff7162;fill-opacity:1;stroke:none;stroke-width:8.53042"
         x="134.84216"
         y="57.622482"
         id="tspan10">出します！万博気分で</tspan><tspan
         sodipodi:role="line"
         style="line-height:1.3;fill:#ff7162;fill-opacity:1;stroke:none;stroke-width:8.53042"
         x="134.84216"
         y="65.216446"
         id="tspan12">遊びに来てね！</tspan><tspan
         sodipodi:role="line"
         style="line-height:1.3;fill:#ff7162;fill-opacity:1;stroke:none;stroke-width:8.53042"
         x="134.84216"
         y="72.81041"
         id="tspan11" /></text></g></svg>
