<?xml version="1.0" encoding="UTF-8" standalone="no"?>
<!-- Created with Inkscape (http://www.inkscape.org/) -->

<svg
   width="600"
   height="600"
   viewBox="0 0 158.75 158.75"
   version="1.1"
   id="svg1"
   inkscape:version="1.3.2 (091e20e, 2023-11-25, custom)"
   sodipodi:docname="logo.svg"
   xmlns:inkscape="http://www.inkscape.org/namespaces/inkscape"
   xmlns:sodipodi="http://sodipodi.sourceforge.net/DTD/sodipodi-0.dtd"
   xmlns="http://www.w3.org/2000/svg"
   xmlns:svg="http://www.w3.org/2000/svg">
  <sodipodi:namedview
     id="namedview1"
     pagecolor="#ffffff"
     bordercolor="#000000"
     borderopacity="0.25"
     inkscape:showpageshadow="2"
     inkscape:pageopacity="0.0"
     inkscape:pagecheckerboard="0"
     inkscape:deskcolor="#d1d1d1"
     inkscape:document-units="mm"
     inkscape:zoom="0.36213173"
     inkscape:cx="-48.324956"
     inkscape:cy="722.11291"
     inkscape:window-width="1920"
     inkscape:window-height="1009"
     inkscape:window-x="-8"
     inkscape:window-y="-8"
     inkscape:window-maximized="1"
     inkscape:current-layer="layer1" />
  <defs
     id="defs1" />
  <g
     inkscape:label="Layer 1"
     inkscape:groupmode="layer"
     id="layer1">
    <path
       id="path219"
       d="m 84.807374,140.18683 -0.32263,1.0186 h 0.02277 z m 0.599181,-2.535 c -0.18436,0.92182 -0.299596,1.63392 -0.599181,2.535 0.276551,-0.90108 0.437866,-1.61318 0.599181,-2.535 M 51.576019,123.34532 c -1.083126,0.36386 -2.097106,0.42174 -3.249356,0.26988 1.15225,0.15186 2.189275,0.0946 3.249356,-0.26988 m 5.139058,-3.36005 c -2.120152,1.786 -3.664178,2.85996 -5.139058,3.36005 1.47488,-0.50026 3.018906,-1.57405 5.139058,-3.36005 m 1.889701,-1.26747 c -0.322608,0.0343 -0.55308,0.17305 -1.01398,0.55526 0.69135,-0.55526 0.9218,-0.55526 1.61315,-0.55526 -0.230472,0 -0.437844,-0.0172 -0.59917,0 m 44.339252,-2.24695 c -0.25349,0.53694 -0.55308,1.01633 -0.87571,1.5164 0.32263,-0.47962 0.62222,-0.99787 0.87571,-1.5164 m 31.80257,-15.69151 c 0.18436,0 0.32263,0.0402 0.32263,0.0968 0,0 0.0228,-0.0172 0,-0.0172 0,-0.0402 -0.13797,-0.0402 -0.32263,-0.0579 z m -1.03718,0 c -0.82963,0.0172 -2.00493,0.0968 -3.24937,0.0968 1.86666,-0.0401 3.50286,-0.15414 4.21741,-0.0968 -0.2074,-0.0172 -0.55308,-0.0172 -0.96804,0 m -25.46501,-1.343566 c 0.43786,0.26989 1.15225,0.748996 1.68229,1.113096 l 0.89877,0.59686 -0.89877,-0.61525 c -0.48395,-0.38508 -1.24443,-0.825046 -1.68229,-1.094706 m -89.024036,1.285976 c -0.161306,0.0401 -0.276541,0.11518 -0.368741,0.17306 0.09249,-0.0579 0.207435,-0.11518 0.368741,-0.17306 m 6.268424,-1.862096 c -2.004925,0.7098 -3.756504,1.249076 -4.931805,1.555586 -0.57613,0.0968 -1.037031,0.21201 -1.313572,0.3272 0.322613,-0.0573 0.714395,-0.17306 1.313572,-0.26933 1.152253,-0.28823 2.949922,-0.882626 4.931805,-1.573976 z m 81.949032,-0.0172 -1.01398,4.551466 c -0.53004,2.63179 -0.9679,4.6851 -1.35967,6.35587 0.39177,-1.67077 0.85268,-3.76327 1.40576,-6.37431 z m -74.182832,-3.15025 -1.520978,0.6729 c -2.051012,0.90337 -4.263344,1.786 -6.245222,2.4958 2.004926,-0.7098 4.19421,-1.55553 6.245222,-2.47735 l 1.520978,-0.67061 z m 24.24362,-2.246941 0.622215,2.804601 h 0.04521 z m -1.520981,-6.777618 c 0.530046,2.131702 1.198351,5.185182 1.520981,6.777618 -0.322619,-1.592437 -0.990946,-4.645917 -1.520981,-6.777618 M 83.470764,75.988466 c 0.04554,0.01716 1.129205,0.806586 2.373646,1.806739 l 2.281466,1.78606 -0.04554,1.650022 c -0.161315,3.341591 -0.875721,10.52479 -1.290531,14.115247 l -0.23045,1.57633 -1.405756,0.28824 v 0.0172 c -0.806575,0.20972 -1.56706,0.26702 -1.79751,0.26702 h -0.437866 l 0.09251,-4.857985 c 0,-2.689368 0.18436,-7.565746 0.230461,-10.812847 0,-3.244747 0.161315,-5.855785 0.23045,-5.837393 z m -62.153283,-0.03443 c -1.198347,0.652223 -2.972819,1.555587 -3.986809,2.150159 -1.013982,0.576125 -2.051013,1.076197 -2.258419,1.249029 l -0.437847,0.209726 v 0.01716 l 0.437847,-0.209726 c 0.207377,-0.115169 1.198348,-0.633698 2.212331,-1.230571 1.013983,-0.576169 2.811502,-1.53484 3.986803,-2.189352 z M 138.59513,75.007761 c 0.16132,2.382865 0.20741,3.399176 0.0697,3.668788 0.13796,-0.230362 0.13796,-1.20988 -0.0697,-3.668788 m -0.7144,3.687233 v 0.01716 c 0.23046,0 0.55309,0.01716 0.64527,0.04015 -0.11523,-0.01716 -0.36873,-0.05731 -0.64527,-0.05731 z m -16.0626,-4.857984 c 1.17531,0.479622 2.28148,0.921833 3.34155,1.306734 4.14812,1.55552 9.4256,2.975138 12.67496,3.359984 l 0.0455,0.212014 -0.0228,-0.212014 c -3.2724,-0.385079 -8.54989,-1.804464 -12.72105,-3.359984 -1.03704,-0.36674 -2.16624,-0.806598 -3.31851,-1.288276 z M 63.029594,68.843108 c 0.230472,0.269897 0.806575,3.938451 1.129205,6.510296 0.553091,4.609067 0.668316,7.222403 0.668316,15.613193 v 8.508367 l -1.889701,0.0573 -0.184338,0.0579 c -1.060081,0.17305 -3.157341,0.17305 -4.701367,0.21201 -2.534962,0.0579 -2.811502,0 -2.857592,-0.21201 0,-0.15414 -0.207438,-1.4219 -0.55308,-2.78387 -0.622226,-2.901422 -2.120151,-9.506208 -2.903692,-12.886938 l -0.59917,-2.304522 0.898766,-0.749001 c 2.650186,-2.286087 6.913534,-6.989631 9.656054,-10.640025 0.898755,-1.113046 1.267486,-1.440296 1.336621,-1.382711 z M 15.924925,67.672421 c -0.599178,3.014342 -1.013989,6.088556 -1.083125,9.084439 0.115234,-2.995883 0.507012,-6.070097 1.083125,-9.084439 m 18.689739,-0.594572 c -1.267484,1.15224 -2.765414,2.419771 -3.479815,2.975149 -0.391776,0.327195 -0.783535,0.596915 -1.129211,0.827332 0.322612,-0.230362 0.737446,-0.500258 1.129211,-0.788138 0.714401,-0.557558 2.212331,-1.862102 3.479815,-3.014341 m 58.37373,-8.52676 0.806577,0.382778 c 9.172109,5.818944 19.841999,11.428153 28.000109,14.845787 -8.15811,-3.417634 -18.80496,-9.045301 -28.000109,-14.882637 z M 33.231958,35.505781 c -1.797519,1.804451 -3.871581,4.108983 -4.032898,4.397041 0.161306,-0.288233 2.281466,-2.59259 4.032898,-4.397041 0,0.01716 -0.02292,0 -0.02292,0 z m 69.297262,-6.203792 -1.3827,0.749001 1.3827,-0.730543 1.8897,1.209879 c 1.01398,0.672902 7.02876,4.609067 13.36632,8.777923 v -0.04015 C 111.44768,35.120945 105.4329,31.164046 104.41892,30.491143 Z M 78.746517,18.74036 c 1.79751,1.228271 3.134131,2.283787 4.148122,3.244748 -1.013991,-0.960961 -2.350612,-2.016477 -4.148122,-3.244748 m -1.705496,-1.17304 v 0.01716 l 2.604251,0.04015 z m -9.425449,-0.785851 c -0.875711,0 -3.041952,0.03443 -8.734254,0.670615 -3.986797,0.424038 -11.038611,1.152293 -11.246016,1.209879 -0.06974,0.01716 0.59917,0.961026 1.382711,1.958891 4.355527,5.493973 6.775263,9.602957 7.766199,13.423885 0.437844,1.691514 0.668316,4.878665 0.437844,6.434197 l -0.115236,0.90343 -1.129205,0.05731 c -7.259209,0.78584 -28.069102,1.919687 -43.232939,2.304522 -3.3415437,0.173053 -6.1069587,0.230363 -6.1300047,0.230363 -0.02292,0.03432 4.4016207,3.32079 20.2798527,15.016321 l 3.802444,2.786157 7.167035,-0.730554 c 3.963914,-0.500247 7.282406,-0.788128 7.489811,-0.767393 0.391776,0.05731 -1.820567,2.553397 -5.438798,6.279833 -3.710262,3.763277 -8.204059,7.547354 -8.987595,7.547354 -0.230471,0 -0.553083,0.324907 -0.875712,0.613019 -0.622219,0.63371 -2.189291,1.537085 -6.959629,4.053633 -1.889851,0.979407 -4.4709,2.380565 -5.692295,3.111119 -1.244437,0.749 -2.696279,1.613172 -3.272402,1.901239 -1.497937,0.767448 -2.419738,1.419605 -3.525903,2.611037 -3.1802257,3.302398 -3.8024437,6.586339 -1.6592477,8.487578 1.3366117,1.1523 3.8715787,2.07412 7.1670277,2.34372 1.497931,0.15414 1.958838,0.15414 3.15718,-0.0579 2.788461,-0.59457 7.558949,-2.30454 13.089776,-4.83953 2.143196,-0.961026 2.788461,-1.228337 2.903684,-1.018611 0.276542,0.500247 1.774479,4.475371 2.120155,5.973321 0.414812,1.97733 0.622218,5.051546 0.322612,6.355916 -0.115235,0.48134 -0.576129,1.53714 -0.898759,2.28608 -1.106166,2.49581 -1.106166,4.33945 -0.09249,6.52875 0.990942,2.05561 3.410679,4.14812 6.591058,5.76129 1.336621,0.67296 4.009853,1.67083 5.415598,1.94044 1.636206,0.38277 2.788467,-0.21202 6.406554,-3.26555 l 1.866646,-1.55553 3.456926,-0.0401 3.502851,-0.0579 -0.115236,1.00016 c -0.115236,0.57611 -0.207372,2.59259 -0.437844,4.51228 -0.368742,4.14817 -0.368742,4.78187 -0.04532,6.06786 0.368742,1.4403 1.544015,3.80247 2.719321,5.358 2.558007,3.43837 7.881424,7.91375 11.453421,9.62142 l 0.04554,-0.17305 c 0.553081,0.11518 1.26763,0.38507 1.475035,0.38507 0.714406,0 1.682296,-0.99786 2.235376,-2.38057 1.013991,-2.36218 1.083126,-3.18951 1.129216,-10.73681 0.115225,-3.76334 0.161315,-8.62126 0.23045,-10.73451 l 0.115225,-3.86007 0.55308,-0.0579 c 0.32263,0 1.060081,-0.0579 1.497936,-0.0579 0.82962,0 0.9218,0.11518 2.097106,1.01861 3.295447,2.72622 7.236164,3.83932 9.586764,3.09038 1.15241,-0.38278 2.23553,-1.41961 3.22647,-3.03279 0.668309,-1.11539 0.875719,-1.78601 1.451839,-3.99604 0.64526,-2.66869 2.3506,-10.50404 3.36458,-15.534846 0.34569,-1.461096 0.62223,-2.747018 0.69137,-2.804614 0.0455,-0.05731 1.10616,0.652157 2.30451,1.537144 1.24443,0.95867 2.74236,2.07406 3.31849,2.4566 l 1.12921,0.74895 h 2.44279 c 5.34661,0 19.88823,-0.61296 26.27173,-0.90102 6.22218,-0.36674 11.0847,-1.01861 11.40733,-1.28828 0.2074,-0.20972 -0.50699,-2.571841 -1.49794,-5.145984 -1.70533,-4.339457 -3.7333,-7.738633 -4.93165,-8.335493 -0.48395,-0.267025 -0.9218,-0.267025 -2.8115,-0.209726 -11.43053,0.479622 -28.48406,-6.30057 -51.11452,-20.452719 -3.433728,-2.152392 -8.342335,-5.436332 -8.296245,-5.493983 0.02277,-0.01716 10.324216,-1.20988 22.837865,-2.629485 12.5367,-1.421904 22.79177,-2.631728 22.81481,-2.650186 0.0228,-0.01716 -5.89954,-3.97529 -13.2279,-8.777979 l -13.29717,-8.718039 -1.6823,0.672958 c -2.949769,1.152228 -6.890639,2.265329 -11.983606,3.263194 -3.272413,0.691361 -9.609821,1.767557 -9.655911,1.709961 0,-0.01716 0.437866,-1.421904 1.013991,-3.092661 1.175295,-3.590456 1.843611,-6.625543 1.843611,-8.54523 V 25.727605 L 81.120031,24.708994 C 78.170106,21.637067 70.403907,17.028012 67.61544,16.739955 Z"
       style="clip-rule:evenodd;fill:#231f20;fill-rule:nonzero;stroke-width:0.264583;stroke-miterlimit:10" />
    <path
       id="path222"
       d="m 107.43783,98.834324 -0.96789,4.533016 c -2.23538,10.50405 -2.78846,12.19326 -4.53989,14.84345 -2.327549,3.47756 -6.314519,4.68745 -10.831357,3.2079 -1.313565,-0.42174 -3.733302,-1.47949 -4.539888,-2.07406 -0.207405,-0.17306 -0.4609,-0.2699 -0.55308,-0.21202 0,0.0401 -0.161315,4.07214 -0.207405,8.91161 -0.115225,9.29416 -0.23045,9.73665 -0.990946,12.15642 l -0.32263,0.99786 0.990946,-0.0344 c 4.539888,-0.55754 11.153841,-2.38285 15.92433,-4.45698 7.42052,-3.22629 13.27398,-7.23849 19.15063,-13.07817 4.33249,-4.32101 7.67403,-8.7365 10.48554,-13.788 1.49793,-2.70782 4.28654,-8.75723 4.03304,-8.96926 -0.0455,-0.15184 -2.09725,-0.0172 -4.60917,0.0402 -2.53497,0.15415 -7.99666,0.21202 -12.12174,0.21202 l -7.5359,0.0172 -0.87571,-0.59692 c -0.507,-0.36387 -1.24444,-0.843426 -1.70534,-1.113036 z m -74.182832,-3.12957 -1.520978,0.67061 c -4.102025,1.84365 -8.826276,3.45683 -11.200074,4.053686 -2.373649,0.55527 -2.143196,0.23036 -1.267484,2.535 1.106166,2.72622 3.22647,6.91359 4.83963,9.44854 9.678948,15.47726 25.119326,25.65635 43.32512,28.55544 l 0.02277,0.0579 c 1.037025,0.0579 2.143196,0.26989 2.465826,0.26989 0.576125,0.0172 0.530035,-0.0401 -0.898755,-1.22833 -1.935791,-1.63392 -4.724259,-4.57216 -5.899554,-6.22224 -1.935791,-2.68938 -3.088052,-5.26351 -3.295457,-7.68328 -0.115236,-1.17068 0.02288,-4.56986 0.322619,-6.77762 l 0.04532,-0.67295 h -0.968055 c -0.990935,0 -1.01398,0.0172 -2.511905,1.26753 -4.263359,3.572 -6.245229,4.24491 -9.655911,3.34153 -6.406691,-1.72835 -11.43053,-5.18518 -13.36632,-9.14202 -1.68229,-3.34159 -1.68229,-6.01023 -0.115235,-9.50625 0.437847,-1.09464 0.7144,-1.91963 0.783535,-2.59259 0.115236,-1.18913 -0.207434,-3.532796 -0.783535,-5.222016 z m 27.6314,-18.936321 -1.428944,1.555588 c -0.783541,0.864181 -2.120162,2.246882 -2.903692,2.977436 l -1.497937,1.401158 0.898767,3.956843 c 0.55308,2.131712 1.19834,5.185236 1.52097,6.777673 l 0.668316,2.843743 h 0.898755 c 0.437855,0 1.31373,-0.0401 1.751585,-0.0573 l 0.87571,-0.0579 -0.115236,-6.530987 C 61.439456,83.700535 61.32422,80.11008 60.978567,77.690312 Z M 18.736427,57.507146 18.528992,58.177817 c -0.391777,0.960959 -1.520978,4.608999 -1.981879,6.473389 -0.921806,3.975302 -1.590113,8.102733 -1.705342,12.09878 l -0.207378,2.823052 0.414813,-0.230351 c 0.230471,-0.154143 1.244436,-0.654445 2.258425,-1.23057 1.037031,-0.594628 2.788455,-1.497938 4.00985,-2.168607 3.641276,-1.90124 6.107108,-3.265493 6.245378,-3.495965 0.207377,-0.269896 1.267477,-1.113101 1.705336,-1.170686 0.207378,-0.05731 1.060078,-0.59686 1.866654,-1.209879 1.451843,-1.1154 5.876505,-5.109149 5.761282,-5.185182 -0.04527,-0.05786 -1.682295,0.05731 -3.710268,0.288233 L 29.567784,65.5339 24.129132,61.540153 Z M 132.97197,54.050384 c -0.39177,0 -38.416509,4.378584 -39.315269,4.436235 l -0.668307,0.05731 0.783527,0.382789 c 10.531779,6.664723 22.930199,13.078175 31.387759,16.21004 4.14812,1.534841 9.44865,2.956745 12.698,3.341591 l 0.0228,0.209726 c 0.27655,0 0.55309,0.04015 0.66832,0.05731 0.25349,0.04015 0.25349,-0.864171 0.0455,-3.744829 -0.55308,-6.528742 -2.18929,-13.384745 -4.60902,-19.14604 -0.57628,-1.421904 -0.7376,-1.804451 -1.01415,-1.804451 z M 47.612257,24.76209 l -0.87571,0.59686 c -4.516843,2.553452 -7.904626,4.991613 -11.914477,8.602815 -1.751431,1.574045 -5.415604,5.570081 -5.62301,5.934181 0.04527,0.05786 0.668306,0.173052 1.981878,0.05786 5.991734,-0.385066 13.988538,-0.825033 17.837075,-1.133836 2.373646,-0.209726 4.447707,-0.267036 4.562932,-0.267036 0.161304,0 0.207372,-0.154143 0.115236,-1.133836 -0.184338,-1.689226 -0.806575,-3.763277 -1.797521,-5.818946 -0.82962,-1.728419 -2.719321,-4.724302 -3.848526,-6.164653 z m 29.428764,-7.1809 1.705496,1.152294 c 4.747292,3.28394 6.452633,5.242766 6.660038,7.777761 0.115225,1.246729 -0.32263,4.06979 -0.898766,6.431908 -0.207405,0.94257 -0.36872,1.652378 -0.32263,1.69157 0.115225,0.173052 6.060869,-1.133837 9.033685,-1.882837 3.848687,-0.979418 6.268427,-1.804452 7.950726,-2.707771 l 1.35965,-0.749001 1.8897,1.209879 c 1.03704,0.672903 7.02876,4.609067 13.36632,8.775636 l 0.0228,-0.05731 c 6.31437,4.168868 11.52256,7.568045 11.56865,7.568045 l 0.0228,-0.01716 c -0.11523,-0.442376 -2.55801,-3.880867 -4.21726,-5.991822 -2.00492,-2.53495 -7.00571,-7.604949 -9.54067,-9.602968 C 105.29408,22.9407 92.457809,17.985991 79.644722,17.621891 Z"
       style="clip-rule:evenodd;fill:#ff1a00;fill-rule:nonzero;stroke-width:0.264583;stroke-miterlimit:10" />
  </g>
</svg>
