999
"DXF R12 Output" (www.mydxf.blogspot.com)
 0 
SECTION
 2 
HEADER
 9 
$ACADVER
 1 
AC1009
 9 
$EXTMIN
 10 
 0 
 20 
 0 
 9 
$EXTMAX
 10 
 8.5 
 20 
 11 
 0 
ENDSEC
 0 
SECTION
 2 
ENTITIES
0
LINE
8
Layer 1
10
33.035739
20
185.594510
11
33.035739
21
198.594510
0
LINE
8
Layer 1
10
30.035749
20
193.194510
11
30.035749
21
194.294500
0
LINE
8
Layer 1
10
30.035749
20
194.294500
11
26.108949
21
194.294500
0
LINE
8
Layer 1
10
33.035739
20
190.194510
11
31.868011
21
190.430265
0
LINE
8
Layer 1
10
31.868011
20
190.430265
11
30.914429
21
191.073191
0
LINE
8
Layer 1
10
30.914429
20
191.073191
11
30.271504
21
192.026776
0
LINE
8
Layer 1
10
30.271504
20
192.026776
11
30.035749
21
193.194510
0
LINE
8
Layer 1
10
21.035767
20
185.194510
11
21.035767
21
193.194510
0
LINE
8
Layer 1
10
21.035767
20
193.194510
11
23.035767
21
195.194510
0
LINE
8
Layer 1
10
23.035767
20
195.194510
11
24.057119
21
194.734900
0
LINE
8
Layer 1
10
24.057119
20
194.734900
11
25.059668
21
194.405841
0
LINE
8
Layer 1
10
25.059668
20
194.405841
11
26.108949
21
194.294500
0
LINE
8
Layer 1
10
61.035739
20
185.194510
11
61.035739
21
185.594510
0
LINE
8
Layer 1
10
61.035739
20
185.594510
11
61.035739
21
198.594510
0
LINE
8
Layer 1
10
61.035739
20
198.594510
11
56.327409
21
198.594510
0
LINE
8
Layer 1
10
56.327409
20
198.594510
11
56.327409
21
196.594510
0
LINE
8
Layer 1
10
33.035739
20
198.594510
11
37.744069
21
198.594510
0
LINE
8
Layer 1
10
37.744069
20
198.594510
11
37.744069
21
196.594510
0
LINE
8
Layer 1
10
33.035739
20
185.594510
11
33.035739
21
185.194510
0
LINE
8
Layer 1
10
60.335739
20
198.594510
11
60.335739
21
201.094510
0
LINE
8
Layer 1
10
33.735729
20
198.594510
11
33.735729
21
201.094510
0
LINE
8
Layer 1
10
47.835739
20
213.594500
11
46.235739
21
213.594500
0
LINE
8
Layer 1
10
60.335739
20
201.094510
11
60.081783
21
203.613696
0
LINE
8
Layer 1
10
60.081783
20
203.613696
11
59.353427
21
205.960073
0
LINE
8
Layer 1
10
59.353427
20
205.960073
11
58.200935
21
208.083376
0
LINE
8
Layer 1
10
58.200935
20
208.083376
11
56.674574
21
209.933340
0
LINE
8
Layer 1
10
56.674574
20
209.933340
11
54.824608
21
211.459700
0
LINE
8
Layer 1
10
54.824608
20
211.459700
11
52.701303
21
212.612190
0
LINE
8
Layer 1
10
52.701303
20
212.612190
11
50.354925
21
213.340545
0
LINE
8
Layer 1
10
50.354925
20
213.340545
11
47.835739
21
213.594500
0
LINE
8
Layer 1
10
46.235739
20
213.594500
11
43.716552
21
213.340545
0
LINE
8
Layer 1
10
43.716552
20
213.340545
11
41.370173
21
212.612190
0
LINE
8
Layer 1
10
41.370173
20
212.612190
11
39.246867
21
211.459700
0
LINE
8
Layer 1
10
39.246867
20
211.459700
11
37.396899
21
209.933340
0
LINE
8
Layer 1
10
37.396899
20
209.933340
11
35.870536
21
208.083376
0
LINE
8
Layer 1
10
35.870536
20
208.083376
11
34.718042
21
205.960073
0
LINE
8
Layer 1
10
34.718042
20
205.960073
11
33.989685
21
203.613696
0
LINE
8
Layer 1
10
33.989685
20
203.613696
11
33.735729
21
201.094510
0
LINE
8
Layer 1
10
21.035767
20
185.194510
11
21.035767
21
114.244540
0
LINE
8
Layer 1
10
102.035750
20
114.644540
11
113.448250
21
119.644540
0
LINE
8
Layer 1
10
73.035739
20
185.194510
11
73.035739
21
193.194510
0
LINE
8
Layer 1
10
73.035739
20
193.194510
11
71.035739
21
195.194510
0
LINE
8
Layer 1
10
71.035739
20
195.194510
11
70.014389
21
194.734900
0
LINE
8
Layer 1
10
61.035739
20
190.194510
11
61.035739
21
190.194510
0
LINE
8
Layer 1
10
64.035739
20
193.194510
11
64.035739
21
194.294510
0
LINE
8
Layer 1
10
64.035739
20
194.294510
11
67.962569
21
194.294510
0
LINE
8
Layer 1
10
70.014389
20
194.734900
11
69.011842
21
194.405846
0
LINE
8
Layer 1
10
69.011842
20
194.405846
11
67.962569
21
194.294510
0
LINE
8
Layer 1
10
61.035739
20
190.194510
11
62.203473
21
190.430265
0
LINE
8
Layer 1
10
62.203473
20
190.430265
11
63.157058
21
191.073191
0
LINE
8
Layer 1
10
63.157058
20
191.073191
11
63.799984
21
192.026776
0
LINE
8
Layer 1
10
63.799984
20
192.026776
11
64.035739
21
193.194510
0
LINE
8
Layer 1
10
74.035739
20
185.194510
11
102.035750
21
185.194510
0
LINE
8
Layer 1
10
61.035739
20
114.644540
11
61.035739
21
114.244540
0
LINE
8
Layer 1
10
61.035739
20
114.244540
11
61.035739
21
101.244540
0
LINE
8
Layer 1
10
61.035739
20
101.244540
11
56.327409
21
101.244540
0
LINE
8
Layer 1
10
56.327409
20
101.244540
11
56.327409
21
103.244540
0
LINE
8
Layer 1
10
33.035739
20
114.244540
11
33.035739
21
114.644540
0
LINE
8
Layer 1
10
60.335739
20
101.244540
11
60.335739
21
98.744540
0
LINE
8
Layer 1
10
60.335739
20
98.744540
11
60.081783
21
96.225351
0
LINE
8
Layer 1
10
60.081783
20
96.225351
11
59.353427
21
93.878971
0
LINE
8
Layer 1
10
59.353427
20
93.878971
11
58.200935
21
91.755666
0
LINE
8
Layer 1
10
58.200935
20
91.755666
11
56.674574
21
89.905701
0
LINE
8
Layer 1
10
56.674574
20
89.905701
11
54.824608
21
88.379341
0
LINE
8
Layer 1
10
54.824608
20
88.379341
11
52.701303
21
87.226850
0
LINE
8
Layer 1
10
52.701303
20
87.226850
11
50.354925
21
86.498495
0
LINE
8
Layer 1
10
50.354925
20
86.498495
11
47.835739
21
86.244540
0
LINE
8
Layer 1
10
47.835739
20
86.244540
11
46.235739
21
86.244540
0
LINE
8
Layer 1
10
46.235739
20
86.244540
11
43.716552
21
86.498495
0
LINE
8
Layer 1
10
43.716552
20
86.498495
11
41.370173
21
87.226850
0
LINE
8
Layer 1
10
41.370173
20
87.226850
11
39.246867
21
88.379341
0
LINE
8
Layer 1
10
39.246867
20
88.379341
11
37.396899
21
89.905701
0
LINE
8
Layer 1
10
37.396899
20
89.905701
11
35.870536
21
91.755666
0
LINE
8
Layer 1
10
35.870536
20
91.755666
11
34.718042
21
93.878971
0
LINE
8
Layer 1
10
34.718042
20
93.878971
11
33.989685
21
96.225351
0
LINE
8
Layer 1
10
33.989685
20
96.225351
11
33.735729
21
98.744540
0
LINE
8
Layer 1
10
73.035739
20
114.644540
11
73.035739
21
106.644540
0
LINE
8
Layer 1
10
73.035739
20
106.644540
11
71.035739
21
104.644540
0
LINE
8
Layer 1
10
71.035739
20
104.644540
11
70.014389
21
105.104150
0
LINE
8
Layer 1
10
61.035739
20
109.644540
11
61.035739
21
109.644540
0
LINE
8
Layer 1
10
64.035739
20
106.644540
11
64.035739
21
105.544540
0
LINE
8
Layer 1
10
64.035739
20
105.544540
11
67.962569
21
105.544540
0
LINE
8
Layer 1
10
70.014389
20
105.104150
11
69.011842
21
105.433204
0
LINE
8
Layer 1
10
69.011842
20
105.433204
11
67.962569
21
105.544540
0
LINE
8
Layer 1
10
61.035739
20
109.644540
11
62.203473
21
109.408786
0
LINE
8
Layer 1
10
62.203473
20
109.408786
11
63.157058
21
108.765862
0
LINE
8
Layer 1
10
63.157058
20
108.765862
11
63.799984
21
107.812278
0
LINE
8
Layer 1
10
63.799984
20
107.812278
11
64.035739
21
106.644540
0
LINE
8
Layer 1
10
74.035739
20
114.644540
11
102.035750
21
114.644540
0
LINE
8
Layer 1
10
74.035739
20
114.644540
11
73.035739
21
114.644540
0
LINE
8
Layer 1
10
33.035739
20
114.244540
11
33.035739
21
101.244540
0
LINE
8
Layer 1
10
33.035739
20
101.244540
11
37.744069
21
101.244540
0
LINE
8
Layer 1
10
37.744069
20
101.244540
11
37.744069
21
103.244540
0
LINE
8
Layer 1
10
33.735729
20
101.244540
11
33.735729
21
98.744540
0
LINE
8
Layer 1
10
21.035767
20
114.644540
11
21.035767
21
106.644540
0
LINE
8
Layer 1
10
21.035767
20
106.644540
11
23.035767
21
104.644540
0
LINE
8
Layer 1
10
23.035767
20
104.644540
11
24.057119
21
105.104150
0
LINE
8
Layer 1
10
24.057119
20
105.104150
11
25.059668
21
105.433204
0
LINE
8
Layer 1
10
25.059668
20
105.433204
11
26.108949
21
105.544540
0
LINE
8
Layer 1
10
30.035749
20
106.644540
11
30.035749
21
105.544540
0
LINE
8
Layer 1
10
30.035749
20
105.544540
11
26.108949
21
105.544540
0
LINE
8
Layer 1
10
33.035739
20
109.644540
11
31.868011
21
109.408786
0
LINE
8
Layer 1
10
31.868011
20
109.408786
11
30.914429
21
108.765862
0
LINE
8
Layer 1
10
30.914429
20
108.765862
11
30.271504
21
107.812278
0
LINE
8
Layer 1
10
30.271504
20
107.812278
11
30.035749
21
106.644540
0
LINE
8
Layer 1
10
74.035739
20
185.194510
11
73.035739
21
185.194510
0
LINE
8
Layer 1
10
102.035750
20
185.194510
11
113.448250
21
180.194510
0
LINE
8
Layer 1
10
113.448250
20
180.194510
11
113.448250
21
119.644540
0
LINE
8
Layer 1
10
113.448250
20
119.644540
11
113.448250
21
119.644540
0
LINE
8
Layer 1
10
113.448250
20
119.644540
11
113.448250
21
119.644540
0
LINE
8
Layer 1
10
113.448250
20
119.644540
11
113.448250
21
119.644540
0
LINE
8
Layer 1
10
113.448250
20
119.644540
11
113.448250
21
119.644540
0
LINE
8
Layer 1
10
113.448250
20
119.644540
11
113.448250
21
119.644540
0
LINE
8
Layer 1
10
113.448250
20
119.644540
11
113.448250
21
119.644540
0
LINE
8
Layer 1
10
113.448250
20
119.644540
11
113.448250
21
119.644540
0
LINE
8
Layer 1
10
113.448250
20
119.644540
11
113.448250
21
119.644540
0
LINE
8
Layer 1
10
-0.000000
20
297.000000
11
210.000000
21
297.000000
0
LINE
8
Layer 1
10
210.000000
20
297.000000
11
210.000000
21
-0.000000
0
LINE
8
Layer 1
10
210.000000
20
-0.000000
11
-0.000000
21
-0.000000
0
LINE
8
Layer 1
10
-0.000000
20
-0.000000
11
-0.000000
21
297.000000
0
LINE
8
Layer 1
10
178.183400
20
254.009010
11
178.183400
21
267.009010
0
LINE
8
Layer 1
10
181.183390
20
261.609010
11
181.183390
21
262.709010
0
LINE
8
Layer 1
10
181.183390
20
262.709010
11
185.110190
21
262.709010
0
LINE
8
Layer 1
10
178.183400
20
258.609010
11
179.351128
21
258.844765
0
LINE
8
Layer 1
10
179.351128
20
258.844765
11
180.304710
21
259.487691
0
LINE
8
Layer 1
10
180.304710
20
259.487691
11
180.947635
21
260.441276
0
LINE
8
Layer 1
10
180.947635
20
260.441276
11
181.183390
21
261.609010
0
LINE
8
Layer 1
10
190.183370
20
253.609010
11
190.183370
21
261.609010
0
LINE
8
Layer 1
10
190.183370
20
261.609010
11
188.183370
21
263.609010
0
LINE
8
Layer 1
10
188.183370
20
263.609010
11
187.162020
21
263.149400
0
LINE
8
Layer 1
10
187.162020
20
263.149400
11
186.159471
21
262.820346
0
LINE
8
Layer 1
10
186.159471
20
262.820346
11
185.110190
21
262.709010
0
LINE
8
Layer 1
10
150.183400
20
253.609010
11
150.183400
21
254.009010
0
LINE
8
Layer 1
10
150.183400
20
254.009010
11
150.183400
21
267.009010
0
LINE
8
Layer 1
10
150.183400
20
267.009010
11
154.891730
21
267.009010
0
LINE
8
Layer 1
10
154.891730
20
267.009010
11
154.891730
21
265.009010
0
LINE
8
Layer 1
10
178.183400
20
267.009010
11
173.475070
21
267.009010
0
LINE
8
Layer 1
10
173.475070
20
267.009010
11
173.475070
21
265.009010
0
LINE
8
Layer 1
10
178.183400
20
254.009010
11
178.183400
21
253.609010
0
LINE
8
Layer 1
10
150.883400
20
267.009010
11
150.883400
21
269.509010
0
LINE
8
Layer 1
10
177.483410
20
267.009010
11
177.483410
21
269.509010
0
LINE
8
Layer 1
10
163.383400
20
282.009010
11
164.983400
21
282.009010
0
LINE
8
Layer 1
10
150.883400
20
269.509010
11
151.137356
21
272.028196
0
LINE
8
Layer 1
10
151.137356
20
272.028196
11
151.865712
21
274.374574
0
LINE
8
Layer 1
10
151.865712
20
274.374574
11
153.018204
21
276.497879
0
LINE
8
Layer 1
10
153.018204
20
276.497879
11
154.544565
21
278.347845
0
LINE
8
Layer 1
10
154.544565
20
278.347845
11
156.394531
21
279.874206
0
LINE
8
Layer 1
10
156.394531
20
279.874206
11
158.517836
21
281.026698
0
LINE
8
Layer 1
10
158.517836
20
281.026698
11
160.864214
21
281.755054
0
LINE
8
Layer 1
10
160.864214
20
281.755054
11
163.383400
21
282.009010
0
LINE
8
Layer 1
10
164.983400
20
282.009010
11
167.502587
21
281.755054
0
LINE
8
Layer 1
10
167.502587
20
281.755054
11
169.848966
21
281.026698
0
LINE
8
Layer 1
10
169.848966
20
281.026698
11
171.972272
21
279.874206
0
LINE
8
Layer 1
10
171.972272
20
279.874206
11
173.822240
21
278.347845
0
LINE
8
Layer 1
10
173.822240
20
278.347845
11
175.348603
21
276.497879
0
LINE
8
Layer 1
10
175.348603
20
276.497879
11
176.501097
21
274.374574
0
LINE
8
Layer 1
10
176.501097
20
274.374574
11
177.229454
21
272.028196
0
LINE
8
Layer 1
10
177.229454
20
272.028196
11
177.483410
21
269.509010
0
LINE
8
Layer 1
10
190.183370
20
253.609010
11
190.183370
21
182.659040
0
LINE
8
Layer 1
10
109.183390
20
183.059040
11
97.770884
21
188.059040
0
LINE
8
Layer 1
10
138.183400
20
253.609010
11
138.183400
21
261.609010
0
LINE
8
Layer 1
10
138.183400
20
261.609010
11
140.183400
21
263.609010
0
LINE
8
Layer 1
10
140.183400
20
263.609010
11
141.204750
21
263.149400
0
LINE
8
Layer 1
10
150.183400
20
258.609010
11
150.183400
21
258.609010
0
LINE
8
Layer 1
10
147.183400
20
261.609010
11
147.183400
21
262.709010
0
LINE
8
Layer 1
10
147.183400
20
262.709010
11
143.256570
21
262.709010
0
LINE
8
Layer 1
10
141.204750
20
263.149400
11
142.207298
21
262.820346
0
LINE
8
Layer 1
10
142.207298
20
262.820346
11
143.256570
21
262.709010
0
LINE
8
Layer 1
10
150.183400
20
258.609010
11
149.015666
21
258.844765
0
LINE
8
Layer 1
10
149.015666
20
258.844765
11
148.062081
21
259.487691
0
LINE
8
Layer 1
10
148.062081
20
259.487691
11
147.419155
21
260.441276
0
LINE
8
Layer 1
10
147.419155
20
260.441276
11
147.183400
21
261.609010
0
LINE
8
Layer 1
10
137.183400
20
253.609010
11
109.183390
21
253.609010
0
LINE
8
Layer 1
10
150.183400
20
183.059040
11
150.183400
21
182.659040
0
LINE
8
Layer 1
10
150.183400
20
182.659040
11
150.183400
21
169.659040
0
LINE
8
Layer 1
10
150.183400
20
169.659040
11
154.891730
21
169.659040
0
LINE
8
Layer 1
10
154.891730
20
169.659040
11
154.891730
21
171.659040
0
LINE
8
Layer 1
10
178.183400
20
182.659040
11
178.183400
21
183.059040
0
LINE
8
Layer 1
10
150.883400
20
169.659040
11
150.883400
21
167.159040
0
LINE
8
Layer 1
10
150.883400
20
167.159040
11
151.137356
21
164.639854
0
LINE
8
Layer 1
10
151.137356
20
164.639854
11
151.865712
21
162.293476
0
LINE
8
Layer 1
10
151.865712
20
162.293476
11
153.018204
21
160.170171
0
LINE
8
Layer 1
10
153.018204
20
160.170171
11
154.544565
21
158.320205
0
LINE
8
Layer 1
10
154.544565
20
158.320205
11
156.394531
21
156.793844
0
LINE
8
Layer 1
10
156.394531
20
156.793844
11
158.517836
21
155.641352
0
LINE
8
Layer 1
10
158.517836
20
155.641352
11
160.864214
21
154.912996
0
LINE
8
Layer 1
10
160.864214
20
154.912996
11
163.383400
21
154.659040
0
LINE
8
Layer 1
10
163.383400
20
154.659040
11
164.983400
21
154.659040
0
LINE
8
Layer 1
10
164.983400
20
154.659040
11
167.502587
21
154.912996
0
LINE
8
Layer 1
10
167.502587
20
154.912996
11
169.848966
21
155.641352
0
LINE
8
Layer 1
10
169.848966
20
155.641352
11
171.972272
21
156.793844
0
LINE
8
Layer 1
10
171.972272
20
156.793844
11
173.822240
21
158.320205
0
LINE
8
Layer 1
10
173.822240
20
158.320205
11
175.348603
21
160.170171
0
LINE
8
Layer 1
10
175.348603
20
160.170171
11
176.501097
21
162.293476
0
LINE
8
Layer 1
10
176.501097
20
162.293476
11
177.229454
21
164.639854
0
LINE
8
Layer 1
10
177.229454
20
164.639854
11
177.483410
21
167.159040
0
LINE
8
Layer 1
10
138.183400
20
183.059040
11
138.183400
21
175.059040
0
LINE
8
Layer 1
10
138.183400
20
175.059040
11
140.183400
21
173.059040
0
LINE
8
Layer 1
10
140.183400
20
173.059040
11
141.204750
21
173.518650
0
LINE
8
Layer 1
10
150.183400
20
178.059040
11
150.183400
21
178.059040
0
LINE
8
Layer 1
10
147.183400
20
175.059040
11
147.183400
21
173.959040
0
LINE
8
Layer 1
10
147.183400
20
173.959040
11
143.256570
21
173.959040
0
LINE
8
Layer 1
10
141.204750
20
173.518650
11
142.207298
21
173.847704
0
LINE
8
Layer 1
10
142.207298
20
173.847704
11
143.256570
21
173.959040
0
LINE
8
Layer 1
10
150.183400
20
178.059040
11
149.015666
21
177.823286
0
LINE
8
Layer 1
10
149.015666
20
177.823286
11
148.062081
21
177.180363
0
LINE
8
Layer 1
10
148.062081
20
177.180363
11
147.419155
21
176.226778
0
LINE
8
Layer 1
10
147.419155
20
176.226778
11
147.183400
21
175.059040
0
LINE
8
Layer 1
10
137.183400
20
183.059040
11
109.183390
21
183.059040
0
LINE
8
Layer 1
10
137.183400
20
183.059040
11
138.183400
21
183.059040
0
LINE
8
Layer 1
10
178.183400
20
182.659040
11
178.183400
21
169.659040
0
LINE
8
Layer 1
10
178.183400
20
169.659040
11
173.475070
21
169.659040
0
LINE
8
Layer 1
10
173.475070
20
169.659040
11
173.475070
21
171.659040
0
LINE
8
Layer 1
10
177.483410
20
169.659040
11
177.483410
21
167.159040
0
LINE
8
Layer 1
10
190.183370
20
183.059040
11
190.183370
21
175.059040
0
LINE
8
Layer 1
10
190.183370
20
175.059040
11
188.183370
21
173.059040
0
LINE
8
Layer 1
10
188.183370
20
173.059040
11
187.162020
21
173.518650
0
LINE
8
Layer 1
10
187.162020
20
173.518650
11
186.159471
21
173.847704
0
LINE
8
Layer 1
10
186.159471
20
173.847704
11
185.110190
21
173.959040
0
LINE
8
Layer 1
10
181.183390
20
175.059040
11
181.183390
21
173.959040
0
LINE
8
Layer 1
10
181.183390
20
173.959040
11
185.110190
21
173.959040
0
LINE
8
Layer 1
10
178.183400
20
178.059040
11
179.351128
21
177.823286
0
LINE
8
Layer 1
10
179.351128
20
177.823286
11
180.304710
21
177.180363
0
LINE
8
Layer 1
10
180.304710
20
177.180363
11
180.947635
21
176.226778
0
LINE
8
Layer 1
10
180.947635
20
176.226778
11
181.183390
21
175.059040
0
LINE
8
Layer 1
10
137.183400
20
253.609010
11
138.183400
21
253.609010
0
LINE
8
Layer 1
10
109.183390
20
253.609010
11
97.770884
21
248.609010
0
LINE
8
Layer 1
10
97.770884
20
248.609010
11
97.770884
21
188.059040
0
LINE
8
Layer 1
10
97.770884
20
188.059040
11
97.770884
21
188.059040
0
LINE
8
Layer 1
10
97.770884
20
188.059040
11
97.770884
21
188.059040
0
LINE
8
Layer 1
10
97.770884
20
188.059040
11
97.770884
21
188.059040
0
LINE
8
Layer 1
10
97.770884
20
188.059040
11
97.770884
21
188.059040
0
LINE
8
Layer 1
10
97.770884
20
188.059040
11
97.770884
21
188.059040
0
LINE
8
Layer 1
10
97.770884
20
188.059040
11
97.770884
21
188.059040
0
LINE
8
Layer 1
10
97.770884
20
188.059040
11
97.770884
21
188.059040
0
LINE
8
Layer 1
10
97.770884
20
188.059040
11
97.770884
21
188.059040
0
LINE
8
Layer 1
10
178.183400
20
116.425630
11
178.183400
21
129.425630
0
LINE
8
Layer 1
10
181.183390
20
124.025630
11
181.183390
21
125.125630
0
LINE
8
Layer 1
10
181.183390
20
125.125630
11
185.110190
21
125.125630
0
LINE
8
Layer 1
10
178.183400
20
121.025630
11
179.351128
21
121.261385
0
LINE
8
Layer 1
10
179.351128
20
121.261385
11
180.304710
21
121.904311
0
LINE
8
Layer 1
10
180.304710
20
121.904311
11
180.947635
21
122.857896
0
LINE
8
Layer 1
10
180.947635
20
122.857896
11
181.183390
21
124.025630
0
LINE
8
Layer 1
10
190.183370
20
116.025630
11
190.183370
21
124.025630
0
LINE
8
Layer 1
10
190.183370
20
124.025630
11
188.183370
21
126.025630
0
LINE
8
Layer 1
10
188.183370
20
126.025630
11
187.162020
21
125.566020
0
LINE
8
Layer 1
10
187.162020
20
125.566020
11
186.159471
21
125.236966
0
LINE
8
Layer 1
10
186.159471
20
125.236966
11
185.110190
21
125.125630
0
LINE
8
Layer 1
10
150.183400
20
116.025630
11
150.183400
21
116.425630
0
LINE
8
Layer 1
10
150.183400
20
116.425630
11
150.183400
21
129.425630
0
LINE
8
Layer 1
10
150.183400
20
129.425630
11
154.891730
21
129.425630
0
LINE
8
Layer 1
10
154.891730
20
129.425630
11
154.891730
21
127.425630
0
LINE
8
Layer 1
10
178.183400
20
129.425630
11
173.475070
21
129.425630
0
LINE
8
Layer 1
10
173.475070
20
129.425630
11
173.475070
21
127.425630
0
LINE
8
Layer 1
10
178.183400
20
116.425630
11
178.183400
21
116.025630
0
LINE
8
Layer 1
10
150.883400
20
129.425630
11
150.883400
21
131.925630
0
LINE
8
Layer 1
10
177.483410
20
129.425630
11
177.483410
21
131.925630
0
LINE
8
Layer 1
10
163.383400
20
144.425630
11
164.983400
21
144.425630
0
LINE
8
Layer 1
10
150.883400
20
131.925630
11
151.137356
21
134.444816
0
LINE
8
Layer 1
10
151.137356
20
134.444816
11
151.865712
21
136.791194
0
LINE
8
Layer 1
10
151.865712
20
136.791194
11
153.018204
21
138.914499
0
LINE
8
Layer 1
10
153.018204
20
138.914499
11
154.544565
21
140.764465
0
LINE
8
Layer 1
10
154.544565
20
140.764465
11
156.394531
21
142.290826
0
LINE
8
Layer 1
10
156.394531
20
142.290826
11
158.517836
21
143.443318
0
LINE
8
Layer 1
10
158.517836
20
143.443318
11
160.864214
21
144.171674
0
LINE
8
Layer 1
10
160.864214
20
144.171674
11
163.383400
21
144.425630
0
LINE
8
Layer 1
10
164.983400
20
144.425630
11
167.502587
21
144.171674
0
LINE
8
Layer 1
10
167.502587
20
144.171674
11
169.848966
21
143.443318
0
LINE
8
Layer 1
10
169.848966
20
143.443318
11
171.972272
21
142.290826
0
LINE
8
Layer 1
10
171.972272
20
142.290826
11
173.822240
21
140.764465
0
LINE
8
Layer 1
10
173.822240
20
140.764465
11
175.348603
21
138.914499
0
LINE
8
Layer 1
10
175.348603
20
138.914499
11
176.501097
21
136.791194
0
LINE
8
Layer 1
10
176.501097
20
136.791194
11
177.229454
21
134.444816
0
LINE
8
Layer 1
10
177.229454
20
134.444816
11
177.483410
21
131.925630
0
LINE
8
Layer 1
10
190.183370
20
116.025630
11
190.183370
21
45.075660
0
LINE
8
Layer 1
10
109.183390
20
45.475660
11
97.770888
21
50.475660
0
LINE
8
Layer 1
10
138.183400
20
116.025630
11
138.183400
21
124.025630
0
LINE
8
Layer 1
10
138.183400
20
124.025630
11
140.183400
21
126.025630
0
LINE
8
Layer 1
10
140.183400
20
126.025630
11
141.204750
21
125.566020
0
LINE
8
Layer 1
10
150.183400
20
121.025630
11
150.183400
21
121.025630
0
LINE
8
Layer 1
10
147.183400
20
124.025630
11
147.183400
21
125.125630
0
LINE
8
Layer 1
10
147.183400
20
125.125630
11
143.256570
21
125.125630
0
LINE
8
Layer 1
10
141.204750
20
125.566020
11
142.207298
21
125.236966
0
LINE
8
Layer 1
10
142.207298
20
125.236966
11
143.256570
21
125.125630
0
LINE
8
Layer 1
10
150.183400
20
121.025630
11
149.015666
21
121.261385
0
LINE
8
Layer 1
10
149.015666
20
121.261385
11
148.062081
21
121.904311
0
LINE
8
Layer 1
10
148.062081
20
121.904311
11
147.419155
21
122.857896
0
LINE
8
Layer 1
10
147.419155
20
122.857896
11
147.183400
21
124.025630
0
LINE
8
Layer 1
10
137.183400
20
116.025630
11
109.183390
21
116.025630
0
LINE
8
Layer 1
10
150.183400
20
45.475660
11
150.183400
21
45.075660
0
LINE
8
Layer 1
10
150.183400
20
45.075660
11
150.183400
21
32.075660
0
LINE
8
Layer 1
10
150.183400
20
32.075660
11
154.891730
21
32.075660
0
LINE
8
Layer 1
10
154.891730
20
32.075660
11
154.891730
21
34.075660
0
LINE
8
Layer 1
10
178.183400
20
45.075660
11
178.183400
21
45.475660
0
LINE
8
Layer 1
10
150.883400
20
32.075660
11
150.883400
21
29.575660
0
LINE
8
Layer 1
10
150.883400
20
29.575660
11
151.137356
21
27.056474
0
LINE
8
Layer 1
10
151.137356
20
27.056474
11
151.865712
21
24.710096
0
LINE
8
Layer 1
10
151.865712
20
24.710096
11
153.018204
21
22.586791
0
LINE
8
Layer 1
10
153.018204
20
22.586791
11
154.544565
21
20.736825
0
LINE
8
Layer 1
10
154.544565
20
20.736825
11
156.394531
21
19.210464
0
LINE
8
Layer 1
10
156.394531
20
19.210464
11
158.517836
21
18.057972
0
LINE
8
Layer 1
10
158.517836
20
18.057972
11
160.864214
21
17.329616
0
LINE
8
Layer 1
10
160.864214
20
17.329616
11
163.383400
21
17.075660
0
LINE
8
Layer 1
10
163.383400
20
17.075660
11
164.983400
21
17.075660
0
LINE
8
Layer 1
10
164.983400
20
17.075660
11
167.502587
21
17.329616
0
LINE
8
Layer 1
10
167.502587
20
17.329616
11
169.848966
21
18.057972
0
LINE
8
Layer 1
10
169.848966
20
18.057972
11
171.972272
21
19.210464
0
LINE
8
Layer 1
10
171.972272
20
19.210464
11
173.822240
21
20.736825
0
LINE
8
Layer 1
10
173.822240
20
20.736825
11
175.348603
21
22.586791
0
LINE
8
Layer 1
10
175.348603
20
22.586791
11
176.501097
21
24.710096
0
LINE
8
Layer 1
10
176.501097
20
24.710096
11
177.229454
21
27.056474
0
LINE
8
Layer 1
10
177.229454
20
27.056474
11
177.483410
21
29.575660
0
LINE
8
Layer 1
10
138.183400
20
45.475660
11
138.183400
21
37.475660
0
LINE
8
Layer 1
10
138.183400
20
37.475660
11
140.183400
21
35.475660
0
LINE
8
Layer 1
10
140.183400
20
35.475660
11
141.204750
21
35.935270
0
LINE
8
Layer 1
10
150.183400
20
40.475660
11
150.183400
21
40.475660
0
LINE
8
Layer 1
10
147.183400
20
37.475660
11
147.183400
21
36.375660
0
LINE
8
Layer 1
10
147.183400
20
36.375660
11
143.256570
21
36.375660
0
LINE
8
Layer 1
10
141.204750
20
35.935270
11
142.207298
21
36.264324
0
LINE
8
Layer 1
10
142.207298
20
36.264324
11
143.256570
21
36.375660
0
LINE
8
Layer 1
10
150.183400
20
40.475660
11
149.015666
21
40.239906
0
LINE
8
Layer 1
10
149.015666
20
40.239906
11
148.062081
21
39.596982
0
LINE
8
Layer 1
10
148.062081
20
39.596982
11
147.419155
21
38.643398
0
LINE
8
Layer 1
10
147.419155
20
38.643398
11
147.183400
21
37.475660
0
LINE
8
Layer 1
10
137.183400
20
45.475660
11
109.183390
21
45.475660
0
LINE
8
Layer 1
10
137.183400
20
45.475660
11
138.183400
21
45.475660
0
LINE
8
Layer 1
10
178.183400
20
45.075660
11
178.183400
21
32.075660
0
LINE
8
Layer 1
10
178.183400
20
32.075660
11
173.475070
21
32.075660
0
LINE
8
Layer 1
10
173.475070
20
32.075660
11
173.475070
21
34.075660
0
LINE
8
Layer 1
10
177.483410
20
32.075660
11
177.483410
21
29.575660
0
LINE
8
Layer 1
10
190.183370
20
45.475660
11
190.183370
21
37.475660
0
LINE
8
Layer 1
10
190.183370
20
37.475660
11
188.183370
21
35.475660
0
LINE
8
Layer 1
10
188.183370
20
35.475660
11
187.162020
21
35.935270
0
LINE
8
Layer 1
10
187.162020
20
35.935270
11
186.159471
21
36.264324
0
LINE
8
Layer 1
10
186.159471
20
36.264324
11
185.110190
21
36.375660
0
LINE
8
Layer 1
10
181.183390
20
37.475660
11
181.183390
21
36.375660
0
LINE
8
Layer 1
10
181.183390
20
36.375660
11
185.110190
21
36.375660
0
LINE
8
Layer 1
10
178.183400
20
40.475660
11
179.351128
21
40.239906
0
LINE
8
Layer 1
10
179.351128
20
40.239906
11
180.304710
21
39.596982
0
LINE
8
Layer 1
10
180.304710
20
39.596982
11
180.947635
21
38.643398
0
LINE
8
Layer 1
10
180.947635
20
38.643398
11
181.183390
21
37.475660
0
LINE
8
Layer 1
10
137.183400
20
116.025630
11
138.183400
21
116.025630
0
LINE
8
Layer 1
10
109.183390
20
116.025630
11
97.770888
21
111.025630
0
LINE
8
Layer 1
10
97.770888
20
111.025630
11
97.770888
21
50.475660
0
LINE
8
Layer 1
10
97.770888
20
50.475660
11
97.770888
21
50.475660
0
LINE
8
Layer 1
10
97.770888
20
50.475660
11
97.770888
21
50.475660
0
LINE
8
Layer 1
10
97.770888
20
50.475660
11
97.770888
21
50.475660
0
LINE
8
Layer 1
10
97.770888
20
50.475660
11
97.770888
21
50.475660
0
LINE
8
Layer 1
10
97.770888
20
50.475660
11
97.770888
21
50.475660
0
LINE
8
Layer 1
10
97.770888
20
50.475660
11
97.770888
21
50.475660
0
LINE
8
Layer 1
10
97.770888
20
50.475660
11
97.770888
21
50.475660
0
LINE
8
Layer 1
10
97.770888
20
50.475660
11
97.770888
21
50.475660
 0 
ENDSEC
 0 
EOF