<?xml version="1.0" encoding="UTF-8" standalone="no"?>
<!-- Created with Inkscape (http://www.inkscape.org/) -->

<svg
   width="210mm"
   height="297mm"
   viewBox="0 0 210 297"
   version="1.1"
   id="svg1"
   sodipodi:docname="cucit-acil.svg"
   inkscape:version="1.3.2 (091e20e, 2023-11-25, custom)"
   xmlns:inkscape="http://www.inkscape.org/namespaces/inkscape"
   xmlns:sodipodi="http://sodipodi.sourceforge.net/DTD/sodipodi-0.dtd"
   xmlns="http://www.w3.org/2000/svg"
   xmlns:svg="http://www.w3.org/2000/svg">
  <sodipodi:namedview
     id="namedview1"
     pagecolor="#ffffff"
     bordercolor="#000000"
     borderopacity="0.25"
     inkscape:showpageshadow="2"
     inkscape:pageopacity="0.0"
     inkscape:pagecheckerboard="0"
     inkscape:deskcolor="#d1d1d1"
     inkscape:document-units="mm"
     showguides="true"
     inkscape:zoom="0.36213173"
     inkscape:cx="-336.89398"
     inkscape:cy="343.79754"
     inkscape:window-width="1920"
     inkscape:window-height="1009"
     inkscape:window-x="-8"
     inkscape:window-y="-8"
     inkscape:window-maximized="1"
     inkscape:current-layer="layer1">
    <sodipodi:guide
       position="140.92814,226.45753"
       orientation="0,-1"
       id="guide10"
       inkscape:locked="false" />
    <sodipodi:guide
       position="549.03683,182.42988"
       orientation="0,-1"
       id="guide67"
       inkscape:locked="false" />
    <sodipodi:guide
       position="558.69438,192.50644"
       orientation="0,-1"
       id="guide68"
       inkscape:locked="false" />
  </sodipodi:namedview>
  <defs
     id="defs1" />
  <g
     inkscape:label="Layer 1"
     inkscape:groupmode="layer"
     id="layer1">
    <rect
       style="fill:#000000;stroke-width:0.193291"
       id="rect1"
       width="10.250587"
       height="6.3352108"
       x="37.933437"
       y="11.369832"
       transform="rotate(30)" />
    <rect
       style="fill:#000000;stroke-width:0.193291"
       id="rect2"
       width="6.9794698"
       height="22.602739"
       x="26.291821"
       y="34.119137" />
    <rect
       style="fill:#000000;stroke-width:0.193291"
       id="rect3"
       width="10.250587"
       height="6.3352108"
       x="49.798534"
       y="31.920757"
       transform="rotate(30)" />
    <path
       id="rect4"
       style="stroke-width:0.193291"
       d="m 39.732597,28.813264 8.877262,5.125291 -3.167604,5.486453 -8.877264,-5.125291 z"
       sodipodi:nodetypes="ccccc" />
    <path
       id="rect5"
       style="stroke-width:0.193291"
       d="m 41.630389,33.938555 h 6.97947 v 11.603219 l -6.97947,6.371686 z"
       sodipodi:nodetypes="ccccc" />
    <path
       id="rect6"
       style="stroke-width:0.206436"
       d="M 26.996068,41.388502 39.732595,28.813261 41.038593,31.391352 28.302066,43.966574 Z"
       sodipodi:nodetypes="ccccc" />
    <path
       id="rect7"
       style="stroke-width:0.206436"
       d="m 31.969644,57.815151 12.736527,-12.575243 1.306,2.578095 -12.736528,12.57524 z"
       sodipodi:nodetypes="ccccc" />
    <path
       id="rect8"
       style="stroke-width:0.193291"
       d="m 60.611947,28.813263 8.877271,5.125294 -3.167607,5.486453 -8.877267,-5.125293 z"
       sodipodi:nodetypes="ccccc" />
    <path
       id="path8"
       style="stroke-width:0.193291"
       d="m 59.737383,34.119136 h 6.979468 v 21.061649 l -6.979468,4.831941 z"
       sodipodi:nodetypes="ccccc" />
    <path
       id="rect9"
       style="stroke-width:0.206436"
       d="m 52.889108,37.887289 7.722835,-9.074032 1.305997,2.57809 -6.365418,8.033663 z"
       sodipodi:nodetypes="ccccc" />
    <path
       id="rect10"
       style="stroke-width:0.206436"
       d="M 62.813171,54.219016 46.983316,65.835841 v 3.536601 L 64.119202,56.797145 Z" />
    <path
       id="path10"
       style="stroke-width:0.193291"
       d="m 49.842858,28.813263 8.877271,5.125294 -3.167607,5.486453 -8.87727,-5.125294 z"
       sodipodi:nodetypes="ccccc" />
    <rect
       style="fill:#000000;stroke-width:0.193291"
       id="rect21"
       width="10.250587"
       height="6.3352108"
       x="97.594429"
       y="-23.075483"
       transform="rotate(30)" />
    <rect
       style="fill:#000000;stroke-width:0.193291"
       id="rect22"
       width="6.9794698"
       height="22.602739"
       x="95.182457"
       y="34.119137" />
    <rect
       style="fill:#000000;stroke-width:0.193291"
       id="rect23"
       width="10.250587"
       height="6.3352108"
       x="109.45953"
       y="-2.5245402"
       transform="rotate(30)" />
    <path
       id="path23"
       style="stroke-width:0.193291"
       d="m 108.62323,28.813264 8.87726,5.125291 -3.1676,5.486453 -8.87726,-5.125291 z"
       sodipodi:nodetypes="ccccc" />
    <path
       id="path25"
       style="stroke-width:0.206436"
       d="m 95.886697,41.388502 12.736533,-12.575241 1.306,2.578091 -12.736533,12.575222 z"
       sodipodi:nodetypes="ccccc" />
    <rect
       style="fill:#000000;stroke-width:0.193291"
       id="rect26"
       width="6.9794698"
       height="22.602739"
       x="110.52103"
       y="33.938553" />
    <rect
       style="fill:#000000;stroke-width:0.193291"
       id="rect27"
       width="10.250587"
       height="6.3352108"
       x="122.65283"
       y="-10.350211"
       transform="rotate(30)" />
    <rect
       style="fill:#000000;stroke-width:0.193291"
       id="rect28"
       width="10.250587"
       height="6.3352108"
       x="76.206314"
       y="-10.72705"
       transform="rotate(30)" />
    <rect
       style="fill:#000000;stroke-width:0.193291"
       id="rect29"
       width="6.9794698"
       height="22.602739"
       x="70.48558"
       y="34.119137" />
    <rect
       style="fill:#000000;stroke-width:0.193291"
       id="rect30"
       width="10.250587"
       height="6.3352108"
       x="88.071411"
       y="9.8239012"
       transform="rotate(30)" />
    <path
       id="path30"
       style="stroke-width:0.193291"
       d="m 83.926357,28.813264 8.87726,5.125291 -3.1676,5.486453 -8.877261,-5.125291 z"
       sodipodi:nodetypes="ccccc" />
    <path
       id="path31"
       style="stroke-width:0.193291"
       d="m 85.824157,33.938555 h 6.97946 v 11.603219 l -6.97946,6.371686 z"
       sodipodi:nodetypes="ccccc" />
    <path
       id="path32"
       style="stroke-width:0.206436"
       d="m 71.189832,41.388502 12.736525,-12.575241 1.306,2.578091 -12.736528,12.575222 z"
       sodipodi:nodetypes="ccccc" />
    <path
       id="path33"
       style="stroke-width:0.206436"
       d="m 76.163407,57.815151 12.73653,-12.575243 1.306,2.578095 -12.736529,12.57524 z"
       sodipodi:nodetypes="ccccc" />
    <rect
       style="fill:#000000;stroke-width:0.193291"
       id="rect33"
       width="10.250587"
       height="6.3352108"
       x="120.45367"
       y="-36.273323"
       transform="rotate(30)" />
    <rect
       style="fill:#000000;stroke-width:0.193291"
       id="rect34"
       width="6.9794698"
       height="22.602739"
       x="121.57806"
       y="34.119137" />
    <rect
       style="fill:#000000;stroke-width:0.193291"
       id="rect35"
       width="10.250587"
       height="6.3352108"
       x="132.31874"
       y="-15.722346"
       transform="rotate(30)" />
    <rect
       style="fill:#000000;stroke-width:0.193291"
       id="rect36"
       width="10.250587"
       height="6.3352108"
       x="133.40732"
       y="-43.75206"
       transform="rotate(30)" />
    <rect
       style="fill:#000000;stroke-width:0.193291"
       id="rect37"
       width="6.9794698"
       height="22.602739"
       x="136.53563"
       y="34.119137" />
    <rect
       style="fill:#000000;stroke-width:0.193291"
       id="rect38"
       width="10.250587"
       height="6.3352108"
       x="145.27237"
       y="-23.201103"
       transform="rotate(30)" />
    <rect
       style="fill:#000000;stroke-width:0.193291"
       id="rect39"
       width="2.8991642"
       height="25.233467"
       x="135.56102"
       y="-37.56797"
       transform="rotate(30)" />
    <rect
       style="fill:#000000;stroke-width:0.193291"
       id="rect40"
       width="10.250587"
       height="6.3352108"
       x="103.07144"
       y="14.637985"
       transform="rotate(30)" />
    <rect
       style="fill:#000000;stroke-width:0.193291"
       id="rect41"
       width="6.9794698"
       height="22.602739"
       x="81.068901"
       y="69.518456" />
    <rect
       style="fill:#000000;stroke-width:0.193291"
       id="rect42"
       width="10.250587"
       height="6.3352108"
       x="114.93653"
       y="35.188931"
       transform="rotate(30)" />
    <path
       id="path42"
       style="stroke-width:0.193291"
       d="m 94.003311,74.089367 8.877259,5.125294 -3.167599,5.486452 -8.877262,-5.12529 z"
       sodipodi:nodetypes="ccccc" />
    <path
       id="path43"
       style="stroke-width:0.193291"
       d="m 95.901111,79.214661 h 6.979459 v 11.603236 l -6.979459,6.371686 z"
       sodipodi:nodetypes="ccccc" />
    <path
       id="path44"
       style="stroke-width:0.206436"
       d="m 81.266786,86.664606 12.736525,-12.575243 1.306,2.578091 -12.736528,12.575239 z"
       sodipodi:nodetypes="ccccc" />
    <path
       id="path45"
       style="stroke-width:0.206436"
       d="m 86.240361,103.09127 12.73653,-12.575239 1.305999,2.578095 -12.736528,12.575234 z"
       sodipodi:nodetypes="ccccc" />
    <path
       id="path46"
       style="stroke-width:0.206436"
       d="m 85.372992,73.286616 7.722839,-9.074033 1.30599,2.578091 -6.365415,8.033663 z"
       sodipodi:nodetypes="ccccc" />
    <path
       id="path47"
       style="stroke-width:0.193291"
       d="M 93.095831,64.212583 101.9731,69.337877 98.805491,74.824333 89.92822,69.69904 Z"
       sodipodi:nodetypes="ccccc" />
    <rect
       style="fill:#000000;stroke-width:0.193291"
       id="rect47"
       width="10.250587"
       height="6.3352108"
       x="145.8241"
       y="-10.045269"
       transform="rotate(30)" />
    <rect
       style="fill:#000000;stroke-width:0.193291"
       id="rect48"
       width="6.9794698"
       height="22.602739"
       x="130.43542"
       y="69.518456" />
    <rect
       style="fill:#000000;stroke-width:0.193291"
       id="rect49"
       width="10.250587"
       height="6.3352108"
       x="157.68919"
       y="10.505679"
       transform="rotate(30)" />
    <path
       id="path49"
       style="stroke-width:0.193291"
       d="m 143.87622,64.212583 8.87726,5.12529 -3.1676,5.486452 -8.87726,-5.12529 z"
       sodipodi:nodetypes="ccccc" />
    <path
       id="path50"
       style="stroke-width:0.206436"
       d="m 131.13969,76.787822 12.73653,-12.575243 1.306,2.578091 -12.73653,12.57524 z"
       sodipodi:nodetypes="ccccc" />
    <rect
       style="fill:#000000;stroke-width:0.193291"
       id="rect50"
       width="6.9794698"
       height="22.602739"
       x="145.77403"
       y="69.337868" />
    <rect
       style="fill:#000000;stroke-width:0.193291"
       id="rect51"
       width="10.250587"
       height="6.3352108"
       x="170.88254"
       y="2.6800001"
       transform="rotate(30)" />
    <rect
       style="fill:#000000;stroke-width:0.193291"
       id="rect52"
       width="10.250587"
       height="6.3352108"
       x="124.43595"
       y="2.3031633"
       transform="rotate(30)" />
    <rect
       style="fill:#000000;stroke-width:0.193291"
       id="rect53"
       width="6.9794698"
       height="22.602739"
       x="105.73856"
       y="69.518456" />
    <rect
       style="fill:#000000;stroke-width:0.193291"
       id="rect54"
       width="10.250587"
       height="6.3352108"
       x="136.30107"
       y="22.854103"
       transform="rotate(30)" />
    <path
       id="path54"
       style="stroke-width:0.193291"
       d="m 119.17935,64.212583 8.87726,5.12529 -3.1676,5.486452 -8.87726,-5.12529 z"
       sodipodi:nodetypes="ccccc" />
    <path
       id="path55"
       style="stroke-width:0.193291"
       d="m 121.07715,69.337873 h 6.97946 v 11.60324 l -6.97946,6.371687 z"
       sodipodi:nodetypes="ccccc" />
    <path
       id="path56"
       style="stroke-width:0.206436"
       d="m 106.44282,76.787822 12.73653,-12.575243 1.306,2.578091 -12.73654,12.57524 z"
       sodipodi:nodetypes="ccccc" />
    <path
       id="path57"
       style="stroke-width:0.206436"
       d="m 111.4164,93.214486 12.73653,-12.575239 1.306,2.578095 -12.73653,12.575241 z"
       sodipodi:nodetypes="ccccc" />
    <path
       id="path62"
       style="stroke-width:0.193291"
       d="m 163.93535,62.012938 -8.61724,8.082797 -0.0799,3.261434 6.22578,-5.455912 6.33341,3.656462 -7.67982,6.76753 -4.58401,4.18876 11.36765,-0.04704 v 11.004407 l -3.345,-2.670499 -17.78224,13.258593 v 3.03374 l 13.50649,-9.703957 7.62075,5.349797 6.97954,-6.979547 V 82.437965 l 1.09982,-4.112716 h -10.54752 l 11.07894,-9.747778 -2.69927,-1.439214 z" />
    <path
       style="fill:#000000;stroke-width:0.187549"
       d="m 129.10685,27.66168 9.33657,-12.432899 5.429,-0.500877 10.0548,12.104209 13.58884,5.730429 3.94606,9.759289 15.2419,8.007281 -3.01378,9.24134 5.77809,-7.428489 3.59225,-1.571516 -2.94436,-6.535701 -16.34406,-4.3842 -3.03276,-8.170236 -16.51498,-8.614156 -10.61338,-15.1166815 -9.91339,3.3786395 -4.95219,11.946656 z"
       id="path93"
       sodipodi:nodetypes="cccccccccccccccccc" />
    <path
       style="fill:#000000;stroke-width:0.193291"
       d="m 157.66335,34.14893 -6.97947,2.997284 7.51635,1.288518 3.11391,-1.845177 z"
       id="path94" />
    <path
       style="fill:#000000;stroke-width:0.136677"
       d="m 145.67781,50.211753 26.27102,-3.457144 0.5372,2.069304 z"
       id="path95" />
    <path
       style="fill:#000000;stroke-width:0.136677"
       d="m 146.68029,56.595004 25.74947,-6.251601 0.75579,1.999849 z"
       id="path96" />
    <path
       style="fill:#000000;stroke-width:0.136677"
       d="m 149.51595,65.934141 23.62883,-11.991514 1.19438,1.773158 z"
       id="path97" />
    <path
       style="fill:#000000;stroke-width:0.193291"
       d="m 169.60335,60.410169 16.70385,-0.759263 -1.36667,4.859301 -2.80723,-0.250147 -12.52995,-1.116531 z"
       id="path98"
       sodipodi:nodetypes="cccccc" />
  </g>
</svg>
