<?xml version="1.0" encoding="UTF-8" standalone="no"?>
<!-- Created with Inkscape (http://www.inkscape.org/) -->

<svg
   width="210mm"
   height="297mm"
   viewBox="0 0 210 297"
   version="1.1"
   id="svg1"
   sodipodi:docname="cucit-acil.svg"
   inkscape:version="1.3.2 (091e20e, 2023-11-25, custom)"
   xmlns:inkscape="http://www.inkscape.org/namespaces/inkscape"
   xmlns:sodipodi="http://sodipodi.sourceforge.net/DTD/sodipodi-0.dtd"
   xmlns="http://www.w3.org/2000/svg"
   xmlns:svg="http://www.w3.org/2000/svg">
  <sodipodi:namedview
     id="namedview1"
     pagecolor="#ffffff"
     bordercolor="#000000"
     borderopacity="0.25"
     inkscape:showpageshadow="2"
     inkscape:pageopacity="0.0"
     inkscape:pagecheckerboard="0"
     inkscape:deskcolor="#d1d1d1"
     inkscape:document-units="mm"
     showguides="true"
     inkscape:zoom="1.0242632"
     inkscape:cx="361.72343"
     inkscape:cy="250.42391"
     inkscape:window-width="1920"
     inkscape:window-height="1009"
     inkscape:window-x="-8"
     inkscape:window-y="-8"
     inkscape:window-maximized="1"
     inkscape:current-layer="layer1">
    <sodipodi:guide
       position="140.92814,226.45753"
       orientation="0,-1"
       id="guide10"
       inkscape:locked="false" />
    <sodipodi:guide
       position="549.03683,182.42988"
       orientation="0,-1"
       id="guide67"
       inkscape:locked="false" />
    <sodipodi:guide
       position="558.69438,192.50644"
       orientation="0,-1"
       id="guide68"
       inkscape:locked="false" />
  </sodipodi:namedview>
  <defs
     id="defs1" />
  <g
     inkscape:label="Layer 1"
     inkscape:groupmode="layer"
     id="layer1">
    <path
       id="path109"
       style="fill:#ffcc00"
       d="M 117.95869 64.201766 L 116.89364 64.565568 L 112.75332 65.975301 L 110.60824 71.151213 L 110.68627 72.129447 L 109.36335 71.366187 L 108.14275 73.480269 L 104.79205 71.545504 L 103.15598 73.160909 L 100.05022 71.367737 L 99.300399 72.666882 L 98.981038 73.21982 L 96.079924 71.544987 L 94.443848 73.160392 L 91.337061 71.366187 L 90.390348 73.010014 L 87.761568 71.492277 L 86.510482 72.964022 L 83.745793 71.36567 L 82.854891 72.912862 L 80.488627 71.546537 L 78.852551 73.161426 L 75.746281 71.366187 L 74.995422 72.666882 L 73.128353 75.900793 L 74.48641 76.684725 L 74.48641 81.919548 L 73.127836 84.272375 L 78.858752 87.580701 L 80.630221 84.512671 L 83.524618 81.654964 L 85.360681 79.979614 L 85.359648 78.344055 L 86.286723 78.878906 L 86.285173 82.416675 L 81.785189 85.718799 L 81.785706 90.686971 L 88.657121 85.644385 L 89.76558 84.87699 L 93.302315 86.919242 L 92.452755 88.390987 L 93.811845 89.173368 L 93.810811 94.409224 L 92.453271 96.760502 L 95.889754 98.746427 L 95.303743 99.32417 L 97.189417 103.04229 L 102.66608 97.634351 L 106.8865 100.07089 L 108.65487 97.007515 L 111.15239 94.540999 L 109.8703 96.762052 L 115.6007 100.07038 L 116.98149 97.678792 L 117.94732 98.236381 L 116.64043 99.211515 L 116.63991 103.95851 L 122.91498 99.449227 L 125.76287 101.44962 L 129.55643 97.656571 L 129.55592 92.532336 L 130.39669 89.384725 L 128.69809 89.385242 L 130.92638 87.424121 L 133.06526 87.61429 L 134.33909 83.083818 L 134.506 82.868844 L 136.81439 81.858569 L 134.85895 77.522917 L 129.15491 75.992778 L 128.1529 73.294234 L 122.1388 70.155924 L 117.95869 64.201766 z M 93.077523 75.835681 L 93.102844 75.850151 L 93.077006 75.875472 L 93.077523 75.835681 z " />
    <rect
       style="fill:#000000;stroke-width:0.0681932;fill-opacity:1"
       id="rect1"
       width="3.6164138"
       height="2.2350664"
       x="71.654564"
       y="-28.480616"
       transform="rotate(30)" />
    <rect
       style="fill:#000000;stroke-width:0.0681932;fill-opacity:1"
       id="rect2"
       width="2.4623613"
       height="7.9742613"
       x="75.986427"
       y="13.034257" />
    <rect
       style="fill:#000000;stroke-width:0.0681932;fill-opacity:1"
       id="rect3"
       width="3.6164138"
       height="2.2350664"
       x="75.840576"
       y="-21.230234"
       transform="rotate(30)" />
    <path
       id="rect4"
       style="stroke-width:0.0681932;fill:#000000;fill-opacity:1"
       d="m 80.728343,11.162342 3.131904,1.808205 -1.117533,1.935624 -3.131904,-1.808205 z"
       sodipodi:nodetypes="ccccc" />
    <path
       id="rect5"
       style="stroke-width:0.0681932;fill:#000000;fill-opacity:1"
       d="m 81.397885,12.970547 h 2.462362 v 4.093624 l -2.462362,2.247935 z"
       sodipodi:nodetypes="ccccc" />
    <path
       id="rect6"
       style="stroke-width:0.0728307;fill:#000000;fill-opacity:1"
       d="m 76.234888,15.598894 4.493454,-4.436554 0.460757,0.909553 -4.493454,4.436546 z"
       sodipodi:nodetypes="ccccc" />
    <path
       id="rect7"
       style="stroke-width:0.0728307;fill:#000000;fill-opacity:1"
       d="m 77.989569,21.394226 4.493454,-4.436554 0.460758,0.909554 -4.493455,4.436552 z"
       sodipodi:nodetypes="ccccc" />
    <path
       id="rect8"
       style="stroke-width:0.0681932;fill:#000000;fill-opacity:1"
       d="m 88.094592,11.162341 3.131906,1.808207 -1.117533,1.935624 -3.131906,-1.808206 z"
       sodipodi:nodetypes="ccccc" />
    <path
       id="path8"
       style="stroke-width:0.0681932;fill:#000000;fill-opacity:1"
       d="m 87.786045,13.034257 h 2.46236 v 7.430563 l -2.46236,1.704712 z"
       sodipodi:nodetypes="ccccc" />
    <path
       id="rect9"
       style="stroke-width:0.0728307;fill:#000000;fill-opacity:1"
       d="m 85.369969,14.363663 2.724621,-3.201324 0.460757,0.909552 -2.245724,2.834281 z"
       sodipodi:nodetypes="ccccc" />
    <path
       id="rect10"
       style="stroke-width:0.0728307;fill:#000000;fill-opacity:1"
       d="m 88.871185,20.125508 -5.584783,4.098423 v 1.247715 l 6.045551,-4.436573 z" />
    <path
       id="path10"
       style="stroke-width:0.0681932;fill:#000000;fill-opacity:1"
       d="m 84.29525,11.162341 3.131907,1.808207 -1.117534,1.935624 -3.131906,-1.808207 z"
       sodipodi:nodetypes="ccccc" />
    <rect
       style="fill:#000000;stroke-width:0.0681932;fill-opacity:1"
       id="rect21"
       width="3.6164138"
       height="2.2350664"
       x="92.703003"
       y="-40.632942"
       transform="rotate(30)" />
    <rect
       style="fill:#000000;stroke-width:0.0681932;fill-opacity:1"
       id="rect22"
       width="2.4623613"
       height="7.9742613"
       x="100.29109"
       y="13.034257" />
    <rect
       style="fill:#000000;stroke-width:0.0681932;fill-opacity:1"
       id="rect23"
       width="3.6164138"
       height="2.2350664"
       x="96.88903"
       y="-33.382557"
       transform="rotate(30)" />
    <path
       id="path23"
       style="stroke-width:0.0681932;fill:#000000;fill-opacity:1"
       d="m 105.033,11.162342 3.1319,1.808205 -1.11753,1.935624 -3.1319,-1.808205 z"
       sodipodi:nodetypes="ccccc" />
    <path
       id="path25"
       style="stroke-width:0.0728307;fill:#000000;fill-opacity:1"
       d="m 100.53954,15.598894 4.49346,-4.436554 0.46076,0.909553 -4.49346,4.436546 z"
       sodipodi:nodetypes="ccccc" />
    <rect
       style="fill:#000000;stroke-width:0.0681932;fill-opacity:1"
       id="rect26"
       width="2.4623613"
       height="7.9742613"
       x="105.70255"
       y="12.970548" />
    <rect
       style="fill:#000000;stroke-width:0.0681932;fill-opacity:1"
       id="rect27"
       width="3.6164138"
       height="2.2350664"
       x="101.54362"
       y="-36.143459"
       transform="rotate(30)" />
    <rect
       style="fill:#000000;stroke-width:0.0681932;fill-opacity:1"
       id="rect28"
       width="3.6164138"
       height="2.2350664"
       x="85.157265"
       y="-36.276409"
       transform="rotate(30)" />
    <rect
       style="fill:#000000;stroke-width:0.0681932;fill-opacity:1"
       id="rect29"
       width="2.4623613"
       height="7.9742613"
       x="91.578011"
       y="13.034257" />
    <rect
       style="fill:#000000;stroke-width:0.0681932;fill-opacity:1"
       id="rect30"
       width="3.6164138"
       height="2.2350664"
       x="89.343285"
       y="-29.02602"
       transform="rotate(30)" />
    <path
       id="path30"
       style="stroke-width:0.0681932;fill:#000000;fill-opacity:1"
       d="m 96.31993,11.162342 3.131905,1.808205 -1.117533,1.935624 -3.131904,-1.808205 z"
       sodipodi:nodetypes="ccccc" />
    <path
       id="path31"
       style="stroke-width:0.0681932;fill:#000000;fill-opacity:1"
       d="m 96.989475,12.970547 h 2.46236 v 4.093624 l -2.46236,2.247935 z"
       sodipodi:nodetypes="ccccc" />
    <path
       id="path32"
       style="stroke-width:0.0728307;fill:#000000;fill-opacity:1"
       d="m 91.826476,15.598894 4.493454,-4.436554 0.460758,0.909553 -4.493456,4.436546 z"
       sodipodi:nodetypes="ccccc" />
    <path
       id="path33"
       style="stroke-width:0.0728307;fill:#000000;fill-opacity:1"
       d="m 93.581156,21.394226 4.493457,-4.436554 0.460757,0.909554 -4.493455,4.436552 z"
       sodipodi:nodetypes="ccccc" />
    <rect
       style="fill:#000000;stroke-width:0.0681932;fill-opacity:1"
       id="rect33"
       width="3.6164138"
       height="2.2350664"
       x="100.76776"
       y="-45.28915"
       transform="rotate(30)" />
    <rect
       style="fill:#000000;stroke-width:0.0681932;fill-opacity:1"
       id="rect34"
       width="2.4623613"
       height="7.9742613"
       x="109.60348"
       y="13.034257" />
    <rect
       style="fill:#000000;stroke-width:0.0681932;fill-opacity:1"
       id="rect35"
       width="3.6164138"
       height="2.2350664"
       x="104.95377"
       y="-38.03875"
       transform="rotate(30)" />
    <rect
       style="fill:#000000;stroke-width:0.0681932;fill-opacity:1"
       id="rect36"
       width="3.6164138"
       height="2.2350664"
       x="105.33781"
       y="-47.927654"
       transform="rotate(30)" />
    <rect
       style="fill:#000000;stroke-width:0.0681932;fill-opacity:1"
       id="rect37"
       width="2.4623613"
       height="7.9742613"
       x="114.88052"
       y="13.034257" />
    <rect
       style="fill:#000000;stroke-width:0.0681932;fill-opacity:1"
       id="rect38"
       width="3.6164138"
       height="2.2350664"
       x="109.52382"
       y="-40.677261"
       transform="rotate(30)" />
    <rect
       style="fill:#000000;stroke-width:0.0681932;fill-opacity:1"
       id="rect39"
       width="1.022827"
       height="8.9023838"
       x="106.09765"
       y="-45.745903"
       transform="rotate(30)" />
    <rect
       style="fill:#000000;stroke-width:0.0681932;fill-opacity:1"
       id="rect40"
       width="3.6164138"
       height="2.2350664"
       x="94.6353"
       y="-27.327608"
       transform="rotate(30)" />
    <rect
       style="fill:#000000;stroke-width:0.0681932;fill-opacity:1"
       id="rect41"
       width="2.4623613"
       height="7.9742613"
       x="95.311821"
       y="25.523159" />
    <rect
       style="fill:#000000;stroke-width:0.0681932;fill-opacity:1"
       id="rect42"
       width="3.6164138"
       height="2.2350664"
       x="98.821304"
       y="-20.077221"
       transform="rotate(30)" />
    <path
       id="path42"
       style="stroke-width:0.0681932;fill:#000000;fill-opacity:1"
       d="m 99.875088,27.13578 3.131902,1.808207 -1.11754,1.935624 -3.131896,-1.808206 z"
       sodipodi:nodetypes="ccccc" />
    <path
       id="path43"
       style="stroke-width:0.0681932;fill:#000000;fill-opacity:1"
       d="m 100.54463,28.943987 h 2.46236 v 4.093629 l -2.46236,2.247935 z"
       sodipodi:nodetypes="ccccc" />
    <path
       id="path44"
       style="stroke-width:0.0728307;fill:#000000;fill-opacity:1"
       d="m 95.381632,31.572332 4.493456,-4.436553 0.460762,0.909552 -4.493462,4.436552 z"
       sodipodi:nodetypes="ccccc" />
    <path
       id="path45"
       style="stroke-width:0.0728307;fill:#000000;fill-opacity:1"
       d="m 97.136312,37.36767 4.493458,-4.436552 0.46075,0.909553 -4.49345,4.436551 z"
       sodipodi:nodetypes="ccccc" />
    <path
       id="path46"
       style="stroke-width:0.0728307;fill:#000000;fill-opacity:1"
       d="m 96.830304,26.852569 2.72462,-3.201325 0.460756,0.909552 -2.245722,2.834282 z"
       sodipodi:nodetypes="ccccc" />
    <path
       id="path47"
       style="stroke-width:0.0681932;fill:#000000;fill-opacity:1"
       d="m 99.554924,23.651244 3.131906,1.808207 -1.11753,1.935625 -3.131909,-1.808206 z"
       sodipodi:nodetypes="ccccc" />
    <rect
       style="fill:#000000;stroke-width:0.0681932;fill-opacity:1"
       id="rect47"
       width="3.6164138"
       height="2.2350664"
       x="109.71848"
       y="-36.035873"
       transform="rotate(30)" />
    <rect
       style="fill:#000000;stroke-width:0.0681932;fill-opacity:1"
       id="rect48"
       width="2.4623613"
       height="7.9742613"
       x="112.72836"
       y="25.523159" />
    <rect
       style="fill:#000000;stroke-width:0.0681932;fill-opacity:1"
       id="rect49"
       width="3.6164138"
       height="2.2350664"
       x="113.90446"
       y="-28.785488"
       transform="rotate(30)" />
    <path
       id="path49"
       style="stroke-width:0.0681932;fill:#000000;fill-opacity:1"
       d="m 117.47028,23.651244 3.1319,1.808206 -1.11753,1.935623 -3.1319,-1.808205 z"
       sodipodi:nodetypes="ccccc" />
    <path
       id="path50"
       style="stroke-width:0.0728307;fill:#000000;fill-opacity:1"
       d="m 112.97682,28.087796 4.49346,-4.436553 0.46076,0.909552 -4.49346,4.436553 z"
       sodipodi:nodetypes="ccccc" />
    <rect
       style="fill:#000000;stroke-width:0.0681932;fill-opacity:1"
       id="rect50"
       width="2.4623613"
       height="7.9742613"
       x="118.13982"
       y="25.45945" />
    <rect
       style="fill:#000000;stroke-width:0.0681932;fill-opacity:1"
       id="rect51"
       width="3.6164138"
       height="2.2350664"
       x="118.5591"
       y="-31.546392"
       transform="rotate(30)" />
    <rect
       style="fill:#000000;stroke-width:0.0681932;fill-opacity:1"
       id="rect52"
       width="3.6164138"
       height="2.2350664"
       x="102.17271"
       y="-31.67934"
       transform="rotate(30)" />
    <rect
       style="fill:#000000;stroke-width:0.0681932;fill-opacity:1"
       id="rect53"
       width="2.4623613"
       height="7.9742613"
       x="104.01529"
       y="25.523159" />
    <rect
       style="fill:#000000;stroke-width:0.0681932;fill-opacity:1"
       id="rect54"
       width="3.6164138"
       height="2.2350664"
       x="106.35873"
       y="-24.428957"
       transform="rotate(30)" />
    <path
       id="path54"
       style="stroke-width:0.0681932;fill:#000000;fill-opacity:1"
       d="m 108.75721,23.651244 3.1319,1.808206 -1.11753,1.935623 -3.13191,-1.808205 z"
       sodipodi:nodetypes="ccccc" />
    <path
       id="path55"
       style="stroke-width:0.0681932;fill:#000000;fill-opacity:1"
       d="m 109.42675,25.45945 h 2.46236 v 4.09363 l -2.46236,2.247936 z"
       sodipodi:nodetypes="ccccc" />
    <path
       id="path56"
       style="stroke-width:0.0728307;fill:#000000;fill-opacity:1"
       d="m 104.26375,28.087796 4.49346,-4.436553 0.46075,0.909552 -4.49346,4.436553 z"
       sodipodi:nodetypes="ccccc" />
    <path
       id="path57"
       style="stroke-width:0.0728307;fill:#000000;fill-opacity:1"
       d="m 106.01843,33.883134 4.49346,-4.436552 0.46076,0.909553 -4.49346,4.436554 z"
       sodipodi:nodetypes="ccccc" />
    <path
       id="path62"
       style="stroke-width:0.0681932;fill:#000000;fill-opacity:1"
       d="m 124.54715,22.875208 -3.04017,2.851616 -0.0282,1.150636 2.19646,-1.924849 2.23443,1.290002 -2.70945,2.387589 -1.61724,1.477797 4.01051,-0.01659 v 3.882362 l -1.18011,-0.942153 -6.27359,4.67764 v 1.070305 l 4.7651,-3.423562 2.6886,1.887412 2.46239,-2.462389 v -4.699847 l 0.38802,-1.450969 h -3.72117 l 3.90865,-3.439023 -0.95231,-0.507755 z" />
    <path
       style="fill:#000000;stroke-width:0.0661674;fill-opacity:1"
       d="m 112.25963,10.756062 3.29395,-4.3863347 1.91536,-0.17671 3.54734,4.2703727 4.79415,2.021699 1.39217,3.443084 5.37735,2.824974 -1.06326,3.26035 2.03852,-2.620776 1.26734,-0.554432 -1.03877,-2.305799 -5.7662,-1.546748 -1.06996,-2.882465 -5.82649,-3.0390797 -3.74441,-5.333174 -3.49745,1.191986 -1.74714,4.214788 z"
       id="path93"
       sodipodi:nodetypes="cccccccccccccccccc" />
    <path
       style="fill:#000000;stroke-width:0.0681932;fill-opacity:1"
       d="m 122.33438,13.044768 -2.46235,1.057444 2.65177,0.45459 1.09859,-0.65098 z"
       id="path94" />
    <path
       style="fill:#000000;stroke-width:0.0482198;fill-opacity:1"
       d="m 118.10588,18.711742 9.26844,-1.219683 0.18952,0.730052 z"
       id="path95" />
    <path
       style="fill:#000000;stroke-width:0.0482198;fill-opacity:1"
       d="m 118.45956,20.963757 9.08442,-2.205568 0.26665,0.705547 z"
       id="path96" />
    <path
       style="fill:#000000;stroke-width:0.0482198;fill-opacity:1"
       d="m 119.45998,24.258611 8.33626,-4.230614 0.42138,0.625572 z"
       id="path97" />
    <path
       style="fill:#000000;stroke-width:0.0681932;fill-opacity:1"
       d="m 126.54683,22.30975 5.89312,-0.267868 -0.48216,1.714364 -0.99039,-0.08825 -4.42057,-0.393913 z"
       id="path98"
       sodipodi:nodetypes="cccccc" />
    <path
       id="rect11"
       style="fill:#000000;stroke-width:0.0681932"
       d="M 134.64386 -1.5436175 L 132.21106 1.237567 L 132.80532 5.7612202 L 133.72486 7.0986195 L 134.38427 1.6530482 L 135.95446 0.54242829 L 141.16203 2.4670312 L 146.32456 1.8207613 L 149.25181 4.106579 L 155.3214 3.8645064 L 156.03051 7.2197301 L 156.48551 3.9305351 L 157.30605 2.8165229 L 155.25317 1.3392459 L 149.48628 2.8828137 L 147.11863 0.92133671 L 140.55318 1.2026656 L 134.64386 -1.5436175 z M 102.78158 25.432744 L 102.78147 27.668076 L 103.71588 27.668017 L 106.96762 33.300195 L 106.96752 34.918526 L 110.58408 34.918383 L 110.58374 32.683309 L 110.58188 32.683189 L 111.72386 28.527159 L 112.28397 26.761539 L 110.49777 23.667757 L 112.24135 23.667749 L 113.32626 23.667918 L 113.60675 21.768362 L 113.93435 21.768377 L 117.61268 28.139429 L 115.36709 33.248886 L 115.99108 34.329673 L 118.23668 29.220217 L 119.51676 26.512621 L 116.61668 21.489532 L 116.61685 19.872355 L 117.21834 19.872369 L 120.47008 25.504547 L 120.47042 27.122619 L 124.08654 27.122734 L 124.08665 24.887403 L 124.08434 24.887541 L 125.22771 20.727723 L 125.78687 18.965633 L 123.74023 15.420739 L 120.1234 15.420435 L 119.51422 17.637455 L 116.28404 17.637096 L 116.2844 19.533222 L 113.00005 19.533104 L 112.65175 21.433026 L 109.7098 21.43273 L 109.71038 23.216557 L 106.62095 23.216083 L 106.01176 25.433103 L 102.78158 25.432744 z M 123.82986 13.280514 L 123.83019 15.515587 L 124.76416 15.515787 L 128.0159 21.147965 L 128.01624 22.766038 L 131.63236 22.766153 L 131.63247 20.530821 L 130.50288 20.530787 L 127.50307 15.334952 L 128.06222 13.298973 L 129.73311 13.299161 L 132.67066 18.387141 L 132.67056 20.005472 L 136.28712 20.005329 L 136.28727 18.110097 L 139.69732 18.109848 L 139.69698 15.874774 L 138.56784 15.874482 L 138.24745 15.319544 L 138.24764 9.6912817 L 140.65059 13.85332 L 140.65094 15.471393 L 144.26706 15.471508 L 144.26717 13.236176 L 143.13758 13.236142 L 140.08118 7.9422973 L 140.08138 5.9861731 L 136.46455 5.9858688 L 136.46489 8.2209423 L 137.22451 8.2209571 L 137.22477 13.548216 L 135.51118 10.58019 L 135.51119 8.6247717 L 131.89481 8.624209 L 131.8947 10.859541 L 132.82911 10.859482 L 136.08085 16.491661 L 136.08071 17.769891 L 135.15765 17.769963 L 131.28605 11.064158 L 127.66922 11.063853 L 127.06004 13.280873 L 123.82986 13.280514 z M 143.59385 4.0435742 L 141.99046 6.1901553 L 144.51412 5.2582237 L 145.14001 4.1450142 L 143.59385 4.0435742 z M 107.01394 25.451203 L 108.68483 25.451391 L 110.63407 28.827565 L 109.57479 32.683443 L 109.45486 32.683464 L 106.45453 27.486734 L 107.01394 25.451203 z M 120.5164 17.655555 L 122.18729 17.655742 L 124.13679 21.032364 L 123.07769 24.887537 L 122.95706 24.887369 L 119.95724 19.691533 L 120.5164 17.655555 z M 150.18226 5.375025 L 142.76557 11.065282 L 150.7116 5.9125601 L 150.18226 5.375025 z M 150.96253 6.3864683 L 144.19771 12.838889 L 151.54641 6.8644705 L 150.96253 6.3864683 z M 151.81603 7.3604091 L 146.71158 15.192119 L 152.49341 7.6913402 L 151.81603 7.3604091 z M 156.84446 6.7826154 L 151.87466 9.9610267 L 152.3568 10.79612 L 156.38187 8.9269372 L 157.28397 8.5081464 L 156.84446 6.7826154 z M 150.42538 11.450565 L 149.21831 15.440103 L 149.76956 16.450707 L 150.70909 13.68553 L 153.2894 13.685771 L 152.13672 17.108062 L 151.47492 19.196737 L 154.93968 17.176664 L 156.88091 20.538965 L 155.38816 20.313002 L 152.29356 27.501071 L 152.82867 28.427908 L 155.24357 23.080473 L 158.51569 23.370494 L 159.41698 20.006817 L 157.06726 15.93697 L 156.67782 14.486258 L 153.45514 16.346868 L 155.12074 11.414146 L 154.04195 11.450421 L 150.42538 11.450565 z M 125.76247 26.585956 L 125.76236 28.821288 L 126.69678 28.82123 L 129.94826 34.45296 L 129.94816 36.071291 L 133.56498 36.071595 L 133.56464 33.836521 L 132.43576 33.836677 L 131.08933 31.504592 L 131.58227 29.711517 L 133.25316 29.711705 L 135.20265 33.088327 L 133.93332 37.706937 L 134.78727 38.264115 L 136.29105 32.791709 L 136.85274 31.021595 L 134.80583 27.476254 L 131.18927 27.476397 L 130.4072 30.323111 L 129.49692 28.746459 L 129.77597 26.853703 L 132.78643 26.853823 L 132.78609 24.618749 L 129.16998 24.618634 L 128.80883 26.586237 L 125.76247 26.585956 z M 133.29979 22.234284 L 133.29968 24.469616 L 134.23409 24.469557 L 137.48583 30.101735 L 137.48573 31.720066 L 141.1023 31.719923 L 141.10241 29.484591 L 141.1001 29.484729 L 142.24094 25.332935 L 142.80263 23.562821 L 140.75573 20.01748 L 137.13916 20.017623 L 136.53017 22.233937 L 133.29979 22.234284 z M 140.84561 17.877702 L 140.8455 20.113034 L 141.77991 20.112976 L 145.03165 25.745154 L 145.03129 27.363037 L 148.64812 27.363341 L 148.64778 25.128267 L 147.5189 25.128423 L 144.51831 19.931245 L 145.07753 17.89642 L 146.74816 17.89616 L 149.68623 22.985035 L 149.68606 24.602212 L 153.30262 24.602069 L 153.30254 22.367443 L 152.17296 22.367409 L 148.3011 15.661157 L 144.68498 15.661042 L 144.0758 17.878061 L 140.84561 17.877702 z M 137.53171 22.253001 L 139.20305 22.252931 L 141.15254 25.629552 L 140.09274 29.484536 L 139.97282 29.484557 L 136.97249 24.287826 L 137.53171 22.253001 z "
       transform="rotate(30)" />
  </g>
</svg>
