999
"DXF R12 Output" (www.mydxf.blogspot.com)
 0 
SECTION
 2 
HEADER
 9 
$ACADVER
 1 
AC1009
 9 
$EXTMIN
 10 
 0 
 20 
 0 
 9 
$EXTMAX
 10 
 8.5 
 20 
 11 
 0 
ENDSEC
 0 
SECTION
 2 
ENTITIES
0
LINE
8
Layer 1
10
94.400317
20
281.633240
11
94.401023
21
278.438265
0
LINE
8
Layer 1
10
94.401023
20
278.438265
11
21.372034
21
278.464515
0
LINE
8
Layer 1
10
21.372034
20
278.464515
11
21.377544
21
264.064048
0
LINE
8
Layer 1
10
21.377544
20
264.064048
11
42.871465
21
264.024092
0
LINE
8
Layer 1
10
42.871465
20
264.024092
11
42.873582
21
260.810512
0
LINE
8
Layer 1
10
42.873582
20
260.810512
11
51.254787
21
260.807690
0
LINE
8
Layer 1
10
51.254787
20
260.807690
11
51.252670
21
264.019891
0
LINE
8
Layer 1
10
51.252670
20
264.019891
11
128.998033
21
264.007403
0
LINE
8
Layer 1
10
128.998033
20
264.007403
11
132.145463
21
267.152768
0
LINE
8
Layer 1
10
132.145463
20
267.152768
11
132.141935
21
281.619381
0
LINE
8
Layer 1
10
132.141935
20
281.619381
11
94.400317
21
281.633240
0
LINE
8
Layer 1
10
94.400317
20
257.089240
11
94.401023
21
253.894265
0
LINE
8
Layer 1
10
94.401023
20
253.894265
11
21.372034
21
253.920515
0
LINE
8
Layer 1
10
21.372034
20
253.920515
11
21.377544
21
239.520048
0
LINE
8
Layer 1
10
21.377544
20
239.520048
11
42.871465
21
239.480092
0
LINE
8
Layer 1
10
42.871465
20
239.480092
11
42.873582
21
236.266512
0
LINE
8
Layer 1
10
42.873582
20
236.266512
11
51.254787
21
236.263690
0
LINE
8
Layer 1
10
51.254787
20
236.263690
11
51.252670
21
239.475891
0
LINE
8
Layer 1
10
51.252670
20
239.475891
11
128.998033
21
239.463403
0
LINE
8
Layer 1
10
128.998033
20
239.463403
11
132.145463
21
242.608768
0
LINE
8
Layer 1
10
132.145463
20
242.608768
11
132.141935
21
257.075381
0
LINE
8
Layer 1
10
132.141935
20
257.075381
11
94.400317
21
257.089240
0
LINE
8
Layer 1
10
94.400317
20
232.545240
11
94.401023
21
229.350265
0
LINE
8
Layer 1
10
94.401023
20
229.350265
11
21.372034
21
229.376515
0
LINE
8
Layer 1
10
21.372034
20
229.376515
11
21.377544
21
214.976048
0
LINE
8
Layer 1
10
21.377544
20
214.976048
11
42.871465
21
214.936092
0
LINE
8
Layer 1
10
42.871465
20
214.936092
11
42.873582
21
211.722512
0
LINE
8
Layer 1
10
42.873582
20
211.722512
11
51.254787
21
211.719690
0
LINE
8
Layer 1
10
51.254787
20
211.719690
11
51.252670
21
214.931891
0
LINE
8
Layer 1
10
51.252670
20
214.931891
11
128.998033
21
214.919403
0
LINE
8
Layer 1
10
128.998033
20
214.919403
11
132.145463
21
218.064768
0
LINE
8
Layer 1
10
132.145463
20
218.064768
11
132.141935
21
232.531381
0
LINE
8
Layer 1
10
132.141935
20
232.531381
11
94.400317
21
232.545240
0
LINE
8
Layer 1
10
94.400317
20
208.001240
11
94.401023
21
204.806265
0
LINE
8
Layer 1
10
94.401023
20
204.806265
11
21.372034
21
204.832515
0
LINE
8
Layer 1
10
21.372034
20
204.832515
11
21.377544
21
190.432048
0
LINE
8
Layer 1
10
21.377544
20
190.432048
11
42.871465
21
190.392092
0
LINE
8
Layer 1
10
42.871465
20
190.392092
11
42.873582
21
187.178512
0
LINE
8
Layer 1
10
42.873582
20
187.178512
11
51.254787
21
187.175690
0
LINE
8
Layer 1
10
51.254787
20
187.175690
11
51.252670
21
190.387891
0
LINE
8
Layer 1
10
51.252670
20
190.387891
11
128.998033
21
190.375403
0
LINE
8
Layer 1
10
128.998033
20
190.375403
11
132.145463
21
193.520768
0
LINE
8
Layer 1
10
132.145463
20
193.520768
11
132.141935
21
207.987381
0
LINE
8
Layer 1
10
132.141935
20
207.987381
11
94.400317
21
208.001240
0
LINE
8
Layer 1
10
94.400317
20
183.457240
11
94.401023
21
180.262265
0
LINE
8
Layer 1
10
94.401023
20
180.262265
11
21.372034
21
180.288515
0
LINE
8
Layer 1
10
21.372034
20
180.288515
11
21.377544
21
165.888048
0
LINE
8
Layer 1
10
21.377544
20
165.888048
11
42.871465
21
165.848092
0
LINE
8
Layer 1
10
42.871465
20
165.848092
11
42.873582
21
162.634512
0
LINE
8
Layer 1
10
42.873582
20
162.634512
11
51.254787
21
162.631690
0
LINE
8
Layer 1
10
51.254787
20
162.631690
11
51.252670
21
165.843891
0
LINE
8
Layer 1
10
51.252670
20
165.843891
11
128.998033
21
165.831403
0
LINE
8
Layer 1
10
128.998033
20
165.831403
11
132.145463
21
168.976768
0
LINE
8
Layer 1
10
132.145463
20
168.976768
11
132.141935
21
183.443381
0
LINE
8
Layer 1
10
132.141935
20
183.443381
11
94.400317
21
183.457240
0
LINE
8
Layer 1
10
94.400317
20
158.913240
11
94.401023
21
155.718265
0
LINE
8
Layer 1
10
94.401023
20
155.718265
11
21.372034
21
155.744515
0
LINE
8
Layer 1
10
21.372034
20
155.744515
11
21.377544
21
141.344048
0
LINE
8
Layer 1
10
21.377544
20
141.344048
11
42.871465
21
141.304092
0
LINE
8
Layer 1
10
42.871465
20
141.304092
11
42.873582
21
138.090512
0
LINE
8
Layer 1
10
42.873582
20
138.090512
11
51.254787
21
138.087690
0
LINE
8
Layer 1
10
51.254787
20
138.087690
11
51.252670
21
141.299891
0
LINE
8
Layer 1
10
51.252670
20
141.299891
11
128.998033
21
141.287403
0
LINE
8
Layer 1
10
128.998033
20
141.287403
11
132.145463
21
144.432768
0
LINE
8
Layer 1
10
132.145463
20
144.432768
11
132.141935
21
158.899381
0
LINE
8
Layer 1
10
132.141935
20
158.899381
11
94.400317
21
158.913240
0
LINE
8
Layer 1
10
94.400317
20
134.369240
11
94.401023
21
131.174265
0
LINE
8
Layer 1
10
94.401023
20
131.174265
11
21.372034
21
131.200515
0
LINE
8
Layer 1
10
21.372034
20
131.200515
11
21.377544
21
116.800048
0
LINE
8
Layer 1
10
21.377544
20
116.800048
11
42.871465
21
116.760092
0
LINE
8
Layer 1
10
42.871465
20
116.760092
11
42.873582
21
113.546512
0
LINE
8
Layer 1
10
42.873582
20
113.546512
11
51.254787
21
113.543690
0
LINE
8
Layer 1
10
51.254787
20
113.543690
11
51.252670
21
116.755891
0
LINE
8
Layer 1
10
51.252670
20
116.755891
11
128.998033
21
116.743403
0
LINE
8
Layer 1
10
128.998033
20
116.743403
11
132.145463
21
119.888768
0
LINE
8
Layer 1
10
132.145463
20
119.888768
11
132.141935
21
134.355381
0
LINE
8
Layer 1
10
132.141935
20
134.355381
11
94.400317
21
134.369240
0
LINE
8
Layer 1
10
94.400317
20
109.824240
11
94.401023
21
106.629265
0
LINE
8
Layer 1
10
94.401023
20
106.629265
11
21.372034
21
106.655515
0
LINE
8
Layer 1
10
21.372034
20
106.655515
11
21.377544
21
92.255048
0
LINE
8
Layer 1
10
21.377544
20
92.255048
11
42.871465
21
92.215092
0
LINE
8
Layer 1
10
42.871465
20
92.215092
11
42.873582
21
89.001512
0
LINE
8
Layer 1
10
42.873582
20
89.001512
11
51.254787
21
88.998690
0
LINE
8
Layer 1
10
51.254787
20
88.998690
11
51.252670
21
92.210891
0
LINE
8
Layer 1
10
51.252670
20
92.210891
11
128.998033
21
92.198403
0
LINE
8
Layer 1
10
128.998033
20
92.198403
11
132.145463
21
95.343768
0
LINE
8
Layer 1
10
132.145463
20
95.343768
11
132.141935
21
109.810381
0
LINE
8
Layer 1
10
132.141935
20
109.810381
11
94.400317
21
109.824240
0
LINE
8
Layer 1
10
94.400317
20
85.280240
11
94.401023
21
82.085265
0
LINE
8
Layer 1
10
94.401023
20
82.085265
11
21.372034
21
82.111515
0
LINE
8
Layer 1
10
21.372034
20
82.111515
11
21.377544
21
67.711048
0
LINE
8
Layer 1
10
21.377544
20
67.711048
11
42.871465
21
67.671092
0
LINE
8
Layer 1
10
42.871465
20
67.671092
11
42.873582
21
64.457512
0
LINE
8
Layer 1
10
42.873582
20
64.457512
11
51.254787
21
64.454690
0
LINE
8
Layer 1
10
51.254787
20
64.454690
11
51.252670
21
67.666891
0
LINE
8
Layer 1
10
51.252670
20
67.666891
11
128.998033
21
67.654403
0
LINE
8
Layer 1
10
128.998033
20
67.654403
11
132.145463
21
70.799768
0
LINE
8
Layer 1
10
132.145463
20
70.799768
11
132.141935
21
85.266381
0
LINE
8
Layer 1
10
132.141935
20
85.266381
11
94.400317
21
85.280240
0
LINE
8
Layer 1
10
94.400317
20
36.192240
11
94.401023
21
32.997265
0
LINE
8
Layer 1
10
94.401023
20
32.997265
11
21.372034
21
33.023515
0
LINE
8
Layer 1
10
21.372034
20
33.023515
11
21.377544
21
18.623048
0
LINE
8
Layer 1
10
21.377544
20
18.623048
11
42.871465
21
18.583092
0
LINE
8
Layer 1
10
42.871465
20
18.583092
11
42.873582
21
15.369512
0
LINE
8
Layer 1
10
42.873582
20
15.369512
11
51.254787
21
15.366690
0
LINE
8
Layer 1
10
51.254787
20
15.366690
11
51.252670
21
18.578891
0
LINE
8
Layer 1
10
51.252670
20
18.578891
11
128.998033
21
18.566403
0
LINE
8
Layer 1
10
128.998033
20
18.566403
11
132.145463
21
21.711768
0
LINE
8
Layer 1
10
132.145463
20
21.711768
11
132.141935
21
36.178381
0
LINE
8
Layer 1
10
132.141935
20
36.178381
11
94.400317
21
36.192240
0
LINE
8
Layer 1
10
94.400317
20
60.736340
11
94.401023
21
57.541365
0
LINE
8
Layer 1
10
94.401023
20
57.541365
11
21.372034
21
57.567615
0
LINE
8
Layer 1
10
21.372034
20
57.567615
11
21.377544
21
43.167148
0
LINE
8
Layer 1
10
21.377544
20
43.167148
11
42.871465
21
43.127192
0
LINE
8
Layer 1
10
42.871465
20
43.127192
11
42.873582
21
39.913612
0
LINE
8
Layer 1
10
42.873582
20
39.913612
11
51.254787
21
39.910790
0
LINE
8
Layer 1
10
51.254787
20
39.910790
11
51.252670
21
43.122991
0
LINE
8
Layer 1
10
51.252670
20
43.122991
11
128.998033
21
43.110503
0
LINE
8
Layer 1
10
128.998033
20
43.110503
11
132.145463
21
46.255868
0
LINE
8
Layer 1
10
132.145463
20
46.255868
11
132.141935
21
60.722481
0
LINE
8
Layer 1
10
132.141935
20
60.722481
11
94.400317
21
60.736340
0
LINE
8
Layer 1
10
188.628240
20
192.503493
11
185.433265
21
192.502787
0
LINE
8
Layer 1
10
185.433265
20
192.502787
11
185.459515
21
265.531776
0
LINE
8
Layer 1
10
185.459515
20
265.531776
11
171.059048
21
265.526266
0
LINE
8
Layer 1
10
171.059048
20
265.526266
11
171.019092
21
244.032345
0
LINE
8
Layer 1
10
171.019092
20
244.032345
11
167.805512
21
244.030228
0
LINE
8
Layer 1
10
167.805512
20
244.030228
11
167.802690
21
235.649023
0
LINE
8
Layer 1
10
167.802690
20
235.649023
11
171.014891
21
235.651140
0
LINE
8
Layer 1
10
171.014891
20
235.651140
11
171.002403
21
157.905777
0
LINE
8
Layer 1
10
171.002403
20
157.905777
11
174.147768
21
154.758347
0
LINE
8
Layer 1
10
174.147768
20
154.758347
11
188.614381
21
154.761875
0
LINE
8
Layer 1
10
188.614381
20
154.761875
11
188.628240
21
192.503493
0
LINE
8
Layer 1
10
164.084240
20
192.503493
11
160.889265
21
192.502787
0
LINE
8
Layer 1
10
160.889265
20
192.502787
11
160.915515
21
265.531776
0
LINE
8
Layer 1
10
160.915515
20
265.531776
11
146.515048
21
265.526266
0
LINE
8
Layer 1
10
146.515048
20
265.526266
11
146.475092
21
244.032345
0
LINE
8
Layer 1
10
146.475092
20
244.032345
11
143.261512
21
244.030228
0
LINE
8
Layer 1
10
143.261512
20
244.030228
11
143.258690
21
235.649023
0
LINE
8
Layer 1
10
143.258690
20
235.649023
11
146.470891
21
235.651140
0
LINE
8
Layer 1
10
146.470891
20
235.651140
11
146.458403
21
157.905777
0
LINE
8
Layer 1
10
146.458403
20
157.905777
11
149.603768
21
154.758347
0
LINE
8
Layer 1
10
149.603768
20
154.758347
11
164.070381
21
154.761875
0
LINE
8
Layer 1
10
164.070381
20
154.761875
11
164.084240
21
192.503493
0
LINE
8
Layer 1
10
188.628240
20
69.213493
11
185.433265
21
69.212787
0
LINE
8
Layer 1
10
185.433265
20
69.212787
11
185.459515
21
142.241776
0
LINE
8
Layer 1
10
185.459515
20
142.241776
11
171.059048
21
142.236266
0
LINE
8
Layer 1
10
171.059048
20
142.236266
11
171.019092
21
120.742345
0
LINE
8
Layer 1
10
171.019092
20
120.742345
11
167.805512
21
120.740228
0
LINE
8
Layer 1
10
167.805512
20
120.740228
11
167.802690
21
112.359023
0
LINE
8
Layer 1
10
167.802690
20
112.359023
11
171.014891
21
112.361140
0
LINE
8
Layer 1
10
171.014891
20
112.361140
11
171.002403
21
34.615777
0
LINE
8
Layer 1
10
171.002403
20
34.615777
11
174.147768
21
31.468347
0
LINE
8
Layer 1
10
174.147768
20
31.468347
11
188.614381
21
31.471875
0
LINE
8
Layer 1
10
188.614381
20
31.471875
11
188.628240
21
69.213493
0
LINE
8
Layer 1
10
164.084240
20
69.213493
11
160.889265
21
69.212787
0
LINE
8
Layer 1
10
160.889265
20
69.212787
11
160.915515
21
142.241776
0
LINE
8
Layer 1
10
160.915515
20
142.241776
11
146.515048
21
142.236266
0
LINE
8
Layer 1
10
146.515048
20
142.236266
11
146.475092
21
120.742345
0
LINE
8
Layer 1
10
146.475092
20
120.742345
11
143.261512
21
120.740228
0
LINE
8
Layer 1
10
143.261512
20
120.740228
11
143.258690
21
112.359023
0
LINE
8
Layer 1
10
143.258690
20
112.359023
11
146.470891
21
112.361140
0
LINE
8
Layer 1
10
146.470891
20
112.361140
11
146.458403
21
34.615777
0
LINE
8
Layer 1
10
146.458403
20
34.615777
11
149.603768
21
31.468347
0
LINE
8
Layer 1
10
149.603768
20
31.468347
11
164.070381
21
31.471875
0
LINE
8
Layer 1
10
164.070381
20
31.471875
11
164.084240
21
69.213493
0
LINE
8
1
10
0.570870
20
297.000000
11
209.428872
21
297.000000
0
LINE
8
1
10
209.428872
20
297.000000
11
209.832538
21
296.832796
0
LINE
8
1
10
209.832538
20
296.832796
11
209.999741
21
296.429130
0
LINE
8
1
10
209.999741
20
296.429130
11
209.999741
21
0.571240
0
LINE
8
1
10
209.999741
20
0.571240
11
209.832538
21
0.167574
0
LINE
8
1
10
209.832538
20
0.167574
11
209.428872
21
0.000370
0
LINE
8
1
10
209.428872
20
0.000370
11
0.570870
21
0.000370
0
LINE
8
1
10
0.570870
20
0.000370
11
0.167204
21
0.167574
0
LINE
8
1
10
0.167204
20
0.167574
11
0.000000
21
0.571240
0
LINE
8
1
10
0.000000
20
0.571240
11
0.000000
21
296.429130
0
LINE
8
1
10
0.000000
20
296.429130
11
0.167204
21
296.832796
0
LINE
8
1
10
0.167204
20
296.832796
11
0.570870
21
297.000000
0
LINE
8
1
10
0.570870
20
297.000000
11
0.570870
21
297.000000
 0 
ENDSEC
 0 
EOF