<?xml version="1.0" encoding="UTF-8" standalone="no"?>
<!-- Created with Inkscape (http://www.inkscape.org/) -->

<svg
   width="51mm"
   height="71.710678mm"
   viewBox="0 0 51 71.710678"
   version="1.1"
   id="svg1"
   inkscape:version="1.3 (0e150ed6c4, 2023-07-21)"
   sodipodi:docname="5m_red.svg"
   inkscape:export-filename="5m_red.png"
   inkscape:export-xdpi="96"
   inkscape:export-ydpi="96"
   xmlns:inkscape="http://www.inkscape.org/namespaces/inkscape"
   xmlns:sodipodi="http://sodipodi.sourceforge.net/DTD/sodipodi-0.dtd"
   xmlns="http://www.w3.org/2000/svg"
   xmlns:svg="http://www.w3.org/2000/svg">
  <sodipodi:namedview
     id="namedview1"
     pagecolor="#ffffff"
     bordercolor="#000000"
     borderopacity="0.25"
     inkscape:showpageshadow="2"
     inkscape:pageopacity="0.0"
     inkscape:pagecheckerboard="0"
     inkscape:deskcolor="#d1d1d1"
     inkscape:document-units="mm"
     inkscape:zoom="2.4743578"
     inkscape:cx="95.984502"
     inkscape:cy="44.253907"
     inkscape:window-width="1920"
     inkscape:window-height="1009"
     inkscape:window-x="-8"
     inkscape:window-y="-8"
     inkscape:window-maximized="1"
     inkscape:current-layer="layer1" />
  <defs
     id="defs1" />
  <g
     inkscape:label="Layer 1"
     inkscape:groupmode="layer"
     id="layer1"
     transform="translate(-14.017311,-93.862518)">
    <rect
       style="fill:#ffffff;stroke:#000000;stroke-width:1;stroke-opacity:1"
       id="rect1"
       width="50"
       height="70.710678"
       x="14.517311"
       y="94.362518"
       ry="0.85131508" />
    <path
       style="fill:none;stroke:#800000;stroke-width:2.2;stroke-opacity:1;stroke-dasharray:none"
       d="m 24.964199,136.3559 c 22.600834,-0.74054 11.074971,-4.41727 29.110235,-4.00738"
       id="path2"
       sodipodi:nodetypes="cc" />
    <path
       style="fill:none;stroke:#800000;stroke-width:2.2;stroke-dasharray:none;stroke-opacity:1"
       d="m 41.16188,126.98003 c 0.503745,4.28758 -0.337609,4.83945 -0.506413,7.25917"
       id="path3"
       sodipodi:nodetypes="cc" />
    <path
       style="fill:#800000;stroke:#800000;stroke-width:2.2;stroke-dasharray:none;stroke-opacity:1"
       d="m 36.020112,128.71919 0.947898,6.55191"
       id="path4" />
    <path
       style="fill:none;fill-opacity:1;stroke:#800000;stroke-width:2.2;stroke-dasharray:none;stroke-opacity:1"
       d="m 37.759165,138.88886 c 0,0 -0.0126,11.74236 0.0025,15.62455 0.0011,0.2768 1.379196,3.28273 7.615324,1.85082 2.83959,-0.65201 6.633726,-2.08057 5.46288,-4.95374 -1.81466,-4.45304 -25.900231,2.41155 -25.900231,2.41155"
       id="path6"
       sodipodi:nodetypes="csssc" />
    <path
       style="fill:none;fill-opacity:1;stroke:#800000;stroke-width:2.2;stroke-dasharray:none;stroke-opacity:1"
       d="M 32.617617,144.29505 42.875505,142.5567"
       id="path7" />
    <path
       id="path10"
       style="fill:none;fill-opacity:1;stroke:#800000;stroke-width:2.2;stroke-dasharray:none;stroke-opacity:1"
       d="m 27.495992,146.95331 1.708139,9.78411 13.338648,-4.19326 0.357934,-14.52482 -10.283096,1.73905 -0.183791,9.3656 9.962972,-1.76814"
       sodipodi:nodetypes="ccccccc" />
    <path
       style="fill:none;stroke:#800000;stroke-width:2.2"
       d="m 50.368063,105.4905 -3.528695,-2.99405 -13.473193,1.76436 c 0,0 0.956016,5.49324 -4.858484,11.56891 -1.996495,2.08617 -4.507963,3.87893 -5.192945,4.41713"
       id="path8"
       sodipodi:nodetypes="cccsc" />
    <path
       style="fill:none;stroke:#800000;stroke-width:2.2"
       d="m 31.548364,112.44095 0.427721,7.8059 13.687052,-2.78018 -0.320789,-6.52274 z"
       id="path9" />
    <path
       style="fill:none;stroke:#800000;stroke-width:2.2"
       d="m 37.0018,104.52813 -2.138603,14.97021"
       id="path11"
       sodipodi:nodetypes="cc" />
    <path
       style="fill:none;stroke:#800000;stroke-width:2.2"
       d="m 45.876997,117.68053 7.912827,4.59799"
       id="path12" />
  </g>
</svg>
