<?xml version="1.0" encoding="UTF-8" standalone="no"?>
<!-- Created with Inkscape (http://www.inkscape.org/) -->

<svg
   width="51mm"
   height="71.710678mm"
   viewBox="0 0 51 71.710678"
   version="1.1"
   id="svg1"
   inkscape:version="1.3 (0e150ed6c4, 2023-07-21)"
   sodipodi:docname="9p.svg"
   xml:space="preserve"
   inkscape:export-filename="9p.png"
   inkscape:export-xdpi="96"
   inkscape:export-ydpi="96"
   xmlns:inkscape="http://www.inkscape.org/namespaces/inkscape"
   xmlns:sodipodi="http://sodipodi.sourceforge.net/DTD/sodipodi-0.dtd"
   xmlns="http://www.w3.org/2000/svg"
   xmlns:svg="http://www.w3.org/2000/svg">&#10;  <sodipodi:namedview
   id="namedview1"
   pagecolor="#ffffff"
   bordercolor="#000000"
   borderopacity="0.25"
   inkscape:showpageshadow="2"
   inkscape:pageopacity="0.0"
   inkscape:pagecheckerboard="0"
   inkscape:deskcolor="#d1d1d1"
   inkscape:document-units="mm"
   inkscape:zoom="2.4743578"
   inkscape:cx="95.984502"
   inkscape:cy="129.12441"
   inkscape:window-width="1920"
   inkscape:window-height="1009"
   inkscape:window-x="-8"
   inkscape:window-y="-8"
   inkscape:window-maximized="1"
   inkscape:current-layer="layer1" />&#10;  <defs
   id="defs1" />&#10;  <g
   inkscape:label="Layer 1"
   inkscape:groupmode="layer"
   id="layer1"
   transform="translate(-14.017311,-93.862518)">&#10;    <rect
   style="fill:#ffffff;stroke:#000000;stroke-width:1;stroke-opacity:1;fill-opacity:1"
   id="rect1"
   width="50"
   height="70.710678"
   x="14.517311"
   y="94.362518"
   ry="0.85131508" />&#10;    &#10;    &#10;    &#10;  <g
   id="g26"
   transform="translate(23.167308,129.71786)"><path
     style="fill:#800000;fill-opacity:1;stroke:none;stroke-width:0.397913"
     d="M -0.3247,0 H 0.3247 V 8.41063 H -0.3247 Z"
     id="path21" /><g
     transform="rotate(72)"
     id="g22">&#10;            <path
   style="fill:#800000;fill-opacity:1;stroke:none;stroke-width:0.397913"
   d="M -0.3247,0 H 0.3247 V 8.41063 H -0.3247 Z"
   id="path22" />&#10;        </g><g
     transform="rotate(144)"
     id="g23">&#10;            <path
   style="fill:#800000;fill-opacity:1;stroke:none;stroke-width:0.397913"
   d="M -0.3247,0 H 0.3247 V 8.41063 H -0.3247 Z"
   id="path23" />&#10;        </g><g
     transform="rotate(-72)"
     id="g24">&#10;            <path
   style="fill:#800000;fill-opacity:1;stroke:none;stroke-width:0.397913"
   d="M -0.3247,0 H 0.3247 V 8.41063 H -0.3247 Z"
   id="path24" />&#10;        </g><g
     transform="rotate(-144)"
     id="g25">&#10;            <path
   style="fill:#800000;fill-opacity:1;stroke:none;stroke-width:0.397913"
   d="M -0.3247,0 H 0.3247 V 8.41063 H -0.3247 Z"
   id="path25" />&#10;        </g><circle
     style="fill:none;stroke:#800000;stroke-width:1.00711;stroke-dasharray:none;stroke-opacity:1"
     id="circle25"
     cx="-1.2516975e-06"
     cy="-1.2516975e-06"
     r="8.4964437" /><circle
     style="fill:#800000;fill-opacity:1;stroke:none;stroke-width:0.67056;stroke-dasharray:none"
     id="circle26"
     cx="1.110223e-16"
     cy="1.110223e-16"
     r="5.5" /></g><g
   id="g11"
   transform="translate(39.517312,129.71786)"><path
     style="fill:#800000;fill-opacity:1;stroke:none;stroke-width:0.397913"
     d="M -0.3247,0 H 0.3247 V 8.41063 H -0.3247 Z"
     id="path6" /><g
     transform="rotate(72)"
     id="g7">&#10;            <path
   style="fill:#800000;fill-opacity:1;stroke:none;stroke-width:0.397913"
   d="M -0.3247,0 H 0.3247 V 8.41063 H -0.3247 Z"
   id="path7" />&#10;        </g><g
     transform="rotate(144)"
     id="g8">&#10;            <path
   style="fill:#800000;fill-opacity:1;stroke:none;stroke-width:0.397913"
   d="M -0.3247,0 H 0.3247 V 8.41063 H -0.3247 Z"
   id="path8" />&#10;        </g><g
     transform="rotate(-72)"
     id="g9">&#10;            <path
   style="fill:#800000;fill-opacity:1;stroke:none;stroke-width:0.397913"
   d="M -0.3247,0 H 0.3247 V 8.41063 H -0.3247 Z"
   id="path9" />&#10;        </g><g
     transform="rotate(-144)"
     id="g10">&#10;            <path
   style="fill:#800000;fill-opacity:1;stroke:none;stroke-width:0.397913"
   d="M -0.3247,0 H 0.3247 V 8.41063 H -0.3247 Z"
   id="path10" />&#10;        </g><circle
     style="fill:none;stroke:#800000;stroke-width:1.00711;stroke-dasharray:none;stroke-opacity:1"
     id="circle10"
     cx="-1.2516975e-06"
     cy="-1.2516975e-06"
     r="8.4964437" /><circle
     style="fill:#800000;fill-opacity:1;stroke:none;stroke-width:0.67056;stroke-dasharray:none"
     id="circle11"
     cx="1.110223e-16"
     cy="1.110223e-16"
     r="5.5" /></g><g
   id="g6"
   transform="translate(23.167308,106.96355)"><path
     style="fill:#005b80;fill-opacity:1;stroke:none;stroke-width:0.397913"
     d="M -0.3247,0 H 0.3247 V 8.41063 H -0.3247 Z"
     id="path1" /><g
     transform="rotate(72)"
     id="g2">&#10;            <path
   style="fill:#005b80;fill-opacity:1;stroke:none;stroke-width:0.397913"
   d="M -0.3247,0 H 0.3247 V 8.41063 H -0.3247 Z"
   id="path2" />&#10;        </g><g
     transform="rotate(144)"
     id="g3">&#10;            <path
   style="fill:#005b80;fill-opacity:1;stroke:none;stroke-width:0.397913"
   d="M -0.3247,0 H 0.3247 V 8.41063 H -0.3247 Z"
   id="path3" />&#10;        </g><g
     transform="rotate(-72)"
     id="g4">&#10;            <path
   style="fill:#005b80;fill-opacity:1;stroke:none;stroke-width:0.397913"
   d="M -0.3247,0 H 0.3247 V 8.41063 H -0.3247 Z"
   id="path4" />&#10;        </g><g
     transform="rotate(-144)"
     id="g5">&#10;            <path
   style="fill:#005b80;fill-opacity:1;stroke:none;stroke-width:0.397913"
   d="M -0.3247,0 H 0.3247 V 8.41063 H -0.3247 Z"
   id="path5" />&#10;        </g><circle
     style="fill:none;stroke:#005b80;stroke-width:1.00711;stroke-dasharray:none;stroke-opacity:1"
     id="circle5"
     cx="-1.2516975e-06"
     cy="-1.2516975e-06"
     r="8.4964437" /><circle
     style="fill:#005b80;fill-opacity:1;stroke:none;stroke-width:0.67056;stroke-dasharray:none"
     id="circle6"
     cx="1.110223e-16"
     cy="1.110223e-16"
     r="5.5" /></g><g
   id="g16"
   transform="translate(39.517312,106.96355)"><path
     style="fill:#005b80;fill-opacity:1;stroke:none;stroke-width:0.397913"
     d="M -0.3247,0 H 0.3247 V 8.41063 H -0.3247 Z"
     id="path11" /><g
     transform="rotate(72)"
     id="g12">&#10;            <path
   style="fill:#005b80;fill-opacity:1;stroke:none;stroke-width:0.397913"
   d="M -0.3247,0 H 0.3247 V 8.41063 H -0.3247 Z"
   id="path12" />&#10;        </g><g
     transform="rotate(144)"
     id="g13">&#10;            <path
   style="fill:#005b80;fill-opacity:1;stroke:none;stroke-width:0.397913"
   d="M -0.3247,0 H 0.3247 V 8.41063 H -0.3247 Z"
   id="path13" />&#10;        </g><g
     transform="rotate(-72)"
     id="g14">&#10;            <path
   style="fill:#005b80;fill-opacity:1;stroke:none;stroke-width:0.397913"
   d="M -0.3247,0 H 0.3247 V 8.41063 H -0.3247 Z"
   id="path14" />&#10;        </g><g
     transform="rotate(-144)"
     id="g15">&#10;            <path
   style="fill:#005b80;fill-opacity:1;stroke:none;stroke-width:0.397913"
   d="M -0.3247,0 H 0.3247 V 8.41063 H -0.3247 Z"
   id="path15" />&#10;        </g><circle
     style="fill:none;stroke:#005b80;stroke-width:1.00711;stroke-dasharray:none;stroke-opacity:1"
     id="circle15"
     cx="-1.2516975e-06"
     cy="-1.2516975e-06"
     r="8.4964437" /><circle
     style="fill:#005b80;fill-opacity:1;stroke:none;stroke-width:0.67056;stroke-dasharray:none"
     id="circle16"
     cx="1.110223e-16"
     cy="1.110223e-16"
     r="5.5" /></g><g
   id="g21"
   transform="translate(23.167308,152.47216)"><path
     style="fill:#005b80;fill-opacity:1;stroke:none;stroke-width:0.397913"
     d="M -0.3247,0 H 0.3247 V 8.41063 H -0.3247 Z"
     id="path16" /><g
     transform="rotate(72)"
     id="g17">&#10;            <path
   style="fill:#005b80;fill-opacity:1;stroke:none;stroke-width:0.397913"
   d="M -0.3247,0 H 0.3247 V 8.41063 H -0.3247 Z"
   id="path17" />&#10;        </g><g
     transform="rotate(144)"
     id="g18">&#10;            <path
   style="fill:#005b80;fill-opacity:1;stroke:none;stroke-width:0.397913"
   d="M -0.3247,0 H 0.3247 V 8.41063 H -0.3247 Z"
   id="path18" />&#10;        </g><g
     transform="rotate(-72)"
     id="g19">&#10;            <path
   style="fill:#005b80;fill-opacity:1;stroke:none;stroke-width:0.397913"
   d="M -0.3247,0 H 0.3247 V 8.41063 H -0.3247 Z"
   id="path19" />&#10;        </g><g
     transform="rotate(-144)"
     id="g20">&#10;            <path
   style="fill:#005b80;fill-opacity:1;stroke:none;stroke-width:0.397913"
   d="M -0.3247,0 H 0.3247 V 8.41063 H -0.3247 Z"
   id="path20" />&#10;        </g><circle
     style="fill:none;stroke:#005b80;stroke-width:1.00711;stroke-dasharray:none;stroke-opacity:1"
     id="circle20"
     cx="-1.2516975e-06"
     cy="-1.2516975e-06"
     r="8.4964437" /><circle
     style="fill:#005b80;fill-opacity:1;stroke:none;stroke-width:0.67056;stroke-dasharray:none"
     id="circle21"
     cx="1.110223e-16"
     cy="1.110223e-16"
     r="5.5" /></g><g
   id="g31"
   transform="translate(39.517312,152.47216)"><path
     style="fill:#005b80;fill-opacity:1;stroke:none;stroke-width:0.397913"
     d="M -0.3247,0 H 0.3247 V 8.41063 H -0.3247 Z"
     id="path26" /><g
     transform="rotate(72)"
     id="g27">&#10;            <path
   style="fill:#005b80;fill-opacity:1;stroke:none;stroke-width:0.397913"
   d="M -0.3247,0 H 0.3247 V 8.41063 H -0.3247 Z"
   id="path27" />&#10;        </g><g
     transform="rotate(144)"
     id="g28">&#10;            <path
   style="fill:#005b80;fill-opacity:1;stroke:none;stroke-width:0.397913"
   d="M -0.3247,0 H 0.3247 V 8.41063 H -0.3247 Z"
   id="path28" />&#10;        </g><g
     transform="rotate(-72)"
     id="g29">&#10;            <path
   style="fill:#005b80;fill-opacity:1;stroke:none;stroke-width:0.397913"
   d="M -0.3247,0 H 0.3247 V 8.41063 H -0.3247 Z"
   id="path29" />&#10;        </g><g
     transform="rotate(-144)"
     id="g30">&#10;            <path
   style="fill:#005b80;fill-opacity:1;stroke:none;stroke-width:0.397913"
   d="M -0.3247,0 H 0.3247 V 8.41063 H -0.3247 Z"
   id="path30" />&#10;        </g><circle
     style="fill:none;stroke:#005b80;stroke-width:1.00711;stroke-dasharray:none;stroke-opacity:1"
     id="circle30"
     cx="-1.2516975e-06"
     cy="-1.2516975e-06"
     r="8.4964437" /><circle
     style="fill:#005b80;fill-opacity:1;stroke:none;stroke-width:0.67056;stroke-dasharray:none"
     id="circle31"
     cx="1.110223e-16"
     cy="1.110223e-16"
     r="5.5" /></g><g
   id="g38"
   transform="translate(55.867316,129.71786)"><path
     style="fill:#800000;fill-opacity:1;stroke:none;stroke-width:0.397913"
     d="M -0.3247,0 H 0.3247 V 8.41063 H -0.3247 Z"
     id="path33" /><g
     transform="rotate(72)"
     id="g34">&#10;            <path
   style="fill:#800000;fill-opacity:1;stroke:none;stroke-width:0.397913"
   d="M -0.3247,0 H 0.3247 V 8.41063 H -0.3247 Z"
   id="path34" />&#10;        </g><g
     transform="rotate(144)"
     id="g35">&#10;            <path
   style="fill:#800000;fill-opacity:1;stroke:none;stroke-width:0.397913"
   d="M -0.3247,0 H 0.3247 V 8.41063 H -0.3247 Z"
   id="path35" />&#10;        </g><g
     transform="rotate(-72)"
     id="g36">&#10;            <path
   style="fill:#800000;fill-opacity:1;stroke:none;stroke-width:0.397913"
   d="M -0.3247,0 H 0.3247 V 8.41063 H -0.3247 Z"
   id="path36" />&#10;        </g><g
     transform="rotate(-144)"
     id="g37">&#10;            <path
   style="fill:#800000;fill-opacity:1;stroke:none;stroke-width:0.397913"
   d="M -0.3247,0 H 0.3247 V 8.41063 H -0.3247 Z"
   id="path37" />&#10;        </g><circle
     style="fill:none;stroke:#800000;stroke-width:1.00711;stroke-dasharray:none;stroke-opacity:1"
     id="circle37"
     cx="-1.2516975e-06"
     cy="-1.2516975e-06"
     r="8.4964437" /><circle
     style="fill:#800000;fill-opacity:1;stroke:none;stroke-width:0.67056;stroke-dasharray:none"
     id="circle38"
     cx="1.110223e-16"
     cy="1.110223e-16"
     r="5.5" /></g><g
   id="g43"
   transform="translate(55.867316,106.96355)"><path
     style="fill:#005b80;fill-opacity:1;stroke:none;stroke-width:0.397913"
     d="M -0.3247,0 H 0.3247 V 8.41063 H -0.3247 Z"
     id="path38" /><g
     transform="rotate(72)"
     id="g39">&#10;            <path
   style="fill:#005b80;fill-opacity:1;stroke:none;stroke-width:0.397913"
   d="M -0.3247,0 H 0.3247 V 8.41063 H -0.3247 Z"
   id="path39" />&#10;        </g><g
     transform="rotate(144)"
     id="g40">&#10;            <path
   style="fill:#005b80;fill-opacity:1;stroke:none;stroke-width:0.397913"
   d="M -0.3247,0 H 0.3247 V 8.41063 H -0.3247 Z"
   id="path40" />&#10;        </g><g
     transform="rotate(-72)"
     id="g41">&#10;            <path
   style="fill:#005b80;fill-opacity:1;stroke:none;stroke-width:0.397913"
   d="M -0.3247,0 H 0.3247 V 8.41063 H -0.3247 Z"
   id="path41" />&#10;        </g><g
     transform="rotate(-144)"
     id="g42">&#10;            <path
   style="fill:#005b80;fill-opacity:1;stroke:none;stroke-width:0.397913"
   d="M -0.3247,0 H 0.3247 V 8.41063 H -0.3247 Z"
   id="path42" />&#10;        </g><circle
     style="fill:none;stroke:#005b80;stroke-width:1.00711;stroke-dasharray:none;stroke-opacity:1"
     id="circle42"
     cx="-1.2516975e-06"
     cy="-1.2516975e-06"
     r="8.4964437" /><circle
     style="fill:#005b80;fill-opacity:1;stroke:none;stroke-width:0.67056;stroke-dasharray:none"
     id="circle43"
     cx="1.110223e-16"
     cy="1.110223e-16"
     r="5.5" /></g><g
   id="g48"
   transform="translate(55.867316,152.47216)"><path
     style="fill:#005b80;fill-opacity:1;stroke:none;stroke-width:0.397913"
     d="M -0.3247,0 H 0.3247 V 8.41063 H -0.3247 Z"
     id="path43" /><g
     transform="rotate(72)"
     id="g44">&#10;            <path
   style="fill:#005b80;fill-opacity:1;stroke:none;stroke-width:0.397913"
   d="M -0.3247,0 H 0.3247 V 8.41063 H -0.3247 Z"
   id="path44" />&#10;        </g><g
     transform="rotate(144)"
     id="g45">&#10;            <path
   style="fill:#005b80;fill-opacity:1;stroke:none;stroke-width:0.397913"
   d="M -0.3247,0 H 0.3247 V 8.41063 H -0.3247 Z"
   id="path45" />&#10;        </g><g
     transform="rotate(-72)"
     id="g46">&#10;            <path
   style="fill:#005b80;fill-opacity:1;stroke:none;stroke-width:0.397913"
   d="M -0.3247,0 H 0.3247 V 8.41063 H -0.3247 Z"
   id="path46" />&#10;        </g><g
     transform="rotate(-144)"
     id="g47">&#10;            <path
   style="fill:#005b80;fill-opacity:1;stroke:none;stroke-width:0.397913"
   d="M -0.3247,0 H 0.3247 V 8.41063 H -0.3247 Z"
   id="path47" />&#10;        </g><circle
     style="fill:none;stroke:#005b80;stroke-width:1.00711;stroke-dasharray:none;stroke-opacity:1"
     id="circle47"
     cx="-1.2516975e-06"
     cy="-1.2516975e-06"
     r="8.4964437" /><circle
     style="fill:#005b80;fill-opacity:1;stroke:none;stroke-width:0.67056;stroke-dasharray:none"
     id="circle48"
     cx="1.110223e-16"
     cy="1.110223e-16"
     r="5.5" /></g></g>&#10;</svg>
