<?xml version="1.0" encoding="UTF-8" standalone="no"?>
<!-- Created with Inkscape (http://www.inkscape.org/) -->

<svg
   width="51mm"
   height="71.710678mm"
   viewBox="0 0 51 71.710678"
   version="1.1"
   id="svg1"
   inkscape:version="1.3 (0e150ed6c4, 2023-07-21)"
   sodipodi:docname="fa.svg"
   inkscape:export-filename="fa.png"
   inkscape:export-xdpi="96"
   inkscape:export-ydpi="96"
   xml:space="preserve"
   xmlns:inkscape="http://www.inkscape.org/namespaces/inkscape"
   xmlns:sodipodi="http://sodipodi.sourceforge.net/DTD/sodipodi-0.dtd"
   xmlns="http://www.w3.org/2000/svg"
   xmlns:svg="http://www.w3.org/2000/svg"><sodipodi:namedview
     id="namedview1"
     pagecolor="#ffffff"
     bordercolor="#000000"
     borderopacity="0.25"
     inkscape:showpageshadow="2"
     inkscape:pageopacity="0.0"
     inkscape:pagecheckerboard="0"
     inkscape:deskcolor="#d1d1d1"
     inkscape:document-units="mm"
     inkscape:zoom="2.4743578"
     inkscape:cx="99.82388"
     inkscape:cy="152.36276"
     inkscape:window-width="1120"
     inkscape:window-height="1000"
     inkscape:window-x="0"
     inkscape:window-y="0"
     inkscape:window-maximized="0"
     inkscape:current-layer="layer1" /><defs
     id="defs1" /><g
     inkscape:label="Layer 1"
     inkscape:groupmode="layer"
     id="layer1"
     transform="translate(-14.017311,-93.862518)"><rect
       style="fill:#ffffff;stroke:#000000;stroke-width:1;stroke-opacity:1"
       id="rect1"
       width="50"
       height="70.710678"
       x="14.517311"
       y="94.362518"
       ry="0.85131508" /><path
       id="path1"
       style="fill:#005242;stroke-width:2"
       d="m 54.45209,147.60945 c -0.562884,4.14341 -3.849725,2.21617 -5.782855,0.35798 -0.676926,-0.63092 -2.506398,-2.10572 -2.188873,-2.99209 0.581909,-1.69185 7.913547,-1.51576 7.971312,2.59059 z"
       sodipodi:nodetypes="ccccc" /><path
       style="fill:none;fill-opacity:1;stroke:#005242;stroke-width:1.5;stroke-dasharray:none;stroke-opacity:1"
       d="m 36.793422,118.77723 c 0,0 -4.704924,17.7504 -15.397934,22.34839"
       id="path2"
       sodipodi:nodetypes="cc" /><path
       style="fill:none;fill-opacity:1;stroke:#005242;stroke-width:1.5;stroke-dasharray:none;stroke-opacity:1"
       d="m 47.165644,111.50598 -4.384137,9.83757"
       id="path3"
       sodipodi:nodetypes="cc" /><path
       style="fill:none;fill-opacity:1;stroke:#005242;stroke-width:1.5;stroke-dasharray:none;stroke-opacity:1"
       d="m 31.446917,122.30592 8.423084,-6.01665 c 0,0 9.10931,18.42754 19.00052,25.29985"
       id="path5"
       sodipodi:nodetypes="ccc" /><path
       style="fill:none;fill-opacity:1;stroke:#005242;stroke-width:1.5;stroke-dasharray:none;stroke-opacity:1"
       d="m 29.544973,122.51755 c 0,0 7.117277,6.4217 6.927659,8.55665 -0.363712,4.09511 -2.459392,5.98808 -2.459392,5.98808 3.807446,2.21433 2.820463,4.53459 -0.291779,8.50442 -5.581938,7.12004 -7.678313,-0.21576 -7.678313,-0.21576"
       id="path6"
       sodipodi:nodetypes="cscsc" /><path
       style="fill:none;fill-opacity:1;stroke:#005242;stroke-width:1.5;stroke-dasharray:none;stroke-opacity:1"
       d="m 49.411173,121.55741 -5.346505,5.13265"
       id="path7"
       sodipodi:nodetypes="cc" /><path
       style="fill:none;fill-opacity:1;stroke:#005242;stroke-width:1.5;stroke-dasharray:none;stroke-opacity:1"
       d="m 22.785579,144.2266 c 6.14531,2.90595 3.67072,-5.98879 27.160246,-4.17028"
       id="path9"
       sodipodi:nodetypes="cc" /><path
       style="fill:none;fill-opacity:1;stroke:#005242;stroke-width:1.5;stroke-dasharray:none;stroke-opacity:1"
       d="m 36.258772,149.68003 c 0,0 0.252341,-0.0399 5.208346,-3.86447 2.011188,-1.55206 1.431089,-5.80607 1.63518,-11.10574"
       id="path11"
       sodipodi:nodetypes="csc" /><path
       style="fill:none;fill-opacity:1;stroke:#005242;stroke-width:1.5;stroke-dasharray:none;stroke-opacity:1"
       d="m 28.239014,139.73553 c 5.6693,-3.25843 11.472671,-5.60517 17.643467,-5.45343"
       id="path12"
       sodipodi:nodetypes="cc" /><path
       style="fill:none;fill-opacity:1;stroke:#005242;stroke-width:1.5;stroke-dasharray:none;stroke-opacity:1"
       d="M 40.856766,124.55146 37.809258,135.3514"
       id="path13"
       sodipodi:nodetypes="cc" /></g></svg>
