<?xml version="1.0" encoding="UTF-8" standalone="no"?>
<!DOCTYPE svg PUBLIC "-//W3C//DTD SVG 1.1//EN" "http://www.w3.org/Graphics/SVG/1.1/DTD/svg11.dtd">
<svg width="100%" height="100%" viewBox="0 0 2481 3508" version="1.1" xmlns="http://www.w3.org/2000/svg" xmlns:xlink="http://www.w3.org/1999/xlink" xml:space="preserve" xmlns:serif="http://www.serif.com/" style="fill-rule:evenodd;clip-rule:evenodd;stroke-linejoin:round;stroke-miterlimit:2;">
    <g transform="matrix(-25.8287,0,0,25.8287,18217.9,-10121.5)">
        <path d="M668.727,408.004L668.727,424.918L660.445,433.379L660.445,416.461L643.887,416.461L652.168,408.004L668.727,408.004ZM652.168,417.309L652.168,424.918L643.887,433.379L643.887,417.309L652.168,417.309Z" style="fill:rgb(56,55,55);fill-rule:nonzero;"/>
    </g>
    <g transform="matrix(-18.2498,-18.2774,18.2774,-18.2498,6244.78,20832.3)">
        <path d="M656.259,375.809L659.063,375.809L668.354,385.086L665.552,385.088L656.259,375.809Z" style="fill:rgb(56,55,55);fill-rule:nonzero;"/>
    </g>
    <g transform="matrix(-25.733,2.22127,-2.22127,-25.733,19002.8,10128.9)">
        <path d="M650.056,374.837L652.044,374.837L650.902,388.065L649.099,385.921L650.056,374.837Z" style="fill:rgb(56,55,55);fill-rule:nonzero;"/>
    </g>
    <g transform="matrix(17.9662,18.5563,-18.5563,17.9662,-3321.75,-17508.3)">
        <path d="M650.71,390.86L653.467,390.86L660.915,383.167L658.139,383.187L650.71,390.86Z" style="fill:rgb(56,55,55);fill-rule:nonzero;"/>
    </g>
    <g transform="matrix(-25.8287,0,0,25.8287,18217.9,-7756.02)">
        <path d="M654.449,372.918L651.477,376.883L649.496,374.903L654.449,372.918Z" style="fill:rgb(56,55,55);fill-rule:nonzero;"/>
    </g>
    <g transform="matrix(-18.2636,-18.2636,18.2636,-18.2636,6582.67,20937.6)">
        <path d="M658.077,361.542L660.879,361.542L664.224,364.887L661.423,364.888L658.077,361.542Z" style="fill:rgb(56,55,55);fill-rule:nonzero;"/>
    </g>
    <g transform="matrix(18.2636,18.2636,-18.2636,18.2636,-4159.11,-16299)">
        <path d="M652.618,363.803L655.42,363.803L661.328,357.896L658.527,357.895L652.618,363.803Z" style="fill:rgb(56,55,55);fill-rule:nonzero;"/>
    </g>
    <g transform="matrix(18.259,18.2682,-18.2682,18.259,-3348.6,-18121.4)">
        <path d="M650.936,406.21L653.737,406.21L661.025,398.919L658.226,398.917L650.936,406.21Z" style="fill:rgb(56,55,55);fill-rule:nonzero;"/>
    </g>
    <g transform="matrix(-25.8287,0,0,25.8287,18217.9,-8599.37)">
        <path d="M646.863,389.246L649.832,393.207L651.813,391.226L646.863,389.246Z" style="fill:rgb(56,55,55);fill-rule:nonzero;"/>
    </g>
    <g transform="matrix(-18.2636,-18.2636,18.2636,-18.2636,5982.24,20589.9)">
        <path d="M649.625,392.513L652.427,392.513L663.418,403.503L660.613,403.5L649.625,392.513Z" style="fill:rgb(56,55,55);fill-rule:nonzero;"/>
    </g>
    <g transform="matrix(18.259,18.2682,-18.2682,18.259,-3431.18,-17957.9)">
        <path d="M651.584,402.021L654.385,402.021L660.951,395.452L658.148,395.454L651.584,402.021Z" style="fill:rgb(56,55,55);fill-rule:nonzero;"/>
    </g>
    <g transform="matrix(18.2636,18.2636,-18.2636,18.2636,-3511.32,-17775)">
        <path d="M651.583,397.899L654.383,397.899L660.952,391.331L658.152,391.331L651.583,397.899Z" style="fill:rgb(56,55,55);fill-rule:nonzero;"/>
    </g>
    <g transform="matrix(-18.2636,-18.2636,18.2636,-18.2636,6054.71,20497.9)">
        <path d="M645.063,392.042L647.865,392.042L656.582,400.759L653.78,400.759L645.063,392.042Z" style="fill:rgb(56,55,55);fill-rule:nonzero;"/>
    </g>
    <g transform="matrix(18.259,18.2682,-18.2682,18.259,-4015.69,-16579.1)">
        <path d="M650.432,372.05L653.233,372.05L662.614,362.665L659.812,362.665L650.432,372.05Z" style="fill:rgb(56,55,55);fill-rule:nonzero;"/>
    </g>
    <g transform="matrix(-25.8287,0,0,25.8287,18217.9,-7474.64)">
        <path d="M662.941,366.977L658.98,369.946L660.961,371.93L662.941,366.977Z" style="fill:rgb(56,55,55);fill-rule:nonzero;"/>
    </g>
    <g transform="matrix(-25.8287,0,0,25.8287,18217.9,-7493.18)">
        <path d="M654.496,372.289L650.535,369.316L652.516,367.336L654.496,372.289Z" style="fill:rgb(56,55,55);fill-rule:nonzero;"/>
    </g>
    <g transform="matrix(-25.8287,0,0,25.8287,18217.9,-7474.64)">
        <path d="M659.492,366.977L655.531,369.946L657.512,371.93L659.492,366.977Z" style="fill:rgb(56,55,55);fill-rule:nonzero;"/>
    </g>
    <g transform="matrix(-18.2636,-18.2636,18.2636,-18.2636,6654.22,20764.9)">
        <path d="M648.62,361.542L651.422,361.542L654.767,364.887L651.966,364.888L648.62,361.542Z" style="fill:rgb(56,55,55);fill-rule:nonzero;"/>
    </g>
    <g transform="matrix(-18.2636,-18.2636,18.2636,-18.2636,5967.83,20707.7)">
        <path d="M656.547,392.042L659.349,392.042L668.066,400.759L665.264,400.759L656.547,392.042Z" style="fill:rgb(56,55,55);fill-rule:nonzero;"/>
    </g>
    <g transform="matrix(-18.2636,-18.2636,18.2636,-18.2636,6652.18,20867.4)">
        <path d="M651.571,357.777L654.373,357.777L661.472,364.875L658.67,364.875L651.571,357.777Z" style="fill:rgb(56,55,55);fill-rule:nonzero;"/>
    </g>
    <g transform="matrix(-18.259,-18.2682,18.2682,-18.259,6936.79,20908.6)">
        <path d="M646.237,341.896L649.038,341.896L659.329,352.182L656.528,352.182L646.237,341.896Z" style="fill:rgb(56,55,55);fill-rule:nonzero;"/>
    </g>
    <g transform="matrix(18.2682,18.259,-18.259,18.2682,-4439.32,-15575.8)">
        <path d="M650.427,349.356L653.228,349.356L662.613,339.976L659.813,339.975L650.427,349.356Z" style="fill:rgb(56,55,55);fill-rule:nonzero;"/>
    </g>
    <g transform="matrix(-18.259,-18.2682,18.2682,-18.259,6820.35,21012.9)">
        <path d="M655.785,347.733L658.585,347.733L664.039,353.185L661.239,353.185L655.785,347.733Z" style="fill:rgb(56,55,55);fill-rule:nonzero;"/>
    </g>
</svg>
