<?xml version="1.0" encoding="UTF-8" standalone="no"?>
<!-- Created with Inkscape (http://www.inkscape.org/) -->

<svg
   width="237.99271mm"
   height="287.33749mm"
   viewBox="0 0 237.99271 287.33749"
   version="1.1"
   id="svg1"
   xml:space="preserve"
   inkscape:version="1.4 (86a8ad7, 2024-10-11)"
   sodipodi:docname="ブースカット.svg"
   xmlns:inkscape="http://www.inkscape.org/namespaces/inkscape"
   xmlns:sodipodi="http://sodipodi.sourceforge.net/DTD/sodipodi-0.dtd"
   xmlns="http://www.w3.org/2000/svg"
   xmlns:svg="http://www.w3.org/2000/svg"><sodipodi:namedview
     id="namedview1"
     pagecolor="#ffffff"
     bordercolor="#000000"
     borderopacity="0.25"
     inkscape:showpageshadow="2"
     inkscape:pageopacity="0.0"
     inkscape:pagecheckerboard="0"
     inkscape:deskcolor="#d1d1d1"
     inkscape:document-units="mm"
     showguides="true"
     inkscape:zoom="0.50835204"
     inkscape:cx="352.11819"
     inkscape:cy="465.22878"
     inkscape:window-width="1920"
     inkscape:window-height="1009"
     inkscape:window-x="-8"
     inkscape:window-y="-8"
     inkscape:window-maximized="1"
     inkscape:current-layer="layer1"><sodipodi:guide
       position="304.4765,-115.50833"
       orientation="0,-1"
       id="guide3"
       inkscape:locked="false" /><sodipodi:guide
       position="172.23792,349.90254"
       orientation="0,-1"
       id="guide14"
       inkscape:locked="false" /><sodipodi:guide
       position="9.8889802,322.72963"
       orientation="0,-1"
       id="guide52"
       inkscape:locked="false" /></sodipodi:namedview><defs
     id="defs1" /><g
     inkscape:label="Layer 1"
     inkscape:groupmode="layer"
     id="layer1"
     transform="translate(-20.977694,-51.524162)"><rect
       style="fill:#000000;stroke:none;stroke-width:0.32538;stroke-linecap:square;stroke-linejoin:round;paint-order:markers stroke fill"
       id="rect2"
       width="237.99271"
       height="72.193672"
       x="20.977694"
       y="89.594826" /><text
       xml:space="preserve"
       style="font-style:normal;font-variant:normal;font-weight:900;font-stretch:normal;font-size:80.5474px;line-height:1.5;font-family:'M+ 1p';-inkscape-font-specification:'M+ 1p Heavy';text-align:end;letter-spacing:-0.906161px;word-spacing:-0.604107px;writing-mode:lr-tb;direction:ltr;text-anchor:end;fill:#ffffff;stroke:#000000;stroke-width:3.0367;stroke-linecap:square;stroke-linejoin:round;paint-order:markers stroke fill"
       x="256.44446"
       y="156.92688"
       id="text2"
       transform="scale(1.0162337,0.98402558)"><tspan
         sodipodi:role="line"
         id="tspan2"
         style="font-style:normal;font-variant:normal;font-weight:900;font-stretch:normal;font-size:80.5472px;font-family:'M+ 1p';-inkscape-font-specification:'M+ 1p Heavy';font-variant-ligatures:normal;font-variant-caps:normal;font-variant-numeric:normal;font-variant-east-asian:normal;fill:#ffffff;stroke:none;stroke-width:3.03672"
         x="255.53828"
         y="156.92688">直輸入</tspan></text><path
       id="path218"
       d="m 252.60146,55.321858 c -0.87968,0.08671 -1.58728,0.407854 -2.12045,0.959171 -0.53556,0.545257 -0.80453,1.233986 -0.80453,2.065918 0,0.5615 0.12116,1.037922 0.36106,1.425668 0.24475,0.381677 0.49195,0.573617 0.74638,0.573617 0.0921,0 0.18418,-0.02431 0.27872,-0.07274 0.0969,-0.05647 0.20357,-0.145414 0.31746,-0.2707 0.11629,-0.131105 0.22779,-0.321092 0.33683,-0.565367 0.11389,-0.252515 0.22537,-0.555441 0.32713,-0.910702 0.10906,-0.35551 0.21086,-0.805774 0.30295,-1.353205 0.0994,-0.551326 0.18418,-1.169285 0.25445,-1.851697 z m 0.9524,5.27083 c 0.68338,-0.06661 1.21651,-0.339277 1.60427,-0.820073 0.38772,-0.486606 0.58398,-1.120808 0.58398,-1.902339 0,-0.743006 -0.25687,-1.354908 -0.77062,-1.835704 -0.50888,-0.486615 -1.1535,-0.728956 -1.93379,-0.728956 h -0.0413 c -0.35622,3.612756 -1.09296,5.418168 -2.21255,5.418168 -0.37319,0 -0.71489,-0.230214 -1.02505,-0.68847 -0.31023,-0.458505 -0.46532,-1.021939 -0.46532,-1.688367 0,-1.005696 0.34657,-1.82552 1.03962,-2.459713 0.70038,-0.634202 1.60184,-0.951169 2.70453,-0.951169 0.89661,0 1.63575,0.276749 2.21249,0.828065 0.58645,0.55325 0.87728,1.254086 0.87728,2.106146 0,0.890594 -0.2278,1.613722 -0.67858,2.165038 -0.44833,0.551316 -1.05899,0.860291 -1.82961,0.926935 z m -8.3776,-2.401319 h 0.40229 v 2.286207 c 0,0.118989 0.002,0.203799 0.008,0.254449 0.01,0.04431 0.0533,0.0848 0.13088,0.123104 0.0751,0.03828 0.17447,0.05867 0.30292,0.0647 0.12357,0.0038 0.32715,0.0057 0.60583,0.0057 h 0.33685 c 0.0655,0 0.14299,-0.01206 0.23508,-0.03436 0.0994,-0.01617 0.16237,-0.02833 0.18902,-0.04049 0.0291,-0.0038 0.0655,-0.03637 0.11388,-0.09887 0.0484,-0.0647 0.0775,-0.117055 0.0848,-0.155578 0.01,-0.0424 0.0242,-0.127229 0.0388,-0.254458 0.0243,-0.131106 0.034,-0.242341 0.034,-0.335153 0.002,-0.09284 0.0122,-0.246456 0.0242,-0.458505 l 0.39261,0.0223 c -0.0123,0.310918 -0.0243,0.547191 -0.0339,0.704713 -0.0122,0.157521 -0.0412,0.315034 -0.0896,0.466497 -0.0461,0.153645 -0.0873,0.254458 -0.13334,0.305099 -0.0436,0.05456 -0.13088,0.102994 -0.2617,0.147347 -0.13088,0.04843 -0.26171,0.07686 -0.3926,0.08069 -0.126,0.0038 -0.31989,0.0057 -0.58399,0.0057 -0.63252,0 -1.02754,-0.0402 -1.17778,-0.123103 -0.15512,-0.07686 -0.23024,-0.286685 -0.23024,-0.630068 z m -1.79571,-0.0057 0.39501,0.0223 c -0.0122,0.858358 -0.23024,1.540779 -0.65675,2.049686 -0.41923,0.506963 -1.07842,0.878476 -1.97503,1.114759 l -0.15508,-0.345346 c 0.83604,-0.218097 1.43463,-0.549134 1.80296,-0.991387 0.3708,-0.442272 0.5671,-1.060232 0.58889,-1.851946 z m 4.01067,-0.516908 h -5.7555 v 1.302564 h -0.38531 v -1.645947 h 6.52369 v 1.565252 h -0.38288 z m 0.68822,-2.401071 h -3.36359 v 0.983405 h 2.78685 v 0.343393 h -5.9833 v -0.343436 h 2.78684 v -0.983405 h -3.36114 v -0.343383 h 3.36114 v -0.68872 h 0.40961 v 0.68872 h 3.36359 z m -13.62418,4.384113 c 0.22782,0.339278 0.43138,0.694778 0.60589,1.066282 l -0.31989,0.17182 c -0.1745,-0.387736 -0.37079,-0.743246 -0.5889,-1.064338 z m -1.992,1.557012 c 0.47015,-0.452188 0.83125,-0.961104 1.08086,-1.522594 l 0.31987,0.155579 c -0.27384,0.627895 -0.64702,1.161035 -1.12202,1.597239 z m 4.0834,-4.089427 0.35865,-0.131106 c 0.27868,0.918704 0.65913,1.696359 1.1414,2.33637 0.57677,-0.704712 1.0154,-1.565013 1.31105,-2.582826 h -3.15037 v 0.428203 c 0,1.637715 -0.31022,3.023156 -0.93302,4.153898 l -0.32711,-0.212038 c 0.57189,-1.060233 0.86029,-2.443481 0.86029,-4.147841 v -2.425554 h 4.1633 v 0.359636 h -3.76346 v 1.500312 h 3.55991 v 0.345327 c -0.32473,1.1511 -0.81182,2.114387 -1.46857,2.8838 0.50168,0.573617 1.13416,1.042047 1.8951,1.401683 l -0.18173,0.337085 c -0.78037,-0.367378 -1.43948,-0.850117 -1.97507,-1.451845 -0.60098,0.624029 -1.31344,1.106519 -2.13986,1.451845 l -0.16232,-0.345326 c 0.79723,-0.327161 1.48309,-0.793657 2.05739,-1.401434 -0.53554,-0.682661 -0.95234,-1.516545 -1.24558,-2.500189 z m -3.28124,-1.11475 h 1.57278 v -1.146975 h -1.57278 z m 0,1.500552 h 1.57278 v -1.171209 h -1.57278 z m 0,1.532778 h 1.57278 v -1.205627 h -1.57278 z m 1.94354,0.351385 h -2.32643 v -4.893259 h 2.32643 z m -5.66341,-1.777052 0.35138,-0.173764 c 0.56951,1.050058 1.14383,2.18104 1.72302,3.394659 l -0.36836,0.155589 c -0.046,-0.08892 -0.11147,-0.222232 -0.20599,-0.401796 -0.0872,-0.185872 -0.15265,-0.325218 -0.19626,-0.418038 -2.19802,0.343153 -4.26029,0.549134 -6.18935,0.613844 l -0.0171,-0.367627 c 0.18664,-0.0038 0.48472,-0.01819 0.89425,-0.0402 0.70521,-1.793295 1.28926,-3.689575 1.75212,-5.68885 l 0.39502,0.0826 c -0.4653,2.009449 -1.02998,3.871331 -1.69641,5.581979 1.41046,-0.09303 2.97353,-0.270691 4.68682,-0.533141 -0.44832,-0.912875 -0.82395,-1.64789 -1.13171,-2.205265 z m -12.92629,0.06441 h 6.60615 v 0.393794 h -6.60615 z m -2.23674,-3.630933 0.30291,-0.16358 c 0.29323,0.47668 0.54045,0.894709 0.73671,1.254095 l -0.30292,0.155579 c -0.23991,-0.436204 -0.48709,-0.852299 -0.7367,-1.246094 z m -1.05176,0.147338 0.29566,-0.163571 c 0.18662,0.2908 0.4265,0.700837 0.72216,1.229852 l -0.29321,0.155579 c -0.23023,-0.42602 -0.47013,-0.831942 -0.72461,-1.219678 z m -3.7029,6.557392 c 1.03719,-0.212049 1.78363,-0.668601 2.23679,-1.367265 0.46042,-0.700846 0.69064,-1.756934 0.69793,-3.172676 h -2.93472 c -0.26896,0.743255 -0.67371,1.419848 -1.22133,2.031759 l -0.31023,-0.220289 c 0.86029,-0.97928 1.3692,-2.15873 1.51462,-3.541988 l 0.38528,0.02431 c -0.0484,0.496799 -0.13325,0.940995 -0.252,1.334789 h 5.40654 v 0.36957 h -2.17863 c -0.005,1.508544 -0.2593,2.643412 -0.77062,3.40895 -0.50651,0.759239 -1.33041,1.257971 -2.46698,1.492311 z m -7.55606,-2.114387 0.33442,-0.05063 c 0.14056,0.731129 0.23751,1.365322 0.28597,1.900415 l -0.35136,0.03436 c -0.0558,-0.616017 -0.14545,-1.246094 -0.26903,-1.884172 z m -2.24884,2.312126 c 0.23021,-0.727004 0.38044,-1.49836 0.45314,-2.312126 l 0.35865,0.03417 c -0.063,0.775472 -0.22054,1.561127 -0.46528,2.352842 z m 2.22217,-4.442746 0.34415,-0.09888 c 0.24474,0.656244 0.44105,1.320739 0.5816,1.991034 l -0.35139,0.07485 c -0.0122,-0.04843 -0.0315,-0.121161 -0.0582,-0.212048 -0.0217,-0.09911 -0.0364,-0.167696 -0.0388,-0.20599 l -0.92815,0.05235 v 3.400957 h -0.3926 v -3.376723 l -1.39342,0.08892 -0.0171,-0.351385 0.60827,-0.03436 c 0.13573,-0.16963 0.29565,-0.377562 0.48226,-0.624019 -0.34414,-0.583542 -0.69065,-1.154977 -1.03961,-1.712352 l 0.2617,-0.294924 c 0.0703,0.109053 0.18178,0.288866 0.33441,0.541132 0.32715,-0.514955 0.63009,-1.033797 0.90879,-1.557002 l 0.34651,0.155578 c -0.30776,0.579666 -0.65429,1.163218 -1.04204,1.752819 0.30048,0.514974 0.45559,0.779597 0.46771,0.795839 0.45804,-0.634202 0.87486,-1.274453 1.24561,-1.91859 l 0.32717,0.171581 c -0.5186,0.902701 -1.11961,1.787227 -1.80298,2.657702 l 1.54124,-0.09093 c -0.12598,-0.45437 -0.25443,-0.854233 -0.38528,-1.205617 z m 3.32731,1.417666 h 0.38533 v 2.8191 c 0,0.153645 0.0217,0.244523 0.0582,0.27069 0.0388,0.02613 0.17446,0.04049 0.40949,0.04049 h 0.005 c 0.32468,0 0.51616,-0.07073 0.57431,-0.214221 0.0606,-0.135221 0.10421,-0.619903 0.13087,-1.449901 l 0.37081,0.03436 c -0.034,0.95116 -0.10425,1.518479 -0.20605,1.70435 -0.0969,0.185862 -0.40468,0.278683 -0.91844,0.278683 -0.35379,0 -0.57917,-0.02833 -0.67126,-0.08892 -0.0921,-0.05456 -0.14052,-0.201865 -0.14052,-0.442263 z m -1.4322,0 h 0.39256 c 0,1.79741 -0.59372,2.996979 -1.77875,3.598697 l -0.24719,-0.302917 c 1.08811,-0.5472 1.63338,-1.645956 1.63338,-3.29578 z m 1.77874,-2.057927 0.32713,-0.171572 c 0.48713,0.714897 0.91362,1.403616 1.28684,2.065919 l -0.33688,0.16358 c -0.0436,-0.08289 -0.11145,-0.197988 -0.20355,-0.345336 -0.0897,-0.151453 -0.13813,-0.244274 -0.15755,-0.278682 -1.30374,0.207932 -2.5348,0.333209 -3.68833,0.377562 l -0.005,-0.351385 c 0.14056,-0.0038 0.37317,-0.01819 0.69551,-0.0403 0.30292,-0.608025 0.58647,-1.274444 0.85305,-2.001447 h -1.61395 v -0.351395 h 1.95077 v -0.85206 h 0.40953 v 0.85206 h 1.97507 v 0.351395 h -2.30218 c -0.25201,0.717069 -0.52585,1.373313 -0.82151,1.968982 0.79484,-0.06068 1.5776,-0.151463 2.35307,-0.272634 -0.17931,-0.294676 -0.41924,-0.666418 -0.71973,-1.114749 z m -8.62475,2.492188 0.35378,-0.155578 c 0.60098,0.995522 1.13656,2.01745 1.6067,3.065565 l -0.36107,0.147338 c -0.0267,-0.06441 -0.15752,-0.339277 -0.39258,-0.819824 -1.78118,0.278682 -3.43636,0.478614 -4.96065,0.599775 l -0.034,-0.361569 c 0.41924,-0.03417 0.72458,-0.0625 0.91119,-0.0826 0.37563,-1.032112 0.75122,-2.231681 1.12199,-3.596763 h -1.90958 v -0.361569 h 5.53253 v 0.361569 h -3.19643 c -0.35622,1.310555 -0.71973,2.494131 -1.09777,3.548295 1.02024,-0.102985 2.17617,-0.250572 3.46786,-0.442263 -0.36596,-0.727004 -0.71489,-1.361206 -1.04204,-1.902348 z m -3.09707,-3.730041 h 4.50016 v 0.361569 h -4.50016 z m -1.18987,1.615654 v 5.26259 h -0.40228 v -4.466999 c -0.26171,0.551316 -0.55252,1.037932 -0.87484,1.458142 l -0.20597,-0.377801 c 0.78757,-1.064099 1.34736,-2.36472 1.68179,-3.901623 l 0.37561,0.07485 c -0.14053,0.720946 -0.33442,1.371132 -0.57431,1.950807 z m -4.39113,2.269727 c -0.32954,-0.240149 -0.59127,-0.448321 -0.7876,-0.621836 h -0.98389 c -0.20839,0.179573 -0.41922,0.351394 -0.63974,0.514965 v 0.57555 c 0,0.68848 -0.16477,1.227689 -0.49196,1.621474 -0.32715,0.387745 -0.86757,0.680737 -1.62364,0.878476 l -0.13817,-0.353328 c 0.68342,-0.185871 1.16569,-0.440319 1.44435,-0.763364 0.2787,-0.321092 0.4168,-0.783474 0.4168,-1.383258 v -0.294925 c -0.64944,0.442272 -1.3377,0.813776 -2.06469,1.114759 l -0.15752,-0.361568 c 1.02264,-0.409798 1.93143,-0.926945 2.72873,-1.548781 h -1.90718 v -3.435108 h 5.85241 v 3.435117 h -1.91204 c 0.79971,0.621836 1.70846,1.138984 2.72868,1.548772 l -0.15507,0.361568 c -0.69307,-0.290799 -1.33042,-0.625952 -1.90718,-1.009811 v 2.6073 h -0.40229 z m -1.08325,-0.959171 h 2.32886 V 56.29151 h -2.32886 z m 0,-1.581246 h 2.32886 v -1.17121 h -2.32886 z m -0.39259,0.319159 h -2.32887 v 1.262087 h 2.32887 z m 0,-1.490369 h -2.32887 v 1.17121 h 2.32887 z m -8.48417,1.048106 v -1.524825 h 0.38531 v 1.524786 h 2.05015 v -1.524786 h 0.39261 v 1.524786 h 1.38372 v 0.36132 h -1.38372 v 2.795114 h -2.82807 v -2.795114 h -1.74483 v 4.303658 h 5.49135 v 0.367388 h -5.49135 v 0.624018 h -0.4023 v -5.295064 h -1.09776 v -0.36132 h 1.09776 v -1.524786 h 0.4023 v 1.524786 z m 0.38531,2.811098 h 2.05015 v -2.451712 h -2.05015 z m -7.46642,1.492311 0.16477,-0.310908 c 1.0542,0.442263 1.92176,0.900519 2.60515,1.377199 l -0.22052,0.302917 c -0.70037,-0.486615 -1.54851,-0.943168 -2.55182,-1.369208 z m -4.01549,0.975413 c 1.09048,-0.371503 1.93867,-0.813766 2.53965,-1.326788 l 0.23749,0.286675 c -0.60098,0.523205 -1.47337,0.979519 -2.61483,1.367264 z m 6.95022,-1.433908 h -7.13201 v -0.345326 h 1.94115 v -0.9168 h -1.62124 v -0.335153 h 1.62124 v -0.69672 h -1.30137 v -2.944377 h 5.85242 v 2.944386 h -1.31342 v 0.696721 h 1.5679 v 0.335152 h -1.5679 v 0.916752 h 1.95079 z m -4.78133,-0.345326 h 2.4258 v -0.918743 h -2.4258 z m 0,-1.254096 h 2.4258 v -0.696721 h -2.4258 z m 1.41041,-1.023871 h 2.32158 v -0.983405 h -2.32158 z m 0,-1.310556 h 2.32158 v -0.95921 h -2.32158 z m -0.3926,0.327151 h -2.32644 v 0.983405 h 2.32644 z m 0,-1.286322 h -2.32644 v 0.959171 h 2.32644 z"
       style="clip-rule:evenodd;fill:#000000;fill-rule:nonzero;stroke-width:0.234495;stroke-miterlimit:10" /><path
       style="clip-rule:evenodd;fill:#000000;fill-rule:nonzero;stroke-width:0.234495;stroke-miterlimit:10"
       d="m 174.95077,64.194783 v 0.0019 l 0.27387,0.0038 z"
       id="path96" /><path
       style="clip-rule:evenodd;fill:#000000;fill-rule:nonzero;stroke-width:0.234495;stroke-miterlimit:10"
       d="m 175.13014,64.318136 c 0.18901,0.129162 0.32956,0.240149 0.4362,0.341201 -0.10664,-0.101052 -0.24719,-0.212039 -0.4362,-0.341201"
       id="path95" /><path
       style="clip-rule:evenodd;fill:#000000;fill-rule:nonzero;stroke-width:0.234495;stroke-miterlimit:10"
       d="m 177.63105,65.42876 -0.14543,0.07877 0.14543,-0.07686 0.19873,0.12722 c 0.1066,0.07073 0.73913,0.484682 1.40555,0.923068 v -0.0038 c -0.66642,-0.436214 -1.29895,-0.8523 -1.40555,-0.923069 z"
       id="path94" /><path
       style="clip-rule:evenodd;fill:#000000;fill-rule:nonzero;stroke-width:0.234495;stroke-miterlimit:10"
       d="m 170.34398,66.081138 c -0.18905,0.189747 -0.40713,0.432079 -0.42409,0.462372 0.0171,-0.03025 0.23989,-0.272625 0.42409,-0.462372 0,0.0019 -0.002,0 -0.002,0 z"
       id="path93" /><path
       style="clip-rule:evenodd;fill:#000000;fill-rule:nonzero;stroke-width:0.234495;stroke-miterlimit:10"
       d="m 176.62777,68.5045 0.0848,0.0402 c 0.96452,0.611901 2.08652,1.20176 2.9444,1.561147 -0.85788,-0.359387 -1.97749,-0.951179 -2.9444,-1.565014 z"
       id="path92" /><path
       style="clip-rule:evenodd;fill:#000000;fill-rule:nonzero;stroke-width:0.234495;stroke-miterlimit:10"
       d="m 170.48936,69.401152 c -0.13326,0.121171 -0.29079,0.254449 -0.36592,0.312852 -0.0412,0.03446 -0.0824,0.06279 -0.11876,0.087 0.0339,-0.02431 0.0775,-0.05254 0.11876,-0.08289 0.0751,-0.05867 0.23266,-0.195796 0.36592,-0.316967"
       id="path91" /><path
       style="clip-rule:evenodd;fill:#000000;fill-rule:nonzero;stroke-width:0.234495;stroke-miterlimit:10"
       d="m 168.52402,69.463652 c -0.0631,0.316967 -0.10663,0.640251 -0.1139,0.955294 0.0122,-0.315043 0.0533,-0.638327 0.1139,-0.955294"
       id="path90" /><path
       style="clip-rule:evenodd;fill:#000000;fill-rule:nonzero;stroke-width:0.234495;stroke-miterlimit:10"
       d="m 179.65939,70.112316 c 0.12361,0.05044 0.23994,0.09694 0.35142,0.137412 0.43618,0.163571 0.99115,0.312852 1.33285,0.353328 l 0.005,0.0223 -0.002,-0.0223 c -0.34413,-0.04049 -0.8991,-0.189757 -1.33772,-0.353328 -0.10902,-0.03848 -0.22778,-0.0848 -0.34895,-0.135469 z"
       id="path89" /><path
       style="clip-rule:evenodd;fill:#000000;fill-rule:nonzero;stroke-width:0.234495;stroke-miterlimit:10"
       d="m 181.34849,70.623165 v 0.0019 c 0.0243,0 0.0582,0.0019 0.0679,0.0038 -0.0122,-0.0019 -0.0388,-0.0057 -0.0679,-0.0057 z"
       id="path88" /><path
       style="clip-rule:evenodd;fill:#000000;fill-rule:nonzero;stroke-width:0.234495;stroke-miterlimit:10"
       d="m 181.42362,70.235429 c 0.0171,0.250582 0.0217,0.357444 0.008,0.385803 0.0146,-0.02431 0.0146,-0.127229 -0.008,-0.385803"
       id="path87" /><path
       style="clip-rule:evenodd;fill:#000000;fill-rule:nonzero;stroke-width:0.234495;stroke-miterlimit:10"
       d="m 169.09108,70.334538 c -0.12601,0.06862 -0.3126,0.16358 -0.41925,0.226109 -0.1066,0.06059 -0.21569,0.113169 -0.23747,0.131344 l -0.0461,0.02201 v 0.0019 l 0.0461,-0.02201 c 0.0218,-0.01206 0.12599,-0.06661 0.23264,-0.129401 0.10662,-0.06059 0.29565,-0.161398 0.41921,-0.230215 z"
       id="path86" /><path
       style="clip-rule:evenodd;fill:#000000;fill-rule:nonzero;stroke-width:0.234495;stroke-miterlimit:10"
       d="m 172.89574,72.174061 0.0655,0.294925 h 0.005 z m -0.15993,-0.712704 c 0.0558,0.224156 0.12602,0.545258 0.15993,0.712704 -0.0339,-0.167446 -0.10418,-0.488548 -0.15993,-0.712704 m 0.74159,-1.87418 c 0.0243,0.02833 0.0848,0.414152 0.11874,0.684603 0.0581,0.484673 0.0703,0.759479 0.0703,1.641822 v 0.894709 l -0.1987,0.0057 -0.0195,0.0057 c -0.11148,0.01819 -0.33202,0.01819 -0.49436,0.0223 -0.26657,0.0057 -0.29568,0 -0.3005,-0.0223 0,-0.01618 -0.0218,-0.14952 -0.0582,-0.292743 -0.0655,-0.305099 -0.22294,-0.999647 -0.30531,-1.355147 l -0.063,-0.242332 0.0945,-0.07877 c 0.27864,-0.240408 0.72698,-0.735015 1.01538,-1.118875 0.0946,-0.117045 0.13332,-0.151463 0.14056,-0.145395 z m 0.48225,-5.474993 c -0.0921,0 -0.31986,0.0038 -0.91849,0.07054 -0.41922,0.0446 -1.16078,0.121171 -1.18256,0.127229 -0.008,0.0019 0.063,0.101052 0.14539,0.205981 0.45802,0.577742 0.71245,1.009821 0.81665,1.411617 0.046,0.17787 0.0702,0.513032 0.046,0.676602 l -0.0122,0.09504 -0.11875,0.0057 c -0.76334,0.0826 -2.95163,0.201865 -4.54621,0.242332 -0.35142,0.01819 -0.64222,0.02431 -0.64462,0.02431 -0.002,0.0038 0.46284,0.349213 2.13256,1.579064 l 0.39984,0.292992 0.75368,-0.07686 c 0.41685,-0.05255 0.76579,-0.08289 0.78757,-0.08069 0.0413,0.0057 -0.19141,0.268508 -0.5719,0.66037 -0.39016,0.395737 -0.8627,0.793647 -0.94509,0.793647 -0.0243,0 -0.0582,0.03417 -0.0921,0.06451 -0.0655,0.06661 -0.23019,0.161637 -0.73182,0.426269 -0.19875,0.102985 -0.47017,0.250333 -0.5986,0.327151 -0.13087,0.07877 -0.28353,0.169639 -0.34412,0.199931 -0.15751,0.08069 -0.25443,0.149272 -0.37076,0.274567 -0.33443,0.347269 -0.39984,0.692596 -0.17449,0.892527 0.14055,0.121171 0.40711,0.218097 0.75364,0.246457 0.15751,0.01617 0.206,0.01617 0.33202,-0.0057 0.29322,-0.0625 0.79485,-0.242331 1.37649,-0.508906 0.22538,-0.101052 0.29319,-0.129163 0.30531,-0.107101 0.0291,0.05254 0.18659,0.470612 0.22294,0.628124 0.0437,0.207933 0.0655,0.531207 0.0339,0.668371 -0.0122,0.05063 -0.0606,0.161647 -0.0945,0.240408 -0.11633,0.26244 -0.11633,0.456303 -0.01,0.686527 0.10426,0.216164 0.35868,0.436205 0.6931,0.605843 0.14056,0.07073 0.42169,0.175698 0.56949,0.204047 0.17205,0.0402 0.29324,-0.0223 0.67371,-0.343393 l 0.19628,-0.16357 0.36354,-0.0038 0.36835,-0.0057 -0.0122,0.105186 c -0.0121,0.06059 -0.0218,0.272624 -0.046,0.474489 -0.0388,0.436214 -0.0388,0.502848 -0.005,0.638078 0.0388,0.151454 0.16237,0.399854 0.28595,0.563434 0.26899,0.361559 0.82877,0.832181 1.20441,1.011745 l 0.005,-0.01819 c 0.0582,0.01206 0.1333,0.04049 0.15509,0.04049 0.0751,0 0.1769,-0.104928 0.23508,-0.250332 0.10662,-0.2484 0.1139,-0.335392 0.11873,-1.129049 0.0122,-0.395728 0.0171,-0.906578 0.0243,-1.1288 l 0.0122,-0.405921 0.0581,-0.0057 c 0.0339,0 0.11149,-0.0057 0.15753,-0.0057 0.0872,0 0.0969,0.01206 0.22052,0.107111 0.34653,0.286684 0.76095,0.403729 1.00813,0.324968 0.12119,-0.0402 0.23506,-0.14928 0.33927,-0.318919 0.0702,-0.117285 0.0921,-0.187805 0.15268,-0.420201 0.0679,-0.280626 0.24715,-1.104576 0.3538,-1.633601 0.0364,-0.153636 0.0654,-0.288866 0.0728,-0.294915 0.005,-0.0057 0.11633,0.06862 0.24235,0.161628 0.13081,0.100822 0.28835,0.218107 0.34892,0.258344 l 0.11875,0.07877 h 0.25687 c 0.56228,0 2.0914,-0.06441 2.76268,-0.09475 0.65432,-0.03857 1.16564,-0.107111 1.19955,-0.13546 0.0218,-0.02211 -0.0533,-0.270452 -0.15752,-0.541143 -0.17933,-0.456322 -0.39255,-0.813766 -0.5186,-0.876533 -0.0509,-0.02804 -0.0969,-0.02804 -0.29562,-0.02211 -1.20203,0.05044 -2.99531,-0.662543 -5.37505,-2.150739 -0.36112,-0.226347 -0.87724,-0.571674 -0.87239,-0.577722 0.002,-0.0019 1.08564,-0.12723 2.40153,-0.27652 1.31834,-0.149511 2.39673,-0.27674 2.39913,-0.278683 0.002,-0.0019 -0.62037,-0.418028 -1.39101,-0.923058 l -1.39825,-0.916752 -0.17692,0.07073 c -0.31019,0.12117 -0.72459,0.238216 -1.26017,0.343153 -0.34412,0.07274 -1.01054,0.185872 -1.0154,0.179804 0,-0.0019 0.046,-0.149511 0.10666,-0.325218 0.12357,-0.377552 0.19388,-0.696721 0.19388,-0.898576 v -0.141289 l -0.10421,-0.10711 c -0.31022,-0.323035 -1.1269,-0.807708 -1.4201,-0.838 z m 1.66723,6.226183 c 0.005,0.0019 0.11877,0.0848 0.24961,0.189987 l 0.23992,0.187814 -0.005,0.173515 c -0.0171,0.351394 -0.0921,1.106748 -0.13573,1.48431 l -0.0243,0.165762 -0.14781,0.03024 v 0.0019 c -0.0849,0.02201 -0.16482,0.02814 -0.18902,0.02814 h -0.0461 l 0.01,-0.510849 c 0,-0.282798 0.0194,-0.795591 0.0243,-1.137041 0,-0.341211 0.0171,-0.615778 0.0243,-0.613835 z"
       id="path85" /><path
       style="clip-rule:evenodd;fill:#000000;fill-rule:nonzero;stroke-width:0.234495;stroke-miterlimit:10"
       d="m 170.3464,72.410344 -0.15997,0.07073 c -0.21567,0.09495 -0.44829,0.187814 -0.65673,0.26245 0.21084,-0.07465 0.44106,-0.163581 0.65673,-0.260508 l 0.15997,-0.07054 z"
       id="path84" /><path
       style="clip-rule:evenodd;fill:#000000;fill-rule:nonzero;stroke-width:0.234495;stroke-miterlimit:10"
       d="m 178.14719,72.74162 -0.10662,0.478614 c -0.0558,0.276749 -0.10177,0.492674 -0.14298,0.668371 0.0413,-0.175697 0.0897,-0.395738 0.14782,-0.670314 z"
       id="path83" /><path
       style="clip-rule:evenodd;fill:#000000;fill-rule:nonzero;stroke-width:0.234495;stroke-miterlimit:10"
       d="m 169.5297,72.743534 c -0.21083,0.07465 -0.39502,0.131345 -0.51858,0.163571 -0.0606,0.01014 -0.10906,0.0223 -0.13817,0.03436 0.034,-0.0057 0.0751,-0.01819 0.13817,-0.02833 0.12116,-0.03024 0.31021,-0.09284 0.51858,-0.165523 z"
       id="path82" /><path
       style="clip-rule:evenodd;fill:#000000;fill-rule:nonzero;stroke-width:0.234495;stroke-miterlimit:10"
       d="m 168.87054,72.939331 c -0.0171,0.0038 -0.0291,0.01206 -0.0388,0.01819 0.01,-0.0057 0.0218,-0.01206 0.0388,-0.01819"
       id="path81" /><path
       style="clip-rule:evenodd;fill:#000000;fill-rule:nonzero;stroke-width:0.234495;stroke-miterlimit:10"
       d="m 178.23202,72.804081 c 0.046,0.02833 0.12117,0.07877 0.1769,0.117055 l 0.0945,0.06279 -0.0945,-0.0647 c -0.0509,-0.04049 -0.13087,-0.08671 -0.1769,-0.115112"
       id="path80" /><path
       style="clip-rule:evenodd;fill:#000000;fill-rule:nonzero;stroke-width:0.234495;stroke-miterlimit:10"
       d="m 180.90982,72.94537 c -0.0873,0.0019 -0.2108,0.01014 -0.34165,0.01014 0.19626,-0.0038 0.36832,-0.01617 0.44346,-0.01014 -0.0218,-0.0019 -0.0582,-0.0019 -0.10181,0"
       id="path79" /><path
       style="clip-rule:evenodd;fill:#000000;fill-rule:nonzero;stroke-width:0.234495;stroke-miterlimit:10"
       d="m 181.01889,72.94537 c 0.0195,0 0.034,0.0038 0.034,0.01014 0,0 0.002,-0.0019 0,-0.0019 0,-0.0038 -0.0143,-0.0038 -0.034,-0.0057 z"
       id="path78" /><path
       style="clip-rule:evenodd;fill:#000000;fill-rule:nonzero;stroke-width:0.234495;stroke-miterlimit:10"
       d="m 177.67465,74.595433 c -0.0267,0.05647 -0.0582,0.106871 -0.0921,0.159455 0.0339,-0.05044 0.0655,-0.104919 0.0921,-0.159455"
       id="path77" /><path
       style="clip-rule:evenodd;fill:#000000;fill-rule:nonzero;stroke-width:0.234495;stroke-miterlimit:10"
       d="m 173.01205,74.831715 c -0.0339,0.0038 -0.0582,0.01818 -0.10666,0.05838 0.0727,-0.05838 0.097,-0.05838 0.16965,-0.05838 -0.0243,0 -0.046,-0.0019 -0.063,0"
       id="path76" /><path
       style="clip-rule:evenodd;fill:#000000;fill-rule:nonzero;stroke-width:0.234495;stroke-miterlimit:10"
       d="m 172.27291,75.318331 c -0.11387,0.03828 -0.22051,0.04431 -0.34166,0.02843 0.12115,0.01598 0.23018,0.01 0.34166,-0.02843 m 0.54042,-0.353328 c -0.22296,0.187814 -0.3853,0.300744 -0.54042,0.353328 0.15512,-0.05255 0.31746,-0.165514 0.54042,-0.353328"
       id="path75" /><path
       style="clip-rule:evenodd;fill:#000000;fill-rule:nonzero;stroke-width:0.234495;stroke-miterlimit:10"
       d="m 175.76736,77.089325 -0.0339,0.10712 h 0.002 z m 0.0631,-0.266566 c -0.0194,0.09693 -0.0315,0.171811 -0.0631,0.266566 0.0291,-0.09476 0.0461,-0.169639 0.0631,-0.266566"
       id="path219" /><path
       id="path220"
       d="m 254.78611,75.717217 h -0.13567 v -2.972745 c 0.31987,-0.03436 0.46769,-0.09694 0.56707,-0.232157 l -1.18022,-0.82395 c 1.19232,-0.13547 1.35225,-0.514965 1.35225,-1.227919 v -4.13378 c 0.24478,-0.05255 0.41683,-0.147587 0.48954,-0.246457 l -1.24078,-0.920876 -0.54037,0.613835 h -1.90238 l -1.3256,-0.490731 v 2.627409 c 0,1.387373 -0.15992,2.800933 -1.44916,3.869397 l 0.12116,0.135221 c 1.54854,-0.700837 2.12531,-1.708466 2.34583,-2.714162 h 2.32159 v 1.165141 c 0,0.159704 -0.0339,0.234349 -0.22055,0.234349 -0.24717,0 -1.25286,-0.06059 -1.25286,-0.06059 v 0.171572 c 0.51619,0.07274 0.74882,0.196046 0.90876,0.319159 0.14539,0.123114 0.19631,0.35551 0.23266,0.625962 l -0.48954,0.626191 h -5.55196 l -1.22862,-0.490731 v 3.929724 h -1.6576 l 0.11147,0.355519 h 10.96572 c 0.17208,0 0.28356,-0.06068 0.31991,-0.195815 -0.36834,-0.393785 -0.99358,-0.969345 -0.99358,-0.969345 z m -0.57674,-8.411271 h -2.21253 v -1.179211 h 2.21253 z m -2.26101,1.53496 c 0.0364,-0.319159 0.0533,-0.640251 0.0533,-0.932994 v -0.258573 h 2.21012 v 1.191567 z m 1.56309,6.876311 h -1.22864 v -3.081798 h 1.22864 z m -2.31192,0 h -1.21411 v -3.081798 h 1.21411 z m -3.49934,-3.081798 h 1.20441 v 3.081798 h -1.20441 z m -0.83365,-2.431364 h 1.76664 v 0.736939 h 0.17206 c 0.34413,0 0.88454,-0.221974 0.89665,-0.294676 v -4.188547 c 0.2593,-0.05044 0.44108,-0.159464 0.51616,-0.258334 l -1.17774,-0.882592 -0.52827,0.587677 h -1.48554 l -1.24074,-0.478624 v 5.906966 h 0.18416 c 0.55251,0 0.89662,-0.258583 0.89662,-0.331276 z m 0,-1.98935 h 1.76908 v 1.63384 h -1.76908 z m 1.76664,-0.357443 h -1.76905 v -1.59724 h 1.76905 z m -13.34548,2.984862 c 0.3417,-0.05255 0.52587,-0.147338 0.61314,-0.246457 l -1.29168,-1.068224 -0.58886,0.799716 h -1.37405 l 0.0727,0.35551 h 1.47341 v 3.683526 c -0.58888,0.294676 -1.16566,0.565366 -1.57035,0.724821 l 0.68825,1.312729 c 0.10904,-0.06059 0.18414,-0.133269 0.15994,-0.280616 0.46527,-0.466507 1.20198,-1.290447 1.65756,-1.892414 0.86998,1.585372 1.8539,1.916638 4.17305,1.916638 h 4.10275 c 0.0509,-0.541372 0.30534,-0.872399 0.78517,-0.969335 v -0.159704 c -1.52189,0.05063 -3.46298,0.05063 -4.90004,0.05063 -2.22224,0 -3.13097,-0.135469 -4.00099,-1.056346 z m -2.42095,-5.365815 c 0.55254,0.551317 1.16565,1.48431 1.31347,2.271899 1.15594,0.858368 2.13742,-1.560888 -1.2044,-2.358661 z m 3.00741,1.36314 h 3.30305 v 1.104814 h -1.45885 l -1.19231,-0.490731 v 4.899079 h 0.15994 c 0.46773,0 0.95723,-0.258334 0.95723,-0.367378 v -0.333219 h 1.53399 v 1.363149 h -3.57204 l 0.0969,0.357443 h 3.47513 v 1.3995 h 0.21084 c 0.44348,0 0.92089,-0.258583 0.92089,-0.381687 v -1.017813 h 3.4751 c 0.17205,0 0.29564,-0.06279 0.33199,-0.197988 -0.49191,-0.416096 -1.26745,-1.005696 -1.26745,-1.005696 l -0.69787,0.846241 h -1.84177 v -1.363149 h 1.57033 v 0.504791 h 0.1963 c 0.38291,0 0.94752,-0.258584 0.95965,-0.345327 v -3.313965 c 0.24474,-0.05255 0.42891,-0.159455 0.51619,-0.258564 l -1.21655,-0.908769 -0.56463,0.614083 h -1.46129 v -1.104814 h 3.2909 c 0.16964,0 0.30537,-0.0625 0.3296,-0.19774 -0.46531,-0.430155 -1.25046,-1.005705 -1.25046,-1.005705 l -0.70035,0.846001 h -1.66969 v -0.969354 c 0.33198,-0.05235 0.41681,-0.171572 0.45558,-0.355261 l -1.58731,-0.159704 v 1.484319 h -3.39999 z m 3.30305,2.738405 h -1.53399 v -1.276138 h 1.53399 z m -1.53399,0.35551 h 1.53399 v 1.36314 h -1.53399 z m 2.66572,0 h 1.57033 v 1.36314 h -1.57033 z m 1.57033,-0.35551 h -1.57033 v -1.276138 h 1.57033 z m -10.15392,3.524061 -0.14781,-0.03436 c -0.17208,0.514975 -0.41681,1.129049 -0.59132,1.435861 -0.10905,0.222213 -0.18174,0.234339 -0.34169,0.03436 -0.43136,-0.454389 -0.76094,-1.017822 -1.02024,-1.670191 0.65192,-0.908759 1.15595,-1.865987 1.52185,-2.762639 0.30776,0.0223 0.41924,-0.06059 0.48228,-0.195806 l -1.43949,-0.516908 c -0.20839,0.761182 -0.52588,1.573015 -0.92086,2.358671 -0.22055,-0.848184 -0.34171,-1.781178 -0.41682,-2.76264 l 2.64146,-0.393804 c 0.15994,-0.0223 0.28112,-0.109053 0.28112,-0.258564 -0.49194,-0.331037 -1.30135,-0.773299 -1.30135,-0.773299 l -0.54042,0.896642 -1.10504,0.171582 c -0.0509,-0.993589 -0.0606,-2.025462 -0.0339,-3.057574 0.31746,-0.05044 0.41682,-0.195806 0.44106,-0.355271 l -1.60913,-0.171811 c 0,1.312738 0.0243,2.566833 0.11148,3.75841 l -1.12927,0.171572 0.14541,0.319159 1.00809,-0.147587 c 0.12361,1.435842 0.3417,2.76264 0.73673,3.929973 -0.72461,1.104575 -1.64548,2.124571 -2.73847,2.89786 l 0.12364,0.147587 c 1.16566,-0.589849 2.13501,-1.375266 2.92258,-2.259791 0.29324,0.662312 0.66159,1.26403 1.11476,1.793285 0.43136,0.514974 1.27954,1.04399 1.76904,0.625971 0.18417,-0.13524 0.13568,-0.490741 -0.2205,-1.155226 z m -4.74011,0.737188 c 0.17206,0 0.29323,-0.06279 0.32959,-0.197988 -0.45316,-0.430156 -1.21411,-1.005696 -1.21411,-1.005696 l -0.6519,0.846231 h -1.20198 v -1.423725 h 1.14141 v 0.466507 h 0.16962 c 0.37079,0 0.88455,-0.258574 0.89669,-0.35551 v -3.598697 c 0.19627,-0.03436 0.35862,-0.135231 0.43133,-0.22005 l -1.09294,-0.836057 -0.51617,0.565376 h -3.09465 l -1.22865,-0.490741 v 5.143602 h 0.17208 c 0.55491,0 0.89663,-0.232157 0.89663,-0.319159 v -0.355271 h 1.10506 v 1.423725 h -2.77475 l 0.0993,0.357453 h 2.67541 v 2.516183 h 0.18659 c 0.57434,0 0.92088,-0.232157 0.933,-0.307032 v -2.209151 z m -2.7384,-3.622931 h 1.14141 v 1.486243 h -1.14141 z m 1.14141,-0.357453 h -1.14141 v -1.423725 h 1.14141 z m -2.25858,0 h -1.10505 v -1.423725 h 1.10505 z m -1.10748,0.357453 h 1.10506 v 1.486243 h -1.10506 z m -1.39829,-4.802391 c 0.32958,0.516908 0.71245,1.338915 0.7488,2.001218 0.90879,0.799706 1.91688,-1.056107 -0.61307,-2.07392 z m 1.96534,-0.294925 c 0.25689,0.553499 0.55254,1.375266 0.54043,2.063986 0.86998,0.858358 1.98955,-0.945121 -0.40713,-2.124571 z m 2.83536,-0.0099 c -0.29324,0.969345 -0.7125,2.061794 -1.04202,2.711989 l 0.1696,0.123343 c 0.63974,-0.502848 1.328,-1.276386 1.866,-2.062042 0.25927,0.0223 0.41926,-0.07466 0.46771,-0.19774 z m 3.75621,0.587668 c 0.44348,0.393785 0.89665,1.082274 0.98392,1.669942 0.98141,0.712953 1.86599,-1.251914 -0.86031,-1.754762 z m -9.96975,7.651783 h -0.14783 c -0.0969,0.5896 -0.26899,1.351022 -0.35379,1.522594 -0.0631,0.09887 -0.13571,0.109053 -0.19871,0.121171 h -0.58647 c -0.15991,0 -0.19872,-0.07274 -0.19872,-0.256392 v -8.203099 c 0.29568,-0.05255 0.42895,-0.123353 0.52832,-0.222223 l -1.1899,-0.993588 -0.61551,0.686547 h -1.54612 l -1.31588,-0.502848 v 4.812564 c 0,2.370779 -0.25689,4.420465 -2.04777,6.005836 l 0.1454,0.123104 c 2.76266,-1.486253 3.01953,-3.82068 3.01953,-6.141057 v -3.942099 h 1.89264 v 8.7079 c 0,0.71102 0.14784,1.005696 0.96936,1.005696 h 0.55252 c 1.10506,0 1.52428,-0.207923 1.52428,-0.650196 0,-0.222213 -0.0872,-0.345326 -0.38286,-0.490731 z m -8.0795,-5.109433 h 1.75452 c 0.17208,0 0.29563,-0.06059 0.332,-0.195806 -0.40471,-0.418029 -1.10504,-1.031873 -1.10504,-1.031873 l -0.61314,0.872418 h -0.37077 v -2.358901 c 0.32232,-0.05044 0.41925,-0.159464 0.44348,-0.343154 l -1.56065,-0.159703 v 2.861758 h -1.92656 l 0.0969,0.355261 h 1.62363 c -0.32228,1.841763 -0.90874,3.746284 -1.80539,5.157901 l 0.16962,0.135221 c 0.75127,-0.737188 1.36437,-1.571072 1.84177,-2.506248 v 5.392001 h 0.2351 c 0.4168,0 0.88207,-0.221984 0.88207,-0.355271 v -6.547217 c 0.39503,0.516908 0.77306,1.229861 0.84818,1.805411 0.94512,0.82395 1.97746,-1.104565 -0.84818,-2.061803 z m -4.29905,0.05255 c 0.17206,0 0.30777,-0.0625 0.34411,-0.197988 -0.50405,-0.478614 -1.36194,-1.153034 -1.36194,-1.153034 l -0.76092,0.993579 h -2.98557 v -2.356728 c 0.36836,-0.05254 0.4798,-0.195816 0.50405,-0.381687 l -1.69637,-0.18368 v 2.922095 h -5.02119 l 0.0993,0.357443 h 4.13669 c -0.80941,2.160913 -2.35549,4.39647 -4.35962,5.832321 l 0.1236,0.159455 c 2.21009,-1.116692 3.91857,-2.702054 5.02119,-4.592285 v 3.758161 h -2.51547 l 0.0994,0.35551 h 2.41853 v 2.615302 h 0.23266 c 0.47982,0 0.95964,-0.234339 0.95964,-0.367627 v -2.247684 h 2.24646 c 0.16965,0 0.29325,-0.06058 0.32959,-0.195806 -0.45318,-0.466497 -1.21412,-1.104815 -1.21412,-1.104815 l -0.67611,0.945111 h -0.68822 v -5.157615 c 0.86028,2.639536 2.30945,4.666921 4.17542,5.870605 0.19632,-0.5896 0.59136,-0.959161 1.08087,-1.04398 l 0.034,-0.13547 c -1.91443,-0.811823 -3.9404,-2.566594 -5.0333,-4.691155 z m -14.44084,-2.689937 -0.62766,0.67442 h -5.00908 l -1.30379,-0.539199 v 10.598351 h 0.21085 c 0.52829,0 0.99356,-0.294915 0.99356,-0.456562 v -0.698654 h 5.23204 v 1.068224 h 0.19633 c 0.45556,0 1.03232,-0.294676 1.05657,-0.393804 V 66.85374 c 0.24718,-0.06059 0.41684,-0.159704 0.50161,-0.258574 z m -0.50408,4.875084 h -5.22958 v -3.84322 h 5.22958 z m -5.23204,0.355271 h 5.22962 V 74.8225 h -5.22962 z"
       style="clip-rule:evenodd;fill:#000000;fill-rule:nonzero;stroke-width:0.234495;stroke-miterlimit:10" /><path
       id="path221"
       d="m 256.34676,82.844017 c 0,1.572271 -0.54324,2.869582 -1.62765,3.891511 h -0.46178 c 1.11366,-1.027144 1.67154,-2.324463 1.67154,-3.891511 0,-1.572281 -0.55788,-2.872934 -1.67154,-3.900095 h 0.46178 c 1.08441,1.021938 1.62765,2.320924 1.62765,3.900095 m -5.8942,-3.726041 v 3.978638 h 0.021 l 2.56791,-1.976362 h 0.55576 l -2.81023,2.159197 2.8541,2.367919 h -0.54742 l -2.62012,-2.185101 h -0.021 v 2.185101 H 250.043 v -6.529392 z m -2.62849,2.002276 h 0.42622 v 4.527116 h -0.42622 z m 0,-2.002276 h 0.42622 v 0.957579 h -0.42622 z m -4.89339,5.293089 c 0,0.301294 0.0961,0.543247 0.28833,0.722731 0.19641,0.179261 0.46178,0.269738 0.79188,0.269738 0.43462,0 0.81277,-0.160043 1.13243,-0.478682 0.31764,-0.325745 0.47852,-0.727946 0.47852,-1.210185 v -0.58336 h -0.4973 c -0.70204,0 -1.24528,0.113252 -1.62763,0.339526 -0.37821,0.226496 -0.56623,0.539905 -0.56623,0.940232 z m 1.42914,-3.377733 c 0.60385,0 1.03216,0.13059 1.28709,0.39177 0.25697,0.255948 0.38444,0.696398 0.38444,1.323207 v 1.680309 c 0,0.405551 0.0417,0.812993 0.12955,1.21875 h -0.40117 c -0.0523,-0.266404 -0.0836,-0.565816 -0.0941,-0.896769 h -0.021 c -0.15671,0.301286 -0.38653,0.543239 -0.68742,0.722723 -0.29463,0.174046 -0.63519,0.261172 -1.01753,0.261172 -0.43045,0 -0.77101,-0.116792 -1.02802,-0.348298 -0.25489,-0.238619 -0.38234,-0.55725 -0.38234,-0.957578 0,-0.51023 0.22147,-0.908892 0.6707,-1.192847 0.45129,-0.290633 1.09276,-0.435218 1.92227,-0.435218 h 0.49726 v -0.0453 c 0,-0.515247 -0.092,-0.872326 -0.27792,-1.070822 -0.17966,-0.201832 -0.50979,-0.304628 -0.98407,-0.304628 -0.56206,0 -1.07188,0.134138 -1.5232,0.400534 l -0.10449,-0.330961 c 0.48686,-0.278518 1.03011,-0.417888 1.62769,-0.417888 z m -5.6769,-1.915356 v 3.978638 h 0.0189 l 2.56787,-1.976362 h 0.55786 l -2.81233,2.159197 2.85622,2.367919 h -0.54952 l -2.6201,-2.185101 h -0.0189 v 2.185101 h -0.40953 v -6.529392 z m -3.88215,0.470117 c -0.27995,0 -0.58083,0.05744 -0.90677,0.174046 -0.32594,0.109687 -0.61847,0.26118 -0.87967,0.452779 l -0.15664,-0.339535 c 0.26741,-0.203712 0.58081,-0.365644 0.9402,-0.487463 0.36145,-0.122015 0.7104,-0.182818 1.04466,-0.182818 0.59342,0 1.0552,0.156709 1.3853,0.470117 0.33012,0.306303 0.49519,0.739854 0.49519,1.297104 0,0.562474 -0.22773,1.157949 -0.68739,1.784774 -0.45134,0.619719 -1.27872,1.453805 -2.48014,2.498509 v 0.01923 h 3.21975 v 0.37421 h -3.82986 v -0.37421 c 1.28917,-1.102164 2.16461,-1.962367 2.62849,-2.57707 0.4701,-0.614495 0.70622,-1.178636 0.70622,-1.688866 0,-0.452778 -0.12746,-0.800871 -0.38236,-1.044705 -0.25493,-0.249049 -0.62056,-0.374424 -1.09698,-0.374424 z m -5.03336,0.05224 v 1.654183 h 1.7948 v 0.3481 h -1.7948 v 2.672761 c 0,0.435235 0.0648,0.722525 0.19219,0.861878 0.12751,0.139371 0.36151,0.208945 0.70419,0.208945 0.2737,0 0.52024,-0.04349 0.74173,-0.130591 l 0.0857,0.330755 c -0.27791,0.09758 -0.56835,0.148143 -0.86919,0.148143 -0.47014,0 -0.79818,-0.09925 -0.98413,-0.296071 -0.18595,-0.203713 -0.27999,-0.560585 -0.27999,-1.070823 v -2.724997 h -1.0447 v -0.3481 h 1.0447 V 79.64033 Z m -5.77094,3.543222 h 3.12576 c -0.0147,-0.586711 -0.15043,-1.032376 -0.40952,-1.34056 -0.257,-0.313417 -0.61846,-0.470125 -1.08858,-0.470125 -0.49936,0 -0.8922,0.160051 -1.17632,0.478682 -0.28211,0.313416 -0.43463,0.757414 -0.45134,1.332003 z m -0.0105,0.348307 c 0.007,0.579803 0.16716,1.035923 0.4785,1.366884 0.31968,0.330754 0.74381,0.496234 1.27035,0.496234 0.48267,0 0.93813,-0.122024 1.36647,-0.365643 l 0.13165,0.321973 c -0.47011,0.255949 -0.97785,0.383197 -1.52318,0.383197 -0.64982,0 -1.16801,-0.208937 -1.5587,-0.626816 -0.38238,-0.423113 -0.57459,-0.997693 -0.57459,-1.723766 0,-0.731296 0.18178,-1.305877 0.54742,-1.723765 0.36565,-0.41788 0.86712,-0.626816 1.49809,-0.626816 0.60385,0 1.0719,0.200164 1.40199,0.600706 0.33016,0.40032 0.49521,0.968017 0.49521,1.706213 v 0.191599 z m -2.64723,-2.141646 c -0.56834,0 -1.01547,0.175927 -1.34142,0.531124 -0.31758,0.348092 -0.47847,0.835761 -0.47847,1.462585 0,0.602381 0.16922,1.08816 0.50564,1.453804 0.33846,0.365653 0.77517,0.548471 1.31425,0.548471 0.40116,0 0.7835,-0.09569 1.14915,-0.287299 l 0.12118,0.330763 c -0.40534,0.202037 -0.83575,0.304843 -1.28704,0.304843 -0.66237,0 -1.19933,-0.21605 -1.61098,-0.644378 -0.40534,-0.429994 -0.61008,-0.999359 -0.61008,-1.706204 0,-0.731296 0.19848,-1.305877 0.59338,-1.723765 0.39492,-0.41788 0.93815,-0.626816 1.62768,-0.626816 0.45129,0 0.8817,0.100924 1.28704,0.304636 l -0.12118,0.339535 c -0.36565,-0.191599 -0.74799,-0.287299 -1.14915,-0.287299 z m -7.45292,1.993709 c 0,0.480564 0.1003,0.854782 0.2967,1.123051 0.20474,0.26118 0.48261,0.39177 0.83576,0.39177 0.35521,0 0.631,-0.120143 0.8274,-0.357086 0.20264,-0.243612 0.30506,-0.586703 0.30506,-1.027145 v -0.261171 c 0,-0.440665 -0.10242,-0.780191 -0.30506,-1.018588 -0.1964,-0.243842 -0.47219,-0.365651 -0.8274,-0.365651 -0.34895,0 -0.62268,0.133931 -0.82742,0.400327 -0.20055,0.266404 -0.30295,0.637272 -0.30295,1.114493 z m 3.75255,1.453804 c 0.24446,-0.435217 0.36562,-0.921005 0.36562,-1.453804 0,-0.853313 -0.26323,-1.54093 -0.79185,-2.063283 -0.52649,-0.529466 -1.21811,-0.792313 -2.07269,-0.792313 -0.83992,0 -1.52734,0.266404 -2.06225,0.800879 -0.52859,0.527567 -0.79188,1.211851 -0.79188,2.054717 0,0.840984 0.26329,1.52861 0.79188,2.063283 0.53491,0.527584 1.22233,0.792098 2.06225,0.792098 0.65191,0 1.21185,-0.165265 1.68198,-0.496234 l 0.20894,0.28729 c -0.54117,0.370876 -1.17008,0.557251 -1.89092,0.557251 -0.93187,0 -1.70284,-0.299421 -2.3067,-0.896777 -0.59758,-0.591935 -0.89634,-1.361454 -0.89634,-2.306911 0,-0.940233 0.29876,-1.709967 0.89634,-2.307118 0.60386,-0.599031 1.37483,-0.896776 2.3067,-0.896776 0.95903,0 1.73421,0.29607 2.32552,0.887997 0.59128,0.585035 0.88802,1.358113 0.88802,2.315897 0,0.684276 -0.16718,1.284982 -0.50567,1.802111 h -1.67989 V 84.68103 h -0.0188 c -0.15672,0.214167 -0.33012,0.367319 -0.52235,0.461336 -0.18596,0.08714 -0.42206,0.13059 -0.70621,0.13059 -0.44715,0 -0.80443,-0.165265 -1.0698,-0.496234 -0.26117,-0.33597 -0.39279,-0.800862 -0.39279,-1.392797 0,-0.592141 0.13162,-1.053477 0.39279,-1.384222 0.26119,-0.336193 0.61848,-0.505023 1.0698,-0.505023 0.28415,0 0.52025,0.0453 0.70621,0.13937 0.18597,0.08693 0.35936,0.238404 0.52235,0.452564 h 0.0188 v -0.5048 h 0.42627 v 3.255915 z m -8.40983,-1.993708 c 0,-1.579171 0.54323,-2.879833 1.62763,-3.900095 h 0.46173 c -1.11363,1.02716 -1.67147,2.326139 -1.67147,3.900095 0,1.567048 0.55784,2.864367 1.67147,3.891511 h -0.46173 c -1.0844,-1.021929 -1.62763,-2.31924 -1.62763,-3.891511"
       style="clip-rule:evenodd;fill:#000000;fill-rule:nonzero;stroke-width:0.20218;stroke-miterlimit:10" /><path
       style="clip-rule:evenodd;fill:#000000;fill-rule:nonzero;stroke-width:0.234495;stroke-miterlimit:10"
       d="m 174.95068,64.196525 0.17937,0.12117 c 0.49922,0.345327 0.67854,0.551307 0.70035,0.817882 0.012,0.131106 -0.0339,0.427964 -0.0946,0.676373 -0.0218,0.0991 -0.0388,0.173745 -0.0339,0.17787 0.0122,0.01819 0.63734,-0.119237 0.94992,-0.197998 0.40473,-0.102986 0.65916,-0.189748 0.83607,-0.284741 l 0.14299,-0.07877 0.19873,0.12722 c 0.10905,0.07073 0.73912,0.484672 1.40555,0.922819 l 0.002,-0.0057 c 0.66401,0.438386 1.21168,0.795839 1.21651,0.795839 l 0.002,-0.0019 c -0.0122,-0.04652 -0.26902,-0.408094 -0.44352,-0.630068 -0.21081,-0.266575 -0.7367,-0.799715 -1.00328,-1.00983 -1.08807,-0.866341 -2.43792,-1.387374 -3.78528,-1.425658 z"
       id="path102" /><path
       style="clip-rule:evenodd;fill:#000000;fill-rule:nonzero;stroke-width:0.234495;stroke-miterlimit:10"
       d="m 171.85605,64.951649 -0.0921,0.06279 c -0.475,0.268518 -0.83124,0.52491 -1.25292,0.904654 -0.18416,0.165514 -0.56946,0.585724 -0.59126,0.624009 0.005,0.0057 0.0703,0.01818 0.20841,0.0057 0.63006,-0.04049 1.47096,-0.08671 1.87568,-0.119228 0.2496,-0.02211 0.46769,-0.02814 0.4798,-0.02814 0.0171,0 0.0218,-0.01618 0.0122,-0.119218 -0.0194,-0.17764 -0.0848,-0.395738 -0.18903,-0.611902 -0.0872,-0.181755 -0.28595,-0.496789 -0.40467,-0.648252 z"
       id="path101" /><path
       style="clip-rule:evenodd;fill:#000000;fill-rule:nonzero;stroke-width:0.234495;stroke-miterlimit:10"
       d="m 180.8322,68.031504 c -0.0412,0 -4.03974,0.460448 -4.13425,0.466488 l -0.0702,0.0057 0.0824,0.0402 c 1.10749,0.700827 2.41123,1.375256 3.30066,1.704589 0.43617,0.161398 0.99356,0.310909 1.33528,0.351385 l 0.002,0.02211 c 0.0291,0 0.0582,0.0038 0.0703,0.0057 0.0267,0.0038 0.0267,-0.09092 0.005,-0.393804 -0.0582,-0.686537 -0.23024,-1.407482 -0.48467,-2.013325 -0.0606,-0.14953 -0.0776,-0.189757 -0.10662,-0.189757 z"
       id="path100" /><path
       style="clip-rule:evenodd;fill:#000000;fill-rule:nonzero;stroke-width:0.234495;stroke-miterlimit:10"
       d="m 168.81958,68.395006 -0.0218,0.07054 c -0.0412,0.101052 -0.15993,0.484673 -0.20842,0.680718 -0.0969,0.418029 -0.16717,0.852061 -0.17929,1.272262 l -0.0218,0.296868 0.0436,-0.02421 c 0.0243,-0.01618 0.13087,-0.06882 0.23749,-0.129402 0.10907,-0.0625 0.29327,-0.157522 0.42168,-0.228042 0.38288,-0.199931 0.6422,-0.343393 0.65675,-0.367627 0.0218,-0.02833 0.13326,-0.117045 0.17934,-0.123104 0.0218,-0.0057 0.11146,-0.06279 0.19627,-0.127229 0.15266,-0.117294 0.61795,-0.537266 0.60582,-0.545257 -0.005,-0.0057 -0.1769,0.0057 -0.39016,0.03024 l -0.38046,0.03829 -0.57192,-0.419972 z"
       id="path99" /><path
       style="clip-rule:evenodd;fill:#000000;fill-rule:nonzero;stroke-width:0.234495;stroke-miterlimit:10"
       d="m 173.25194,70.420468 -0.15024,0.16357 c -0.0824,0.09083 -0.22296,0.236283 -0.30535,0.313101 l -0.15755,0.147328 0.0946,0.416105 c 0.0581,0.224165 0.12598,0.545258 0.15993,0.712714 l 0.0702,0.299041 h 0.0946 c 0.046,0 0.13813,-0.0038 0.18419,-0.0057 l 0.0921,-0.0057 -0.0122,-0.686776 c -0.0122,-0.624019 -0.0243,-1.001581 -0.0606,-1.256029 z"
       id="path98" /><path
       style="clip-rule:evenodd;fill:#000000;fill-rule:nonzero;stroke-width:0.234495;stroke-miterlimit:10"
       d="m 170.34633,72.411741 -0.15997,0.07054 c -0.43136,0.193863 -0.92813,0.363501 -1.17777,0.426269 -0.2496,0.05838 -0.22534,0.02431 -0.13327,0.266565 0.11633,0.286694 0.33929,0.727014 0.50892,0.993589 1.01779,1.627532 2.64145,2.697929 4.55594,3.002789 l 0.002,0.0057 c 0.10905,0.0057 0.22535,0.02833 0.25928,0.02833 0.0606,0.0019 0.0558,-0.0038 -0.0945,-0.129153 -0.20356,-0.171821 -0.4968,-0.480796 -0.62039,-0.654321 -0.20355,-0.282807 -0.32474,-0.553488 -0.34653,-0.807946 -0.0121,-0.123104 0.002,-0.480557 0.0339,-0.712705 l 0.005,-0.07073 h -0.10179 c -0.10419,0 -0.10662,0.0019 -0.26413,0.133288 -0.44833,0.375628 -0.65673,0.446388 -1.0154,0.351394 -0.6737,-0.181755 -1.20198,-0.545267 -1.40553,-0.961353 -0.17691,-0.351394 -0.17691,-0.63202 -0.0122,-0.999637 0.0461,-0.115112 0.0751,-0.201865 0.0824,-0.272634 0.012,-0.125047 -0.0218,-0.371503 -0.0824,-0.549134 z"
       id="path97" /><path
       style="clip-rule:evenodd;fill:#000000;fill-rule:nonzero;stroke-width:0.234495;stroke-miterlimit:10"
       d="m 178.14711,72.740835 -0.10178,0.476681 c -0.23505,1.104575 -0.2932,1.282205 -0.47738,1.560888 -0.24474,0.365684 -0.66402,0.492913 -1.13898,0.337335 -0.13814,-0.04431 -0.39257,-0.155589 -0.47741,-0.218107 -0.0218,-0.01819 -0.0484,-0.02833 -0.0581,-0.0223 0,0.0038 -0.0171,0.428212 -0.0218,0.937119 -0.0121,0.977346 -0.0243,1.023871 -0.10424,1.278329 l -0.0339,0.104938 0.10421,-0.0038 c 0.47741,-0.05867 1.1729,-0.250582 1.67457,-0.468679 0.78032,-0.339278 1.39587,-0.761183 2.01379,-1.375266 0.45563,-0.45438 0.807,-0.918704 1.10265,-1.449902 0.15753,-0.284751 0.45074,-0.920877 0.42405,-0.943177 -0.005,-0.01598 -0.22049,-0.0019 -0.48465,0.0038 -0.26655,0.01618 -0.84088,0.0223 -1.27466,0.0223 l -0.79245,0.0019 -0.0921,-0.06279 c -0.0533,-0.03828 -0.13088,-0.08872 -0.17935,-0.117045 z"
       id="path222" /><path
       id="rect3"
       style="fill:#000000;fill-opacity:1;stroke:none;stroke-width:0.171861;stroke-linecap:square;stroke-linejoin:round;paint-order:markers stroke fill"
       d="m 45.788526,261.78752 0.307785,35.31012 35.310448,0.30776 -0.30781,-35.31008 z m 15.35907,2.5494 c 0,0 -2.4e-5,-1.6e-4 4.520529,2.7928 -0.122466,1.34863 -0.224059,2.64815 -0.317029,3.92385 2.218202,-0.63596 3.560842,-1.40059 3.560842,-1.40059 l 5.421935,3.8213 c 0,0 -0.684325,0.50536 -1.029814,1.32414 -0.03525,0.0835 -0.07211,0.17565 -0.108564,0.26545 1.110764,-0.25038 1.932575,-0.44157 1.932575,-0.44157 l 3.449071,2.63055 c -1.969791,0.15283 -4.128786,0.33173 -6.387739,0.55228 -0.571446,1.64757 -1.188603,3.49972 -1.773266,5.08404 l 2.241253,1.49455 c -5.355157,0.41545 -5.564453,0.40134 -7.879486,0.85413 -0.03621,6.04416 0.225655,9.60933 0.225655,9.60933 -2.473808,-2.42632 -1.724214,-1.52753 -2.474055,-2.42646 0,0 0.226189,-2.8963 0.389629,-6.81881 -0.748183,0.14639 -1.61186,0.31366 -2.753819,0.52754 l -1.219488,-1.25164 c 0.0201,0.15273 0.03725,0.2968 0.03725,0.2968 l -2.011451,1.50624 c -0.159771,-2.29082 -0.541599,-4.45487 -1.017682,-6.4054 -1.313933,0.30261 -2.603867,0.63096 -3.848152,0.99643 l -3.528611,-3.97942 c 0.917557,0.8589 3.528236,0.99556 6.770437,0.75914 -1.292773,-4.28973 -2.847923,-7.09178 -2.847923,-7.09178 2.10215,2.09875 3.538079,4.61592 4.512969,6.9447 1.937647,-0.19908 4.019489,-0.49826 6.06105,-0.83859 -0.01252,-1.21586 -0.04203,-2.42136 -0.09731,-3.58157 -0.979309,0.20922 -2.284229,0.48141 -4.346066,0.86756 l -2.697731,-2.76823 c 2.572816,0.4584 4.940053,0.3545 6.929984,0.0284 -0.257686,-3.38355 -0.773682,-6.15376 -1.715055,-7.27523 z m 7.73432,8.26685 c -1.853722,0.15731 -2.789298,0.26715 -3.669869,0.42241 -0.08213,1.28399 -0.145733,2.50785 -0.201766,3.70182 1.952907,-0.35175 3.77888,-0.71631 5.352095,-1.04678 0.121661,-0.58592 0.245531,-1.17308 0.381286,-1.76115 z m 0.98194,5.44459 c -1.621367,0.17658 -3.270237,0.3744 -4.938282,0.60765 -0.06086,1.59942 -0.101297,3.10873 -0.124325,4.50546 2.341403,-0.65107 3.486185,-1.69136 3.486185,-1.69136 l 0.526229,0.3508 c 0.44508,-1.23047 0.767158,-2.4927 1.050193,-3.77255 z m -6.786533,0.87966 c -1.788038,0.27573 -3.572631,0.59158 -5.324513,0.95453 0.482599,1.44787 0.783398,2.72187 0.967743,3.66262 1.64,0.191 3.062099,0.15112 4.273715,-0.0145 0.04642,-1.47482 0.07673,-3.02393 0.08306,-4.60265 z"
       sodipodi:nodetypes="ccccccccccscccccccccccccccccccccccccccccccccccccccccccc" /><path
       id="path8"
       style="fill:#000000;fill-opacity:1;stroke:none;stroke-width:0.171861;stroke-linecap:square;stroke-linejoin:round;paint-order:markers stroke fill"
       d="m 45.788526,300.1628 0.213012,24.43821 17.685437,3.69718 17.625003,-3.38971 -0.21302,-24.43793 z m 28.779966,2.06507 a 1.0978714,1.0788983 45 0 1 1.097643,1.09797 1.0978714,1.0788983 45 0 1 -1.078675,1.07867 1.0978714,1.0788983 45 0 1 -1.097986,-1.09765 1.0978714,1.0788983 45 0 1 1.079018,-1.07899 z m 3.589334,0.0313 a 1.0978714,1.0788983 45 0 1 1.097978,1.09797 1.0978714,1.0788983 45 0 1 -1.079004,1.07868 1.0978714,1.0788983 45 0 1 -1.097626,-1.09762 1.0978714,1.0788983 45 0 1 1.078652,-1.07903 z m -14.751493,0.20062 c 0.133011,-0.0275 0.412713,0.90375 1.795241,5.86564 l 1.551609,5.56876 -0.298214,0.20786 c -0.610234,0.42466 -1.064781,1.8602 -1.13364,3.58119 l -0.02736,0.69354 -1.699502,0.0242 -1.699512,0.0242 -0.0056,-0.52455 c -0.01651,-1.51741 -0.577931,-3.3353 -1.194234,-3.86524 l -0.32602,-0.28022 1.47924,-5.6064 c 0.813628,-3.0836 1.503545,-5.63562 1.53308,-5.67142 0.0071,-0.01 0.01579,-0.0157 0.02553,-0.0165 z m 14.782783,3.38871 a 1.0978714,1.0788983 45 0 1 1.097986,1.098 1.0978714,1.0788983 45 0 1 -1.079002,1.079 1.0978714,1.0788983 45 0 1 -1.097652,-1.09798 1.0978714,1.0788983 45 0 1 1.078668,-1.07902 z m -16.286829,13.39201 1.700205,0.0539 1.700173,0.0535 0.05065,1.21472 0.05065,1.21437 -1.739894,-0.0152 -1.739926,-0.0152 -0.01092,-1.25277 z m -15.884494,7.22431 0.04554,5.22308 12.988339,-2.49797 z m 35.310424,0.30779 -12.989352,2.49829 13.034897,2.72512 z m -17.624667,3.3897 -17.623989,3.3897 0.01675,1.92088 35.310432,0.30779 -0.01675,-1.92055 z" /><path
       style="font-weight:900;font-size:36.6211px;line-height:1.5;font-family:'M+ 1p';-inkscape-font-specification:'M+ 1p Heavy';text-align:end;letter-spacing:-0.411988px;word-spacing:-0.274657px;text-anchor:end;stroke-width:0.805155;stroke-linecap:square;stroke-linejoin:round;paint-order:markers stroke fill"
       d="m 148.33374,68.466478 q 5.40316,0.64069 10.78496,0.64069 v 3.417019 q -5.7235,0 -11.21209,-0.64069 z"
       id="path108" /><path
       style="font-weight:900;font-size:36.6211px;line-height:1.5;font-family:'M+ 1p';-inkscape-font-specification:'M+ 1p Heavy';text-align:end;letter-spacing:-0.411988px;word-spacing:-0.274657px;text-anchor:end;stroke-width:0.805155;stroke-linecap:square;stroke-linejoin:round;paint-order:markers stroke fill"
       d="m 149.61512,76.475115 h 0.0214 q 3.0326,-1.815291 5.63807,-1.815291 3.37432,0 4.89062,1.302739 1.5163,1.281382 1.5163,4.036354 0,2.861752 -2.45598,4.527549 -2.43463,1.665797 -6.94083,1.665797 -2.71225,0 -5.44587,-0.320345 l 0.32034,-3.41702 q 2.81904,0.320346 5.12553,0.320346 2.24243,0 3.5238,-0.768829 1.28139,-0.790185 1.28139,-2.007498 0,-1.922073 -2.45598,-1.922073 -1.96479,0 -5.97979,2.242418 l -3.63058,-0.747472 q 0.59798,-3.481089 1.06782,-6.620475 l 3.95092,0.320346 q -0.12813,1.110531 -0.42712,3.203454 z"
       id="path107" /><path
       style="font-weight:900;font-size:36.6211px;line-height:1.5;font-family:'M+ 1p';-inkscape-font-specification:'M+ 1p Heavy';text-align:end;letter-spacing:-0.411988px;word-spacing:-0.274657px;text-anchor:end;stroke-width:0.805167;stroke-linecap:square;stroke-linejoin:round;paint-order:markers stroke fill"
       d="m 149.81761,64.978865 -3.71607,0.896979 q -1.34546,-5.467309 -3.2035,-10.635625 l 3.71607,-0.939695 q 1.90075,5.403241 3.2035,10.678341 z"
       id="path106" /><path
       style="font-weight:900;font-size:36.6211px;line-height:1.5;font-family:'M+ 1p';-inkscape-font-specification:'M+ 1p Heavy';text-align:end;letter-spacing:-0.411988px;word-spacing:-0.274657px;text-anchor:end;stroke-width:0.805167;stroke-linecap:square;stroke-linejoin:round;paint-order:markers stroke fill"
       d="m 137.85787,55.581925 q 1.19597,0 1.75126,0 0.55526,0 1.28139,0.149496 0.74748,0.128142 0.98241,0.213568 0.25627,0.08542 0.61934,0.555274 0.36306,0.469847 0.42713,0.811553 0.064,0.341706 0.17086,1.302758 0.10672,0.939694 0.10672,1.687178 0,0.747484 0,2.327878 0,4.249979 -1.04648,6.086654 -1.02512,1.815317 -3.0113,1.815317 -0.89697,0 -2.32787,-0.256279 -1.43088,-0.256281 -2.37059,-0.597988 l 0.85427,-3.417069 q 2.2638,0.640701 2.98993,0.640701 0.85426,0 0.85426,-4.912037 0,-2.221095 -0.17084,-2.605516 -0.1495,-0.38442 -1.11055,-0.38442 H 136.192 q -1.19597,5.531382 -3.45979,11.746175 l -3.31029,-1.067834 q 1.90075,-5.40324 3.07536,-10.678341 h -2.75501 v -3.417068 h 3.48114 q 0.299,-1.494967 0.68342,-4.057769 l 3.52385,0.213568 q -0.1495,1.366826 -0.57663,3.844201 z"
       id="path105" /><path
       style="font-weight:900;font-size:36.6211px;line-height:1.5;font-family:'M+ 1p';-inkscape-font-specification:'M+ 1p Heavy';text-align:end;letter-spacing:-0.411988px;word-spacing:-0.274657px;text-anchor:end;stroke-width:1.38065;stroke-linecap:square;stroke-linejoin:round;paint-order:markers stroke fill"
       d="m 113.53753,58.482171 h 5.12696 v -1.831055 h -5.12696 z m 0,26.184088 V 72.581295 h 2.70996 q -2.30713,-1.464844 -4.79736,-3.66211 h -2.41699 q -2.49024,2.197266 -4.79737,3.66211 h 2.89307 v 0.366211 q 0,5.419923 -2.41699,8.056643 -2.417,2.636719 -8.752451,4.028321 l -2.563477,-5.493165 q 4.614259,-1.281739 5.859376,-2.087403 1.281742,-0.805664 1.428222,-2.819825 -3.076171,1.574707 -6.37207,2.709961 l -2.197266,-5.859376 q 4.394532,-1.318359 7.250978,-2.563477 h -4.32129 V 51.524162 h 30.395518 v 17.395023 h -4.32129 q 2.85644,1.245118 7.25098,2.563477 l -2.19727,5.859376 q -3.18603,-1.098633 -5.67627,-2.34375 v 9.667971 z m 0,-22.155767 v 1.831055 h 5.12696 v -1.831055 z m -11.71875,0 v 1.831055 h 5.12695 v -1.831055 z m 0,-4.028321 h 5.12695 v -1.831055 h -5.12695 z"
       id="path104" /><path
       style="font-weight:900;font-size:36.6211px;line-height:1.5;font-family:'M+ 1p';-inkscape-font-specification:'M+ 1p Heavy';text-align:end;letter-spacing:-0.411988px;word-spacing:-0.274657px;text-anchor:end;stroke-width:1.38065;stroke-linecap:square;stroke-linejoin:round;paint-order:markers stroke fill"
       d="m 76.779097,62.693598 v 6.408693 h 3.845216 v -6.408693 z m -6.408692,-5.676271 v -5.493165 h 6.408692 v 5.493165 h 3.845216 v -5.493165 h 6.591798 v 5.493165 h 4.394532 v 5.676271 H 87.216111 V 74.229245 H 70.370405 V 62.693598 h -3.112794 v 14.282229 h 22.888188 v 5.676271 H 67.257611 v 2.197266 H 60.482707 V 62.693598 h -4.028321 v -5.676271 h 4.028321 v -5.493165 h 6.774904 v 5.493165 z"
       id="path103" /><path
       style="font-weight:900;font-size:36.6211px;line-height:1.5;font-family:'M+ 1p';-inkscape-font-specification:'M+ 1p Heavy';text-align:end;letter-spacing:-0.411988px;word-spacing:-0.274657px;text-anchor:end;stroke-width:1.38065;stroke-linecap:square;stroke-linejoin:round;paint-order:markers stroke fill"
       d="m 41.1193,57.932855 h 5.126954 V 56.651116 H 41.1193 Z M 28.411778,78.07446 h -7.434084 v -4.760743 h 6.591798 V 72.39819 h -5.310059 v -4.394532 h 5.310059 V 67.08813 H 22.625644 V 51.524162 H 53.021158 V 67.08813 h -4.943849 v 0.915528 h 5.31006 v 4.394532 h -5.31006 v 0.915527 h 6.591798 v 4.760743 h -6.628419 q 3.66211,1.281739 6.628419,2.746583 l -3.295899,4.760743 Q 46.282875,82.871825 39.288245,80.454832 l 1.281738,-2.380372 h -5.456544 l 1.245118,2.014161 q -4.65088,3.222657 -12.63428,5.31006 l -2.746583,-4.943849 q 3.735352,-0.98877 7.434084,-2.380372 z M 41.1193,61.594965 v 1.281738 h 5.126954 v -1.281738 z m -11.718753,0 v 1.281738 h 5.126955 v -1.281738 z m 0,-3.66211 h 5.126955 v -1.281739 h -5.126955 z m 4.943849,10.070803 h 6.958009 V 67.08813 h -6.958009 z m 0,5.310059 h 6.958009 V 72.39819 h -6.958009 z"
       id="text1" /><text
       xml:space="preserve"
       style="font-style:normal;font-variant:normal;font-weight:900;font-stretch:normal;font-size:22.0352px;line-height:1;font-family:'Rounded M+ 1p';-inkscape-font-specification:'Rounded M+ 1p Heavy';font-variant-ligatures:normal;font-variant-caps:normal;font-variant-numeric:normal;font-variant-east-asian:normal;text-align:start;letter-spacing:-1.2858px;word-spacing:-0.0257933px;writing-mode:lr-tb;direction:ltr;text-anchor:start;fill:#000000;fill-opacity:1;stroke:none;stroke-width:2.43715;stroke-linecap:square;stroke-linejoin:miter;stroke-dasharray:none;paint-order:markers stroke fill"
       x="23.097004"
       y="215.95677"
       id="text16"><tspan
         sodipodi:role="line"
         style="font-style:normal;font-variant:normal;font-weight:900;font-stretch:normal;font-size:22.0352px;line-height:1;font-family:'Rounded M+ 1p';-inkscape-font-specification:'Rounded M+ 1p Heavy';text-align:start;letter-spacing:-1.2858px;text-anchor:start;fill:#000000;stroke:none;stroke-width:2.43715"
         x="23.097004"
         y="215.95677"
         id="tspan50"
         dx="0 0 0 0 0 0 0 0 0 0 0 -3.9347456">ワードゲーム<tspan
   style="font-size:15.6801px;stroke-width:2.43715"
   id="tspan125">も</tspan>出したい！</tspan></text><text
       xml:space="preserve"
       style="font-style:normal;font-variant:normal;font-weight:900;font-stretch:normal;font-size:29.9521px;line-height:1.5;font-family:'M+ 1p';-inkscape-font-specification:'M+ 1p Heavy';font-variant-ligatures:normal;font-variant-caps:normal;font-variant-numeric:normal;font-variant-east-asian:normal;text-align:end;letter-spacing:-0.0448982px;word-spacing:-0.0299322px;writing-mode:lr-tb;direction:ltr;text-anchor:end;fill:#000000;fill-opacity:1;stroke:none;stroke-width:2.82823;stroke-linecap:square;stroke-linejoin:miter;stroke-dasharray:none;paint-order:markers stroke fill"
       x="267.23013"
       y="191.03169"
       id="text49"><tspan
         sodipodi:role="line"
         id="tspan49"
         style="font-style:normal;font-variant:normal;font-weight:900;font-stretch:normal;font-family:'Rounded M+ 1p';-inkscape-font-specification:'Rounded M+ 1p Heavy';fill:#000000;stroke:none;stroke-width:2.82823"
         x="267.18524"
         y="191.03169"
         dx="0 0 0 0 0 0 0 0 -8.2186003">今回<tspan
   style="font-size:21.3138px;stroke-width:2.82823"
   id="tspan123">は</tspan>辞書<tspan
   style="font-size:21.3138px;stroke-width:2.82823"
   id="tspan124">が</tspan>出る！</tspan></text><text
       xml:space="preserve"
       style="font-style:normal;font-variant:normal;font-weight:900;font-stretch:normal;font-size:17.33px;line-height:1;font-family:'M+ 1p';-inkscape-font-specification:'M+ 1p Heavy';font-variant-ligatures:normal;font-variant-caps:normal;font-variant-numeric:normal;font-variant-east-asian:normal;text-align:start;letter-spacing:-1.01543px;word-spacing:-0.0406173px;writing-mode:lr-tb;direction:ltr;text-anchor:start;fill:#000000;fill-opacity:1;stroke:none;stroke-width:1.25305;stroke-linecap:square;stroke-linejoin:miter;stroke-dasharray:none;paint-order:markers stroke fill"
       x="84.368927"
       y="297.98981"
       id="text51"><tspan
         sodipodi:role="line"
         id="tspan51"
         style="font-style:normal;font-variant:normal;font-weight:bold;font-stretch:normal;font-family:linzklar_rounded;-inkscape-font-specification:'linzklar_rounded Bold';fill:#000000;stroke:#000000;stroke-width:1.25305;stroke-linecap:round;stroke-linejoin:round;stroke-dasharray:none"
         x="84.368927"
         y="297.98981">机戦<tspan
   style="font-style:normal;font-variant:normal;font-weight:bold;font-stretch:normal;font-size:12.0366px;font-family:'Rounded M+ 1p';-inkscape-font-specification:'Rounded M+ 1p Bold';stroke:none;stroke-width:1.25305"
   id="tspan53"
   dx="-3.8846304 -1.4798594 -1.1098944 -1.4798594 -0.92491204 -1.6648418 -1.8498241"
   dy="-1.4798594">（セッカイク）</tspan></tspan></text><text
       xml:space="preserve"
       style="font-style:normal;font-variant:normal;font-weight:normal;font-stretch:normal;font-size:7.21541px;line-height:1;font-family:'Rounded M+ 1p';-inkscape-font-specification:'Rounded M+ 1p';text-align:start;letter-spacing:0px;word-spacing:-0.0811734px;writing-mode:lr-tb;direction:ltr;text-anchor:start;clip-rule:evenodd;fill:#231f20;fill-opacity:1;fill-rule:evenodd;stroke:#000000;stroke-width:0.514639;stroke-linecap:square;stroke-miterlimit:10;stroke-dasharray:none;stroke-opacity:0;paint-order:fill markers stroke"
       x="83.739227"
       y="270.04599"
       id="text34"><tspan
         sodipodi:role="line"
         id="tspan34"
         x="83.739227"
         y="270.04599"
         style="font-size:7.21542px;line-height:1;stroke-width:0.514639">将棋 × 花札みたいな</tspan><tspan
         sodipodi:role="line"
         x="83.739227"
         y="277.26141"
         style="font-size:7.21542px;line-height:1;stroke-width:0.514639"
         id="tspan52">異世界伝統ゲーム！</tspan></text><text
       xml:space="preserve"
       style="font-style:normal;font-variant:normal;font-weight:900;font-stretch:normal;font-size:17.33px;line-height:1;font-family:'M+ 1p';-inkscape-font-specification:'M+ 1p Heavy';font-variant-ligatures:normal;font-variant-caps:normal;font-variant-numeric:normal;font-variant-east-asian:normal;text-align:start;letter-spacing:-1.01543px;word-spacing:-0.0406173px;writing-mode:lr-tb;direction:ltr;text-anchor:start;fill:#000000;fill-opacity:1;stroke:none;stroke-width:1.25305;stroke-linecap:square;stroke-linejoin:miter;stroke-dasharray:none;paint-order:markers stroke fill"
       x="84.368927"
       y="335.38672"
       id="text55"><tspan
         sodipodi:role="line"
         id="tspan55"
         style="font-style:normal;font-variant:normal;font-weight:bold;font-stretch:normal;font-family:linzklar_rounded;-inkscape-font-specification:'linzklar_rounded Bold';fill:#000000;stroke:#000000;stroke-width:1.25305;stroke-linecap:round;stroke-linejoin:round;stroke-dasharray:none"
         x="84.368927"
         y="335.38672"><tspan
           style="letter-spacing:0.211667px"
           id="tspan58"
           dx="0 0 0 0 0 0 0 -3.8643117">lauzait cep</tspan><tspan
           style="font-style:normal;font-variant:normal;font-weight:bold;font-stretch:normal;font-size:12.0366px;font-family:'Rounded M+ 1p';-inkscape-font-specification:'Rounded M+ 1p Bold';stroke:none;stroke-width:1.25305"
           id="tspan54"
           dx="-4.8047047 -1.9517723 -0.52047265 -0.78070903 -1.5614179 -1.5614179 -2.9927175 -4.2938995 -2.7324812 -1.0409454 0 -1.8498241"
           dy="-3.6880374"><tspan
   style="letter-spacing:0.211667px"
   id="tspan128">（</tspan>ラウツァイㇳ・セㇷ゚）</tspan></tspan></text><text
       xml:space="preserve"
       style="font-style:normal;font-variant:normal;font-weight:normal;font-stretch:normal;font-size:7.21541px;line-height:1;font-family:'Rounded M+ 1p';-inkscape-font-specification:'Rounded M+ 1p';text-align:start;letter-spacing:0px;word-spacing:-0.0811734px;writing-mode:lr-tb;direction:ltr;text-anchor:start;clip-rule:evenodd;fill:#231f20;fill-opacity:1;fill-rule:evenodd;stroke:#000000;stroke-width:0.514639;stroke-linecap:square;stroke-miterlimit:10;stroke-dasharray:none;stroke-opacity:0;paint-order:fill markers stroke"
       x="83.739227"
       y="308.38583"
       id="text57"><tspan
         sodipodi:role="line"
         x="83.739227"
         y="308.38583"
         style="font-size:7.21542px;line-height:1;stroke-width:0.514639"
         id="tspan57">公開ボードから駒を拾える麻雀ゲーム！</tspan><tspan
         sodipodi:role="line"
         x="83.739227"
         y="315.60126"
         style="font-size:7.21542px;line-height:1;stroke-width:0.514639"
         id="tspan59">ホーギャウ玩具から待望の第二版発売！</tspan></text><text
       xml:space="preserve"
       style="font-style:normal;font-variant:normal;font-weight:bold;font-stretch:normal;font-size:15.0804px;line-height:1;font-family:'Rounded-X M+ 1p';-inkscape-font-specification:'Rounded-X M+ 1p Bold';font-variant-ligatures:normal;font-variant-caps:normal;font-variant-numeric:normal;font-variant-east-asian:normal;text-align:start;letter-spacing:0px;word-spacing:-0.0471264px;writing-mode:vertical-lr;direction:ltr;text-anchor:start;fill:#000000;fill-opacity:1;stroke:none;stroke-width:1.91118;stroke-linecap:round;stroke-linejoin:round;stroke-dasharray:none;paint-order:markers stroke fill"
       x="33.083309"
       y="261.48727"
       id="text108"><tspan
         sodipodi:role="line"
         style="font-style:normal;font-variant:normal;font-weight:bold;font-stretch:normal;font-family:'Rounded-X M+ 1p';-inkscape-font-specification:'Rounded-X M+ 1p Bold';writing-mode:vertical-lr;stroke-width:1.91118"
         x="33.083309"
         y="261.48727"
         id="tspan109">旧作あるよ</tspan></text><text
       xml:space="preserve"
       style="font-style:normal;font-variant:normal;font-weight:bold;font-stretch:normal;font-size:20.0106px;line-height:1;font-family:cutapijot;-inkscape-font-specification:'cutapijot Bold';font-variant-ligatures:normal;font-variant-caps:normal;font-variant-numeric:normal;font-variant-east-asian:normal;text-align:end;letter-spacing:-0.160842px;word-spacing:-0.321683px;writing-mode:lr-tb;direction:ltr;text-anchor:end;fill:#b3b3b3;fill-opacity:1;stroke:none;stroke-width:3.80401;stroke-linecap:round;stroke-linejoin:round;stroke-dasharray:none;paint-order:markers stroke fill"
       x="253.92686"
       y="276.41583"
       id="text111"><tspan
         sodipodi:role="line"
         style="font-style:normal;font-variant:normal;font-weight:bold;font-stretch:normal;line-height:1;font-family:cutapijot;-inkscape-font-specification:'cutapijot Bold';text-align:end;letter-spacing:-0.160842px;word-spacing:-0.321683px;text-anchor:end;fill:#b3b3b3;stroke:none;stroke-width:3.80401"
         x="253.92686"
         y="276.41583"
         id="tspan136">jo kalt nole</tspan><tspan
         sodipodi:role="line"
         style="font-style:normal;font-variant:normal;font-weight:bold;font-stretch:normal;line-height:1;font-family:cutapijot;-inkscape-font-specification:'cutapijot Bold';text-align:end;letter-spacing:-0.160842px;word-spacing:-0.321683px;text-anchor:end;fill:#b3b3b3;stroke:none;stroke-width:3.80401"
         x="253.92686"
         y="296.42642"
         id="tspan135">lauzait</tspan><tspan
         sodipodi:role="line"
         style="font-style:normal;font-variant:normal;font-weight:bold;font-stretch:normal;line-height:1;font-family:cutapijot;-inkscape-font-specification:'cutapijot Bold';text-align:end;letter-spacing:-0.160842px;word-spacing:-0.321683px;text-anchor:end;fill:#b3b3b3;stroke:none;stroke-width:3.80401"
         x="253.92686"
         y="316.43704"
         id="tspan122">lewip</tspan><tspan
         sodipodi:role="line"
         style="font-style:normal;font-variant:normal;font-weight:bold;font-stretch:normal;line-height:1;font-family:cutapijot;-inkscape-font-specification:'cutapijot Bold';text-align:end;letter-spacing:-0.160842px;word-spacing:-0.321683px;text-anchor:end;fill:#b3b3b3;stroke:none;stroke-width:3.80401"
         x="253.92686"
         y="336.44763"
         id="tspan112" /></text><text
       xml:space="preserve"
       style="font-style:normal;font-variant:normal;font-weight:bold;font-stretch:semi-condensed;font-size:15.6809px;line-height:1;font-family:xedixel;-inkscape-font-specification:'xedixel Bold Semi-Condensed';font-variant-ligatures:normal;font-variant-caps:normal;font-variant-numeric:normal;font-variant-east-asian:normal;text-align:start;letter-spacing:0px;word-spacing:-0.0735043px;writing-mode:lr-tb;direction:ltr;text-anchor:start;fill:#b3b3b3;fill-opacity:1;stroke:none;stroke-width:2.98092;stroke-linecap:round;stroke-linejoin:round;stroke-dasharray:none;paint-order:markers stroke fill"
       x="261.19073"
       y="265.28262"
       id="text114"><tspan
         sodipodi:role="line"
         id="tspan113"
         style="fill:#b3b3b3;stroke:none;stroke-width:2.98092"
         x="261.19073"
         y="265.28262" /><tspan
         sodipodi:role="line"
         style="fill:#b3b3b3;stroke:none;stroke-width:2.98092"
         x="261.19073"
         y="280.96353"
         id="tspan114" /></text><rect
       style="fill:#000000;fill-opacity:1;stroke:none;stroke-width:2.126;stroke-linecap:round;stroke-linejoin:round;stroke-dasharray:none;paint-order:markers stroke fill"
       id="rect128"
       width="237.99271"
       height="36.886753"
       x="20.977694"
       y="221.88391" /><text
       xml:space="preserve"
       style="font-style:normal;font-variant:normal;font-weight:900;font-stretch:normal;font-size:19.5065px;line-height:0.9;font-family:'M+ 1p';-inkscape-font-specification:'M+ 1p Heavy';font-variant-ligatures:normal;font-variant-caps:normal;font-variant-numeric:normal;font-variant-east-asian:normal;text-align:start;letter-spacing:0.208999px;word-spacing:-0.261248px;writing-mode:lr-tb;direction:ltr;text-anchor:start;fill:#ffffff;fill-opacity:1;stroke:none;stroke-width:2.11896;stroke-linecap:round;stroke-linejoin:round;stroke-dasharray:none;paint-order:markers stroke fill"
       x="19.977913"
       y="239.50847"
       id="text129"
       transform="scale(1.0036841,0.99632939)"><tspan
         sodipodi:role="line"
         id="tspan129"
         style="font-style:normal;font-variant:normal;font-weight:900;font-stretch:normal;font-family:'M+ 1p';-inkscape-font-specification:'M+ 1p Heavy';text-align:start;text-anchor:start;fill:#ffffff;stroke-width:2.11896"
         x="19.977913"
         y="239.50847"
         dx="0 -3.083472 -3.3404276 0 0 0 0 0 0 -1.0278242 -2.3126042 -2.3126042">ゲムマ<tspan
   style="font-size:16.7199px;text-align:start;text-anchor:start;stroke-width:2.11896"
   id="tspan131">で</tspan>異世界語インスト<tspan
   style="font-size:16.7199px;text-align:start;text-anchor:start;stroke-width:2.11896"
   id="tspan132">が</tspan></tspan><tspan
         sodipodi:role="line"
         style="font-style:normal;font-variant:normal;font-weight:900;font-stretch:normal;font-family:'M+ 1p';-inkscape-font-specification:'M+ 1p Heavy';text-align:start;text-anchor:start;fill:#ffffff;stroke-width:2.11896"
         x="19.977913"
         y="257.06433"
         id="tspan130"
         dx="0 0 0 0 0 0 0 0 0 0 0 0 -5.1114492">聞ける<tspan
   style="font-size:16.7199px;stroke-width:2.11896"
   id="tspan133">のは</tspan>このブースだけ！</tspan></text></g></svg>
