<?xml version="1.0" encoding="UTF-8" standalone="no"?>
<!-- Created with Inkscape (http://www.inkscape.org/) -->

<svg
   width="64"
   height="64"
   viewBox="0 0 16.933333 16.933333"
   version="1.1"
   id="svg5"
   sodipodi:docname="favicon.svg"
   inkscape:version="1.2.1 (9c6d41e410, 2022-07-14)"
   xmlns:inkscape="http://www.inkscape.org/namespaces/inkscape"
   xmlns:sodipodi="http://sodipodi.sourceforge.net/DTD/sodipodi-0.dtd"
   xmlns="http://www.w3.org/2000/svg"
   xmlns:svg="http://www.w3.org/2000/svg">
  <sodipodi:namedview
     id="namedview7"
     pagecolor="#ffffff"
     bordercolor="#000000"
     borderopacity="0.25"
     inkscape:showpageshadow="2"
     inkscape:pageopacity="0.0"
     inkscape:pagecheckerboard="0"
     inkscape:deskcolor="#d1d1d1"
     inkscape:document-units="mm"
     showgrid="false"
     inkscape:zoom="6.7277216"
     inkscape:cx="38.051515"
     inkscape:cy="54.922011"
     inkscape:window-width="1920"
     inkscape:window-height="1191"
     inkscape:window-x="-9"
     inkscape:window-y="-9"
     inkscape:window-maximized="1"
     inkscape:current-layer="layer1" />
  <defs
     id="defs2" />
  <g
     inkscape:label="Layer 1"
     inkscape:groupmode="layer"
     id="layer1">
    <rect
       style="opacity:1;fill:#d43700;fill-opacity:1;stroke:none;stroke-width:4.59999;stroke-linecap:square;paint-order:stroke markers fill"
       id="rect2133"
       width="16.933332"
       height="16.933332"
       x="4.4504802e-07"
       y="4.4504802e-07"
       rx="1.5260042"
       ry="1.3685795" />
    <path
       id="rect413"
       style="opacity:1;fill:#ffffff;fill-opacity:1;stroke:none;stroke-width:0.8;stroke-linecap:square;stroke-dasharray:none;stroke-opacity:1;paint-order:stroke markers fill"
       d="M 7.6340043 -6.0237519 L 12.034435 -1.6233207 L 12.351701 -1.9405859 L 12.35166 -3.0664066 L 8.5141594 -6.903907 L 7.6340043 -6.0237519 z M 5.6538166 -3.3356084 L 7.391193 -0.32624704 L 8.8287063 -0.32593059 L 6.7319483 -3.9578429 L 5.6538166 -3.3356084 z M 4.2891327 0.074037608 L 4.2891393 1.3189812 L 10.512761 1.3186489 L 10.512754 0.074436082 L 9.3544125 0.074039161 L 9.354047 0.074404674 C 9.0240816 0.074286556 9.0549243 0.07449268 8.8585542 0.074547501 L 4.2891327 0.074037608 z M 10.923167 -6.4715934 L 10.600896 -5.269675 L 12.351794 -4.8002656 L 12.3518 -6.0890581 L 10.923167 -6.4715934 z M 12.751757 -6.7856402 L 12.752155 -0.5620186 L 13.996734 -0.56237736 L 13.996701 -6.7856337 L 12.751757 -6.7856402 z M 9.9052328 -2.9856772 L 10.227176 -1.7835791 L 11.078641 -2.0118389 L 10.062736 -3.0277445 L 9.9052328 -2.9856772 z M 14.396463 -5.5408053 L 14.396822 -4.2523783 L 16.612117 -3.6584988 L 16.934388 -4.861148 L 14.396463 -5.5408053 z M 9.3066514 -0.29829739 L 9.3541308 -0.21645978 L 9.3541544 -0.29831108 L 9.3066514 -0.29829739 z M 8.1097257 1.7183666 L 8.1096093 5.925304 L 9.3541873 5.9256761 L 9.3541717 2.1769598 L 8.61958 2.6017751 L 8.2251368 1.9185767 L 8.1097257 1.7183666 z M 8.5719662 1.7185988 L 8.7659009 2.0543524 L 9.3469956 1.7187408 L 8.5719662 1.7185988 z M 14.396693 -3.8021962 L 14.396433 -2.9003702 L 16.144677 -3.3685958 C 15.756707 -3.4337784 15.067414 -3.6384767 14.396693 -3.8021962 z M 12.351476 -1.1600753 L 9.9034844 3.080089 L 10.981257 3.7024328 L 12.778498 0.58864224 C 12.720731 0.37313445 12.663209 0.15770829 12.605482 -0.058079284 L 12.577741 -0.16184704 L 12.351553 -0.16214725 L 12.351476 -1.1600753 z M 12.992113 -0.16196648 L 13.710097 2.5173603 L 14.998524 2.5177197 L 14.280175 -0.16197236 L 12.992113 -0.16196648 z M 11.729838 2.9173216 L 11.72948 4.1618998 L 17.952736 4.161933 L 17.953095 2.9173547 L 11.729838 2.9173216 z M 14.257619 4.562754 L 14.289376 4.6800407 L 14.727533 4.5626186 L 14.257619 4.562754 z "
       transform="matrix(0.70690293,0.70731058,-0.70690293,0.70731058,0,0)" />
    <g
       id="rect2403"
       transform="matrix(0.70607863,-0.70813344,0.70607863,0.70813344,0,0)" />
    <g
       id="rect2048"
       transform="matrix(0.86566148,-0.5006298,0.49937152,0.86638796,0,0)"
       style="stroke:none" />
    <g
       id="rect2050"
       transform="matrix(0.70607863,-0.70813344,0.70607863,0.70813344,0,0)"
       style="stroke:none" />
    <g
       id="rect2330"
       transform="matrix(-0.25811814,-0.96611336,0.96573731,-0.25952158,0,0)"
       style="stroke:none" />
    <g
       id="rect9359" />
    <g
       id="rect308"
       transform="matrix(0.9658885,0.2589583,-0.25867986,0.96596311,0,0)" />
    <g
       id="rect415"
       transform="matrix(-0.70690293,0.70731058,-0.70690293,-0.70731058,0,0)" />
    <g
       id="rect427"
       transform="matrix(0.86590054,0.5002162,-0.49978382,0.86615018,0,0)" />
    <g
       id="rect429"
       transform="matrix(0.70690293,-0.70731058,0.70690293,0.70731058,0,0)" />
    <g
       id="g3852"
       transform="matrix(0.70690293,0.70731058,-0.70690293,0.70731058,0,0)"
       style="stroke:#ffffff">
      <g
         id="path3850" />
    </g>
    <g
       id="g3864"
       transform="matrix(0.70690293,0.70731058,-0.70690293,0.70731058,0,0)" />
  </g>
</svg>
