<?xml version="1.0" encoding="UTF-8" standalone="no"?>
<!-- Created with Inkscape (http://www.inkscape.org/) -->

<svg
   width="210mm"
   height="297mm"
   viewBox="0 0 210 297"
   version="1.1"
   id="svg1"
   xml:space="preserve"
   inkscape:version="1.3.2 (091e20e, 2023-11-25, custom)"
   sodipodi:docname="パッケージ.svg"
   inkscape:export-filename="パッケージ.png"
   inkscape:export-xdpi="600"
   inkscape:export-ydpi="600"
   xmlns:inkscape="http://www.inkscape.org/namespaces/inkscape"
   xmlns:sodipodi="http://sodipodi.sourceforge.net/DTD/sodipodi-0.dtd"
   xmlns="http://www.w3.org/2000/svg"
   xmlns:svg="http://www.w3.org/2000/svg"><sodipodi:namedview
     id="namedview1"
     pagecolor="#ffffff"
     bordercolor="#000000"
     borderopacity="0.25"
     inkscape:showpageshadow="2"
     inkscape:pageopacity="0.0"
     inkscape:pagecheckerboard="0"
     inkscape:deskcolor="#d1d1d1"
     inkscape:document-units="mm"
     showguides="true"
     inkscape:zoom="5.7941077"
     inkscape:cx="405.58445"
     inkscape:cy="79.995061"
     inkscape:window-width="1920"
     inkscape:window-height="1009"
     inkscape:window-x="-8"
     inkscape:window-y="-8"
     inkscape:window-maximized="1"
     inkscape:current-layer="layer1"><sodipodi:guide
       position="49.393345,17.999711"
       orientation="0,-1"
       id="guide14"
       inkscape:locked="false" /><sodipodi:guide
       position="275.4465,169.87085"
       orientation="1,0"
       id="guide17"
       inkscape:locked="false" /><sodipodi:guide
       position="234.28078,249.95275"
       orientation="0,-1"
       id="guide19"
       inkscape:locked="false" /><sodipodi:guide
       position="24.27194,262.14089"
       orientation="0,-1"
       id="guide28"
       inkscape:locked="false" /><sodipodi:guide
       position="285.39187,287.38767"
       orientation="0,-1"
       id="guide68"
       inkscape:locked="false" /><sodipodi:guide
       position="285.39187,276.98056"
       orientation="0,-1"
       id="guide69"
       inkscape:locked="false" /><sodipodi:guide
       position="24.191848,145.00763"
       orientation="1,0"
       id="guide1"
       inkscape:locked="false" /></sodipodi:namedview><defs
     id="defs1" /><g
     inkscape:label="Layer 1"
     inkscape:groupmode="layer"
     id="layer1"><path
       d="m 123.60657,192.25372 c -0.37356,-0.006 -0.53327,0.25551 -0.43282,0.78103 0.17232,0.90131 0.12775,0.92801 -0.75925,0.45329 -0.56264,-0.30111 -0.60297,-0.27227 -0.33018,0.23879 0.17064,0.31971 0.40966,1.37876 0.53105,2.353 l 0.22073,1.77098 -3.13338,3.18499 c -2.67595,2.71981 -3.668,3.48042 -6.79475,5.20973 -2.01373,1.11373 -4.42542,2.53701 -5.35955,3.16261 -0.93411,0.62559 -2.08026,1.3568 -2.54701,1.62485 -0.46674,0.26804 -2.06658,1.21 -3.55502,2.09305 -4.917688,2.91766 -6.839259,3.73573 -8.24548,3.51087 -0.687666,-0.10992 -1.469798,-0.28452 -1.738014,-0.38738 -0.332948,-0.12781 -0.478984,-8.7e-4 -0.460777,0.39732 0.01466,0.32143 -0.08047,0.97854 -0.211422,1.46007 -0.176865,0.65036 -0.123956,0.87554 0.205824,0.87554 0.553919,0 2.448065,2.42644 2.710558,3.4723 0.178379,0.71069 -0.429202,5.69004 -1.693244,13.87923 -0.502943,3.25837 -1.844704,8.79504 -2.371658,9.78573 -0.391219,0.73551 -0.376736,1.92386 0.02051,1.67834 0.180478,-0.11164 0.23372,0.0159 0.124987,0.29908 -0.104296,0.27176 -0.362511,0.49436 -0.573948,0.49436 -0.450511,0 -1.781457,2.36626 -1.76289,3.13403 0.0083,0.33803 0.188345,0.20337 0.502439,-0.3762 0.853002,-1.574 0.818656,-0.68772 -0.05783,1.5017 -0.464204,1.15956 -0.976803,2.10801 -1.139191,2.10801 -0.39856,0 -2.183866,1.84836 -2.183866,2.26097 0,0.19242 0.286444,0.23822 0.690231,0.11014 l 0.689609,-0.21887 -0.718835,0.91347 c -0.39538,0.50264 -0.8714,0.91408 -1.057731,0.91408 -0.186333,0 -0.376505,0.25824 -0.422845,0.57395 -0.04635,0.31573 -0.685073,1.35301 -1.419639,2.30513 -1.650796,2.13973 -7.795282,8.43509 -8.981086,9.20185 -0.480042,0.31035 -0.793457,0.69221 -0.697071,0.84816 0.09638,0.15596 0.245518,0.28357 0.331435,0.28357 0.281475,0 2.182913,-1.023 2.67138,-1.43708 0.26266,-0.22263 1.679148,-1.029 3.147703,-1.7921 1.468554,-0.7631 3.281683,-1.92458 4.028834,-2.5812 0.747157,-0.65667 1.631373,-1.19391 1.965605,-1.19391 1.955852,0 5.967159,-3.2199 8.792673,-7.05776 2.079303,-2.82432 3.413076,-5.84521 5.316656,-12.04487 0.564535,-1.83862 1.214283,-3.8444 1.443873,-4.45725 0.22963,-0.61288 0.50422,-1.97396 0.61065,-3.02463 0.25717,-2.53879 1.35801,-8.22766 1.95008,-10.07858 0.97842,-3.05876 -0.0932,-6.45182 -3.025218,-9.58117 -0.950831,-1.01475 -1.025329,-1.19376 -0.496837,-1.1939 0.767135,-2.1e-4 3.482365,-1.01824 5.662405,-2.12293 1.02901,-0.52145 2.37466,-0.88728 3.6377,-0.98872 1.10255,-0.0885 2.08074,-0.28389 2.17392,-0.43466 0.0931,-0.15073 0.45008,-0.27421 0.79344,-0.27421 0.34335,0 1.15884,-0.33725 1.812,-0.7493 1.51008,-0.9526 7.31462,-3.85814 8.35679,-4.18308 0.43466,-0.13553 2.10758,-0.87193 3.7173,-1.63662 1.6097,-0.76472 3.3363,-1.39043 3.83732,-1.39043 0.61259,0 1.24442,-0.34402 1.92952,-1.0509 l 1.0192,-1.05152 -0.80965,-2.05265 c -0.44501,-1.1292 -0.7483,-2.29329 -0.67405,-2.58617 0.15484,-0.61065 -0.89149,-2.49167 -1.38605,-2.49167 -0.18143,0 -0.49308,-0.35731 -0.69211,-0.79409 -0.19902,-0.43679 -0.80481,-1.07833 -1.34626,-1.42526 -0.54143,-0.34686 -1.48579,-0.98393 -2.09867,-1.41588 -0.75691,-0.53348 -1.34455,-0.8026 -1.71811,-0.80714 z M 89.247938,248.9845 c 0.05595,-0.0288 0.09015,-0.002 0.09015,0.0847 0,0.17512 -0.138683,0.53328 -0.308429,0.79594 -0.169742,0.26267 -0.308425,0.33429 -0.308425,0.15921 0,-0.17513 0.138683,-0.5333 0.308425,-0.79597 0.08486,-0.13133 0.162326,-0.21488 0.218266,-0.24373 z"
       id="path14"
       sodipodi:nodetypes="sssscccssssscsssssssssssssscccsssssssssssssssssscssssssscccsssssssssssss"
       style="fill:#4d4d4d;fill-opacity:1;stroke-width:1.15423" /><path
       d="m 95.001105,164.62531 c -0.912999,0.0163 -0.04594,1.96653 1.939492,4.04437 0.639549,0.66932 2.094083,1.91286 3.232303,2.76341 1.96583,1.46905 5.62978,5.2634 7.90967,8.19137 1.54646,1.98606 5.96222,5.22415 7.93392,5.81786 1.35049,0.40663 1.98919,0.35991 2.18884,-0.16044 0.10085,-0.26266 0.37845,-0.47757 0.61685,-0.47757 0.27355,0 0.35837,-0.19551 0.23011,-0.5298 -0.1367,-0.35624 -0.0814,-0.45452 0.16913,-0.29971 0.22745,0.14056 0.37246,0.0235 0.37246,-0.30036 0,-0.3313 0.17262,-0.46391 0.45957,-0.3538 0.3624,0.13906 0.44182,-0.10562 0.37681,-1.15972 -0.0998,-1.61444 -0.47334,-2.35459 -2.44317,-4.83847 -3.835,-4.83575 -10.22774,-8.7426 -18.450961,-11.27562 -1.838637,-0.56637 -3.653313,-1.15367 -4.032585,-1.30525 -0.205002,-0.082 -0.372009,-0.11863 -0.502439,-0.1163 z"
       id="path13"
       sodipodi:nodetypes="csssssssssssssscc"
       style="fill:#4d4d4d;fill-opacity:1;stroke-width:1.15423" /><path
       id="path10"
       style="fill:#4d4d4d;fill-opacity:1;stroke-width:1.15423"
       d="m 101.82667,98.318646 c -0.96111,-0.02002 -1.01158,0.112864 -0.92952,0.578207 0.1503,0.853084 0.62542,1.987577 1.44539,3.450677 0.64529,1.15132 0.64898,1.33416 0.19143,9.0176 l -0.46686,7.84263 -1.43236,0.89356 c -1.57712,0.98395 -2.910485,1.64866 -4.150654,2.06991 -0.803039,0.27276 -0.808488,0.26249 -0.568343,-1.06252 0.133429,-0.73612 0.449774,-2.06368 0.703443,-2.94995 0.392433,-1.37117 0.394467,-1.77478 0.01333,-2.70738 -0.246419,-0.60283 -0.457709,-1.1819 -0.469507,-1.28632 -0.01182,-0.10443 -1.060808,-1.30294 -2.331574,-2.66386 -1.527834,-1.63626 -2.733827,-2.6283 -3.559163,-2.9283 -0.686466,-0.24952 -1.626398,-0.66254 -2.088772,-0.91768 l -0.840673,-0.4639 0.05964,1.5415 c 0.03262,0.84774 0.4072,2.33016 0.831832,3.29401 0.702648,1.5949 0.745767,1.98052 0.484893,4.29066 -0.693881,6.14459 -3.826253,17.64014 -5.048646,18.52869 -0.396824,0.28851 -0.578966,0.54454 -0.404626,0.5691 0.17434,0.0247 0.706745,0.1231 1.182861,0.219 1.336418,0.26939 2.728913,-0.5786 5.85809,-3.56771 2.12941,-2.03409 2.942357,-3.03521 3.125384,-3.84865 0.225156,-1.0007 0.320985,-1.0769 1.073978,-0.85245 0.454962,0.13565 1.027462,0.28668 1.271409,0.33522 0.661364,0.1316 4.285198,-0.61964 4.761458,-0.98684 0.62586,-0.48261 0.48279,0.92471 -0.29952,2.94921 -1.165544,3.01624 -3.108934,6.29361 -6.273457,10.5771 -2.570043,3.4788 -3.564726,4.54433 -5.860158,6.27992 -5.73401,4.33554 -12.748861,8.02552 -15.096891,7.94127 -1.325766,-0.0475 -1.396312,-0.008 -1.057826,0.57931 0.199517,0.34654 0.650984,0.77177 1.003769,0.94479 0.561787,0.2755 3.871979,-0.11651 4.630145,-0.54829 0.121277,-0.0691 1.065294,-0.1753 2.097147,-0.23592 1.204353,-0.0711 2.638269,-0.45946 4.004829,-1.08513 1.170819,-0.536 2.780673,-1.15513 3.577089,-1.37606 1.83832,-0.51 4.115399,-1.97256 6.897456,-4.42899 1.256271,-1.10928 2.473279,-1.92247 2.855737,-1.90874 0.366486,0.0131 1.2425,-0.4599 1.946697,-1.05164 1.499493,-1.26001 4.189143,-4.8893 4.512713,-6.08888 0.12372,-0.45855 0.897,-1.84173 1.71886,-3.07354 2.16533,-3.24544 3.00203,-5.98453 3.68025,-12.05523 0.34579,-3.09511 0.35584,-3.10307 6.95398,-5.59736 1.65426,-0.62535 3.14403,-1.36273 3.31091,-1.63837 0.47512,-0.78482 -0.14456,-2.73522 -1.10115,-3.47005 -0.56028,-0.43002 -1.66856,-0.76331 -3.21992,-0.96718 -1.30098,-0.17093 -2.55881,-0.47767 -2.7958,-0.68135 -0.3516,-0.30223 -0.39369,-0.23695 -0.22982,0.3518 0.17245,0.6196 0.0856,0.71686 -0.61606,0.69169 -0.96598,-0.0347 -0.96737,-0.0724 -0.0974,-3.44548 0.71272,-2.76312 0.7146,-3.92085 0.008,-4.5511 -0.23588,-0.21048 -0.42118,-0.58026 -0.41253,-0.82131 0.0175,-0.48575 -3.16986,-4.027455 -4.42145,-4.913302 -0.53524,-0.378814 -1.5645,-0.610853 -3.13527,-0.707551 -0.55155,-0.03383 -0.97281,-0.05807 -1.29317,-0.06481 z m 6.84378,31.133824 c -0.0346,-0.005 -0.0629,-7.2e-4 -0.0864,0.0165 -0.0934,0.0688 -0.10772,0.3303 -0.12616,0.84455 -0.0492,1.37139 0.90872,3.3777 2.21845,4.64753 0.57172,0.55429 3.78501,2.59817 7.1407,4.54282 7.44172,4.31262 10.28106,6.44406 10.03287,7.52975 -0.14824,0.64846 -0.0192,0.78135 0.96697,0.99681 0.6258,0.13667 2.33528,0.83918 3.79872,1.56199 3.81133,1.88253 6.14553,1.80752 7.22634,-0.23283 0.5965,-1.12605 0.35106,-2.95742 -0.61059,-4.55745 -1.19507,-1.9885 -5.10604,-5.98823 -5.88251,-6.01608 -0.33044,-0.0118 -2.12198,-0.73659 -3.98173,-1.61113 -8.44973,-3.97353 -15.89335,-6.74811 -18.34136,-6.83596 -0.63306,-0.0227 -1.4614,-0.27565 -1.84053,-0.56202 -0.25162,-0.18998 -0.41122,-0.30699 -0.51482,-0.32454 z" /><path
       id="path12"
       style="fill:#4d4d4d;fill-opacity:1;stroke-width:1.15423"
       d="m 96.954866,28.934998 c -0.308382,0.01449 -0.620777,0.04329 -0.936119,0.08637 -2.369193,0.323567 -2.979113,0.855565 -2.227116,1.942692 0.292123,0.422312 0.928745,0.963534 1.41481,1.203042 0.486061,0.239504 1.451935,1.088247 2.147422,1.885503 l 1.265448,1.449301 0.550715,4.662416 c 0.30325,2.564206 0.576963,5.488245 0.607608,6.497589 l 0.05669,1.83454 -4.321548,2.293044 c -2.376797,1.261297 -4.74538,2.536545 -5.263427,2.832825 -0.518041,0.296283 -1.26431,0.547442 -1.658149,0.558413 -0.967775,0.02695 -0.889811,0.781826 0.161891,1.567167 1.106857,0.826501 2.968371,0.782835 5.398073,-0.126103 1.024972,-0.383477 2.4441,-0.843579 3.154228,-1.023242 0.710152,-0.179656 1.530214,-0.425471 1.822242,-0.546024 0.492388,-0.203272 0.549041,0.631318 0.778687,11.489501 0.366459,17.325309 0.273829,24.36871 -0.333336,25.348111 -0.461012,0.743697 -0.450444,0.852394 0.156832,1.64347 0.357683,0.465937 0.758443,0.776407 0.890873,0.689917 0.13237,-0.08665 0.81034,0.303635 1.50669,0.866799 0.6963,0.563173 1.48321,1.093038 1.74808,1.177519 0.26487,0.0845 0.66589,2.66e-4 0.89167,-0.188085 0.58966,-0.4919 1.2818,-2.020204 1.26253,-2.787551 -0.008,-0.361191 0.10823,-0.909196 0.26018,-1.217182 0.87449,-1.772271 1.00308,-5.227713 0.87183,-23.346008 -0.0413,-5.69173 -0.031,-10.636114 0.0223,-10.98778 0.0535,-0.35167 0.16709,-2.014111 0.2519,-3.694763 l 0.1537,-3.056183 2.56796,-0.884086 c 1.41238,-0.486058 3.5635,-1.19768 4.77997,-1.582105 l 2.2114,-0.698641 0.73611,0.771254 c 0.40476,0.424423 0.74476,1.115998 0.75535,1.53766 0.0343,1.363609 -2.15651,13.412101 -2.84695,15.657527 l -0.39027,1.269966 -1.62701,-0.04612 c -0.89453,-0.02546 -2.43801,-0.135929 -3.42986,-0.245236 -2.49514,-0.274985 -2.37811,0.195557 0.85547,3.449832 1.44337,1.452626 3.23266,3.569523 3.97609,4.70398 1.33154,2.031942 1.3723,2.061781 2.74328,2.027344 0.76546,-0.01923 1.38869,-0.166343 1.38465,-0.326809 -0.004,-0.160455 0.16743,-0.238217 0.38164,-0.172739 0.52014,0.158973 1.77455,-1.298946 2.00532,-2.330725 0.10159,-0.454109 0.43081,-1.421661 0.73128,-2.150805 0.30047,-0.729133 0.87066,-3.036338 1.26789,-5.126457 0.92353,-4.859202 1.84104,-8.838077 2.13237,-9.252429 0.39239,-0.558079 0.93425,-2.51718 1.06445,-3.84849 0.0986,-1.008625 -0.16095,-1.897926 -1.23373,-4.230071 -0.74705,-1.624029 -1.80278,-3.608808 -2.34605,-4.410363 -1.12962,-1.666761 -3.58015,-3.441069 -4.71245,-3.412626 -0.42217,0.01065 -0.84739,-0.103179 -0.94529,-0.253047 -0.40097,-0.613751 -4.49063,0.818783 -5.70403,1.998284 -0.6841,0.664999 -4.57523,2.449368 -4.82447,2.212352 -0.21603,-0.20546 0.50402,-4.093224 0.82793,-4.470407 0.48239,-0.561687 0.24484,-3.049311 -0.31009,-3.246413 -0.27865,-0.09898 -0.63812,-0.501341 -0.79888,-0.894108 -0.44991,-1.099523 -2.9831,-4.246525 -4.36427,-5.422393 -1.1988,-1.020657 -2.813354,-1.600276 -4.609878,-1.680812 -0.299425,-0.01343 -0.603852,-0.01311 -0.912247,0.0014 z M 77.552562,52.328735 c -0.07531,0.0038 -0.143023,0.01097 -0.203212,0.02289 l 1.6e-5,6.35e-4 c -0.722258,0.142777 -0.357565,0.893053 1.095749,2.679444 2.093622,2.573448 2.58571,3.786213 3.802296,9.360472 0.968725,4.438567 1.099327,5.70398 0.619659,6.017344 -0.172332,0.112572 -0.302341,0.62564 -0.28941,1.140464 0.01293,0.514823 -0.119914,0.940039 -0.294966,0.944435 -0.541912,0.0136 -0.313437,1.472499 0.315302,2.013418 0.327832,0.282034 0.689351,0.414724 0.803494,0.2947 0.114146,-0.120064 0.212334,-0.03883 0.217845,0.180539 0.0055,0.219379 0.433056,0.984704 0.950546,1.70099 0.517493,0.716284 1.190157,1.690669 1.494833,2.16472 0.3646,0.567277 0.823377,0.854765 1.342251,0.841733 0.433592,-0.01087 0.792241,0.124685 0.796676,0.301221 0.0047,0.190273 0.263015,0.152409 0.634415,-0.09277 0.344612,-0.227427 0.621447,-0.609174 0.615438,-0.848371 -0.0069,-0.269177 0.186806,-0.36464 0.507288,-0.250809 0.370511,0.131601 0.461593,0.04834 0.320865,-0.292468 -0.108166,-0.262026 -0.06671,-0.479536 0.09198,-0.483523 0.158683,-0.004 0.268004,-0.329357 0.243399,-0.72285 -0.07074,-1.13151 -1.03981,-7.102248 -1.39173,-8.574141 -0.175632,-0.734573 -0.439407,-2.192192 -0.586705,-3.239465 -0.733235,-5.213229 -2.087517,-7.902757 -5.20382,-10.337844 -2.527033,-1.974634 -3.551244,-2.538802 -5.001268,-2.754021 -0.361661,-0.05368 -0.655035,-0.07793 -0.880933,-0.06675 z" /><path
       d="m 51.332083,247.75457 c -0.125281,0 0.05553,0.35365 0.444322,0.86863 0.723016,0.95763 0.876803,1.58237 0.89441,3.63466 l 0.01004,1.16463 -1.046657,0.64873 c -0.575768,0.3569 -1.44248,1.00327 -1.925908,1.43641 -0.483422,0.43312 -0.912269,0.78766 -0.952942,0.78766 -0.04068,0 -0.122516,-0.33194 -0.181976,-0.73761 -0.214976,-1.4668 -1.095159,-2.79106 -2.140028,-3.22006 -0.700976,-0.28781 -0.722662,-0.15677 -0.129506,0.77855 0.65599,1.03439 0.839293,1.99575 0.73882,3.87273 l -0.08614,1.60714 0.573225,0.59173 0.572914,0.59173 0.05188,-0.45008 c 0.07172,-0.62276 0.976071,-1.98685 2.077552,-3.13393 1.005404,-1.04703 2.087102,-1.86934 2.247696,-1.70874 0.174264,0.17426 -0.230619,3.56386 -0.503465,4.21545 -0.143053,0.34162 -0.396355,0.81331 -0.563212,1.04817 h -3.07e-4 c -0.376199,0.52955 -0.183137,0.55428 0.364253,0.0467 0.349379,-0.32396 0.788103,-1.11416 1.383922,-2.49245 0.202713,-0.46893 0.764904,-2.8013 0.764904,-3.17335 0,-0.26847 0.06711,-0.30956 0.378507,-0.2314 1.000897,0.2512 2.072493,-1.25786 2.213427,-3.11724 0.05775,-0.76167 0.0048,-1.05924 -0.290255,-1.63051 -0.394066,-0.76336 -0.979634,-1.13786 -1.645055,-1.05241 l -0.4237,0.0543 0.737606,0.71183 c 0.437051,0.42183 0.737611,0.85015 0.737611,1.05091 0,0.51383 -0.472394,2.48211 -0.617201,2.5716 -0.204308,0.12627 -1.094474,-0.099 -0.999348,-0.25294 0.181971,-0.29444 -0.266115,-2.39437 -0.628118,-2.94345 -0.374287,-0.56772 -1.671878,-1.53739 -2.057228,-1.53739 z"
       id="path8"
       sodipodi:nodetypes="scccsssssscccccsssccsssssccccssssss"
       style="fill:#4d4d4d;fill-opacity:1;stroke:#4d4d4d;stroke-width:0.728;stroke-dasharray:none;stroke-opacity:1" /><path
       d="m 56.876259,217.35138 c 0,-0.16279 2.063729,0.51496 2.623779,0.86167 0.823253,0.50961 1.103071,0.85789 1.103071,1.37329 0,0.79322 -1.185795,2.87975 -2.614981,4.60125 -0.255827,0.30814 3.198318,-1.03785 4.111122,-1.60199 0.733332,-0.45324 2.058311,-0.48074 2.96953,-0.0615 0.636353,0.29273 0.753452,0.44403 0.88925,1.14918 0.07093,0.36831 0.0425,0.37446 -1.860996,0.39852 -1.560318,0.0196 -3.645775,0.4541 -4.658563,0.97054 -0.427032,0.21775 -1.565582,0.7955 -2.530062,1.28384 -1.750053,0.88605 -1.752636,0.88829 -1.299303,1.07607 0.606179,0.25108 1.167618,0.88204 1.460045,1.64081 0.281438,0.73024 0.272963,0.68474 0.272963,1.46217 v 0.6084 l 0.619932,-0.33665 c 0.506733,-0.27508 0.62091,-0.42138 0.625993,-0.80221 0.0059,-0.42061 0.02636,-0.43946 0.212607,-0.19411 0.248472,0.32733 1.264148,0.37362 1.383313,0.063 0.04401,-0.11471 0.170948,-0.74959 0.282061,-1.41092 l 0.202299,-1.20254 -0.66542,-0.55261 c -0.494386,-0.41067 -0.612343,-0.5861 -0.459489,-0.68301 0.594254,-0.37676 1.805467,0.0323 2.116369,0.71456 0.472343,1.03669 0.04983,3.84087 -0.781283,5.18569 -0.714204,1.15561 -2.061899,2.11189 -2.730232,1.93711 -0.452175,-0.11824 -0.428017,-0.23472 0.113132,-0.54258 0.503842,-0.28664 1.044757,-1.0143 0.878029,-1.18102 -0.05945,-0.0594 -0.505549,0.1 -0.991459,0.35425 l -0.883493,0.46251 -0.581107,2.79514 c -0.707926,3.40559 -1.340118,4.95356 -2.584351,6.32788 -0.575074,0.6352 -0.705642,0.51622 -0.199871,-0.18198 0.523338,-0.72244 0.831018,-1.50806 1.259875,-3.2164 0.333844,-1.32987 0.968383,-4.89516 0.885916,-4.97763 -0.130522,-0.13052 -2.917367,1.89746 -3.182137,2.31563 l -0.304505,0.48103 -0.530157,-0.57868 c -0.414502,-0.45247 -0.515332,-0.67854 -0.462822,-1.03635 0.03697,-0.2517 0.128861,-0.4956 0.204419,-0.54229 0.188045,-0.11622 0.172439,-0.72213 -0.04061,-1.56832 -0.147954,-0.58757 -0.292785,-0.77678 -0.854072,-1.11582 -0.371751,-0.22454 -0.676038,-0.46122 -0.676038,-0.52591 0,-0.0646 0.23441,-0.11766 0.521055,-0.11766 0.949636,0 2.429367,1.45654 2.429367,2.39144 0,0.13656 0.04931,0.2484 0.109487,0.2484 0.0602,0 0.75898,-0.43621 1.552858,-0.96932 l 1.443365,-0.96932 v -1.10793 c 0,-0.79339 -0.06594,-1.16267 -0.232021,-1.30051 -0.127569,-0.10587 -0.44697,-0.56873 -0.710004,-1.02846 -0.263027,-0.45973 -0.511447,-0.83587 -0.551991,-0.83587 -0.04055,0 -0.725502,0.34302 -1.521921,0.76217 -1.571275,0.82695 -4.969812,3.12484 -5.821077,3.93583 -0.860633,0.81988 -1.448278,1.20284 -1.845233,1.20284 -0.495594,0 -1.934539,-0.42396 -2.268924,-0.66846 -0.224479,-0.16413 -0.126747,-0.19394 0.623571,-0.19016 l 0.889556,0.005 3.011383,-2.10666 c 1.65634,-1.1586 4.014592,-2.65208 5.240579,-3.31892 2.420024,-1.31633 2.309897,-1.2089 3.923382,-3.82422 0.914517,-1.48235 1.823364,-3.45825 1.621704,-3.52546 -0.433044,-0.14434 -1.005634,-0.75463 -1.354802,-1.44367 -0.210687,-0.41577 -0.383062,-0.81576 -0.383062,-0.88895 z m -4.01619,4.49509 c 0.138949,-0.0115 0.303096,-9.4e-4 0.509833,0.0209 1.191613,0.12604 1.594981,0.33873 1.945316,1.02543 0.361628,0.70884 0.297773,1.41048 -0.154074,1.69267 -0.253109,0.15806 -0.422671,0.0478 -1.321747,-0.86013 -0.976241,-0.9859 -1.04299,-1.02565 -1.248953,-0.74398 -0.32639,0.44638 -0.258345,0.87143 0.245662,1.53739 0.386048,0.5101 0.441141,0.69704 0.36668,1.24228 -0.04818,0.353 -0.09724,0.65044 -0.109182,0.66118 -0.01197,0.0107 -0.170102,0.065 -0.351515,0.12072 -0.2569,0.0788 -0.488212,-0.0593 -1.045448,-0.62448 -0.393504,-0.39915 -0.866338,-1.03755 -1.050909,-1.41881 -0.184569,-0.38127 -0.565001,-0.99369 -0.845274,-1.36087 -0.280269,-0.36717 -0.46839,-0.70898 -0.417935,-0.75943 0.228254,-0.22827 1.086527,-0.0543 1.646271,0.33361 0.582462,0.40364 0.622519,0.41083 0.784917,0.1386 0.438646,-0.7353 0.629496,-0.97039 1.046358,-1.00511 z m 7.255955,18.29912 h 0.409748 c 0.225296,0 0.713049,0.20884 1.083963,0.46403 1.055554,0.72624 1.172672,1.20472 1.295665,5.29305 l 0.104632,3.47634 0.346968,-0.37305 c 0.283187,-0.30445 0.489813,-0.36965 1.125819,-0.35515 l 0.778853,0.018 v -1.05 -1.04969 l -0.85255,-0.26871 c -0.476638,-0.15025 -0.922998,-0.40009 -1.012084,-0.56655 -0.133609,-0.24964 -0.08483,-0.33615 0.30147,-0.53591 0.617478,-0.31932 1.038336,-0.30026 1.645361,0.0749 1.011637,0.62523 1.404037,1.79094 1.15402,3.42811 -0.188784,1.23622 -0.621509,3.11662 -0.764902,3.32407 -0.05902,0.0854 -0.232673,0.49465 -0.38609,0.90958 -0.169035,0.45717 -0.323867,0.68197 -0.392763,0.57049 -0.0742,-0.12004 -0.225402,0.007 -0.435526,0.36183 -0.177091,0.30013 -0.554114,0.66369 -0.83769,0.80796 l -0.515596,0.26235 0.331191,-0.3691 c 0.182176,-0.20303 0.435454,-0.57874 0.562913,-0.83496 0.257751,-0.51812 0.891679,-3.1072 0.891679,-3.64193 0,-0.30524 -0.05494,-0.33059 -0.504679,-0.23354 -0.277572,0.0599 -0.753969,0.20768 -1.05879,0.32847 l -0.554421,0.21958 -0.263861,2.20705 c -0.418146,3.49615 -0.559825,5.19858 -0.571405,6.86593 -0.01175,1.69479 -0.344965,4.91449 -0.566851,5.47805 l -0.139214,0.35365 -0.342412,-0.31907 c -0.188386,-0.17551 -0.375474,-0.47441 -0.415817,-0.66421 -0.13118,-0.61714 -0.166436,-1.79248 -0.05159,-1.72148 0.198309,0.12256 0.251507,-0.55635 0.428553,-5.46926 0.09567,-2.65483 0.21368,-4.97829 0.262047,-5.16325 0.04836,-0.18496 0.01855,-0.33634 -0.06612,-0.33634 -0.218295,0 -3.130067,2.20038 -3.677111,2.77874 -0.53301,0.56354 -0.641693,0.58676 -0.858314,0.18199 -0.166041,-0.31025 0.02254,-1.0779 0.308144,-1.25441 0.21875,-0.13521 0.618111,-2.71521 0.618111,-3.99315 0,-0.90791 -0.06696,-1.25302 -0.308754,-1.59259 -0.239462,-0.33629 -0.265586,-0.46768 -0.116465,-0.58596 0.31998,-0.25375 1.248477,0.15937 1.512215,0.67301 0.308901,0.60158 0.269472,2.85159 -0.06612,3.77781 -0.136337,0.3763 -0.214889,0.71712 -0.174693,0.75731 0.04021,0.0401 0.407964,-0.20331 0.817068,-0.54107 0.409103,-0.33776 1.064616,-0.83175 1.457016,-1.09761 l 0.713642,-0.48345 0.101606,-1.66355 c 0.05599,-0.91511 0.101904,-2.76083 0.101904,-4.10142 0,-2.65982 0.07404,-2.38866 -1.05879,-3.87456 z"
       id="path7"
       sodipodi:nodetypes="csssssssssssscccsscccsssssscccssssccscsssssssccsssssssscccssssccccsssssccssssssscccssccccccccssssssscccssssccccsccscssssssssssssscccscc"
       style="fill:#4d4d4d;fill-opacity:1;stroke:#4d4d4d;stroke-width:0.728;stroke-dasharray:none;stroke-opacity:1" /><path
       d="m 142.54686,73.787725 0.24087,0.699557 c 0.13254,0.384725 0.48016,2.155962 0.77239,3.936192 0.50116,3.052904 0.51891,3.319452 0.31167,4.686546 -0.1697,1.119662 -0.173,1.514285 -0.0142,1.734501 0.11304,0.156779 0.29812,0.480034 0.41128,0.718532 0.11314,0.238484 0.31959,0.570225 0.45902,0.737172 0.90827,1.087457 1.13896,-0.601172 0.54949,-4.024936 -0.36167,-2.100727 -0.33282,-2.254099 0.42923,-2.259941 0.18994,-0.0015 0.91193,-0.282519 1.60441,-0.62469 1.22083,-0.603215 1.63316,-1.112516 0.90078,-1.112516 -0.19706,0 -0.50843,-0.08058 -0.6921,-0.178871 -0.37171,-0.198933 -1.02778,0.06613 -2.03974,0.823886 -0.3163,0.236872 -0.5999,0.403432 -0.63044,0.369942 -0.0305,-0.03346 -0.26187,-0.880539 -0.51358,-1.882207 -0.5518,-2.195882 -0.86293,-2.9408 -1.39032,-3.32911 z"
       id="path6"
       sodipodi:nodetypes="ccscssssssssssscc"
       style="fill:#4d4d4d;fill-opacity:1;stroke:#4d4d4d;stroke-width:0.601;stroke-dasharray:none;stroke-opacity:1" /><path
       d="m 153.8943,64.215741 c 0.59651,-0.01307 1.53557,0.190411 2.00417,0.481054 0.35774,0.221873 0.65044,0.351296 0.65044,0.287617 0,-0.06367 0.1561,0.02552 0.3469,0.19818 0.58259,0.527239 0.42871,1.01229 -0.65044,2.050237 -0.54853,0.527604 -1.35907,1.257856 -1.8009,1.622717 -2.34745,1.938519 -2.90177,2.426678 -3.09466,2.72576 -0.19962,0.309497 -0.17874,0.308364 0.36891,-0.02274 2.5057,-1.514709 5.07273,-2.770621 6.82487,-3.339269 0.38159,-0.123844 0.87196,-0.363882 1.08982,-0.533225 0.3126,-0.242971 0.51376,-0.274364 0.95398,-0.149398 1.0007,0.284063 1.51193,0.545768 1.51193,0.774092 0,0.225903 -1.32645,1.294779 -1.60679,1.294779 -0.083,0 -0.3996,0.186841 -0.70328,0.415335 -0.30368,0.228502 -1.62603,0.965233 -2.93883,1.636949 -2.66005,1.361058 -2.97647,1.576611 -3.8525,2.625144 -0.68192,0.816216 -0.75962,1.24591 -0.30658,1.698944 0.16803,0.16804 0.27949,0.440678 0.24764,0.606059 -0.0318,0.165381 0.065,0.723428 0.21512,1.239897 0.1897,0.652623 0.22351,1.062715 0.11044,1.344926 -0.0895,0.223322 -0.16774,0.317813 -0.17379,0.209694 -0.007,-0.108119 -0.16164,-0.23604 -0.34589,-0.28423 -0.44793,-0.117129 -0.74453,-1.244067 -0.77138,-2.931379 l -0.0209,-1.330359 0.69379,-0.621644 c 0.38161,-0.34187 1.63044,-1.337072 2.77521,-2.211513 2.90508,-2.219037 3.20883,-2.466631 3.20884,-2.617013 2e-5,-0.330113 -2.74995,1.380845 -5.15676,3.208511 -0.55041,0.417971 -1.37734,0.976634 -1.83748,1.241602 l -0.83677,0.481738 0.14297,0.722596 c 0.0786,0.397312 0.14294,1.990611 0.14294,3.540845 0,1.96903 0.0584,2.81859 0.19446,2.818559 0.20927,-3.8e-5 2.02622,-1.447866 3.46257,-2.759278 1.00677,-0.919201 1.16346,-1.345195 1.00142,-2.724058 -0.0853,-0.725864 -0.24392,-1.129043 -0.60539,-1.540731 -0.76705,-0.873617 -0.25934,-1.073176 0.88791,-0.348946 0.53157,0.335572 0.73671,0.610769 0.9174,1.230425 l 0.23273,0.798149 0.72497,-0.960078 c 0.39868,-0.528062 0.85644,-1.236228 1.01732,-1.573597 0.25934,-0.543817 0.26341,-0.648314 0.0355,-0.920789 -0.22704,-0.27152 -0.67112,-1.162063 -0.67112,-1.345937 0,-0.03754 0.21499,0.04371 0.47733,0.180559 0.26235,0.136854 0.54069,0.249429 0.6186,0.250022 0.0779,5.87e-4 0.40964,0.205486 0.73717,0.455308 0.48993,0.373695 0.59556,0.568305 0.59556,1.098303 0,0.550316 -0.10741,0.72951 -0.73717,1.23007 -1.60001,1.271817 -2.73219,2.469413 -2.73219,2.890405 v 0.416691 l 1.21416,-0.63824 c 0.86516,-0.454629 1.2145,-0.734458 1.2145,-0.973635 0,-0.184606 0.0724,-0.290666 0.16125,-0.235785 0.0889,0.05488 0.20981,0.0215 0.26898,-0.07423 0.0606,-0.09811 0.3878,-0.128476 0.74936,-0.06944 0.35286,0.05758 0.97302,0.09252 1.37845,0.07754 0.67552,-0.0249 0.73717,0.0088 0.73717,0.401105 0,0.588609 -0.43679,0.973289 -1.10541,0.973289 -0.34159,0 -1.4035,0.423366 -2.71931,1.084065 l -2.15898,1.084059 -0.72835,1.474327 c -0.40056,0.810882 -0.93546,1.959803 -1.18841,2.553314 -0.75684,1.775792 -2.45781,3.200472 -4.64658,3.891457 -1.08886,0.343749 -1.50245,0.396022 -1.5021,0.18971 h 3.5e-4 c 1.2e-4,-0.07155 0.37087,-0.295807 0.82389,-0.498328 1.14643,-0.512539 2.80696,-1.776523 3.59061,-2.732862 0.60333,-0.736278 1.48245,-2.710363 1.48245,-3.329094 0,-0.191342 -0.29885,-0.09928 -1.17078,0.360445 -2.47137,1.303027 -2.50572,1.331045 -2.73116,2.218936 -0.2505,0.986569 -0.26298,1.001191 -0.73885,0.87674 -0.22265,-0.05819 -0.52665,-0.409493 -0.74497,-0.860468 -0.40837,-0.843579 -0.38845,-0.838075 -2.07598,-0.576253 -1.73915,0.26984 -1.95635,0.05828 -0.82015,-0.799497 0.85058,-0.64214 0.97955,-0.684865 1.97028,-0.652122 l 1.06035,0.03522 0.12093,-2.38596 c 0.0667,-1.312328 0.0683,-2.785383 0.003,-3.273203 l -0.11754,-0.886905 -0.63012,0.09113 c -0.79108,0.114556 -1.87764,0.64695 -2.4781,1.213822 -0.46585,0.439792 -0.95087,0.443654 -1.49059,0.01179 -0.30822,-0.246591 -0.26871,-0.651459 0.0637,-0.651459 0.15436,0 0.52886,-0.217964 0.83237,-0.484443 0.30349,-0.266478 1.20046,-0.743291 1.99332,-1.059678 1.23721,-0.493725 1.49799,-0.545267 1.83951,-0.362497 0.57512,0.307801 0.79944,0.09469 0.5102,-0.485113 -0.27067,-0.542562 -0.15472,-1.280065 0.19038,-1.210092 0.34629,0.07022 3.49071,-3.63097 4.07371,-4.794973 0.62207,-1.241967 0.62913,-1.374213 0.0911,-1.726716 -0.68304,-0.447544 -1.30316,-1.135888 -1.12337,-1.247012 0.0927,-0.05727 0.25343,-0.08575 0.45226,-0.09011 z m 3.50526,17.0219 0.65858,0.274401 c 0.97707,0.406933 2.01179,0.940044 2.30667,1.18874 0.14311,0.120684 0.72849,0.464612 1.30088,0.764258 2.30274,1.205535 3.11369,2.009966 2.93375,2.909713 -0.14711,0.735509 -0.6003,0.81569 -1.43604,0.254415 -1.78848,-1.201142 -4.01233,-3.243859 -5.45014,-5.006694 z"
       id="path5"
       sodipodi:nodetypes="sssssssssssssssssssscscccssscccsssssssccsssssssssccssssssssccssccsssssssssccccccsssssssssssssccsssscc"
       style="fill:#4d4d4d;fill-opacity:1;stroke:#4d4d4d;stroke-width:0.601;stroke-dasharray:none;stroke-opacity:1" /><path
       d="m 150.78575,39.078318 c 0.38598,0 2.42242,1.193158 2.53434,1.484831 0.21867,0.569847 -0.0984,0.88161 -1.16266,1.143348 -0.58972,0.145028 -1.22831,0.321258 -1.41911,0.391958 -0.23004,0.08525 -0.15702,-0.0408 0.21682,-0.374342 0.31003,-0.276623 0.56372,-0.552902 0.56372,-0.61419 0,-0.06129 -0.23417,-0.480678 -0.52036,-0.931957 -0.60356,-0.951705 -0.63205,-1.099648 -0.21275,-1.099648 z"
       id="path4"
       sodipodi:nodetypes="ssssssss"
       style="fill:#4d4d4d;fill-opacity:1;stroke:#4d4d4d;stroke-width:0.601;stroke-dasharray:none;stroke-opacity:1" /><path
       d="m 142.75149,42.125557 c 0.19341,-0.09992 1.50653,1.614965 1.8761,2.540097 0.83655,2.094128 1.04857,4.083459 0.92552,8.678953 -0.0607,2.265692 -0.0734,4.119445 -0.0284,4.119445 0.2163,0 2.01075,-1.159346 2.74437,-1.773122 1.27245,-1.064564 2.43318,-3.287205 2.82738,-5.414225 l 0.12637,-0.6833 -0.76259,0.470551 c -1.29298,0.797664 -3.60563,1.926141 -3.71765,1.814115 -0.0584,-0.05845 -0.12223,-0.210782 -0.14161,-0.33877 -0.0195,-0.127988 -0.0904,-0.32146 -0.15821,-0.429899 -0.14937,-0.238857 0.15278,-0.498937 0.74293,-0.63926 0.25955,-0.06172 0.99575,-0.745642 1.81445,-1.685381 0.75768,-0.869697 1.51736,-1.656002 1.68809,-1.747376 0.31701,-0.169659 0.41742,-0.587461 0.17684,-0.736148 -0.0735,-0.04543 -0.67311,0.183862 -1.33238,0.509849 -1.79856,0.889321 -3.35934,0.782297 -3.385,-0.232396 -0.005,-0.169818 0.0663,-0.173423 0.31845,-0.01593 0.27443,0.17138 0.62713,0.02836 2.29822,-0.930942 1.08571,-0.623264 2.5594,-1.427364 3.27488,-1.787011 0.71549,-0.359648 1.41797,-0.753515 1.56106,-0.875383 0.37469,-0.319103 1.21415,-0.504209 1.21415,-0.267628 0,0.105739 0.15157,0.192421 0.33674,0.192421 0.18517,0 0.38555,0.07921 0.44549,0.17616 0.0599,0.09696 0.17357,0.13645 0.25237,0.08774 0.16457,-0.101699 0.39473,0.395388 0.27373,0.591154 -0.0442,0.07156 -0.61012,0.486845 -1.25784,0.92281 -0.64773,0.435965 -1.49012,1.06448 -1.8717,1.396411 -0.68188,0.59313 -0.68835,0.609429 -0.37367,0.958042 0.26694,0.295733 0.38952,0.323038 0.73715,0.164642 0.22935,-0.104492 0.41704,-0.28131 0.41704,-0.392973 0,-0.358913 1.45271,-0.924482 1.63151,-0.635194 0.0546,0.08846 0.37342,0.212245 0.70836,0.275082 0.33495,0.06283 0.60712,0.208261 0.60505,0.323186 -0.002,0.114925 -0.82162,0.591538 -1.82122,1.058995 -1.35744,0.634794 -1.81752,0.932079 -1.81752,1.174517 0,0.440609 -1.11974,3.288146 -1.79039,4.553069 -0.79596,1.501273 -1.97013,2.564632 -3.87757,3.511354 -0.89793,0.445679 -1.68322,0.892446 -1.74533,0.992935 -0.062,0.100489 -0.0924,0.469806 -0.067,0.820502 0.0251,0.350694 -0.0372,0.689035 -0.13925,0.75207 -0.10199,0.06304 -0.18564,0.01901 -0.18564,-0.09791 0,-0.116927 -0.0514,-0.161353 -0.11417,-0.09858 -0.17816,0.17816 -0.57963,-0.236008 -0.57963,-0.597928 0,-0.179116 -0.10511,-0.32556 -0.23341,-0.32556 -0.12832,0 -0.37445,-0.156105 -0.54712,-0.346902 -0.30645,-0.338622 -0.30283,-0.346899 0.14669,-0.346899 h 0.46038 l -0.003,-1.864591 c -0.003,-2.200277 -0.27254,-6.495842 -0.53053,-8.455704 -0.1536,-1.166949 -0.38745,-2.242189 -1.13115,-5.203508 -0.024,-0.09594 -0.0191,-0.147319 0.008,-0.161593 z m 10.67532,8.619667 c 0,-0.210539 4.17593,1.161168 4.49345,1.476021 0.13404,0.13293 0.41653,0.30759 0.62773,0.387892 0.45326,0.172331 0.6586,0.95018 0.32421,1.227702 -0.13746,0.114082 -0.49857,0.145417 -0.89809,0.07792 -0.48091,-0.08125 -0.9264,-0.01103 -1.5895,0.250352 -0.50675,0.199744 -0.95722,0.327406 -1.00073,0.283889 -0.0436,-0.04352 -0.58696,0.148674 -1.20771,0.42719 -0.62076,0.278515 -1.17933,0.506461 -1.24127,0.506461 -0.0619,0 0.64793,-0.508631 1.57732,-1.130137 0.9294,-0.621507 1.6898,-1.195676 1.6898,-1.276148 0,-0.08047 -0.50031,-0.372221 -1.11186,-0.648067 -1.00499,-0.453324 -1.66335,-1.079712 -1.66335,-1.583073 z"
       id="path3"
       sodipodi:nodetypes="cscsscccccsssssscsssssssscssssssscssssccsssssssccscccsssssssssssss"
       style="fill:#4d4d4d;fill-opacity:1;stroke:#4d4d4d;stroke-width:0.601;stroke-dasharray:none;stroke-opacity:1" /><path
       d="m 157.76307,35.364719 c -2.4497,-0.248984 -7.02318,1.58462 -10.92738,4.380639 -0.93157,0.667153 -1.06137,0.816548 -0.74801,0.861153 0.57466,0.0818 2.95402,-0.847681 4.39048,-1.715193 1.64774,-0.995124 4.79667,-2.262163 6.20525,-2.496736 0.6044,-0.100655 0.89285,-0.04504 1.56104,0.300489 0.45082,0.233118 1.01562,0.471468 1.25548,0.529497 0.52379,0.126716 1.44791,1.570632 1.74129,2.721002 0.34823,1.365446 0.40923,10.059729 0.0948,13.529125 -0.27281,3.010618 -0.27955,3.039273 -0.79949,3.512368 -0.39923,0.363262 -0.6992,0.476694 -1.25853,0.475973 -0.97859,-0.0013 -1.98341,-0.293972 -2.38392,-0.694479 -0.58764,-0.587641 -2.77351,-0.996662 -2.77351,-0.518996 0,0.171069 -1.77235,0.866225 -2.21793,0.869963 -0.16336,0.0014 -1.10625,0.391635 -2.09529,0.86725 -1.90116,0.914226 -2.19608,0.996101 -2.33651,0.648067 -0.0568,-0.140517 -0.0924,-0.119335 -0.10129,0.05996 -0.007,0.152161 0.13536,0.411475 0.31743,0.576249 0.38758,0.350753 0.78436,0.268724 2.7044,-0.557955 0.6678,-0.287519 1.68247,-0.580111 2.25486,-0.650439 0.57238,-0.07032 1.46265,-0.272764 1.97841,-0.449887 0.97,-0.33311 1.75081,-0.418815 1.75111,-0.192083 10e-5,0.07155 0.40022,0.354755 0.88927,0.629435 0.48905,0.274681 0.92686,0.643716 0.97295,0.819824 0.052,0.198979 0.30605,0.361693 0.67144,0.430238 0.32338,0.06066 0.5881,0.167482 0.5881,0.237139 0,0.06966 0.34628,0.07403 0.76935,0.0098 0.89024,-0.135105 1.94695,-0.870506 2.20743,-1.536323 0.099,-0.252969 0.33296,-1.904027 0.52,-3.668881 0.43291,-4.084512 0.37463,-12.507047 -0.0965,-13.948184 -0.39632,-1.212224 -1.00765,-2.187305 -2.13155,-3.401251 -1.18598,-1.281015 -1.5533,-1.480425 -3.00319,-1.627793 z"
       id="path2"
       sodipodi:nodetypes="sssssssssscssssscssssssssssssssss"
       style="fill:#4d4d4d;fill-opacity:1;stroke:#4d4d4d;stroke-width:0.601;stroke-dasharray:none;stroke-opacity:1" /><g
       id="g11"><rect
         style="fill:none;fill-opacity:1;stroke:#4d4d4d;stroke-width:1;stroke-dasharray:none;stroke-opacity:1;paint-order:fill markers stroke"
         id="rect29"
         width="4.625"
         height="98.487373"
         x="24.691729"
         y="153.92747" /><path
         id="path25"
         style="fill:#4d4d4d;fill-opacity:1;stroke:none;stroke-width:0.465972;paint-order:fill markers stroke"
         d="m 29.497428,42.215039 c 2.853837,-3.269284 2.807754,-11.602556 -2.493205,-23.205757 -5.300959,11.603201 -5.347041,19.936473 -2.493206,23.205757 h 2.493206 z" /><path
         id="path26"
         style="fill:none;fill-opacity:1;stroke:#4d4d4d;stroke-width:1;stroke-dasharray:none;stroke-opacity:1;paint-order:fill markers stroke"
         d="m 27.004211,278.05571 4.379622,-16.64629 -1.886417,-6.55947 h -2.493205 -2.493206 l -1.886416,6.55947 z" /><rect
         style="fill:#005242;fill-opacity:1;stroke:none;stroke-width:0.123096;paint-order:fill markers stroke"
         id="rect27"
         width="5.6247592"
         height="6.9847403"
         x="24.191849"
         y="145.00763" /><rect
         style="fill:#4d4d4d;fill-opacity:1;stroke:none;stroke-width:0.46562;paint-order:fill markers stroke"
         id="rect28"
         width="5.6247592"
         height="99.937721"
         x="24.191849"
         y="43.634804" /></g><text
       xml:space="preserve"
       style="font-style:normal;font-variant:normal;font-weight:normal;font-stretch:normal;font-size:10.0813px;line-height:0.5;font-family:acil_lujot;-inkscape-font-specification:acil_lujot;letter-spacing:0px;fill:#4d4d4d;fill-opacity:1;stroke:none;stroke-width:0.170896;paint-order:fill markers stroke"
       x="36.381706"
       y="287.2876"
       id="text35"><tspan
         sodipodi:role="line"
         id="tspan35"
         style="font-style:normal;font-variant:normal;font-weight:normal;font-stretch:normal;font-family:acil_lujot;-inkscape-font-specification:acil_lujot;fill:#4d4d4d;fill-opacity:1;stroke-width:0.170896"
         x="36.381706"
         y="287.2876">ail pilecit leti </tspan></text><text
       xml:space="preserve"
       style="font-style:normal;font-variant:normal;font-weight:normal;font-stretch:normal;font-size:10.0813px;line-height:0.5;font-family:acil_lujot;-inkscape-font-specification:acil_lujot;letter-spacing:0px;fill:#4d4d4d;fill-opacity:1;stroke:none;stroke-width:0.170896;paint-order:fill markers stroke"
       x="149.85666"
       y="287.30774"
       id="text36"><tspan
         sodipodi:role="line"
         id="tspan36"
         style="font-style:normal;font-variant:normal;font-weight:normal;font-stretch:normal;font-family:acil_lujot;-inkscape-font-specification:acil_lujot;fill:#4d4d4d;fill-opacity:1;stroke-width:0.170896"
         x="149.85666"
         y="287.30774">belpic </tspan></text><text
       xml:space="preserve"
       style="font-style:normal;font-variant:normal;font-weight:normal;font-stretch:normal;font-size:10.0813px;line-height:0.5;font-family:xedixel;-inkscape-font-specification:xedixel;letter-spacing:0px;fill:#4d4d4d;fill-opacity:1;stroke:#4d4d4d;stroke-width:0.170896;stroke-opacity:1;paint-order:fill markers stroke"
       x="97.660202"
       y="287.30774"
       id="text37"><tspan
         sodipodi:role="line"
         id="tspan37"
         style="font-style:normal;font-variant:normal;font-weight:normal;font-stretch:normal;font-family:xedixel;-inkscape-font-specification:xedixel;fill:#4d4d4d;fill-opacity:1;stroke:#4d4d4d;stroke-width:0.170896;stroke-opacity:1"
         x="97.660202"
         y="287.30774">kuwa at elme </tspan></text><text
       xml:space="preserve"
       style="font-style:normal;font-variant:normal;font-weight:normal;font-stretch:normal;font-size:50.8px;line-height:0.5;font-family:xedixel;-inkscape-font-specification:xedixel;letter-spacing:0px;fill:#000000;fill-opacity:1;stroke:none;stroke-width:0.723;paint-order:fill markers stroke"
       x="303.94095"
       y="26.667896"
       id="text38"><tspan
         sodipodi:role="line"
         id="tspan38"
         style="stroke-width:0.723"
         x="303.94095"
         y="26.667896" /></text><path
       id="path59"
       style="fill:#4d4d4d;stroke-width:0.305217;paint-order:fill markers stroke"
       d="m 91.908792,12.232395 v 2.800706 h 2.33817 v 0.667854 h -2.33817 v 2.446792 h 2.33817 v 0.668102 h -2.33817 v 2.820748 h 4.702101 V 18.15151 h -0.677941 v -0.0037 -2.446787 h 0.667859 0.01007 v -3.468555 z"
       sodipodi:nodetypes="ccccccccccccccccccc" /><path
       d="m 97.278873,12.232395 v 9.404202 h 4.702097 v -9.404202 h -2.017054 v 7.319592 h -0.667985 v -7.319592 z"
       style="fill:#4d4d4d;stroke-width:0.305217;paint-order:fill markers stroke"
       id="path60" /><path
       d="m 102.64895,12.232395 v 9.404202 h 4.7021 v -2.820748 h -2.33817 v -0.668102 h 2.33817 v -5.915352 z m 2.01706,1.63156 h 0.66798 v 2.338171 h -0.66798 z"
       style="fill:#4d4d4d;stroke-width:0.305217;paint-order:fill markers stroke"
       id="path61" /><path
       d="m 108.01903,12.232395 v 9.404202 h 2.68504 v -2.08461 h -0.66798 v -7.319592 z"
       style="fill:#4d4d4d;stroke-width:0.305217;paint-order:fill markers stroke"
       id="path62" /><path
       d="m 112.72113,12.232395 v 2.084615 h 0.66798 v 7.319587 h 2.01706 v -9.404202 z"
       style="fill:#4d4d4d;stroke-width:0.305217;paint-order:fill markers stroke"
       id="path64" /><path
       d="m 110.70407,12.232395 v 9.404202 h 2.01706 V 14.31701 12.232395 Z"
       style="fill:#4d4d4d;stroke-width:0.305217;paint-order:fill markers stroke"
       id="path63" /><path
       d="m 116.07415,12.232395 v 2.800706 h 2.33817 v 0.667854 h -2.33817 v 2.446792 h 2.33817 v 0.668102 h -2.33817 v 2.820748 h 4.7021 v -9.404202 z"
       style="fill:#4d4d4d;stroke-width:0.305217;paint-order:fill markers stroke"
       id="path65" /><path
       d="m 121.44423,12.232395 v 9.404202 h 2.01706 v -3.46856 h 0.66797 v -2.467082 h -0.66797 v -3.46856 z"
       style="fill:#4d4d4d;stroke-width:0.305217;paint-order:fill markers stroke"
       id="path68" /><path
       d="m 126.14633,12.232395 v 2.069669 h 0.66798 v 5.249923 h -0.66798 v 2.08461 h 2.68504 v -9.404202 z"
       style="fill:#4d4d4d;stroke-width:0.305217;paint-order:fill markers stroke"
       id="path67" /><path
       d="m 124.12926,12.232395 v 5.935642 3.46856 h 2.01707 v -2.08461 -5.249923 -2.069669 z"
       style="fill:#4d4d4d;stroke-width:0.305217;paint-order:fill markers stroke"
       id="path66" /><rect
       style="fill:#ff7f2a;fill-opacity:1;stroke:none;stroke-width:0.111627;paint-order:fill markers stroke"
       id="rect69"
       width="1.5670435"
       height="4.5668116"
       x="81.131927"
       y="11.220453" /><rect
       style="fill:#ff7f2a;fill-opacity:1;stroke:none;stroke-width:0.136713;paint-order:fill markers stroke"
       id="rect70"
       width="1.5670435"
       height="6.8501625"
       x="81.131927"
       y="16.42952" /><rect
       style="fill:#ff7f2a;fill-opacity:1;stroke:none;stroke-width:0.111627;paint-order:fill markers stroke"
       id="rect71"
       width="1.5670435"
       height="4.5668116"
       x="87.982079"
       y="11.220453" /><rect
       style="fill:#ff7f2a;fill-opacity:1;stroke:none;stroke-width:0.136713;paint-order:fill markers stroke"
       id="rect72"
       width="1.5670435"
       height="6.8501625"
       x="87.982079"
       y="16.42952" /><rect
       style="fill:#ff7f2a;fill-opacity:1;stroke:none;stroke-width:0.136713;paint-order:fill markers stroke"
       id="rect73"
       width="1.5670435"
       height="6.8501625"
       x="21.712633"
       y="-87.982079"
       transform="rotate(90)" /><rect
       style="fill:#ff7f2a;fill-opacity:1;stroke:none;stroke-width:0.136713;paint-order:fill markers stroke"
       id="rect74"
       width="1.5670435"
       height="6.8501625"
       x="11.220453"
       y="-87.982079"
       transform="rotate(90)" /><path
       style="fill:#ffcc00;fill-opacity:1;stroke:none;stroke-width:0.124539;paint-order:fill markers stroke"
       d="m 83.272223,15.841182 0.313513,1.093314 4.064867,-1.342638 z"
       id="path76"
       sodipodi:nodetypes="cccc" /><path
       style="fill:#00aa9c;fill-opacity:1;stroke:none;stroke-width:0.133299;paint-order:fill markers stroke"
       d="m 86.732092,16.503628 0.889251,0.558104 -4.177815,1.836335 z"
       id="path77" /><path
       style="fill:#ff5555;fill-opacity:1;stroke:none;stroke-width:0.133299;paint-order:fill markers stroke"
       d="m 84.326944,16.827692 1.985685,2.286413 0.805366,-0.738136 z"
       id="path78" /><path
       style="fill:#ff5555;fill-opacity:1;stroke:none;stroke-width:0.133299;paint-order:fill markers stroke"
       d="m 87.378064,18.940133 0.520128,0.828149 -5.199224,1.944352 z"
       id="path79"
       sodipodi:nodetypes="cccc" /><path
       style="fill:#ffcc00;fill-opacity:1;stroke:none;stroke-width:0.133299;paint-order:fill markers stroke"
       d="m 83.804266,19.102163 3.036891,2.232404 0.637577,-0.792143 z"
       id="path80" /><path
       style="fill:#ff5555;fill-opacity:1;stroke:none;stroke-width:0.120228;paint-order:fill markers stroke"
       d="m 83.585736,14.457495 0.822837,1.783603 0.608486,-0.744038 z"
       id="path81" /><path
       style="fill:#00aa9c;fill-opacity:1;stroke:none;stroke-width:0.120228;paint-order:fill markers stroke"
       d="m 86.55693,13.90415 0.493165,0.427943 -1.327628,1.455176 z"
       id="path82" /><path
       style="fill:#ff5555;fill-opacity:1;stroke:none;stroke-width:0.120228;paint-order:fill markers stroke"
       d="m 81.131924,11.220456 1.567044,1.567044 h 5.283119 l 1.567043,-1.567044 z"
       id="path83" /><rect
       style="fill:#4d4d4d;fill-opacity:1;stroke:none;stroke-width:0.060398;paint-order:fill markers stroke"
       id="rect75"
       width="0.56378961"
       height="3.7160771"
       x="-85.622421"
       y="-13.862018"
       transform="scale(-1)" /><path
       style="fill:#ff5555;fill-opacity:1;stroke:none;stroke-width:0.124539;paint-order:fill markers stroke"
       d="m 83.904077,13.756166 0.329186,1.093314 3.307605,-1.34562 z"
       id="path75" /><path
       style="fill:#ff5555;fill-opacity:1;stroke:none;stroke-width:0.120228;paint-order:fill markers stroke"
       d="m 89.54913,23.279678 -1.567038,-1.567044 h -5.283119 l -1.567049,1.567044 z"
       id="path84" /><text
       xml:space="preserve"
       style="font-style:normal;font-variant:normal;font-weight:normal;font-stretch:normal;font-size:50.8px;line-height:0.5;font-family:xedixel;-inkscape-font-specification:xedixel;letter-spacing:0px;fill:#ff5555;fill-opacity:1;stroke:none;stroke-width:0.723;paint-order:fill markers stroke"
       x="295.51321"
       y="183.92082"
       id="text84"><tspan
         sodipodi:role="line"
         id="tspan84"
         style="stroke-width:0.723" /></text><g
       id="g10"><rect
         style="fill:#005242;fill-opacity:1;stroke:none;stroke-width:0.123096;paint-order:fill markers stroke"
         id="rect34"
         width="5.6247592"
         height="6.9847403"
         x="-185.80815"
         y="-151.99237"
         transform="scale(-1)" /><rect
         style="fill:none;fill-opacity:1;stroke:#4d4d4d;stroke-width:1;stroke-dasharray:none;stroke-opacity:1;paint-order:fill markers stroke"
         id="rect1"
         width="4.625"
         height="98.487373"
         x="-185.30827"
         y="-143.07253"
         transform="scale(-1)" /><path
         id="path1"
         style="fill:#4d4d4d;fill-opacity:1;stroke:none;stroke-width:0.465972;paint-order:fill markers stroke"
         d="m 180.50257,254.78496 c -2.85384,3.26928 -2.80776,11.60255 2.4932,23.20575 5.30096,-11.6032 5.34704,-19.93647 2.49321,-23.20575 h -2.49321 z" /><path
         id="path9"
         style="fill:none;fill-opacity:1;stroke:#4d4d4d;stroke-width:1;stroke-dasharray:none;stroke-opacity:1;paint-order:fill markers stroke"
         d="m 182.99578,18.944294 -4.37962,16.646287 1.88642,6.55947 h 2.4932 2.49321 l 1.88642,-6.55947 z" /><rect
         style="fill:#4d4d4d;fill-opacity:1;stroke:none;stroke-width:0.46562;paint-order:fill markers stroke"
         id="rect10"
         width="5.6247592"
         height="99.937721"
         x="-185.80815"
         y="-253.3652"
         transform="scale(-1)" /></g></g></svg>
