<?xml version="1.0" encoding="UTF-8" standalone="no"?>
<!-- Created with Inkscape (http://www.inkscape.org/) -->

<svg
   width="210mm"
   height="297mm"
   viewBox="0 0 210 297"
   version="1.1"
   id="svg1"
   xml:space="preserve"
   inkscape:version="1.3.2 (091e20e, 2023-11-25, custom)"
   sodipodi:docname="パッケージsvg.svg"
   xmlns:inkscape="http://www.inkscape.org/namespaces/inkscape"
   xmlns:sodipodi="http://sodipodi.sourceforge.net/DTD/sodipodi-0.dtd"
   xmlns="http://www.w3.org/2000/svg"
   xmlns:svg="http://www.w3.org/2000/svg"><sodipodi:namedview
     id="namedview1"
     pagecolor="#ffffff"
     bordercolor="#000000"
     borderopacity="0.25"
     inkscape:showpageshadow="2"
     inkscape:pageopacity="0.0"
     inkscape:pagecheckerboard="0"
     inkscape:deskcolor="#d1d1d1"
     inkscape:document-units="mm"
     showguides="true"
     inkscape:zoom="0.51213161"
     inkscape:cx="270.4383"
     inkscape:cy="539.90028"
     inkscape:window-width="1920"
     inkscape:window-height="1009"
     inkscape:window-x="-8"
     inkscape:window-y="-8"
     inkscape:window-maximized="1"
     inkscape:current-layer="layer1"><sodipodi:guide
       position="49.393345,17.999711"
       orientation="0,-1"
       id="guide14"
       inkscape:locked="false" /><sodipodi:guide
       position="275.4465,169.87085"
       orientation="1,0"
       id="guide17"
       inkscape:locked="false" /><sodipodi:guide
       position="234.28078,249.95275"
       orientation="0,-1"
       id="guide19"
       inkscape:locked="false" /><sodipodi:guide
       position="24.27194,262.14089"
       orientation="0,-1"
       id="guide28"
       inkscape:locked="false" /><sodipodi:guide
       position="285.39187,287.38767"
       orientation="0,-1"
       id="guide68"
       inkscape:locked="false" /><sodipodi:guide
       position="285.39187,276.98056"
       orientation="0,-1"
       id="guide69"
       inkscape:locked="false" /></sodipodi:namedview><defs
     id="defs1" /><g
     inkscape:label="Layer 1"
     inkscape:groupmode="layer"
     id="layer1"><rect
       style="fill:#ffffff;fill-opacity:1;stroke:none;stroke-width:0.723;paint-order:fill markers stroke"
       id="rect84"
       width="75.169884"
       height="20.064497"
       x="67.440216"
       y="7.4090095"
       inkscape:export-filename="rect84.png"
       inkscape:export-xdpi="300"
       inkscape:export-ydpi="300" /><path
       d="m 121.21324,193.44333 c -0.35833,-0.005 -0.51152,0.24509 -0.41516,0.74918 0.16529,0.86455 0.12254,0.89016 -0.72829,0.43481 -0.5397,-0.28884 -0.57838,-0.26117 -0.31672,0.22905 0.16369,0.30666 0.39296,1.32252 0.50939,2.25703 l 0.21173,1.69875 -3.00558,3.0551 c -2.56682,2.60888 -3.51841,3.33847 -6.51763,4.99725 -1.9316,1.0683 -4.24494,2.43354 -5.14097,3.03362 -0.89601,0.60008 -1.99542,1.30147 -2.44313,1.55858 -0.44771,0.25712 -1.9823,1.16065 -3.410031,2.0077 -4.717121,2.79865 -6.560323,3.58337 -7.909191,3.36767 -0.65962,-0.10544 -1.409854,-0.27291 -1.667131,-0.37158 -0.319369,-0.12259 -0.459448,-8.4e-4 -0.441984,0.38112 0.01406,0.30832 -0.07719,0.93863 -0.2028,1.40052 -0.169652,0.62384 -0.1189,0.83983 0.19743,0.83983 0.531328,0 2.348223,2.32747 2.600009,3.33069 0.171105,0.6817 -0.411697,5.45797 -1.624186,13.31317 -0.48243,3.12549 -1.769469,8.43635 -2.274931,9.38663 -0.375263,0.70551 -0.361372,1.8454 0.01968,1.60988 0.173116,-0.10709 0.224187,0.0152 0.119889,0.2869 -0.100038,0.26066 -0.347727,0.4742 -0.550541,0.4742 -0.432136,0 -1.708801,2.26974 -1.690991,3.00619 0.0079,0.32425 0.180663,0.19509 0.481946,-0.36086 0.818215,-1.5098 0.785269,-0.65966 -0.05548,1.44047 -0.445271,1.11226 -0.936965,2.02203 -1.092729,2.02203 -0.382306,0 -2.094799,1.77297 -2.094799,2.16875 0,0.18459 0.274762,0.22852 0.66208,0.10567 l 0.661484,-0.20996 -0.689518,0.87622 c -0.379254,0.48215 -0.835861,0.87681 -1.014592,0.87681 -0.178734,0 -0.36115,0.2477 -0.4056,0.55053 -0.04445,0.30286 -0.657133,1.29783 -1.36174,2.21112 -1.583469,2.05247 -7.477357,8.09108 -8.614799,8.82655 -0.460463,0.29771 -0.761096,0.66399 -0.668641,0.81358 0.09245,0.1496 0.235504,0.272 0.317917,0.272 0.269995,0 2.093885,-0.98128 2.56243,-1.37846 0.251948,-0.21355 1.610665,-0.98705 3.019326,-1.71902 1.408661,-0.73198 3.147842,-1.84608 3.864522,-2.47593 0.716683,-0.62987 1.564838,-1.14522 1.885439,-1.14522 1.876083,0 5.723793,-3.08858 8.43407,-6.76992 1.9945,-2.70912 3.273876,-5.60679 5.09982,-11.55361 0.541511,-1.76364 1.164763,-3.68761 1.384995,-4.27548 0.220257,-0.58788 0.483646,-1.89345 0.585739,-2.90126 0.246691,-2.43525 1.302618,-7.89211 1.870538,-9.66754 0.93853,-2.93401 -0.0893,-6.18868 -2.901835,-9.19041 -0.912048,-0.97337 -0.983507,-1.14507 -0.476569,-1.1452 0.735848,-2e-4 3.340344,-0.97671 5.431464,-2.03635 0.98704,-0.50018 2.27783,-0.85109 3.48934,-0.94839 1.05758,-0.0849 1.99588,-0.27232 2.08526,-0.41694 0.0893,-0.14459 0.43173,-0.26303 0.76109,-0.26303 0.32934,0 1.11157,-0.3235 1.73809,-0.71874 1.44849,-0.91374 7.0163,-3.70078 8.01597,-4.01246 0.41693,-0.13 2.02162,-0.83638 3.56569,-1.56989 1.54405,-0.73353 3.20024,-1.33371 3.68081,-1.33371 0.58762,0 1.19367,-0.33 1.85084,-1.00805 l 0.97762,-1.00862 -0.77662,-1.96894 c -0.42687,-1.08315 -0.71779,-2.19976 -0.64656,-2.48071 0.14852,-0.58573 -0.85514,-2.39004 -1.32952,-2.39004 -0.17404,0 -0.47298,-0.34273 -0.66388,-0.76171 -0.1909,-0.41897 -0.77199,-1.03435 -1.29137,-1.36712 -0.51934,-0.33272 -1.42519,-0.9438 -2.01307,-1.35814 -0.72604,-0.51173 -1.28971,-0.76986 -1.64804,-0.77422 z m -32.957335,54.41706 c 0.05366,-0.0276 0.08648,-0.002 0.08648,0.0813 0,0.16797 -0.133028,0.51153 -0.295851,0.76347 -0.162819,0.25196 -0.295847,0.32066 -0.295847,0.15271 0,-0.16797 0.133028,-0.51154 0.295847,-0.76349 0.0814,-0.12598 0.155706,-0.20613 0.209364,-0.23379 z"
       id="path14"
       sodipodi:nodetypes="sssscccssssscsssssssssssssscccsssssssssssssssssscssssssscccsssssssssssss"
       style="fill:#4d4d4d;fill-opacity:1;stroke-width:1.15423" /><path
       d="m 93.774434,166.94173 c -0.875764,0.0157 -0.04406,1.88631 1.86039,3.87943 0.613466,0.64202 2.008678,1.83484 3.100464,2.6507 1.885652,1.40914 5.400172,5.04873 7.587092,7.85729 1.48338,1.90506 5.71905,5.01108 7.61034,5.58058 1.29541,0.39005 1.90805,0.34523 2.09957,-0.15389 0.0967,-0.25195 0.36301,-0.45811 0.5917,-0.45811 0.26238,0 0.34375,-0.18752 0.22072,-0.50818 -0.13113,-0.34171 -0.078,-0.43598 0.16223,-0.2875 0.21817,0.13485 0.35727,0.0226 0.35727,-0.28809 0,-0.31779 0.16557,-0.445 0.44082,-0.33938 0.34762,0.13338 0.42381,-0.10131 0.36145,-1.11242 -0.0957,-1.5486 -0.45405,-2.25856 -2.34353,-4.64114 -3.67859,-4.63852 -9.81061,-8.38604 -17.698451,-10.81576 -1.763649,-0.54325 -3.504315,-1.10661 -3.868118,-1.252 -0.196641,-0.0787 -0.356837,-0.11379 -0.481947,-0.11156 z"
       id="path13"
       sodipodi:nodetypes="csssssssssssssscc"
       style="fill:#4d4d4d;fill-opacity:1;stroke-width:1.15423" /><path
       id="path10"
       style="fill:#4d4d4d;fill-opacity:1;stroke-width:1.15423"
       d="m 99.218184,103.64513 c -0.922002,0.0139 -0.9658,0.14294 -0.871135,0.58624 0.173467,0.81259 0.667883,1.88377 1.504248,3.25808 0.658163,1.08146 0.667993,1.25661 0.493703,8.63768 l -0.17776,7.53399 -1.342313,0.90584 c -1.477992,0.99747 -2.73329,1.68053 -3.907623,2.127 -0.760409,0.2891 -0.765987,0.27941 -0.581362,-0.99898 0.102582,-0.71024 0.360165,-1.99371 0.572844,-2.85203 0.329021,-1.32788 0.317088,-1.71486 -0.08035,-2.59574 -0.256954,-0.5694 -0.479415,-1.11723 -0.494317,-1.21691 -0.0149,-0.0997 -1.061709,-1.2125 -2.326678,-2.47339 -1.520865,-1.51596 -2.711052,-2.42542 -3.512538,-2.68463 -0.666628,-0.21557 -1.581854,-0.57916 -2.033863,-0.80782 l -0.821824,-0.41579 0.110185,1.47563 c 0.06042,0.81152 0.470495,2.2197 0.910702,3.12902 0.728421,1.50471 0.783019,1.87286 0.612412,4.09635 -0.453789,5.91406 -3.061045,17.04142 -4.202263,17.93525 -0.370472,0.29021 -0.536264,0.54192 -0.368298,0.55945 0.167966,0.0176 0.681719,0.0937 1.141422,0.16924 1.290354,0.21227 2.59603,-0.64851 5.492832,-3.62151 1.97128,-2.02313 2.716134,-3.01076 2.863602,-3.79682 0.18141,-0.96701 0.270652,-1.04335 1.000191,-0.8541 0.440791,0.11439 0.994786,0.23947 1.230302,0.2776 0.638509,0.10342 4.08648,-0.74138 4.53038,-1.10977 0.583346,-0.48415 0.494624,0.86983 -0.185671,2.83742 -1.013533,2.93145 -2.763725,6.13999 -5.649888,10.35499 -2.343974,3.42318 -3.260823,4.47881 -5.401518,6.22151 -5.347478,4.35329 -11.944975,8.13181 -14.198692,8.13181 -1.272514,0 -1.338803,0.0397 -0.994104,0.59171 0.203176,0.32532 0.65058,0.71741 0.994711,0.87114 0.548004,0.24477 3.707667,-0.24487 4.41959,-0.68486 0.113879,-0.0704 1.01516,-0.20468 2.002208,-0.29829 1.152071,-0.10932 2.513237,-0.53119 3.801699,-1.17795 1.103905,-0.5541 2.625813,-1.20297 3.381656,-1.44215 1.744669,-0.55212 3.877164,-2.03247 6.459542,-4.4829 1.166102,-1.10654 2.304753,-1.92794 2.671848,-1.92794 0.351768,0 1.17524,-0.48359 1.829926,-1.07507 1.394069,-1.25942 3.84753,-4.83096 4.11643,-5.99201 0.10284,-0.44382 0.79652,-1.79635 1.54197,-3.00544 1.96405,-3.18556 2.67188,-5.84001 3.11321,-11.6827 0.225,-2.97887 0.23435,-2.98685 6.47353,-5.60484 1.56426,-0.65637 2.967,-1.41446 3.11746,-1.68443 0.42846,-0.76868 -0.23196,-2.61707 -1.17491,-3.28851 -0.55187,-0.39294 -1.62575,-0.6743 -3.11988,-0.81636 -1.25299,-0.11911 -2.46932,-0.36989 -2.7035,-0.557 -0.34743,-0.27761 -0.38554,-0.21358 -0.2082,0.34515 0.18663,0.58803 0.10661,0.68425 -0.56676,0.68425 -0.92718,0 -0.9298,-0.0361 -0.21184,-3.29948 0.58817,-2.67324 0.55013,-3.78311 -0.14854,-4.36296 -0.23335,-0.19366 -0.4237,-0.54175 -0.4237,-0.77313 0,-0.46623 -3.17716,-3.75166 -4.40741,-4.55778 -0.52611,-0.34472 -1.52074,-0.53175 -3.0298,-0.57041 -0.529866,-0.0135 -0.934527,-0.0222 -1.241864,-0.0177 z m 7.631406,29.60942 c -0.0333,-0.004 -0.0603,0.002 -0.0822,0.0188 -0.0872,0.0692 -0.0919,0.32031 -0.0919,0.81392 0,1.3163 0.9873,3.2066 2.28649,4.37879 0.56712,0.51169 3.71768,2.36041 7.00134,4.10913 7.28196,3.87808 10.07707,5.82361 9.8765,6.87288 -0.1198,0.62672 0.008,0.74967 0.96123,0.92228 0.60459,0.10949 2.26745,0.7241 3.69517,1.36665 3.71828,1.67349 5.95327,1.52129 6.91916,-0.47178 0.53305,-1.09993 0.23478,-2.84704 -0.74208,-4.34776 -1.214,-1.86506 -5.10063,-5.56466 -5.84592,-5.56466 -0.31717,0 -2.05946,-0.63308 -3.8723,-1.40745 -8.23659,-3.51836 -15.46748,-5.92202 -17.81716,-5.92202 -0.60763,0 -1.41037,-0.21398 -1.78366,-0.47543 -0.24773,-0.17346 -0.40475,-0.28015 -0.50467,-0.29342 z" /><path
       id="path12"
       style="fill:#4d4d4d;fill-opacity:1;stroke-width:1.15423"
       d="m 96.446504,36.659856 c -0.296061,0.0064 -0.596314,0.02657 -0.899737,0.06027 -2.279645,0.253209 -2.87732,0.748658 -2.182404,1.809232 0.269949,0.411996 0.867377,0.946315 1.327703,1.187688 0.460323,0.241373 1.366068,1.078508 2.013778,1.859758 l 1.178549,1.420234 0.415782,4.484118 c 0.229035,2.466155 0.421058,5.276647 0.426143,6.24526 l 0.0098,1.76053 -4.199223,2.09474 c -2.309522,1.152227 -4.611504,2.318029 -5.115401,2.589659 -0.503895,0.271632 -1.225549,0.494497 -1.603471,0.495531 -0.928663,0.0025 -0.872083,0.728271 0.117491,1.506677 1.041473,0.819202 2.827555,0.822166 5.179321,0.0091 0.992095,-0.343033 2.363999,-0.750051 3.049277,-0.905225 0.685302,-0.155172 1.477591,-0.371134 1.760524,-0.479701 0.477053,-0.183061 0.511281,0.618603 0.469967,11.03619 -0.06594,16.622297 -0.324393,23.374077 -0.930191,24.298613 -0.459983,0.702037 -0.452467,0.806522 0.110803,1.579723 0.331757,0.455409 0.708592,0.762776 0.837644,0.683029 0.129027,-0.0799 0.769742,0.310677 1.423896,0.867474 0.654155,0.556807 1.395955,1.083854 1.647915,1.171244 0.25194,0.0874 0.63853,0.0163 0.85956,-0.15888 0.57727,-0.457487 1.27779,-1.906328 1.27779,-2.64261 0,-0.34655 0.12569,-0.869234 0.27881,-1.160907 0.88125,-1.67839 1.08778,-4.988762 1.39832,-22.365798 0.0975,-5.458872 0.22642,-10.199858 0.28611,-10.53579 0.0598,-0.335931 0.20874,-1.927332 0.33055,-3.53689 l 0.22099,-2.926912 2.48374,-0.785909 c 1.36607,-0.43207 3.44594,-1.062641 4.62169,-1.401971 l 2.13736,-0.616672 0.68729,0.757296 c 0.37792,0.416734 0.68729,1.088084 0.68729,1.492677 0,1.308406 -2.39095,12.8091 -3.10711,14.945639 l -0.40483,1.208387 -1.55903,-0.0834 c -0.85717,-0.04597 -2.33458,-0.189065 -3.28304,-0.317772 -2.38601,-0.323786 -2.28511,0.13024 0.73721,3.328694 1.34908,1.427708 3.01387,3.500726 3.69944,4.606479 1.22789,1.980529 1.26625,2.010122 2.58173,2.010122 0.73448,0 1.33563,-0.126063 1.33563,-0.28003 0,-0.153979 0.1663,-0.224398 0.37012,-0.15645 0.49494,0.164969 1.73293,-1.202834 1.97908,-2.186663 0.10837,-0.433004 0.44734,-1.352874 0.75303,-2.044821 0.3057,-0.691938 0.90802,-2.890615 1.33927,-4.88529 1.00264,-4.637308 1.97828,-8.430607 2.26763,-8.820917 0.38971,-0.525698 0.95648,-2.391255 1.11342,-3.664728 0.11887,-0.964809 -0.10862,-1.823825 -1.08117,-4.085989 -0.67723,-1.575296 -1.64179,-3.503955 -2.14343,-4.285663 -1.04305,-1.625487 -3.35017,-3.385918 -4.43663,-3.385918 -0.40509,0 -0.81009,-0.119347 -0.90036,-0.265418 -0.3697,-0.59819 -4.32585,0.67698 -5.51779,1.778793 -0.67201,0.6212 -4.44625,2.238533 -4.67954,2.005252 -0.20221,-0.202222 0.5819,-3.912907 0.90158,-4.266791 0.4761,-0.526991 0.30823,-2.918128 -0.21915,-3.120498 -0.26482,-0.101628 -0.59982,-0.496113 -0.74452,-0.876613 -0.40495,-1.065186 -2.75825,-4.143901 -4.05434,-5.304725 -1.12498,-1.007594 -2.659233,-1.602289 -4.380006,-1.722788 -0.2868,-0.02008 -0.578726,-0.02713 -0.874797,-0.0207 z M 77.277909,58.625095 c -0.0723,0.0018 -0.13741,0.0071 -0.195412,0.01705 v 6.09e-4 c -0.696021,0.119515 -0.364384,0.847749 0.98619,2.595747 1.945617,2.518141 2.388276,3.692931 3.420615,9.067465 0.822015,4.279535 0.916773,5.496101 0.449265,5.785035 -0.167963,0.103796 -0.304989,0.592653 -0.304989,1.086636 0,0.493982 -0.13763,0.898528 -0.305596,0.898528 -0.519973,0 -0.336025,1.404449 0.253853,1.938288 0.307569,0.278342 0.65104,0.414288 0.763383,0.301944 0.112348,-0.112382 0.204544,-0.03213 0.204544,0.178367 0,0.2105 0.391546,0.954678 0.870524,1.653998 0.478976,0.699318 1.100535,1.649872 1.381274,2.111784 0.335956,0.552751 0.768959,0.839478 1.266828,0.839478 0.41604,0 0.756687,0.138645 0.756687,0.308033 0,0.182569 0.248538,0.152484 0.610585,-0.07366 0.33593,-0.209782 0.610585,-0.569178 0.610585,-0.798692 0,-0.258281 0.187915,-0.345157 0.492486,-0.228285 0.352118,0.135119 0.441463,0.05746 0.314728,-0.272723 -0.09741,-0.253864 -0.05242,-0.46144 0.09984,-0.46144 0.15226,0 0.264925,-0.309369 0.250809,-0.687288 -0.04058,-1.086723 -0.826022,-6.835487 -1.128031,-8.25538 -0.150722,-0.708621 -0.368551,-2.112706 -0.484572,-3.120498 -0.577542,-5.016694 -1.8114,-7.628338 -4.741014,-10.038435 -2.375644,-1.95437 -3.344185,-2.520028 -4.729448,-2.76133 -0.345508,-0.06019 -0.626244,-0.09051 -0.843131,-0.08523 z" /><path
       d="m 46.425076,251.31166 c -0.133951,0 0.05937,0.37813 0.475074,0.92875 0.773055,1.02391 0.937486,1.69189 0.956311,3.88621 l 0.01073,1.24524 -1.119096,0.69363 c -0.615616,0.3816 -1.542313,1.0727 -2.059199,1.53582 -0.516879,0.4631 -0.975406,0.84217 -1.018894,0.84217 -0.04349,0 -0.130995,-0.35491 -0.194571,-0.78866 -0.229854,-1.56831 -1.170954,-2.98422 -2.288138,-3.44292 -0.74949,-0.30772 -0.772677,-0.16762 -0.138469,0.83244 0.701391,1.10598 0.89738,2.13387 0.789954,4.14076 l -0.0921,1.71837 0.612897,0.63268 0.612565,0.63268 0.05547,-0.48123 c 0.07668,-0.66586 1.043624,-2.12436 2.221338,-3.35082 1.074988,-1.1195 2.231549,-1.99872 2.403258,-1.82701 0.186324,0.18632 -0.24658,3.81052 -0.53831,4.5072 -0.152953,0.36527 -0.423786,0.8696 -0.602191,1.12072 h -3.28e-4 c -0.402236,0.5662 -0.195812,0.59264 0.389462,0.0499 0.37356,-0.34638 0.842647,-1.19127 1.479703,-2.66496 0.216742,-0.50138 0.817842,-2.99517 0.817842,-3.39297 0,-0.28705 0.07175,-0.33098 0.404703,-0.24742 1.070169,0.26859 2.215929,-1.34491 2.366617,-3.33298 0.06175,-0.81438 0.0051,-1.13255 -0.310343,-1.74335 -0.421339,-0.8162 -1.047434,-1.21662 -1.758908,-1.12525 l -0.453024,0.0581 0.788655,0.7611 c 0.467299,0.45102 0.788661,0.90898 0.788661,1.12364 0,0.54939 -0.505089,2.65389 -0.659918,2.74958 -0.218448,0.13501 -1.170221,-0.10589 -1.068512,-0.27045 0.194565,-0.31482 -0.284533,-2.56008 -0.671589,-3.14716 -0.400192,-0.60702 -1.787588,-1.64379 -2.199608,-1.64379 z"
       id="path8"
       sodipodi:nodetypes="scccsssssscccccsssccsssssccccssssss"
       style="fill:#4d4d4d;fill-opacity:1;stroke-width:0.627525" /><path
       d="m 52.352961,218.80429 c 0,-0.17406 2.206559,0.5506 2.805369,0.9213 0.88023,0.54488 1.179414,0.91727 1.179414,1.46834 0,0.84812 -1.267863,3.07905 -2.795962,4.9197 -0.273532,0.32946 3.419672,-1.10968 4.39565,-1.71287 0.784086,-0.4846 2.200766,-0.51401 3.17505,-0.0658 0.680394,0.31298 0.805598,0.47476 0.950794,1.22871 0.07584,0.3938 0.04544,0.40038 -1.989794,0.4261 -1.668307,0.021 -3.898097,0.48553 -4.980979,1.03771 -0.456587,0.23282 -1.673936,0.85056 -2.705167,1.37269 -1.871173,0.94738 -1.873934,0.94977 -1.389227,1.15055 0.648133,0.26846 1.248429,0.94308 1.561094,1.75437 0.300916,0.78078 0.291855,0.73213 0.291855,1.56336 v 0.65051 l 0.662837,-0.35995 c 0.541804,-0.29412 0.663883,-0.45054 0.669318,-0.85773 0.0063,-0.44972 0.02818,-0.46987 0.227321,-0.20754 0.265669,0.34998 1.351639,0.39948 1.479051,0.0674 0.04706,-0.12265 0.182779,-0.80147 0.301583,-1.50857 l 0.2163,-1.28577 -0.711474,-0.59085 c -0.528602,-0.43909 -0.654723,-0.62666 -0.49129,-0.73028 0.635382,-0.40284 1.930423,0.0345 2.262842,0.76401 0.505033,1.10844 0.05328,4.1067 -0.835355,5.54459 -0.763634,1.23559 -2.204602,2.25805 -2.91919,2.07118 -0.48347,-0.12643 -0.45764,-0.25097 0.120962,-0.58014 0.538712,-0.30647 1.117064,-1.08449 0.938797,-1.26275 -0.06356,-0.0635 -0.540538,0.10689 -1.060078,0.37876 l -0.944639,0.49452 -0.621325,2.98859 c -0.756921,3.64129 -1.432866,5.2964 -2.763212,6.76583 -0.614874,0.67917 -0.754479,0.55195 -0.213704,-0.19457 0.559558,-0.77244 0.888532,-1.61243 1.34707,-3.43901 0.356949,-1.42191 1.035404,-5.23395 0.94723,-5.32213 -0.139555,-0.13955 -3.119276,2.02879 -3.402371,2.4759 l -0.325579,0.51432 -0.566849,-0.61873 c -0.44319,-0.48378 -0.550998,-0.7255 -0.494854,-1.10808 0.03953,-0.26911 0.137779,-0.52989 0.218567,-0.57982 0.201059,-0.12426 0.184373,-0.7721 -0.04342,-1.67686 -0.158193,-0.62823 -0.313048,-0.83054 -0.913181,-1.19304 -0.39748,-0.24008 -0.722827,-0.49315 -0.722827,-0.56231 0,-0.0691 0.250634,-0.12581 0.557117,-0.12581 1.01536,0 2.597502,1.55735 2.597502,2.55696 0,0.14601 0.05272,0.26559 0.117065,0.26559 0.06437,0 0.811508,-0.4664 1.66033,-1.03641 l 1.54326,-1.03641 v -1.1846 c 0,-0.84831 -0.07051,-1.24314 -0.248079,-1.39052 -0.136399,-0.1132 -0.477905,-0.60809 -0.759143,-1.09964 -0.281231,-0.49155 -0.546844,-0.89372 -0.590194,-0.89372 -0.04336,0 -0.775714,0.36676 -1.627253,0.81492 -1.680022,0.88418 -5.313769,3.34111 -6.22395,4.20822 -0.920197,0.87663 -1.548512,1.28609 -1.97294,1.28609 -0.529894,0 -2.068428,-0.4533 -2.425955,-0.71472 -0.240015,-0.17549 -0.135519,-0.20736 0.666728,-0.20332 l 0.951121,0.005 3.219799,-2.25246 c 1.770975,-1.23879 4.29244,-2.83563 5.603277,-3.54862 2.587512,-1.40743 2.469763,-1.29257 4.194917,-4.08889 0.97781,-1.58494 1.949557,-3.69759 1.733941,-3.76946 -0.463015,-0.15433 -1.075234,-0.80685 -1.448567,-1.54358 -0.225269,-0.44455 -0.409574,-0.87222 -0.409574,-0.95048 z m -4.294148,4.80619 c 0.148566,-0.0123 0.324073,-0.001 0.545119,0.0224 1.274083,0.13476 1.705368,0.36217 2.07995,1.0964 0.386656,0.7579 0.318381,1.5081 -0.164738,1.80982 -0.270626,0.169 -0.451924,0.0511 -1.413224,-0.91966 -1.043806,-1.05413 -1.115175,-1.09663 -1.335392,-0.79547 -0.348979,0.47727 -0.276225,0.93174 0.262664,1.64379 0.412766,0.5454 0.471672,0.74528 0.392058,1.32826 -0.05152,0.37743 -0.103975,0.69546 -0.116739,0.70694 -0.0128,0.0114 -0.181875,0.0695 -0.375843,0.12907 -0.27468,0.0843 -0.522001,-0.0634 -1.117803,-0.6677 -0.420738,-0.42677 -0.926297,-1.10935 -1.123642,-1.517 -0.197343,-0.40766 -0.604104,-1.06246 -0.903774,-1.45506 -0.299667,-0.39258 -0.500808,-0.75804 -0.44686,-0.81199 0.244051,-0.24406 1.161724,-0.0581 1.760208,0.3567 0.622774,0.43158 0.665603,0.43927 0.83924,0.14819 0.469005,-0.78618 0.673064,-1.03755 1.118776,-1.07467 z m 7.758136,19.56559 h 0.438106 c 0.240889,0 0.762399,0.2233 1.158983,0.49615 1.128609,0.7765 1.253832,1.28809 1.385337,5.65938 l 0.111874,3.71693 0.370981,-0.39887 c 0.302787,-0.32552 0.523713,-0.39523 1.203737,-0.37973 l 0.832757,0.0192 v -1.12267 -1.12234 l -0.911555,-0.28731 c -0.509626,-0.16065 -0.986878,-0.42778 -1.082129,-0.60576 -0.142856,-0.26692 -0.0907,-0.35942 0.322334,-0.573 0.660213,-0.34142 1.110199,-0.32104 1.759235,0.0801 1.081652,0.66851 1.50121,1.91489 1.23389,3.66537 -0.20185,1.32178 -0.664524,3.33232 -0.817841,3.55413 -0.06311,0.0913 -0.248776,0.52888 -0.412811,0.97253 -0.180734,0.48881 -0.346282,0.72917 -0.419946,0.60997 -0.07933,-0.12835 -0.241002,0.007 -0.465668,0.38687 -0.189348,0.32091 -0.592464,0.70963 -0.895666,0.86388 l -0.55128,0.28051 0.354112,-0.39465 c 0.194784,-0.21708 0.465592,-0.61879 0.601872,-0.89274 0.27559,-0.55398 0.953392,-3.32225 0.953392,-3.89399 0,-0.32636 -0.05874,-0.35347 -0.539608,-0.2497 -0.296783,0.0641 -0.806151,0.22205 -1.132068,0.3512 l -0.592792,0.23478 -0.282123,2.3598 c -0.447086,3.73811 -0.59857,5.55837 -0.610952,7.34111 -0.01256,1.81209 -0.368839,5.25462 -0.606082,5.85719 l -0.148849,0.37812 -0.36611,-0.34115 c -0.201424,-0.18766 -0.40146,-0.50724 -0.444596,-0.71018 -0.140258,-0.65985 -0.177954,-1.91654 -0.05516,-1.84062 0.212034,0.13104 0.268914,-0.59486 0.458213,-5.84779 0.102293,-2.83857 0.228469,-5.32283 0.280183,-5.52059 0.05171,-0.19776 0.01983,-0.35962 -0.0707,-0.35962 -0.233403,0 -3.346697,2.35267 -3.931602,2.97106 -0.569899,0.60254 -0.686104,0.62736 -0.917717,0.19458 -0.177533,-0.33172 0.0241,-1.1525 0.32947,-1.34123 0.23389,-0.14456 0.66089,-2.90312 0.66089,-4.26951 0,-0.97074 -0.07159,-1.33974 -0.330122,-1.70281 -0.256036,-0.35957 -0.283968,-0.50005 -0.124526,-0.62651 0.342126,-0.27132 1.334883,0.17039 1.616874,0.71958 0.33028,0.64322 0.288122,3.04895 -0.0707,4.03927 -0.145773,0.40235 -0.229761,0.76675 -0.186783,0.80973 0.04299,0.0429 0.436199,-0.21738 0.873616,-0.57852 0.437417,-0.36114 1.138298,-0.88932 1.557856,-1.17358 l 0.763032,-0.51691 0.108638,-1.77868 c 0.05986,-0.97844 0.108957,-2.9519 0.108957,-4.38528 0,-2.8439 0.07916,-2.55397 -1.132068,-4.14271 z"
       id="path7"
       sodipodi:nodetypes="csssssssssssscccsscccsssssscccssssccscsssssssccsssssssscccssssccccsssssccssssssscccssccccccccssssssscccssssccccsccscssssssssssssscccscc"
       style="fill:#4d4d4d;fill-opacity:1;stroke-width:0.627525" /><path
       d="m 145.15992,75.965482 0.25754,0.747973 c 0.14171,0.411352 0.51339,2.305175 0.82585,4.208614 0.53584,3.264193 0.55482,3.549189 0.33324,5.010899 -0.18145,1.197153 -0.18498,1.619087 -0.0152,1.854544 0.12087,0.16763 0.31876,0.513257 0.43975,0.768262 0.12097,0.254989 0.34171,0.60969 0.49079,0.788191 0.97113,1.162719 1.21778,-0.642779 0.58752,-4.303499 -0.38671,-2.246117 -0.35586,-2.410104 0.45893,-2.416351 0.20309,-0.0016 0.97505,-0.302072 1.71545,-0.667924 1.30532,-0.644963 1.74619,-1.189513 0.96313,-1.189513 -0.2107,0 -0.54362,-0.08616 -0.74001,-0.19125 -0.39743,-0.212701 -1.09891,0.07071 -2.1809,0.880906 -0.33819,0.253266 -0.64142,0.431354 -0.67408,0.395546 -0.0326,-0.03577 -0.27999,-0.941481 -0.54912,-2.012473 -0.58999,-2.347858 -0.92265,-3.144331 -1.48654,-3.559516 z"
       id="path6"
       sodipodi:nodetypes="ccscssssssssssscc"
       style="fill:#ff7f2a;fill-opacity:1;stroke-width:0.700931" /><path
       d="m 157.29271,65.731027 c 0.63779,-0.01397 1.64184,0.203589 2.14288,0.514348 0.38249,0.237228 0.69545,0.375609 0.69545,0.307522 0,-0.06808 0.16691,0.02729 0.37091,0.211896 0.62291,0.563729 0.45838,1.08235 -0.69546,2.192133 -0.58649,0.564119 -1.45313,1.344912 -1.92553,1.735024 -2.50992,2.072683 -3.10261,2.594627 -3.30884,2.914409 -0.21344,0.330917 -0.19111,0.329705 0.39444,-0.02431 2.67911,-1.619541 5.42381,-2.962374 7.29721,-3.570378 0.408,-0.132415 0.93231,-0.389066 1.16525,-0.570129 0.33423,-0.259787 0.54931,-0.293353 1.02,-0.159738 1.06996,0.303723 1.61657,0.583541 1.61657,0.827667 0,0.241537 -1.41825,1.38439 -1.71799,1.38439 -0.0887,0 -0.42726,0.199772 -0.75196,0.44408 -0.32469,0.244316 -1.73856,1.032036 -3.14222,1.750241 -2.84415,1.455256 -3.18247,1.685727 -4.11913,2.806828 -0.72912,0.872706 -0.81219,1.332139 -0.3278,1.816527 0.17966,0.17967 0.29884,0.471177 0.26478,0.648004 -0.034,0.176827 0.0695,0.773496 0.23001,1.32571 0.20283,0.69779 0.23898,1.136265 0.11808,1.438007 -0.0957,0.238778 -0.17935,0.339809 -0.18582,0.224207 -0.007,-0.115602 -0.17282,-0.252376 -0.36982,-0.303901 -0.47893,-0.125236 -0.79606,-1.330168 -0.82477,-3.134258 l -0.0224,-1.422432 0.74181,-0.664668 c 0.40802,-0.365531 1.74328,-1.42961 2.96728,-2.364571 3.10613,-2.372615 3.43091,-2.637345 3.43092,-2.798134 2e-5,-0.35296 -2.94027,1.476412 -5.51366,3.43057 -0.5885,0.446898 -1.47266,1.044226 -1.96465,1.327532 l -0.89468,0.515079 0.15286,0.772606 c 0.084,0.42481 0.15284,2.12838 0.15284,3.785905 0,2.105305 0.0624,3.013663 0.20792,3.01363 0.22375,-4.1e-5 2.16645,-1.548072 3.70221,-2.950246 1.07644,-0.982818 1.24398,-1.438295 1.07072,-2.912589 -0.0912,-0.7761 -0.2608,-1.207183 -0.64728,-1.647364 -0.82014,-0.934079 -0.27729,-1.147449 0.94936,-0.373096 0.56836,0.358797 0.7877,0.65304 0.98089,1.315582 l 0.24884,0.853388 0.77514,-1.026524 c 0.42627,-0.564609 0.91572,-1.321787 1.08773,-1.682505 0.27729,-0.581454 0.28164,-0.693183 0.038,-0.984516 -0.24275,-0.290312 -0.71757,-1.242489 -0.71757,-1.439088 0,-0.04014 0.22987,0.04673 0.51037,0.193055 0.2805,0.146326 0.57811,0.266692 0.66141,0.267326 0.0833,6.27e-4 0.43799,0.219707 0.78819,0.486819 0.52384,0.399559 0.63678,0.607638 0.63678,1.174316 0,0.588403 -0.11485,0.779999 -0.78819,1.315203 -1.71075,1.359838 -2.92128,2.640319 -2.92128,3.090448 v 0.44553 l 1.29819,-0.682412 c 0.92503,-0.486094 1.29855,-0.78529 1.29855,-1.04102 0,-0.197382 0.0774,-0.310783 0.17241,-0.252104 0.095,0.05868 0.22433,0.02299 0.2876,-0.07937 0.0648,-0.104905 0.41464,-0.137368 0.80122,-0.07425 0.37728,0.06156 1.04036,0.09892 1.47385,0.08291 0.72228,-0.02662 0.78819,0.0094 0.78819,0.428866 0,0.629346 -0.46702,1.040649 -1.18191,1.040649 -0.36523,0 -1.50064,0.452667 -2.90751,1.159093 l -2.30841,1.159086 -0.77875,1.576364 c -0.42829,0.867003 -1.00021,2.09544 -1.27066,2.730027 -0.80922,1.898694 -2.62792,3.421975 -4.96817,4.160783 -1.16422,0.36754 -1.60644,0.42343 -1.60606,0.20284 h 3.7e-4 c 1.3e-4,-0.0765 0.39654,-0.31628 0.88091,-0.532817 1.22578,-0.548012 3.00123,-1.899476 3.83912,-2.922002 0.64508,-0.787235 1.58505,-2.897946 1.58505,-3.559499 0,-0.204584 -0.31953,-0.106149 -1.25181,0.385392 -2.64241,1.393208 -2.67914,1.423165 -2.92018,2.372507 -0.26784,1.054849 -0.28118,1.070483 -0.78999,0.937418 -0.23806,-0.06222 -0.5631,-0.437833 -0.79653,-0.92002 -0.43663,-0.901963 -0.41533,-0.896078 -2.21965,-0.616135 -1.85952,0.288515 -2.09175,0.06231 -0.87692,-0.85483 0.90945,-0.686582 1.04735,-0.732264 2.10664,-0.697255 l 1.13374,0.03766 0.1293,-2.551091 c 0.0713,-1.403154 0.073,-2.978158 0.003,-3.499739 l -0.12568,-0.948288 -0.67373,0.09744 c -0.84583,0.122484 -2.00759,0.691725 -2.64961,1.29783 -0.49809,0.470229 -1.01668,0.474358 -1.59375,0.01261 -0.32955,-0.263658 -0.28731,-0.696546 0.0681,-0.696546 0.16504,0 0.56546,-0.23305 0.88997,-0.517971 0.3245,-0.284921 1.28355,-0.794734 2.13128,-1.133018 1.32284,-0.527895 1.60167,-0.583005 1.96682,-0.387585 0.61493,0.329104 0.85477,0.101246 0.54551,-0.518688 -0.2894,-0.580112 -0.16542,-1.368657 0.20356,-1.293841 0.37026,0.07508 3.7323,-3.882268 4.35565,-5.126831 0.66512,-1.327922 0.67267,-1.469321 0.0974,-1.84622 -0.73031,-0.478519 -1.39335,-1.214503 -1.20111,-1.333317 0.0991,-0.06123 0.27097,-0.09169 0.48356,-0.09635 z m 3.74785,18.199975 0.70416,0.293393 c 1.0447,0.435096 2.15103,1.005104 2.46632,1.271012 0.15301,0.129036 0.77891,0.496767 1.39091,0.817151 2.46211,1.28897 3.32919,2.149075 3.13679,3.111093 -0.15729,0.786413 -0.64184,0.872143 -1.53542,0.272023 -1.91226,-1.284272 -4.29002,-3.468365 -5.82734,-5.353204 z"
       id="path5"
       sodipodi:nodetypes="sssssssssssssssssssscscccssscccsssssssccsssssssssccssssssssccssccsssssssssccccccsssssssssssssccsssscc"
       style="fill:#ff7f2a;fill-opacity:1;stroke-width:0.700931" /><path
       d="m 153.96902,38.853859 c 0.41269,0 2.59007,1.275735 2.70974,1.587595 0.2338,0.609286 -0.1052,0.942625 -1.24313,1.222478 -0.63053,0.155066 -1.31332,0.343492 -1.51733,0.419085 -0.24596,0.09115 -0.16788,-0.04362 0.23183,-0.40025 0.33149,-0.295768 0.60273,-0.591168 0.60273,-0.656697 0,-0.06553 -0.25037,-0.513946 -0.55637,-0.996457 -0.64533,-1.017572 -0.67579,-1.175754 -0.22747,-1.175754 z"
       id="path4"
       sodipodi:nodetypes="ssssssss"
       style="fill:#ff7f2a;fill-opacity:1;stroke-width:0.700931" /><path
       d="m 145.37871,42.111995 c 0.2068,-0.106838 1.6108,1.726736 2.00594,2.715896 0.89445,2.239061 1.12115,4.366072 0.98958,9.279618 -0.0649,2.422499 -0.0785,4.404549 -0.0304,4.404549 0.23127,0 2.14991,-1.239584 2.93431,-1.895839 1.36051,-1.138242 2.60158,-3.51471 3.02306,-5.78894 l 0.13512,-0.730591 -0.81537,0.503118 c -1.38247,0.85287 -3.85518,2.059448 -3.97495,1.939669 -0.0624,-0.06249 -0.13069,-0.22537 -0.15141,-0.362216 -0.0208,-0.136846 -0.0967,-0.343709 -0.16916,-0.459653 -0.15971,-0.255388 0.16335,-0.533468 0.79435,-0.683502 0.27751,-0.06599 1.06466,-0.797248 1.94002,-1.802025 0.81012,-0.929889 1.62238,-1.770613 1.80493,-1.868311 0.33895,-0.181401 0.44631,-0.628119 0.18907,-0.787097 -0.0786,-0.04857 -0.71969,0.196587 -1.42459,0.545136 -1.92303,0.95087 -3.59184,0.836439 -3.61927,-0.24848 -0.005,-0.181571 0.0709,-0.185426 0.34049,-0.01703 0.29342,0.183241 0.67053,0.03032 2.45728,-0.995371 1.16085,-0.6664 2.73653,-1.526151 3.50153,-1.910689 0.76501,-0.38454 1.51611,-0.805666 1.6691,-0.935968 0.40062,-0.341188 1.29818,-0.539105 1.29818,-0.286151 0,0.113058 0.16206,0.205739 0.36005,0.205739 0.19798,0 0.41223,0.08469 0.47632,0.188352 0.0641,0.103665 0.18558,0.145893 0.26983,0.09381 0.17596,-0.108737 0.42205,0.422753 0.29268,0.632067 -0.0473,0.07651 -0.65235,0.52054 -1.3449,0.986677 -0.69255,0.466138 -1.59325,1.138152 -2.00124,1.493056 -0.72907,0.63418 -0.73599,0.651608 -0.39953,1.024348 0.28542,0.3162 0.41648,0.345395 0.78817,0.176037 0.24522,-0.111724 0.4459,-0.30078 0.4459,-0.420171 0,-0.383753 1.55326,-0.988465 1.74443,-0.679155 0.0584,0.09458 0.39926,0.226934 0.75739,0.29412 0.35813,0.06718 0.64913,0.222675 0.64692,0.345554 -0.002,0.122878 -0.87848,0.632477 -1.94727,1.132287 -1.45138,0.678728 -1.9433,0.996588 -1.9433,1.255804 0,0.471104 -1.19724,3.515717 -1.91431,4.868185 -0.85105,1.605175 -2.10648,2.742128 -4.14593,3.754372 -0.96008,0.476524 -1.79972,0.954212 -1.86612,1.061656 -0.0663,0.107444 -0.0988,0.502321 -0.0717,0.877288 0.0269,0.374966 -0.0398,0.736723 -0.14888,0.80412 -0.10905,0.0674 -0.19849,0.02033 -0.19849,-0.104681 0,-0.125019 -0.055,-0.17252 -0.12207,-0.105404 -0.19049,0.19049 -0.61975,-0.252342 -0.61975,-0.639311 0,-0.191512 -0.11238,-0.348091 -0.24956,-0.348091 -0.1372,0 -0.40037,-0.166909 -0.58499,-0.370911 -0.32766,-0.362058 -0.32379,-0.370908 0.15685,-0.370908 h 0.49224 l -0.003,-1.993638 c -0.003,-2.352557 -0.2914,-6.945415 -0.56724,-9.040918 -0.16424,-1.247713 -0.41427,-2.39737 -1.20944,-5.56364 -0.0257,-0.102578 -0.0204,-0.157515 0.009,-0.172777 z m 11.41415,9.216229 c 0,-0.22511 4.46495,1.241532 4.80444,1.578175 0.14332,0.142131 0.44536,0.328879 0.67118,0.414738 0.48463,0.184258 0.70418,1.015942 0.34664,1.312671 -0.14697,0.121977 -0.53307,0.155481 -0.96024,0.08331 -0.51419,-0.08687 -0.99052,-0.01179 -1.69951,0.267679 -0.54182,0.213568 -1.02347,0.350066 -1.06999,0.303537 -0.0466,-0.04653 -0.62758,0.158964 -1.29129,0.456755 -0.66373,0.297791 -1.26096,0.541513 -1.32718,0.541513 -0.0662,0 0.69277,-0.543833 1.68648,-1.208353 0.99373,-0.664521 1.80675,-1.278428 1.80675,-1.364469 0,-0.08604 -0.53493,-0.397982 -1.18881,-0.692919 -1.07454,-0.484699 -1.77847,-1.154439 -1.77847,-1.692637 z"
       id="path3"
       sodipodi:nodetypes="cscsscccccsssssscsssssssscssssssscssssccsssssssccscccsssssssssssss"
       style="fill:#ff7f2a;fill-opacity:1;stroke-width:0.700931" /><path
       d="m 161.42923,34.883244 c -2.61924,-0.266216 -7.50925,1.69429 -11.68365,4.68382 -0.99605,0.713326 -1.13483,0.873061 -0.79978,0.920753 0.61443,0.08746 3.15846,-0.906349 4.69434,-1.833901 1.76178,-1.063996 5.12864,-2.418726 6.63471,-2.669533 0.64623,-0.107621 0.95464,-0.04816 1.66908,0.321285 0.48202,0.249252 1.08591,0.504098 1.34237,0.566144 0.56004,0.135486 1.54812,1.679334 1.8618,2.909321 0.37233,1.459947 0.43756,10.755956 0.10141,14.465467 -0.29169,3.218981 -0.2989,3.249619 -0.85482,3.755457 -0.42687,0.388403 -0.7476,0.509686 -1.34564,0.508915 -1.04631,-0.0014 -2.12068,-0.314318 -2.54891,-0.742544 -0.62831,-0.628311 -2.96546,-1.06564 -2.96546,-0.554915 0,0.182908 -1.89501,0.926176 -2.37143,0.930172 -0.17467,0.0015 -1.18281,0.41874 -2.2403,0.927272 -2.03274,0.977499 -2.34807,1.065041 -2.49822,0.69292 -0.0607,-0.150243 -0.0988,-0.127595 -0.1083,0.06411 -0.008,0.162692 0.14472,0.439953 0.3394,0.616131 0.4144,0.375029 0.83864,0.287323 2.89157,-0.596571 0.71401,-0.307417 1.79891,-0.62026 2.41091,-0.695455 0.612,-0.07519 1.56388,-0.291642 2.11534,-0.481023 1.03713,-0.356165 1.87198,-0.447801 1.8723,-0.205377 1.1e-4,0.0765 0.42792,0.379307 0.95082,0.672997 0.52289,0.293692 0.991,0.688268 1.04028,0.876564 0.0556,0.21275 0.32724,0.386726 0.71791,0.460015 0.34577,0.06486 0.62881,0.179073 0.62881,0.253551 0,0.07448 0.37024,0.07915 0.82259,0.01051 0.95186,-0.144455 2.0817,-0.930753 2.36021,-1.642651 0.10581,-0.270477 0.356,-2.035803 0.55599,-3.922802 0.46287,-4.367199 0.40055,-13.372652 -0.10322,-14.913529 -0.42374,-1.296121 -1.07738,-2.338687 -2.27907,-3.63665 -1.26806,-1.369673 -1.6608,-1.582884 -3.21104,-1.740451 z"
       id="path2"
       sodipodi:nodetypes="sssssssssscssssscssssssssssssssss"
       style="fill:#ff7f2a;fill-opacity:1;stroke-width:0.700931" /><g
       id="g30"
       style="fill:#4d4d4d;fill-opacity:1"><rect
         style="fill:#4d4d4d;stroke:none;stroke-width:0.46562;paint-order:fill markers stroke;fill-opacity:1"
         id="rect29"
         width="6.0140452"
         height="106.85435"
         x="18.599165"
         y="153.76851" /><path
         id="path25"
         style="fill:#4d4d4d;stroke:none;stroke-width:0.465972;paint-order:fill markers stroke;fill-opacity:1"
         d="M 24.271941,34.859122 C 27.32329,31.363573 27.274018,22.45356 21.606183,10.047308 15.938348,22.45356 15.889076,31.363573 18.940424,34.859122 h 2.665759 z" /><rect
         style="fill:#4d4d4d;stroke:none;stroke-width:0.341912;paint-order:fill markers stroke;fill-opacity:1"
         id="rect26"
         width="6.0140452"
         height="57.61768"
         x="18.599165"
         y="153.76851" /><path
         id="path26"
         style="fill:#4d4d4d;stroke:none;stroke-width:0.465972;paint-order:fill markers stroke;fill-opacity:1"
         d="m 21.60617,287.02218 4.682733,-17.79837 -2.016975,-7.01344 H 21.60617 18.940411 l -2.016974,7.01344 z" /><rect
         style="fill:#4d4d4d;stroke:none;stroke-width:0.123096;paint-order:fill markers stroke;fill-opacity:1"
         id="rect27"
         width="6.0140452"
         height="7.4681497"
         x="18.599165"
         y="144.76593" /><rect
         style="fill:#4d4d4d;stroke:none;stroke-width:0.46562;paint-order:fill markers stroke;fill-opacity:1"
         id="rect28"
         width="6.0140452"
         height="106.85435"
         x="18.599165"
         y="36.377148" /></g><g
       id="g35"
       transform="rotate(180,105,148.5)"
       style="fill:#4d4d4d;fill-opacity:1"><rect
         style="fill:#4d4d4d;stroke:none;stroke-width:0.46562;paint-order:fill markers stroke;fill-opacity:1"
         id="rect32"
         width="6.0140452"
         height="106.85435"
         x="18.599165"
         y="153.76851" /><path
         id="path32"
         style="fill:#4d4d4d;stroke:none;stroke-width:0.465972;paint-order:fill markers stroke;fill-opacity:1"
         d="M 24.271941,34.859122 C 27.32329,31.363573 27.274018,22.45356 21.606183,10.047308 15.938348,22.45356 15.889076,31.363573 18.940424,34.859122 h 2.665759 z" /><rect
         style="fill:#4d4d4d;stroke:none;stroke-width:0.341912;paint-order:fill markers stroke;fill-opacity:1"
         id="rect33"
         width="6.0140452"
         height="57.61768"
         x="18.599165"
         y="153.76851" /><path
         id="path33"
         style="fill:#4d4d4d;stroke:none;stroke-width:0.465972;paint-order:fill markers stroke;fill-opacity:1"
         d="m 21.60617,287.02218 4.682733,-17.79837 -2.016975,-7.01344 H 21.60617 18.940411 l -2.016974,7.01344 z" /><rect
         style="fill:#4d4d4d;stroke:none;stroke-width:0.123096;paint-order:fill markers stroke;fill-opacity:1"
         id="rect34"
         width="6.0140452"
         height="7.4681497"
         x="18.599165"
         y="144.76593" /><rect
         style="fill:#4d4d4d;stroke:none;stroke-width:0.46562;paint-order:fill markers stroke;fill-opacity:1"
         id="rect35"
         width="6.0140452"
         height="106.85435"
         x="18.599165"
         y="36.377148" /></g><text
       xml:space="preserve"
       style="font-style:normal;font-variant:normal;font-weight:normal;font-stretch:normal;font-size:12.0077px;line-height:0.5;font-family:acil_lujot;-inkscape-font-specification:acil_lujot;letter-spacing:0px;fill:#4d4d4d;fill-opacity:1;stroke:none;stroke-width:0.170896;paint-order:fill markers stroke"
       x="32.480381"
       y="285.97357"
       id="text35"><tspan
         sodipodi:role="line"
         id="tspan35"
         style="font-style:normal;font-variant:normal;font-weight:normal;font-stretch:normal;font-family:acil_lujot;-inkscape-font-specification:acil_lujot;fill:#4d4d4d;fill-opacity:1;stroke-width:0.170896"
         x="32.480381"
         y="285.97357">ail pilecit </tspan></text><text
       xml:space="preserve"
       style="font-style:normal;font-variant:normal;font-weight:normal;font-stretch:normal;font-size:12.0077px;line-height:0.5;font-family:acil_lujot;-inkscape-font-specification:acil_lujot;letter-spacing:0px;fill:#4d4d4d;fill-opacity:1;stroke:none;stroke-width:0.170896;paint-order:fill markers stroke"
       x="148.35982"
       y="285.97357"
       id="text36"><tspan
         sodipodi:role="line"
         id="tspan36"
         style="font-style:normal;font-variant:normal;font-weight:normal;font-stretch:normal;font-family:acil_lujot;-inkscape-font-specification:acil_lujot;fill:#4d4d4d;fill-opacity:1;stroke-width:0.170896"
         x="148.35982"
         y="285.97357">belpic </tspan></text><text
       xml:space="preserve"
       style="font-style:normal;font-variant:normal;font-weight:normal;font-stretch:normal;font-size:12.0077px;line-height:0.5;font-family:xedixel;-inkscape-font-specification:xedixel;letter-spacing:0px;fill:#000000;fill-opacity:1;stroke:none;stroke-width:0.170896;paint-order:fill markers stroke"
       x="85.130722"
       y="285.97357"
       id="text37"><tspan
         sodipodi:role="line"
         id="tspan37"
         style="font-style:normal;font-variant:normal;font-weight:normal;font-stretch:normal;font-family:xedixel;-inkscape-font-specification:xedixel;stroke-width:0.170896"
         x="85.130722"
         y="285.97357">kuwa at elme </tspan></text><text
       xml:space="preserve"
       style="font-style:normal;font-variant:normal;font-weight:normal;font-stretch:normal;font-size:50.8px;line-height:0.5;font-family:xedixel;-inkscape-font-specification:xedixel;letter-spacing:0px;fill:#000000;fill-opacity:1;stroke:none;stroke-width:0.723;paint-order:fill markers stroke"
       x="303.94095"
       y="26.667896"
       id="text38"><tspan
         sodipodi:role="line"
         id="tspan38"
         style="stroke-width:0.723"
         x="303.94095"
         y="26.667896" /></text><g
       id="g84"
       transform="matrix(0.7220675,0,0,0.7220675,33.27013,3.7941535)"><rect
         style="fill:#ffffff;fill-opacity:1;stroke:none;stroke-width:0.166506;paint-order:fill markers stroke"
         id="rect80"
         width="15.971621"
         height="22.88233"
         x="54.084812"
         y="8.0576639" /><path
         id="path59"
         style="fill:#4d4d4d;stroke-width:0.422699;paint-order:fill markers stroke"
         d="m 74.533876,9.97782 v 5.31433 h 4.43667 v 1.26725 h -4.43667 v 4.64278 h 4.43667 v 1.26772 h -4.43667 v 5.35236 h 8.92222 v -6.61294 h -1.28639 v -0.007 -4.64277 h 1.26726 0.0191 V 9.97798 Z"
         sodipodi:nodetypes="ccccccccccccccccccc" /><path
         d="m 84.723586,9.97782 v 17.84444 h 8.92222 V 9.97782 h -3.82736 v 13.8889 h -1.2675 V 9.97782 Z"
         style="fill:#4d4d4d;stroke-width:0.422699;paint-order:fill markers stroke"
         id="path60" /><path
         d="m 94.913296,9.97782 v 17.84444 h 8.922214 V 22.4699 h -4.436669 v -1.26772 h 4.436669 V 9.97782 Z m 3.827355,3.09588 h 1.267499 v 4.43667 h -1.267499 z"
         style="fill:#4d4d4d;stroke-width:0.422699;paint-order:fill markers stroke"
         id="path61" /><path
         d="m 105.103,9.97782 v 17.84444 h 5.09485 v -3.95554 h -1.26749 V 9.97782 Z"
         style="fill:#4d4d4d;stroke-width:0.422699;paint-order:fill markers stroke"
         id="path62" /><path
         d="m 114.02521,9.97782 v 3.95555 h 1.2675 v 13.88889 h 3.82736 V 9.97782 Z"
         style="fill:#4d4d4d;stroke-width:0.422699;paint-order:fill markers stroke"
         id="path64" /><path
         d="m 110.19785,9.97782 v 17.84444 h 3.82736 V 13.93337 9.97782 Z"
         style="fill:#4d4d4d;stroke-width:0.422699;paint-order:fill markers stroke"
         id="path63" /><path
         d="m 120.38756,9.97782 v 5.31433 h 4.43667 v 1.26725 h -4.43667 v 4.64278 h 4.43667 v 1.26772 h -4.43667 v 5.35236 h 8.92221 V 9.97782 Z"
         style="fill:#4d4d4d;stroke-width:0.422699;paint-order:fill markers stroke"
         id="path65" /><path
         d="m 130.57726,9.97782 v 17.84444 h 3.82737 v -6.58158 h 1.26748 V 16.5594 h -1.26748 V 9.97782 Z"
         style="fill:#4d4d4d;stroke-width:0.422699;paint-order:fill markers stroke"
         id="path68" /><path
         d="m 139.49948,9.97782 v 3.92719 h 1.26749 v 9.96171 h -1.26749 v 3.95554 h 5.09485 V 9.97782 Z"
         style="fill:#4d4d4d;stroke-width:0.422699;paint-order:fill markers stroke"
         id="path67" /><path
         d="m 135.67211,9.97782 v 11.26286 6.58158 h 3.82737 V 23.86672 13.90501 9.97782 Z"
         style="fill:#4d4d4d;stroke-width:0.422699;paint-order:fill markers stroke"
         id="path66" /><rect
         style="fill:#ff7f2a;fill-opacity:1;stroke:none;stroke-width:0.154593;paint-order:fill markers stroke"
         id="rect69"
         width="2.9734597"
         height="8.6655092"
         x="54.084812"
         y="8.0576639" /><rect
         style="fill:#ff7f2a;fill-opacity:1;stroke:none;stroke-width:0.189336;paint-order:fill markers stroke"
         id="rect70"
         width="2.9734597"
         height="12.998159"
         x="54.084812"
         y="17.941849" /><rect
         style="fill:#ff7f2a;fill-opacity:1;stroke:none;stroke-width:0.154593;paint-order:fill markers stroke"
         id="rect71"
         width="2.9734597"
         height="8.6655092"
         x="67.082954"
         y="8.0576639" /><rect
         style="fill:#ff7f2a;fill-opacity:1;stroke:none;stroke-width:0.189336;paint-order:fill markers stroke"
         id="rect72"
         width="2.9734597"
         height="12.998159"
         x="67.082954"
         y="17.941849" /><rect
         style="fill:#ff7f2a;fill-opacity:1;stroke:none;stroke-width:0.189336;paint-order:fill markers stroke"
         id="rect73"
         width="2.9734597"
         height="12.998159"
         x="27.966537"
         y="-67.082954"
         transform="rotate(90)" /><rect
         style="fill:#ff7f2a;fill-opacity:1;stroke:none;stroke-width:0.189336;paint-order:fill markers stroke"
         id="rect74"
         width="2.9734597"
         height="12.998159"
         x="8.0576639"
         y="-67.082954"
         transform="rotate(90)" /><path
         style="fill:#ffcc00;fill-opacity:1;stroke:none;stroke-width:0.172476;paint-order:fill markers stroke"
         d="m 58.146016,16.82548 0.59489,2.07456 7.71307,-2.54765 z"
         id="path76"
         sodipodi:nodetypes="cccc" /><path
         style="fill:#00aa9c;fill-opacity:1;stroke:none;stroke-width:0.184607;paint-order:fill markers stroke"
         d="m 64.711106,18.08247 1.68735,1.059 -7.92739,3.48444 z"
         id="path77" /><path
         style="fill:#ff5555;fill-opacity:1;stroke:none;stroke-width:0.184607;paint-order:fill markers stroke"
         d="m 60.147346,18.69738 3.76783,4.33846 1.52818,-1.40061 z"
         id="path78" /><path
         style="fill:#ff5555;fill-opacity:1;stroke:none;stroke-width:0.184607;paint-order:fill markers stroke"
         d="m 65.936836,22.70573 0.98694,1.57141 -9.86551,3.6894 z"
         id="path79"
         sodipodi:nodetypes="cccc" /><path
         style="fill:#ffcc00;fill-opacity:1;stroke:none;stroke-width:0.184607;paint-order:fill markers stroke"
         d="m 59.155566,23.01318 5.76249,4.23598 1.2098,-1.50309 z"
         id="path80" /><path
         style="fill:#ff5555;fill-opacity:1;stroke:none;stroke-width:0.166506;paint-order:fill markers stroke"
         d="m 58.740906,14.19994 1.56133,3.38438 1.1546,-1.41181 z"
         id="path81" /><path
         style="fill:#00aa9c;fill-opacity:1;stroke:none;stroke-width:0.166506;paint-order:fill markers stroke"
         d="m 64.378736,13.14997 0.93578,0.81202 -2.51917,2.76119 z"
         id="path82" /><path
         style="fill:#ff5555;fill-opacity:1;stroke:none;stroke-width:0.166506;paint-order:fill markers stroke"
         d="m 54.084806,8.05767 2.97346,2.97346 h 10.0247 l 2.97346,-2.97346 z"
         id="path83" /><rect
         style="fill:#4d4d4d;fill-opacity:1;stroke:none;stroke-width:0.0836458;paint-order:fill markers stroke"
         id="rect75"
         width="1.0697888"
         height="7.0512433"
         x="-62.605507"
         y="-13.070024"
         transform="scale(-1)" /><path
         style="fill:#ff5555;fill-opacity:1;stroke:none;stroke-width:0.172476;paint-order:fill markers stroke"
         d="m 59.344956,12.86917 0.62463,2.07456 6.27617,-2.55331 z"
         id="path75" /><path
         style="fill:#ff5555;fill-opacity:1;stroke:none;stroke-width:0.166506;paint-order:fill markers stroke"
         d="m 70.056426,30.94 -2.97345,-2.97346 h -10.0247 L 54.084806,30.94 Z"
         id="path84" /></g><text
       xml:space="preserve"
       style="font-style:normal;font-variant:normal;font-weight:normal;font-stretch:normal;font-size:50.8px;line-height:0.5;font-family:xedixel;-inkscape-font-specification:xedixel;letter-spacing:0px;fill:#ff5555;fill-opacity:1;stroke:none;stroke-width:0.723;paint-order:fill markers stroke"
       x="295.51321"
       y="183.92082"
       id="text84"><tspan
         sodipodi:role="line"
         id="tspan84"
         style="stroke-width:0.723"></tspan></text></g></svg>
