<?xml version="1.0" encoding="UTF-8" standalone="no"?>
<!-- Created with Inkscape (http://www.inkscape.org/) -->

<svg
   width="297mm"
   height="210mm"
   viewBox="0 0 297 210"
   version="1.1"
   id="svg16451"
   inkscape:version="1.2.1 (9c6d41e410, 2022-07-14)"
   sodipodi:docname="行山個人ボード.svg"
   inkscape:export-filename="行山個人ボード.png"
   inkscape:export-xdpi="200"
   inkscape:export-ydpi="200"
   xmlns:inkscape="http://www.inkscape.org/namespaces/inkscape"
   xmlns:sodipodi="http://sodipodi.sourceforge.net/DTD/sodipodi-0.dtd"
   xmlns="http://www.w3.org/2000/svg"
   xmlns:svg="http://www.w3.org/2000/svg">
  <sodipodi:namedview
     id="namedview16453"
     pagecolor="#ffffff"
     bordercolor="#000000"
     borderopacity="0.25"
     inkscape:showpageshadow="2"
     inkscape:pageopacity="0.0"
     inkscape:pagecheckerboard="0"
     inkscape:deskcolor="#d1d1d1"
     inkscape:document-units="mm"
     showgrid="false"
     showguides="true"
     inkscape:zoom="0.2973261"
     inkscape:cx="966.95177"
     inkscape:cy="-391.82567"
     inkscape:window-width="1920"
     inkscape:window-height="1191"
     inkscape:window-x="-9"
     inkscape:window-y="-9"
     inkscape:window-maximized="1"
     inkscape:current-layer="layer1">
    <sodipodi:guide
       position="68.272246,115.92903"
       orientation="0,-1"
       id="guide17043"
       inkscape:locked="false" />
    <sodipodi:guide
       position="76.929597,179.87955"
       orientation="1,0"
       id="guide17472"
       inkscape:locked="false" />
  </sodipodi:namedview>
  <defs
     id="defs16448" />
  <g
     inkscape:label="Layer 1"
     inkscape:groupmode="layer"
     id="layer1">
    <rect
       style="fill:#ffffff;stroke:none;stroke-width:0.499999;stroke-linecap:square;stroke-linejoin:miter;stroke-dasharray:none;stroke-opacity:1;paint-order:stroke markers fill"
       id="rect18900"
       width="297"
       height="210"
       x="0"
       y="0" />
    <g
       id="g18310"
       transform="translate(-32.473476,-81.202275)">
      <rect
         style="fill:#000000;stroke:#000000;stroke-width:0.47465;stroke-linecap:square;stroke-linejoin:miter;stroke-dasharray:none;stroke-opacity:1;paint-order:stroke markers fill"
         id="rect18294"
         width="22.525343"
         height="16.048389"
         x="68.259575"
         y="114.5691" />
      <path
         style="fill:none;stroke:#000000;stroke-width:0.474651;stroke-linecap:square;stroke-linejoin:miter;stroke-dasharray:none;paint-order:stroke markers fill"
         d="m 68.259571,170.95195 2e-6,-16.04839 h 22.525343 v 16.04839"
         id="path18290" />
      <path
         style="fill:none;stroke:#000000;stroke-width:0.474651;stroke-linecap:square;stroke-linejoin:miter;stroke-dasharray:none;paint-order:stroke markers fill"
         d="m 68.259571,191.11919 2e-6,-16.04839 h 22.525343 v 16.04839"
         id="path17412" />
      <path
         style="fill:none;stroke:#000000;stroke-width:0.474651;stroke-linecap:square;stroke-linejoin:miter;stroke-dasharray:none;paint-order:stroke markers fill"
         d="m 68.259571,241.78706 2e-6,16.04839 h 22.525343 v -16.04839"
         id="path17414" />
      <g
         id="g18209"
         transform="translate(-1.0626129,92.347161)"
         style="fill:#ffffff">
        <path
           style="fill:#ffffff;stroke:none;stroke-width:0.499999;stroke-linecap:square;stroke-linejoin:miter;stroke-dasharray:none;paint-order:stroke markers fill"
           d="m 76.306859,26.642266 1.970418,1.137622 v 6.092621 l -1.397846,-0.807048 c 0,0 0.836712,-3.826631 -0.572567,-6.423195 z"
           id="path17470"
           sodipodi:nodetypes="cccccc" />
        <path
           style="fill:#ffffff;stroke:none;stroke-width:0.499999;stroke-linecap:square;stroke-linejoin:miter;stroke-dasharray:none;paint-order:stroke markers fill"
           d="m 79.352975,26.113099 1.970418,1.137622 v 6.092621 l -1.397846,-0.807048 c 0,0 0.836712,-3.826631 -0.572567,-6.423195 z"
           id="path17476"
           sodipodi:nodetypes="cccccc" />
        <path
           style="fill:#ffffff;stroke:none;stroke-width:0.499999;stroke-linecap:square;stroke-linejoin:miter;stroke-dasharray:none;paint-order:stroke markers fill"
           d="m 82.892435,24.525598 1.970418,1.137622 v 10.325954 l -1.397846,-0.807048 c 0,0 0.836712,-8.059964 -0.572567,-10.656528 z"
           id="path17478"
           sodipodi:nodetypes="cccccc" />
      </g>
      <g
         id="g18217"
         transform="translate(-2.3855294,112.51083)">
        <path
           style="fill:#000000;stroke:none;stroke-width:0.499999;stroke-linecap:square;stroke-linejoin:miter;stroke-dasharray:none;paint-order:stroke markers fill"
           d="m 78.952692,26.113099 1.970418,1.137622 v 6.092621 l -1.397846,-0.807048 c 0,0 0.836712,-3.826631 -0.572567,-6.423195 z"
           id="path18211"
           sodipodi:nodetypes="cccccc" />
        <path
           style="fill:#000000;stroke:none;stroke-width:0.499999;stroke-linecap:square;stroke-linejoin:miter;stroke-dasharray:none;paint-order:stroke markers fill"
           d="m 82.892435,24.525598 1.970418,1.137622 v 10.325954 l -1.397846,-0.807048 c 0,0 0.836712,-8.059964 -0.572567,-10.656528 z"
           id="path18215"
           sodipodi:nodetypes="cccccc" />
      </g>
      <g
         id="g18284"
         transform="translate(-4.3554009,132.67449)">
        <path
           style="fill:#000000;stroke:none;stroke-width:0.499999;stroke-linecap:square;stroke-linejoin:miter;stroke-dasharray:none;paint-order:stroke markers fill"
           d="m 82.892435,24.525598 1.970418,1.137622 v 10.325954 l -1.397846,-0.807048 c 0,0 0.836712,-8.059964 -0.572567,-10.656528 z"
           id="path18282"
           sodipodi:nodetypes="cccccc" />
      </g>
      <path
         style="fill:none;stroke:#000000;stroke-width:0.474651;stroke-linecap:square;stroke-linejoin:miter;stroke-dasharray:none;paint-order:stroke markers fill"
         d="m 68.259571,150.78472 2e-6,-16.04839 h 22.525343 v 16.04839"
         id="path18286" />
    </g>
    <g
       id="g18340"
       transform="translate(-7.1106666,-81.202275)">
      <rect
         style="fill:#000000;stroke:#000000;stroke-width:0.47465;stroke-linecap:square;stroke-linejoin:miter;stroke-dasharray:none;stroke-opacity:1;paint-order:stroke markers fill"
         id="rect18312"
         width="22.525343"
         height="16.048389"
         x="68.259575"
         y="114.5691" />
      <path
         style="fill:none;stroke:#000000;stroke-width:0.474651;stroke-linecap:square;stroke-linejoin:miter;stroke-dasharray:none;paint-order:stroke markers fill"
         d="m 68.259571,170.95195 2e-6,-16.04839 h 22.525343 v 16.04839"
         id="path18314" />
      <path
         style="fill:none;stroke:#000000;stroke-width:0.474651;stroke-linecap:square;stroke-linejoin:miter;stroke-dasharray:none;paint-order:stroke markers fill"
         d="m 68.259571,191.11919 2e-6,-16.04839 h 22.525343 v 16.04839"
         id="path18316" />
      <path
         style="fill:none;stroke:#000000;stroke-width:0.474651;stroke-linecap:square;stroke-linejoin:miter;stroke-dasharray:none;paint-order:stroke markers fill"
         d="m 68.259571,241.78706 2e-6,16.04839 h 22.525343 v -16.04839"
         id="path18318" />
      <g
         id="g18326"
         transform="translate(-1.0626129,92.347161)"
         style="fill:#ffffff">
        <path
           style="fill:#ffffff;stroke:none;stroke-width:0.499999;stroke-linecap:square;stroke-linejoin:miter;stroke-dasharray:none;paint-order:stroke markers fill"
           d="m 76.306859,26.642266 1.970418,1.137622 v 6.092621 l -1.397846,-0.807048 c 0,0 0.836712,-3.826631 -0.572567,-6.423195 z"
           id="path18320"
           sodipodi:nodetypes="cccccc" />
        <path
           style="fill:#ffffff;stroke:none;stroke-width:0.499999;stroke-linecap:square;stroke-linejoin:miter;stroke-dasharray:none;paint-order:stroke markers fill"
           d="m 79.352975,26.113099 1.970418,1.137622 v 6.092621 l -1.397846,-0.807048 c 0,0 0.836712,-3.826631 -0.572567,-6.423195 z"
           id="path18322"
           sodipodi:nodetypes="cccccc" />
        <path
           style="fill:#ffffff;stroke:none;stroke-width:0.499999;stroke-linecap:square;stroke-linejoin:miter;stroke-dasharray:none;paint-order:stroke markers fill"
           d="m 82.892435,24.525598 1.970418,1.137622 v 10.325954 l -1.397846,-0.807048 c 0,0 0.836712,-8.059964 -0.572567,-10.656528 z"
           id="path18324"
           sodipodi:nodetypes="cccccc" />
      </g>
      <g
         id="g18332"
         transform="translate(-2.3855294,112.51083)">
        <path
           style="fill:#000000;stroke:none;stroke-width:0.499999;stroke-linecap:square;stroke-linejoin:miter;stroke-dasharray:none;paint-order:stroke markers fill"
           d="m 78.952692,26.113099 1.970418,1.137622 v 6.092621 l -1.397846,-0.807048 c 0,0 0.836712,-3.826631 -0.572567,-6.423195 z"
           id="path18328"
           sodipodi:nodetypes="cccccc" />
        <path
           style="fill:#000000;stroke:none;stroke-width:0.499999;stroke-linecap:square;stroke-linejoin:miter;stroke-dasharray:none;paint-order:stroke markers fill"
           d="m 82.892435,24.525598 1.970418,1.137622 v 10.325954 l -1.397846,-0.807048 c 0,0 0.836712,-8.059964 -0.572567,-10.656528 z"
           id="path18330"
           sodipodi:nodetypes="cccccc" />
      </g>
      <g
         id="g18336"
         transform="translate(-4.3554009,132.67449)">
        <path
           style="fill:#000000;stroke:none;stroke-width:0.499999;stroke-linecap:square;stroke-linejoin:miter;stroke-dasharray:none;paint-order:stroke markers fill"
           d="m 82.892435,24.525598 1.970418,1.137622 v 10.325954 l -1.397846,-0.807048 c 0,0 0.836712,-8.059964 -0.572567,-10.656528 z"
           id="path18334"
           sodipodi:nodetypes="cccccc" />
      </g>
      <path
         style="fill:none;stroke:#000000;stroke-width:0.474651;stroke-linecap:square;stroke-linejoin:miter;stroke-dasharray:none;paint-order:stroke markers fill"
         d="m 68.259571,150.78472 2e-6,-16.04839 h 22.525343 v 16.04839"
         id="path18338" />
    </g>
    <g
       id="g18370"
       transform="translate(18.25214,-81.202275)">
      <rect
         style="fill:#000000;stroke:#000000;stroke-width:0.47465;stroke-linecap:square;stroke-linejoin:miter;stroke-dasharray:none;stroke-opacity:1;paint-order:stroke markers fill"
         id="rect18342"
         width="22.525343"
         height="16.048389"
         x="68.259575"
         y="114.5691" />
      <path
         style="fill:none;stroke:#000000;stroke-width:0.474651;stroke-linecap:square;stroke-linejoin:miter;stroke-dasharray:none;paint-order:stroke markers fill"
         d="m 68.259571,170.95195 2e-6,-16.04839 h 22.525343 v 16.04839"
         id="path18344" />
      <path
         style="fill:none;stroke:#000000;stroke-width:0.474651;stroke-linecap:square;stroke-linejoin:miter;stroke-dasharray:none;paint-order:stroke markers fill"
         d="m 68.259571,191.11919 2e-6,-16.04839 h 22.525343 v 16.04839"
         id="path18346" />
      <path
         style="fill:none;stroke:#000000;stroke-width:0.474651;stroke-linecap:square;stroke-linejoin:miter;stroke-dasharray:none;paint-order:stroke markers fill"
         d="m 68.259571,241.78706 2e-6,16.04839 h 22.525343 v -16.04839"
         id="path18348" />
      <g
         id="g18356"
         transform="translate(-1.0626129,92.347161)"
         style="fill:#ffffff">
        <path
           style="fill:#ffffff;stroke:none;stroke-width:0.499999;stroke-linecap:square;stroke-linejoin:miter;stroke-dasharray:none;paint-order:stroke markers fill"
           d="m 76.306859,26.642266 1.970418,1.137622 v 6.092621 l -1.397846,-0.807048 c 0,0 0.836712,-3.826631 -0.572567,-6.423195 z"
           id="path18350"
           sodipodi:nodetypes="cccccc" />
        <path
           style="fill:#ffffff;stroke:none;stroke-width:0.499999;stroke-linecap:square;stroke-linejoin:miter;stroke-dasharray:none;paint-order:stroke markers fill"
           d="m 79.352975,26.113099 1.970418,1.137622 v 6.092621 l -1.397846,-0.807048 c 0,0 0.836712,-3.826631 -0.572567,-6.423195 z"
           id="path18352"
           sodipodi:nodetypes="cccccc" />
        <path
           style="fill:#ffffff;stroke:none;stroke-width:0.499999;stroke-linecap:square;stroke-linejoin:miter;stroke-dasharray:none;paint-order:stroke markers fill"
           d="m 82.892435,24.525598 1.970418,1.137622 v 10.325954 l -1.397846,-0.807048 c 0,0 0.836712,-8.059964 -0.572567,-10.656528 z"
           id="path18354"
           sodipodi:nodetypes="cccccc" />
      </g>
      <g
         id="g18362"
         transform="translate(-2.3855294,112.51083)">
        <path
           style="fill:#000000;stroke:none;stroke-width:0.499999;stroke-linecap:square;stroke-linejoin:miter;stroke-dasharray:none;paint-order:stroke markers fill"
           d="m 78.952692,26.113099 1.970418,1.137622 v 6.092621 l -1.397846,-0.807048 c 0,0 0.836712,-3.826631 -0.572567,-6.423195 z"
           id="path18358"
           sodipodi:nodetypes="cccccc" />
        <path
           style="fill:#000000;stroke:none;stroke-width:0.499999;stroke-linecap:square;stroke-linejoin:miter;stroke-dasharray:none;paint-order:stroke markers fill"
           d="m 82.892435,24.525598 1.970418,1.137622 v 10.325954 l -1.397846,-0.807048 c 0,0 0.836712,-8.059964 -0.572567,-10.656528 z"
           id="path18360"
           sodipodi:nodetypes="cccccc" />
      </g>
      <g
         id="g18366"
         transform="translate(-4.3554009,132.67449)">
        <path
           style="fill:#000000;stroke:none;stroke-width:0.499999;stroke-linecap:square;stroke-linejoin:miter;stroke-dasharray:none;paint-order:stroke markers fill"
           d="m 82.892435,24.525598 1.970418,1.137622 v 10.325954 l -1.397846,-0.807048 c 0,0 0.836712,-8.059964 -0.572567,-10.656528 z"
           id="path18364"
           sodipodi:nodetypes="cccccc" />
      </g>
      <path
         style="fill:none;stroke:#000000;stroke-width:0.474651;stroke-linecap:square;stroke-linejoin:miter;stroke-dasharray:none;paint-order:stroke markers fill"
         d="m 68.259571,150.78472 2e-6,-16.04839 h 22.525343 v 16.04839"
         id="path18368" />
    </g>
    <g
       id="g18400"
       transform="translate(43.614947,-81.202275)">
      <rect
         style="fill:#000000;stroke:#000000;stroke-width:0.47465;stroke-linecap:square;stroke-linejoin:miter;stroke-dasharray:none;stroke-opacity:1;paint-order:stroke markers fill"
         id="rect18372"
         width="22.525343"
         height="16.048389"
         x="68.259575"
         y="114.5691" />
      <path
         style="fill:none;stroke:#000000;stroke-width:0.474651;stroke-linecap:square;stroke-linejoin:miter;stroke-dasharray:none;paint-order:stroke markers fill"
         d="m 68.259571,170.95195 2e-6,-16.04839 h 22.525343 v 16.04839"
         id="path18374" />
      <path
         style="fill:none;stroke:#000000;stroke-width:0.474651;stroke-linecap:square;stroke-linejoin:miter;stroke-dasharray:none;paint-order:stroke markers fill"
         d="m 68.259571,191.11919 2e-6,-16.04839 h 22.525343 v 16.04839"
         id="path18376" />
      <path
         style="fill:none;stroke:#000000;stroke-width:0.474651;stroke-linecap:square;stroke-linejoin:miter;stroke-dasharray:none;paint-order:stroke markers fill"
         d="m 68.259571,241.78706 2e-6,16.04839 h 22.525343 v -16.04839"
         id="path18378" />
      <g
         id="g18386"
         transform="translate(-1.0626129,92.347161)"
         style="fill:#ffffff">
        <path
           style="fill:#ffffff;stroke:none;stroke-width:0.499999;stroke-linecap:square;stroke-linejoin:miter;stroke-dasharray:none;paint-order:stroke markers fill"
           d="m 76.306859,26.642266 1.970418,1.137622 v 6.092621 l -1.397846,-0.807048 c 0,0 0.836712,-3.826631 -0.572567,-6.423195 z"
           id="path18380"
           sodipodi:nodetypes="cccccc" />
        <path
           style="fill:#ffffff;stroke:none;stroke-width:0.499999;stroke-linecap:square;stroke-linejoin:miter;stroke-dasharray:none;paint-order:stroke markers fill"
           d="m 79.352975,26.113099 1.970418,1.137622 v 6.092621 l -1.397846,-0.807048 c 0,0 0.836712,-3.826631 -0.572567,-6.423195 z"
           id="path18382"
           sodipodi:nodetypes="cccccc" />
        <path
           style="fill:#ffffff;stroke:none;stroke-width:0.499999;stroke-linecap:square;stroke-linejoin:miter;stroke-dasharray:none;paint-order:stroke markers fill"
           d="m 82.892435,24.525598 1.970418,1.137622 v 10.325954 l -1.397846,-0.807048 c 0,0 0.836712,-8.059964 -0.572567,-10.656528 z"
           id="path18384"
           sodipodi:nodetypes="cccccc" />
      </g>
      <g
         id="g18392"
         transform="translate(-2.3855294,112.51083)">
        <path
           style="fill:#000000;stroke:none;stroke-width:0.499999;stroke-linecap:square;stroke-linejoin:miter;stroke-dasharray:none;paint-order:stroke markers fill"
           d="m 78.952692,26.113099 1.970418,1.137622 v 6.092621 l -1.397846,-0.807048 c 0,0 0.836712,-3.826631 -0.572567,-6.423195 z"
           id="path18388"
           sodipodi:nodetypes="cccccc" />
        <path
           style="fill:#000000;stroke:none;stroke-width:0.499999;stroke-linecap:square;stroke-linejoin:miter;stroke-dasharray:none;paint-order:stroke markers fill"
           d="m 82.892435,24.525598 1.970418,1.137622 v 10.325954 l -1.397846,-0.807048 c 0,0 0.836712,-8.059964 -0.572567,-10.656528 z"
           id="path18390"
           sodipodi:nodetypes="cccccc" />
      </g>
      <g
         id="g18396"
         transform="translate(-4.3554009,132.67449)">
        <path
           style="fill:#000000;stroke:none;stroke-width:0.499999;stroke-linecap:square;stroke-linejoin:miter;stroke-dasharray:none;paint-order:stroke markers fill"
           d="m 82.892435,24.525598 1.970418,1.137622 v 10.325954 l -1.397846,-0.807048 c 0,0 0.836712,-8.059964 -0.572567,-10.656528 z"
           id="path18394"
           sodipodi:nodetypes="cccccc" />
      </g>
      <path
         style="fill:none;stroke:#000000;stroke-width:0.474651;stroke-linecap:square;stroke-linejoin:miter;stroke-dasharray:none;paint-order:stroke markers fill"
         d="m 68.259571,150.78472 2e-6,-16.04839 h 22.525343 v 16.04839"
         id="path18398" />
    </g>
    <g
       id="g18430"
       transform="translate(68.977754,-81.202275)">
      <rect
         style="fill:#000000;stroke:#000000;stroke-width:0.47465;stroke-linecap:square;stroke-linejoin:miter;stroke-dasharray:none;stroke-opacity:1;paint-order:stroke markers fill"
         id="rect18402"
         width="22.525343"
         height="16.048389"
         x="68.259575"
         y="114.5691" />
      <path
         style="fill:none;stroke:#000000;stroke-width:0.474651;stroke-linecap:square;stroke-linejoin:miter;stroke-dasharray:none;paint-order:stroke markers fill"
         d="m 68.259571,170.95195 2e-6,-16.04839 h 22.525343 v 16.04839"
         id="path18404" />
      <path
         style="fill:none;stroke:#000000;stroke-width:0.474651;stroke-linecap:square;stroke-linejoin:miter;stroke-dasharray:none;paint-order:stroke markers fill"
         d="m 68.259571,191.11919 2e-6,-16.04839 h 22.525343 v 16.04839"
         id="path18406" />
      <path
         style="fill:none;stroke:#000000;stroke-width:0.474651;stroke-linecap:square;stroke-linejoin:miter;stroke-dasharray:none;paint-order:stroke markers fill"
         d="m 68.259571,241.78706 2e-6,16.04839 h 22.525343 v -16.04839"
         id="path18408" />
      <g
         id="g18416"
         transform="translate(-1.0626129,92.347161)"
         style="fill:#ffffff">
        <path
           style="fill:#ffffff;stroke:none;stroke-width:0.499999;stroke-linecap:square;stroke-linejoin:miter;stroke-dasharray:none;paint-order:stroke markers fill"
           d="m 76.306859,26.642266 1.970418,1.137622 v 6.092621 l -1.397846,-0.807048 c 0,0 0.836712,-3.826631 -0.572567,-6.423195 z"
           id="path18410"
           sodipodi:nodetypes="cccccc" />
        <path
           style="fill:#ffffff;stroke:none;stroke-width:0.499999;stroke-linecap:square;stroke-linejoin:miter;stroke-dasharray:none;paint-order:stroke markers fill"
           d="m 79.352975,26.113099 1.970418,1.137622 v 6.092621 l -1.397846,-0.807048 c 0,0 0.836712,-3.826631 -0.572567,-6.423195 z"
           id="path18412"
           sodipodi:nodetypes="cccccc" />
        <path
           style="fill:#ffffff;stroke:none;stroke-width:0.499999;stroke-linecap:square;stroke-linejoin:miter;stroke-dasharray:none;paint-order:stroke markers fill"
           d="m 82.892435,24.525598 1.970418,1.137622 v 10.325954 l -1.397846,-0.807048 c 0,0 0.836712,-8.059964 -0.572567,-10.656528 z"
           id="path18414"
           sodipodi:nodetypes="cccccc" />
      </g>
      <g
         id="g18422"
         transform="translate(-2.3855294,112.51083)">
        <path
           style="fill:#000000;stroke:none;stroke-width:0.499999;stroke-linecap:square;stroke-linejoin:miter;stroke-dasharray:none;paint-order:stroke markers fill"
           d="m 78.952692,26.113099 1.970418,1.137622 v 6.092621 l -1.397846,-0.807048 c 0,0 0.836712,-3.826631 -0.572567,-6.423195 z"
           id="path18418"
           sodipodi:nodetypes="cccccc" />
        <path
           style="fill:#000000;stroke:none;stroke-width:0.499999;stroke-linecap:square;stroke-linejoin:miter;stroke-dasharray:none;paint-order:stroke markers fill"
           d="m 82.892435,24.525598 1.970418,1.137622 v 10.325954 l -1.397846,-0.807048 c 0,0 0.836712,-8.059964 -0.572567,-10.656528 z"
           id="path18420"
           sodipodi:nodetypes="cccccc" />
      </g>
      <g
         id="g18426"
         transform="translate(-4.3554009,132.67449)">
        <path
           style="fill:#000000;stroke:none;stroke-width:0.499999;stroke-linecap:square;stroke-linejoin:miter;stroke-dasharray:none;paint-order:stroke markers fill"
           d="m 82.892435,24.525598 1.970418,1.137622 v 10.325954 l -1.397846,-0.807048 c 0,0 0.836712,-8.059964 -0.572567,-10.656528 z"
           id="path18424"
           sodipodi:nodetypes="cccccc" />
      </g>
      <path
         style="fill:none;stroke:#000000;stroke-width:0.474651;stroke-linecap:square;stroke-linejoin:miter;stroke-dasharray:none;paint-order:stroke markers fill"
         d="m 68.259571,150.78472 2e-6,-16.04839 h 22.525343 v 16.04839"
         id="path18428" />
    </g>
    <g
       id="g18460"
       transform="translate(94.340564,-81.202275)">
      <rect
         style="fill:#000000;stroke:#000000;stroke-width:0.47465;stroke-linecap:square;stroke-linejoin:miter;stroke-dasharray:none;stroke-opacity:1;paint-order:stroke markers fill"
         id="rect18432"
         width="22.525343"
         height="16.048389"
         x="68.259575"
         y="114.5691" />
      <path
         style="fill:none;stroke:#000000;stroke-width:0.474651;stroke-linecap:square;stroke-linejoin:miter;stroke-dasharray:none;paint-order:stroke markers fill"
         d="m 68.259571,170.95195 2e-6,-16.04839 h 22.525343 v 16.04839"
         id="path18434" />
      <path
         style="fill:none;stroke:#000000;stroke-width:0.474651;stroke-linecap:square;stroke-linejoin:miter;stroke-dasharray:none;paint-order:stroke markers fill"
         d="m 68.259571,191.11919 2e-6,-16.04839 h 22.525343 v 16.04839"
         id="path18436" />
      <path
         style="fill:none;stroke:#000000;stroke-width:0.474651;stroke-linecap:square;stroke-linejoin:miter;stroke-dasharray:none;paint-order:stroke markers fill"
         d="m 68.259571,241.78706 2e-6,16.04839 h 22.525343 v -16.04839"
         id="path18438" />
      <g
         id="g18446"
         transform="translate(-1.0626129,92.347161)"
         style="fill:#ffffff">
        <path
           style="fill:#ffffff;stroke:none;stroke-width:0.499999;stroke-linecap:square;stroke-linejoin:miter;stroke-dasharray:none;paint-order:stroke markers fill"
           d="m 76.306859,26.642266 1.970418,1.137622 v 6.092621 l -1.397846,-0.807048 c 0,0 0.836712,-3.826631 -0.572567,-6.423195 z"
           id="path18440"
           sodipodi:nodetypes="cccccc" />
        <path
           style="fill:#ffffff;stroke:none;stroke-width:0.499999;stroke-linecap:square;stroke-linejoin:miter;stroke-dasharray:none;paint-order:stroke markers fill"
           d="m 79.352975,26.113099 1.970418,1.137622 v 6.092621 l -1.397846,-0.807048 c 0,0 0.836712,-3.826631 -0.572567,-6.423195 z"
           id="path18442"
           sodipodi:nodetypes="cccccc" />
        <path
           style="fill:#ffffff;stroke:none;stroke-width:0.499999;stroke-linecap:square;stroke-linejoin:miter;stroke-dasharray:none;paint-order:stroke markers fill"
           d="m 82.892435,24.525598 1.970418,1.137622 v 10.325954 l -1.397846,-0.807048 c 0,0 0.836712,-8.059964 -0.572567,-10.656528 z"
           id="path18444"
           sodipodi:nodetypes="cccccc" />
      </g>
      <g
         id="g18452"
         transform="translate(-2.3855294,112.51083)">
        <path
           style="fill:#000000;stroke:none;stroke-width:0.499999;stroke-linecap:square;stroke-linejoin:miter;stroke-dasharray:none;paint-order:stroke markers fill"
           d="m 78.952692,26.113099 1.970418,1.137622 v 6.092621 l -1.397846,-0.807048 c 0,0 0.836712,-3.826631 -0.572567,-6.423195 z"
           id="path18448"
           sodipodi:nodetypes="cccccc" />
        <path
           style="fill:#000000;stroke:none;stroke-width:0.499999;stroke-linecap:square;stroke-linejoin:miter;stroke-dasharray:none;paint-order:stroke markers fill"
           d="m 82.892435,24.525598 1.970418,1.137622 v 10.325954 l -1.397846,-0.807048 c 0,0 0.836712,-8.059964 -0.572567,-10.656528 z"
           id="path18450"
           sodipodi:nodetypes="cccccc" />
      </g>
      <g
         id="g18456"
         transform="translate(-4.3554009,132.67449)">
        <path
           style="fill:#000000;stroke:none;stroke-width:0.499999;stroke-linecap:square;stroke-linejoin:miter;stroke-dasharray:none;paint-order:stroke markers fill"
           d="m 82.892435,24.525598 1.970418,1.137622 v 10.325954 l -1.397846,-0.807048 c 0,0 0.836712,-8.059964 -0.572567,-10.656528 z"
           id="path18454"
           sodipodi:nodetypes="cccccc" />
      </g>
      <path
         style="fill:none;stroke:#000000;stroke-width:0.474651;stroke-linecap:square;stroke-linejoin:miter;stroke-dasharray:none;paint-order:stroke markers fill"
         d="m 68.259571,150.78472 2e-6,-16.04839 h 22.525343 v 16.04839"
         id="path18458" />
    </g>
    <g
       id="g18490"
       transform="translate(119.70337,-81.202275)">
      <rect
         style="fill:#000000;stroke:#000000;stroke-width:0.47465;stroke-linecap:square;stroke-linejoin:miter;stroke-dasharray:none;stroke-opacity:1;paint-order:stroke markers fill"
         id="rect18462"
         width="22.525343"
         height="16.048389"
         x="68.259575"
         y="114.5691" />
      <path
         style="fill:none;stroke:#000000;stroke-width:0.474651;stroke-linecap:square;stroke-linejoin:miter;stroke-dasharray:none;paint-order:stroke markers fill"
         d="m 68.259571,170.95195 2e-6,-16.04839 h 22.525343 v 16.04839"
         id="path18464" />
      <path
         style="fill:none;stroke:#000000;stroke-width:0.474651;stroke-linecap:square;stroke-linejoin:miter;stroke-dasharray:none;paint-order:stroke markers fill"
         d="m 68.259571,191.11919 2e-6,-16.04839 h 22.525343 v 16.04839"
         id="path18466" />
      <path
         style="fill:none;stroke:#000000;stroke-width:0.474651;stroke-linecap:square;stroke-linejoin:miter;stroke-dasharray:none;paint-order:stroke markers fill"
         d="m 68.259571,241.78706 2e-6,16.04839 h 22.525343 v -16.04839"
         id="path18468" />
      <g
         id="g18476"
         transform="translate(-1.0626129,92.347161)"
         style="fill:#ffffff">
        <path
           style="fill:#ffffff;stroke:none;stroke-width:0.499999;stroke-linecap:square;stroke-linejoin:miter;stroke-dasharray:none;paint-order:stroke markers fill"
           d="m 76.306859,26.642266 1.970418,1.137622 v 6.092621 l -1.397846,-0.807048 c 0,0 0.836712,-3.826631 -0.572567,-6.423195 z"
           id="path18470"
           sodipodi:nodetypes="cccccc" />
        <path
           style="fill:#ffffff;stroke:none;stroke-width:0.499999;stroke-linecap:square;stroke-linejoin:miter;stroke-dasharray:none;paint-order:stroke markers fill"
           d="m 79.352975,26.113099 1.970418,1.137622 v 6.092621 l -1.397846,-0.807048 c 0,0 0.836712,-3.826631 -0.572567,-6.423195 z"
           id="path18472"
           sodipodi:nodetypes="cccccc" />
        <path
           style="fill:#ffffff;stroke:none;stroke-width:0.499999;stroke-linecap:square;stroke-linejoin:miter;stroke-dasharray:none;paint-order:stroke markers fill"
           d="m 82.892435,24.525598 1.970418,1.137622 v 10.325954 l -1.397846,-0.807048 c 0,0 0.836712,-8.059964 -0.572567,-10.656528 z"
           id="path18474"
           sodipodi:nodetypes="cccccc" />
      </g>
      <g
         id="g18482"
         transform="translate(-2.3855294,112.51083)">
        <path
           style="fill:#000000;stroke:none;stroke-width:0.499999;stroke-linecap:square;stroke-linejoin:miter;stroke-dasharray:none;paint-order:stroke markers fill"
           d="m 78.952692,26.113099 1.970418,1.137622 v 6.092621 l -1.397846,-0.807048 c 0,0 0.836712,-3.826631 -0.572567,-6.423195 z"
           id="path18478"
           sodipodi:nodetypes="cccccc" />
        <path
           style="fill:#000000;stroke:none;stroke-width:0.499999;stroke-linecap:square;stroke-linejoin:miter;stroke-dasharray:none;paint-order:stroke markers fill"
           d="m 82.892435,24.525598 1.970418,1.137622 v 10.325954 l -1.397846,-0.807048 c 0,0 0.836712,-8.059964 -0.572567,-10.656528 z"
           id="path18480"
           sodipodi:nodetypes="cccccc" />
      </g>
      <g
         id="g18486"
         transform="translate(-4.3554009,132.67449)">
        <path
           style="fill:#000000;stroke:none;stroke-width:0.499999;stroke-linecap:square;stroke-linejoin:miter;stroke-dasharray:none;paint-order:stroke markers fill"
           d="m 82.892435,24.525598 1.970418,1.137622 v 10.325954 l -1.397846,-0.807048 c 0,0 0.836712,-8.059964 -0.572567,-10.656528 z"
           id="path18484"
           sodipodi:nodetypes="cccccc" />
      </g>
      <path
         style="fill:none;stroke:#000000;stroke-width:0.474651;stroke-linecap:square;stroke-linejoin:miter;stroke-dasharray:none;paint-order:stroke markers fill"
         d="m 68.259571,150.78472 2e-6,-16.04839 h 22.525343 v 16.04839"
         id="path18488" />
    </g>
    <g
       id="g18520"
       transform="translate(145.06618,-81.202275)">
      <rect
         style="fill:#000000;stroke:#000000;stroke-width:0.47465;stroke-linecap:square;stroke-linejoin:miter;stroke-dasharray:none;stroke-opacity:1;paint-order:stroke markers fill"
         id="rect18492"
         width="22.525343"
         height="16.048389"
         x="68.259575"
         y="114.5691" />
      <path
         style="fill:none;stroke:#000000;stroke-width:0.474651;stroke-linecap:square;stroke-linejoin:miter;stroke-dasharray:none;paint-order:stroke markers fill"
         d="m 68.259571,170.95195 2e-6,-16.04839 h 22.525343 v 16.04839"
         id="path18494" />
      <path
         style="fill:none;stroke:#000000;stroke-width:0.474651;stroke-linecap:square;stroke-linejoin:miter;stroke-dasharray:none;paint-order:stroke markers fill"
         d="m 68.259571,191.11919 2e-6,-16.04839 h 22.525343 v 16.04839"
         id="path18496" />
      <path
         style="fill:none;stroke:#000000;stroke-width:0.474651;stroke-linecap:square;stroke-linejoin:miter;stroke-dasharray:none;paint-order:stroke markers fill"
         d="m 68.259571,241.78706 2e-6,16.04839 h 22.525343 v -16.04839"
         id="path18498" />
      <g
         id="g18506"
         transform="translate(-1.0626129,92.347161)"
         style="fill:#ffffff">
        <path
           style="fill:#ffffff;stroke:none;stroke-width:0.499999;stroke-linecap:square;stroke-linejoin:miter;stroke-dasharray:none;paint-order:stroke markers fill"
           d="m 76.306859,26.642266 1.970418,1.137622 v 6.092621 l -1.397846,-0.807048 c 0,0 0.836712,-3.826631 -0.572567,-6.423195 z"
           id="path18500"
           sodipodi:nodetypes="cccccc" />
        <path
           style="fill:#ffffff;stroke:none;stroke-width:0.499999;stroke-linecap:square;stroke-linejoin:miter;stroke-dasharray:none;paint-order:stroke markers fill"
           d="m 79.352975,26.113099 1.970418,1.137622 v 6.092621 l -1.397846,-0.807048 c 0,0 0.836712,-3.826631 -0.572567,-6.423195 z"
           id="path18502"
           sodipodi:nodetypes="cccccc" />
        <path
           style="fill:#ffffff;stroke:none;stroke-width:0.499999;stroke-linecap:square;stroke-linejoin:miter;stroke-dasharray:none;paint-order:stroke markers fill"
           d="m 82.892435,24.525598 1.970418,1.137622 v 10.325954 l -1.397846,-0.807048 c 0,0 0.836712,-8.059964 -0.572567,-10.656528 z"
           id="path18504"
           sodipodi:nodetypes="cccccc" />
      </g>
      <g
         id="g18512"
         transform="translate(-2.3855294,112.51083)">
        <path
           style="fill:#000000;stroke:none;stroke-width:0.499999;stroke-linecap:square;stroke-linejoin:miter;stroke-dasharray:none;paint-order:stroke markers fill"
           d="m 78.952692,26.113099 1.970418,1.137622 v 6.092621 l -1.397846,-0.807048 c 0,0 0.836712,-3.826631 -0.572567,-6.423195 z"
           id="path18508"
           sodipodi:nodetypes="cccccc" />
        <path
           style="fill:#000000;stroke:none;stroke-width:0.499999;stroke-linecap:square;stroke-linejoin:miter;stroke-dasharray:none;paint-order:stroke markers fill"
           d="m 82.892435,24.525598 1.970418,1.137622 v 10.325954 l -1.397846,-0.807048 c 0,0 0.836712,-8.059964 -0.572567,-10.656528 z"
           id="path18510"
           sodipodi:nodetypes="cccccc" />
      </g>
      <g
         id="g18516"
         transform="translate(-4.3554009,132.67449)">
        <path
           style="fill:#000000;stroke:none;stroke-width:0.499999;stroke-linecap:square;stroke-linejoin:miter;stroke-dasharray:none;paint-order:stroke markers fill"
           d="m 82.892435,24.525598 1.970418,1.137622 v 10.325954 l -1.397846,-0.807048 c 0,0 0.836712,-8.059964 -0.572567,-10.656528 z"
           id="path18514"
           sodipodi:nodetypes="cccccc" />
      </g>
      <path
         style="fill:none;stroke:#000000;stroke-width:0.474651;stroke-linecap:square;stroke-linejoin:miter;stroke-dasharray:none;paint-order:stroke markers fill"
         d="m 68.259571,150.78472 2e-6,-16.04839 h 22.525343 v 16.04839"
         id="path18518" />
    </g>
    <g
       id="g18550"
       transform="translate(170.42899,-81.202275)">
      <rect
         style="fill:#000000;stroke:#000000;stroke-width:0.47465;stroke-linecap:square;stroke-linejoin:miter;stroke-dasharray:none;stroke-opacity:1;paint-order:stroke markers fill"
         id="rect18522"
         width="22.525343"
         height="16.048389"
         x="68.259575"
         y="114.5691" />
      <path
         style="fill:none;stroke:#000000;stroke-width:0.474651;stroke-linecap:square;stroke-linejoin:miter;stroke-dasharray:none;paint-order:stroke markers fill"
         d="m 68.259571,170.95195 2e-6,-16.04839 h 22.525343 v 16.04839"
         id="path18524" />
      <path
         style="fill:none;stroke:#000000;stroke-width:0.474651;stroke-linecap:square;stroke-linejoin:miter;stroke-dasharray:none;paint-order:stroke markers fill"
         d="m 68.259571,191.11919 2e-6,-16.04839 h 22.525343 v 16.04839"
         id="path18526" />
      <path
         style="fill:none;stroke:#000000;stroke-width:0.474651;stroke-linecap:square;stroke-linejoin:miter;stroke-dasharray:none;paint-order:stroke markers fill"
         d="m 68.259571,241.78706 2e-6,16.04839 h 22.525343 v -16.04839"
         id="path18528" />
      <g
         id="g18536"
         transform="translate(-1.0626129,92.347161)"
         style="fill:#ffffff">
        <path
           style="fill:#ffffff;stroke:none;stroke-width:0.499999;stroke-linecap:square;stroke-linejoin:miter;stroke-dasharray:none;paint-order:stroke markers fill"
           d="m 76.306859,26.642266 1.970418,1.137622 v 6.092621 l -1.397846,-0.807048 c 0,0 0.836712,-3.826631 -0.572567,-6.423195 z"
           id="path18530"
           sodipodi:nodetypes="cccccc" />
        <path
           style="fill:#ffffff;stroke:none;stroke-width:0.499999;stroke-linecap:square;stroke-linejoin:miter;stroke-dasharray:none;paint-order:stroke markers fill"
           d="m 79.352975,26.113099 1.970418,1.137622 v 6.092621 l -1.397846,-0.807048 c 0,0 0.836712,-3.826631 -0.572567,-6.423195 z"
           id="path18532"
           sodipodi:nodetypes="cccccc" />
        <path
           style="fill:#ffffff;stroke:none;stroke-width:0.499999;stroke-linecap:square;stroke-linejoin:miter;stroke-dasharray:none;paint-order:stroke markers fill"
           d="m 82.892435,24.525598 1.970418,1.137622 v 10.325954 l -1.397846,-0.807048 c 0,0 0.836712,-8.059964 -0.572567,-10.656528 z"
           id="path18534"
           sodipodi:nodetypes="cccccc" />
      </g>
      <g
         id="g18542"
         transform="translate(-2.3855294,112.51083)">
        <path
           style="fill:#000000;stroke:none;stroke-width:0.499999;stroke-linecap:square;stroke-linejoin:miter;stroke-dasharray:none;paint-order:stroke markers fill"
           d="m 78.952692,26.113099 1.970418,1.137622 v 6.092621 l -1.397846,-0.807048 c 0,0 0.836712,-3.826631 -0.572567,-6.423195 z"
           id="path18538"
           sodipodi:nodetypes="cccccc" />
        <path
           style="fill:#000000;stroke:none;stroke-width:0.499999;stroke-linecap:square;stroke-linejoin:miter;stroke-dasharray:none;paint-order:stroke markers fill"
           d="m 82.892435,24.525598 1.970418,1.137622 v 10.325954 l -1.397846,-0.807048 c 0,0 0.836712,-8.059964 -0.572567,-10.656528 z"
           id="path18540"
           sodipodi:nodetypes="cccccc" />
      </g>
      <g
         id="g18546"
         transform="translate(-4.3554009,132.67449)">
        <path
           style="fill:#000000;stroke:none;stroke-width:0.499999;stroke-linecap:square;stroke-linejoin:miter;stroke-dasharray:none;paint-order:stroke markers fill"
           d="m 82.892435,24.525598 1.970418,1.137622 v 10.325954 l -1.397846,-0.807048 c 0,0 0.836712,-8.059964 -0.572567,-10.656528 z"
           id="path18544"
           sodipodi:nodetypes="cccccc" />
      </g>
      <path
         style="fill:none;stroke:#000000;stroke-width:0.474651;stroke-linecap:square;stroke-linejoin:miter;stroke-dasharray:none;paint-order:stroke markers fill"
         d="m 68.259571,150.78472 2e-6,-16.04839 h 22.525343 v 16.04839"
         id="path18548" />
    </g>
    <text
       xml:space="preserve"
       style="font-style:normal;font-variant:normal;font-weight:bold;font-stretch:normal;font-size:4.23333px;line-height:1;font-family:linzklar_rounded;-inkscape-font-specification:'linzklar_rounded Bold';text-align:justify;fill:#000000;stroke:none;stroke-width:0.499999;stroke-linecap:square;stroke-linejoin:miter;stroke-dasharray:none;stroke-opacity:1;paint-order:stroke markers fill"
       x="286.98495"
       y="44.488228"
       id="text18606"><tspan
         sodipodi:role="line"
         style="font-style:normal;font-variant:normal;font-weight:bold;font-stretch:normal;font-family:linzklar_rounded;-inkscape-font-specification:'linzklar_rounded Bold';stroke:none;stroke-width:0.5"
         x="286.98495"
         y="44.488228"
         id="tspan18628" /></text>
  </g>
</svg>
