<?xml version="1.0" encoding="UTF-8" standalone="no"?>
<!-- Created with Inkscape (http://www.inkscape.org/) -->

<svg
   width="210mm"
   height="297mm"
   viewBox="0 0 210 297"
   version="1.1"
   id="svg11852"
   inkscape:version="1.2.1 (9c6d41e410, 2022-07-14)"
   sodipodi:docname="教育机戦盤.svg"
   xml:space="preserve"
   xmlns:inkscape="http://www.inkscape.org/namespaces/inkscape"
   xmlns:sodipodi="http://sodipodi.sourceforge.net/DTD/sodipodi-0.dtd"
   xmlns="http://www.w3.org/2000/svg"
   xmlns:svg="http://www.w3.org/2000/svg"><sodipodi:namedview
     id="namedview11854"
     pagecolor="#ffffff"
     bordercolor="#000000"
     borderopacity="0.25"
     inkscape:showpageshadow="2"
     inkscape:pageopacity="0.0"
     inkscape:pagecheckerboard="0"
     inkscape:deskcolor="#d1d1d1"
     inkscape:document-units="mm"
     showgrid="false"
     inkscape:zoom="0.5946522"
     inkscape:cx="454.04692"
     inkscape:cy="723.95259"
     inkscape:window-width="1920"
     inkscape:window-height="1191"
     inkscape:window-x="-9"
     inkscape:window-y="-9"
     inkscape:window-maximized="1"
     inkscape:current-layer="layer1"
     showguides="true"><sodipodi:guide
       position="-325.09622,194.18011"
       orientation="1,0"
       id="guide4783"
       inkscape:locked="false" /></sodipodi:namedview><defs
     id="defs11849"><clipPath
       clipPathUnits="userSpaceOnUse"
       id="clipPath10822"><path
         d="M 0,0 H 596 V 842 H 0 Z"
         id="path10820" /></clipPath><clipPath
       clipPathUnits="userSpaceOnUse"
       id="clipPath10726"><path
         d="M 0,0 H 596 V 842 H 0 Z"
         id="path10724" /></clipPath><clipPath
       clipPathUnits="userSpaceOnUse"
       id="clipPath10742"><path
         d="M 0,0 H 596 V 842 H 0 Z"
         id="path10740" /></clipPath><clipPath
       clipPathUnits="userSpaceOnUse"
       id="clipPath10774"><path
         d="M 0,0 H 596 V 842 H 0 Z"
         id="path10772" /></clipPath><clipPath
       clipPathUnits="userSpaceOnUse"
       id="clipPath10790"><path
         d="M 0,0 H 596 V 842 H 0 Z"
         id="path10788" /></clipPath><clipPath
       clipPathUnits="userSpaceOnUse"
       id="clipPath10758"><path
         d="M 0,0 H 596 V 842 H 0 Z"
         id="path10756" /></clipPath><clipPath
       clipPathUnits="userSpaceOnUse"
       id="clipPath10710"><path
         d="M 0,0 H 596 V 842 H 0 Z"
         id="path10708" /></clipPath><clipPath
       clipPathUnits="userSpaceOnUse"
       id="clipPath10806"><path
         d="M 0,0 H 596 V 842 H 0 Z"
         id="path10804" /></clipPath><clipPath
       clipPathUnits="userSpaceOnUse"
       id="clipPath10662"><path
         d="M 0,0 H 596 V 842 H 0 Z"
         id="path10660" /></clipPath><clipPath
       clipPathUnits="userSpaceOnUse"
       id="clipPath10694"><path
         d="M 0,0 H 596 V 842 H 0 Z"
         id="path10692" /></clipPath><clipPath
       clipPathUnits="userSpaceOnUse"
       id="clipPath10534"><path
         d="M 0,0 H 596 V 842 H 0 Z"
         id="path10532" /></clipPath><clipPath
       clipPathUnits="userSpaceOnUse"
       id="clipPath10582"><path
         d="M 0,0 H 596 V 842 H 0 Z"
         id="path10580" /></clipPath><clipPath
       clipPathUnits="userSpaceOnUse"
       id="clipPath10614"><path
         d="M 0,0 H 596 V 842 H 0 Z"
         id="path10612" /></clipPath><clipPath
       clipPathUnits="userSpaceOnUse"
       id="clipPath10678"><path
         d="M 0,0 H 596 V 842 H 0 Z"
         id="path10676" /></clipPath><clipPath
       clipPathUnits="userSpaceOnUse"
       id="clipPath10646"><path
         d="M 0,0 H 596 V 842 H 0 Z"
         id="path10644" /></clipPath><clipPath
       clipPathUnits="userSpaceOnUse"
       id="clipPath10630"><path
         d="M 0,0 H 596 V 842 H 0 Z"
         id="path10628" /></clipPath><clipPath
       clipPathUnits="userSpaceOnUse"
       id="clipPath10598"><path
         d="M 0,0 H 596 V 842 H 0 Z"
         id="path10596" /></clipPath><clipPath
       clipPathUnits="userSpaceOnUse"
       id="clipPath10550"><path
         d="M 0,0 H 596 V 842 H 0 Z"
         id="path10548" /></clipPath><clipPath
       clipPathUnits="userSpaceOnUse"
       id="clipPath10566"><path
         d="M 0,0 H 596 V 842 H 0 Z"
         id="path10564" /></clipPath><clipPath
       clipPathUnits="userSpaceOnUse"
       id="clipPath10518"><path
         d="M 0,0 H 596 V 842 H 0 Z"
         id="path10516" /></clipPath><clipPath
       clipPathUnits="userSpaceOnUse"
       id="clipPath10502"><path
         d="M 0,0 H 596 V 842 H 0 Z"
         id="path10500" /></clipPath></defs><g
     inkscape:label="Layer 1"
     inkscape:groupmode="layer"
     id="layer1"><path
       d="M 75.456824,235.12074 H 129.1388 v 20.39969 H 75.456824 Z"
       style="fill:#e6e6e6;fill-opacity:1;fill-rule:nonzero;stroke:none;stroke-width:0.352778"
       id="path10350" /><path
       d="M 71.156594,63.868505 H 96.246585 V 87.924101 H 71.156594 Z"
       style="fill:none;stroke:#000000;stroke-width:0.554934;stroke-linecap:round;stroke-linejoin:bevel;stroke-miterlimit:4;stroke-dasharray:none;stroke-opacity:1"
       id="path10358" /><path
       d="M 96.246585,63.868505 H 121.33491 V 87.924101 H 96.246585 Z"
       style="fill:none;stroke:#000000;stroke-width:0.554934;stroke-linecap:round;stroke-linejoin:bevel;stroke-miterlimit:4;stroke-dasharray:none;stroke-opacity:1"
       id="path10362" /><path
       d="m 121.33491,63.868505 h 25.08998 v 24.055596 h -25.08998 z"
       style="fill:none;stroke:#000000;stroke-width:0.554934;stroke-linecap:round;stroke-linejoin:bevel;stroke-miterlimit:4;stroke-dasharray:none;stroke-opacity:1"
       id="path10366" /><path
       d="m 146.42489,63.868505 h 25.08833 v 24.055596 h -25.08833 z"
       style="fill:none;stroke:#000000;stroke-width:0.554934;stroke-linecap:round;stroke-linejoin:bevel;stroke-miterlimit:4;stroke-dasharray:none;stroke-opacity:1"
       id="path10370" /><path
       d="m 171.51322,63.868505 h 25.08999 v 24.055596 h -25.08999 z"
       style="fill:none;stroke:#000000;stroke-width:0.554934;stroke-linecap:round;stroke-linejoin:bevel;stroke-miterlimit:4;stroke-dasharray:none;stroke-opacity:1"
       id="path10374" /><path
       d="M 71.156594,87.924101 H 96.246585 V 111.9814 H 71.156594 Z"
       style="fill:none;stroke:#000000;stroke-width:0.554934;stroke-linecap:round;stroke-linejoin:bevel;stroke-miterlimit:4;stroke-dasharray:none;stroke-opacity:1"
       id="path10378" /><path
       d="M 96.246585,87.924101 H 121.33491 V 111.9814 H 96.246585 Z"
       style="fill:none;stroke:#000000;stroke-width:0.554934;stroke-linecap:round;stroke-linejoin:bevel;stroke-miterlimit:4;stroke-dasharray:none;stroke-opacity:1"
       id="path10382" /><path
       d="m 121.33491,87.924101 h 25.08998 V 111.9814 h -25.08998 z"
       style="fill:none;stroke:#000000;stroke-width:0.554934;stroke-linecap:round;stroke-linejoin:bevel;stroke-miterlimit:4;stroke-dasharray:none;stroke-opacity:1"
       id="path10386" /><path
       d="m 146.42489,87.924101 h 25.08833 V 111.9814 h -25.08833 z"
       style="fill:none;stroke:#000000;stroke-width:0.554934;stroke-linecap:round;stroke-linejoin:bevel;stroke-miterlimit:4;stroke-dasharray:none;stroke-opacity:1"
       id="path10390" /><path
       d="m 171.51322,87.924101 h 25.08999 V 111.9814 h -25.08999 z"
       style="fill:none;stroke:#000000;stroke-width:0.554934;stroke-linecap:round;stroke-linejoin:bevel;stroke-miterlimit:4;stroke-dasharray:none;stroke-opacity:1"
       id="path10394" /><path
       d="m 71.156594,111.9814 h 25.089991 v 24.0573 H 71.156594 Z"
       style="fill:none;stroke:#000000;stroke-width:0.554934;stroke-linecap:round;stroke-linejoin:bevel;stroke-miterlimit:4;stroke-dasharray:none;stroke-opacity:1"
       id="path10398" /><path
       d="m 96.246585,111.9814 h 25.088325 v 24.0573 H 96.246585 Z"
       style="fill:none;stroke:#000000;stroke-width:0.554934;stroke-linecap:round;stroke-linejoin:bevel;stroke-miterlimit:4;stroke-dasharray:none;stroke-opacity:1"
       id="path10402" /><path
       d="m 121.33491,111.9814 h 25.08998 v 24.0573 h -25.08998 z"
       style="fill:none;stroke:#000000;stroke-width:0.554934;stroke-linecap:round;stroke-linejoin:bevel;stroke-miterlimit:4;stroke-dasharray:none;stroke-opacity:1"
       id="path10406" /><path
       d="m 146.42489,111.9814 h 25.08833 v 24.0573 h -25.08833 z"
       style="fill:none;stroke:#000000;stroke-width:0.554934;stroke-linecap:round;stroke-linejoin:bevel;stroke-miterlimit:4;stroke-dasharray:none;stroke-opacity:1"
       id="path10410" /><path
       d="m 171.51322,111.9814 h 25.08999 v 24.0573 h -25.08999 z"
       style="fill:none;stroke:#000000;stroke-width:0.554934;stroke-linecap:round;stroke-linejoin:bevel;stroke-miterlimit:4;stroke-dasharray:none;stroke-opacity:1"
       id="path10414" /><path
       d="m 71.156594,136.01246 h 25.089991 v 24.0556 H 71.156594 Z"
       style="fill:#87aade;fill-opacity:1;fill-rule:nonzero;stroke:#000000;stroke-width:0.555001;stroke-linecap:round;stroke-linejoin:bevel;stroke-miterlimit:4;stroke-dasharray:none;stroke-opacity:1"
       id="path10418" /><path
       d="m 96.246585,136.01246 h 25.088325 v 24.0556 H 96.246585 Z"
       style="fill:#87aade;fill-opacity:1;fill-rule:nonzero;stroke:#000000;stroke-width:0.555001;stroke-linecap:round;stroke-linejoin:bevel;stroke-miterlimit:4;stroke-dasharray:none;stroke-opacity:1"
       id="path10422" /><path
       d="m 121.33491,136.01246 h 25.08998 v 24.0556 h -25.08998 z"
       style="fill:#005242;fill-opacity:1;fill-rule:nonzero;stroke:#000000;stroke-width:0.555001;stroke-linecap:round;stroke-linejoin:bevel;stroke-miterlimit:4;stroke-dasharray:none;stroke-opacity:1"
       id="path10426" /><path
       d="m 146.42489,136.01246 h 25.08833 v 24.0556 h -25.08833 z"
       style="fill:#87aade;fill-opacity:1;fill-rule:nonzero;stroke:#000000;stroke-width:0.555001;stroke-linecap:round;stroke-linejoin:bevel;stroke-miterlimit:4;stroke-dasharray:none;stroke-opacity:1"
       id="path10430" /><path
       d="m 171.51322,136.01246 h 25.08999 v 24.0556 h -25.08999 z"
       style="fill:#87aade;fill-opacity:1;fill-rule:nonzero;stroke:#000000;stroke-width:0.555001;stroke-linecap:round;stroke-linejoin:bevel;stroke-miterlimit:4;stroke-dasharray:none;stroke-opacity:1"
       id="path10434" /><path
       d="m 71.156594,160.06806 h 25.089991 v 24.0573 H 71.156594 Z"
       style="fill:none;stroke:#000000;stroke-width:0.554934;stroke-linecap:round;stroke-linejoin:bevel;stroke-miterlimit:4;stroke-dasharray:none;stroke-opacity:1"
       id="path10438" /><path
       d="m 96.246585,160.06806 h 25.088325 v 24.0573 H 96.246585 Z"
       style="fill:none;stroke:#000000;stroke-width:0.554934;stroke-linecap:round;stroke-linejoin:bevel;stroke-miterlimit:4;stroke-dasharray:none;stroke-opacity:1"
       id="path10442" /><path
       d="m 121.33491,160.06806 h 25.08998 v 24.0573 h -25.08998 z"
       style="fill:none;stroke:#000000;stroke-width:0.554934;stroke-linecap:round;stroke-linejoin:bevel;stroke-miterlimit:4;stroke-dasharray:none;stroke-opacity:1"
       id="path10446" /><path
       d="m 146.42489,160.06806 h 25.08833 v 24.0573 h -25.08833 z"
       style="fill:none;stroke:#000000;stroke-width:0.554934;stroke-linecap:round;stroke-linejoin:bevel;stroke-miterlimit:4;stroke-dasharray:none;stroke-opacity:1"
       id="path10450" /><path
       d="m 171.51322,160.06806 h 25.08999 v 24.0573 h -25.08999 z"
       style="fill:none;stroke:#000000;stroke-width:0.554934;stroke-linecap:round;stroke-linejoin:bevel;stroke-miterlimit:4;stroke-dasharray:none;stroke-opacity:1"
       id="path10454" /><path
       d="m 71.156594,184.12536 h 25.089991 v 24.05728 H 71.156594 Z"
       style="fill:none;stroke:#000000;stroke-width:0.554934;stroke-linecap:round;stroke-linejoin:bevel;stroke-miterlimit:4;stroke-dasharray:none;stroke-opacity:1"
       id="path10458" /><path
       d="m 96.246585,184.12536 h 25.088325 v 24.05728 H 96.246585 Z"
       style="fill:none;stroke:#000000;stroke-width:0.554934;stroke-linecap:round;stroke-linejoin:bevel;stroke-miterlimit:4;stroke-dasharray:none;stroke-opacity:1"
       id="path10462" /><path
       d="m 121.33491,184.12536 h 25.08998 v 24.05728 h -25.08998 z"
       style="fill:none;stroke:#000000;stroke-width:0.554934;stroke-linecap:round;stroke-linejoin:bevel;stroke-miterlimit:4;stroke-dasharray:none;stroke-opacity:1"
       id="path10466" /><path
       d="m 146.42489,184.12536 h 25.08833 v 24.05728 h -25.08833 z"
       style="fill:none;stroke:#000000;stroke-width:0.554934;stroke-linecap:round;stroke-linejoin:bevel;stroke-miterlimit:4;stroke-dasharray:none;stroke-opacity:1"
       id="path10470" /><path
       d="m 171.51322,184.12536 h 25.08999 v 24.05728 h -25.08999 z"
       style="fill:none;stroke:#000000;stroke-width:0.554934;stroke-linecap:round;stroke-linejoin:bevel;stroke-miterlimit:4;stroke-dasharray:none;stroke-opacity:1"
       id="path10474" /><path
       d="m 71.156594,208.18264 h 25.089991 v 24.05561 H 71.156594 Z"
       style="fill:none;stroke:#000000;stroke-width:0.554934;stroke-linecap:round;stroke-linejoin:bevel;stroke-miterlimit:4;stroke-dasharray:none;stroke-opacity:1"
       id="path10478" /><path
       d="m 96.246585,208.18264 h 25.088325 v 24.05561 H 96.246585 Z"
       style="fill:none;stroke:#000000;stroke-width:0.554934;stroke-linecap:round;stroke-linejoin:bevel;stroke-miterlimit:4;stroke-dasharray:none;stroke-opacity:1"
       id="path10482" /><path
       d="m 121.33491,208.18264 h 25.08998 v 24.05561 h -25.08998 z"
       style="fill:none;stroke:#000000;stroke-width:0.554934;stroke-linecap:round;stroke-linejoin:bevel;stroke-miterlimit:4;stroke-dasharray:none;stroke-opacity:1"
       id="path10486" /><path
       d="m 146.42489,208.18264 h 25.08833 v 24.05561 h -25.08833 z"
       style="fill:none;stroke:#000000;stroke-width:0.554934;stroke-linecap:round;stroke-linejoin:bevel;stroke-miterlimit:4;stroke-dasharray:none;stroke-opacity:1"
       id="path10490" /><path
       d="m 171.51322,208.18264 h 25.08999 v 24.05561 h -25.08999 z"
       style="fill:none;stroke:#000000;stroke-width:0.554934;stroke-linecap:round;stroke-linejoin:bevel;stroke-miterlimit:4;stroke-dasharray:none;stroke-opacity:1"
       id="path10494" /><g
       clip-path="url(#clipPath10502)"
       opacity="0.454395"
       id="g10508"
       transform="matrix(0.42371017,0,0,0.42333525,7.3585542,-28.951139)"
       style="stroke-width:0.832961"><g
         id="g10506"
         style="stroke-width:0.832961"><path
           d="m 304.848,508.711 c 0.703,5.019 0.902,10.117 0.847,14.742 -5.156,1.82 -10.433,3.133 -15.746,4.215 l -1.105,-6.668 -8.758,-3.789 c 2.027,2.203 3.766,6.93 5.07,11.375 -3.609,0.66 -7.226,1.258 -10.824,1.875 1.203,1.301 1.879,2.258 3.781,4.707 2.789,-0.781 5.551,-1.504 8.25,-2.18 0.782,3.16 1.223,5.489 1.223,5.489 l 3.262,1.445 -3.864,1.246 -0.257,1.609 3.191,-0.363 c -4.984,7.914 -11.531,11.496 -11.531,11.496 l 0.617,0.86 c 2.711,0.082 16.254,-8.868 16.254,-8.868 l -4.504,-3.586 13.594,-1.554 c 0,0.023 -0.043,0.316 -0.043,0.316 0.058,-0.105 0.113,-0.223 0.172,-0.328 l 5.3,-0.609 -3.465,-3.278 c 1.184,-2.855 2.145,-5.914 2.922,-8.82 8.282,-1.531 13.641,-2.242 13.641,-2.242 l -7.34,-6.598 c -1.57,0.824 -3.16,1.574 -4.765,2.266 0.742,-3.668 1.089,-6.246 1.089,-6.246 0,0 -2.5,-2.934 -7.007,-6.512 z m 0.675,20.051 c -0.14,2.636 -0.335,4.926 -0.535,6.847 l -0.195,-0.183 -12.871,4.148 -1.266,-7.633 c 5.43,-1.281 10.403,-2.316 14.864,-3.179 z m -0.636,14.312 c -0.16,0 -0.321,0 -0.465,0.012 0,0 7.383,4.832 11.074,11.207 3.289,-1.746 6.445,-2.887 6.445,-2.887 0,0 -11.988,-8.187 -17.054,-8.332 z"
           style="fill:#000000;fill-opacity:1;fill-rule:nonzero;stroke:none;stroke-width:0.832961"
           id="path10504" /></g></g><g
       clip-path="url(#clipPath10518)"
       opacity="0.454395"
       id="g10524"
       transform="matrix(0.42371017,0,0,0.42333525,7.3585542,-28.951139)"
       style="stroke-width:0.832961"><g
         id="g10522"
         style="stroke-width:0.832961"><path
           d="m 178.027,566.02 c 0.496,4.582 0.633,8.66 0.5,12.335 -5.222,2.012 -10.078,3.809 -10.078,3.809 l 1.16,1.309 8.743,-2.071 c -0.301,3.653 -0.879,6.86 -1.684,9.641 l -2.242,0.766 0.105,1.023 1.602,-0.117 c -5.664,16.648 -19.176,17.32 -19.176,17.32 l 0.359,1.078 c 12.489,-1.793 19.399,-10.051 23.223,-18.718 l 14.41,-1.047 -3.308,-2.93 5.543,-11.473 c 0,0 -2.766,-2.449 -5.25,-4.273 -0.45,0.449 -3.43,1.73 -7.067,3.195 0.434,-3.652 0.418,-6.07 0.418,-6.07 z m 13.071,12.363 -1.41,8.308 -0.075,-0.066 -7.84,2.676 c 1.176,-3.258 1.934,-6.438 2.454,-9.289 z m -26.782,1.012 c -0.781,0.199 -0.359,0.101 -0.781,0.199 5.719,10.676 6.231,17.203 6.231,17.203 l 3.781,-3.309 c 0,0 -5.098,-11.32 -9.231,-14.093 z m 18.571,13.589 c 0,0 10.336,9.411 16.562,17.211 2.235,-2.351 4.563,-5.152 4.563,-5.152 0,0 -10.055,-8.125 -21.125,-12.059 z"
           style="fill:#000000;fill-opacity:1;fill-rule:nonzero;stroke:none;stroke-width:0.832961"
           id="path10520" /></g></g><g
       clip-path="url(#clipPath10534)"
       opacity="0.454395"
       id="g10540"
       transform="matrix(0.42371017,0,0,0.42333525,7.3585542,-28.951139)"
       style="stroke-width:0.832961"><g
         id="g10538"
         style="stroke-width:0.832961"><path
           d="m 363.254,568.059 -5.457,3.414 c -8.449,4.547 -15.09,4.023 -15.09,4.023 1.305,1.598 2.301,3.27 3.57,4.75 l 5.754,-1.539 c 0.114,3.328 -0.117,6.77 -0.543,10.047 -4.429,1.305 -7.656,1.652 -7.656,1.652 1.301,1.598 2.301,3.266 3.57,4.75 l 3.219,-0.976 c -0.641,3.367 -1.359,6.218 -1.922,8.265 -8.043,1.481 -15.113,2.453 -15.113,2.453 1.301,1.407 1.512,1.536 3.566,4.18 25.239,-7.051 44.895,-8.672 44.895,-8.672 l -7.41,-6.222 -5.461,3.004 c -1.735,0.82 -4.285,1.628 -7.203,2.394 0.941,-2.004 2.168,-5.781 3.375,-9.859 l 7.34,-2.223 -5.305,-4.938 c 1.293,-4.742 2.254,-8.554 2.254,-8.554 z m -0.602,7.812 c 0.094,2.691 -0.035,5.461 -0.308,8.16 l -1.5,0.938 c -1.52,0.816 -3.043,1.515 -4.524,2.109 1.121,-3.988 1.93,-7.121 1.93,-7.121 0,0 -1.84,-0.68 -4.477,-1.715 z m -1.297,15.063 c -0.707,3.906 -1.531,7.203 -2.117,9.332 -2.48,0.589 -5.105,1.129 -7.73,1.64 0.918,-2.066 2.027,-5.437 3.086,-8.926 z"
           style="fill:#000000;fill-opacity:1;fill-rule:nonzero;stroke:none;stroke-width:0.832961"
           id="path10536" /></g></g><g
       clip-path="url(#clipPath10550)"
       opacity="0.454395"
       id="g10556"
       transform="matrix(0.42371017,0,0,0.42333525,7.3585542,-28.951139)"
       style="stroke-width:0.832961"><g
         id="g10554"
         style="stroke-width:0.832961"><path
           d="m 427.188,566.16 -21.036,8.43 0.106,1.453 20.113,-3.141 c -0.32,1.387 -0.828,3.211 -1.371,5.043 l -0.293,-0.269 c -5.391,5.375 -12.359,8.16 -18.34,10.668 0.301,0.472 0.863,0.937 1.363,1.519 l 6.086,-1.625 c 0.454,1.571 0.711,3.192 0.848,4.789 -2.707,0.618 -5.437,1.196 -8.094,1.735 -1.058,-2.336 -2.359,-4.926 -3.984,-7.59 0.605,-3.606 1.855,-11.629 1.824,-16.473 -3.875,11.719 -8.207,16.11 -8.621,16.621 -0.297,0.375 3.242,1.121 5.199,1.504 0.371,2.031 0.75,4.176 1.184,6.813 -6.293,1.218 -11.113,2.043 -11.113,2.043 1.3,1.406 1.511,1.531 3.566,4.175 2.766,-0.773 5.5,-1.488 8.187,-2.167 0.606,4.007 1.145,8.058 1.383,11.289 3.75,-4.309 5.657,-7.629 5.657,-7.629 0,0 -0.579,-2 -1.743,-4.957 2.305,-0.547 4.485,-1.028 6.657,-1.504 -0.118,3.715 -0.75,6.847 -1.157,8.547 l -4.742,1.949 -0.144,1.289 19.812,-2.457 -3.082,-2.594 c 1.012,-1.258 2.235,-5.363 3.289,-9.551 8.653,-1.586 14.262,-2.336 14.262,-2.336 l -7.414,-6.222 -5.457,3.004 c -0.035,0.007 -0.059,0.019 -0.082,0.031 0.621,-2.801 1.043,-4.922 1.043,-4.922 l -3.703,-3.453 6.058,-8.375 z m -3.067,19.324 c 0.086,1.797 0.117,3.504 0.102,5.11 -1.664,0.484 -3.496,0.972 -5.434,1.453 0.063,-0.742 0.113,-1.516 0.145,-2.332 -1.668,-0.883 -2.414,-1.301 -3.52,-1.906 z m -0.062,9.481 c -0.168,2.789 -0.434,5.137 -0.704,6.894 l -0.339,-0.289 -7.965,3.27 c 1.082,-1.574 2.398,-4.274 3.203,-8.695 2.035,-0.426 3.949,-0.817 5.805,-1.18 z"
           style="fill:#000000;fill-opacity:1;fill-rule:nonzero;stroke:none;stroke-width:0.832961"
           id="path10552" /></g></g><g
       clip-path="url(#clipPath10566)"
       opacity="0.454395"
       id="g10572"
       transform="matrix(0.42371017,0,0,0.42333525,7.3585542,-28.951139)"
       style="stroke-width:0.832961"><g
         id="g10570"
         style="stroke-width:0.832961"><path
           d="m 234.41,562.215 c -0.277,4.32 -0.961,8.215 -1.914,11.707 -4.156,1.383 -8.633,2.605 -12.094,2.836 l 3.7,3.554 6.839,-1.613 c -5.898,15.543 -16.961,21.516 -16.961,21.516 l 0.032,1.027 c 8.652,-2.965 17.109,-15.105 22.238,-23.797 l 12.738,-3.007 -4.64,-5.079 c 0,0 -1.918,0.848 -4.703,1.953 0.921,-1.769 1.558,-3.058 1.558,-3.058 l -6.789,-6.039 z m 6.332,19.461 c -0.898,1.324 -0.898,1.176 -0.898,1.176 9.957,4.972 10.433,5.761 20.754,14.078 l 4.203,-6.387 c 0,0 -22.172,-8.867 -24.059,-8.867 z m -4.816,0.742 c 0.371,4.941 0.32,9.066 0.043,12.5 -3.25,1.359 -7.125,2.543 -11.457,2.996 1.437,0.617 3.695,3.387 3.695,3.387 l 7.34,-2.731 c -1.172,7.84 -3.539,10.836 -3.539,10.836 l 7.109,5.516 v -17.684 l 11.149,-4.144 -4.106,-4.106 c 0,0 -2.629,2.223 -7.043,4.473 v -7.707 z"
           style="fill:#000000;fill-opacity:1;fill-rule:nonzero;stroke:none;stroke-width:0.832961"
           id="path10568" /></g></g><g
       clip-path="url(#clipPath10582)"
       opacity="0.454395"
       id="g10588"
       transform="matrix(0.42371017,0,0,0.42333525,7.3585542,-28.951139)"
       style="stroke-width:0.832961"><g
         id="g10586"
         style="stroke-width:0.832961"><path
           d="m 286.383,564.121 c 0,0 9.164,8.254 9.316,9.016 0.156,0.765 5.043,-5.805 5.043,-5.805 0,0 -6.262,-2.293 -14.359,-3.211 z m 17.867,8.441 c 0,0 -9.793,6.559 -20.191,8.575 l 2.121,1.261 7.738,-1.566 c -0.211,3.438 -0.539,6.469 -1.004,9.09 -2.859,1.183 -6.059,2.262 -9.316,2.89 l 2.121,1.262 6.605,-1.34 c -2.679,11.141 -8.324,14.856 -17.554,20.278 13.5,-1.774 20.113,-13.371 23.125,-21.403 l 12.335,-2.496 -6.441,-4.875 c 0,0 -1.695,1.114 -4.34,2.551 0.477,-1.801 0.684,-2.957 0.684,-2.957 l -4.469,-3.352 15.027,-3.042 z m -1.75,25.094 c 0,0 8.402,5.5 12.605,12.758 3.743,-1.984 7.333,-3.281 7.333,-3.281 0,0 -6.11,-8.633 -19.938,-9.477 z"
           style="fill:#000000;fill-opacity:1;fill-rule:nonzero;stroke:none;stroke-width:0.832961"
           id="path10584" /></g></g><g
       clip-path="url(#clipPath10598)"
       opacity="0.454395"
       id="g10604"
       transform="matrix(0.42371017,0,0,0.42333525,7.3585542,-28.951139)"
       style="stroke-width:0.832961"><g
         id="g10602"
         style="stroke-width:0.832961"><path
           d="m 323.668,411.918 c -1.488,0.57 -6.535,1.375 -12.648,2.121 -1.055,-2.242 -1.985,-4.477 -2.868,-6.586 -0.472,0.305 -0.933,0.863 -1.519,1.367 l 1.488,5.563 c -1.578,0.179 -3.207,0.344 -4.848,0.504 -0.546,-2.426 -1.058,-4.856 -1.539,-7.227 3.496,-1.582 7.606,-3.742 11.555,-6.621 0,0 -5.703,1.117 -12.426,2.219 -1.222,-6.293 -2.043,-11.113 -2.043,-11.113 -1.41,1.3 -1.535,1.511 -4.179,3.57 0.773,2.765 1.488,5.496 2.168,8.183 -4.004,0.606 -8.059,1.145 -11.289,1.383 4.308,3.75 7.628,5.66 7.628,5.66 0,0 2,-0.582 4.961,-1.742 0.493,2.078 0.934,4.067 1.368,6.039 -2.739,0.231 -5.438,0.422 -7.965,0.551 l -2.399,-5.836 -1.285,-0.144 0.758,6.105 c -4.578,0.148 -8.25,0.047 -9.805,-0.48 l -5.242,3.855 c 0,0 7.5,0.055 15.481,0.137 l 1.265,10.199 2.594,-3.082 c 1.254,1.012 5.359,2.234 9.551,3.289 1.586,8.648 2.332,14.262 2.332,14.262 l 6.226,-7.414 -3.004,-5.457 c -0.027,-0.032 -0.027,-0.059 -0.039,-0.086 2.805,0.621 4.926,1.047 4.926,1.047 l 5.949,-6.387 c -1.828,-1.832 -3.351,-3.852 -4.672,-5.949 2.071,0.054 4,0.113 5.637,0.179 1.254,-2.359 1.727,-4.265 3.883,-8.109 z m -12.656,13.293 c -1.793,0.09 -3.504,0.117 -5.106,0.105 -0.508,-1.734 -1.015,-3.648 -1.515,-5.675 1.785,0.031 3.464,0.062 5.16,0.097 z m -9.481,-0.063 c -2.789,-0.168 -5.136,-0.433 -6.89,-0.703 l 0.285,-0.34 -1.903,-4.636 c 2.418,0.031 4.887,0.07 7.383,0.109 0.406,1.953 0.778,3.789 1.125,5.574 z"
           style="fill:#ffffff;fill-opacity:1;fill-rule:nonzero;stroke:none;stroke-width:0.832961"
           id="path10600" /></g></g><g
       clip-path="url(#clipPath10614)"
       opacity="0.454395"
       id="g10620"
       transform="matrix(0.42371017,0,0,0.42333525,7.3585542,-28.951139)"
       style="stroke-width:0.832961"><g
         id="g10618"
         style="stroke-width:0.832961"><path
           d="m 414.41,510.375 c 0.738,5.816 0.613,10.809 -0.078,15.117 l -6.449,4.035 0.871,1.016 4.801,-1.281 c -4.692,17.812 -19.891,21.597 -19.891,21.597 l 0.039,2.25 c 14.652,-3.675 21.668,-15.543 25.004,-25.222 l 13.41,-3.582 -6.383,-5.95 -5.257,3.293 c 1.003,-4.429 1.195,-7.5 1.195,-7.5 z m -11.172,4.063 c 3.336,14.367 -5.226,22.925 -5.226,22.925 0,0 1.379,0.219 2.906,0.293 5.18,-5.418 10.734,-21.043 10.734,-21.043 z m 16.035,20.539 c 0,0 10.336,9.41 16.563,17.211 2.23,-2.352 4.562,-5.153 4.562,-5.153 0,0 -10.058,-8.125 -21.125,-12.058 z"
           style="fill:#000000;fill-opacity:1;fill-rule:nonzero;stroke:none;stroke-width:0.832961"
           id="path10616" /></g></g><g
       clip-path="url(#clipPath10630)"
       opacity="0.454395"
       id="g10636"
       transform="matrix(0.42371017,0,0,0.42333525,7.3585542,-28.951139)"
       style="stroke-width:0.832961"><g
         id="g10634"
         style="stroke-width:0.832961"><path
           d="m 310.828,272.055 c 0,0 -9.168,-8.25 -9.32,-9.016 -0.153,-0.766 -5.043,5.805 -5.043,5.805 0,0 6.265,2.293 14.363,3.211 z m -17.871,-8.442 c 0,0 9.797,-6.558 20.191,-8.574 l -2.121,-1.262 -7.734,1.567 c 0.207,-3.438 0.535,-6.469 1,-9.09 2.859,-1.18 6.059,-2.262 9.316,-2.891 l -2.121,-1.261 -6.605,1.339 c 2.679,-11.14 8.324,-14.855 17.555,-20.277 -13.497,1.774 -20.11,13.371 -23.122,21.402 l -12.339,2.496 6.441,4.876 c 0,0 1.695,-1.114 4.344,-2.551 -0.481,1.801 -0.688,2.957 -0.688,2.957 l 4.473,3.355 -15.031,3.039 z m 1.75,-25.093 c 0,0 -8.402,-5.5 -12.605,-12.758 -3.743,1.984 -7.332,3.281 -7.332,3.281 0,0 6.109,8.637 19.937,9.477 z"
           style="fill:#d43c00;fill-opacity:1;fill-rule:nonzero;stroke:none;stroke-width:0.832961"
           id="path10632" /></g></g><g
       clip-path="url(#clipPath10646)"
       opacity="0.454395"
       id="g10652"
       transform="matrix(0.42371017,0,0,0.42333525,7.3585542,-28.951139)"
       style="stroke-width:0.832961"><g
         id="g10650"
         style="stroke-width:0.832961"><path
           d="m 355.195,510.375 c 0.743,5.816 0.617,10.809 -0.074,15.117 l -6.449,4.035 0.871,1.016 4.797,-1.281 c -4.692,17.812 -19.891,21.597 -19.891,21.597 l 0.039,2.25 c 14.653,-3.675 21.672,-15.543 25.008,-25.222 l 13.41,-3.582 -6.386,-5.95 -5.254,3.293 c 1.004,-4.429 1.191,-7.5 1.191,-7.5 z m -11.172,4.063 c 3.34,14.367 -5.222,22.925 -5.222,22.925 0,0 1.379,0.219 2.902,0.293 5.184,-5.418 10.735,-21.043 10.735,-21.043 z m 16.036,20.539 c 0,0 10.336,9.41 16.562,17.211 2.231,-2.352 4.563,-5.153 4.563,-5.153 0,0 -10.055,-8.125 -21.125,-12.058 z"
           style="fill:#000000;fill-opacity:1;fill-rule:nonzero;stroke:none;stroke-width:0.832961"
           id="path10648" /></g></g><g
       clip-path="url(#clipPath10662)"
       opacity="0.454395"
       id="g10668"
       transform="matrix(0.42371017,0,0,0.42333525,7.3585542,-28.951139)"
       style="stroke-width:0.832961"><g
         id="g10666"
         style="stroke-width:0.832961"><path
           d="m 236.77,510.375 c 0.742,5.816 0.613,10.809 -0.075,15.117 l -6.449,4.035 0.871,1.016 4.797,-1.281 c -4.691,17.812 -19.891,21.597 -19.891,21.597 l 0.039,2.25 c 14.653,-3.675 21.672,-15.543 25.008,-25.222 l 13.41,-3.582 -6.386,-5.95 -5.258,3.293 c 1.008,-4.429 1.195,-7.5 1.195,-7.5 z m -11.172,4.063 c 3.34,14.367 -5.223,22.925 -5.223,22.925 0,0 1.379,0.219 2.902,0.293 5.184,-5.418 10.735,-21.043 10.735,-21.043 z m 16.035,20.539 c 0,0 10.336,9.41 16.562,17.211 2.231,-2.352 4.563,-5.153 4.563,-5.153 0,0 -10.055,-8.125 -21.125,-12.058 z"
           style="fill:#d43c00;fill-opacity:1;fill-rule:nonzero;stroke:none;stroke-width:0.832961"
           id="path10664" /></g></g><g
       clip-path="url(#clipPath10678)"
       opacity="0.454395"
       id="g10684"
       transform="matrix(0.42371017,0,0,0.42333525,7.3585542,-28.951139)"
       style="stroke-width:0.832961"><g
         id="g10682"
         style="stroke-width:0.832961"><path
           d="m 177.559,510.375 c 0.738,5.816 0.613,10.809 -0.079,15.117 l -6.449,4.035 0.871,1.016 4.801,-1.281 c -4.695,17.812 -19.891,21.597 -19.891,21.597 l 0.04,2.25 c 14.652,-3.675 21.668,-15.543 25.003,-25.222 l 13.411,-3.582 -6.383,-5.95 -5.258,3.293 c 1.004,-4.429 1.195,-7.5 1.195,-7.5 z m -11.172,4.063 c 3.336,14.367 -5.227,22.925 -5.227,22.925 0,0 1.379,0.219 2.902,0.293 5.184,-5.418 10.739,-21.043 10.739,-21.043 z m 16.035,20.539 c 0,0 10.336,9.41 16.562,17.211 2.231,-2.352 4.559,-5.153 4.559,-5.153 0,0 -10.055,-8.125 -21.121,-12.058 z"
           style="fill:#d43c00;fill-opacity:1;fill-rule:nonzero;stroke:none;stroke-width:0.832961"
           id="path10680" /></g></g><g
       clip-path="url(#clipPath10694)"
       opacity="0.454395"
       id="g10700"
       transform="matrix(0.42371017,0,0,0.42333525,7.3585542,-28.951139)"
       style="stroke-width:0.832961"><g
         id="g10698"
         style="stroke-width:0.832961"><path
           d="m 292.359,327.465 c -0.703,-5.02 -0.898,-10.117 -0.847,-14.742 5.16,-1.821 10.433,-3.133 15.746,-4.215 l 1.109,6.668 8.754,3.789 c -2.027,-2.203 -3.766,-6.93 -5.07,-11.375 3.613,-0.66 7.226,-1.258 10.824,-1.875 -1.203,-1.301 -1.879,-2.258 -3.781,-4.707 -2.789,0.781 -5.547,1.504 -8.25,2.18 -0.782,-3.161 -1.223,-5.489 -1.223,-5.489 l -3.262,-1.441 3.868,-1.246 0.253,-1.614 -3.187,0.364 c 4.98,-7.914 11.527,-11.492 11.527,-11.492 l -0.617,-0.864 c -2.707,-0.082 -16.254,8.867 -16.254,8.867 l 4.504,3.586 -13.594,1.555 c 0,-0.023 0.043,-0.316 0.043,-0.316 -0.058,0.105 -0.113,0.222 -0.172,0.332 l -5.3,0.605 3.465,3.277 c -1.184,2.856 -2.145,5.915 -2.922,8.821 -8.282,1.531 -13.641,2.242 -13.641,2.242 l 7.34,6.598 c 1.57,-0.825 3.16,-1.575 4.766,-2.266 -0.743,3.668 -1.09,6.246 -1.09,6.246 0,0 2.5,2.934 7.007,6.512 z m -0.671,-20.047 c 0.136,-2.641 0.332,-4.93 0.531,-6.852 l 0.195,0.184 12.871,-4.148 1.266,7.632 c -5.426,1.282 -10.403,2.317 -14.863,3.18 z m 0.632,-14.316 c 0.16,0 0.321,0 0.469,-0.008 0,0 -7.387,-4.836 -11.078,-11.211 -3.289,1.746 -6.445,2.887 -6.445,2.887 0,0 11.992,8.187 17.054,8.332 z"
           style="fill:#d43c00;fill-opacity:1;fill-rule:nonzero;stroke:none;stroke-width:0.832961"
           id="path10696" /></g></g><g
       clip-path="url(#clipPath10710)"
       opacity="0.454395"
       id="g10716"
       transform="matrix(0.42371017,0,0,0.42333525,7.3585542,-28.951139)"
       style="stroke-width:0.832961"><g
         id="g10714"
         style="stroke-width:0.832961"><path
           d="m 419.184,270.156 c -0.5,-4.582 -0.633,-8.66 -0.504,-12.336 5.226,-2.011 10.078,-3.808 10.078,-3.808 l -1.16,-1.309 -8.743,2.07 c 0.301,-3.652 0.879,-6.859 1.688,-9.64 l 2.238,-0.762 -0.105,-1.027 -1.602,0.117 c 5.664,-16.649 19.18,-17.32 19.18,-17.32 l -0.363,-1.079 c -12.489,1.793 -19.395,10.051 -23.223,18.719 l -14.41,1.051 3.308,2.926 -5.539,11.476 c 0,0 2.762,2.446 5.246,4.27 0.45,-0.449 3.43,-1.731 7.067,-3.195 -0.43,3.656 -0.414,6.074 -0.414,6.074 z m -13.075,-12.363 1.411,-8.309 0.074,0.067 7.84,-2.676 c -1.176,3.258 -1.934,6.437 -2.454,9.289 z m 26.782,-1.012 c 0.781,-0.199 0.359,-0.101 0.781,-0.199 -5.719,-10.676 -6.231,-17.199 -6.231,-17.199 l -3.781,3.305 c 0,0 5.098,11.32 9.231,14.093 z m -18.571,-13.59 c 0,0 -10.336,-9.41 -16.562,-17.211 -2.231,2.352 -4.563,5.153 -4.563,5.153 0,0 10.055,8.125 21.125,12.058 z"
           style="fill:#d43c00;fill-opacity:1;fill-rule:nonzero;stroke:none;stroke-width:0.832961"
           id="path10712" /></g></g><g
       clip-path="url(#clipPath10726)"
       opacity="0.454395"
       id="g10732"
       transform="matrix(0.42371017,0,0,0.42333525,7.3585542,-28.951139)"
       style="stroke-width:0.832961"><g
         id="g10730"
         style="stroke-width:0.832961"><path
           d="m 233.953,268.121 5.457,-3.418 c 8.449,-4.547 15.09,-4.023 15.09,-4.023 -1.305,-1.598 -2.297,-3.266 -3.566,-4.75 l -5.758,1.539 c -0.114,-3.328 0.121,-6.77 0.543,-10.047 4.429,-1.305 7.656,-1.649 7.656,-1.649 -1.301,-1.601 -2.297,-3.269 -3.57,-4.753 l -3.219,0.976 c 0.644,-3.367 1.363,-6.219 1.926,-8.266 8.039,-1.48 15.109,-2.453 15.109,-2.453 -1.301,-1.406 -1.512,-1.535 -3.566,-4.179 -25.239,7.05 -44.895,8.672 -44.895,8.672 l 7.41,6.222 5.461,-3.004 c 1.739,-0.82 4.285,-1.625 7.203,-2.394 -0.941,2.004 -2.164,5.781 -3.371,9.859 l -7.34,2.223 5.305,4.937 c -1.297,4.742 -2.258,8.555 -2.258,8.555 z m 0.602,-7.816 c -0.094,-2.692 0.039,-5.461 0.312,-8.16 l 1.496,-0.938 c 1.524,-0.816 3.047,-1.512 4.524,-2.109 -1.121,3.988 -1.926,7.121 -1.926,7.121 0,0 1.836,0.679 4.473,1.715 z m 1.297,-15.059 c 0.707,-3.91 1.531,-7.207 2.117,-9.336 2.48,-0.59 5.105,-1.129 7.73,-1.637 -0.918,2.063 -2.027,5.434 -3.086,8.926 z"
           style="fill:#d43c00;fill-opacity:1;fill-rule:nonzero;stroke:none;stroke-width:0.832961"
           id="path10728" /></g></g><g
       clip-path="url(#clipPath10742)"
       opacity="0.454395"
       id="g10748"
       transform="matrix(0.42371017,0,0,0.42333525,7.3585542,-28.951139)"
       style="stroke-width:0.832961"><g
         id="g10746"
         style="stroke-width:0.832961"><path
           d="m 170.023,270.016 21.036,-8.43 -0.106,-1.453 -20.113,3.14 c 0.32,-1.386 0.824,-3.211 1.371,-5.043 l 0.289,0.27 c 5.391,-5.375 12.363,-8.16 18.34,-10.668 -0.301,-0.473 -0.86,-0.937 -1.36,-1.52 l -6.089,1.626 c -0.453,-1.571 -0.711,-3.188 -0.848,-4.79 2.707,-0.617 5.437,-1.195 8.094,-1.734 1.058,2.336 2.359,4.926 3.988,7.59 -0.609,3.605 -1.859,11.629 -1.828,16.473 3.875,-11.719 8.211,-16.106 8.621,-16.622 0.297,-0.371 -3.242,-1.121 -5.199,-1.503 -0.367,-2.032 -0.75,-4.176 -1.184,-6.813 6.297,-1.219 11.117,-2.043 11.117,-2.043 -1.304,-1.406 -1.515,-1.531 -3.57,-4.176 -2.766,0.774 -5.496,1.489 -8.184,2.168 -0.609,-4.008 -1.148,-8.058 -1.386,-11.289 -3.75,4.309 -5.657,7.629 -5.657,7.629 0,0 0.583,2 1.743,4.961 -2.305,0.543 -4.485,1.023 -6.657,1.5 0.118,-3.711 0.75,-6.848 1.157,-8.547 l 4.746,-1.945 0.144,-1.289 -19.812,2.457 3.078,2.59 c -1.012,1.257 -2.234,5.363 -3.289,9.55 -8.649,1.586 -14.262,2.336 -14.262,2.336 l 7.414,6.223 5.457,-3 c 0.035,-0.012 0.059,-0.023 0.082,-0.035 -0.621,2.801 -1.039,4.926 -1.039,4.926 l 3.703,3.449 -6.062,8.375 z m 3.063,-19.325 c -0.086,-1.796 -0.117,-3.503 -0.102,-5.105 1.664,-0.488 3.496,-0.977 5.438,-1.457 -0.063,0.746 -0.117,1.516 -0.149,2.332 1.668,0.883 2.415,1.301 3.52,1.906 z m 0.062,-9.48 c 0.168,-2.789 0.434,-5.137 0.704,-6.891 l 0.339,0.285 7.965,-3.269 c -1.082,1.574 -2.398,4.277 -3.203,8.695 -2.035,0.426 -3.949,0.821 -5.805,1.18 z"
           style="fill:#d43c00;fill-opacity:1;fill-rule:nonzero;stroke:none;stroke-width:0.832961"
           id="path10744" /></g></g><g
       clip-path="url(#clipPath10758)"
       opacity="0.454395"
       id="g10764"
       transform="matrix(0.42371017,0,0,0.42333525,7.3585542,-28.951139)"
       style="stroke-width:0.832961"><g
         id="g10762"
         style="stroke-width:0.832961"><path
           d="m 362.801,273.961 c 0.277,-4.32 0.957,-8.211 1.91,-11.707 4.156,-1.383 8.633,-2.606 12.094,-2.836 l -3.7,-3.555 -6.839,1.617 c 5.898,-15.542 16.961,-21.519 16.961,-21.519 l -0.032,-1.023 c -8.652,2.96 -17.109,15.101 -22.238,23.792 l -12.738,3.008 4.644,5.082 c 0,0 1.918,-0.851 4.699,-1.957 -0.921,1.77 -1.558,3.059 -1.558,3.059 l 6.789,6.039 z M 356.465,254.5 c 0.898,-1.324 0.898,-1.176 0.898,-1.176 -9.953,-4.969 -10.433,-5.762 -20.75,-14.074 l -4.207,6.383 c 0,0 22.172,8.867 24.059,8.867 z m 4.816,-0.742 c -0.371,-4.942 -0.32,-9.067 -0.043,-12.5 3.25,-1.36 7.125,-2.543 11.457,-2.996 -1.433,-0.617 -3.691,-3.387 -3.691,-3.387 l -7.344,2.73 c 1.172,-7.839 3.539,-10.835 3.539,-10.835 l -7.109,-5.516 v 17.684 l -11.149,4.144 4.106,4.106 c 0,0 2.629,-2.223 7.043,-4.473 v 7.707 z"
           style="fill:#d43c00;fill-opacity:1;fill-rule:nonzero;stroke:none;stroke-width:0.832961"
           id="path10760" /></g></g><g
       clip-path="url(#clipPath10774)"
       opacity="0.454395"
       id="g10780"
       transform="matrix(0.42371017,0,0,0.42333525,7.3585542,-28.951139)"
       style="stroke-width:0.832961"><g
         id="g10778"
         style="stroke-width:0.832961"><path
           d="m 182.797,325.801 c -0.738,-5.817 -0.613,-10.809 0.078,-15.117 l 6.449,-4.036 -0.871,-1.015 -4.801,1.281 c 4.696,-17.812 19.891,-21.598 19.891,-21.598 l -0.039,-2.25 c -14.649,3.676 -21.668,15.543 -25.004,25.223 l -13.41,3.582 6.383,5.949 5.257,-3.293 c -1.003,4.43 -1.191,7.5 -1.191,7.5 z m 11.172,-4.063 c -3.336,-14.363 5.226,-22.926 5.226,-22.926 0,0 -1.379,-0.218 -2.902,-0.289 -5.184,5.415 -10.738,21.039 -10.738,21.039 z m -16.035,-20.539 c 0,0 -10.336,-9.41 -16.563,-17.211 -2.23,2.352 -4.559,5.153 -4.559,5.153 0,0 10.055,8.125 21.122,12.058 z"
           style="fill:#000000;fill-opacity:1;fill-rule:nonzero;stroke:none;stroke-width:0.832961"
           id="path10776" /></g></g><g
       clip-path="url(#clipPath10790)"
       opacity="0.454395"
       id="g10796"
       transform="matrix(0.42371017,0,0,0.42333525,7.3585542,-28.951139)"
       style="stroke-width:0.832961"><g
         id="g10794"
         style="stroke-width:0.832961"><path
           d="m 242.012,325.801 c -0.742,-5.817 -0.614,-10.809 0.074,-15.117 l 6.453,-4.036 -0.871,-1.015 -4.801,1.281 c 4.692,-17.812 19.891,-21.598 19.891,-21.598 l -0.039,-2.25 c -14.653,3.676 -21.668,15.543 -25.008,25.223 l -13.41,3.582 6.387,5.949 5.257,-3.293 c -1.007,4.43 -1.195,7.5 -1.195,7.5 z m 11.172,-4.063 c -3.336,-14.363 5.222,-22.926 5.222,-22.926 0,0 -1.379,-0.218 -2.902,-0.289 -5.18,5.415 -10.734,21.039 -10.734,21.039 z m -16.036,-20.539 c 0,0 -10.336,-9.41 -16.562,-17.211 -2.231,2.352 -4.563,5.153 -4.563,5.153 0,0 10.055,8.125 21.125,12.058 z"
           style="fill:#000000;fill-opacity:1;fill-rule:nonzero;stroke:none;stroke-width:0.832961"
           id="path10792" /></g></g><g
       clip-path="url(#clipPath10806)"
       opacity="0.454395"
       id="g10812"
       transform="matrix(0.42371017,0,0,0.42333525,7.3585542,-28.951139)"
       style="stroke-width:0.832961"><g
         id="g10810"
         style="stroke-width:0.832961"><path
           d="m 360.438,325.801 c -0.743,-5.817 -0.614,-10.809 0.074,-15.117 l 6.453,-4.036 -0.871,-1.015 -4.801,1.281 c 4.691,-17.812 19.891,-21.598 19.891,-21.598 l -0.039,-2.25 c -14.653,3.676 -21.668,15.543 -25.008,25.223 l -13.41,3.582 6.386,5.949 5.258,-3.293 c -1.008,4.43 -1.195,7.5 -1.195,7.5 z m 11.171,-4.063 c -3.336,-14.363 5.223,-22.926 5.223,-22.926 0,0 -1.379,-0.218 -2.902,-0.289 -5.18,5.415 -10.735,21.039 -10.735,21.039 z m -16.035,-20.539 c 0,0 -10.336,-9.41 -16.562,-17.211 -2.231,2.352 -4.563,5.153 -4.563,5.153 0,0 10.055,8.125 21.125,12.058 z"
           style="fill:#d43c00;fill-opacity:1;fill-rule:nonzero;stroke:none;stroke-width:0.832961"
           id="path10808" /></g></g><g
       clip-path="url(#clipPath10822)"
       opacity="0.454395"
       id="g10828"
       transform="matrix(0.42371017,0,0,0.42333525,7.3585542,-28.951139)"
       style="stroke-width:0.832961"><g
         id="g10826"
         style="stroke-width:0.832961"><path
           d="m 419.648,325.801 c -0.738,-5.817 -0.613,-10.809 0.079,-15.117 l 6.449,-4.036 -0.871,-1.015 -4.801,1.281 c 4.695,-17.812 19.894,-21.598 19.894,-21.598 l -0.043,-2.25 c -14.648,3.676 -21.667,15.543 -25.003,25.223 l -13.411,3.582 6.383,5.949 5.258,-3.293 c -1.004,4.43 -1.191,7.5 -1.191,7.5 z m 11.172,-4.063 c -3.336,-14.363 5.227,-22.926 5.227,-22.926 0,0 -1.379,-0.218 -2.902,-0.289 -5.184,5.415 -10.739,21.039 -10.739,21.039 z m -16.031,-20.539 c 0,0 -10.34,-9.41 -16.562,-17.211 -2.235,2.352 -4.563,5.153 -4.563,5.153 0,0 10.055,8.125 21.125,12.058 z"
           style="fill:#d43c00;fill-opacity:1;fill-rule:nonzero;stroke:none;stroke-width:0.832961"
           id="path10824" /></g></g><path
       d="m 95.874145,236.0089 h 8.523785 v 8.17249 h -8.523785 z"
       style="fill:#ffffff;fill-opacity:1;fill-rule:nonzero;stroke:#000000;stroke-width:0.188551;stroke-linecap:round;stroke-linejoin:bevel;stroke-miterlimit:4;stroke-dasharray:none;stroke-opacity:1"
       id="path10834" /><path
       d="m 86.701674,236.0089 h 8.523781 v 8.17249 h -8.523781 z"
       style="fill:#ffffff;fill-opacity:1;fill-rule:nonzero;stroke:#000000;stroke-width:0.188551;stroke-linecap:round;stroke-linejoin:bevel;stroke-miterlimit:4;stroke-dasharray:none;stroke-opacity:1"
       id="path10838" /><path
       d="m 77.519024,236.0089 h 8.52378 v 8.17249 h -8.52378 z"
       style="fill:#ffffff;fill-opacity:1;fill-rule:nonzero;stroke:#000000;stroke-width:0.188551;stroke-linecap:round;stroke-linejoin:bevel;stroke-miterlimit:4;stroke-dasharray:none;stroke-opacity:1"
       id="path10842" /><path
       d="m 90.659125,236.85218 c 0.0712,0.65828 0.0907,1.24503 0.0712,1.7742 -0.75336,0.28956 -1.45163,0.54737 -1.45163,0.54737 l 0.16694,0.18881 1.258,-0.29803 c -0.0415,0.5245 -0.12584,0.98595 -0.24152,1.38599 l -0.32286,0.11089 0.0149,0.1469 0.23177,-0.0166 c -0.81607,2.39438 -2.76047,2.49217 -2.76047,2.49217 l 0.0525,0.15367 c 1.7978,-0.25783 2.79225,-1.44528 3.3435,-2.69199 l 2.07406,-0.15072 -0.47668,-0.42163 0.79743,-1.65016 c 0,0 -0.39702,-0.35221 -0.75464,-0.61342 -0.0661,0.0643 -0.49489,0.24808 -1.01775,0.45974 0.0627,-0.5262 0.0593,-0.87503 0.0593,-0.87503 z m 1.8817,1.77758 -0.20338,1.19551 -0.0153,-0.01 -1.12877,0.38523 c 0.16906,-0.46947 0.27838,-0.92583 0.35253,-1.33604 z m -3.85492,0.14563 c -0.11398,0.0297 -0.053,0.0148 -0.11398,0.0297 0.82412,1.53459 0.897,2.47397 0.897,2.47397 l 0.54446,-0.47624 c 0,0 -0.73302,-1.629 -1.32875,-2.02735 z m 2.67319,1.95455 c 0,0 1.48807,1.35424 2.38507,2.47566 0.32117,-0.33739 0.65547,-0.74083 0.65547,-0.74083 0,0 -1.44654,-1.16926 -3.04054,-1.73483 z"
       style="fill:#000000;fill-opacity:1;fill-rule:nonzero;stroke:none;stroke-width:0.352778"
       id="path10844" /><path
       d="m 81.069294,236.30481 c -0.0398,0.62188 -0.13898,1.18067 -0.27668,1.68317 -0.59744,0.20025 -1.24274,0.37551 -1.74103,0.40852 l 0.53303,0.51097 0.9847,-0.23114 c -0.84911,2.23394 -2.44142,3.09373 -2.44142,3.09373 v 0.14733 c 1.24486,-0.42504 2.46303,-2.1713 3.20113,-3.4214 l 1.83382,-0.4335 -0.66861,-0.73068 c 0,0 -0.27457,0.12235 -0.67709,0.28109 0.13262,-0.25484 0.22541,-0.43983 0.22541,-0.43983 l -0.97835,-0.86827 z m 0.91182,2.79952 c -0.12923,0.19007 -0.12923,0.16891 -0.12923,0.16891 1.43172,0.71416 1.50121,0.82846 2.98758,2.02397 l 0.60421,-0.9178 c 0,0 -3.19096,-1.27508 -3.46256,-1.27508 z m -0.69361,0.10584 c 0.053,0.71119 0.0449,1.30472 0,1.79917 -0.4682,0.19515 -1.0258,0.36534 -1.64993,0.43011 0.20677,0.0893 0.53134,0.48769 0.53134,0.48769 l 1.05758,-0.39328 c -0.16864,1.12775 -0.50973,1.55914 -0.50973,1.55914 l 1.02453,0.79206 v -2.5434 l 1.60375,-0.5952 -0.59108,-0.59013 c 0,0 -0.3771,0.31918 -1.01267,0.64305 v -1.10957 z"
       style="fill:#000000;fill-opacity:1;fill-rule:nonzero;stroke:none;stroke-width:0.352778"
       id="path10846" /><path
       d="m 99.763815,237.02235 c 0.10593,0.83694 0.0877,1.5545 -0.0166,2.17299 l -0.92877,0.58209 0.12584,0.14561 0.69191,-0.18542 c -0.67666,2.56329 -2.86512,3.10728 -2.86512,3.10728 v 0.32428 c 2.1105,-0.52917 3.1202,-2.23563 3.600265,-3.62841 l 1.93127,-0.51562 -0.9203,-0.85513 -0.75632,0.47286 c 0.14577,-0.6367 0.17203,-1.07823 0.17203,-1.07823 z m -1.60884,0.58378 c 0.48177,2.06546 -0.75122,3.29736 -0.75122,3.29736 0,0 0.19828,0.0314 0.41692,0.0415 0.74659,-0.77894 1.54569,-3.02641 1.54569,-3.02641 z m 2.308815,2.95362 c 0,0 1.48806,1.35424 2.38507,2.47693 0.32116,-0.33867 0.65716,-0.74083 0.65716,-0.74083 0,0 -1.44824,-1.16884 -3.04223,-1.7361 z"
       style="fill:#000000;fill-opacity:1;fill-rule:nonzero;stroke:none;stroke-width:0.352778"
       id="path10848" /><path
       d="m 86.744464,245.98521 h 8.525481 v 8.17419 h -8.525481 z"
       style="fill:#ffffff;fill-opacity:1;fill-rule:nonzero;stroke:#000000;stroke-width:0.188551;stroke-linecap:round;stroke-linejoin:bevel;stroke-miterlimit:4;stroke-dasharray:none;stroke-opacity:1"
       id="path10852" /><path
       d="m 77.517334,245.98521 h 8.52547 v 8.17419 h -8.52547 z"
       style="fill:#ffffff;fill-opacity:1;fill-rule:nonzero;stroke:#000000;stroke-width:0.188551;stroke-linecap:round;stroke-linejoin:bevel;stroke-miterlimit:4;stroke-dasharray:none;stroke-opacity:1"
       id="path10856" /><path
       d="m 91.794245,247.12315 -0.78429,0.49106 c -1.21647,0.65321 -2.1732,0.57871 -2.1732,0.57871 0.18854,0.22987 0.33091,0.46947 0.5148,0.68283 l 0.82751,-0.22141 c 0.0165,0.47965 -0.0149,0.97411 -0.0779,1.44528 -0.63896,0.18838 -1.10207,0.23791 -1.10207,0.23791 0.18685,0.22988 0.33092,0.4699 0.51312,0.68326 l 0.46311,-0.14054 c -0.0924,0.4843 -0.19533,0.8945 -0.27626,1.18872 -1.15843,0.21336 -2.1766,0.35221 -2.1766,0.35221 0.18897,0.20362 0.21864,0.22184 0.51481,0.60198 3.63289,-1.01346 6.46328,-1.24673 6.46328,-1.24673 l -1.06734,-0.89619 -0.7864,0.43307 c -0.24999,0.11724 -0.61565,0.23326 -1.03597,0.34417 0.13389,-0.28787 0.311,-0.83186 0.48472,-1.41901 l 1.05589,-0.3192 -0.76268,-0.7112 c 0.18686,-0.68114 0.32414,-1.23021 0.32414,-1.23021 z m -0.086,1.12438 c 0.0165,0.38692 0,0.78359 -0.0445,1.17222 l -0.21524,0.13589 c -0.21863,0.11724 -0.43854,0.21801 -0.65039,0.30267 0.16058,-0.57404 0.27626,-1.02362 0.27626,-1.02362 0,0 -0.26483,-0.0978 -0.64362,-0.24639 z m -0.18685,2.1662 c -0.10085,0.56219 -0.22033,1.03506 -0.30465,1.34113 -0.35761,0.0859 -0.73471,0.16381 -1.11223,0.23664 0.13261,-0.2976 0.29151,-0.78232 0.44362,-1.28355 z"
       style="fill:#000000;fill-opacity:1;fill-rule:nonzero;stroke:none;stroke-width:0.352778"
       id="path10858" /><path
       d="m 83.247164,246.85009 -3.02699,1.212 0.0148,0.20998 2.89479,-0.45298 c -0.0462,0.20026 -0.11736,0.46313 -0.19702,0.72604 l -0.0411,-0.0398 c -0.77624,0.77385 -1.78128,1.17433 -2.64183,1.53459 0.0432,0.0677 0.12414,0.13589 0.19702,0.22014 l 0.87538,-0.23495 c 0.0665,0.22649 0.10467,0.45975 0.12288,0.6896 -0.38896,0.0893 -0.78302,0.17188 -1.1652,0.24978 -0.15084,-0.33739 -0.33939,-0.70951 -0.57286,-1.09305 0.0877,-0.51774 0.26651,-1.67175 0.26313,-2.36815 -0.55761,1.68531 -1.18343,2.31691 -1.24148,2.38973 -0.0428,0.0542 0.46693,0.16171 0.74828,0.21632 0.0547,0.29295 0.10761,0.60029 0.17033,0.98088 -0.90674,0.17525 -1.60035,0.29252 -1.60035,0.29252 0.18685,0.20361 0.21863,0.22182 0.5148,0.60198 0.39702,-0.11256 0.79107,-0.21505 1.17665,-0.31242 0.0877,0.577 0.16567,1.15909 0.20041,1.62391 0.53938,-0.62019 0.81437,-1.09643 0.81437,-1.09643 0,0 -0.083,-0.28787 -0.25168,-0.71459 0.33261,-0.0775 0.64531,-0.14689 0.95843,-0.21464 -0.0165,0.53213 -0.10763,0.98384 -0.16567,1.22852 l -0.68344,0.27942 -0.0199,0.1854 2.85157,-0.35263 -0.44321,-0.37338 c 0.14534,-0.18034 0.32075,-0.7709 0.47329,-1.37414 1.24613,-0.22693 2.05372,-0.33572 2.05372,-0.33572 l -1.06732,-0.89492 -0.78641,0.43179 c 0,0.002 -0.0148,0.004 -0.0148,0.005 0.0877,-0.40385 0.14915,-0.70781 0.14915,-0.70781 l -0.53303,-0.49615 0.87242,-1.20566 z m -0.44024,2.77961 c 0.0165,0.25824 0.0165,0.50462 0.0165,0.73449 -0.23982,0.0694 -0.50294,0.14055 -0.78259,0.20828 0.0165,-0.10584 0.0165,-0.21675 0.0199,-0.33401 -0.24024,-0.12742 -0.34787,-0.1867 -0.50676,-0.27432 z m -0.0165,1.36272 c -0.0229,0.40174 -0.0627,0.73915 -0.10084,0.9923 l -0.0496,-0.0415 -1.14529,0.4699 c 0.1572,-0.22649 0.34406,-0.61512 0.46015,-1.25011 0.29279,-0.0614 0.56905,-0.11772 0.83556,-0.1706 z"
       style="fill:#000000;fill-opacity:1;fill-rule:nonzero;stroke:none;stroke-width:0.352778"
       id="path10860" /><path
       d="m 95.874145,245.98521 h 8.523785 v 8.17419 h -8.523785 z"
       style="fill:#ffffff;fill-opacity:1;fill-rule:nonzero;stroke:#000000;stroke-width:0.188551;stroke-linecap:round;stroke-linejoin:bevel;stroke-miterlimit:4;stroke-dasharray:none;stroke-opacity:1"
       id="path10864" /><path
       d="m 99.763815,246.99911 c 0.10593,0.8365 0.0877,1.55574 -0.0148,2.17425 l -0.93047,0.58039 0.12585,0.14733 0.69191,-0.185 c -0.6754,2.56287 -2.86343,3.10685 -2.86343,3.10685 v 0.32258 c 2.1088,-0.52747 3.1185,-2.23393 3.599845,-3.62799 l 1.93,-0.51436 -0.9186,-0.85513 -0.75802,0.47329 c 0.14576,-0.6367 0.17203,-1.07824 0.17203,-1.07824 z m -1.60884,0.58504 c 0.48007,2.06546 -0.75122,3.29778 -0.75122,3.29778 0,0 0.19828,0.0313 0.41692,0.041 0.74659,-0.77893 1.54569,-3.026 1.54569,-3.026 z m 2.308815,2.95361 c 0,0 1.48806,1.35426 2.38507,2.47568 0.32116,-0.33742 0.65547,-0.74084 0.65547,-0.74084 0,0 -1.44655,-1.16926 -3.04054,-1.73484 z"
       style="fill:#000000;fill-opacity:1;fill-rule:nonzero;stroke:none;stroke-width:0.352778"
       id="path10866" /><path
       d="m 138.90574,235.12074 h 53.68028 v 20.39969 h -53.68028 z"
       style="fill:#e6e6e6;fill-opacity:1;fill-rule:nonzero;stroke:none;stroke-width:0.352778"
       id="path10868" /><path
       d="m 140.3489,236.0089 h 8.52377 v 8.17249 h -8.52377 z"
       style="fill:#ffffff;fill-opacity:1;fill-rule:nonzero;stroke:#000000;stroke-width:0.188551;stroke-linecap:round;stroke-linejoin:bevel;stroke-miterlimit:4;stroke-dasharray:none;stroke-opacity:1"
       id="path10872" /><path
       d="m 142.85642,236.57912 c 0,0 1.3207,1.18576 1.34231,1.29669 0.0233,0.10919 0.72496,-0.83524 0.72496,-0.83524 0,0 -0.90038,-0.33063 -2.06727,-0.46145 z m 2.57191,1.21414 c 0,0 -1.41011,0.94404 -2.90622,1.23359 l 0.30633,0.17992 1.11225,-0.22479 c -0.0284,0.49445 -0.0763,0.93091 -0.14238,1.3081 -0.41227,0.17018 -0.87241,0.32428 -1.34231,0.41487 l 0.30592,0.18205 0.95166,-0.19178 c -0.38727,1.60231 -1.19826,2.13658 -2.52701,2.91551 1.94313,-0.25485 2.89479,-1.92321 3.32824,-3.07766 l 1.77619,-0.36026 -0.92707,-0.70146 c 0,0 -0.24491,0.16044 -0.62583,0.36745 0.0683,-0.25824 0.0996,-0.42502 0.0996,-0.42502 l -0.64403,-0.48303 2.16516,-0.43646 z m -0.25126,3.60977 c 0,0 1.20969,0.79036 1.81559,1.8339 0.5377,-0.28449 1.0542,-0.47119 1.0542,-0.47119 0,0 -0.87878,-1.24207 -2.86979,-1.36271 z"
       style="fill:#000000;fill-opacity:1;fill-rule:nonzero;stroke:none;stroke-width:0.352778"
       id="path10874" /><path
       d="m 140.34381,246.34759 h 8.52547 v 8.17418 h -8.52547 z"
       style="fill:#ffffff;fill-opacity:1;fill-rule:nonzero;stroke:#000000;stroke-width:0.188551;stroke-linecap:round;stroke-linejoin:bevel;stroke-miterlimit:4;stroke-dasharray:none;stroke-opacity:1"
       id="path10878" /><path
       d="m 145.51434,247.12315 c 0.10125,0.72094 0.12923,1.4533 0.12288,2.11964 -0.74319,0.26161 -1.5012,0.45001 -2.2677,0.60537 l -0.15889,-0.9593 -1.26138,-0.54398 c 0.2932,0.31581 0.54319,0.99738 0.73005,1.63578 -0.51947,0.0956 -1.04106,0.18161 -1.55756,0.26922 0.17245,0.18881 0.26991,0.32598 0.54448,0.67819 0.40081,-0.11256 0.79784,-0.21673 1.18681,-0.31411 0.11266,0.45466 0.1771,0.79037 0.1771,0.79037 l 0.46862,0.20657 -0.55633,0.18036 -0.038,0.23158 0.45846,-0.0529 c -0.71649,1.13749 -1.6601,1.65355 -1.6601,1.65355 l 0.0877,0.12403 c 0.39067,0.012 2.34059,-1.27508 2.34059,-1.27508 l -0.6487,-0.51563 1.95796,-0.2252 c 0,0.003 0,0.0466 0,0.0466 0.0148,-0.0148 0.0148,-0.0318 0.0228,-0.0482 l 0.76309,-0.0876 -0.49827,-0.47117 c 0.17076,-0.41021 0.30804,-0.85007 0.42075,-1.26832 1.19147,-0.21971 1.96431,-0.32257 1.96431,-0.32257 l -1.05768,-0.9492 c -0.22669,0.11892 -0.45506,0.22649 -0.68513,0.32597 0.10593,-0.52747 0.15549,-0.89789 0.15549,-0.89789 0,0 -0.35887,-0.42206 -1.008,-0.93599 z m 0.0979,2.88206 c -0.0217,0.38059 -0.048,0.7095 -0.0779,0.98553 l -0.0263,-0.0262 -1.85373,0.59691 -0.18221,-1.09814 c 0.78134,-0.1833 1.49783,-0.33231 2.14018,-0.45804 z m -0.0912,2.06038 c -0.0233,0 -0.0463,0 -0.0679,0 0,0 1.06267,0.69638 1.59399,1.61248 0.4733,-0.25146 0.92836,-0.41486 0.92836,-0.41486 0,0 -1.7262,-1.17773 -2.45455,-1.19931 z"
       style="fill:#000000;fill-opacity:1;fill-rule:nonzero;stroke:none;stroke-width:0.352778"
       id="path10880" /><path
       d="m 149.63408,246.34759 h 8.52547 v 8.17418 h -8.52547 z"
       style="fill:#ffffff;fill-opacity:1;fill-rule:nonzero;stroke:#000000;stroke-width:0.188551;stroke-linecap:round;stroke-linejoin:bevel;stroke-miterlimit:4;stroke-dasharray:none;stroke-opacity:1"
       id="path10884" /><path
       d="m 153.52881,247.36106 c 0.10594,0.83693 0.0877,1.55448 -0.0165,2.17468 l -0.92877,0.58038 0.12584,0.14563 0.69023,-0.18372 c -0.6754,2.56159 -2.86345,3.10728 -2.86345,3.10728 v 0.32258 c 2.11051,-0.52748 3.1198,-2.23607 3.59985,-3.62841 l 1.9317,-0.51393 -0.92031,-0.85683 -0.75631,0.47455 c 0.14533,-0.63669 0.17202,-1.07992 0.17202,-1.07992 z m -1.60881,0.58546 c 0.47963,2.06545 -0.75336,3.29737 -0.75336,3.29737 0,0 0.19871,0.0314 0.41905,0.0415 0.74616,-0.77894 1.54569,-3.02643 1.54569,-3.02643 z m 2.30879,2.9532 c 0,0 1.48807,1.35468 2.38337,2.47566 0.32117,-0.33739 0.65718,-0.74083 0.65718,-0.74083 0,0 -1.44825,-1.16925 -3.04055,-1.73483 z"
       style="fill:#000000;fill-opacity:1;fill-rule:nonzero;stroke:none;stroke-width:0.352778"
       id="path10886" /><path
       d="m 158.92435,246.34759 h 8.52548 v 8.17418 h -8.52548 z"
       style="fill:#ffffff;fill-opacity:1;fill-rule:nonzero;stroke:#000000;stroke-width:0.188551;stroke-linecap:round;stroke-linejoin:bevel;stroke-miterlimit:4;stroke-dasharray:none;stroke-opacity:1"
       id="path10890" /><path
       d="m 162.81867,247.36106 c 0.10593,0.83693 0.0877,1.55448 -0.0165,2.17468 l -0.92835,0.58038 0.12585,0.14563 0.69191,-0.18372 c -0.6771,2.56159 -2.86513,3.10728 -2.86513,3.10728 v 0.32258 c 2.11007,-0.52748 3.11977,-2.23607 3.59985,-3.62841 l 1.93168,-0.51393 -0.9186,-0.85683 -0.75801,0.47455 c 0.14532,-0.63669 0.17202,-1.07992 0.17202,-1.07992 z m -1.60883,0.58546 c 0.48007,2.06545 -0.75293,3.29737 -0.75293,3.29737 0,0 0.19872,0.0314 0.41863,0.0415 0.74657,-0.77894 1.54611,-3.02643 1.54611,-3.02643 z m 2.30922,2.9532 c 0,0 1.48764,1.35468 2.38337,2.47566 0.32119,-0.33739 0.65676,-0.74083 0.65676,-0.74083 0,0 -1.44825,-1.16925 -3.04013,-1.73483 z"
       style="fill:#000000;fill-opacity:1;fill-rule:nonzero;stroke:none;stroke-width:0.352778"
       id="path10892" /><path
       d="m 188.57432,251.21255 -1.394,-1.10786 c 0,0 0.26821,-7.34571 -0.0461,-11.62859 l 1.40375,1.30302 0.0411,11.43343 z"
       style="fill:#000000;fill-opacity:1;fill-rule:nonzero;stroke:none;stroke-width:0.352778"
       id="path10894" /><path
       d="m 184.77746,248.23905 -1.39358,-1.10786 c 0,0 0.26143,-2.93202 -0.0466,-7.2149 l 1.40205,1.30302 0.0428,7.01974 z"
       style="fill:#000000;fill-opacity:1;fill-rule:nonzero;stroke:none;stroke-width:0.352778"
       id="path10896" /><path
       d="m 180.9806,248.23905 -1.39359,-1.10786 c 0,0 0.26142,-2.93202 -0.0466,-7.2149 l 1.40376,1.30302 0.0411,7.01974 z"
       style="fill:#000000;fill-opacity:1;fill-rule:nonzero;stroke:none;stroke-width:0.352778"
       id="path10898" /><path
       d="m 114.12208,245.00478 1.33214,1.18067 c 0,0 5.35104,-1.08967 9.62797,-1.52654 l -1.52789,-1.15572 -9.43222,1.49989 z"
       style="fill:#000000;fill-opacity:1;fill-rule:nonzero;stroke:none;stroke-width:0.352778"
       id="path10900" /><path
       d="m 140.69634,41.479571 h 53.68197 v 20.400944 h -53.68197 z"
       style="fill:#e6e6e6;fill-opacity:1;fill-rule:nonzero;stroke:none;stroke-width:0.352778"
       id="path10902" /><path
       d="m 165.43719,52.818607 h 8.5238 v 8.174185 h -8.5238 z"
       style="fill:#ffffff;fill-opacity:1;fill-rule:nonzero;stroke:#000000;stroke-width:0.188551;stroke-linecap:round;stroke-linejoin:bevel;stroke-miterlimit:4;stroke-dasharray:none;stroke-opacity:1"
       id="path10906" /><path
       d="m 174.60969,52.818607 h 8.52378 v 8.174185 h -8.52378 z"
       style="fill:#ffffff;fill-opacity:1;fill-rule:nonzero;stroke:#000000;stroke-width:0.188551;stroke-linecap:round;stroke-linejoin:bevel;stroke-miterlimit:4;stroke-dasharray:none;stroke-opacity:1"
       id="path10910" /><path
       d="m 183.79233,52.818607 h 8.52378 v 8.174185 h -8.52378 z"
       style="fill:#ffffff;fill-opacity:1;fill-rule:nonzero;stroke:#000000;stroke-width:0.188551;stroke-linecap:round;stroke-linejoin:bevel;stroke-miterlimit:4;stroke-dasharray:none;stroke-opacity:1"
       id="path10914" /><path
       d="m 179.18618,60.147806 c -0.0712,-0.65829 -0.091,-1.245452 -0.0712,-1.772926 0.75335,-0.289137 1.45163,-0.549058 1.45163,-0.549058 l -0.16694,-0.188392 -1.258,0.297601 c 0.0411,-0.52409 0.12754,-0.985515 0.24151,-1.385573 l 0.32287,-0.11088 -0.0148,-0.147328 -0.23177,0.01656 c 0.81607,-2.394384 2.76218,-2.490056 2.76218,-2.490056 l -0.053,-0.155785 c -1.79907,0.258241 -2.79352,1.445277 -3.34307,2.692417 l -2.07575,0.150288 0.47667,0.421634 -0.79785,1.650581 c 0,0 0.39745,0.352217 0.75676,0.615114 0.0643,-0.06432 0.49319,-0.249769 1.01605,-0.459746 -0.0627,0.525778 -0.0598,0.873339 -0.0598,0.873339 z m -1.88169,-1.777582 0.20338,-1.195924 0.0148,0.0096 1.12919,-0.385241 c -0.16907,0.469482 -0.27839,0.925843 -0.35253,1.336052 z m 3.85619,-0.145632 c 0.11266,-0.02832 0.053,-0.01488 0.11266,-0.02832 -0.82413,-1.536285 -0.89701,-2.473544 -0.89701,-2.473544 l -0.54446,0.474561 c 0,0 0.73471,1.628565 1.32876,2.027351 z m -2.67447,-1.954534 c 0,0 -1.48806,-1.352981 -2.38337,-2.475672 -0.32117,0.337409 -0.65717,0.740834 -0.65717,0.740834 0,0 1.44823,1.169268 3.04054,1.734838 z"
       style="fill:#000000;fill-opacity:1;fill-rule:nonzero;stroke:none;stroke-width:0.352778"
       id="path10916" /><path
       d="m 188.77771,60.695175 c 0.0382,-0.621881 0.13727,-1.180675 0.27456,-1.683597 0.59913,-0.198552 1.24317,-0.375505 1.74145,-0.408513 l -0.53303,-0.510978 -0.9847,0.233257 c 0.84912,-2.235631 2.44269,-3.095426 2.44269,-3.095426 v -0.147312 c -1.24613,0.426721 -2.46429,2.172967 -3.2024,3.423091 l -1.83382,0.431377 0.66862,0.73109 c 0,0 0.27626,-0.122344 0.67666,-0.281089 -0.13219,0.254425 -0.22499,0.43985 -0.22499,0.43985 l 0.97834,0.86825 z m -0.91183,-2.79824 c 0.12881,-0.190073 0.12881,-0.170177 0.12881,-0.170177 -1.43299,-0.714594 -1.5029,-0.828474 -2.98715,-2.023966 l -0.60591,0.917787 c 0,0 3.19096,1.276356 3.46255,1.276356 z m 0.69319,-0.107521 c -0.0547,-0.710778 -0.0463,-1.304724 0,-1.797477 0.46693,-0.195161 1.02454,-0.365345 1.64866,-0.431378 -0.20677,-0.08928 -0.53134,-0.486409 -0.53134,-0.486409 l -1.05758,0.392001 c 0.16865,-1.127764 0.50973,-1.557869 0.50973,-1.557869 l -1.02283,-0.793754 v 2.5434 l -1.60544,0.596889 0.59107,0.590562 c 0,0 0.3788,-0.320897 1.01437,-0.644738 v 1.109556 z"
       style="fill:#000000;fill-opacity:1;fill-rule:nonzero;stroke:none;stroke-width:0.352778"
       id="path10918" /><path
       d="m 170.08149,59.978893 c -0.10593,-0.836514 -0.0877,-1.555749 0.0165,-2.174239 l 0.92835,-0.580817 -0.12542,-0.146905 -0.69022,0.185001 c 0.67497,-2.561184 2.863,-3.107282 2.863,-3.107282 V 53.83249 c -2.11007,0.527474 -3.11977,2.233943 -3.59984,3.627987 l -1.93127,0.514346 0.9203,0.854715 0.75632,-0.472858 c -0.14576,0.636698 -0.17203,1.079932 -0.17203,1.079932 z m 1.60883,-0.58505 c -0.48006,-2.065454 0.75124,-3.29777 0.75124,-3.29777 0,0 -0.19828,-0.03128 -0.41693,-0.04104 -0.74658,0.77893 -1.54611,3.025993 -1.54611,3.025993 z m -2.3088,-2.953609 c 0,0 -1.48806,-1.354244 -2.38506,-2.475664 -0.32117,0.337393 -0.65548,0.740835 -0.65548,0.740835 0,0 1.44654,1.169251 3.04054,1.734829 z"
       style="fill:#000000;fill-opacity:1;fill-rule:nonzero;stroke:none;stroke-width:0.352778"
       id="path10920" /><path
       d="m 174.5652,42.840591 h 8.52547 v 8.174178 h -8.52547 z"
       style="fill:#ffffff;fill-opacity:1;fill-rule:nonzero;stroke:#000000;stroke-width:0.188551;stroke-linecap:round;stroke-linejoin:bevel;stroke-miterlimit:4;stroke-dasharray:none;stroke-opacity:1"
       id="path10924" /><path
       d="m 183.79233,42.840591 h 8.52548 v 8.174178 h -8.52548 z"
       style="fill:#ffffff;fill-opacity:1;fill-rule:nonzero;stroke:#000000;stroke-width:0.188551;stroke-linecap:round;stroke-linejoin:bevel;stroke-miterlimit:4;stroke-dasharray:none;stroke-opacity:1"
       id="path10928" /><path
       d="m 178.05106,49.876853 0.78428,-0.491065 c 1.21648,-0.653218 2.17322,-0.577018 2.17322,-0.577018 -0.18856,-0.231561 -0.33092,-0.471601 -0.51481,-0.684962 l -0.82751,0.221833 c -0.0165,-0.477946 0.0148,-0.974091 0.0796,-1.445261 0.63684,-0.187113 1.10208,-0.236649 1.10208,-0.236649 -0.18855,-0.231552 -0.33092,-0.471177 -0.51482,-0.684538 l -0.4631,0.140561 c 0.0924,-0.484298 0.1949,-0.894507 0.27626,-1.189156 1.15842,-0.211673 2.17659,-0.352217 2.17659,-0.352217 -0.18727,-0.203193 -0.21864,-0.221401 -0.51481,-0.601562 -3.63289,1.015171 -6.46327,1.248428 -6.46327,1.248428 l 1.06732,0.894507 0.78641,-0.43181 c 0.24998,-0.11892 0.61735,-0.234529 1.03766,-0.345433 -0.13558,0.289561 -0.31269,0.831843 -0.48641,1.419021 l -1.05631,0.319185 0.76309,0.710778 c -0.18515,0.681578 -0.32413,1.230636 -0.32413,1.230636 z m 0.086,-1.122691 c -0.0148,-0.386929 0,-0.785707 0.0445,-1.174324 l 0.21524,-0.135472 c 0.21863,-0.117241 0.43853,-0.216753 0.65209,-0.302689 -0.16228,0.57405 -0.27796,1.023627 -0.27796,1.023627 0,0 0.26482,0.0978 0.64362,0.246377 z m 0.18686,-2.166199 c 0.10089,-0.562618 0.22032,-1.037179 0.30465,-1.34282 0.35761,-0.08472 0.73471,-0.162145 1.11224,-0.236657 -0.13093,0.297617 -0.29151,0.782331 -0.44363,1.284828 z"
       style="fill:#000000;fill-opacity:1;fill-rule:nonzero;stroke:none;stroke-width:0.352778"
       id="path10930" /><path
       d="m 186.59772,50.151174 3.0291,-1.213716 -0.0165,-0.208272 -2.8948,0.451281 c 0.0463,-0.199816 0.11903,-0.461025 0.19703,-0.725602 l 0.0428,0.03936 c 0.77454,-0.773858 1.77915,-1.173916 2.64013,-1.534589 -0.0432,-0.06768 -0.12414,-0.135464 -0.19703,-0.218016 l -0.8758,0.233256 c -0.0643,-0.226904 -0.10425,-0.458049 -0.12245,-0.689618 0.38897,-0.0876 0.78301,-0.172296 1.1652,-0.249769 0.15084,0.337409 0.33939,0.709515 0.57455,1.09306 -0.0877,0.517729 -0.26821,1.671749 -0.26312,2.369399 0.5576,-1.686557 1.18172,-2.316487 1.23978,-2.390999 0.0428,-0.05464 -0.46524,-0.162129 -0.74827,-0.216745 -0.053,-0.292521 -0.10762,-0.60029 -0.17034,-0.978747 0.90674,-0.176953 1.60035,-0.294217 1.60035,-0.294217 -0.18727,-0.201937 -0.21694,-0.220129 -0.51311,-0.60029 -0.39871,0.11052 -0.79107,0.212937 -1.17833,0.310729 -0.0877,-0.575322 -0.16568,-1.1591 -0.20042,-1.623917 -0.53938,0.620186 -0.81437,1.098131 -0.81437,1.098131 0,0 0.0826,0.287449 0.25168,0.712467 -0.33092,0.07952 -0.64574,0.147328 -0.95843,0.21676 0.0165,-0.534257 0.10761,-0.985531 0.16567,-1.23022 l 0.68345,-0.2794 0.0217,-0.185425 -2.85369,0.353921 0.44362,0.372105 c -0.14533,0.180337 -0.32074,0.770467 -0.47328,1.374149 -1.24444,0.228176 -2.05245,0.335705 -2.05245,0.335705 l 1.06605,0.894506 0.7864,-0.431377 c 0,-8e-4 0.0165,-0.0032 0.0165,-0.0048 -0.0894,0.403433 -0.15084,0.70781 -0.15084,0.70781 l 0.53304,0.49785 -0.87243,1.203964 z m 0.44193,-2.779624 c -0.0182,-0.259497 -0.0182,-0.504194 -0.0182,-0.735755 0.24024,-0.06944 0.50336,-0.138856 0.78301,-0.208288 -0.0165,0.10584 -0.0165,0.218016 -0.02,0.335713 0.24025,0.127 0.34787,0.186688 0.50675,0.272632 z m 0.0153,-1.364405 c 0.0246,-0.401753 0.0627,-0.739146 0.10089,-0.991875 l 0.0496,0.04272 1.1453,-0.471169 c -0.1555,0.226472 -0.34405,0.615098 -0.46014,1.2501 -0.29279,0.06136 -0.56947,0.118921 -0.83556,0.170184 z"
       style="fill:#000000;fill-opacity:1;fill-rule:nonzero;stroke:none;stroke-width:0.352778"
       id="path10932" /><path
       d="m 165.43719,42.840591 h 8.5238 v 8.174178 h -8.5238 z"
       style="fill:#ffffff;fill-opacity:1;fill-rule:nonzero;stroke:#000000;stroke-width:0.188551;stroke-linecap:round;stroke-linejoin:bevel;stroke-miterlimit:4;stroke-dasharray:none;stroke-opacity:1"
       id="path10936" /><path
       d="m 170.08149,50.000886 c -0.10593,-0.836931 -0.0877,-1.554493 0.0165,-2.174679 l 0.92835,-0.580394 -0.12542,-0.145616 -0.69192,0.18372 c 0.67667,-2.561592 2.86343,-3.105578 2.86343,-3.105578 v -0.324281 c -2.1088,0.527898 -3.1185,2.236055 -3.60026,3.628412 l -1.92958,0.514345 0.9186,0.856403 0.75802,-0.474553 c -0.14576,0.638394 -0.17203,1.079923 -0.17203,1.079923 z m 1.60883,-0.585474 c -0.48006,-2.065447 0.75124,-3.297362 0.75124,-3.297362 0,0 -0.19703,-0.03136 -0.41693,-0.04152 -0.74658,0.778939 -1.54611,3.026426 -1.54611,3.026426 z m -2.3088,-2.953185 c 0,0 -1.48806,-1.352989 -2.38336,-2.475664 -0.32118,0.337393 -0.65718,0.740834 -0.65718,0.740834 0,0 1.44654,1.169252 3.04054,1.73483 z"
       style="fill:#000000;fill-opacity:1;fill-rule:nonzero;stroke:none;stroke-width:0.352778"
       id="path10938" /><path
       d="M 77.249124,41.479571 H 130.9294 V 61.880515 H 77.249124 Z"
       style="fill:#e6e6e6;fill-opacity:1;fill-rule:nonzero;stroke:none;stroke-width:0.352778"
       id="path10940" /><path
       d="m 120.96076,52.818607 h 8.52549 v 8.174185 h -8.52549 z"
       style="fill:#ffffff;fill-opacity:1;fill-rule:nonzero;stroke:#000000;stroke-width:0.188551;stroke-linecap:round;stroke-linejoin:bevel;stroke-miterlimit:4;stroke-dasharray:none;stroke-opacity:1"
       id="path10944" /><path
       d="m 126.98889,60.422127 c 0,0 -1.31901,-1.187452 -1.34231,-1.29794 -0.0217,-0.109201 -0.72497,0.83481 -0.72497,0.83481 0,0 0.90207,0.331057 2.06728,0.46313 z m -2.57193,-1.215388 c 0,0 1.41012,-0.942355 2.90623,-1.233604 l -0.30633,-0.180337 -1.11225,0.225217 c 0.0284,-0.494466 0.0762,-0.929651 0.14407,-1.306428 0.41057,-0.170593 0.87073,-0.325953 1.34062,-0.416977 l -0.30634,-0.181609 -0.94996,0.193465 c 0.38558,-1.602749 1.19825,-2.136575 2.52573,-2.91721 -1.94314,0.254425 -2.89479,1.923215 -3.32824,3.078922 l -1.77619,0.358985 0.92707,0.701043 c 0,0 0.24491,-0.160441 0.62539,-0.367034 -0.0679,0.259513 -0.0992,0.425026 -0.0992,0.425026 l 0.64405,0.483033 -2.16516,0.436466 z m 0.25127,-3.608092 c 0,0 -1.20969,-0.792066 -1.81391,-1.835581 -0.53938,0.285745 -1.05587,0.472865 -1.05587,0.472865 0,0 0.87877,1.240372 2.86978,1.362716 z"
       style="fill:#000000;fill-opacity:1;fill-rule:nonzero;stroke:none;stroke-width:0.352778"
       id="path10946" /><path
       d="m 120.96585,42.478214 h 8.52547 V 50.6524 h -8.52547 z"
       style="fill:#ffffff;fill-opacity:1;fill-rule:nonzero;stroke:#000000;stroke-width:0.188551;stroke-linecap:round;stroke-linejoin:bevel;stroke-miterlimit:4;stroke-dasharray:none;stroke-opacity:1"
       id="path10950" /><path
       d="m 124.33054,49.878541 c -0.10089,-0.722626 -0.12882,-1.455428 -0.12247,-2.120062 0.74319,-0.262897 1.50291,-0.451274 2.26771,-0.606634 l 0.15889,0.958851 1.26096,0.543986 c -0.29108,-0.315809 -0.54108,-0.99526 -0.72963,-1.635342 0.51947,-0.09444 1.04105,-0.180352 1.55926,-0.269664 -0.17416,-0.186697 -0.2716,-0.325553 -0.5449,-0.676075 -0.4021,0.110521 -0.79911,0.214633 -1.18808,0.312425 -0.11266,-0.454665 -0.17541,-0.788674 -0.17541,-0.788674 l -0.47033,-0.208705 0.55634,-0.178224 0.038,-0.231561 -0.45846,0.0512 c 0.71819,-1.137931 1.65967,-1.653549 1.65967,-1.653549 l -0.0877,-0.122776 c -0.39023,-0.01312 -2.34015,1.275092 -2.34015,1.275092 l 0.64871,0.516049 -1.95797,0.223098 c 0,-0.004 0,-0.0444 0,-0.0444 -0.0148,0.01312 -0.0148,0.03136 -0.0228,0.04608 l -0.7631,0.0876 0.49785,0.471586 c -0.17033,0.411481 -0.30761,0.849642 -0.42032,1.268324 -1.19147,0.219712 -1.96262,0.322153 -1.96262,0.322153 l 1.05588,0.949539 c 0.22669,-0.117721 0.45506,-0.226905 0.68684,-0.325969 -0.10594,0.527473 -0.1572,0.899586 -0.1572,0.899586 0,0 0.35889,0.42165 1.00801,0.936003 z m -0.0957,-2.884185 c 0.0199,-0.380153 0.0461,-0.709082 0.0763,-0.985523 l 0.028,0.02664 1.85204,-0.596906 0.1822,1.097708 c -0.78132,0.185424 -1.49783,0.334009 -2.14017,0.458057 z m 0.091,-2.05867 c 0.0211,0 0.0444,0 0.0661,-8e-4 0,0 -1.06268,-0.694274 -1.59401,-1.612069 -0.47328,0.251033 -0.92835,0.414873 -0.92835,0.414873 0,0 1.7262,1.177284 2.45625,1.198884 z"
       style="fill:#000000;fill-opacity:1;fill-rule:nonzero;stroke:none;stroke-width:0.352778"
       id="path10952" /><path
       d="m 111.67558,42.478214 h 8.52547 V 50.6524 h -8.52547 z"
       style="fill:#ffffff;fill-opacity:1;fill-rule:nonzero;stroke:#000000;stroke-width:0.188551;stroke-linecap:round;stroke-linejoin:bevel;stroke-miterlimit:4;stroke-dasharray:none;stroke-opacity:1"
       id="path10956" /><path
       d="m 116.31818,49.638941 c -0.10594,-0.836947 -0.0877,-1.554493 0.0148,-2.174679 l 0.92877,-0.580394 -0.12585,-0.145632 -0.69022,0.183736 c 0.67539,-2.561608 2.86344,-3.105594 2.86344,-3.105594 v -0.324273 c -2.11051,0.529178 -3.11978,2.235631 -3.59984,3.627988 l -1.93169,0.514345 0.92029,0.856835 0.75633,-0.473289 c -0.14577,0.636698 -0.17204,1.078235 -0.17204,1.078235 z m 1.60712,-0.583786 c -0.48005,-2.067151 0.75336,-3.299051 0.75336,-3.299051 0,0 -0.19872,-0.03008 -0.41904,-0.04152 -0.74616,0.778939 -1.54571,3.025994 -1.54571,3.025994 z m -2.3071,-2.955313 c 0,0 -1.48977,-1.352549 -2.38506,-2.475232 -0.32117,0.338673 -0.65719,0.740834 -0.65719,0.740834 0,0 1.44826,1.168828 3.04225,1.734398 z"
       style="fill:#000000;fill-opacity:1;fill-rule:nonzero;stroke:none;stroke-width:0.352778"
       id="path10958" /><path
       d="m 102.38532,42.478214 h 8.52546 V 50.6524 h -8.52546 z"
       style="fill:#ffffff;fill-opacity:1;fill-rule:nonzero;stroke:#000000;stroke-width:0.188551;stroke-linecap:round;stroke-linejoin:bevel;stroke-miterlimit:4;stroke-dasharray:none;stroke-opacity:1"
       id="path10962" /><path
       d="m 107.0279,49.638941 c -0.10594,-0.836947 -0.0877,-1.554493 0.0153,-2.174679 l 0.92836,-0.580394 -0.12585,-0.145632 -0.69022,0.183736 c 0.67539,-2.561608 2.86343,-3.105594 2.86343,-3.105594 v -0.324273 c -2.11007,0.529178 -3.11977,2.235631 -3.59984,3.627988 l -1.93169,0.514345 0.92029,0.856835 0.75633,-0.473289 c -0.14533,0.636698 -0.17203,1.078235 -0.17203,1.078235 z m 1.60714,-0.583786 c -0.47965,-2.067151 0.75336,-3.299051 0.75336,-3.299051 0,0 -0.19873,-0.03008 -0.41906,-0.04152 -0.74615,0.778939 -1.54569,3.025994 -1.54569,3.025994 z m -2.30711,-2.955313 c 0,0 -1.48976,-1.352549 -2.38506,-2.475232 -0.32117,0.338673 -0.65717,0.740834 -0.65717,0.740834 0,0 1.44823,1.168828 3.04223,1.734398 z"
       style="fill:#000000;fill-opacity:1;fill-rule:nonzero;stroke:none;stroke-width:0.352778"
       id="path10964" /><path
       d="m 81.270984,45.787425 1.39358,1.107867 c 0,0 -0.26779,7.345711 0.0466,11.628605 l -1.40375,-1.303028 -0.0411,-11.433444 z"
       style="fill:#000000;fill-opacity:1;fill-rule:nonzero;stroke:none;stroke-width:0.352778"
       id="path10966" /><path
       d="m 85.067844,48.760506 1.39359,1.108291 c 0,0 -0.26143,2.931602 0.0466,7.216175 l -1.40206,-1.303028 -0.0428,-7.021438 z"
       style="fill:#000000;fill-opacity:1;fill-rule:nonzero;stroke:none;stroke-width:0.352778"
       id="path10968" /><path
       d="m 88.864715,48.760506 1.39358,1.108291 c 0,0 -0.26143,2.931602 0.0466,7.216175 l -1.40375,-1.303028 -0.0411,-7.021438 z"
       style="fill:#000000;fill-opacity:1;fill-rule:nonzero;stroke:none;stroke-width:0.352778"
       id="path10970" /><path
       d="m 155.72322,51.99522 -1.33214,-1.178996 c 0,0 -5.35104,1.087972 -9.62628,1.524429 l 1.5262,1.156132 9.43391,-1.499869 z"
       style="fill:#000000;fill-opacity:1;fill-rule:nonzero;stroke:none;stroke-width:0.352778"
       id="path10972" /><path
       style="fill:#000000;stroke-width:0.999998"
       d="m 19.402457,33.828363 c -0.15733,0 0.37506,0.48673 0.58627,0.8344 l 0.384,0.63213 -0.10344,0.89205 c -0.057,0.49062 -0.13225,1.56346 -0.16748,2.38408 -0.0577,1.34458 -0.0411,1.56746 0.16772,2.25502 0.12746,0.41964 0.2073,0.78742 0.17743,0.81729 -0.0846,0.0846 -0.50482,-0.051 -0.88537,-0.28585 l -0.34606,-0.21357 0.0293,-3.0356 c 0.0218,-2.25331 -0.007,-3.19496 -0.11255,-3.65404 -0.16338,-0.7125 0.73538,-0.62591 0.27018,-0.62591 z m -1.63789,2.16333 c 0.15705,0.0542 0.31691,0.19735 0.35524,0.31812 0.0383,0.12077 0.0762,0.99661 0.084,1.94631 0.0132,1.59244 -3.2e-4,1.72672 -0.17417,1.7267 -0.10365,-3e-5 -0.30562,-0.0768 -0.44877,-0.17057 -0.26005,-0.17039 -0.26027,-0.17205 -0.26027,-2.00003 0,-1.00623 0.0356,-1.84965 0.0792,-1.87428 0.0435,-0.0246 0.20769,0 0.36474,0.0538 z m -1.62348,0.0578 c 0.20072,0.17127 0.21895,0.32175 0.24928,2.05785 0.032,1.83098 0.028,1.87166 -0.17846,1.81048 -0.72279,-0.21416 -0.79503,-0.49215 -0.70889,-2.72797 0.0452,-1.17346 0.0723,-1.32515 0.23628,-1.32515 0.10185,0 0.28268,0.0831 0.40179,0.18479 z m -2.05858,0.42415 c -0.0495,0 0.008,0.17409 -0.0358,0.29227 -0.18547,0.48966 -0.29202,0.50839 -2.98961,0.52569 -1.4043797,0.008 -2.7055297,0.0535 -2.8914497,0.0989 l -0.33802,0.0825 0.11142,-0.40814 c 0.0613,-0.22448 0.15236,-0.45856 0.20241,-0.52019 0.10449,-0.12871 6.0879597,-0.071 5.9411097,-0.071 z m 19.34105,1.13606 c 0,0.84491 -0.0315,1.09645 -0.13231,1.05769 -0.3952,-0.15196 -2.18446,-0.3811 -3.63565,-0.4656 -2.31343,-0.13469 -5.28645,0.0507 -7.08045,0.44151 -0.0496,0.0108 -0.0997,-0.46687 -0.11167,-1.06147 -0.0183,-0.91848 0.002,-1.07384 0.1368,-1.03277 0.66136,0.20183 3.80642,0.47774 5.42697,0.47608 1.5393,-0.002 4.5887,-0.27861 5.23792,-0.47587 0.13379,-0.0407 0.15839,0.12406 0.15839,1.06043 z m -21.24178,1.28201 c 0.14101,0.14101 0.0648,0.42606 -0.174,0.65035 -0.2133,0.20038 -0.36448,0.22958 -1.18862,0.22958 -0.51932,0 -1.0939997,0.043 -1.2770597,0.0955 l -0.33284,0.0955 0.12671,-0.43769 c 0.0811,-0.28005 0.22024,-0.48502 0.38635,-0.56908 0.27216,-0.13772 2.3321397,-0.1914 2.4594597,-0.0641 z m 18.50418,20.97769 c -0.0844,-0.01 0.0411,0.47214 0.0238,0.87292 l -0.0316,0.72868 h -2.72958 -2.72957 l -6e-5,-0.84475 -4e-5,-0.84475 2.70585,-0.0282 c 2.20931,-0.023 2.88648,0.12999 2.76122,0.11606 z m 0,23.124845 c -0.0829,-0.0184 0.0411,0.47216 0.0238,0.87293 l -0.0316,0.72868 h -2.72958 -2.72957 l -6e-5,-0.84474 -4e-5,-0.84475 2.70585,-0.0282 c 2.20931,-0.023 2.88426,0.14341 2.76122,0.11606 z m 8e-4,22.975392 c 0,-0.0342 0.0439,0.41699 0.0439,0.87288 v 0.8289 l -2.75601,-0.0281 -2.75603,-0.0281 5e-5,-0.822 4e-5,-0.82201 2.71198,-0.0227 c 1.4916,-0.0126 2.75599,0.0554 2.75599,0.0212 z m -7e-5,23.12485 c -0.0342,0 0.044,0.4162 0.044,0.87114 v 0.82714 h -2.80248 -2.80248 l 0.0306,-0.87114 0.0306,-0.87114 h 2.72776 c 1.50027,0 2.80606,0.044 2.77181,0.044 z m 2.70325,23.87563 0.0334,1.05876 -0.26398,-0.0551 c -0.59922,-0.12529 -1.84079,-0.26169 -3.44989,-0.37895 -2.05026,-0.14942 -5.18769,0.0223 -6.95102,0.38045 l -0.31677,0.0643 0.0334,-1.06408 c 0.0184,-0.58524 0.0747,-1.06409 0.12508,-1.06409 0.0504,0 0.42222,0.0695 0.8262,0.15451 0.40399,0.085 1.58866,0.20996 2.63262,0.27774 2.08063,0.13506 4.93951,0.0116 6.45757,-0.2789 0.44066,-0.0843 0.80991,-0.15332 0.82058,-0.15333 0.0107,0 -0.52981,1.05875 0.0528,1.05875 z m 5.89382,24.65265 v 11.35172 h -11.35172 -11.35172 l 0.0268,-11.32485 0.0268,-11.32484 11.32485,-0.0268 11.32484,-0.0268 z m -21.22418,-0.002 v 9.87097 l 5.18423,0.0284 c 2.85133,0.0156 5.23563,-0.003 5.29844,-0.0423 0.17363,-0.10739 -0.94083,-1.44216 -2.43164,-2.91235 -0.72141,-0.71143 -1.35085,-1.29352 -1.39874,-1.29352 -0.0479,0 -0.37706,0.52033 -0.73147,1.15629 -0.67446,1.21025 -0.80181,1.36515 -0.97771,1.18924 -0.0722,-0.0722 0.0559,-0.57964 0.3941,-1.56186 l 0.50104,-1.4549 -0.30569,-0.25173 c -0.90902,-0.74851 -4.19192,-2.7996 -4.81801,-3.01017 -0.0803,-0.0271 0.21841,-0.43112 0.74763,-1.01128 l 0.88142,-0.96627 0.95571,0.81708 c 0.52564,0.44941 1.40041,1.23783 1.94391,1.75204 0.54352,0.51423 1.04729,0.91196 1.11948,0.88386 0.0722,-0.0281 0.34241,-0.69823 0.60048,-1.48916 l 0.46921,-1.43806 0.52608,0.97017 0.52607,0.97016 -0.57093,1.07984 c -0.5291,1.00069 -0.55874,1.09404 -0.40436,1.27352 1.35979,1.58099 1.80215,2.14299 2.355,2.99191 0.66642,1.02331 0.98007,1.65738 1.03426,2.09074 l 0.0304,0.24288 2.19104,-0.003 c 1.20508,-0.002 2.23858,-0.004 2.29666,-0.005 0.24586,-0.005 0.0581,-0.21427 -0.70427,-0.7837 -0.88106,-0.65809 -2.48911,-1.47929 -3.12982,-1.59836 -0.46441,-0.0863 -0.46647,-0.0692 0.13198,-1.09393 0.5891,-1.00869 0.62198,-1.02632 1.17857,-0.63174 1.02955,0.72987 2.30229,2.14505 3.10094,3.448 l 0.40607,0.6625 1.69932,-0.029 1.69931,-0.0289 0.0291,-9.60896 c 0.016,-5.28492 0.003,-9.71586 -0.0284,-9.84654 l -0.0575,-0.23758 h -9.87093 -9.87092 v 9.87046 z m 15.62775,-8.9572 c 0,-0.0391 -0.26498,0.57177 -0.58886,1.1837 l -0.58886,1.11258 0.38855,1.37797 c 0.21369,0.75789 0.47868,1.67995 0.58885,2.04905 0.11018,0.36909 0.20032,0.78486 0.20032,0.92392 0,0.21276 0.0523,0.25286 0.32971,0.25286 0.24944,0 0.30411,0.0321 0.22459,0.132 -0.0578,0.0726 -0.32898,0.57152 -0.60256,1.10872 -0.2736,0.53721 -0.54375,0.97673 -0.60034,0.97673 -0.0566,0 -0.42085,-0.0444 -0.80948,-0.0986 -1.43519,-0.20027 -1.7097,-0.21638 -1.7097,-0.10037 0,0.0626 0.28383,0.42355 0.63076,0.80215 l 0.63076,0.68836 -0.63076,0.76256 c -0.34693,0.41939 -0.63076,0.81779 -0.63076,0.88532 0,0.0904 0.80351,0.12276 3.05363,0.12276 2.71417,0 3.08973,0.0206 3.37825,0.18478 0.17854,0.10165 0.31306,0.20972 0.29894,0.24018 -0.0142,0.0304 -0.51714,0.87389 -1.11784,1.87427 -0.6449,1.07405 -1.15768,1.81889 -1.25216,1.81889 -0.1121,0 -0.14327,-0.0711 -0.10407,-0.23758 0.13071,-0.55547 0.30928,-1.88396 0.25988,-1.93336 -0.18658,-0.18659 -1.71018,-0.30112 -4.04144,-0.3038 -2.11761,-0.002 -2.77547,0.0315 -3.32555,0.17173 -0.37715,0.0961 -0.69848,0.16206 -0.71405,0.14648 -0.0155,-0.0155 0.16982,-0.4633 0.41199,-0.99494 l 0.4403,-0.96665 h 0.65679 c 0.41804,0 0.6992,-0.0511 0.77347,-0.14059 0.13984,-0.1685 0.94982,-3.04584 0.88932,-3.15919 -0.0615,-0.11514 -3.62221,-0.0954 -4.6759,0.0259 -0.49365,0.0568 -1.15881,0.17134 -1.47816,0.25446 -0.31933,0.0832 -0.59831,0.13343 -0.61993,0.11181 -0.0217,-0.0217 0.13952,-0.50088 0.3581,-1.06499 l 0.3974,-1.02567 -0.33037,-1.33501 c -0.18169,-0.73426 -0.50011,-1.79385 -0.70758,-2.35464 l -0.37723,-1.0196 0.26433,-0.71626 c 0.14537,-0.39394 0.3572,-0.95383 0.47073,-1.24422 l 0.20642,-0.52797 5.02628,-0.0274 c 2.76444,-0.0151 5.02626,0.0827 5.02626,0.0436 z m -5.2759,1.96362 c 0.005,0.19978 0.59303,2.29505 0.66296,2.36499 0.0336,0.0336 0.33684,0.12187 0.6739,0.19619 0.33708,0.0744 0.96444,0.21236 1.39416,0.30674 0.4297,0.0944 0.80286,0.15001 0.82924,0.12364 0.0531,-0.0531 -0.45214,-1.61443 -0.59603,-1.84159 -0.0551,-0.0871 -0.0273,-0.30558 0.0709,-0.55549 0.089,-0.22658 0.13049,-0.44329 0.0922,-0.48159 -0.092,-0.092 -1.2902,-0.21115 -2.31274,-0.22988 -0.59401,-0.0109 -0.81731,0.0212 -0.8146,0.11699 z m -3.93942,0.0701 -0.26732,0.10165 0.23209,0.9233 c 0.24651,0.98071 0.40666,1.17528 0.60645,0.7368 0.09,-0.1976 0.1827,-0.25681 0.34469,-0.22021 1.19203,0.26927 2.13122,0.44429 2.17208,0.40479 0.0274,-0.0265 -0.0288,-0.2671 -0.12505,-0.53465 -0.16616,-0.46202 -0.16469,-0.51334 0.0293,-1.02366 0.11231,-0.29548 0.20422,-0.55652 0.20425,-0.58008 1.1e-4,-0.084 -2.91581,0.19206 -3.19647,0.19206 z m 0.66229,3.45804 c 0,-0.0966 0.0788,0.42558 0.17518,0.73122 0.12257,0.38884 0.24148,0.57352 0.39597,0.615 0.37301,0.10017 2.5803,0.0685 2.64609,-0.038 0.0665,-0.10752 -0.12439,-0.99419 -0.27957,-1.29894 -0.0826,-0.16217 -0.26803,-0.18478 -1.51588,-0.18478 -1.25504,0 -1.42179,0.33042 -1.42179,0.1755 z m 4.28858,0.0162 c 0,0.0557 0.0256,0.37996 0.12177,0.73915 l 0.17499,0.65307 h 1.36228 1.36227 l -0.0733,-0.48866 c -0.11541,-0.76959 -0.0958,-0.75476 -1.09374,-0.82856 -0.50382,-0.0373 -0.9873,-0.0833 -1.07442,-0.10217 -0.32365,-0.0703 -0.77988,-0.0708 -0.77988,0.0271 z m 9.86108,27.92256 v 11.32485 l -11.32484,-0.0255 -11.32484,-0.0255 -0.0268,-11.29941 -0.0268,-11.29938 h 11.35165 11.35172 z m -9.65434,-9.85852 c 0,0.0605 0.24579,1.0137 0.61689,2.13825 l 0.67473,2.04466 -0.20936,0.34318 c -0.11514,0.18874 -0.16984,0.34534 -0.12154,0.34799 0.0483,0.003 1.33512,0.001 2.85962,-0.004 1.52449,-0.005 2.77079,0.0283 2.76954,0.0744 -10e-4,0.0461 -0.26457,0.58232 -0.58518,1.19162 l -0.58292,1.10782 0.27615,1.00403 c 0.15188,0.55223 0.41522,1.48508 0.58519,2.07303 0.16997,0.58799 0.30903,1.12587 0.30903,1.19534 0,0.0694 -0.14067,0.33077 -0.31261,0.58067 -0.17194,0.2499 -0.28281,0.48416 -0.24639,0.52059 0.0365,0.0365 0.22462,0.0662 0.41821,0.0662 0.19359,0 0.35198,0.0306 0.35198,0.0682 0,0.0939 -0.94732,1.97128 -1.0464,2.07373 -0.0441,0.0455 -0.49808,0.01 -1.00897,-0.0792 -1.17962,-0.20572 -3.63016,-0.22224 -3.70584,-0.025 -0.0289,0.0753 0.0847,0.44359 0.25249,0.81834 0.45851,1.02404 0.79415,2.21758 0.66106,2.35068 -0.0769,0.0769 -0.18006,-0.0477 -0.33947,-0.40986 -0.26547,-0.60321 -0.85471,-1.48424 -1.43235,-2.14158 l -0.40398,-0.45973 -0.45867,0.12349 c -0.25227,0.0679 -0.47895,0.10323 -0.50375,0.0784 -0.0248,-0.0248 0.003,-0.17356 0.0635,-0.33059 0.19816,-0.52121 0.1262,-0.64507 -0.8154,-1.40342 -1.05907,-0.85294 -2.28352,-1.72157 -2.41695,-1.7146 -0.05,0.003 -0.6344,0.71811 -1.29869,1.58997 -0.66431,0.87186 -1.24638,1.60904 -1.29352,1.63818 -0.0471,0.0292 -0.13275,0.0239 -0.19025,-0.0116 -0.0584,-0.0361 0.16557,-0.46936 0.50837,-0.98298 1.07729,-1.61409 1.62145,-2.54446 1.55298,-2.65525 -0.11047,-0.17875 -1.48132,-0.94451 -3.4054,-1.90227 l -1.81818,-0.90504 0.67091,-1.13872 c 0.369,-0.62629 0.69541,-1.16322 0.72536,-1.19316 0.13955,-0.13955 2.66422,1.37218 4.13854,2.47811 0.46339,0.3476 0.88585,0.60524 0.93881,0.57252 0.11265,-0.0696 1.11041,-2.15856 1.74877,-3.66126 0.82063,-1.93176 1.78402,-5.06868 1.65773,-5.39778 -0.053,-0.13811 -0.75884,-0.15464 -5.58086,-0.13075 l -5.52018,0.0274 -0.0269,9.89933 -0.0269,9.89934 h 9.86218 c 8.89561,0 9.86846,-0.0164 9.92628,-0.16702 0.0352,-0.0919 0.0641,-4.50143 0.0641,-9.79903 0,-7.35076 -0.03,-9.66199 -0.12671,-9.7587 -0.15268,-0.15267 -8.15493,-0.21142 -8.15493,-0.0332 z m -7.66644,10.9969 0.77647,0.88117 -0.25285,0.16494 c -0.5015,0.32715 -1.67784,1.38902 -2.16893,1.95785 -0.46004,0.53286 -0.51634,0.56742 -0.68131,0.41813 -0.16789,-0.15196 -0.136,-0.2691 0.48141,-1.76763 0.36368,-0.88271 0.75292,-1.81433 0.86499,-2.07027 l 0.20375,-0.46535 z m 10.44137,-3.91107 c 0.0771,0.53867 0.64694,2.36271 0.75992,2.43254 0.18719,0.11569 1.25759,0.35359 1.31821,0.29296 0.0423,-0.0423 -0.23832,-0.911 -0.60714,-1.87987 -0.0111,-0.0291 0.0418,-0.23418 0.11766,-0.45585 0.0757,-0.22169 0.11003,-0.43078 0.0762,-0.46468 -0.067,-0.0671 -1.28618,-0.22393 -1.5433,-0.19859 -0.10492,0.0106 -0.14592,0.1027 -0.12147,0.27349 z m -2.17518,-0.15269 c 0.51921,0 -0.65961,0.10665 -0.6584,0.24313 0.002,0.25876 0.36623,1.37835 0.48041,1.47798 0.14437,0.12598 1.43501,0.45762 1.50571,0.38692 0.0331,-0.0331 -0.028,-0.31944 -0.13569,-0.63632 -0.18817,-0.55362 -0.18852,-0.59242 -0.008,-0.99079 0.2202,-0.4883 0.14426,-0.67685 -0.24286,-0.60307 -0.15419,0.0294 -1.30524,0.12215 -0.9403,0.12215 z m -2.8774,1.91776 c -0.37751,0.49994 -0.70039,0.94357 -0.71754,0.98587 -0.0171,0.0423 0.24854,0.34368 0.59043,0.66979 0.34188,0.32611 0.92495,0.94924 1.29571,1.38474 0.60617,0.71204 0.94325,0.96145 0.94325,0.69791 0,-0.33295 -0.38334,-1.99961 -0.70096,-3.04757 -0.39119,-1.29072 -0.52183,-1.61378 -0.64907,-1.60495 -0.0415,0.003 -0.38433,0.41428 -0.76182,0.91421 z m 3.16778,1.67853 c 0,0.0933 0.0749,0.45855 0.16643,0.81178 0.0942,0.36395 0.13798,0.79378 0.1008,0.99197 l -0.0656,0.34975 h 0.84953 0.84953 v -0.28173 c 0,-0.40892 -0.22139,-1.64058 -0.3337,-1.85653 -0.13632,-0.2621 -1.56698,-0.27601 -1.56698,-0.0152 z m 2.92087,0.20002 c 0.01,0.11616 0.0506,0.38527 0.0915,0.59804 0.062,0.32235 0.0284,0.44726 -0.20186,0.74912 -0.4347,0.56993 -0.39109,0.60632 0.72683,0.60632 0.83799,0 1.00312,-0.0271 1.00312,-0.16456 0,-0.3901 -0.24203,-1.69419 -0.33581,-1.80942 -0.0564,-0.0694 -0.2772,-0.14532 -0.49057,-0.16882 -0.67013,-0.0738 -0.81177,-0.0399 -0.79324,0.18932 z m 5.84334,23.54676 v 11.35172 h -11.35171 -11.35171 l 0.0268,-11.32485 0.0268,-11.32484 11.32484,-0.0268 11.32485,-0.0268 z m -11.19285,-9.82551 c 0.0387,0.15474 1.19541,2.2665 1.31108,2.31088 0.20137,0.0772 4.97671,-0.11674 6.23789,-0.25343 0.58026,-0.0629 1.31677,-0.0988 1.6367,-0.0799 l 0.58168,0.0344 0.031,-0.88871 c 0.017,-0.48879 0.006,-0.95209 -0.0231,-1.02953 -0.0439,-0.11455 -0.96108,-0.14082 -4.91462,-0.14082 -2.67333,0 -4.86686,0.0219 -4.86059,0.0469 z m -10.03133,1.65132 c 0,1.89169 0.0925,2.08287 0.46836,0.96884 0.1199,-0.35531 0.24355,-0.67095 0.27478,-0.70142 0.0313,-0.0305 0.72023,0.0119 1.53111,0.0942 1.74505,0.17712 7.73513,0.42586 7.83561,0.32538 0.0975,-0.0975 -0.22553,-0.93036 -0.66732,-1.72033 l -0.37187,-0.66498 h -4.53534 -4.53533 z m 18.58437,2.49839 -0.47517,0.55123 -1.31992,-0.15297 c -1.82979,-0.21206 -4.3472,-0.38878 -4.42395,-0.31053 -0.0351,0.0358 0.42329,1.00715 1.01858,2.15867 0.59528,1.15152 1.08225,2.13298 1.08214,2.18102 -10e-5,0.0481 -0.21393,0.22237 -0.47517,0.3874 -0.54033,0.34137 -0.58827,0.50115 -0.21099,0.70306 0.14518,0.0778 0.26398,0.1774 0.26398,0.22152 0,0.0442 -0.52266,0.57068 -1.16148,1.17009 -0.63881,0.5994 -1.16149,1.14922 -1.16152,1.22182 -4e-5,0.10217 0.6047,0.13199 2.67186,0.13199 h 2.6719 l 0.34752,0.35855 0.34752,0.35855 -1.09235,1.85327 c -1.3104,2.22321 -1.4993,2.35185 -1.26352,0.86047 0.10006,-0.63282 0.12173,-1.04108 0.0586,-1.10419 -0.0873,-0.0873 -1.18412,-0.21319 -3.08164,-0.35388 -0.36721,-0.0273 -0.55436,-10e-4 -0.55436,0.0787 0,0.0659 0.90282,0.80085 2.00626,1.63321 1.10345,0.83236 2.00627,1.53688 2.00627,1.56559 0,0.062 -1.05887,1.40207 -1.10788,1.40207 -0.0186,0 -0.81733,-0.96221 -1.77502,-2.13826 -0.95771,-1.17603 -1.84983,-2.2524 -1.9825,-2.39191 l -0.24123,-0.25364 -2.06637,0.067 c -1.13651,0.0369 -2.51799,0.1362 -3.06996,0.22077 -1.06035,0.16247 -2.69321,0.6311 -2.79979,0.80354 -0.16505,0.26707 -0.24341,0.0579 -0.11,-0.29364 0.0826,-0.21778 0.30362,-0.90678 0.49107,-1.5311 l 0.34081,-1.13512 h 2.62307 c 1.45992,0 2.62307,-0.0416 2.62307,-0.0939 0,-0.10196 -1.30675,-0.74863 -1.92514,-0.95271 l -0.38245,-0.12622 0.52561,-0.86551 c 0.28909,-0.47601 0.56537,-0.90529 0.61395,-0.95393 0.0486,-0.0486 0.6478,0.60472 1.33157,1.45191 1.67674,2.07747 1.62628,2.07856 2.36989,-0.0512 0.35558,-1.01841 0.51913,-1.62811 0.45418,-1.69307 -0.33279,-0.33279 -5.96059,-0.37912 -7.24698,-0.0597 -0.61224,0.15204 -0.61598,0.15155 -0.55293,-0.0728 0.035,-0.12424 0.18808,-0.71529 0.34037,-1.31344 0.27134,-1.06574 0.28245,-1.08645 0.55294,-1.03177 0.15182,0.0306 0.87,0.12996 1.59594,0.22062 0.72596,0.0906 1.39119,0.18502 1.47831,0.20967 0.35845,0.10143 3.63384,0.48055 3.75392,0.43447 0.10269,-0.0394 0.10164,-0.17927 -0.005,-0.66479 -0.27618,-1.25787 -0.6857,-2.60807 -0.81611,-2.69084 -0.43406,-0.27547 -7.40988,0.17223 -9.84919,0.63212 l -0.95035,0.17917 -0.0272,7.33081 c -0.0191,5.17953 0.006,7.35157 0.0874,7.40155 0.063,0.0389 4.45797,0.0748 9.76668,0.0798 8.48428,0.007 9.67156,-0.0106 9.812,-0.15081 0.13991,-0.1399 0.15978,-1.18119 0.15978,-8.37088 0,-4.5161 -0.0351,-8.24624 -0.0781,-8.28918 -0.0777,-0.0776 -2.58108,1.17734 -1.18905,1.17734 z m -8.57382,11.02119 c 0.47604,0.29372 0.86305,0.58927 0.86003,0.65676 -0.003,0.0675 -0.18595,0.66333 -0.40652,1.32406 -0.36153,1.08301 -0.43316,1.21486 -0.72705,1.33844 l -0.326,0.13708 -0.0585,-0.54649 c -0.1301,-1.21574 -0.28706,-3.36436 -0.24858,-3.40284 0.0226,-0.0226 0.43057,0.19926 0.9066,0.49299 z m 11.21363,19.09985 v 11.29845 h -11.35123 -11.35124 v -11.29845 -11.29845 h 11.35124 11.35123 z m -12.03759,-9.78867 c 0,0.0753 0.31088,1.07989 0.69084,2.23227 l 0.69083,2.09522 -0.21567,0.22957 c -0.44866,0.47758 -0.43162,0.47993 3.47773,0.47993 h 3.69339 l -0.63409,1.21584 -0.63409,1.21585 0.1685,0.60562 c 0.0927,0.33311 0.26324,0.96202 0.37901,1.39759 0.11577,0.43557 0.32747,1.16619 0.47042,1.62359 l 0.25993,0.83164 -0.32783,0.51087 c -0.37578,0.58562 -0.33037,0.76739 0.17695,0.70816 0.19642,-0.0229 0.35566,-0.0156 0.3539,0.0164 -0.002,0.0319 -0.25853,0.55692 -0.5706,1.16671 -0.42541,0.83127 -0.61618,1.10526 -0.76234,1.09483 -0.10722,-0.007 -0.68169,-0.0908 -1.27658,-0.18478 -1.5535,-0.24544 -2.80378,-0.21641 -4.33,0.10058 -0.32458,0.0674 -0.30018,0.21919 0.14043,0.87345 0.53695,0.79733 0.96939,1.75504 1.101,2.4384 0.0622,0.32319 0.13598,0.69453 0.16383,0.8252 l 0.0506,0.23759 h 3.73525 c 3.30864,0 3.74255,-0.0191 3.79933,-0.16703 0.0838,-0.21828 0.0838,-19.29914 0,-19.51742 -0.0573,-0.14922 -0.6258,-0.16702 -5.33244,-0.16702 -4.2481,0 -5.26835,0.0265 -5.26835,0.13705 z m -9.18659,9.78867 v 9.92574 h 5.91321 c 6.78196,0 6.1652,0.12351 5.53321,-1.10807 -0.51681,-1.0071 -0.95368,-1.57872 -1.87681,-2.4556 -1.28508,-1.2207 -3.26407,-2.42133 -5.17928,-3.14221 l -0.68948,-0.25952 -0.24013,0.25854 c -0.17301,0.18627 -0.28415,0.23125 -0.39764,0.16091 -0.12543,-0.0778 -0.13081,-0.1243 -0.0264,-0.22872 0.25184,-0.25185 0.12662,-0.40099 -0.47606,-0.56699 -1.12453,-0.30973 -1.12747,-0.19126 0.0373,-1.49798 0.57479,-0.64486 1.08172,-1.17681 1.12652,-1.18208 0.0448,-0.005 0.26778,0.11368 0.49548,0.26437 0.2277,0.15069 0.45575,0.24818 0.50676,0.21665 0.19865,-0.12277 1.51572,-2.905 2.1747,-4.59391 0.72169,-1.84964 1.65168,-4.9431 1.65168,-5.49406 v -0.2228 h -4.27652 -4.2765 z m 7.66351,-2.02434 c -1.09169,1.3258 -2.06178,2.53727 -2.15574,2.69214 -0.16417,0.27056 -0.16061,0.28876 0.0909,0.46474 0.78064,0.54621 2.37383,1.90411 3.11276,2.65305 0.7943,0.80506 1.10873,1.01594 1.10873,0.74361 0,-0.0643 0.14236,-0.4152 0.31636,-0.77977 0.29081,-0.60935 0.30798,-0.70703 0.2126,-1.20994 -0.17133,-0.90346 -0.62373,-2.47823 -1.01834,-3.54482 l -0.37138,-1.00382 0.18295,-0.55082 c 0.10059,-0.30295 0.2943,-0.80258 0.43038,-1.1103 0.26359,-0.59601 0.29921,-0.76463 0.16154,-0.76463 -0.0472,0 -0.97907,1.08475 -2.07076,2.41056 z m 6.11789,0.65731 c 0.18613,0.70073 0.38073,1.3107 0.43244,1.35553 0.0517,0.0448 0.30783,0.14005 0.56917,0.21162 0.26136,0.0715 0.56544,0.15631 0.67575,0.18832 0.17695,0.0514 0.19353,0.0149 0.14086,-0.3097 -0.0329,-0.20236 -0.18827,-0.6893 -0.34542,-1.0821 -0.2776,-0.69391 -0.2807,-0.72474 -0.10881,-1.08519 0.0973,-0.20406 0.13873,-0.40785 0.092,-0.45289 -0.12941,-0.12488 -1.54727,-0.28049 -1.67882,-0.18424 -0.081,0.0593 -0.0144,0.4658 0.22276,1.35865 z m -2.61595,-1.28309 c -0.27642,0.0455 -0.53156,0.11168 -0.56697,0.1471 -0.0928,0.0928 0.27508,1.52634 0.4199,1.63646 0.18051,0.13726 1.54625,0.48032 1.61971,0.40685 0.0348,-0.0348 -0.0372,-0.30506 -0.15999,-0.60055 l -0.22328,-0.53727 0.20812,-0.54754 c 0.11447,-0.30115 0.20814,-0.55943 0.20816,-0.57395 1.2e-4,-0.0566 -1.02928,-0.01 -1.50565,0.0689 z m 0.34419,3.70487 c 0.0257,0.0514 0.10048,0.47084 0.22339,0.91868 0.17968,0.65496 0.19864,0.85386 0.0969,1.01675 -0.19789,0.31689 -0.002,0.40157 0.85145,0.36735 l 0.78171,-0.0314 -0.0122,-0.60517 c -0.0134,-0.67182 -0.22738,-1.57011 -0.40244,-1.68986 -0.17195,-0.11762 -1.59269,-0.084 -1.53892,0.0236 z m 3.01755,0.0936 c 0,0.0598 0.017,0.31006 0.10767,0.57605 l 0.16479,0.48364 -0.33078,0.48077 c -0.18193,0.26442 -0.30166,0.52789 -0.26606,0.58548 0.0878,0.1421 1.92131,0.13569 2.00951,-0.007 0.10058,-0.16278 -0.16097,-1.86765 -0.30489,-1.98708 -0.11134,-0.0925 -0.48184,-0.16276 -1.09178,-0.20731 -0.12724,-0.01 -0.28846,0.0157 -0.28846,0.0755 z"
       id="path4780"
       sodipodi:nodetypes="sscssssscsssscsssssscssssssscsscssssssssscssssssscssssscccccssssscccccssssscccccssssscccccsssccsssccssssssccccccccccccscssssscssscsssscccsssscccssssscccsscccccsscsssssssssscssssssssscssscssssssscsscsscsssssssssssssccsscssssscsssssssssscccssssscccccccccsscscccscsssssssscssssscsscscsscssscssssssscccssssssccsssssccssssssssscssssssssssssscsssscccsssssssssssscccccccccssssccsssssssssscccsccsssssssssscccssssssssssccsssscssscssssssssssssssscssssssscscsscsssccccccccccscsscccssscsscssssssscssssccccsssscssssssssssccccsssssssscssssssssssssssssssscssssssscsssssscsssssss" /><path
       id="path4727"
       style="fill:#000000;stroke-width:0.999998"
       d="m 55.557414,42.784486 -2.71902,0.01236 -2.71901,0.01236 -0.0305,0.867221 -0.0307,0.867221 h 2.74974 2.74954 v -0.879593 z m -2.67839,10.100825 c -0.25078,-0.01205 -0.51777,0.0504 -0.77441,0.206855 -0.63772,0.388849 -0.67549,1.527133 -0.0667,2.006064 0.37568,0.295332 1.17303,0.294889 1.54924,-0.0011 0.15163,-0.119276 0.32996,-0.39821 0.3964,-0.619942 0.25447,-0.849364 -0.35225,-1.555849 -1.10461,-1.591942 z m 8e-4,10.458031 c -0.26964,-0.0011 -0.55153,0.06625 -0.77503,0.202523 -0.6452,0.393402 -0.67782,1.481847 -0.0596,1.983791 0.38397,0.311762 1.09189,0.321905 1.51356,0.02166 0.62536,-0.445291 0.63798,-1.515912 0.0236,-1.999249 -0.17533,-0.137893 -0.43279,-0.207605 -0.70243,-0.208715 z m 0.0912,10.467729 c -0.0745,-0.0021 -0.15326,-4.44e-4 -0.23635,0.0063 -0.64797,0.05314 -0.93554,0.269435 -1.08212,0.813811 -0.15115,0.561323 0.0348,1.128922 0.45351,1.384252 1.03466,0.630877 2.24603,-0.284819 1.87284,-1.415601 -0.17225,-0.521892 -0.48667,-0.771157 -1.00788,-0.788855 z m -0.1588,10.488354 c -0.71593,0 -0.99996,0.192412 -1.15967,0.785548 -0.15115,0.561323 0.0348,1.128922 0.45351,1.384263 1.02837,0.627031 2.24598,-0.28446 1.87634,-1.404475 -0.19406,-0.587991 -0.46533,-0.765336 -1.17018,-0.765336 z m -2.74542,10.717682 v 0.844737 0.844747 h 2.74542 2.74541 v -0.844747 -0.844737 h -2.74541 z m 2.8508,10.100823 c -0.63467,-0.0493 -1.29557,0.3687 -1.29557,1.19576 0,0.5294 0.16025,0.85349 0.53745,1.08748 0.89814,0.55715 2.09277,-0.26929 1.86809,-1.29228 -0.13869,-0.63146 -0.61634,-0.95256 -1.10997,-0.99096 z m -0.19242,10.46526 c -0.55904,0.0282 -1.08523,0.40294 -1.10501,1.10068 -0.0143,0.50268 0.19392,0.95706 0.5356,1.16894 0.90147,0.55907 2.09698,-0.26496 1.8718,-1.29022 -0.15135,-0.68911 -0.74335,-1.00758 -1.30239,-0.9794 z m 0.12271,10.43595 c -0.12449,-0.002 -0.25443,0.014 -0.38752,0.0507 -0.42554,0.1175 -0.67702,0.37362 -0.80493,0.81958 -0.17672,0.61621 0.22176,1.38812 0.78721,1.52491 0.66078,0.15986 1.21346,-0.0677 1.46818,-0.60447 0.41574,-0.8761 -0.19141,-1.77634 -1.06294,-1.79076 z m -0.0193,10.4304 c -0.77219,-0.0236 -1.40046,0.74134 -1.16998,1.57606 0.10722,0.38834 0.45604,0.76311 0.78411,0.84247 1.616,0.39093 2.2998,-1.83787 0.72347,-2.3581 -0.11409,-0.0377 -0.2273,-0.0571 -0.3376,-0.0604 z m -6.97079,10.2353 c -0.10626,0.007 -0.12023,0.26543 -0.12023,1.41622 v 1.4715 l 0.65995,-0.13302 c 3.41658,-0.68869 9.63611,-0.68952 13.03537,-0.002 l 0.6546,0.13261 0.0318,-1.45808 c 0.0274,-1.2568 0.01,-1.4516 -0.12663,-1.40984 -0.37396,0.11441 -2.12309,0.38043 -3.25832,0.49559 -0.67613,0.0686 -2.39354,0.12477 -3.81641,0.12477 -1.42286,0 -3.14027,-0.0562 -3.8164,-0.12477 -1.25153,-0.12695 -2.88184,-0.38366 -3.19233,-0.5028 -0.0191,-0.007 -0.0361,-0.0115 -0.0513,-0.0106 z m 7.02194,10.65045 c -0.0815,-0.002 -0.16653,0.004 -0.25491,0.0186 -1.08499,0.17606 -1.38048,1.63438 -0.45702,2.2558 0.41178,0.27711 0.7446,0.3042 1.15142,0.0938 1.20518,-0.62323 0.78322,-2.34456 -0.43949,-2.36821 z m -0.15922,10.46442 c -0.46807,0.0483 -0.91424,0.35426 -1.06191,0.8891 -0.1729,0.62617 0.10016,1.21758 0.67851,1.46963 0.40812,0.17792 0.51282,0.17765 0.94539,-0.003 0.66507,-0.27788 0.94628,-1.03494 0.63109,-1.69918 -0.23507,-0.49536 -0.72501,-0.70471 -1.19308,-0.65645 z m 0.0693,10.44299 c -0.0729,0.002 -0.14806,0.0106 -0.22501,0.0245 -0.97656,0.18321 -1.30925,1.55411 -0.52651,2.16981 0.19249,0.15141 0.43065,0.21593 0.79649,0.21593 0.43292,0 0.57305,-0.0514 0.82266,-0.3009 0.83174,-0.83173 0.22577,-2.13946 -0.86763,-2.10938 z m -0.12085,10.45472 c -0.3293,0.0406 -0.65111,0.20482 -0.87795,0.50385 -0.33853,0.44624 -0.20912,1.33048 0.24728,1.68948 v 3.9e-4 c 0.37568,0.29518 1.17303,0.29469 1.54924,-0.001 0.38774,-0.30485 0.55408,-0.91176 0.38814,-1.41457 -0.18792,-0.56941 -0.75787,-0.8455 -1.30671,-0.77793 z m -2.60187,10.8567 v 0.84475 0.84473 h 2.74541 2.74542 v -0.84473 -0.84475 h -2.74542 z m 2.84791,10.05793 c -0.29634,-0.0116 -0.60446,0.0448 -0.8099,0.17385 -0.64485,0.40518 -0.67744,1.4885 -0.0598,1.98998 0.38948,0.31624 1.15385,0.32674 1.54223,0.0212 0.56445,-0.444 0.5996,-1.46821 0.0668,-1.95038 -0.15843,-0.14336 -0.44302,-0.22305 -0.73936,-0.23469 z m -2.1e-4,10.45371 c -0.29634,-0.0116 -0.60445,0.0448 -0.80989,0.17384 -0.67613,0.42488 -0.67544,1.60313 10e-4,2.02834 0.41312,0.2596 1.23163,0.2248 1.55295,-0.066 0.4992,-0.45174 0.49656,-1.44763 -0.005,-1.90149 -0.15841,-0.14338 -0.44301,-0.22306 -0.73935,-0.2347 z m -0.0381,10.42833 c -0.25054,-0.012 -0.51671,0.0499 -0.77174,0.2054 -0.6766,0.41261 -0.67592,1.59665 10e-4,2.02216 0.25141,0.15794 0.46405,0.20061 0.83938,0.16828 0.59305,-0.051 0.87985,-0.27601 1.0419,-0.8169 0.25194,-0.84089 -0.35916,-1.54291 -1.11079,-1.57894 z m -0.0357,10.45246 c -0.59979,0 -1.04148,0.30238 -1.18132,0.80886 -0.17368,0.62896 -0.0137,1.07431 0.51641,1.43974 0.61598,0.42454 1.58828,0.0765 1.80478,-0.64615 0.25692,-0.85754 -0.2729,-1.60245 -1.13987,-1.60245 z m -2.77387,10.77048 v 0.84474 0.84475 h 2.74541 2.74541 v -0.84475 -0.84474 h -2.74541 z"
       sodipodi:nodetypes="cccccccccsscsssssssscssscssssssssscccccccccsscsssscssssssssssssscscscccsssssccscsssscsccsccscssssscscccscccccccccccsssssssccsssccccsssccsssssccccccccc" /></g></svg>
