<?xml version="1.0" encoding="UTF-8" standalone="no"?>
<!-- Created with Inkscape (http://www.inkscape.org/) -->

<svg
   width="210mm"
   height="297mm"
   viewBox="0 0 210 297"
   version="1.1"
   id="svg1"
   xml:space="preserve"
   sodipodi:docname="描画.svg"
   inkscape:version="1.4 (86a8ad7, 2024-10-11)"
   xmlns:inkscape="http://www.inkscape.org/namespaces/inkscape"
   xmlns:sodipodi="http://sodipodi.sourceforge.net/DTD/sodipodi-0.dtd"
   xmlns="http://www.w3.org/2000/svg"
   xmlns:svg="http://www.w3.org/2000/svg"><sodipodi:namedview
     id="namedview1"
     pagecolor="#ffffff"
     bordercolor="#000000"
     borderopacity="0.25"
     inkscape:showpageshadow="2"
     inkscape:pageopacity="0.0"
     inkscape:pagecheckerboard="0"
     inkscape:deskcolor="#d1d1d1"
     inkscape:document-units="mm"
     showguides="true"
     inkscape:zoom="0.44195911"
     inkscape:cx="1393.7941"
     inkscape:cy="514.75351"
     inkscape:window-width="1920"
     inkscape:window-height="1009"
     inkscape:window-x="-8"
     inkscape:window-y="-8"
     inkscape:window-maximized="1"
     inkscape:current-layer="layer1"
     showgrid="false"><sodipodi:guide
       position="145.25494,203.66598"
       orientation="0,-1"
       id="guide1"
       inkscape:locked="false" /><sodipodi:guide
       position="159.47138,229.62644"
       orientation="0,-1"
       id="guide2"
       inkscape:locked="false" /><sodipodi:guide
       position="172.82838,173.99254"
       orientation="0,-1"
       id="guide3"
       inkscape:locked="false" /><sodipodi:guide
       position="-6.3724432,268.03435"
       orientation="1,0"
       id="guide4"
       inkscape:locked="false" /><sodipodi:guide
       position="86.171022,341.79188"
       orientation="0,-1"
       id="guide29"
       inkscape:locked="false" /><sodipodi:guide
       position="91.211781,189.75859"
       orientation="0,-1"
       id="guide33"
       inkscape:locked="false" /><sodipodi:guide
       position="26.901294,278.54114"
       orientation="0,-1"
       id="guide5"
       inkscape:locked="false" /><sodipodi:guide
       position="26.901294,278.54114"
       orientation="1,0"
       id="guide6"
       inkscape:locked="false" /><sodipodi:guide
       position="24.181595,124.28679"
       orientation="1,0"
       id="guide8"
       inkscape:locked="false" /><sodipodi:guide
       position="26.901294,99.516961"
       orientation="1,0"
       id="guide54"
       inkscape:locked="false" /><sodipodi:guide
       position="65.349516,263.6109"
       orientation="1,0"
       id="guide55"
       inkscape:locked="false" /><sodipodi:guide
       position="23.819763,267.59089"
       orientation="0,-1"
       id="guide56"
       inkscape:locked="false" /><sodipodi:guide
       position="65.349516,271.49517"
       orientation="1,0"
       id="guide60"
       inkscape:locked="false" /><sodipodi:guide
       position="142.00206,278.54114"
       orientation="1,0"
       id="guide69"
       inkscape:locked="false" /><sodipodi:guide
       position="149.38158,267.59088"
       orientation="1,0"
       id="guide70"
       inkscape:locked="false" /><sodipodi:guide
       position="18.18745,284.40736"
       orientation="0,-1"
       id="guide71"
       inkscape:locked="false" /><sodipodi:guide
       position="-17.155148,261.67067"
       orientation="0,-1"
       id="guide78"
       inkscape:locked="false" /><sodipodi:guide
       position="24.181595,284.40736"
       orientation="1,0"
       id="guide88"
       inkscape:locked="false" /><sodipodi:guide
       position="69.475146,197.67905"
       orientation="0,-1"
       id="guide117"
       inkscape:locked="false" /><sodipodi:guide
       position="124.5979,160.62774"
       orientation="1,0"
       id="guide172"
       inkscape:locked="false" /><sodipodi:guide
       position="75.650906,160.62774"
       orientation="1,0"
       id="guide173"
       inkscape:locked="false" /><sodipodi:guide
       position="684.16765,-27.137549"
       orientation="0,-1"
       id="guide201"
       inkscape:locked="false" /><sodipodi:guide
       position="684.16759,-194.0388"
       orientation="0,-1"
       id="guide202"
       inkscape:locked="false" /><sodipodi:guide
       position="684.16759,-360.94029"
       orientation="0,-1"
       id="guide203"
       inkscape:locked="false" /></sodipodi:namedview><defs
     id="defs1" /><g
     inkscape:label="Layer 1"
     inkscape:groupmode="layer"
     id="layer1"><rect
       style="fill:#bcf0ff;stroke:none;stroke-width:6.89999;stroke-linecap:square;stroke-linejoin:miter;stroke-dasharray:none;paint-order:markers stroke fill;fill-opacity:1"
       id="rect115"
       width="100.8745"
       height="166.90141"
       x="465.01471"
       y="179.49387" /><path
       style="opacity:1;fill:none;stroke:#000000;stroke-width:2.3;stroke-linecap:round;stroke-linejoin:round;stroke-dasharray:none;stroke-opacity:1;paint-order:fill markers stroke"
       d="m 28.777686,18.458865 -10e-7,10.950256"
       id="path4"
       sodipodi:nodetypes="cc" /><path
       style="opacity:1;fill:none;stroke:#000000;stroke-width:2.3;stroke-linecap:round;stroke-linejoin:round;stroke-dasharray:none;stroke-opacity:1;paint-order:fill markers stroke"
       d="m 28.777686,23.404826 c 0,-3.068869 3.007391,-4.88343 4.535756,-4.88343 1.472774,0 2.799573,1.10968 2.799573,3.218 0,3.479279 -0.05799,7.669725 -0.05799,7.669725"
       id="path5"
       sodipodi:nodetypes="cssc" /><ellipse
       style="opacity:1;fill:none;stroke:#000000;stroke-width:2.30021221;stroke-linecap:round;stroke-linejoin:round;stroke-dasharray:none;stroke-opacity:1;paint-order:fill markers stroke"
       id="path7"
       cx="20.862127"
       cy="23.938412"
       rx="4.2880735"
       ry="5.4761419"
       transform="matrix(1,0,-0.01920856,0.9998155,0,0)" /><path
       style="fill:none;stroke:#000000;stroke-width:2.3;stroke-linecap:round;stroke-linejoin:round;stroke-dasharray:none;paint-order:fill markers stroke"
       d="m 16.158132,12.592653 h 8.023464 c -3.712646,2.095311 -7.956785,5.866212 -8.06197,11.341271"
       id="path8"
       sodipodi:nodetypes="ccc" /><path
       style="fill:#217867;stroke:#000000;stroke-width:2.3;stroke-linecap:round;stroke-linejoin:round;stroke-dasharray:none;paint-order:fill markers stroke"
       d="M 63.482809,23.913925 H 57.779281"
       id="path2"
       sodipodi:nodetypes="cc" /><path
       style="opacity:1;fill:none;stroke:#000000;stroke-width:2.3;stroke-linecap:round;stroke-linejoin:round;stroke-dasharray:none;stroke-opacity:1;paint-order:fill markers stroke"
       d="m 74.840573,28.162733 c 0,0 1.237457,1.246395 4.151792,1.246395 4.548245,0 5.650062,-6.033969 -1.367367,-5.524658"
       id="path6"
       sodipodi:nodetypes="csc" /><path
       style="fill:none;stroke:#000000;stroke-width:2.3;stroke-linecap:round;stroke-linejoin:round;stroke-dasharray:none;paint-order:fill markers stroke"
       d="m 77.624998,23.88447 c 4.844559,-1.231175 5.606271,-5.458169 1.495078,-5.624897 -2.16366,0 -3.697658,1.611155 -3.697658,1.611155"
       id="path10"
       sodipodi:nodetypes="ccc" /><path
       style="opacity:1;fill:none;stroke:#000000;stroke-width:2.3;stroke-linecap:round;stroke-linejoin:round;stroke-dasharray:none;stroke-opacity:1;paint-order:fill markers stroke"
       d="m 97.642262,29.409128 -10e-7,-10.950267"
       id="path14"
       sodipodi:nodetypes="cc" /><ellipse
       style="opacity:1;fill:none;stroke:#000000;stroke-width:2.3002;stroke-linecap:round;stroke-linejoin:round;stroke-dasharray:none;stroke-opacity:1;paint-order:fill markers stroke"
       id="ellipse18"
       cx="124.69799"
       cy="23.93811"
       rx="3.6656432"
       ry="5.4760718"
       transform="matrix(1,0,-0.01853531,0.99982821,0,0)" /><path
       style="fill:none;stroke:#000000;stroke-width:2.3;stroke-linecap:round;stroke-linejoin:round;stroke-dasharray:none;stroke-opacity:1;paint-order:fill markers stroke"
       d="m 120.9801,21.604722 c 0,0 -1.81199,4.757841 -4.3174,1.270939"
       id="path19"
       sodipodi:nodetypes="cc" /><path
       style="fill:none;stroke:#000000;stroke-width:2.3;stroke-linecap:round;stroke-linejoin:round;stroke-dasharray:none;stroke-opacity:1;paint-order:fill markers stroke"
       d="m 143.00716,18.458865 7.28973,10.950262"
       id="path22" /><path
       style="fill:none;stroke:#000000;stroke-width:2.3;stroke-linecap:round;stroke-linejoin:round;stroke-dasharray:none;paint-order:fill markers stroke"
       d="M 104.97787,18.458865 97.642262,29.409127"
       id="path16" /><path
       style="fill:none;stroke:#000000;stroke-width:2.3;stroke-linecap:round;stroke-linejoin:round;stroke-dasharray:none;paint-order:fill markers stroke"
       d="m -11.632264,29.409111 c 0,0 0.03112,5.92023 -3.110448,5.92023"
       id="path34"
       sodipodi:nodetypes="cc" /><ellipse
       style="opacity:1;fill:none;stroke:#000000;stroke-width:2.30028119;stroke-linecap:round;stroke-linejoin:round;stroke-dasharray:none;stroke-opacity:1;paint-order:fill markers stroke"
       id="ellipse39"
       cx="-59.829384"
       cy="23.939833"
       rx="4.3730798"
       ry="5.47647"
       transform="matrix(1,0,-0.02211085,0.99975553,0,0)" /><path
       style="opacity:1;fill:none;stroke:#000000;stroke-width:2.3;stroke-linecap:round;stroke-linejoin:round;stroke-dasharray:none;stroke-opacity:1;paint-order:fill markers stroke"
       d="m 44.41151,18.458865 -10e-7,10.950256"
       id="path53"
       sodipodi:nodetypes="cc" /><path
       style="opacity:1;fill:none;stroke:#000000;stroke-width:2.3;stroke-linecap:round;stroke-linejoin:round;stroke-dasharray:none;stroke-opacity:1;paint-order:fill markers stroke"
       d="m 52.603228,23.965259 c 0,-2.691592 -1.307691,-5.443863 -4.085547,-5.443863 -1.563836,0 -4.10617,1.814561 -4.10617,4.88343"
       id="path55"
       sodipodi:nodetypes="csc" /><path
       style="opacity:1;fill:none;stroke:#000000;stroke-width:2.3;stroke-linecap:round;stroke-linejoin:round;stroke-dasharray:none;stroke-opacity:1;paint-order:fill markers stroke"
       d="m 52.603228,23.965259 c 0,2.691592 -1.307691,5.443863 -4.085547,5.443863 -1.563836,0 -4.10617,-1.814561 -4.10617,-4.88343"
       id="path56"
       sodipodi:nodetypes="csc" /><path
       style="opacity:1;fill:none;stroke:#000000;stroke-width:2.3;stroke-linecap:round;stroke-linejoin:round;stroke-dasharray:none;stroke-opacity:1;paint-order:fill markers stroke"
       d="m 63.482809,23.965259 c 0,-2.691592 -1.278029,-5.443863 -3.992872,-5.443863 -1.076364,0 -2.548628,0.625354 -3.450086,1.97512"
       id="path57"
       sodipodi:nodetypes="csc" /><path
       style="opacity:1;fill:none;stroke:#000000;stroke-width:2.3;stroke-linecap:round;stroke-linejoin:round;stroke-dasharray:none;stroke-opacity:1;paint-order:fill markers stroke"
       d="m 63.482809,23.965259 c 0,2.691592 -1.278029,5.443863 -3.992872,5.443863 -1.528365,0 -2.653968,-0.79373 -3.647112,-2.158308"
       id="path58"
       sodipodi:nodetypes="csc" /><path
       style="opacity:1;fill:none;stroke:#000000;stroke-width:2.3;stroke-linecap:round;stroke-linejoin:round;stroke-dasharray:none;stroke-opacity:1;paint-order:fill markers stroke"
       d="m 93.467979,29.409121 10e-7,-10.950256"
       id="path59"
       sodipodi:nodetypes="cc" /><path
       style="opacity:1;fill:none;stroke:#000000;stroke-width:2.3;stroke-linecap:round;stroke-linejoin:round;stroke-dasharray:none;stroke-opacity:1;paint-order:fill markers stroke"
       d="m 93.467979,24.46316 c 0,3.068869 -3.007392,4.88343 -4.535757,4.88343 -1.472774,0 -2.799573,-1.10968 -2.799573,-3.218 0,-3.479279 0.05799,-7.669725 0.05799,-7.669725"
       id="path60"
       sodipodi:nodetypes="cssc" /><path
       style="opacity:1;fill:none;stroke:#000000;stroke-width:2.3;stroke-linecap:round;stroke-linejoin:round;stroke-dasharray:none;stroke-opacity:1;paint-order:fill markers stroke"
       d="M 104.97787,29.409132 V 18.458865"
       id="path61"
       sodipodi:nodetypes="cc" /><path
       style="opacity:1;fill:none;stroke:#000000;stroke-width:2.3;stroke-linecap:round;stroke-linejoin:round;stroke-dasharray:none;stroke-opacity:1;paint-order:fill markers stroke"
       d="M 116.6627,29.409128 V 18.458861"
       id="path62"
       sodipodi:nodetypes="cc" /><path
       style="opacity:1;fill:none;stroke:#000000;stroke-width:2.3;stroke-linecap:round;stroke-linejoin:round;stroke-dasharray:none;stroke-opacity:1;paint-order:fill markers stroke"
       d="M 131.80989,18.458865 V 29.409121"
       id="path63"
       sodipodi:nodetypes="cc" /><path
       style="opacity:1;fill:none;stroke:#000000;stroke-width:2.3;stroke-linecap:round;stroke-linejoin:round;stroke-dasharray:none;stroke-opacity:1;paint-order:fill markers stroke"
       d="m 131.80989,23.404826 c 0,-3.068869 3.00739,-4.88343 4.53575,-4.88343 1.47278,0 2.79958,1.10968 2.79958,3.218 0,3.479279 -0.058,7.669725 -0.058,7.669725"
       id="path64"
       sodipodi:nodetypes="cssc" /><path
       style="opacity:1;fill:none;stroke:#000000;stroke-width:2.3;stroke-linecap:round;stroke-linejoin:round;stroke-dasharray:none;stroke-opacity:1;paint-order:fill markers stroke"
       d="M 173.78195,29.409128 V 18.458861"
       id="path65"
       sodipodi:nodetypes="cc" /><path
       style="fill:none;stroke:#000000;stroke-width:2.3;stroke-linecap:round;stroke-linejoin:round;stroke-dasharray:none;paint-order:fill markers stroke"
       d="m 181.11756,18.458865 -7.33561,10.950262"
       id="path66" /><path
       style="opacity:1;fill:none;stroke:#000000;stroke-width:2.3;stroke-linecap:round;stroke-linejoin:round;stroke-dasharray:none;stroke-opacity:1;paint-order:fill markers stroke"
       d="M 162.27233,18.458865 V 29.409121"
       id="path67"
       sodipodi:nodetypes="cc" /><path
       style="opacity:1;fill:none;stroke:#000000;stroke-width:2.3;stroke-linecap:round;stroke-linejoin:round;stroke-dasharray:none;stroke-opacity:1;paint-order:fill markers stroke"
       d="m 162.27233,23.404826 c 0,-3.068869 3.0074,-4.88343 4.53576,-4.88343 1.47277,0 2.79957,1.10968 2.79957,3.218 0,3.479279 -0.058,7.669725 -0.058,7.669725"
       id="path68"
       sodipodi:nodetypes="cssc" /><path
       style="opacity:1;fill:none;stroke:#000000;stroke-width:2.3;stroke-linecap:round;stroke-linejoin:round;stroke-dasharray:none;stroke-opacity:1;paint-order:fill markers stroke"
       d="M 181.11756,29.409132 V 18.458865"
       id="path69"
       sodipodi:nodetypes="cc" /><path
       style="fill:none;stroke:#000000;stroke-width:2.3;stroke-linecap:round;stroke-linejoin:round;stroke-dasharray:none;stroke-opacity:1;paint-order:fill markers stroke"
       d="m 150.29689,18.458865 -7.28973,10.950262"
       id="path70" /><ellipse
       style="opacity:1;fill:none;stroke:#000000;stroke-width:2.30021221;stroke-linecap:round;stroke-linejoin:round;stroke-dasharray:none;stroke-opacity:1;paint-order:fill markers stroke"
       id="ellipse71"
       cx="-1.6245468"
       cy="23.938412"
       rx="4.2880735"
       ry="5.4761419"
       transform="matrix(1,0,-0.01920856,0.9998155,0,0)" /><path
       style="opacity:1;fill:none;stroke:#000000;stroke-width:2.3;stroke-linecap:round;stroke-linejoin:round;stroke-dasharray:none;stroke-opacity:1;paint-order:fill markers stroke"
       d="m -1.9791784,12.592641 -1.8e-6,5.866224"
       id="path71"
       sodipodi:nodetypes="cc" /><path
       style="opacity:1;fill:none;stroke:#000000;stroke-width:2.3;stroke-linecap:round;stroke-linejoin:round;stroke-dasharray:none;stroke-opacity:1;paint-order:fill markers stroke"
       d="m -18.909607,18.458865 -2e-6,10.950256"
       id="path72"
       sodipodi:nodetypes="cc" /><path
       style="opacity:1;fill:none;stroke:#000000;stroke-width:2.3;stroke-linecap:round;stroke-linejoin:round;stroke-dasharray:none;stroke-opacity:1;paint-order:fill markers stroke"
       d="m -18.909607,23.404826 c 0,-3.068869 3.007391,-4.88343 4.535756,-4.88343 1.472773,0 2.799573,1.10968 2.799573,3.218 0,3.479279 -0.05799,7.669725 -0.05799,7.669725"
       id="path73"
       sodipodi:nodetypes="cssc" /><path
       style="opacity:1;fill:none;stroke:#000000;stroke-width:2.3;stroke-linecap:round;stroke-linejoin:round;stroke-dasharray:none;stroke-opacity:1;paint-order:fill markers stroke"
       d="m -25.69432,29.409121 2e-6,-10.950256"
       id="path74"
       sodipodi:nodetypes="cc" /><path
       style="opacity:1;fill:none;stroke:#000000;stroke-width:2.3;stroke-linecap:round;stroke-linejoin:round;stroke-dasharray:none;stroke-opacity:1;paint-order:fill markers stroke"
       d="m -25.69432,24.46316 c 0,3.068869 -2.522351,4.88343 -3.804219,4.88343 -1.235241,0 -2.34805,-1.10968 -2.34805,-3.218 0,-3.479279 0.04863,-7.669725 0.04863,-7.669725"
       id="path75"
       sodipodi:nodetypes="cssc" /><path
       style="opacity:1;fill:none;stroke:#000000;stroke-width:2.3;stroke-linecap:round;stroke-linejoin:round;stroke-dasharray:none;stroke-opacity:1;paint-order:fill markers stroke"
       d="m -31.843395,24.46316 c 0,3.068869 -2.522353,4.88343 -3.804219,4.88343 -1.235241,0 -2.348052,-1.10968 -2.348052,-3.218 0,-3.479279 0.04863,-7.669725 0.04863,-7.669725"
       id="path76"
       sodipodi:nodetypes="cssc" /><path
       style="opacity:1;fill:none;stroke:#000000;stroke-width:2.3;stroke-linecap:round;stroke-linejoin:round;stroke-dasharray:none;stroke-opacity:1;paint-order:fill markers stroke"
       d="m -43.585856,35.329331 10e-7,-16.870466"
       id="path77"
       sodipodi:nodetypes="cc" /><path
       style="opacity:1;fill:none;stroke:#000000;stroke-width:2.3;stroke-linecap:round;stroke-linejoin:round;stroke-dasharray:none;stroke-opacity:1;paint-order:fill markers stroke"
       d="m -43.585856,24.46316 c 0,3.068869 -3.007391,4.88343 -4.535757,4.88343 -1.472773,0 -2.799572,-1.10968 -2.799572,-3.218 0,-3.479279 0.05799,-7.669725 0.05799,-7.669725"
       id="path78"
       sodipodi:nodetypes="cssc" /><path
       style="opacity:1;fill:none;stroke:#000000;stroke-width:2.3;stroke-linecap:round;stroke-linejoin:round;stroke-dasharray:none;stroke-opacity:1;paint-order:fill markers stroke"
       d="m -68.908122,23.965259 c 0,-2.691592 -1.278029,-5.443863 -3.992873,-5.443863 -1.076364,0 -2.548626,0.625354 -3.450086,1.97512"
       id="path79"
       sodipodi:nodetypes="csc" /><path
       style="opacity:1;fill:none;stroke:#000000;stroke-width:2.3;stroke-linecap:round;stroke-linejoin:round;stroke-dasharray:none;stroke-opacity:1;paint-order:fill markers stroke"
       d="m -68.908122,23.965259 c 0,2.691592 -1.278029,5.443863 -3.992873,5.443863 -1.528365,0 -2.653968,-0.79373 -3.647108,-2.158308"
       id="path80"
       sodipodi:nodetypes="csc" /><path
       style="opacity:1;fill:none;stroke:#000000;stroke-width:2.3;stroke-linecap:round;stroke-linejoin:round;stroke-dasharray:none;stroke-opacity:1;paint-order:fill markers stroke"
       d="m -87.839642,23.965259 c 0,-2.691592 1.278025,-5.443863 3.99287,-5.443863 1.076367,0 2.548626,0.625354 3.450086,1.97512"
       id="path81"
       sodipodi:nodetypes="csc" /><path
       style="opacity:1;fill:none;stroke:#000000;stroke-width:2.3;stroke-linecap:round;stroke-linejoin:round;stroke-dasharray:none;stroke-opacity:1;paint-order:fill markers stroke"
       d="m -87.839642,23.965259 c 0,2.691592 1.278025,5.443863 3.99287,5.443863 1.528363,0 2.653968,-0.79373 3.647108,-2.158308"
       id="path82"
       sodipodi:nodetypes="csc" /><path
       style="fill:#217867;stroke:#000000;stroke-width:2.3;stroke-linecap:round;stroke-linejoin:round;stroke-dasharray:none;paint-order:fill markers stroke"
       d="m -101.22212,23.384758 h 7.847282"
       id="path83"
       sodipodi:nodetypes="cc" /><path
       style="opacity:1;fill:none;stroke:#000000;stroke-width:2.3;stroke-linecap:round;stroke-linejoin:round;stroke-dasharray:none;stroke-opacity:1;paint-order:fill markers stroke"
       d="m -101.22212,23.965259 c 0,-2.691592 1.278034,-5.443863 3.992879,-5.443863 1.076368,0 3.729125,0.782209 3.854403,4.863362"
       id="path84"
       sodipodi:nodetypes="csc" /><path
       style="opacity:1;fill:none;stroke:#000000;stroke-width:2.3;stroke-linecap:round;stroke-linejoin:round;stroke-dasharray:none;stroke-opacity:1;paint-order:fill markers stroke"
       d="m -101.22212,23.965259 c 0,2.691592 1.278034,5.443863 3.992879,5.443863 1.528373,0 2.653978,-0.79373 3.647127,-2.158308"
       id="path85"
       sodipodi:nodetypes="csc" /><path
       style="opacity:1;fill:none;stroke:#000000;stroke-width:2.3;stroke-linecap:round;stroke-linejoin:round;stroke-dasharray:none;stroke-opacity:1;paint-order:fill markers stroke"
       d="m -112.8556,28.162733 c 0,0 1.23745,1.246395 4.15179,1.246395 4.54824,0 5.65005,-6.033969 -1.36737,-5.524658"
       id="path86"
       sodipodi:nodetypes="csc" /><path
       style="fill:none;stroke:#000000;stroke-width:2.3;stroke-linecap:round;stroke-linejoin:round;stroke-dasharray:none;paint-order:fill markers stroke"
       d="m -110.07118,23.88447 c 4.84456,-1.231175 5.60627,-5.458169 1.49507,-5.624897 -2.16366,0 -3.90094,2.022734 -3.90094,2.022734"
       id="path87"
       sodipodi:nodetypes="ccc" /><path
       style="opacity:1;fill:none;stroke:#000000;stroke-width:2.3;stroke-linecap:round;stroke-linejoin:round;stroke-dasharray:none;stroke-opacity:1;paint-order:fill markers stroke"
       d="M -112.8556,18.458865 V 29.409121"
       id="path88"
       sodipodi:nodetypes="cc" /><path
       style="opacity:1;fill:none;stroke:#000000;stroke-width:2.30036701;stroke-linecap:round;stroke-linejoin:round;stroke-dasharray:none;stroke-opacity:1;paint-order:fill markers stroke"
       id="ellipse88"
       transform="matrix(1,0,-0.02525886,0.99968094,0,0)"
       sodipodi:type="arc"
       sodipodi:cx="-96.146759"
       sodipodi:cy="32.150986"
       sodipodi:rx="2.9096062"
       sodipodi:ry="3.1896217"
       sodipodi:start="0.78539816"
       sodipodi:end="2.3561945"
       sodipodi:arc-type="arc"
       d="m -94.089357,34.406389 a 2.9096062,3.1896217 0 0 1 -2.057402,0.934218 2.9096062,3.1896217 0 0 1 -2.057402,-0.934218"
       sodipodi:open="true" /><rect
       style="fill:#fff6d5;stroke:none;stroke-width:6.89999;stroke-linecap:square;stroke-linejoin:miter;stroke-dasharray:none;paint-order:markers stroke fill"
       id="rect88"
       width="100.8745"
       height="166.90141"
       x="364.14014"
       y="179.4939" /><g
       id="g116"
       transform="matrix(2.8799575,0,0,2.8799575,130.34717,-2.7648493)"
       style="stroke:#333333"><path
         style="opacity:1;fill:none;stroke:#333333;stroke-width:1.80194;stroke-linecap:round;stroke-linejoin:round;stroke-dasharray:none;stroke-opacity:1;paint-order:fill markers stroke"
         d="m 135.35399,96.551106 v -8.57902"
         id="path110"
         sodipodi:nodetypes="cc" /><path
         style="fill:none;stroke:#333333;stroke-width:1.80194;stroke-linecap:round;stroke-linejoin:round;stroke-dasharray:none;paint-order:fill markers stroke"
         d="m 141.10109,87.972086 -5.7471,8.57902"
         id="path111" /><path
         style="opacity:1;fill:none;stroke:#333333;stroke-width:1.80194;stroke-linecap:round;stroke-linejoin:round;stroke-dasharray:none;stroke-opacity:1;paint-order:fill markers stroke"
         d="m 126.33675,87.972086 v 8.57902"
         id="path112"
         sodipodi:nodetypes="cc" /><path
         style="opacity:1;fill:none;stroke:#333333;stroke-width:1.80194;stroke-linecap:round;stroke-linejoin:round;stroke-dasharray:none;stroke-opacity:1;paint-order:fill markers stroke"
         d="m 126.33675,91.847014 c 0,-2.404309 2.35615,-3.825932 3.55355,-3.825932 1.15385,0 2.19334,0.86938 2.19334,2.521148 0,2.725853 -0.0454,6.008876 -0.0454,6.008876"
         id="path113"
         sodipodi:nodetypes="cssc" /><path
         style="opacity:1;fill:none;stroke:#333333;stroke-width:1.80194;stroke-linecap:round;stroke-linejoin:round;stroke-dasharray:none;stroke-opacity:1;paint-order:fill markers stroke"
         d="m 141.10109,96.551106 v -8.57902"
         id="path114"
         sodipodi:nodetypes="cc" /></g><path
       style="opacity:1;fill:none;stroke:#000000;stroke-width:2.3;stroke-linecap:round;stroke-linejoin:round;stroke-dasharray:none;stroke-opacity:1;paint-order:fill markers stroke"
       d="M 202.13837,29.409121 V 18.458865"
       id="path119"
       sodipodi:nodetypes="cc" /><path
       style="opacity:1;fill:none;stroke:#000000;stroke-width:2.3;stroke-linecap:round;stroke-linejoin:round;stroke-dasharray:none;stroke-opacity:1;paint-order:fill markers stroke"
       d="m 202.13837,24.46316 c 0,3.068869 -3.0074,4.88343 -4.53576,4.88343 -1.47277,0 -2.79957,-1.10968 -2.79957,-3.218 0,-3.479279 0.058,-7.669725 0.058,-7.669725"
       id="path120"
       sodipodi:nodetypes="cssc" /><rect
       style="fill:#fff6d5;stroke:none;stroke-width:6.89999;stroke-linecap:square;stroke-linejoin:miter;stroke-dasharray:none;paint-order:markers stroke fill"
       id="rect120"
       width="100.8745"
       height="166.90141"
       x="-465.01471"
       y="-179.49405"
       transform="scale(-1)" /><rect
       style="fill:#fff6d5;stroke:none;stroke-width:6.89999;stroke-linecap:square;stroke-linejoin:miter;stroke-dasharray:none;paint-order:markers stroke fill"
       id="rect121"
       width="100.8745"
       height="166.90141"
       x="263.26572"
       y="12.592641" /><g
       id="g125"
       transform="matrix(-2.8799575,0,0,-2.8799575,786.69734,361.75271)"
       style="stroke:#333333"><path
         style="opacity:1;fill:none;stroke:#333333;stroke-width:1.80194;stroke-linecap:round;stroke-linejoin:round;stroke-dasharray:none;stroke-opacity:1;paint-order:fill markers stroke"
         d="m 126.33675,87.972086 v 8.57902"
         id="path123"
         sodipodi:nodetypes="cc" /><path
         style="opacity:1;fill:none;stroke:#333333;stroke-width:1.80194;stroke-linecap:round;stroke-linejoin:round;stroke-dasharray:none;stroke-opacity:1;paint-order:fill markers stroke"
         d="m 126.33675,91.847014 c 0,-2.404309 2.35615,-3.825932 3.55355,-3.825932 1.15385,0 2.19334,0.86938 2.19334,2.521148 0,2.725853 -0.0454,6.008876 -0.0454,6.008876"
         id="path124"
         sodipodi:nodetypes="cssc" /></g><path
       style="fill:none;stroke:#5599ff;stroke-width:5.99999;stroke-linecap:butt;stroke-linejoin:miter;stroke-dasharray:none;stroke-opacity:1;paint-order:markers stroke fill"
       d="m 294.16984,165.69203 h 69.97039"
       id="path132"
       sodipodi:nodetypes="cc" /><g
       id="g140"
       transform="matrix(2.222886,0,0,2.222886,144.17154,-250.87582)"
       style="stroke:#333333"><path
         style="opacity:1;fill:none;stroke:#333333;stroke-width:2.3;stroke-linecap:round;stroke-linejoin:round;stroke-dasharray:none;stroke-opacity:1;paint-order:fill markers stroke"
         d="m 61.197726,160.3954 c 0,0 1.237457,1.24639 4.151792,1.24639 4.548245,0 5.650062,-6.03397 -1.367367,-5.52466"
         id="path134"
         sodipodi:nodetypes="csc" /><path
         style="fill:none;stroke:#333333;stroke-width:2.3;stroke-linecap:round;stroke-linejoin:round;stroke-dasharray:none;paint-order:fill markers stroke"
         d="m 63.982151,156.11713 c 4.844559,-1.23117 5.606271,-5.45816 1.495078,-5.62489 -2.16366,0 -3.697658,1.61115 -3.697658,1.61115"
         id="path135"
         sodipodi:nodetypes="ccc" /><path
         style="opacity:1;fill:none;stroke:#333333;stroke-width:2.3;stroke-linecap:round;stroke-linejoin:round;stroke-dasharray:none;stroke-opacity:1;paint-order:fill markers stroke"
         d="m 83.999415,161.64179 -10e-7,-10.95026"
         id="path136"
         sodipodi:nodetypes="cc" /><path
         style="fill:none;stroke:#333333;stroke-width:2.3;stroke-linecap:round;stroke-linejoin:round;stroke-dasharray:none;paint-order:fill markers stroke"
         d="m 91.335023,150.69153 -7.335608,10.95026"
         id="path137" /><path
         style="opacity:1;fill:none;stroke:#333333;stroke-width:2.3;stroke-linecap:round;stroke-linejoin:round;stroke-dasharray:none;stroke-opacity:1;paint-order:fill markers stroke"
         d="m 79.825132,161.64179 10e-7,-10.95026"
         id="path138"
         sodipodi:nodetypes="cc" /><path
         style="opacity:1;fill:none;stroke:#333333;stroke-width:2.3;stroke-linecap:round;stroke-linejoin:round;stroke-dasharray:none;stroke-opacity:1;paint-order:fill markers stroke"
         d="m 79.825132,156.69582 c 0,3.06887 -3.007392,4.88343 -4.535757,4.88343 -1.472774,0 -2.799573,-1.10968 -2.799573,-3.218 0,-3.47927 0.05799,-7.66972 0.05799,-7.66972"
         id="path139"
         sodipodi:nodetypes="cssc" /><path
         style="opacity:1;fill:none;stroke:#333333;stroke-width:2.3;stroke-linecap:round;stroke-linejoin:round;stroke-dasharray:none;stroke-opacity:1;paint-order:fill markers stroke"
         d="M 91.335023,161.6418 V 150.69153"
         id="path140"
         sodipodi:nodetypes="cc" /></g><path
       style="fill:none;stroke:#ff3a00;stroke-width:5.99999;stroke-linecap:butt;stroke-linejoin:miter;stroke-dasharray:none;stroke-dashoffset:13.8;stroke-opacity:1;paint-order:markers stroke fill"
       d="m 395.0443,154.43498 h 69.9704"
       id="path145"
       sodipodi:nodetypes="cc" /><path
       style="fill:#ff3a00;fill-opacity:1;stroke:none;stroke-width:4.50002;stroke-linecap:butt;stroke-linejoin:miter;stroke-dasharray:none;paint-order:markers stroke fill"
       id="path146"
       sodipodi:type="arc"
       sodipodi:cx="197.60278"
       sodipodi:cy="-565.88922"
       sodipodi:rx="12.076319"
       sodipodi:ry="12.076319"
       sodipodi:start="0"
       sodipodi:end="3.1415927"
       sodipodi:open="true"
       sodipodi:arc-type="arc"
       d="m 209.6791,-565.88922 a 12.076319,12.076319 0 0 1 -6.03816,10.4584 12.076319,12.076319 0 0 1 -12.07632,0 12.076319,12.076319 0 0 1 -6.03816,-10.4584"
       transform="rotate(90)" /><g
       id="g161"
       transform="matrix(2.9999951,0,0,2.9999951,169.61106,-19.232049)"
       style="stroke:#333333;stroke-opacity:1"><ellipse
         style="opacity:1;fill:none;stroke:#333333;stroke-width:1.73527;stroke-linecap:round;stroke-linejoin:round;stroke-dasharray:none;stroke-opacity:1;paint-order:fill markers stroke"
         id="ellipse155"
         cx="76.439598"
         cy="94.075203"
         rx="2.7653608"
         ry="4.1311479"
         transform="matrix(1,0,-0.01853531,0.99982821,0,0)" /><path
         style="fill:none;stroke:#333333;stroke-width:1.73512;stroke-linecap:round;stroke-linejoin:round;stroke-dasharray:none;stroke-opacity:1;paint-order:fill markers stroke"
         d="m 72.22584,92.301839 c 0,0 -1.36697,3.589315 -3.25705,0.958796"
         id="path156"
         sodipodi:nodetypes="cc" /><path
         style="fill:none;stroke:#333333;stroke-width:1.73512;stroke-linecap:round;stroke-linejoin:round;stroke-dasharray:none;stroke-opacity:1;paint-order:fill markers stroke"
         d="m 88.84305,89.928605 5.49937,8.260876"
         id="path157" /><path
         style="opacity:1;fill:none;stroke:#333333;stroke-width:1.73512;stroke-linecap:round;stroke-linejoin:round;stroke-dasharray:none;stroke-opacity:1;paint-order:fill markers stroke"
         d="m 68.96879,98.189482 v -8.26088"
         id="path158"
         sodipodi:nodetypes="cc" /><path
         style="opacity:1;fill:none;stroke:#333333;stroke-width:1.73512;stroke-linecap:round;stroke-linejoin:round;stroke-dasharray:none;stroke-opacity:1;paint-order:fill markers stroke"
         d="m 80.39583,89.928605 v 8.260872"
         id="path159"
         sodipodi:nodetypes="cc" /><path
         style="opacity:1;fill:none;stroke:#333333;stroke-width:1.73512;stroke-linecap:round;stroke-linejoin:round;stroke-dasharray:none;stroke-opacity:1;paint-order:fill markers stroke"
         d="m 80.39583,93.659837 c 0,-2.315154 2.26877,-3.684059 3.42177,-3.684059 1.11106,0 2.112,0.837143 2.112,2.427659 0,2.624768 -0.0437,5.78604 -0.0437,5.78604"
         id="path160"
         sodipodi:nodetypes="cssc" /><path
         style="fill:none;stroke:#333333;stroke-width:1.73512;stroke-linecap:round;stroke-linejoin:round;stroke-dasharray:none;stroke-opacity:1;paint-order:fill markers stroke"
         d="m 94.34242,89.928605 -5.49937,8.260876"
         id="path161" /></g><path
       style="fill:#ff3a00;fill-opacity:1;stroke:none;stroke-width:4.50002;stroke-linecap:butt;stroke-linejoin:miter;stroke-dasharray:none;paint-order:markers stroke fill"
       id="path166"
       sodipodi:type="arc"
       sodipodi:cx="-30.701502"
       sodipodi:cy="-465.01471"
       sodipodi:rx="12.076319"
       sodipodi:ry="12.076319"
       sodipodi:start="0"
       sodipodi:end="3.1415927"
       sodipodi:open="true"
       sodipodi:arc-type="arc"
       d="m -18.625183,-465.01471 a 12.076319,12.076319 0 0 1 -6.03816,10.4584 12.076319,12.076319 0 0 1 -12.076319,0 12.076319,12.076319 0 0 1 -6.038159,-10.4584"
       transform="matrix(0,-1,-1,0,0,0)" /><rect
       style="fill:#bcf0ff;fill-opacity:1;stroke:none;stroke-width:4.49999;stroke-linecap:butt;stroke-linejoin:miter;stroke-dasharray:none;paint-order:markers stroke fill"
       id="rect177"
       width="100.8745"
       height="6.0326023"
       x="263.26572"
       y="12.592641" /><rect
       style="fill:#bcf0ff;fill-opacity:1;stroke:none;stroke-width:4.49999;stroke-linecap:butt;stroke-linejoin:miter;stroke-dasharray:none;paint-order:markers stroke fill"
       id="rect178"
       width="100.8745"
       height="6.0326023"
       x="-465.01471"
       y="-179.49405"
       transform="scale(-1)" /><rect
       style="fill:#bcf0ff;fill-opacity:1;stroke:none;stroke-width:4.49999;stroke-linecap:butt;stroke-linejoin:miter;stroke-dasharray:none;paint-order:markers stroke fill"
       id="rect179"
       width="100.8745"
       height="6.0326023"
       x="263.26572"
       y="173.46149" /><rect
       style="fill:#bcf0ff;fill-opacity:1;stroke:none;stroke-width:4.49999;stroke-linecap:butt;stroke-linejoin:miter;stroke-dasharray:none;paint-order:markers stroke fill"
       id="rect180"
       width="100.8745"
       height="6.0326023"
       x="-465.01471"
       y="-18.625177"
       transform="scale(-1)" /><rect
       style="fill:#bcf0ff;fill-opacity:1;stroke:none;stroke-width:4.49999;stroke-linecap:butt;stroke-linejoin:miter;stroke-dasharray:none;paint-order:markers stroke fill"
       id="rect181"
       width="166.90138"
       height="6.0326023"
       x="12.592641"
       y="-269.29831"
       transform="rotate(90)" /><rect
       style="fill:#bcf0ff;fill-opacity:1;stroke:none;stroke-width:4.49999;stroke-linecap:butt;stroke-linejoin:miter;stroke-dasharray:none;paint-order:markers stroke fill"
       id="rect182"
       width="166.90138"
       height="6.0326023"
       x="-179.49405"
       y="364.14014"
       transform="rotate(-90)" /><path
       id="path169"
       style="fill:#005242;fill-opacity:1;stroke:none;stroke-width:3.3719;stroke-linecap:butt;stroke-linejoin:miter;stroke-dasharray:none;paint-order:markers stroke fill"
       d="m 364.1401,18.625285 12.3368,12.33673 -12.3368,12.33676 z" /><path
       id="path170"
       style="fill:#005242;fill-opacity:1;stroke:none;stroke-width:3.3719;stroke-linecap:butt;stroke-linejoin:miter;stroke-dasharray:none;paint-order:markers stroke fill"
       d="m 263.26573,18.625244 12.33676,12.33673 -12.33676,12.33676 z" /><path
       id="path171"
       style="fill:#005242;fill-opacity:1;stroke:none;stroke-width:3.3719;stroke-linecap:butt;stroke-linejoin:miter;stroke-dasharray:none;paint-order:markers stroke fill"
       d="m 364.14023,185.52663 12.33676,12.33673 -12.33676,12.33676 z" /><path
       style="fill:none;stroke:#5599ff;stroke-width:5.99999;stroke-linecap:butt;stroke-linejoin:miter;stroke-dasharray:none;paint-order:markers stroke fill"
       d="m 465.01473,332.5933 h 69.97038"
       id="path173"
       sodipodi:nodetypes="cc" /><path
       style="fill:none;stroke:#ff3a00;stroke-width:5.99999;stroke-linecap:butt;stroke-linejoin:miter;stroke-dasharray:none;stroke-opacity:1;paint-order:markers stroke fill"
       d="M 434.11061,321.33638 H 364.14023"
       id="path174"
       sodipodi:nodetypes="cc" /><text
       xml:space="preserve"
       style="font-weight:bold;font-size:16.9333px;line-height:1;font-family:'Rounded-X M+ 1p';-inkscape-font-specification:'Rounded-X M+ 1p Bold';text-align:start;letter-spacing:0.211667px;word-spacing:-0.264583px;writing-mode:lr-tb;direction:ltr;text-anchor:start;fill:#ff0000;stroke:none;stroke-width:1.5;stroke-linecap:butt;stroke-linejoin:miter;stroke-dasharray:none;paint-order:markers stroke fill"
       x="178.40074"
       y="142.48114"
       id="text176"><tspan
         sodipodi:role="line"
         id="tspan176"
         style="stroke-width:1.5"
         x="178.40074"
         y="142.48114" /></text><rect
       style="fill:#bcf0ff;fill-opacity:1;stroke:none;stroke-width:4.49999;stroke-linecap:butt;stroke-linejoin:miter;stroke-dasharray:none;paint-order:markers stroke fill"
       id="rect214"
       width="100.8745"
       height="6.0326023"
       x="364.14017"
       y="179.49388" /><path
       id="path185"
       style="fill:none;stroke:#ff3a00;stroke-width:3.59999;stroke-linecap:round;stroke-linejoin:round;stroke-miterlimit:8.5;stroke-dasharray:none;stroke-opacity:1;paint-order:markers stroke fill"
       d="m 449.31603,240.43967 c -3.40266,-0.90788 -6.06044,-3.55442 -6.97218,-6.9427 -0.91173,-3.38827 0.0611,-7.00351 2.55201,-9.4839 -3.05073,1.7539 -6.8094,1.7539 -9.86014,0 -3.05074,-1.7539 -4.93008,-4.99524 -4.93008,-8.50303 -1.76135,3.03785 -5.01645,4.90925 -8.53914,4.90925 -3.52269,0 -6.77779,-1.87139 -8.53913,-4.90923"
       sodipodi:nodetypes="cscscsc" /><rect
       style="fill:#bcf0ff;fill-opacity:1;stroke:none;stroke-width:4.49999;stroke-linecap:butt;stroke-linejoin:miter;stroke-dasharray:none;paint-order:markers stroke fill"
       id="rect215"
       width="100.8745"
       height="6.0326023"
       x="364.14017"
       y="340.36273" /><path
       id="path186"
       style="fill:none;stroke:#ff3a00;stroke-width:3.59999;stroke-linecap:round;stroke-linejoin:round;stroke-miterlimit:8.5;stroke-dasharray:none;stroke-opacity:1;paint-order:markers stroke fill"
       d="m 378.45017,284.25818 c 3.40265,0.90786 6.06043,3.55443 6.97217,6.94268 0.91174,3.38829 -0.0611,7.00352 -2.55201,9.48392 3.05073,-1.75389 6.8094,-1.75389 9.86014,0 3.05075,1.75392 4.93008,4.99523 4.93008,8.50303 1.76135,-3.03785 5.01645,-4.90925 8.53915,-4.90925 3.52268,0 6.77778,1.87137 8.53913,4.90922"
       sodipodi:nodetypes="cscscsc" /><rect
       style="fill:#bcf0ff;fill-opacity:1;stroke:none;stroke-width:4.49999;stroke-linecap:butt;stroke-linejoin:miter;stroke-dasharray:none;paint-order:markers stroke fill"
       id="rect216"
       width="166.90138"
       height="6.0326023"
       x="179.49388"
       y="-465.01474"
       transform="rotate(90)" /><rect
       style="fill:#ffffff;stroke:none;stroke-width:6.89999;stroke-linecap:square;stroke-linejoin:miter;stroke-dasharray:none;paint-order:markers stroke fill"
       id="rect186"
       width="100.8745"
       height="166.90141"
       x="364.14017"
       y="346.39532" /><g
       id="g189"
       transform="matrix(2.8799575,0,0,2.8799575,575.97005,164.17428)"
       style="stroke:#333333"><path
         style="opacity:1;fill:none;stroke:#333333;stroke-width:1.80194;stroke-linecap:round;stroke-linejoin:round;stroke-dasharray:none;stroke-opacity:1;paint-order:fill markers stroke"
         d="m -53.952139,87.972086 -10e-7,8.57902"
         id="path187"
         sodipodi:nodetypes="cc" /><path
         style="opacity:1;fill:none;stroke:#333333;stroke-width:1.80194;stroke-linecap:round;stroke-linejoin:round;stroke-dasharray:none;stroke-opacity:1;paint-order:fill markers stroke"
         d="m -53.952139,91.847014 c 0,-2.404309 2.356149,-3.825932 3.553551,-3.825932 1.153849,0 2.193333,0.86938 2.193333,2.521148 0,2.725853 -0.04542,6.008876 -0.04542,6.008876"
         id="path188"
         sodipodi:nodetypes="cssc" /><ellipse
         style="opacity:1;fill:none;stroke:#333333;stroke-width:1.80211;stroke-linecap:round;stroke-linejoin:round;stroke-dasharray:none;stroke-opacity:1;paint-order:fill markers stroke"
         id="ellipse188"
         cx="-58.741314"
         cy="92.27861"
         rx="3.3595028"
         ry="4.290298"
         transform="matrix(1,0,-0.01920856,0.9998155,0,0)" /><path
         style="fill:none;stroke:#333333;stroke-width:1.80194;stroke-linecap:round;stroke-linejoin:round;stroke-dasharray:none;paint-order:fill markers stroke"
         d="m -63.838963,83.376192 h 6.286004 c -2.908682,1.641574 -6.233764,4.595894 -6.316172,8.885347"
         id="path189"
         sodipodi:nodetypes="ccc" /></g><path
       style="fill:#ff3a00;fill-opacity:1;stroke:none;stroke-width:4.50002;stroke-linecap:butt;stroke-linejoin:miter;stroke-dasharray:none;paint-order:markers stroke fill"
       id="path190"
       sodipodi:type="arc"
       sodipodi:cx="-364.50421"
       sodipodi:cy="364.14017"
       sodipodi:rx="12.076319"
       sodipodi:ry="12.076319"
       sodipodi:start="0"
       sodipodi:end="3.1415927"
       sodipodi:open="true"
       sodipodi:arc-type="arc"
       d="m -352.42789,364.14017 a 12.076319,12.076319 0 0 1 -6.03816,10.4584 12.076319,12.076319 0 0 1 -12.07632,0 12.076319,12.076319 0 0 1 -6.03816,-10.4584"
       transform="rotate(-90)" /><path
       id="path191"
       style="fill:#005242;fill-opacity:1;stroke:none;stroke-width:3.3719;stroke-linecap:butt;stroke-linejoin:miter;stroke-dasharray:none;paint-order:markers stroke fill"
       d="m 465.01465,352.4279 -12.33676,12.33673 12.33676,12.33676 z" /><rect
       style="fill:#ffffff;stroke:none;stroke-width:6.89999;stroke-linecap:square;stroke-linejoin:miter;stroke-dasharray:none;paint-order:markers stroke fill"
       id="rect192"
       width="100.8745"
       height="166.90141"
       x="364.14017"
       y="513.29675" /><g
       id="g198"
       transform="matrix(2.256321,0,0,2.256321,384.1262,203.0262)"
       style="stroke:#333333"><path
         style="fill:#217867;stroke:#333333;stroke-width:2.3;stroke-linecap:round;stroke-linejoin:round;stroke-dasharray:none;paint-order:fill markers stroke"
         d="M 23.031595,174.47697 H 17.328067"
         id="path193"
         sodipodi:nodetypes="cc" /><path
         style="opacity:1;fill:none;stroke:#333333;stroke-width:2.3;stroke-linecap:round;stroke-linejoin:round;stroke-dasharray:none;stroke-opacity:1;paint-order:fill markers stroke"
         d="m 3.960296,169.02191 -1e-6,10.95026"
         id="path194"
         sodipodi:nodetypes="cc" /><path
         style="opacity:1;fill:none;stroke:#333333;stroke-width:2.3;stroke-linecap:round;stroke-linejoin:round;stroke-dasharray:none;stroke-opacity:1;paint-order:fill markers stroke"
         d="m 12.152014,174.5283 c 0,-2.69159 -1.307691,-5.44386 -4.085547,-5.44386 -1.563836,0 -4.10617,1.81456 -4.10617,4.88343"
         id="path195"
         sodipodi:nodetypes="csc" /><path
         style="opacity:1;fill:none;stroke:#333333;stroke-width:2.3;stroke-linecap:round;stroke-linejoin:round;stroke-dasharray:none;stroke-opacity:1;paint-order:fill markers stroke"
         d="m 12.152014,174.5283 c 0,2.6916 -1.307691,5.44387 -4.085547,5.44387 -1.563836,0 -4.10617,-1.81456 -4.10617,-4.88343"
         id="path196"
         sodipodi:nodetypes="csc" /><path
         style="opacity:1;fill:none;stroke:#333333;stroke-width:2.3;stroke-linecap:round;stroke-linejoin:round;stroke-dasharray:none;stroke-opacity:1;paint-order:fill markers stroke"
         d="m 23.031595,174.5283 c 0,-2.69159 -1.278029,-5.44386 -3.992872,-5.44386 -1.076364,0 -2.548628,0.62535 -3.450086,1.97512"
         id="path197"
         sodipodi:nodetypes="csc" /><path
         style="opacity:1;fill:none;stroke:#333333;stroke-width:2.3;stroke-linecap:round;stroke-linejoin:round;stroke-dasharray:none;stroke-opacity:1;paint-order:fill markers stroke"
         d="m 23.031595,174.5283 c 0,2.6916 -1.278029,5.44387 -3.992872,5.44387 -1.528365,0 -2.653968,-0.79373 -3.647112,-2.15831"
         id="path198"
         sodipodi:nodetypes="csc" /></g><path
       style="fill:#ff3a00;fill-opacity:1;stroke:none;stroke-width:4.50002;stroke-linecap:butt;stroke-linejoin:miter;stroke-dasharray:none;paint-order:markers stroke fill"
       id="path199"
       sodipodi:type="arc"
       sodipodi:cx="-531.4057"
       sodipodi:cy="364.14017"
       sodipodi:rx="12.076319"
       sodipodi:ry="12.076319"
       sodipodi:start="0"
       sodipodi:end="3.1415927"
       sodipodi:open="true"
       sodipodi:arc-type="arc"
       d="m -519.32938,364.14017 a 12.076319,12.076319 0 0 1 -6.03816,10.4584 12.076319,12.076319 0 0 1 -12.07632,0 12.076319,12.076319 0 0 1 -6.03816,-10.4584"
       transform="rotate(-90)" /><path
       id="path200"
       style="fill:#005242;fill-opacity:1;stroke:none;stroke-width:3.3719;stroke-linecap:butt;stroke-linejoin:miter;stroke-dasharray:none;paint-order:markers stroke fill"
       d="m 465.0146,519.32943 -12.3367,12.33673 12.3367,12.33676 z" /><path
       style="fill:none;stroke:#5599ff;stroke-width:5.99999;stroke-linecap:butt;stroke-linejoin:miter;stroke-dasharray:none;paint-order:markers stroke fill"
       d="m 395.04435,332.5933 h 69.97038"
       id="path117"
       sodipodi:nodetypes="cc" /><rect
       style="fill:#ff3a00;fill-opacity:1;stroke:none;stroke-width:3.60198;stroke-linecap:round;stroke-linejoin:round;stroke-miterlimit:8.5;stroke-dasharray:none;stroke-dashoffset:52.1574;stroke-opacity:1;paint-order:markers stroke fill"
       id="rect217"
       width="13.143833"
       height="5.9855456"
       x="547.56165"
       y="514.70795"
       transform="matrix(0.64943222,-0.76041948,0,1,0,0)" /><rect
       style="fill:#ff3a00;fill-opacity:1;stroke:none;stroke-width:3.60198;stroke-linecap:round;stroke-linejoin:round;stroke-miterlimit:8.5;stroke-dasharray:none;stroke-dashoffset:52.1574;stroke-opacity:1;paint-order:markers stroke fill"
       id="rect218"
       width="13.143833"
       height="5.9855456"
       x="702.88867"
       y="440.73505"
       transform="matrix(0.64943222,0.76041948,0,-1,0,0)" /></g></svg>
