
            <svg id="result" width="178.76px" height="178.75px" version="1.1" viewBox="0 0 17.876 17.875" xmlns="http://www.w3.org/2000/svg" xmlns:cc="http://creativecommons.org/ns#" xmlns:dc="http://purl.org/dc/elements/1.1/" xmlns:rdf="http://www.w3.org/1999/02/22-rdf-syntax-ns#"><g><rect x="0.0512" y="0.0512" width="3.5554" height="3.5554" fill="none" stroke="#000" stroke-linecap="square" stroke-width=".099263" style="paint-order:stroke fill markers"></rect><rect x="0.0512" y="3.6063" width="3.5554" height="3.5554" fill="none" stroke="#000" stroke-linecap="square" stroke-width=".099263" style="paint-order:stroke fill markers"></rect><rect x="0.0512" y="7.1613999999999995" width="3.5554" height="3.5554" fill="none" stroke="#000" stroke-linecap="square" stroke-width=".099263" style="paint-order:stroke fill markers"></rect><rect x="0.0512" y="10.7165" width="3.5554" height="3.5554" fill="none" stroke="#000" stroke-linecap="square" stroke-width=".099263" style="paint-order:stroke fill markers"></rect><rect x="0.0512" y="14.2716" width="3.5554" height="3.5554" fill="none" stroke="#000" stroke-linecap="square" stroke-width=".099263" style="paint-order:stroke fill markers"></rect><rect x="3.6063" y="0.0512" width="3.5554" height="3.5554" fill="none" stroke="#000" stroke-linecap="square" stroke-width=".099263" style="paint-order:stroke fill markers"></rect><rect x="3.6063" y="3.6063" width="3.5554" height="3.5554" fill="none" stroke="#000" stroke-linecap="square" stroke-width=".099263" style="paint-order:stroke fill markers"></rect><rect x="3.6063" y="7.1613999999999995" width="3.5554" height="3.5554" fill="none" stroke="#000" stroke-linecap="square" stroke-width=".099263" style="paint-order:stroke fill markers"></rect><rect x="3.6063" y="10.7165" width="3.5554" height="3.5554" fill="none" stroke="#000" stroke-linecap="square" stroke-width=".099263" style="paint-order:stroke fill markers"></rect><rect x="3.6063" y="14.2716" width="3.5554" height="3.5554" fill="none" stroke="#000" stroke-linecap="square" stroke-width=".099263" style="paint-order:stroke fill markers"></rect><rect x="7.1613999999999995" y="0.0512" width="3.5554" height="3.5554" fill="none" stroke="#000" stroke-linecap="square" stroke-width=".099263" style="paint-order:stroke fill markers"></rect><rect x="7.1613999999999995" y="3.6063" width="3.5554" height="3.5554" fill="none" stroke="#000" stroke-linecap="square" stroke-width=".099263" style="paint-order:stroke fill markers"></rect><rect x="7.1613999999999995" y="7.1613999999999995" width="3.5554" height="3.5554" fill="none" stroke="#000" stroke-linecap="square" stroke-width=".099263" style="paint-order:stroke fill markers"></rect><rect x="7.1613999999999995" y="10.7165" width="3.5554" height="3.5554" fill="none" stroke="#000" stroke-linecap="square" stroke-width=".099263" style="paint-order:stroke fill markers"></rect><rect x="7.1613999999999995" y="14.2716" width="3.5554" height="3.5554" fill="none" stroke="#000" stroke-linecap="square" stroke-width=".099263" style="paint-order:stroke fill markers"></rect><rect x="10.7165" y="0.0512" width="3.5554" height="3.5554" fill="none" stroke="#000" stroke-linecap="square" stroke-width=".099263" style="paint-order:stroke fill markers"></rect><rect x="10.7165" y="3.6063" width="3.5554" height="3.5554" fill="none" stroke="#000" stroke-linecap="square" stroke-width=".099263" style="paint-order:stroke fill markers"></rect><rect x="10.7165" y="7.1613999999999995" width="3.5554" height="3.5554" fill="none" stroke="#000" stroke-linecap="square" stroke-width=".099263" style="paint-order:stroke fill markers"></rect><rect x="10.7165" y="10.7165" width="3.5554" height="3.5554" fill="none" stroke="#000" stroke-linecap="square" stroke-width=".099263" style="paint-order:stroke fill markers"></rect><rect x="10.7165" y="14.2716" width="3.5554" height="3.5554" fill="none" stroke="#000" stroke-linecap="square" stroke-width=".099263" style="paint-order:stroke fill markers"></rect><rect x="14.2716" y="0.0512" width="3.5554" height="3.5554" fill="none" stroke="#000" stroke-linecap="square" stroke-width=".099263" style="paint-order:stroke fill markers"></rect><rect x="14.2716" y="3.6063" width="3.5554" height="3.5554" fill="none" stroke="#000" stroke-linecap="square" stroke-width=".099263" style="paint-order:stroke fill markers"></rect><rect x="14.2716" y="7.1613999999999995" width="3.5554" height="3.5554" fill="none" stroke="#000" stroke-linecap="square" stroke-width=".099263" style="paint-order:stroke fill markers"></rect><rect x="14.2716" y="10.7165" width="3.5554" height="3.5554" fill="none" stroke="#000" stroke-linecap="square" stroke-width=".099263" style="paint-order:stroke fill markers"></rect><rect x="14.2716" y="14.2716" width="3.5554" height="3.5554" fill="none" stroke="#000" stroke-linecap="square" stroke-width=".099263" style="paint-order:stroke fill markers"></rect></g><path d="m9.978 5.4185a1.0423 1.0423 0 0 1-1.066 1.0097 1.0423 1.0423 0 0 1-1.0179-1.0581 1.0423 1.0423 0 0 1 1.0502-1.0261 1.0423 1.0423 0 0 1 1.0342 1.0422" stroke-width=".298" fill="none" stroke="#000" stroke-linecap="square" style="paint-order:stroke fill markers"></path><path d="m6.423 8.974a1.0423 1.0423 0 0 1-1.066 1.0097 1.0423 1.0423 0 0 1-1.0179-1.0581 1.0423 1.0423 0 0 1 1.0502-1.0261 1.0423 1.0423 0 0 1 1.0342 1.0422" stroke-width=".298" fill="none" stroke="#000" stroke-linecap="square" style="paint-order:stroke fill markers"></path><path d="m13.533000000000001 8.974a1.0423 1.0423 0 0 1-1.066 1.0097 1.0423 1.0423 0 0 1-1.0179-1.0581 1.0423 1.0423 0 0 1 1.0502-1.0261 1.0423 1.0423 0 0 1 1.0342 1.0422" stroke-width=".298" fill="none" stroke="#000" stroke-linecap="square" style="paint-order:stroke fill markers"></path><path d="m9.978 12.529499999999999a1.0423 1.0423 0 0 1-1.066 1.0097 1.0423 1.0423 0 0 1-1.0179-1.0581 1.0423 1.0423 0 0 1 1.0502-1.0261 1.0423 1.0423 0 0 1 1.0342 1.0422" stroke-width=".298" fill="none" stroke="#000" stroke-linecap="square" style="paint-order:stroke fill markers"></path><g transform="scale(0.206) translate(42.666000000000004 37.452000000000005)"><path d="m0 0c0.20576 1.6187 0.17065 3.0078-0.0222 4.2065l-1.7947 1.1234 0.24237 0.28216 1.3353-0.35657c-1.3058 4.9564-5.5346 6.0094-5.5346 6.0094l0.0103 0.6258c4.0766-1.022 6.0293-4.3243 6.9577-7.0182l3.7316-0.99633-1.7766-1.6552-1.463 0.9157c0.27978-1.2319 0.33228-2.0867 0.33228-2.0867zm-3.1089 1.1307c0.92862 3.9971-1.4536 6.3794-1.4536 6.3794s0.38376 0.0604 0.8077 0.0806c1.442-1.5069 2.9874-5.8544 2.9874-5.8544zm4.4618 5.7149s2.8761 2.6182 4.6085 4.7894c0.62083-0.65454 1.2692-1.4335 1.2692-1.4335s-2.7978-2.2613-5.8777-3.3559z"></path></g></svg>
        