
            <svg id="result" width="178.76px" height="178.75px" version="1.1" viewBox="0 0 17.876 17.875" xmlns="http://www.w3.org/2000/svg" xmlns:cc="http://creativecommons.org/ns#" xmlns:dc="http://purl.org/dc/elements/1.1/" xmlns:rdf="http://www.w3.org/1999/02/22-rdf-syntax-ns#"><g><rect x="0.0512" y="0.0512" width="3.5554" height="3.5554" fill="none" stroke="#000" stroke-linecap="square" stroke-width=".099263" style="paint-order:stroke fill markers"></rect><rect x="0.0512" y="3.6063" width="3.5554" height="3.5554" fill="none" stroke="#000" stroke-linecap="square" stroke-width=".099263" style="paint-order:stroke fill markers"></rect><rect x="0.0512" y="7.1613999999999995" width="3.5554" height="3.5554" fill="none" stroke="#000" stroke-linecap="square" stroke-width=".099263" style="paint-order:stroke fill markers"></rect><rect x="0.0512" y="10.7165" width="3.5554" height="3.5554" fill="none" stroke="#000" stroke-linecap="square" stroke-width=".099263" style="paint-order:stroke fill markers"></rect><rect x="0.0512" y="14.2716" width="3.5554" height="3.5554" fill="none" stroke="#000" stroke-linecap="square" stroke-width=".099263" style="paint-order:stroke fill markers"></rect><rect x="3.6063" y="0.0512" width="3.5554" height="3.5554" fill="none" stroke="#000" stroke-linecap="square" stroke-width=".099263" style="paint-order:stroke fill markers"></rect><rect x="3.6063" y="3.6063" width="3.5554" height="3.5554" fill="none" stroke="#000" stroke-linecap="square" stroke-width=".099263" style="paint-order:stroke fill markers"></rect><rect x="3.6063" y="7.1613999999999995" width="3.5554" height="3.5554" fill="none" stroke="#000" stroke-linecap="square" stroke-width=".099263" style="paint-order:stroke fill markers"></rect><rect x="3.6063" y="10.7165" width="3.5554" height="3.5554" fill="none" stroke="#000" stroke-linecap="square" stroke-width=".099263" style="paint-order:stroke fill markers"></rect><rect x="3.6063" y="14.2716" width="3.5554" height="3.5554" fill="none" stroke="#000" stroke-linecap="square" stroke-width=".099263" style="paint-order:stroke fill markers"></rect><rect x="7.1613999999999995" y="0.0512" width="3.5554" height="3.5554" fill="none" stroke="#000" stroke-linecap="square" stroke-width=".099263" style="paint-order:stroke fill markers"></rect><rect x="7.1613999999999995" y="3.6063" width="3.5554" height="3.5554" fill="none" stroke="#000" stroke-linecap="square" stroke-width=".099263" style="paint-order:stroke fill markers"></rect><rect x="7.1613999999999995" y="7.1613999999999995" width="3.5554" height="3.5554" fill="none" stroke="#000" stroke-linecap="square" stroke-width=".099263" style="paint-order:stroke fill markers"></rect><rect x="7.1613999999999995" y="10.7165" width="3.5554" height="3.5554" fill="none" stroke="#000" stroke-linecap="square" stroke-width=".099263" style="paint-order:stroke fill markers"></rect><rect x="7.1613999999999995" y="14.2716" width="3.5554" height="3.5554" fill="none" stroke="#000" stroke-linecap="square" stroke-width=".099263" style="paint-order:stroke fill markers"></rect><rect x="10.7165" y="0.0512" width="3.5554" height="3.5554" fill="none" stroke="#000" stroke-linecap="square" stroke-width=".099263" style="paint-order:stroke fill markers"></rect><rect x="10.7165" y="3.6063" width="3.5554" height="3.5554" fill="none" stroke="#000" stroke-linecap="square" stroke-width=".099263" style="paint-order:stroke fill markers"></rect><rect x="10.7165" y="7.1613999999999995" width="3.5554" height="3.5554" fill="none" stroke="#000" stroke-linecap="square" stroke-width=".099263" style="paint-order:stroke fill markers"></rect><rect x="10.7165" y="10.7165" width="3.5554" height="3.5554" fill="none" stroke="#000" stroke-linecap="square" stroke-width=".099263" style="paint-order:stroke fill markers"></rect><rect x="10.7165" y="14.2716" width="3.5554" height="3.5554" fill="none" stroke="#000" stroke-linecap="square" stroke-width=".099263" style="paint-order:stroke fill markers"></rect><rect x="14.2716" y="0.0512" width="3.5554" height="3.5554" fill="none" stroke="#000" stroke-linecap="square" stroke-width=".099263" style="paint-order:stroke fill markers"></rect><rect x="14.2716" y="3.6063" width="3.5554" height="3.5554" fill="none" stroke="#000" stroke-linecap="square" stroke-width=".099263" style="paint-order:stroke fill markers"></rect><rect x="14.2716" y="7.1613999999999995" width="3.5554" height="3.5554" fill="none" stroke="#000" stroke-linecap="square" stroke-width=".099263" style="paint-order:stroke fill markers"></rect><rect x="14.2716" y="10.7165" width="3.5554" height="3.5554" fill="none" stroke="#000" stroke-linecap="square" stroke-width=".099263" style="paint-order:stroke fill markers"></rect><rect x="14.2716" y="14.2716" width="3.5554" height="3.5554" fill="none" stroke="#000" stroke-linecap="square" stroke-width=".099263" style="paint-order:stroke fill markers"></rect></g><path d="m9.978 5.4185a1.0423 1.0423 0 0 1-1.066 1.0097 1.0423 1.0423 0 0 1-1.0179-1.0581 1.0423 1.0423 0 0 1 1.0502-1.0261 1.0423 1.0423 0 0 1 1.0342 1.0422" stroke-width=".298" fill="none" stroke="#000" stroke-linecap="square" style="paint-order:stroke fill markers"></path><path d="m13.533000000000001 8.974a1.0423 1.0423 0 0 1-1.066 1.0097 1.0423 1.0423 0 0 1-1.0179-1.0581 1.0423 1.0423 0 0 1 1.0502-1.0261 1.0423 1.0423 0 0 1 1.0342 1.0422" stroke-width=".298" fill="none" stroke="#000" stroke-linecap="square" style="paint-order:stroke fill markers"></path><path d="m9.978 12.529499999999999a1.0423 1.0423 0 0 1-1.066 1.0097 1.0423 1.0423 0 0 1-1.0179-1.0581 1.0423 1.0423 0 0 1 1.0502-1.0261 1.0423 1.0423 0 0 1 1.0342 1.0422" stroke-width=".298" fill="none" stroke="#000" stroke-linecap="square" style="paint-order:stroke fill markers"></path><path d="m6.423 8.974a1.0423 1.0423 0 0 1-1.066 1.0097 1.0423 1.0423 0 0 1-1.0179-1.0581 1.0423 1.0423 0 0 1 1.0502-1.0261 1.0423 1.0423 0 0 1 1.0342 1.0422" stroke-width=".298" fill="none" stroke="#000" stroke-linecap="square" style="paint-order:stroke fill markers"></path><g transform="scale(0.206) translate(42.715 37.12200000000001)"><path d="m0 0c0.13889 1.2742 0.17596 2.4088 0.14004 3.4318-1.4542 0.55954-2.805 1.0604-2.805 1.0604l0.32298 0.3638 2.4329-0.57619c-0.0837 1.016-0.24523 1.9085-0.46922 2.682l-0.62322 0.2129 0.0284 0.28577 0.44597-0.0326c-1.5764 4.6322-5.3366 4.8193-5.3366 4.8193l0.10026 0.29972c3.4754-0.49942 5.3976-2.7969 6.4621-5.2085l4.0096-0.29198-0.92036-0.81441 1.5415-3.1931s-0.76869-0.68066-1.4604-1.188c-0.12501 0.125-0.95439 0.48131-1.9663 0.88883 0.12026-1.0171 0.11576-1.6898 0.11576-1.6898zm3.6375 3.4396-0.39275 2.312-0.0212-0.0186-2.1813 0.74466c0.32685-0.90694 0.53821-1.7915 0.68265-2.5849zm-7.4523 0.28164c-0.21702 0.0557-0.10009 0.0285-0.21704 0.0553 1.5913 2.9707 1.7337 4.7863 1.7337 4.7863l1.0521-0.92036s-1.4188-3.1497-2.5688-3.9212zm5.1676 3.7812s2.8761 2.6182 4.6085 4.7894c0.62084-0.65453 1.2692-1.4335 1.2692-1.4335s-2.7978-2.2614-5.8777-3.3559z"></path></g></svg>
        