
            <svg id="result" width="178.76px" height="178.75px" version="1.1" viewBox="0 0 17.876 17.875" xmlns="http://www.w3.org/2000/svg" xmlns:cc="http://creativecommons.org/ns#" xmlns:dc="http://purl.org/dc/elements/1.1/" xmlns:rdf="http://www.w3.org/1999/02/22-rdf-syntax-ns#"><g><rect x="0.0512" y="0.0512" width="3.5554" height="3.5554" fill="none" stroke="#000" stroke-linecap="square" stroke-width=".099263" style="paint-order:stroke fill markers"></rect><rect x="0.0512" y="3.6063" width="3.5554" height="3.5554" fill="none" stroke="#000" stroke-linecap="square" stroke-width=".099263" style="paint-order:stroke fill markers"></rect><rect x="0.0512" y="7.1613999999999995" width="3.5554" height="3.5554" fill="none" stroke="#000" stroke-linecap="square" stroke-width=".099263" style="paint-order:stroke fill markers"></rect><rect x="0.0512" y="10.7165" width="3.5554" height="3.5554" fill="none" stroke="#000" stroke-linecap="square" stroke-width=".099263" style="paint-order:stroke fill markers"></rect><rect x="0.0512" y="14.2716" width="3.5554" height="3.5554" fill="none" stroke="#000" stroke-linecap="square" stroke-width=".099263" style="paint-order:stroke fill markers"></rect><rect x="3.6063" y="0.0512" width="3.5554" height="3.5554" fill="none" stroke="#000" stroke-linecap="square" stroke-width=".099263" style="paint-order:stroke fill markers"></rect><rect x="3.6063" y="3.6063" width="3.5554" height="3.5554" fill="none" stroke="#000" stroke-linecap="square" stroke-width=".099263" style="paint-order:stroke fill markers"></rect><rect x="3.6063" y="7.1613999999999995" width="3.5554" height="3.5554" fill="none" stroke="#000" stroke-linecap="square" stroke-width=".099263" style="paint-order:stroke fill markers"></rect><rect x="3.6063" y="10.7165" width="3.5554" height="3.5554" fill="none" stroke="#000" stroke-linecap="square" stroke-width=".099263" style="paint-order:stroke fill markers"></rect><rect x="3.6063" y="14.2716" width="3.5554" height="3.5554" fill="none" stroke="#000" stroke-linecap="square" stroke-width=".099263" style="paint-order:stroke fill markers"></rect><rect x="7.1613999999999995" y="0.0512" width="3.5554" height="3.5554" fill="none" stroke="#000" stroke-linecap="square" stroke-width=".099263" style="paint-order:stroke fill markers"></rect><rect x="7.1613999999999995" y="3.6063" width="3.5554" height="3.5554" fill="none" stroke="#000" stroke-linecap="square" stroke-width=".099263" style="paint-order:stroke fill markers"></rect><rect x="7.1613999999999995" y="7.1613999999999995" width="3.5554" height="3.5554" fill="#f95" stroke="#000" stroke-linecap="square" stroke-width=".099263" style="paint-order:stroke fill markers"></rect><rect x="7.1613999999999995" y="10.7165" width="3.5554" height="3.5554" fill="none" stroke="#000" stroke-linecap="square" stroke-width=".099263" style="paint-order:stroke fill markers"></rect><rect x="7.1613999999999995" y="14.2716" width="3.5554" height="3.5554" fill="none" stroke="#000" stroke-linecap="square" stroke-width=".099263" style="paint-order:stroke fill markers"></rect><rect x="10.7165" y="0.0512" width="3.5554" height="3.5554" fill="none" stroke="#000" stroke-linecap="square" stroke-width=".099263" style="paint-order:stroke fill markers"></rect><rect x="10.7165" y="3.6063" width="3.5554" height="3.5554" fill="none" stroke="#000" stroke-linecap="square" stroke-width=".099263" style="paint-order:stroke fill markers"></rect><rect x="10.7165" y="7.1613999999999995" width="3.5554" height="3.5554" fill="none" stroke="#000" stroke-linecap="square" stroke-width=".099263" style="paint-order:stroke fill markers"></rect><rect x="10.7165" y="10.7165" width="3.5554" height="3.5554" fill="none" stroke="#000" stroke-linecap="square" stroke-width=".099263" style="paint-order:stroke fill markers"></rect><rect x="10.7165" y="14.2716" width="3.5554" height="3.5554" fill="none" stroke="#000" stroke-linecap="square" stroke-width=".099263" style="paint-order:stroke fill markers"></rect><rect x="14.2716" y="0.0512" width="3.5554" height="3.5554" fill="none" stroke="#000" stroke-linecap="square" stroke-width=".099263" style="paint-order:stroke fill markers"></rect><rect x="14.2716" y="3.6063" width="3.5554" height="3.5554" fill="none" stroke="#000" stroke-linecap="square" stroke-width=".099263" style="paint-order:stroke fill markers"></rect><rect x="14.2716" y="7.1613999999999995" width="3.5554" height="3.5554" fill="none" stroke="#000" stroke-linecap="square" stroke-width=".099263" style="paint-order:stroke fill markers"></rect><rect x="14.2716" y="10.7165" width="3.5554" height="3.5554" fill="none" stroke="#000" stroke-linecap="square" stroke-width=".099263" style="paint-order:stroke fill markers"></rect><rect x="14.2716" y="14.2716" width="3.5554" height="3.5554" fill="none" stroke="#000" stroke-linecap="square" stroke-width=".099263" style="paint-order:stroke fill markers"></rect></g><path d="m9.978 1.863a1.0423 1.0423 0 0 1-1.066 1.0097 1.0423 1.0423 0 0 1-1.0179-1.0581 1.0423 1.0423 0 0 1 1.0502-1.0261 1.0423 1.0423 0 0 1 1.0342 1.0422" stroke-width=".298" fill="none" stroke="#000" stroke-dasharray="0.298, 0.596" stroke-linecap="square" style="paint-order:stroke fill markers"></path><path d="m9.978 16.085a1.0423 1.0423 0 0 1-1.066 1.0097 1.0423 1.0423 0 0 1-1.0179-1.0581 1.0423 1.0423 0 0 1 1.0502-1.0261 1.0423 1.0423 0 0 1 1.0342 1.0422" stroke-width=".298" fill="none" stroke="#000" stroke-dasharray="0.298, 0.596" stroke-linecap="square" style="paint-order:stroke fill markers"></path><path d="m17.088 8.974a1.0423 1.0423 0 0 1-1.066 1.0097 1.0423 1.0423 0 0 1-1.0179-1.0581 1.0423 1.0423 0 0 1 1.0502-1.0261 1.0423 1.0423 0 0 1 1.0342 1.0422" stroke-width=".298" fill="none" stroke="#000" stroke-dasharray="0.298, 0.596" stroke-linecap="square" style="paint-order:stroke fill markers"></path><path d="m2.868 8.974a1.0423 1.0423 0 0 1-1.066 1.0097 1.0423 1.0423 0 0 1-1.0179-1.0581 1.0423 1.0423 0 0 1 1.0502-1.0261 1.0423 1.0423 0 0 1 1.0342 1.0422" stroke-width=".298" fill="none" stroke="#000" stroke-dasharray="0.298, 0.596" stroke-linecap="square" style="paint-order:stroke fill markers"></path><path d="m2.868 1.863a1.0423 1.0423 0 0 1-1.066 1.0097 1.0423 1.0423 0 0 1-1.0179-1.0581 1.0423 1.0423 0 0 1 1.0502-1.0261 1.0423 1.0423 0 0 1 1.0342 1.0422" stroke-width=".298" fill="none" stroke="#000" stroke-dasharray="0.298, 0.596" stroke-linecap="square" style="paint-order:stroke fill markers"></path><path d="m17.088 1.863a1.0423 1.0423 0 0 1-1.066 1.0097 1.0423 1.0423 0 0 1-1.0179-1.0581 1.0423 1.0423 0 0 1 1.0502-1.0261 1.0423 1.0423 0 0 1 1.0342 1.0422" stroke-width=".298" fill="none" stroke="#000" stroke-dasharray="0.298, 0.596" stroke-linecap="square" style="paint-order:stroke fill markers"></path><path d="m2.868 16.085a1.0423 1.0423 0 0 1-1.066 1.0097 1.0423 1.0423 0 0 1-1.0179-1.0581 1.0423 1.0423 0 0 1 1.0502-1.0261 1.0423 1.0423 0 0 1 1.0342 1.0422" stroke-width=".298" fill="none" stroke="#000" stroke-dasharray="0.298, 0.596" stroke-linecap="square" style="paint-order:stroke fill markers"></path><path d="m17.088 16.085a1.0423 1.0423 0 0 1-1.066 1.0097 1.0423 1.0423 0 0 1-1.0179-1.0581 1.0423 1.0423 0 0 1 1.0502-1.0261 1.0423 1.0423 0 0 1 1.0342 1.0422" stroke-width=".298" fill="none" stroke="#000" stroke-dasharray="0.298, 0.596" stroke-linecap="square" style="paint-order:stroke fill markers"></path><g transform="scale(0.206) translate(43.945 36.592000000000006)"><path d="m0 0-1.5182 0.95033c-2.3508 1.2644-4.1987 1.1188-4.1987 1.1188 0.36235 0.44518 0.63984 0.91007 0.99322 1.3224l1.0764-0.28732c-0.19268 5.6445-3.3424 8.8351-3.3424 8.8351l0.01 0.6258c2.5669-1.8832 4.0383-5.1368 4.7687-7.245l3.5285-0.91932-1.2919-1.0899-2.0056 1.3048c0.2469-0.79686 0.36019-1.3167 0.36019-1.3167l-0.93586-0.48628 4.3326-1.1576zm4.0799 4.3326c-0.0213-1e-3 -0.0375 4e-3 -0.0476 0.0165-0.1615 0.20187-6.6616 2.6644-6.6616 2.6644l-0.16174 0.48473 0.56741-0.10801c-2e-3 2.4496-1.5353 4.8777-1.5353 4.8777s1.8096-0.47327 2.9983-4.1538c-0.29954-0.28427-0.65976-0.5859-0.95136-0.82166l2.1348-0.40721c-0.0789 1.6795-0.53843 3.0628-1.048 4.1103l-0.37001-0.12247-0.22841 0.14263 0.44959 0.28215c-0.66868 1.2711-1.3653 1.9611-1.3653 1.9611s1.0144-0.32261 2.0516-1.5306l3.004 1.8852c0.65663-1.142 2.9735-7.7706 2.9735-7.7706s-1.4903-1.4906-1.8097-1.5105zm-0.59377 1.9689c0.35102 2.07-1.1462 5.3289-1.2862 5.6281l-1.941-0.64182c0.66353-0.91115 1.2914-2.2135 1.6164-4.0675-0.22656-0.215-0.30268-0.2866-0.53744-0.50901z"></path></g></svg>
        