
            <svg id="result" width="178.76px" height="178.75px" version="1.1" viewBox="0 0 17.876 17.875" xmlns="http://www.w3.org/2000/svg" xmlns:cc="http://creativecommons.org/ns#" xmlns:dc="http://purl.org/dc/elements/1.1/" xmlns:rdf="http://www.w3.org/1999/02/22-rdf-syntax-ns#"><g><rect x="0.0512" y="0.0512" width="3.5554" height="3.5554" fill="none" stroke="#000" stroke-linecap="square" stroke-width=".099263" style="paint-order:stroke fill markers"></rect><rect x="0.0512" y="3.6063" width="3.5554" height="3.5554" fill="none" stroke="#000" stroke-linecap="square" stroke-width=".099263" style="paint-order:stroke fill markers"></rect><rect x="0.0512" y="7.1613999999999995" width="3.5554" height="3.5554" fill="none" stroke="#000" stroke-linecap="square" stroke-width=".099263" style="paint-order:stroke fill markers"></rect><rect x="0.0512" y="10.7165" width="3.5554" height="3.5554" fill="none" stroke="#000" stroke-linecap="square" stroke-width=".099263" style="paint-order:stroke fill markers"></rect><rect x="0.0512" y="14.2716" width="3.5554" height="3.5554" fill="none" stroke="#000" stroke-linecap="square" stroke-width=".099263" style="paint-order:stroke fill markers"></rect><rect x="3.6063" y="0.0512" width="3.5554" height="3.5554" fill="none" stroke="#000" stroke-linecap="square" stroke-width=".099263" style="paint-order:stroke fill markers"></rect><rect x="3.6063" y="3.6063" width="3.5554" height="3.5554" fill="none" stroke="#000" stroke-linecap="square" stroke-width=".099263" style="paint-order:stroke fill markers"></rect><rect x="3.6063" y="7.1613999999999995" width="3.5554" height="3.5554" fill="none" stroke="#000" stroke-linecap="square" stroke-width=".099263" style="paint-order:stroke fill markers"></rect><rect x="3.6063" y="10.7165" width="3.5554" height="3.5554" fill="none" stroke="#000" stroke-linecap="square" stroke-width=".099263" style="paint-order:stroke fill markers"></rect><rect x="3.6063" y="14.2716" width="3.5554" height="3.5554" fill="none" stroke="#000" stroke-linecap="square" stroke-width=".099263" style="paint-order:stroke fill markers"></rect><rect x="7.1613999999999995" y="0.0512" width="3.5554" height="3.5554" fill="none" stroke="#000" stroke-linecap="square" stroke-width=".099263" style="paint-order:stroke fill markers"></rect><rect x="7.1613999999999995" y="3.6063" width="3.5554" height="3.5554" fill="none" stroke="#000" stroke-linecap="square" stroke-width=".099263" style="paint-order:stroke fill markers"></rect><rect x="7.1613999999999995" y="7.1613999999999995" width="3.5554" height="3.5554" fill="#f95" stroke="#000" stroke-linecap="square" stroke-width=".099263" style="paint-order:stroke fill markers"></rect><rect x="7.1613999999999995" y="10.7165" width="3.5554" height="3.5554" fill="none" stroke="#000" stroke-linecap="square" stroke-width=".099263" style="paint-order:stroke fill markers"></rect><rect x="7.1613999999999995" y="14.2716" width="3.5554" height="3.5554" fill="none" stroke="#000" stroke-linecap="square" stroke-width=".099263" style="paint-order:stroke fill markers"></rect><rect x="10.7165" y="0.0512" width="3.5554" height="3.5554" fill="none" stroke="#000" stroke-linecap="square" stroke-width=".099263" style="paint-order:stroke fill markers"></rect><rect x="10.7165" y="3.6063" width="3.5554" height="3.5554" fill="none" stroke="#000" stroke-linecap="square" stroke-width=".099263" style="paint-order:stroke fill markers"></rect><rect x="10.7165" y="7.1613999999999995" width="3.5554" height="3.5554" fill="none" stroke="#000" stroke-linecap="square" stroke-width=".099263" style="paint-order:stroke fill markers"></rect><rect x="10.7165" y="10.7165" width="3.5554" height="3.5554" fill="none" stroke="#000" stroke-linecap="square" stroke-width=".099263" style="paint-order:stroke fill markers"></rect><rect x="10.7165" y="14.2716" width="3.5554" height="3.5554" fill="none" stroke="#000" stroke-linecap="square" stroke-width=".099263" style="paint-order:stroke fill markers"></rect><rect x="14.2716" y="0.0512" width="3.5554" height="3.5554" fill="none" stroke="#000" stroke-linecap="square" stroke-width=".099263" style="paint-order:stroke fill markers"></rect><rect x="14.2716" y="3.6063" width="3.5554" height="3.5554" fill="none" stroke="#000" stroke-linecap="square" stroke-width=".099263" style="paint-order:stroke fill markers"></rect><rect x="14.2716" y="7.1613999999999995" width="3.5554" height="3.5554" fill="none" stroke="#000" stroke-linecap="square" stroke-width=".099263" style="paint-order:stroke fill markers"></rect><rect x="14.2716" y="10.7165" width="3.5554" height="3.5554" fill="none" stroke="#000" stroke-linecap="square" stroke-width=".099263" style="paint-order:stroke fill markers"></rect><rect x="14.2716" y="14.2716" width="3.5554" height="3.5554" fill="none" stroke="#000" stroke-linecap="square" stroke-width=".099263" style="paint-order:stroke fill markers"></rect></g><path d="m8.934 0.590v5.7573" fill="none" stroke="#000" stroke-width=".298"></path><path d="m8.934 11.260v5.7573" fill="none" stroke="#000" stroke-width=".298"></path><path d="m6.484 8.9391h-5.7573" fill="none" stroke="#000" stroke-width=".298"></path><path d="m17.154 8.9391h-5.7573" fill="none" stroke="#000" stroke-width=".298"></path><path d="m6.423 12.529499999999999a1.0423 1.0423 0 0 1-1.066 1.0097 1.0423 1.0423 0 0 1-1.0179-1.0581 1.0423 1.0423 0 0 1 1.0502-1.0261 1.0423 1.0423 0 0 1 1.0342 1.0422" stroke-width=".298" fill="none" stroke="#000" stroke-linecap="square" style="paint-order:stroke fill markers"></path><path d="m6.423 5.4185a1.0423 1.0423 0 0 1-1.066 1.0097 1.0423 1.0423 0 0 1-1.0179-1.0581 1.0423 1.0423 0 0 1 1.0502-1.0261 1.0423 1.0423 0 0 1 1.0342 1.0422" stroke-width=".298" fill="none" stroke="#000" stroke-linecap="square" style="paint-order:stroke fill markers"></path><path d="m13.533000000000001 5.4185a1.0423 1.0423 0 0 1-1.066 1.0097 1.0423 1.0423 0 0 1-1.0179-1.0581 1.0423 1.0423 0 0 1 1.0502-1.0261 1.0423 1.0423 0 0 1 1.0342 1.0422" stroke-width=".298" fill="none" stroke="#000" stroke-linecap="square" style="paint-order:stroke fill markers"></path><path d="m13.533000000000001 12.529499999999999a1.0423 1.0423 0 0 1-1.066 1.0097 1.0423 1.0423 0 0 1-1.0179-1.0581 1.0423 1.0423 0 0 1 1.0502-1.0261 1.0423 1.0423 0 0 1 1.0342 1.0422" stroke-width=".298" fill="none" stroke="#000" stroke-linecap="square" style="paint-order:stroke fill markers"></path><g transform="scale(0.206) translate(44.907000000000004 37.692)"><path d="m0 0-1.5182 0.95085c-2.3508 1.2644-4.1982 1.1188-4.1982 1.1188 0.36235 0.44518 0.63933 0.90956 0.99271 1.3219l1.6014-0.42788c0.032 0.92567-0.0335 1.8832-0.15141 2.7957-1.2326 0.3625-2.1301 0.45889-2.1301 0.45889 0.36234 0.44518 0.63984 0.90955 0.99322 1.3219l0.89555-0.2713c-0.17845 0.93675-0.37836 1.7301-0.53485 2.3001-2.2378 0.41136-4.2049 0.68264-4.2049 0.68264 0.36242 0.3914 0.42049 0.42688 0.99271 1.1627 7.0222-1.962 12.492-2.4128 12.492-2.4128l-2.0624-1.7317-1.5188 0.83561c-0.48337 0.22852-1.1924 0.45294-2.0045 0.66663 0.26163-0.55756 0.60262-1.609 0.93844-2.7435l2.0423-0.61805-1.4759-1.3746c0.36003-1.3195 0.62787-2.3802 0.62787-2.3802zm-0.16691 2.1746c0.0257 0.74896-0.01 1.519-0.0863 2.2701l-0.41703 0.26097c-0.42319 0.22761-0.84716 0.42134-1.2583 0.58756 0.31171-1.1106 0.5364-1.9818 0.5364-1.9818s-0.51158-0.18887-1.2454-0.47698zm-0.36071 4.1904c-0.19719 1.0876-0.42653 2.0047-0.58911 2.5973-0.69054 0.16385-1.4209 0.31396-2.1513 0.45578 0.25552-0.57392 0.56394-1.512 0.85887-2.4836z"></path></g></svg>
        