
            <svg id="result" width="178.76px" height="178.75px" version="1.1" viewBox="0 0 17.876 17.875" xmlns="http://www.w3.org/2000/svg" xmlns:cc="http://creativecommons.org/ns#" xmlns:dc="http://purl.org/dc/elements/1.1/" xmlns:rdf="http://www.w3.org/1999/02/22-rdf-syntax-ns#"><g><rect x="0.0512" y="0.0512" width="3.5554" height="3.5554" fill="none" stroke="#000" stroke-linecap="square" stroke-width=".099263" style="paint-order:stroke fill markers"></rect><rect x="0.0512" y="3.6063" width="3.5554" height="3.5554" fill="none" stroke="#000" stroke-linecap="square" stroke-width=".099263" style="paint-order:stroke fill markers"></rect><rect x="0.0512" y="7.1613999999999995" width="3.5554" height="3.5554" fill="none" stroke="#000" stroke-linecap="square" stroke-width=".099263" style="paint-order:stroke fill markers"></rect><rect x="0.0512" y="10.7165" width="3.5554" height="3.5554" fill="none" stroke="#000" stroke-linecap="square" stroke-width=".099263" style="paint-order:stroke fill markers"></rect><rect x="0.0512" y="14.2716" width="3.5554" height="3.5554" fill="none" stroke="#000" stroke-linecap="square" stroke-width=".099263" style="paint-order:stroke fill markers"></rect><rect x="3.6063" y="0.0512" width="3.5554" height="3.5554" fill="none" stroke="#000" stroke-linecap="square" stroke-width=".099263" style="paint-order:stroke fill markers"></rect><rect x="3.6063" y="3.6063" width="3.5554" height="3.5554" fill="none" stroke="#000" stroke-linecap="square" stroke-width=".099263" style="paint-order:stroke fill markers"></rect><rect x="3.6063" y="7.1613999999999995" width="3.5554" height="3.5554" fill="none" stroke="#000" stroke-linecap="square" stroke-width=".099263" style="paint-order:stroke fill markers"></rect><rect x="3.6063" y="10.7165" width="3.5554" height="3.5554" fill="none" stroke="#000" stroke-linecap="square" stroke-width=".099263" style="paint-order:stroke fill markers"></rect><rect x="3.6063" y="14.2716" width="3.5554" height="3.5554" fill="none" stroke="#000" stroke-linecap="square" stroke-width=".099263" style="paint-order:stroke fill markers"></rect><rect x="7.1613999999999995" y="0.0512" width="3.5554" height="3.5554" fill="none" stroke="#000" stroke-linecap="square" stroke-width=".099263" style="paint-order:stroke fill markers"></rect><rect x="7.1613999999999995" y="3.6063" width="3.5554" height="3.5554" fill="none" stroke="#000" stroke-linecap="square" stroke-width=".099263" style="paint-order:stroke fill markers"></rect><rect x="7.1613999999999995" y="7.1613999999999995" width="3.5554" height="3.5554" fill="none" stroke="#000" stroke-linecap="square" stroke-width=".099263" style="paint-order:stroke fill markers"></rect><rect x="7.1613999999999995" y="10.7165" width="3.5554" height="3.5554" fill="none" stroke="#000" stroke-linecap="square" stroke-width=".099263" style="paint-order:stroke fill markers"></rect><rect x="7.1613999999999995" y="14.2716" width="3.5554" height="3.5554" fill="none" stroke="#000" stroke-linecap="square" stroke-width=".099263" style="paint-order:stroke fill markers"></rect><rect x="10.7165" y="0.0512" width="3.5554" height="3.5554" fill="none" stroke="#000" stroke-linecap="square" stroke-width=".099263" style="paint-order:stroke fill markers"></rect><rect x="10.7165" y="3.6063" width="3.5554" height="3.5554" fill="none" stroke="#000" stroke-linecap="square" stroke-width=".099263" style="paint-order:stroke fill markers"></rect><rect x="10.7165" y="7.1613999999999995" width="3.5554" height="3.5554" fill="none" stroke="#000" stroke-linecap="square" stroke-width=".099263" style="paint-order:stroke fill markers"></rect><rect x="10.7165" y="10.7165" width="3.5554" height="3.5554" fill="none" stroke="#000" stroke-linecap="square" stroke-width=".099263" style="paint-order:stroke fill markers"></rect><rect x="10.7165" y="14.2716" width="3.5554" height="3.5554" fill="none" stroke="#000" stroke-linecap="square" stroke-width=".099263" style="paint-order:stroke fill markers"></rect><rect x="14.2716" y="0.0512" width="3.5554" height="3.5554" fill="none" stroke="#000" stroke-linecap="square" stroke-width=".099263" style="paint-order:stroke fill markers"></rect><rect x="14.2716" y="3.6063" width="3.5554" height="3.5554" fill="none" stroke="#000" stroke-linecap="square" stroke-width=".099263" style="paint-order:stroke fill markers"></rect><rect x="14.2716" y="7.1613999999999995" width="3.5554" height="3.5554" fill="none" stroke="#000" stroke-linecap="square" stroke-width=".099263" style="paint-order:stroke fill markers"></rect><rect x="14.2716" y="10.7165" width="3.5554" height="3.5554" fill="none" stroke="#000" stroke-linecap="square" stroke-width=".099263" style="paint-order:stroke fill markers"></rect><rect x="14.2716" y="14.2716" width="3.5554" height="3.5554" fill="none" stroke="#000" stroke-linecap="square" stroke-width=".099263" style="paint-order:stroke fill markers"></rect></g><path d="m6.364  11.580-5.5338 5.5338" fill="none" stroke="#000" stroke-width=".298"></path><path d="m17.044 17.110-5.5338-5.5338" fill="none" stroke="#000" stroke-width=".298"></path><path d="m6.364  6.430-5.5338-5.5338" fill="none" stroke="#000" stroke-width=".298"></path><path d="m17.044 0.900-5.5338 5.5338" fill="none" stroke="#000" stroke-width=".298"></path><g transform="scale(0.206) translate(46.221000000000004 37.162)"><path d="m0 0-5.8529 2.3456 0.0284 0.40515 5.5966-0.87385c-0.089 0.38528-0.23017 0.89309-0.38137 1.403l-0.0811-0.0754c-1.4997 1.4954-3.4394 2.2711-5.103 2.9688 0.084 0.13114 0.23953 0.26019 0.37879 0.42271l1.694-0.45217c0.12598 0.437 0.19826 0.88726 0.23564 1.3327-0.75262 0.17157-1.513 0.33237-2.2515 0.48265-0.29466-0.65051-0.65712-1.371-1.1095-2.1125 0.16887-1.0025 0.51669-3.2355 0.50798-4.5837-1.0778 3.2616-2.2841 4.4823-2.3983 4.625-0.0832 0.10401 0.90137 0.3122 1.4464 0.41858 0.10255 0.5656 0.20868 1.1619 0.32918 1.8955-1.7514 0.33956-3.0928 0.56844-3.0928 0.56844 0.36242 0.3914 0.421 0.42638 0.99322 1.1622 0.76951-0.215 1.5296-0.41433 2.2774-0.60307 0.16901 1.1147 0.3188 2.2424 0.38499 3.1409 1.0434-1.1991 1.5746-2.1224 1.5746-2.1224s-0.16184-0.55673-0.48472-1.3803c0.64067-0.15169 1.2472-0.28554 1.8516-0.41755-0.0324 1.0328-0.20839 1.9052-0.32143 2.3776l-1.3203 0.54209-0.0408 0.35864 5.5128-0.68368-0.8568-0.72141c0.28106-0.3493 0.6213-1.4918 0.91519-2.6577 2.4066-0.44093 3.9677-0.64957 3.9677-0.64957l-2.0624-1.7317-1.5188 0.83561c-7e-3 3e-3 -0.0161 6e-3 -0.0227 9e-3 0.17261-0.77962 0.28991-1.3699 0.28991-1.3699l-1.0304-0.96015 1.6862-2.3301zm-0.85266 5.3774c0.0239 0.49955 0.0325 0.97521 0.0284 1.4211-0.4634 0.13549-0.97273 0.27105-1.5126 0.40463 0.0174-0.2068 0.0322-0.42165 0.0413-0.64854-0.46469-0.24622-0.6717-0.36179-0.97927-0.5302zm-0.0176 2.6381c-0.047 0.7762-0.12072 1.4291-0.19534 1.9177l-0.0951-0.0801-2.2159 0.91003c0.30132-0.43812 0.66731-1.1896 0.8909-2.4195 0.56617-0.11852 1.0995-0.22773 1.6154-0.32815z"></path></g></svg>
        