<?xml version="1.0" encoding="UTF-8" standalone="no"?>
<!-- Created with Inkscape (http://www.inkscape.org/) -->

<svg
   width="79.025604mm"
   height="171.50937mm"
   viewBox="0 0 79.025604 171.50937"
   version="1.1"
   id="svg1"
   xml:space="preserve"
   xmlns="http://www.w3.org/2000/svg"
   xmlns:svg="http://www.w3.org/2000/svg"><defs
     id="defs1" /><g
     id="layer1"
     transform="translate(-621.86961,199.90014)"><path
       d="m 628.1446,-66.908061 c 0.48503,0.425781 0.97018,0.85166 1.45521,1.277442 0.60095,0.465022 1.22714,0.939634 1.49604,1.665531 1.87317,2.301005 4.20526,4.163121 6.32054,6.224426 0.68029,0.551068 0.89258,1.468295 1.55236,2.020032 0.48305,0.04671 0.76773,0.425118 1.13792,0.717786 0.35856,0.242431 0.81365,0.0985 1.00769,0.599446 1.16184,1.296489 1.92828,2.907091 3.14554,4.149618 1.23536,0.863578 2.86929,0.707855 4.29586,0.580843 2.31528,-0.310979 3.8087,-2.427165 4.57492,-4.459676 0.59444,-1.757052 -0.17043,-3.675419 -1.19735,-5.111316 -1.64824,-2.172388 -4.35338,-3.022642 -6.63577,-4.326351 -1.99608,-1.179198 -4.33329,-1.449532 -6.60373,-1.569413 -2.585,-0.117726 -5.10345,-0.535834 -7.62227,-1.190108 -0.96582,-0.2372 -1.94936,-0.3947 -2.92696,-0.57826 z"
       id="path1075" /><path
       d="m 653.32033,-125.89257 c -0.9986,0.003 -2.0464,0.2227 -2.75022,0.9803 -0.49576,-0.10069 -0.83504,0.15857 -1.17771,0.53433 0.46625,0.21388 0.17425,0.66069 0.11628,1.12396 -0.11074,1.39087 0.88428,2.53153 1.46916,3.71089 0.91728,1.66052 2.07686,3.16618 3.10627,4.75216 0.79353,1.39672 1.04044,3.05656 2.09806,4.31705 0.93464,1.49339 0.99617,3.33565 1.34255,5.02244 0.0976,0.62437 0.19737,1.24814 0.28991,1.87327 -1.41598,0.404 -2.87271,1.17822 -4.37183,0.68316 -1.01347,-0.26017 -2.05417,-0.333 -3.08973,-0.29869 -2.74524,-0.34371 -5.53849,-0.90886 -8.3044,-0.46044 -1.07383,0.23371 -1.17869,1.68994 -0.43925,2.35128 0.4877,0.35239 0.43516,0.97837 0.88676,1.359606 1.70631,1.741775 3.48038,3.450737 5.46685,4.871021 1.58795,0.819838 3.28976,1.533362 5.07411,1.753898 1.99936,-0.320074 3.91623,-1.142908 5.82394,-1.706873 0.005,1.13544 0.19548,2.347742 -0.1757,3.43545 -0.38464,0.248643 -0.3369,0.803223 -0.50747,1.097607 -1.06393,0.762907 -2.17445,1.564992 -2.92592,2.650484 -0.28887,0.591982 0.45696,1.13714 0.94155,0.699182 0.25204,-0.337221 0.86233,0.105444 1.03508,-0.453202 0.14455,-0.397063 0.73647,-0.40516 1.02474,-0.724503 0.5341,-0.528987 0.72123,-0.372919 0.60823,0.385506 7.2e-4,1.30533 -0.0502,2.610101 -0.0785,3.915006 -1.22821,0.627561 -2.44594,1.339815 -3.76927,1.716691 -0.68434,0.683026 -1.74817,0.865686 -2.55799,1.201477 -1.63109,0.522305 -3.29677,0.949186 -4.96559,1.3224 -1.83725,0.320647 -3.92624,0.358726 -5.34954,1.732194 -1.02391,0.283143 -1.76823,1.15993 -2.82618,1.388546 -3.88905,1.073212 -7.97758,0.39221 -11.93054,0.913123 -0.94218,0.338284 -0.78405,1.596492 -0.54157,2.370398 0.68014,2.549156 2.89007,4.242617 4.95008,5.68389 2.7156,1.966764 6.45129,2.556104 9.55343,1.172539 2.57533,-1.20644 5.37279,-1.851601 7.94886,-3.06493 1.19969,-0.461812 2.32088,-1.242801 3.53519,-1.580782 0.28999,0.493493 0.50815,1.049588 1.09502,1.274341 0.51536,0.264336 0.67224,0.912225 1.19838,1.208712 1.185,0.974167 2.33756,1.993915 3.47421,3.026689 0.18759,5.470343 -8.1e-4,10.941788 -0.25994,16.406233 -0.0555,3.659799 -0.40789,7.479869 0.93845,10.969357 0.48545,1.366979 1.43589,2.589947 1.54254,4.070035 0.11436,0.556637 0.70633,0.66634 1.16169,0.767395 0.42029,0.22324 0.55532,0.898123 1.07642,0.904338 0.0261,0.702843 -0.17737,1.602959 0.52141,2.050521 0.88275,-0.299903 1.04876,-1.332589 1.64073,-1.939417 0.50022,0.03412 1.31919,0.02613 1.37201,-0.595829 0.009,-0.438559 -0.67575,-0.558899 -0.22841,-0.989604 1.06148,-2.068962 1.21898,-4.440346 1.18649,-6.723104 0.0939,-1.402492 0.54194,-2.756676 0.51935,-4.173388 0.23348,-4.529382 0.008,-9.065863 0.0171,-13.59607 0.12639,-0.200609 0.61095,0.542778 0.90537,0.692981 3.3694,2.842121 6.85518,5.78583 11.08718,7.231084 1.10671,0.370351 2.36365,0.51871 3.43648,-0.03669 1.22737,-0.12847 2.33953,-0.903048 3.04839,-1.891357 0.18597,-0.782397 0.95275,-1.228182 1.26143,-1.967839 3.05832,-5.702212 4.8882,-11.945238 7.30239,-17.926037 1.47817,-4.101444 2.79261,-8.291567 3.52227,-12.596131 0.22267,-1.504478 0.33068,-3.14248 -0.51005,-4.491198 -1.19489,-2.154957 -3.28596,-3.671312 -5.42809,-4.799707 -1.14597,-0.580583 -2.4376,-1.063117 -3.73311,-0.713652 -2.34781,0.322893 -4.43481,1.49802 -6.65695,2.233972 -1.68677,0.759969 -3.2294,1.806375 -4.92994,2.546098 -3.17211,1.526705 -6.41273,2.910946 -9.72292,4.11086 -0.0961,-3.033841 0.12092,-6.051423 0.30128,-9.066113 1.28229,-0.834429 2.52425,-1.739615 3.66489,-2.75177 0.8404,-0.401609 1.76107,-0.642763 2.543,-1.18184 1.12446,-0.707494 2.20541,-1.490568 3.43441,-2.001948 1.40277,-0.77111 2.73675,-1.91722 4.42764,-1.89084 1.0975,-0.0694 1.958,-0.97596 2.0991,-2.04484 0.16814,-1.03988 0.36136,-2.11356 0.22531,-3.16569 -0.68124,-1.035 -2.06182,-1.35967 -2.74402,-2.37143 -0.40371,-0.14562 -0.68885,-0.28242 -0.87127,-0.71262 -0.7307,-0.9281 -1.6558,-1.96174 -2.95796,-1.85002 -2.2994,-0.16799 -4.65888,0.54658 -6.36963,2.11873 -0.92631,0.76133 -1.79846,1.7147 -2.97708,2.06499 0.0641,-0.33378 0.50859,-0.5998 0.45578,-1.05058 0.14237,-0.55977 -0.11389,-1.26541 0.39378,-1.64848 0.31973,-0.60698 0.0722,-1.37191 0.52141,-1.92959 0.31481,-1.26004 0.54515,-2.87231 -0.54467,-3.84008 -0.45907,-0.36269 -0.60049,-0.89425 -0.84181,-1.38493 -1.3186,-1.55799 -3.19851,-2.53314 -5.04672,-3.32796 -1.14319,-0.44292 -2.389,-0.55274 -3.49126,-1.11621 -1.13676,-0.32626 -2.30211,-0.62895 -3.26233,-1.36271 -1.01723,-0.58139 -2.11561,-1.1969 -3.30729,-1.2671 z m 32.49001,42.826322 c 0.90527,-0.103024 1.7465,0.614781 1.67379,1.546676 -0.11244,2.371588 -1.08433,4.593978 -1.79523,6.831108 -1.22176,3.445088 -2.46,7.072335 -5.14646,9.684163 -0.71787,0.718626 -1.4409,1.477271 -2.24741,2.076359 -2.56441,-1.11986 -5.14836,-2.200532 -7.78557,-3.143994 -0.6862,-0.279757 -1.42842,-0.452405 -2.09548,-0.76016 -0.48737,-1.058552 -0.34623,-2.17384 -0.44132,-3.310393 -0.0227,-2.503699 -0.17327,-5.022881 0.0703,-7.517887 0.4708,-0.472564 1.29174,-0.565121 1.90997,-0.851111 4.28397,-1.414247 8.56836,-2.950074 12.92169,-4.099491 0.96286,-0.232285 1.94105,-0.445949 2.93574,-0.45527 z m -27.16372,9.286772 0.008,0.07235 c 0.0861,1.015916 0.23781,2.04221 0.22273,3.056661 -1.19469,-0.499984 -2.31044,-1.17282 -3.49643,-1.693437 1.06837,-0.523417 2.15057,-1.020723 3.26595,-1.435571 z"
       id="path1074" /><path
       d="m 667.16931,-197.65608 v 5.9e-4 c -2.88098,0.39408 -5.30679,2.18224 -7.69273,3.71275 -2.64793,1.94434 -5.41242,3.7657 -8.4808,4.98431 -2.42271,1.08017 -4.92306,1.97187 -7.35973,3.00646 -1.8894,0.85629 -3.65046,1.98239 -5.80615,2.03117 -2.51586,0.18798 -5.00611,0.62332 -7.53335,0.69149 -1.86786,0.19149 -3.84458,0.0215 -5.61001,0.75013 -1.19262,0.65599 -0.5639,2.28651 0.29804,2.94306 0.85795,0.59558 1.74353,1.17978 2.3464,2.06614 1.2638,1.48142 3.00659,2.63916 4.91379,3.07519 1.2238,0.16475 2.18193,1.13231 3.43309,1.27215 1.66707,0.27748 3.37327,0.56505 5.0637,0.44142 0.6485,-0.0173 0.50014,-0.93272 1.19809,-0.77383 1.87085,-0.19556 3.5476,-1.19879 5.20355,-2.02584 2.38116,-1.44041 4.78076,-2.86611 7.35796,-3.93673 0.65761,-0.29148 1.31898,-0.57573 1.97487,-0.871 -2.51581,3.04636 -5.37179,5.79852 -7.75969,8.95184 -1.96905,2.21842 -3.88706,4.48033 -5.64912,6.86913 -2.93477,3.89244 -6.13916,7.57528 -9.02177,11.50622 -1.55961,2.25334 -3.23549,4.49781 -4.21936,7.07533 -0.57398,1.58335 -0.56154,3.34015 0.12088,4.88891 0.67721,1.94187 1.65683,3.8562 3.35664,5.09748 1.83653,1.67762 4.33672,2.25769 6.74826,2.45127 0.79957,0.1383 1.53006,0.47432 2.36594,0.40351 5.20391,0.0727 10.41747,-0.0244 15.60945,-0.38277 1.11823,-0.12811 2.17105,-0.58733 3.30628,-0.66836 3.50701,-0.55631 7.05348,-1.0656 10.43789,-2.16924 2.22103,-1.19402 4.88874,-0.88035 7.22643,-1.74379 1.53588,-0.66098 3.20514,-0.80847 4.85751,-0.7845 0.66615,-0.0822 1.35498,-0.43316 1.98436,-0.41478 2.55605,-0.11997 5.21659,-0.88042 7.00482,-2.81151 1.19117,-1.31542 2.3046,-2.8755 2.59051,-4.66139 0.0842,-1.65022 -0.59997,-3.27913 -1.46768,-4.6519 -0.96241,-1.37067 -2.59313,-2.08714 -3.46212,-3.54685 -1.27392,-1.68437 -2.24756,-3.57561 -2.85893,-5.59638 -0.82176,-1.9888 -1.60324,-4.07077 -2.97268,-5.7546 -1.12083,-0.65465 -1.18529,-2.13331 -1.76928,-3.18837 -0.36573,-0.74314 -0.82815,-1.46079 -0.81827,-2.31913 -0.10549,-0.86757 -1.34663,-0.89308 -1.56723,-0.0847 -0.26086,0.61669 -0.13654,1.32771 -0.54216,1.89252 -1.06792,3.69153 -1.25998,7.56749 -1.03692,11.38712 0.10182,2.62679 0.21154,5.25354 0.30693,7.88057 -4.0585,2.16291 -8.41524,3.82959 -12.91584,4.93927 -2.88209,0.65833 -5.77278,1.31714 -8.68876,1.80364 -4.1312,0.42821 -8.38178,0.45331 -12.52477,0.16117 -0.91432,-0.0821 -1.96281,-0.16911 -2.65806,-0.6648 0.18889,-1.52851 0.46117,-3.09504 1.27749,-4.44274 2.05916,-4.06579 4.86933,-7.67484 7.46046,-11.40432 4.0998,-5.59513 9.00338,-10.52473 13.6002,-15.70127 3.25712,-3.43069 6.43995,-7.01493 10.31702,-9.76598 1.28747,-0.87977 3.22019,-1.33958 3.60906,-3.07698 0.39028,-1.32366 -0.83387,-2.3382 -1.60514,-3.23577 -0.46592,-0.55049 -1.09529,-0.95389 -1.74913,-1.15602 -1.54548,-1.40635 -3.01552,-2.99063 -4.98964,-3.80459 -1.00137,-0.4474 -2.10674,-0.7349 -3.2103,-0.64466 z"
       style="stroke-width:1.1466"
       id="path1073" /><path
       id="path1076"
       style="fill:none;stroke:#000000"
       d="m 652.90433,-127.46871 c -1.12255,0.0121 -2.17528,0.48146 -3.12125,1.01751 -1.38332,0.39191 -2.13022,1.74971 -3.19309,2.60915 0.4333,0.17381 1.01916,0.25184 1.37459,0.47697 -0.2065,1.83811 0.98527,3.45499 1.87121,4.96921 1.23622,2.31059 3.16986,4.25451 3.88761,6.83059 0.6245,1.40132 1.7309,2.6178 1.86139,4.20749 0.18847,0.89342 0.29163,1.80841 0.44235,2.70371 -0.95408,0.3669 -2.00363,0.38936 -2.96674,0.0646 -1.80191,-0.25586 -3.63421,-0.22199 -5.42758,-0.55656 -2.20966,-0.25312 -4.5573,-0.55098 -6.68848,0.24082 -1.69089,0.90328 -1.83506,3.53378 -0.42891,4.75681 0.80243,1.68467 2.41931,2.753307 3.68401,4.062285 1.73306,1.635417 3.73548,3.032483 6.03684,3.725354 1.53529,0.591734 3.26209,0.796671 4.83381,0.218075 0.7357,-0.167898 1.64279,-0.592256 2.24069,-0.659908 -0.14133,0.750702 -0.4587,1.539464 -1.20923,1.857251 -1.09201,0.95879 -2.56188,2.025277 -2.49597,3.648356 0.16259,1.520947 2.07837,2.357509 3.36104,1.625224 0.42547,-0.247677 0.36726,0.743847 0.0413,0.800468 -1.3143,0.646255 -2.69642,1.147302 -3.9672,1.876888 -2.42947,0.873591 -4.94878,1.513138 -7.4905,1.918229 -1.39616,0.195773 -2.78349,0.570723 -3.9455,1.403015 -1.2613,0.740936 -2.49792,1.636028 -4.00182,1.778186 -3.60274,0.609742 -7.3082,0.0012 -10.89391,0.711584 -1.6792,0.690647 -1.95542,2.876587 -1.34772,4.394564 0.5158,1.690687 1.54827,3.076428 2.805,4.261756 -0.61791,-0.108701 -1.23753,-0.206928 -1.86139,-0.281637 l -0.0915,0.04134 -0.0476,0.02119 c -1.03427,0.236778 -0.97761,1.748108 -0.0935,2.144572 1.35443,1.291059 2.99316,2.312432 4.04213,3.889685 1.92995,2.527018 4.64192,4.305908 6.68021,6.733439 0.43991,0.864296 1.15794,1.571793 2.02365,1.986442 0.56301,0.460902 1.34364,0.623253 1.67173,1.335319 1.06709,1.418059 1.89906,3.175134 3.50212,4.066935 1.95313,0.900932 4.25848,0.729392 6.25284,0.07131 2.4718,-1.07973 4.14401,-3.591151 4.61213,-6.193937 0.3784,-3.427267 -1.9434,-6.632897 -4.87516,-8.187097 -1.82603,-1.011084 -3.68889,-1.9739 -5.58725,-2.836002 -0.12874,-0.04764 -0.25902,-0.0873 -0.38861,-0.130225 2.77488,-1.037043 5.60615,-1.952393 8.22844,-3.352767 0.54921,0.566601 1.21403,1.003089 1.72134,1.62419 0.9928,0.926886 2.12112,1.706315 3.07113,2.686141 0.26577,7.169517 -0.40945,14.332121 -0.32608,21.49998 0.12708,2.817778 0.79304,5.638723 2.20503,8.097697 0.40069,1.067205 0.36288,2.558586 1.62109,3.034957 0.49711,0.191969 1.1386,0.460122 0.96894,1.119311 0.084,1.287613 1.40203,2.704987 2.75797,2.144055 0.84952,-0.339739 1.34069,-1.157831 1.865,-1.833479 1.35845,-0.152846 2.52257,-1.678465 1.90066,-3.003951 1.22435,-2.450783 0.96453,-5.312748 1.27899,-7.924065 0.68163,-4.044662 0.40557,-8.168183 0.4191,-12.250415 0.0307,-0.491127 -0.22081,-1.572615 0.4346,-0.759126 3.25992,2.641909 6.82186,5.231147 11.01173,6.080249 1.76142,0.145877 3.54029,-0.418938 5.05602,-1.282609 1.43467,-0.931172 2.14219,-2.547415 3.08457,-3.907255 2.21047,-4.138407 3.76887,-8.581554 5.41827,-12.961483 2.13079,-5.725499 4.41952,-11.459572 5.39967,-17.520378 0.32493,-1.726067 0.48445,-3.573478 -0.2713,-5.217252 -1.0168,-2.341039 -3.04598,-4.087139 -5.16971,-5.41414 -1.66462,-0.946455 -3.50466,-1.916477 -5.48597,-1.637626 -2.46787,0.276815 -4.73363,1.397244 -7.03368,2.25981 -2.57537,1.088417 -4.93956,2.609795 -7.51789,3.697966 -1.77533,0.812203 -3.57807,1.562706 -5.39605,2.273763 0.0199,-1.960711 0.15406,-3.917658 0.25786,-5.875094 1.44805,-0.92883 2.64624,-2.261689 4.30207,-2.837553 1.82267,-0.907536 3.45416,-2.153316 5.2958,-3.027717 1.06653,-0.65642 2.18891,-1.37632 3.49177,-1.33584 2.03213,-0.31903 3.27585,-2.43216 3.26544,-4.37234 0.22495,-1.38433 0.35417,-3.13051 -0.91364,-4.07521 -0.76616,-0.69535 -1.83362,-1.07698 -2.35748,-2.01899 -0.83902,-0.10964 -1.01416,-1.13803 -1.67897,-1.54513 -1.57088,-1.54739 -3.98867,-1.42407 -5.99291,-1.02733 -1.32892,0.29529 -2.59955,0.85218 -3.71502,1.63298 0.74283,-1.85416 0.69665,-4.33458 -0.89659,-5.74797 -0.50421,-1.08947 -1.27292,-2.03077 -2.27066,-2.70113 -1.99368,-1.58137 -4.42268,-2.46224 -6.84971,-3.12539 -1.57751,-0.51198 -3.18441,-1.00562 -4.55735,-1.9668 -1.13472,-0.63232 -2.40717,-1.09782 -3.72432,-1.03302 z m 32.98455,45.988412 c -0.25893,2.422632 -1.19015,4.805281 -2.01434,7.116878 -1.13414,3.389833 -2.62762,6.849029 -5.43223,9.198922 -0.29145,0.530277 -0.67593,0.352393 -1.1219,0.0925 -2.49227,-1.072247 -5.025,-2.048613 -7.58041,-2.959509 -0.31457,-2.043437 -0.14927,-4.124058 -0.23461,-6.183602 -0.007,-0.811384 0.003,-1.62361 0.0574,-2.433443 3.76849,-1.378785 7.66877,-2.619237 11.50782,-3.811137 1.57979,-0.466623 3.12243,-0.896389 4.81831,-1.02061 z" /><path
       id="path1078"
       style="fill:none;stroke:#000000;stroke-width:1.147;stroke-linejoin:miter;stroke-dasharray:none"
       d="m 667.11719,-199.24414 c -4.02397,0.54247 -7.27157,3.20039 -10.52103,5.41159 -2.88511,1.97561 -6.04449,3.46309 -9.24597,4.66424 -2.63779,1.00875 -5.2106,2.18272 -7.78964,3.32261 -1.98894,0.53669 -4.07438,0.46652 -6.10037,0.78809 -2.68366,0.29554 -5.40622,0.24315 -8.07082,0.6896 -1.4207,0.24388 -2.92602,1.26112 -2.93624,2.84262 -0.13597,1.71212 1.21619,3.2022 2.54297,3.94336 1.35277,1.20783 2.41026,2.77869 4.07575,3.60511 1.44075,0.90031 3.17164,1.08773 4.65756,1.87901 1.66238,0.76184 3.51955,0.79541 5.3038,1.01979 0.99294,0.008 2.11415,0.0995 2.98242,-0.44336 0.25597,-0.35459 0.56116,-0.51323 0.99658,-0.5221 2.50862,-0.58477 4.72571,-1.95782 6.91944,-3.25134 -2.9668,3.50486 -5.96296,6.98587 -8.74173,10.64233 -3.49918,4.63329 -7.41787,8.97437 -10.55068,13.88198 -1.37115,2.20967 -2.87087,4.57732 -2.79847,7.28115 -0.0207,2.08691 0.91831,4.02786 1.87799,5.82735 1.64525,2.90327 4.65498,4.92051 7.93289,5.47266 1.39431,0.24167 2.78493,0.49746 4.1843,0.69922 2.19901,0.12659 4.40405,-2.1e-4 6.60575,0.0262 3.59829,-0.0599 7.21621,-0.0993 10.78464,-0.58006 4.71187,-1.04797 9.62413,-1.32589 14.1389,-3.15314 1.68329,-0.59452 3.64687,-0.55798 5.40842,-1.08215 1.21762,-0.334 2.37553,-0.91481 3.6719,-0.8746 1.20635,-0.0128 2.39306,-0.2336 3.57137,-0.44781 2.57558,-0.21379 5.23896,-0.8608 7.21581,-2.62306 1.75833,-1.52007 3.15787,-3.56309 3.6933,-5.84064 0.37478,-2.33776 -0.59321,-4.7093 -1.96559,-6.56128 -1.10426,-1.34235 -2.69644,-2.21359 -3.59004,-3.74356 -2.37752,-3.41227 -2.80909,-7.88036 -5.64664,-11.011 -1.00715,-0.93014 -1.01916,-2.44925 -1.80774,-3.53465 -0.36164,-0.95755 -0.30091,-2.28218 -1.40235,-2.76562 -1.4462,-0.87776 -3.57146,0.20665 -3.64583,1.91735 -0.36826,1.52305 -0.9543,2.98728 -1.13502,4.56067 -0.85714,5.16454 -0.23483,10.41058 -0.11563,15.60206 -5.00047,2.57235 -10.43198,4.21531 -15.94141,5.28527 -3.14172,0.72575 -6.27711,1.13988 -9.47902,1.12535 -2.70994,0.0639 -5.3529,0.0503 -7.98387,-0.3032 0.55426,-2.7122 2.27167,-4.97054 3.69523,-7.28015 3.16644,-4.74197 6.5237,-9.37043 10.34996,-13.60639 3.73088,-4.16167 7.48508,-8.30563 11.35183,-12.34184 2.25428,-2.29121 4.52783,-4.59169 7.30206,-6.20401 1.53736,-0.77246 3.14333,-1.93885 3.41811,-3.76488 0.35699,-1.84112 -1.00338,-3.36681 -2.17188,-4.59961 -0.87876,-0.90607 -2.16302,-1.27735 -2.9707,-2.27148 -2.19878,-2.03743 -4.93967,-3.86419 -8.07031,-3.68164 z" /></g></svg>
