999
"DXF R12 Output" (www.mydxf.blogspot.com)
 0 
SECTION
 2 
HEADER
 9 
$ACADVER
 1 
AC1009
 9 
$EXTMIN
 10 
 0 
 20 
 0 
 9 
$EXTMAX
 10 
 8.5 
 20 
 11 
 0 
ENDSEC
 0 
SECTION
 2 
ENTITIES
0
LINE
8
Layer 1
10
-0.000000
20
420.000000
11
297.000000
21
420.000000
0
LINE
8
Layer 1
10
297.000000
20
420.000000
11
297.000000
21
0.000000
0
LINE
8
Layer 1
10
297.000000
20
0.000000
11
-0.000000
21
0.000000
0
LINE
8
Layer 1
10
-0.000000
20
0.000000
11
-0.000000
21
420.000000
0
LINE
8
Layer 1
10
109.365510
20
302.217080
11
109.365510
21
274.556668
0
LINE
8
Layer 1
10
109.365510
20
274.556668
11
42.514512
21
274.556668
0
LINE
8
Layer 1
10
42.514512
20
274.556668
11
42.514512
21
302.217080
0
LINE
8
Layer 1
10
42.514512
20
302.217080
11
109.365510
21
302.217080
0
LINE
8
Layer 1
10
109.365510
20
395.653328
11
109.365510
21
368.002327
0
LINE
8
Layer 1
10
109.365510
20
368.002327
11
42.514512
21
368.002327
0
LINE
8
Layer 1
10
42.514512
20
368.002327
11
42.514512
21
395.653328
0
LINE
8
Layer 1
10
42.514512
20
395.653328
11
109.365510
21
395.653328
0
LINE
8
Layer 1
10
181.857390
20
302.217080
11
181.857390
21
274.556668
0
LINE
8
Layer 1
10
181.857390
20
274.556668
11
115.006392
21
274.556668
0
LINE
8
Layer 1
10
115.006392
20
274.556668
11
115.006392
21
302.217080
0
LINE
8
Layer 1
10
115.006392
20
302.217080
11
181.857390
21
302.217080
0
LINE
8
Layer 1
10
181.857390
20
395.653328
11
181.857390
21
368.002327
0
LINE
8
Layer 1
10
181.857390
20
368.002327
11
115.006392
21
368.002327
0
LINE
8
Layer 1
10
115.006392
20
368.002327
11
115.006392
21
395.653328
0
LINE
8
Layer 1
10
115.006392
20
395.653328
11
181.857390
21
395.653328
0
LINE
8
Layer 1
10
254.180970
20
395.653328
11
254.180970
21
368.002327
0
LINE
8
Layer 1
10
254.180970
20
368.002327
11
187.329972
21
368.002327
0
LINE
8
Layer 1
10
187.329972
20
368.002327
11
187.329972
21
395.653328
0
LINE
8
Layer 1
10
187.329972
20
395.653328
11
254.180970
21
395.653328
0
LINE
8
Layer 1
10
254.180970
20
302.217080
11
254.180970
21
274.556668
0
LINE
8
Layer 1
10
254.180970
20
274.556668
11
187.329972
21
274.556668
0
LINE
8
Layer 1
10
187.329972
20
274.556668
11
187.329972
21
302.217080
0
LINE
8
Layer 1
10
187.329972
20
302.217080
11
254.180970
21
302.217080
0
LINE
8
Layer 1
10
254.180970
20
364.507973
11
254.180970
21
336.856972
0
LINE
8
Layer 1
10
254.180970
20
336.856972
11
187.329972
21
336.856972
0
LINE
8
Layer 1
10
187.329972
20
336.856972
11
187.329972
21
364.507973
0
LINE
8
Layer 1
10
187.329972
20
364.507973
11
254.180970
21
364.507973
0
LINE
8
Layer 1
10
254.180970
20
333.362091
11
254.180970
21
305.711090
0
LINE
8
Layer 1
10
254.180970
20
305.711090
11
187.329972
21
305.711090
0
LINE
8
Layer 1
10
187.329972
20
305.711090
11
187.329972
21
333.362091
0
LINE
8
Layer 1
10
187.329972
20
333.362091
11
254.180970
21
333.362091
0
LINE
8
Layer 1
10
254.180970
20
271.071700
11
254.180970
21
243.411288
0
LINE
8
Layer 1
10
254.180970
20
243.411288
11
187.329972
21
243.411288
0
LINE
8
Layer 1
10
187.329972
20
243.411288
11
187.329972
21
271.071700
0
LINE
8
Layer 1
10
187.329972
20
271.071700
11
254.180970
21
271.071700
0
LINE
8
Layer 1
10
254.180970
20
239.405930
11
254.180970
21
211.745518
0
LINE
8
Layer 1
10
254.180970
20
211.745518
11
187.329972
21
211.745518
0
LINE
8
Layer 1
10
187.329972
20
211.745518
11
187.329972
21
239.405930
0
LINE
8
Layer 1
10
187.329972
20
239.405930
11
254.180970
21
239.405930
0
LINE
8
Layer 1
10
181.857390
20
364.507973
11
181.857390
21
336.856972
0
LINE
8
Layer 1
10
181.857390
20
336.856972
11
115.006392
21
336.856972
0
LINE
8
Layer 1
10
115.006392
20
336.856972
11
115.006392
21
364.507973
0
LINE
8
Layer 1
10
115.006392
20
364.507973
11
181.857390
21
364.507973
0
LINE
8
Layer 1
10
181.857390
20
333.362091
11
181.857390
21
305.711090
0
LINE
8
Layer 1
10
181.857390
20
305.711090
11
115.006392
21
305.711090
0
LINE
8
Layer 1
10
115.006392
20
305.711090
11
115.006392
21
333.362091
0
LINE
8
Layer 1
10
115.006392
20
333.362091
11
181.857390
21
333.362091
0
LINE
8
Layer 1
10
181.857390
20
271.071700
11
181.857390
21
243.411288
0
LINE
8
Layer 1
10
181.857390
20
243.411288
11
115.006392
21
243.411288
0
LINE
8
Layer 1
10
115.006392
20
243.411288
11
115.006392
21
271.071700
0
LINE
8
Layer 1
10
115.006392
20
271.071700
11
181.857390
21
271.071700
0
LINE
8
Layer 1
10
181.857390
20
239.405930
11
181.857390
21
211.745518
0
LINE
8
Layer 1
10
181.857390
20
211.745518
11
115.006392
21
211.745518
0
LINE
8
Layer 1
10
115.006392
20
211.745518
11
115.006392
21
239.405930
0
LINE
8
Layer 1
10
115.006392
20
239.405930
11
181.857390
21
239.405930
0
LINE
8
Layer 1
10
109.365510
20
364.507973
11
109.365510
21
336.856972
0
LINE
8
Layer 1
10
109.365510
20
336.856972
11
42.514512
21
336.856972
0
LINE
8
Layer 1
10
42.514512
20
336.856972
11
42.514512
21
364.507973
0
LINE
8
Layer 1
10
42.514512
20
364.507973
11
109.365510
21
364.507973
0
LINE
8
Layer 1
10
109.365510
20
333.362091
11
109.365510
21
305.711090
0
LINE
8
Layer 1
10
109.365510
20
305.711090
11
42.514512
21
305.711090
0
LINE
8
Layer 1
10
42.514512
20
305.711090
11
42.514512
21
333.362091
0
LINE
8
Layer 1
10
42.514512
20
333.362091
11
109.365510
21
333.362091
0
LINE
8
Layer 1
10
109.365510
20
271.071700
11
109.365510
21
243.411288
0
LINE
8
Layer 1
10
109.365510
20
243.411288
11
42.514512
21
243.411288
0
LINE
8
Layer 1
10
42.514512
20
243.411288
11
42.514512
21
271.071700
0
LINE
8
Layer 1
10
42.514512
20
271.071700
11
109.365510
21
271.071700
0
LINE
8
Layer 1
10
109.365510
20
239.405930
11
109.365510
21
211.745518
0
LINE
8
Layer 1
10
109.365510
20
211.745518
11
42.514512
21
211.745518
0
LINE
8
Layer 1
10
42.514512
20
211.745518
11
42.514512
21
239.405930
0
LINE
8
Layer 1
10
42.514512
20
239.405930
11
109.365510
21
239.405930
0
LINE
8
Layer 1
10
182.009800
20
114.554020
11
182.009800
21
86.893608
0
LINE
8
Layer 1
10
182.009800
20
86.893608
11
115.158802
21
86.893608
0
LINE
8
Layer 1
10
115.158802
20
86.893608
11
115.158802
21
114.554020
0
LINE
8
Layer 1
10
115.158802
20
114.554020
11
182.009800
21
114.554020
0
LINE
8
Layer 1
10
182.009800
20
207.990170
11
182.009800
21
180.339169
0
LINE
8
Layer 1
10
182.009800
20
180.339169
11
115.158802
21
180.339169
0
LINE
8
Layer 1
10
115.158802
20
180.339169
11
115.158802
21
207.990170
0
LINE
8
Layer 1
10
115.158802
20
207.990170
11
182.009800
21
207.990170
0
LINE
8
Layer 1
10
254.333070
20
207.990170
11
254.333070
21
180.339169
0
LINE
8
Layer 1
10
254.333070
20
180.339169
11
187.482072
21
180.339169
0
LINE
8
Layer 1
10
187.482072
20
180.339169
11
187.482072
21
207.990170
0
LINE
8
Layer 1
10
187.482072
20
207.990170
11
254.333070
21
207.990170
0
LINE
8
Layer 1
10
254.333070
20
114.554020
11
254.333070
21
86.893608
0
LINE
8
Layer 1
10
254.333070
20
86.893608
11
187.482072
21
86.893608
0
LINE
8
Layer 1
10
187.482072
20
86.893608
11
187.482072
21
114.554020
0
LINE
8
Layer 1
10
187.482072
20
114.554020
11
254.333070
21
114.554020
0
LINE
8
Layer 1
10
254.333070
20
176.844850
11
254.333070
21
149.193849
0
LINE
8
Layer 1
10
254.333070
20
149.193849
11
187.482072
21
149.193849
0
LINE
8
Layer 1
10
187.482072
20
149.193849
11
187.482072
21
176.844850
0
LINE
8
Layer 1
10
187.482072
20
176.844850
11
254.333070
21
176.844850
0
LINE
8
Layer 1
10
254.333070
20
145.698970
11
254.333070
21
118.047969
0
LINE
8
Layer 1
10
254.333070
20
118.047969
11
187.482072
21
118.047969
0
LINE
8
Layer 1
10
187.482072
20
118.047969
11
187.482072
21
145.698970
0
LINE
8
Layer 1
10
187.482072
20
145.698970
11
254.333070
21
145.698970
0
LINE
8
Layer 1
10
254.333070
20
83.408630
11
254.333070
21
55.748218
0
LINE
8
Layer 1
10
254.333070
20
55.748218
11
187.482072
21
55.748218
0
LINE
8
Layer 1
10
187.482072
20
55.748218
11
187.482072
21
83.408630
0
LINE
8
Layer 1
10
187.482072
20
83.408630
11
254.333070
21
83.408630
0
LINE
8
Layer 1
10
254.333070
20
51.742740
11
254.333070
21
24.082328
0
LINE
8
Layer 1
10
254.333070
20
24.082328
11
187.482072
21
24.082328
0
LINE
8
Layer 1
10
187.482072
20
24.082328
11
187.482072
21
51.742740
0
LINE
8
Layer 1
10
187.482072
20
51.742740
11
254.333070
21
51.742740
0
LINE
8
Layer 1
10
182.009800
20
176.844850
11
182.009800
21
149.193849
0
LINE
8
Layer 1
10
182.009800
20
149.193849
11
115.158802
21
149.193849
0
LINE
8
Layer 1
10
115.158802
20
149.193849
11
115.158802
21
176.844850
0
LINE
8
Layer 1
10
115.158802
20
176.844850
11
182.009800
21
176.844850
0
LINE
8
Layer 1
10
182.009800
20
145.698970
11
182.009800
21
118.047969
0
LINE
8
Layer 1
10
182.009800
20
118.047969
11
115.158802
21
118.047969
0
LINE
8
Layer 1
10
115.158802
20
118.047969
11
115.158802
21
145.698970
0
LINE
8
Layer 1
10
115.158802
20
145.698970
11
182.009800
21
145.698970
0
LINE
8
Layer 1
10
182.009800
20
83.408630
11
182.009800
21
55.748218
0
LINE
8
Layer 1
10
182.009800
20
55.748218
11
115.158802
21
55.748218
0
LINE
8
Layer 1
10
115.158802
20
55.748218
11
115.158802
21
83.408630
0
LINE
8
Layer 1
10
115.158802
20
83.408630
11
182.009800
21
83.408630
0
LINE
8
Layer 1
10
182.009800
20
51.742740
11
182.009800
21
24.082328
0
LINE
8
Layer 1
10
182.009800
20
24.082328
11
115.158802
21
24.082328
0
LINE
8
Layer 1
10
115.158802
20
24.082328
11
115.158802
21
51.742740
0
LINE
8
Layer 1
10
115.158802
20
51.742740
11
182.009800
21
51.742740
0
LINE
8
Layer 1
10
42.667171
20
180.339170
11
42.667171
21
207.990171
0
LINE
8
Layer 1
10
42.667171
20
207.990171
11
109.518169
21
207.990171
0
LINE
8
Layer 1
10
109.518169
20
207.990171
11
109.518169
21
180.339170
0
LINE
8
Layer 1
10
109.518169
20
180.339170
11
42.667171
21
180.339170
0
LINE
8
Layer 1
10
42.667171
20
149.193850
11
42.667171
21
176.844851
0
LINE
8
Layer 1
10
42.667171
20
176.844851
11
109.518169
21
176.844851
0
LINE
8
Layer 1
10
109.518169
20
176.844851
11
109.518169
21
149.193850
0
LINE
8
Layer 1
10
109.518169
20
149.193850
11
42.667171
21
149.193850
0
LINE
8
Layer 1
10
42.667171
20
118.047970
11
42.667171
21
145.698971
0
LINE
8
Layer 1
10
42.667171
20
145.698971
11
109.518169
21
145.698971
0
LINE
8
Layer 1
10
109.518169
20
145.698971
11
109.518169
21
118.047970
0
LINE
8
Layer 1
10
109.518169
20
118.047970
11
42.667171
21
118.047970
0
LINE
8
Layer 1
10
109.518160
20
114.554020
11
109.518160
21
86.893608
0
LINE
8
Layer 1
10
109.518160
20
86.893608
11
42.667162
21
86.893608
0
LINE
8
Layer 1
10
42.667162
20
86.893608
11
42.667162
21
114.554020
0
LINE
8
Layer 1
10
42.667162
20
114.554020
11
109.518160
21
114.554020
0
LINE
8
Layer 1
10
109.518160
20
83.408630
11
109.518160
21
55.748218
0
LINE
8
Layer 1
10
109.518160
20
55.748218
11
42.667162
21
55.748218
0
LINE
8
Layer 1
10
42.667162
20
55.748218
11
42.667162
21
83.408630
0
LINE
8
Layer 1
10
42.667162
20
83.408630
11
109.518160
21
83.408630
0
LINE
8
Layer 1
10
109.518160
20
51.742740
11
109.518160
21
24.082328
0
LINE
8
Layer 1
10
109.518160
20
24.082328
11
42.667162
21
24.082328
0
LINE
8
Layer 1
10
42.667162
20
24.082328
11
42.667162
21
51.742740
0
LINE
8
Layer 1
10
42.667162
20
51.742740
11
109.518160
21
51.742740
 0 
ENDSEC
 0 
EOF